<?xml version="1.0" standalone="no"?>
<!DOCTYPE svg PUBLIC "-//W3C//DTD SVG 20010904//EN"
 "http://www.w3.org/TR/2001/REC-SVG-20010904/DTD/svg10.dtd">
<svg version="1.0" xmlns="http://www.w3.org/2000/svg"
 width="600.000000pt" height="450.000000pt" viewBox="0 0 600.000000 450.000000"
 preserveAspectRatio="xMidYMid meet">
<metadata>
Created by potrace 1.16, written by Peter Selinger 2001-2019
</metadata>
<g transform="translate(0.000000,450.000000) scale(0.044444,-0.069231)"
fill="#000000" stroke="none">
<path d="M0 3250 l0 -3250 6750 0 6750 0 0 3250 0 3250 -6750 0 -6750 0 0
-3250z m13368 10 c1 -1697 0 -3095 -3 -3108 l-5 -22 -6600 0 c-4005 0 -6601 4
-6605 9 -7 12 -7 6190 1 6202 3 5 2716 8 6607 7 l6602 -3 3 -3085z"/>
<path d="M170 3245 c0 -2461 3 -3085 13 -3085 824 -2 13151 1 13154 3 1 2 3
1389 3 3083 l0 3079 -6585 3 -6585 2 0 -3085z m6654 2842 c57 -42 50 -148 -18
-257 -77 -124 -232 -270 -287 -270 -10 0 -27 14 -39 30 -12 17 -17 30 -13 30
5 0 15 15 21 34 13 35 112 146 131 146 6 0 11 -8 11 -17 0 -14 6 -11 26 12 14
17 34 40 45 53 l19 22 -83 0 c-45 0 -87 -4 -93 -8 -8 -6 -85 -98 -127 -152
-18 -23 -74 -140 -86 -179 -26 -83 0 -173 55 -187 83 -21 195 27 314 135 l45
41 -47 -2 c-26 -1 -50 1 -54 4 -15 16 12 28 60 28 73 0 94 -19 106 -94 10 -63
7 -76 -16 -76 -10 0 -14 12 -14 39 0 22 -5 43 -10 46 -6 4 -34 -18 -63 -48
-193 -202 -409 -247 -501 -103 -27 43 -32 139 -11 212 53 183 276 444 465 544
54 29 136 38 164 17z m-1875 -277 c21 -10 42 -27 47 -37 4 -10 11 -92 14 -183
3 -91 9 -173 14 -182 7 -16 3 -18 -33 -18 -34 0 -41 3 -41 20 0 11 -4 20 -10
20 -5 0 -10 -4 -10 -10 0 -5 -7 -10 -15 -10 -8 0 -15 -4 -15 -9 0 -16 -86 -24
-123 -12 -46 16 -77 60 -77 111 0 83 53 132 158 146 68 9 85 22 76 57 -17 68
-115 75 -143 10 -15 -34 -30 -40 -61 -23 -15 8 -17 15 -10 41 25 87 138 126
229 79z m362 -3 c19 -12 44 -42 57 -67 21 -40 23 -56 20 -145 -3 -89 -7 -104
-31 -141 -15 -23 -39 -47 -54 -55 -32 -17 -107 -17 -128 1 -13 11 -15 2 -15
-79 l0 -92 -36 3 -37 3 1 290 1 290 31 3 c22 2 30 -1 30 -12 0 -21 6 -20 32 4
29 27 86 26 129 -3z m209 -4 c0 -12 7 -10 34 6 39 24 74 26 120 7 57 -24 66
-59 66 -255 l0 -171 -35 0 c-21 0 -35 5 -36 13 -1 6 0 75 0 152 2 164 -6 188
-60 193 -27 2 -40 -3 -59 -23 -24 -26 -25 -33 -28 -181 l-3 -154 -35 0 -34 0
0 214 0 215 23 3 c30 5 47 -1 47 -19z m518 13 c61 -31 64 -41 66 -213 2 -87 6
-170 11 -185 7 -27 6 -28 -30 -28 -28 0 -38 5 -42 19 -5 19 -6 19 -36 1 -106
-60 -207 -14 -207 95 0 82 42 117 175 147 55 12 60 15 57 38 -7 48 -29 70 -71
70 -40 0 -70 -23 -75 -57 -2 -13 -12 -18 -37 -18 -28 0 -35 4 -37 23 -5 30 34
86 73 106 38 19 118 20 153 2z m1050 -3 c70 -45 76 -78 41 -246 -11 -56 -19
-117 -17 -136 3 -35 2 -36 -34 -39 -33 -3 -38 0 -38 18 0 21 0 21 -27 2 -63
-44 -136 -39 -170 11 -32 49 -36 104 -12 153 25 52 64 72 161 82 67 6 73 9 82
34 13 38 -6 58 -56 58 -49 0 -76 -14 -88 -46 -10 -24 -39 -31 -74 -18 -14 5
-13 10 3 42 10 21 27 45 37 54 55 49 141 63 192 31z m384 -14 l31 -30 28 27
c39 38 104 44 143 13 28 -22 28 -24 23 -98 -3 -42 -15 -128 -26 -191 -11 -63
-21 -118 -21 -122 0 -5 -16 -8 -36 -8 -36 0 -36 0 -32 38 3 20 16 97 29 170
21 119 22 134 8 147 -17 17 -46 10 -81 -18 -26 -21 -54 -104 -68 -202 -17
-122 -23 -135 -60 -135 -35 0 -37 12 -19 101 21 109 37 232 32 245 -8 22 -60
17 -83 -8 -39 -41 -53 -81 -74 -208 l-21 -125 -36 -3 -37 -3 5 48 c2 26 8 59
13 73 4 14 19 89 31 168 l23 142 38 0 c37 0 38 -1 32 -27 l-6 -28 24 27 c43
48 96 51 140 7z m527 16 c17 -8 38 -34 51 -61 20 -39 22 -57 17 -123 -5 -72
-38 -171 -57 -171 -4 0 -10 -9 -13 -19 -2 -11 -24 -29 -47 -41 -49 -25 -91
-22 -126 11 l-22 20 -17 -100 -18 -101 -34 0 c-18 0 -33 3 -33 8 -1 18 42 300
50 327 4 17 16 81 26 143 l18 112 33 0 c27 0 33 -4 33 -22 1 -21 1 -21 11 -5
21 36 82 47 128 22z m715 -6 c43 -25 79 -104 55 -120 -26 -17 -63 -6 -69 21
-14 59 -111 66 -118 8 -3 -22 3 -31 30 -47 125 -73 138 -89 138 -166 0 -39 -5
-50 -35 -79 -38 -37 -85 -51 -142 -40 -71 13 -114 65 -112 137 0 23 3 36 6 29
4 -10 8 -10 19 -1 21 18 41 4 48 -34 7 -38 18 -51 54 -62 33 -10 65 0 80 25
20 33 6 56 -59 96 -85 51 -99 69 -99 125 0 63 6 76 49 104 45 31 106 33 155 4z
m-484 -11 c0 -13 -7 -54 -16 -93 -20 -91 -35 -212 -28 -230 9 -24 43 -28 72
-9 59 39 75 77 101 244 l16 105 39 3 39 3 -6 -38 c-3 -21 -13 -74 -21 -118 -9
-44 -23 -120 -31 -170 -9 -49 -19 -93 -21 -97 -3 -4 -16 -8 -29 -8 -25 0 -38
21 -28 47 5 11 0 10 -16 -6 -33 -33 -88 -53 -122 -46 -38 9 -69 49 -69 91 0
36 22 191 41 287 12 56 12 57 45 57 29 0 34 -4 34 -22z m-5181 -595 c34 -33
81 -115 81 -141 0 -5 9 -30 21 -56 11 -25 18 -50 15 -55 -3 -5 -27 -5 -53 0
-88 17 -227 -1 -243 -32 -14 -25 5 -29 60 -12 25 8 85 16 133 19 48 2 93 5 98
7 23 5 95 -236 109 -364 14 -130 2 -203 -45 -275 -46 -69 -147 -174 -169 -174
-9 0 -16 -4 -16 -9 0 -5 -15 -13 -32 -16 -18 -4 -73 -21 -123 -37 -119 -40
-182 -37 -287 14 -41 21 -81 44 -88 53 -7 8 -21 15 -32 15 -16 0 -18 -5 -12
-37 3 -21 15 -51 25 -68 20 -34 122 -125 139 -125 6 0 21 -7 34 -15 20 -14 23
-21 18 -61 -5 -44 -4 -46 19 -42 18 2 25 10 27 31 4 30 6 31 31 17 13 -7 19
-22 20 -52 1 -76 -7 -97 -50 -119 -65 -32 -69 -72 -5 -45 l36 15 0 -35 c0 -37
-29 -89 -78 -142 -38 -40 -75 -41 -80 -2 -4 32 -49 199 -72 270 -53 155 -54
158 -124 187 -38 16 -38 16 -30 57 4 23 8 58 9 79 0 32 8 46 40 76 68 63 71
77 42 162 -14 41 -28 96 -31 124 -7 55 -49 151 -95 219 -27 39 -31 53 -31 111
0 46 4 67 14 71 7 3 24 27 36 55 23 48 23 50 7 103 -23 70 -22 71 20 103 30
23 49 29 120 34 63 5 87 11 97 24 10 14 23 17 65 13 44 -4 56 -2 71 14 17 19
20 19 43 3 24 -15 26 -15 36 3 7 14 17 18 36 14 20 -3 34 3 57 27 44 45 86 43
137 -6z m-781 -665 c23 -23 12 -36 -46 -53 -70 -21 -122 -59 -105 -76 9 -9 32
-3 97 25 46 20 88 36 93 36 10 0 43 -57 43 -75 0 -7 -13 -16 -30 -20 -41 -9
-123 -50 -140 -70 -11 -14 -11 -18 2 -31 14 -14 18 -14 39 -1 13 8 52 27 87
42 69 31 83 27 89 -22 1 -15 5 -44 9 -63 5 -33 1 -40 -71 -112 -54 -55 -83
-78 -101 -78 -35 0 -30 20 17 74 39 44 46 76 17 76 -6 0 -52 -40 -101 -90 -49
-49 -110 -102 -136 -116 -25 -15 -48 -30 -51 -33 -3 -3 -22 -15 -43 -25 -21
-11 -44 -31 -52 -45 -19 -38 -61 -253 -95 -486 -6 -44 -15 -89 -20 -100 -14
-33 -49 -413 -42 -452 4 -23 32 -33 32 -12 0 5 27 41 59 79 64 74 80 122 67
196 -6 30 -5 35 11 32 16 -3 18 5 16 75 -1 43 -7 85 -12 95 -10 16 -10 15 -11
-3 0 -14 -3 -16 -11 -8 -6 6 -13 65 -16 132 -5 115 -5 122 18 156 33 47 43 49
70 11 13 -18 53 -55 89 -82 64 -49 65 -50 68 -102 2 -29 -6 -101 -17 -160 -11
-59 -23 -125 -27 -147 -8 -46 -57 -115 -83 -115 -31 0 -58 -28 -65 -68 -4 -25
-14 -45 -28 -55 -40 -26 -76 -67 -96 -110 -11 -23 -31 -54 -44 -68 -77 -87
-257 -135 -422 -113 -41 6 -51 12 -78 51 -25 38 -30 52 -26 88 5 37 55 212 79
270 27 67 73 176 89 210 10 22 25 60 33 85 20 58 75 191 86 204 4 6 20 43 35
81 27 69 38 95 101 230 18 39 40 93 50 120 21 58 39 87 79 133 16 18 37 43 45
56 28 43 85 121 91 126 3 3 11 16 17 30 64 131 125 197 241 257 70 36 82 39
100 21z m7229 -541 c11 -14 23 -44 112 -279 l68 -177 73 187 c41 103 77 192
81 197 4 6 10 24 13 41 10 43 32 49 169 46 114 -3 117 -3 117 -25 0 -20 -34
-111 -76 -204 -8 -17 -14 -34 -14 -37 0 -3 -11 -30 -25 -60 -14 -30 -25 -62
-25 -70 0 -9 -4 -16 -8 -16 -4 0 -16 -24 -27 -52 -10 -29 -21 -57 -25 -63 -8
-12 -75 -177 -75 -187 0 -3 -3 -10 -7 -14 -13 -13 -9 -51 11 -91 10 -21 34
-74 52 -118 18 -44 44 -109 59 -145 28 -67 42 -101 45 -110 3 -10 25 -61 43
-103 68 -153 95 -228 84 -239 -10 -10 -50 -11 -255 -8 -16 0 -53 62 -62 104
-1 6 -7 25 -14 41 -7 17 -37 93 -68 170 -56 141 -73 174 -73 141 0 -9 -11 -41
-24 -69 -40 -86 -107 -251 -110 -272 -1 -5 -7 -20 -14 -32 -7 -12 -12 -28 -12
-35 0 -8 -6 -22 -13 -32 -11 -15 -30 -17 -141 -17 -71 0 -133 4 -138 9 -5 5
-3 26 7 53 9 24 22 61 28 82 6 20 15 37 19 37 4 0 8 6 8 13 0 11 41 116 75
192 7 17 23 54 35 84 11 30 30 73 40 96 10 23 28 66 40 96 11 30 28 69 36 88
12 24 13 39 6 55 -5 11 -24 57 -42 101 -18 44 -38 94 -45 110 -7 17 -25 59
-39 95 -15 36 -31 74 -36 85 -5 11 -23 56 -40 100 -17 44 -40 99 -52 123 -11
23 -22 60 -25 81 -7 48 -9 47 142 43 73 -2 117 -7 122 -15z m1484 6 c4 -4 20
-69 35 -143 14 -74 30 -140 35 -146 5 -6 6 -13 3 -16 -3 -4 2 -35 10 -70 9
-34 25 -110 36 -167 12 -58 23 -108 26 -112 4 -8 11 -39 44 -204 10 -49 30
-144 44 -210 15 -66 31 -140 36 -165 12 -57 39 -169 46 -195 11 -42 16 -105 8
-105 -132 -5 -247 -1 -255 7 -6 6 -21 66 -35 134 -13 68 -27 132 -30 142 -5
16 -20 17 -171 15 l-166 -3 -13 -64 c-7 -35 -18 -99 -25 -143 -6 -43 -16 -81
-21 -84 -13 -8 -244 -8 -256 0 -9 5 -7 24 17 131 32 143 50 230 70 330 12 61
31 148 43 195 11 47 26 114 33 150 7 36 18 85 23 110 18 77 132 613 132 617 0
11 319 8 331 -4z m-5529 -10 c49 -19 100 -64 125 -108 23 -41 33 -373 12 -386
-19 -12 -216 -11 -237 0 -15 8 -17 24 -16 107 1 90 -1 100 -22 121 -20 20 -33
23 -98 23 -114 0 -118 -8 -114 -204 l3 -128 50 -18 c28 -10 129 -43 225 -75
96 -31 185 -63 198 -71 l23 -15 -3 -307 -3 -307 -29 -46 c-16 -25 -50 -59 -75
-75 l-46 -29 -201 -3 c-120 -2 -217 1 -240 7 -59 16 -119 65 -146 119 -21 42
-23 63 -26 215 l-4 168 134 -3 133 -3 5 -108 c6 -132 10 -137 116 -137 114 0
117 4 122 184 4 119 2 146 -9 146 -31 0 -462 146 -480 163 -19 18 -20 31 -17
320 l3 302 28 47 c15 26 41 57 58 69 60 42 94 48 296 49 157 0 201 -3 235 -17z
m1151 -112 c-1 -67 -4 -125 -6 -127 -3 -3 -118 -5 -256 -5 l-251 0 2 -187 3
-187 190 -3 c104 -1 193 -6 198 -11 12 -12 11 -231 0 -242 -5 -5 -95 -9 -201
-9 l-192 -1 2 -187 3 -187 250 -3 c142 -1 252 -6 255 -12 6 -10 4 -240 -3
-247 -8 -8 -751 -3 -759 5 -6 6 -11 899 -8 1517 0 13 47 15 388 13 l387 -3 -2
-124z m962 -1 l0 -125 -125 -5 -125 -5 -3 -555 c-1 -305 -3 -593 -5 -639 l-2
-84 -122 1 c-67 0 -127 3 -133 7 -7 4 -10 218 -10 641 l0 634 -118 0 c-65 0
-122 4 -127 9 -6 6 -9 63 -7 131 l3 120 387 -2 387 -3 0 -125z m1483 30 c2
-52 0 -110 -3 -127 l-6 -33 -249 0 -250 0 0 -190 0 -190 194 0 c146 0 195 -3
198 -12 6 -18 0 -227 -7 -239 -4 -5 -88 -9 -196 -9 l-189 0 0 -190 0 -190 250
0 250 0 5 -22 c3 -13 5 -70 3 -128 l-3 -105 -370 -5 c-203 -3 -378 -1 -387 3
-17 7 -18 53 -18 766 0 417 3 761 7 764 4 4 178 6 387 5 l381 -3 3 -95z m2800
88 c6 -7 17 -49 26 -93 9 -44 25 -120 36 -170 11 -49 32 -144 45 -210 14 -66
38 -174 55 -240 16 -66 35 -149 43 -185 l14 -65 7 40 c4 22 18 87 31 145 13
58 31 141 40 185 10 44 35 152 56 240 21 88 45 201 54 252 9 51 23 97 30 103
8 7 69 10 171 8 l159 -3 3 -759 c1 -422 -2 -764 -7 -769 -11 -11 -241 -11
-253 1 -5 5 -7 192 -6 445 2 240 0 437 -4 437 -5 0 -8 -10 -9 -22 -1 -27 -1
-26 -27 -138 -11 -47 -27 -116 -36 -155 -8 -38 -27 -121 -41 -183 -15 -63 -24
-116 -21 -119 3 -3 -1 -20 -8 -37 -7 -17 -16 -55 -20 -84 -4 -29 -11 -63 -16
-75 -5 -12 -11 -34 -14 -49 -6 -28 -7 -28 -92 -28 -59 0 -86 4 -88 13 -6 18
-42 178 -66 292 -12 55 -28 127 -36 160 -22 94 -75 346 -81 388 -16 105 -22
-4 -22 -400 -1 -240 -4 -440 -9 -445 -10 -10 -231 -12 -240 -3 -9 8 -15 1458
-7 1503 l6 32 158 0 c115 0 161 -3 169 -12z m-8755 -220 c91 -30 108 -40 201
-117 111 -93 280 -258 341 -335 73 -92 148 -167 181 -181 20 -8 46 -34 71 -72
22 -32 50 -73 62 -90 20 -26 23 -40 19 -90 -5 -76 -45 -127 -128 -164 -159
-72 -315 -111 -525 -133 -16 -2 -70 -9 -120 -15 -49 -7 -196 -16 -325 -21
-246 -9 -367 -26 -404 -58 -12 -9 -54 -48 -94 -87 -82 -78 -150 -118 -232
-136 -30 -6 -62 -15 -71 -20 -23 -12 -126 -171 -131 -200 -2 -18 -10 -25 -30
-27 -16 -2 -28 1 -28 5 0 17 52 118 84 163 66 92 87 136 73 148 -30 26 -138
-125 -197 -275 -7 -18 -14 -33 -17 -33 -11 0 -52 54 -45 59 5 3 23 33 40 67
34 68 86 140 143 198 22 22 39 46 39 53 0 24 -30 26 -52 4 -20 -22 -36 -23
-23 -2 18 31 218 144 274 156 18 4 48 15 65 25 17 10 65 26 106 35 41 10 104
28 140 41 36 12 112 34 170 49 58 14 140 37 183 51 79 25 160 45 282 69 235
46 404 101 462 151 25 22 67 31 112 24 7 -1 25 1 39 5 18 4 22 9 14 17 -7 7
-61 12 -134 13 -71 1 -154 8 -197 18 -92 21 -128 52 -176 152 -26 53 -40 71
-55 72 -30 3 -49 20 -74 70 -11 23 -40 73 -62 110 -47 77 -59 116 -69 223 -7
69 -16 89 -39 90 -12 0 0 -173 17 -243 9 -34 39 -97 76 -157 65 -108 98 -190
113 -285 5 -33 11 -74 14 -92 6 -30 4 -32 -37 -44 -24 -6 -69 -20 -99 -31 -30
-10 -66 -20 -80 -22 -14 -1 -32 -5 -40 -9 -8 -3 -55 -16 -105 -27 -95 -22
-153 -40 -170 -51 -5 -4 -25 -10 -44 -14 l-35 -7 30 38 c16 22 42 62 57 90 24
45 27 63 27 140 0 118 -15 215 -40 261 l-20 38 30 6 c40 9 65 31 110 101 43
65 60 140 60 256 l0 72 82 0 c65 0 102 -7 181 -32z m394 -1470 c15 -7 44 -25
64 -40 20 -15 41 -28 45 -28 8 0 172 -77 429 -201 66 -31 132 -61 148 -64 15
-4 30 -11 33 -16 2 -5 24 -13 47 -20 43 -11 70 -22 170 -67 l58 -26 -33 -18
c-18 -9 -40 -17 -50 -18 -15 0 -134 -49 -171 -70 -10 -6 -61 -24 -115 -41 -53
-17 -140 -46 -192 -64 -134 -48 -276 -92 -335 -103 -27 -6 -78 -17 -112 -24
-70 -16 -97 -8 -126 36 -26 40 -142 116 -220 145 -92 35 -94 36 -164 101 -32
30 -96 80 -143 112 -47 31 -104 71 -128 88 -24 17 -48 27 -54 24 -6 -4 -8 -3
-5 3 4 5 -4 16 -17 23 -13 7 -29 24 -35 37 -16 34 3 54 66 71 26 7 62 17 78
22 17 5 59 12 95 15 36 3 72 8 80 10 16 4 55 9 175 20 71 7 171 33 300 78 88
30 79 29 112 15z m-958 -350 c0 -7 -28 -31 -62 -53 -60 -38 -86 -75 -53 -75
12 0 84 45 152 94 14 11 22 8 149 -68 50 -29 90 -58 90 -64 0 -6 -19 -25 -43
-42 -47 -34 -60 -56 -44 -72 8 -8 28 2 71 40 55 48 62 51 85 40 14 -6 26 -14
26 -17 -1 -3 -23 -22 -50 -41 -28 -19 -50 -43 -50 -52 0 -28 17 -22 80 28 53
41 61 44 82 33 34 -17 34 -17 8 -44 -35 -38 -13 -51 32 -19 l36 26 78 -28 c44
-16 90 -38 104 -51 14 -13 28 -23 32 -23 4 0 40 -29 80 -65 43 -39 78 -63 87
-61 9 3 59 15 111 27 141 32 513 149 670 211 104 41 102 41 133 13 34 -30 28
-45 -18 -45 -44 0 -138 -36 -200 -77 -27 -18 -57 -33 -65 -33 -8 0 -24 -7 -34
-15 -11 -8 -27 -15 -36 -15 -31 0 -177 -50 -236 -81 -63 -33 -195 -78 -255
-86 -21 -3 -51 2 -75 12 -21 9 -73 27 -114 40 -141 45 -321 122 -334 144 -3 5
-17 12 -30 15 -13 3 -67 26 -119 51 -53 25 -98 45 -101 45 -4 0 -25 9 -49 19
-23 11 -69 30 -102 44 -196 78 -205 84 -205 147 1 31 13 47 65 83 42 28 106
37 104 15z m1462 -991 l-2 -127 37 25 c28 19 50 25 89 25 65 0 98 -24 131 -94
21 -45 23 -62 20 -143 -4 -81 -8 -97 -33 -135 -15 -23 -42 -50 -60 -61 -44
-25 -118 -29 -175 -9 -48 17 -51 16 -120 -13 -15 -6 -16 16 -15 292 1 316 -3
343 -45 343 -14 0 -18 4 -12 9 8 9 104 19 163 17 l23 -1 -1 -128z m486 95 c29
-34 29 -43 -2 -76 -48 -52 -145 -25 -145 42 0 36 11 51 46 62 42 13 76 3 101
-28z m1044 28 c22 0 47 -46 41 -75 -8 -38 -33 -55 -80 -55 -64 0 -96 41 -76
95 8 20 63 46 82 40 8 -3 22 -5 33 -5z m-3001 -60 c62 -24 56 -25 64 2 4 16 8
20 16 12 7 -7 10 -47 8 -105 -2 -75 -6 -94 -18 -94 -9 0 -17 14 -21 38 -13 81
-62 136 -120 137 -53 0 -89 -32 -89 -79 0 -30 7 -44 43 -77 23 -22 65 -55 94
-73 61 -38 125 -102 135 -133 12 -44 8 -92 -12 -134 -30 -60 -78 -81 -203 -85
-53 -2 -92 -2 -86 0 7 2 -3 10 -21 17 -41 18 -50 18 -50 0 0 -21 -30 -29 -31
-8 -4 107 2 227 10 226 6 -1 14 -2 19 -3 4 0 8 -19 8 -40 3 -59 43 -131 87
-154 34 -17 42 -18 82 -6 52 15 71 48 61 104 -8 41 -33 66 -136 139 -95 67
-110 85 -125 143 -11 42 -10 53 6 91 10 24 25 49 33 57 46 46 162 58 246 25z
m4102 -90 c-3 -64 -7 -90 -15 -87 -7 2 -13 12 -15 23 -9 50 -36 102 -62 117
-41 25 -126 23 -140 -2 -5 -11 -10 -67 -10 -125 0 -106 0 -106 24 -106 33 0
74 40 82 79 5 21 12 31 22 29 12 -2 14 -24 14 -123 -1 -88 -4 -120 -13 -120
-7 0 -16 14 -21 32 -10 37 -51 73 -84 73 -24 0 -24 -1 -24 -118 0 -78 4 -122
12 -130 27 -27 145 -3 175 37 7 9 20 42 30 74 27 90 43 75 43 -43 l0 -100
-235 0 c-150 0 -235 4 -235 10 0 6 8 10 18 10 9 0 25 7 35 14 15 12 17 37 17
264 l0 251 -32 9 c-17 4 -33 13 -36 20 -3 9 53 12 220 14 123 2 225 0 228 -3
3 -4 4 -48 2 -99z m3618 -5 c0 -82 -3 -105 -14 -105 -7 0 -17 15 -21 33 -10
42 -8 37 -28 77 -19 38 -62 70 -96 70 -21 0 -21 -3 -21 -252 0 -277 2 -288 62
-288 15 0 28 -4 28 -10 0 -5 -13 -10 -30 -10 -238 -3 -295 -1 -295 12 0 8 9
12 22 10 26 -4 66 15 58 28 -3 5 -1 11 5 15 6 4 10 96 10 251 0 241 0 244 -21
244 -43 0 -86 -30 -104 -73 -24 -57 -32 -79 -39 -99 -14 -44 -25 -10 -28 85
-2 56 -2 105 0 110 2 4 118 7 258 7 l254 0 0 -105z m-2888 9 l-4 -65 143 3
c143 2 144 2 143 -20 0 -12 3 -22 8 -22 4 0 8 4 8 8 0 16 60 42 97 42 47 0 72
-22 79 -71 6 -45 -14 -69 -63 -76 -29 -4 -44 -1 -56 12 -20 19 -22 66 -5 83 9
9 8 12 -4 12 -9 0 -26 -15 -37 -34 -19 -30 -21 -49 -21 -174 0 -134 1 -142 22
-156 12 -9 30 -16 40 -16 10 0 18 -4 18 -10 0 -6 -52 -10 -135 -10 -127 0
-166 9 -112 26 12 4 25 12 29 18 4 6 8 82 8 169 0 190 -3 197 -100 197 l-60 0
2 -182 3 -183 26 -3 c19 -2 31 4 43 24 12 18 21 23 28 16 16 -16 -27 -78 -60
-90 -42 -14 -122 1 -144 28 -16 19 -18 42 -18 175 0 188 -4 215 -34 209 -22
-3 -55 11 -45 20 3 3 20 6 37 8 36 3 48 25 40 78 -4 27 -2 30 21 30 14 1 40 7
56 14 46 20 51 13 47 -60z m3868 0 l0 -65 45 2 c44 3 65 -5 52 -17 -4 -4 -27
-7 -52 -7 l-45 0 2 -181 3 -181 28 -3 c19 -2 29 2 34 15 8 21 24 34 35 27 9
-6 -17 -60 -39 -82 -9 -9 -36 -14 -75 -14 -57 0 -64 2 -90 31 l-28 31 0 181 0
181 -32 -4 c-24 -2 -33 1 -33 12 0 11 9 14 33 12 l33 -4 -3 54 -3 53 60 15
c33 9 63 14 68 12 4 -2 7 -32 7 -68z m-5897 -95 c-1 -24 -2 -59 -2 -76 -1 -46
-27 -43 -36 3 -13 72 -84 115 -124 75 -32 -32 -26 -51 30 -101 138 -121 149
-134 149 -178 0 -54 -14 -83 -55 -111 -28 -19 -47 -23 -100 -22 -37 0 -78 7
-95 16 -27 14 -30 14 -43 -5 -8 -11 -17 -17 -20 -13 -9 8 -9 168 0 176 11 12
33 -15 33 -42 0 -35 34 -89 65 -103 20 -9 31 -8 51 3 15 7 29 19 31 26 8 22
-6 60 -29 81 -63 58 -93 82 -100 82 -14 0 -58 79 -58 104 0 41 29 95 60 111
35 18 138 20 175 3 23 -10 28 -10 37 6 17 30 33 12 31 -35z m617 -35 c0 -67
-2 -74 -20 -74 -15 0 -20 7 -20 25 0 67 -63 116 -117 92 -42 -19 -30 -59 33
-114 139 -119 136 -116 141 -169 5 -44 2 -54 -23 -83 -15 -18 -39 -37 -53 -43
-39 -15 -136 -11 -170 6 -28 15 -31 15 -45 -6 -9 -12 -18 -19 -22 -15 -8 8 -9
176 -1 184 10 9 27 -8 27 -28 0 -38 34 -98 67 -116 28 -15 35 -15 57 -3 56 29
38 83 -51 155 -79 64 -103 100 -103 150 0 49 18 77 64 99 44 21 144 21 173 1
20 -14 23 -14 33 5 19 36 30 11 30 -66z m957 52 c28 19 49 24 98 24 54 0 64
-3 88 -28 l27 -28 0 -165 c0 -90 4 -169 8 -175 4 -6 17 -14 30 -18 47 -15 18
-25 -84 -28 -131 -4 -145 0 -104 30 l30 23 0 156 c0 147 -1 157 -22 174 -28
25 -41 24 -75 -5 -28 -24 -28 -25 -31 -169 -4 -148 3 -187 33 -187 8 0 15 -4
15 -10 0 -6 -47 -10 -120 -10 -73 0 -120 4 -120 10 0 9 14 12 36 9 18 -2 24
41 24 194 0 111 -4 167 -11 167 -5 0 -8 4 -5 9 3 5 -6 12 -19 15 -45 11 -16
26 53 27 37 0 76 4 87 8 17 7 20 4 23 -20 l3 -28 36 25z m1542 -21 c2 21 63
45 117 45 111 0 124 -25 124 -234 0 -127 3 -157 16 -170 8 -9 22 -16 30 -16 8
0 14 -4 14 -10 0 -6 -47 -10 -120 -10 -73 0 -120 4 -120 10 0 6 7 10 15 10 8
0 19 9 25 19 11 21 14 290 4 328 -12 45 -78 36 -101 -14 -13 -28 -19 -286 -7
-317 3 -9 12 -16 20 -16 8 0 14 -5 14 -11 0 -7 -44 -10 -127 -10 -71 1 -153
-2 -185 -5 -52 -6 -58 -4 -79 20 l-23 26 -24 -22 c-19 -19 -35 -23 -87 -23
-86 0 -105 17 -105 96 0 54 2 60 33 85 31 24 76 45 132 61 39 11 55 34 55 79
0 79 -35 116 -91 95 l-23 -8 22 -12 c16 -9 22 -21 22 -46 0 -78 -103 -101
-130 -29 -15 39 -2 71 39 96 31 20 50 23 133 23 93 0 99 -1 125 -27 27 -27 27
-29 33 -200 5 -172 5 -173 28 -170 12 2 22 -2 22 -7 0 -17 32 -13 46 7 10 12
13 59 14 175 0 144 -2 159 -20 177 -11 11 -25 20 -32 20 -9 0 -9 3 0 12 7 7
38 10 81 9 47 -2 72 2 77 10 5 9 12 2 20 -22 7 -18 13 -29 13 -24z m1021 23
c26 -17 46 -61 55 -120 l7 -48 -121 0 c-135 0 -128 5 -110 -79 11 -51 44 -105
59 -96 5 3 10 0 12 -6 6 -19 75 -1 103 26 44 45 61 24 28 -34 -28 -47 -84 -74
-155 -72 -92 2 -144 38 -173 120 -34 99 -10 226 55 285 38 34 55 42 110 48 35
5 105 -9 130 -24z m1532 22 c2 -5 2 -41 0 -80 -3 -52 -7 -70 -18 -70 -8 0 -14
7 -14 15 0 32 -40 92 -69 104 -28 12 -70 2 -72 -17 0 -4 -2 -17 -5 -29 -3 -18
13 -36 81 -93 101 -84 115 -103 115 -152 0 -59 -19 -89 -73 -114 -55 -25 -128
-24 -178 2 -35 18 -43 18 -36 0 3 -8 -1 -17 -9 -20 -21 -8 -25 11 -22 100 3
79 17 102 29 47 20 -95 92 -150 141 -106 37 33 18 81 -54 138 -103 81 -123
114 -113 183 9 61 57 92 143 92 36 0 75 -6 92 -15 27 -14 29 -14 35 5 7 21 21
27 27 10z m-7721 -35 c1 -16 3 -23 6 -14 7 27 58 49 113 49 56 0 110 -22 110
-45 0 -8 5 -15 10 -15 6 0 10 5 10 10 0 24 65 50 126 50 52 0 64 -4 85 -26 23
-25 24 -32 27 -192 3 -135 6 -170 19 -184 9 -10 22 -18 30 -18 17 0 17 -20 1
-21 -39 -2 -203 3 -206 6 -2 2 5 13 16 25 18 19 19 33 16 182 -3 99 -8 166
-15 175 -22 26 -58 12 -92 -37 -24 -35 -25 -290 -1 -314 8 -9 22 -16 30 -16 8
0 14 -4 14 -10 0 -6 -45 -10 -115 -10 -63 0 -115 2 -115 5 0 3 11 16 25 29 25
23 25 26 25 176 0 144 -1 154 -22 171 -11 11 -23 19 -25 19 -17 0 -63 -37 -67
-54 -8 -28 -8 -290 0 -310 3 -9 12 -16 20 -16 8 0 14 -4 14 -10 0 -6 -39 -11
-95 -12 -52 -1 -103 -2 -112 -2 -10 -1 -18 6 -18 14 0 8 8 15 18 15 10 0 22 7
27 15 5 8 10 86 10 173 0 144 -2 159 -20 177 -24 24 -29 24 -58 2 -20 -15 -75
-152 -114 -282 -32 -108 -91 -239 -113 -254 -37 -24 -108 -21 -141 7 -23 20
-26 28 -20 60 6 32 11 37 41 43 45 8 81 -1 88 -23 2 -10 8 -27 13 -37 5 -14 4
-17 -4 -12 -7 4 -12 5 -12 2 0 -2 -3 -12 -7 -21 -13 -36 37 5 52 42 20 48 20
51 -16 130 -37 82 -68 151 -79 178 -35 85 -71 153 -89 169 -11 11 -21 23 -21
28 0 4 54 8 120 8 72 0 120 -4 120 -10 0 -5 -11 -12 -25 -16 -32 -8 -32 -26 1
-100 40 -91 42 -96 55 -139 11 -37 13 -38 21 -16 4 12 5 28 1 33 -3 6 -2 8 4
5 6 -4 19 24 32 66 31 106 30 113 -24 152 -34 25 -5 30 164 30 l161 0 1 -30z
m1209 -164 l0 -199 30 -14 c17 -7 30 -16 30 -20 0 -9 -229 -15 -243 -6 -13 8
-6 18 15 22 36 5 38 15 38 187 l0 170 -30 17 c-16 9 -30 20 -30 24 0 4 33 9
73 11 39 1 82 4 95 5 l22 2 0 -199z m400 174 c51 -32 65 -55 84 -137 14 -61
14 -74 0 -136 -25 -113 -79 -154 -200 -154 -140 0 -196 59 -202 213 -5 111 18
172 80 212 37 23 52 27 120 27 66 0 84 -4 118 -25z m670 -169 c0 -200 3 -215
42 -229 29 -10 -3 -15 -102 -17 -58 -1 -111 -2 -117 -1 -20 2 -15 21 5 21 38
0 42 18 42 189 0 92 -4 171 -8 177 -4 7 -15 13 -25 15 -43 9 -11 24 60 30 43
3 84 6 91 7 9 2 12 -43 12 -192z m3492 185 c43 -17 68 -49 68 -89 -1 -55 -19
-74 -71 -70 -36 2 -46 8 -57 30 -14 30 -3 73 26 94 15 12 14 13 -13 14 -63 0
-99 -52 -110 -158 -15 -156 98 -246 188 -149 38 41 54 24 26 -28 -38 -70 -94
-96 -180 -85 -31 5 -65 13 -75 18 -37 20 -71 68 -83 114 -33 136 10 262 104
304 34 15 143 18 177 5z m1539 -14 c37 -25 58 -70 58 -129 l1 -38 -115 0 -115
0 0 -27 c1 -91 48 -163 107 -163 24 0 44 10 73 36 33 30 41 33 46 20 7 -17
-16 -58 -49 -90 -49 -47 -174 -51 -237 -6 -100 71 -98 308 4 384 38 29 54 33
132 35 48 1 68 -4 95 -22z"/>
<path d="M4860 5573 c-67 -18 -80 -28 -80 -62 0 -35 10 -48 40 -56 56 -14 102
26 115 98 8 43 8 43 -75 20z"/>
<path d="M5191 5729 c-29 -31 -41 -72 -41 -142 0 -79 52 -146 104 -133 70 17
91 215 30 281 -31 33 -59 32 -93 -6z"/>
<path d="M5965 5575 c-73 -19 -83 -24 -89 -51 -15 -57 42 -91 100 -59 36 19
43 30 54 88 8 42 10 41 -65 22z"/>
<path d="M6986 5585 c-75 -12 -96 -29 -96 -76 0 -64 76 -78 124 -22 21 25 53
101 44 107 -2 2 -34 -2 -72 -9z"/>
<path d="M7885 5734 c-66 -67 -79 -231 -21 -269 47 -31 96 15 120 114 21 86
20 107 -5 142 -23 33 -67 39 -94 13z"/>
<path d="M10811 3630 c-1 -8 -11 -64 -22 -125 -11 -60 -28 -159 -39 -220 -10
-60 -24 -137 -30 -170 -23 -115 -30 -105 74 -106 50 0 101 -2 114 -3 21 -3 23
0 18 33 -6 40 -32 190 -46 261 -15 75 -40 213 -46 253 -8 49 -22 96 -23 77z"/>
<path d="M3434 2200 c-29 -4 -56 -10 -61 -13 -4 -3 -29 -8 -53 -12 -88 -13
-255 -50 -293 -64 -19 -8 -27 -17 -25 -29 4 -20 21 -20 103 1 33 8 132 32 220
52 174 40 215 53 215 66 0 10 -32 10 -106 -1z"/>
<path d="M3600 2100 c-36 -9 -139 -42 -230 -73 -91 -30 -181 -60 -200 -65
-113 -34 -170 -60 -170 -78 0 -25 18 -23 131 17 63 22 142 49 176 59 34 10 67
22 74 25 6 4 32 13 57 20 58 17 255 85 262 91 4 5 -21 24 -30 23 -3 0 -34 -9
-70 -19z"/>
<path d="M3745 2040 c-165 -51 -205 -62 -260 -76 -33 -8 -96 -26 -140 -39 -44
-13 -91 -27 -105 -30 -50 -13 -140 -59 -140 -71 0 -21 23 -22 70 -2 45 20 249
81 307 93 107 22 353 116 353 135 0 13 -15 12 -85 -10z"/>
<path d="M3815 1955 c-44 -13 -123 -35 -175 -50 -52 -14 -106 -30 -120 -34
-14 -5 -79 -26 -145 -47 -133 -41 -151 -50 -135 -69 12 -14 39 -10 135 23 33
11 114 36 180 57 66 20 156 50 201 66 44 16 84 29 88 29 16 0 76 33 76 41 0
12 -13 10 -105 -16z"/>
<path d="M4170 1880 c-55 -13 -251 -70 -290 -85 -19 -7 -66 -23 -105 -35 -38
-12 -74 -26 -80 -30 -5 -4 -22 -10 -37 -14 -35 -8 -37 -36 -4 -36 14 0 55 11
93 24 37 13 95 32 128 41 33 9 69 21 80 26 11 5 50 18 86 29 153 46 252 108
129 80z"/>
<path d="M4028 832 c-36 -21 -40 -45 -36 -217 l3 -140 37 -9 c33 -8 39 -7 57
15 29 35 44 120 39 230 -3 88 -6 100 -27 118 -29 25 -38 26 -73 3z"/>
<path d="M4733 851 c-42 -39 -56 -247 -23 -337 14 -40 53 -63 74 -44 31 25 48
76 53 160 4 69 1 99 -16 156 -25 86 -48 102 -88 65z"/>
</g>
</svg>
