<?xml version="1.0" standalone="no"?>
<!DOCTYPE svg PUBLIC "-//W3C//DTD SVG 20010904//EN"
 "http://www.w3.org/TR/2001/REC-SVG-20010904/DTD/svg10.dtd">
<svg version="1.0" xmlns="http://www.w3.org/2000/svg"
 width="600.000000pt" height="450.000000pt" viewBox="0 0 600.000000 450.000000"
 preserveAspectRatio="xMidYMid meet">
<metadata>
Created by potrace 1.16, written by Peter Selinger 2001-2019
</metadata>
<g transform="translate(0.000000,450.000000) scale(0.081081,-0.118421)"
fill="#000000" stroke="none">
<path d="M296 3493 c-48 -5 -66 -22 -66 -63 0 -63 45 -100 120 -100 45 0 104
25 95 41 -4 5 -1 8 7 7 18 -4 24 78 6 96 -15 15 -103 25 -162 19z"/>
<path d="M775 2338 l0 -58 51 6 52 6 118 -173 c64 -96 118 -183 118 -194 0
-11 -53 -100 -119 -199 l-119 -178 -51 6 -50 6 0 -58 0 -57 182 0 183 0 0 58
0 57 -57 -7 -57 -6 15 24 c9 13 46 72 83 132 37 59 71 107 74 107 8 -1 172
-244 172 -255 0 -4 -20 -5 -45 -2 l-45 7 0 -58 0 -57 395 0 395 0 0 57 0 58
-62 -7 c-50 -5 -60 -4 -56 8 3 8 16 58 29 112 l23 97 136 0 137 0 12 -52 c6
-29 18 -79 26 -112 l14 -59 -55 7 -54 6 0 -57 0 -58 215 0 215 0 0 57 0 57
-52 -2 -53 -2 -109 420 -110 420 -143 0 -143 0 -13 -45 c-7 -25 -60 -214 -117
-421 l-104 -375 -90 -1 -91 0 -133 195 -134 194 117 175 117 175 49 -6 49 -7
0 58 0 58 -175 0 -175 0 0 -58 0 -58 51 7 50 7 -66 -109 c-37 -60 -73 -115
-79 -122 -10 -10 -28 11 -89 103 -42 63 -77 118 -77 121 0 4 23 4 50 0 l50 -7
0 58 0 58 -228 0 -227 0 0 -57z m1470 -445 c5 -23 4 -23 -103 -23 l-109 0 44
183 c72 301 58 293 114 62 27 -110 51 -210 54 -222z"/>
<path d="M2630 2213 l0 -183 80 0 80 0 0 125 0 125 75 0 75 0 0 -366 0 -367
-80 7 -79 6 2 -57 1 -58 268 0 268 0 0 58 0 57 -80 -6 -80 -7 0 367 0 366 75
0 75 0 0 -125 0 -125 80 0 80 0 0 183 0 182 -420 0 -420 0 0 -182z"/>
<path d="M5990 2393 c-182 -4 -170 3 -170 -97 0 -45 3 -86 6 -89 4 -3 15 -2
26 4 17 9 19 20 17 77 l-3 67 46 9 c76 15 75 16 82 -151 3 -81 8 -192 11 -245
l5 -98 -46 0 c-29 0 -44 -4 -42 -11 4 -12 212 -14 230 -3 20 13 4 23 -34 21
l-43 -2 -6 165 c-4 91 -8 201 -9 245 l-3 80 61 3 62 3 0 -69 c0 -76 2 -82 31
-75 17 5 19 15 19 89 l0 84 -57 -2 c-32 -1 -114 -4 -183 -5z"/>
<path d="M5502 2233 c-17 -76 -43 -193 -58 -260 -30 -134 -29 -133 -110 -133
l-41 0 -82 136 -81 135 58 112 c47 93 61 113 82 115 52 7 44 22 -12 22 -74 0
-118 -10 -118 -26 0 -10 9 -12 30 -7 17 3 30 3 30 -1 0 -12 -85 -176 -91 -176
-9 0 -99 153 -99 168 0 7 11 12 24 12 14 0 28 5 31 10 7 11 -142 14 -169 4
-26 -10 -18 -30 11 -29 23 0 35 -14 95 -113 37 -62 68 -117 68 -122 0 -5 -27
-63 -60 -129 -48 -94 -65 -120 -85 -125 -14 -4 -25 -12 -25 -19 0 -10 16 -11
75 -3 71 9 104 26 50 26 -17 0 -25 5 -25 18 1 23 82 186 95 189 6 2 25 -23 43
-54 18 -32 44 -77 58 -101 l26 -42 -31 -6 c-18 -4 -30 -12 -28 -18 3 -6 10
-10 17 -8 10 2 263 19 333 22 4 0 7 5 7 10 0 6 -14 10 -31 10 l-32 0 8 43 c4
23 10 60 14 82 l6 40 70 7 c39 4 78 5 87 2 11 -3 25 -32 41 -82 l23 -77 -28
-8 c-15 -4 -28 -14 -28 -21 0 -10 10 -11 43 -5 23 4 63 8 90 9 26 0 47 5 47
10 0 6 -13 10 -29 10 -27 0 -30 5 -48 63 -11 34 -46 149 -79 254 l-59 193 -41
0 -41 0 -31 -137z m102 -41 c21 -68 36 -125 34 -127 -2 -2 -32 -5 -68 -7 -76
-4 -73 -15 -41 137 22 105 29 130 35 124 2 -2 20 -60 40 -127z"/>
<path d="M5548 1483 c-16 -2 -28 -9 -28 -14 0 -5 -7 -9 -16 -9 -10 0 -14 -6
-11 -14 3 -7 -1 -31 -8 -52 -16 -45 -19 -88 -6 -80 5 3 12 20 15 38 12 61 24
67 120 69 109 2 127 -11 134 -95 6 -71 22 -63 22 12 0 44 -6 64 -26 93 -37 53
-91 68 -196 52z"/>
<path d="M550 1160 l0 -170 1525 0 1525 0 0 170 0 170 -1525 0 -1525 0 0 -170z
m2310 61 c0 -28 2 -29 33 -24 35 5 49 -5 61 -44 7 -21 4 -23 -33 -23 -30 0
-41 -4 -41 -15 0 -20 28 -31 43 -16 6 6 17 11 25 11 12 0 12 -3 2 -15 -7 -8
-25 -15 -41 -15 -37 0 -64 38 -55 80 4 22 2 30 -9 30 -9 0 -15 10 -15 25 0 16
-6 25 -15 25 -12 0 -15 -15 -15 -74 0 -63 3 -75 18 -79 9 -3 -3 -5 -28 -5 -25
0 -37 2 -27 5 14 4 17 16 17 79 0 59 -3 74 -15 74 -9 0 -15 -9 -15 -25 0 -16
-6 -25 -15 -25 -10 0 -15 10 -15 30 l0 30 70 0 70 0 0 -29z"/>
<path d="M5680 944 c-25 -7 -76 -13 -114 -13 l-68 -1 6 -72 c13 -146 8 -133
57 -130 24 2 47 6 52 11 4 4 1 24 -8 44 -8 20 -15 48 -15 62 0 25 3 26 43 23
44 -3 51 -16 33 -60 -6 -13 2 -22 34 -38 42 -21 66 -19 56 6 -3 8 2 30 11 50
17 34 16 36 -7 80 -14 25 -27 47 -30 48 -3 1 -25 -3 -50 -10z"/>
</g>
</svg>
