<?xml version="1.0" encoding="utf-8"?>
<!-- Generator: Adobe Illustrator 23.0.1, SVG Export Plug-In . SVG Version: 6.00 Build 0)  -->
<svg version="1.1" id="Layer_1" xmlns="http://www.w3.org/2000/svg" xmlns:xlink="http://www.w3.org/1999/xlink" x="0px" y="0px"
	 viewBox="0 0 1000 1000" style="enable-background:new 0 0 1000 1000;" xml:space="preserve">
<style type="text/css">
	.st0{fill:#20B798;}
	.st1{fill:#FFFFFF;}
</style>
<circle class="st0" cx="500" cy="500" r="317.98"/>
<g>
	<path class="st1" d="M416.59,375.32c2.64,3.16,5.12,6.13,8.05,9.64c-11.94,2.13-23.39,4.17-35.44,6.32
		c4.14-11.44,8.1-22.38,12.24-33.81c2.93,3.41,5.58,6.48,8.37,9.72c2.23-1.38,4.39-2.73,6.57-4.06
		c94.73-57.7,218-4.42,240.73,104.04c18.13,86.55-37.78,171.97-124.32,189.91c-86.56,17.94-171.31-37.17-189.59-123.81
		c-9.33-44.22-0.92-85.37,23.94-123.14c1.64-2.49,3.65-4.04,6.74-2.99c3.4,1.16,4.17,4.68,2.1,8.31
		c-4.26,7.48-8.92,14.77-12.56,22.55c-25.14,53.73-14.45,120.16,26.04,163.51c24.44,26.16,54.34,41.98,89.73,47.17
		c75.28,11.05,147.5-37.54,166.36-111.78c20.58-81-29.2-163.65-110.6-182.85c-41.45-9.78-80.41-2.86-116.47,19.94
		C417.93,374.33,417.42,374.73,416.59,375.32z"/>
	<path class="st1" d="M499.99,370.61c71.3-0.04,129.45,58.11,129.43,129.41c-0.03,71.31-58.23,129.45-129.5,129.35
		c-71.21-0.1-129.17-58.06-129.26-129.26C370.55,428.84,428.68,370.65,499.99,370.61z M380.97,500.09
		c0.07,65.65,53.64,119.09,119.25,118.96c65.55-0.13,118.84-53.49,118.88-119.02c0.04-65.65-53.44-119.13-119.09-119.11
		C434.35,380.95,380.9,434.46,380.97,500.09z"/>
	<path class="st1" d="M472.26,528.79c0.8-1.23,1.34-2.48,2.23-3.38c27.26-27.31,54.55-54.59,81.83-81.88
		c4.49-4.49,6.53-4.49,11.01-0.02c2.82,2.82,5.67,5.61,8.45,8.47c2.89,2.98,2.9,5.73-0.07,8.7c-33.21,33.25-66.44,66.48-99.68,99.69
		c-3.19,3.18-5.74,3.17-8.91,0.01c-14.2-14.16-28.37-28.33-42.53-42.52c-3.28-3.29-3.28-5.91-0.08-9.16
		c3.02-3.07,6.08-6.12,9.14-9.15c3.28-3.23,5.91-3.27,9.17-0.02c8.71,8.67,17.38,17.37,26.07,26.06
		C469.71,526.42,470.58,527.2,472.26,528.79z M561.54,452.13c-1,1.3-1.68,2.44-2.58,3.35c-27.26,27.3-54.55,54.58-81.83,81.87
		c-4.66,4.66-6.47,4.64-11.21-0.1c-8.38-8.38-16.76-16.77-25.15-25.14c-0.81-0.81-1.66-1.58-2.35-2.23
		c-1.39,1.17-2.6,2.19-3.17,2.67c12.42,12.49,24.62,24.75,36.62,36.83c30.91-30.91,62.06-62.06,93.23-93.23
		C564.17,455.1,563.11,453.9,561.54,452.13z"/>
	<path class="st1" d="M505.19,393.95c0,0.54,0.01,1.07,0,1.61c-0.09,3.74-2.12,6.09-5.23,6.04c-3.1-0.05-5.02-2.37-5.08-6.18
		c-0.02-1.29-0.05-2.58,0.01-3.87c0.17-3.27,2.29-5.43,5.21-5.39c2.91,0.04,4.92,2.22,5.08,5.53
		C505.22,392.44,505.19,393.2,505.19,393.95z"/>
	<path class="st1" d="M393.63,505.12c-0.86,0-1.73,0.08-2.58-0.01c-2.86-0.3-4.83-2.4-4.85-5.08c-0.02-2.68,1.94-4.88,4.78-5.13
		c1.81-0.16,3.65-0.13,5.47-0.03c3.07,0.17,5.16,2.29,5.18,5.09c0.02,2.79-2.06,4.93-5.11,5.17c-0.96,0.08-1.93,0.01-2.9,0.01
		C393.63,505.13,393.63,505.13,393.63,505.12z"/>
	<path class="st1" d="M606.13,505.15c-0.32,0-0.64,0.01-0.97,0c-4.34-0.03-6.75-1.88-6.74-5.17c0.01-3.3,2.4-5.12,6.76-5.15
		c1.07-0.01,2.15-0.04,3.22,0.01c3.28,0.16,5.46,2.24,5.46,5.15c0,2.91-2.18,4.97-5.47,5.14
		C607.64,505.18,606.88,505.14,606.13,505.15z"/>
	<path class="st1" d="M505.16,606.42c0,0.86,0.08,1.73-0.01,2.58c-0.31,2.85-2.44,4.83-5.11,4.83c-2.68,0-4.86-1.97-5.1-4.82
		c-0.15-1.81-0.13-3.65-0.03-5.47c0.18-3.07,2.31-5.14,5.12-5.14c2.8,0,4.9,2.07,5.14,5.14c0.07,0.96,0.01,1.93,0.01,2.9
		C505.17,606.42,505.16,606.42,505.16,606.42z"/>
	<path class="st1" d="M422.16,582.01c-0.75-0.59-2.68-1.4-3.33-2.8c-0.65-1.4-0.61-3.75,0.18-5.05c1.24-2.04,3.14-3.93,5.19-5.16
		c1.3-0.78,3.72-0.83,5.03-0.1c1.32,0.74,2.45,2.76,2.65,4.35C432.25,576.34,426.26,582.03,422.16,582.01z"/>
	<path class="st1" d="M572.22,431.95c-0.73-0.57-2.65-1.38-3.31-2.78c-0.66-1.4-0.64-3.76,0.14-5.05c1.24-2.05,3.14-3.94,5.2-5.17
		c1.3-0.78,3.72-0.88,5.03-0.16c1.33,0.72,2.47,2.75,2.68,4.34C582.36,426.21,576.39,431.93,572.22,431.95z"/>
	<path class="st1" d="M572.39,568c4.02,0.16,9.86,5.74,9.54,8.68c-0.17,1.6-1.24,3.73-2.54,4.4c-1.41,0.73-3.88,0.64-5.3-0.16
		c-1.98-1.11-3.83-2.96-4.94-4.94c-0.79-1.42-0.83-3.83-0.15-5.32C569.62,569.29,571.64,568.54,572.39,568z"/>
	<path class="st1" d="M426.93,431.95c-3.27,0.05-9.08-5.83-8.94-9.06c0.16-3.58,4.2-6.26,7.17-4.32c2.44,1.59,4.69,3.85,6.25,6.31
		C433.3,427.89,430.51,431.89,426.93,431.95z"/>
</g>
</svg>
