<?xml version="1.0" encoding="utf-8"?>
<!-- Generator: Adobe Illustrator 26.3.1, SVG Export Plug-In . SVG Version: 6.00 Build 0)  -->
<svg version="1.1" id="Layer_1" xmlns="http://www.w3.org/2000/svg" xmlns:xlink="http://www.w3.org/1999/xlink" x="0px" y="0px"
	 viewBox="0 0 49 56" style="enable-background:new 0 0 49 56;" xml:space="preserve">
<style type="text/css">
	.st0{fill:#FFFFFF;}
</style>
<g>
	<path class="st0" d="M12.08,9.44c0.39,0.47,0.76,0.91,1.2,1.44C11.5,11.19,9.8,11.49,8,11.81c0.62-1.7,1.21-3.33,1.82-5.03
		c0.44,0.51,0.83,0.96,1.25,1.45c0.33-0.21,0.65-0.41,0.98-0.6c14.1-8.59,32.46-0.66,35.84,15.49c2.7,12.89-5.62,25.6-18.51,28.27
		c-12.89,2.67-25.5-5.53-28.23-18.43c-1.39-6.58-0.14-12.71,3.56-18.33c0.24-0.37,0.54-0.6,1-0.45c0.51,0.17,0.62,0.7,0.31,1.24
		c-0.63,1.11-1.33,2.2-1.87,3.36c-3.74,8-2.15,17.89,3.88,24.34c3.64,3.89,8.09,6.25,13.36,7.02c11.21,1.65,21.96-5.59,24.77-16.64
		C49.23,21.43,41.82,9.13,29.7,6.27c-6.17-1.46-11.97-0.43-17.34,2.97C12.28,9.29,12.2,9.35,12.08,9.44z"/>
	<path class="st0" d="M24.5,8.74C35.11,8.73,43.77,17.39,43.77,28c0,10.62-8.67,19.27-19.28,19.26
		c-10.6-0.01-19.23-8.64-19.24-19.24C5.23,17.41,13.88,8.74,24.5,8.74z M6.78,28.01c0.01,9.77,7.99,17.73,17.75,17.71
		c9.76-0.02,17.69-7.96,17.7-17.72c0.01-9.77-7.96-17.74-17.73-17.73C14.72,10.28,6.77,18.24,6.78,28.01z"/>
	<path class="st0" d="M20.37,32.29c0.12-0.18,0.2-0.37,0.33-0.5c4.06-4.07,8.12-8.13,12.18-12.19c0.67-0.67,0.97-0.67,1.64,0
		c0.42,0.42,0.84,0.84,1.26,1.26c0.43,0.44,0.43,0.85-0.01,1.3c-4.94,4.95-9.89,9.9-14.84,14.84c-0.47,0.47-0.85,0.47-1.33,0
		c-2.11-2.11-4.22-4.22-6.33-6.33c-0.49-0.49-0.49-0.88-0.01-1.36c0.45-0.46,0.91-0.91,1.36-1.36c0.49-0.48,0.88-0.49,1.37,0
		c1.3,1.29,2.59,2.59,3.88,3.88C19.99,31.93,20.12,32.05,20.37,32.29z M33.66,20.87c-0.15,0.19-0.25,0.36-0.38,0.5
		c-4.06,4.06-8.12,8.13-12.18,12.19c-0.69,0.69-0.96,0.69-1.67-0.01c-1.25-1.25-2.5-2.5-3.74-3.74c-0.12-0.12-0.25-0.24-0.35-0.33
		c-0.21,0.17-0.39,0.33-0.47,0.4c1.85,1.86,3.67,3.68,5.45,5.48c4.6-4.6,9.24-9.24,13.88-13.88C34.05,21.32,33.89,21.14,33.66,20.87
		z"/>
	<path class="st0" d="M25.27,12.21c0,0.08,0,0.16,0,0.24c-0.01,0.56-0.32,0.91-0.78,0.9c-0.46-0.01-0.75-0.35-0.76-0.92
		c0-0.19-0.01-0.38,0-0.58c0.03-0.49,0.34-0.81,0.78-0.8c0.43,0.01,0.73,0.33,0.76,0.82C25.28,11.99,25.27,12.1,25.27,12.21z"/>
	<path class="st0" d="M8.66,28.76c-0.13,0-0.26,0.01-0.38,0C7.85,28.72,7.56,28.4,7.56,28c0-0.4,0.29-0.73,0.71-0.76
		c0.27-0.02,0.54-0.02,0.81,0c0.46,0.03,0.77,0.34,0.77,0.76c0,0.42-0.31,0.73-0.76,0.77C8.95,28.78,8.81,28.76,8.66,28.76
		C8.66,28.76,8.66,28.76,8.66,28.76z"/>
	<path class="st0" d="M40.3,28.77c-0.05,0-0.1,0-0.14,0c-0.65,0-1-0.28-1-0.77c0-0.49,0.36-0.76,1.01-0.77c0.16,0,0.32-0.01,0.48,0
		c0.49,0.02,0.81,0.33,0.81,0.77s-0.32,0.74-0.81,0.77C40.52,28.77,40.41,28.76,40.3,28.77z"/>
	<path class="st0" d="M25.27,43.84c0,0.13,0.01,0.26,0,0.38c-0.05,0.42-0.36,0.72-0.76,0.72c-0.4,0-0.72-0.29-0.76-0.72
		c-0.02-0.27-0.02-0.54,0-0.81c0.03-0.46,0.34-0.77,0.76-0.77c0.42,0,0.73,0.31,0.77,0.77C25.28,43.56,25.27,43.7,25.27,43.84
		C25.27,43.84,25.27,43.84,25.27,43.84z"/>
	<path class="st0" d="M12.91,40.21c-0.11-0.09-0.4-0.21-0.5-0.42c-0.1-0.21-0.09-0.56,0.03-0.75c0.18-0.3,0.47-0.59,0.77-0.77
		c0.19-0.12,0.55-0.12,0.75-0.01c0.2,0.11,0.36,0.41,0.39,0.65C14.41,39.36,13.52,40.21,12.91,40.21z"/>
	<path class="st0" d="M35.25,17.87c-0.11-0.08-0.39-0.21-0.49-0.41c-0.1-0.21-0.1-0.56,0.02-0.75c0.18-0.31,0.47-0.59,0.77-0.77
		c0.19-0.12,0.55-0.13,0.75-0.02c0.2,0.11,0.37,0.41,0.4,0.65C36.76,17.01,35.87,17.87,35.25,17.87z"/>
	<path class="st0" d="M35.28,38.12c0.6,0.02,1.47,0.85,1.42,1.29c-0.03,0.24-0.18,0.56-0.38,0.66c-0.21,0.11-0.58,0.1-0.79-0.02
		c-0.29-0.17-0.57-0.44-0.74-0.74c-0.12-0.21-0.12-0.57-0.02-0.79C34.86,38.32,35.16,38.2,35.28,38.12z"/>
	<path class="st0" d="M13.62,17.87c-0.49,0.01-1.35-0.87-1.33-1.35c0.02-0.53,0.63-0.93,1.07-0.64c0.36,0.24,0.7,0.57,0.93,0.94
		C14.57,17.26,14.15,17.86,13.62,17.87z"/>
</g>
</svg>
