<?xml version="1.0" encoding="utf-8"?>
<!-- Generator: Adobe Illustrator 23.0.1, SVG Export Plug-In . SVG Version: 6.00 Build 0)  -->
<svg version="1.1" id="Layer_1" xmlns="http://www.w3.org/2000/svg" xmlns:xlink="http://www.w3.org/1999/xlink" x="0px" y="0px"
	 viewBox="0 0 1000 1000" style="enable-background:new 0 0 1000 1000;" xml:space="preserve">
<style type="text/css">
	.st0{fill:#20B798;}
	.st1{fill:#FFFFFF;}
</style>
<circle class="st0" cx="500" cy="500" r="317.98"/>
<g>
	<path class="st1" d="M556.92,665.62c0.01-24.69,0.14-49.38-0.09-74.07c-0.05-5.16-2.17-9.62-7.68-11.83
		c-8.29-3.33-16.46-6.97-24.61-10.63c-1.88-0.84-3.04-0.69-4.47,0.81c-4.32,4.52-8.88,8.81-13.17,13.36
		c-0.97,1.03-1.67,2.75-1.69,4.17c-0.15,8.62-0.08,17.24-0.08,26.11c-3.41,0-6.67,0-10.32,0c0-7.22-0.3-14.42,0.1-21.59
		c0.28-5.02-0.96-8.8-4.94-12.05c-3.57-2.92-6.74-6.37-9.85-9.8c-1.61-1.78-2.97-1.79-5.01-0.88c-8.15,3.66-16.31,7.32-24.59,10.67
		c-5.43,2.19-7.35,6.69-7.4,11.66c-0.24,24.69-0.1,49.38-0.09,74.07c-3.45,0-6.9,0-10.35,0c0.01-25.22-0.02-50.45,0.04-75.67
		c0.02-6.25,3.94-10.99,6.86-16.06c0.5-0.87,1.95-1.26,3.03-1.72c9.97-4.34,19.94-8.65,29.92-12.97c2.3-1,5.8-7.09,5.35-9.49
		c-0.1-0.55-0.67-1.06-1.12-1.49c-8.81-8.22-12.62-18.69-12.9-30.4c-0.34-14.33-0.19-28.67,0-43.01c0.02-1.76,1.15-4.05,2.52-5.17
		c8.6-7.04,18.57-10.59,29.7-11.12c13.46-0.64,25.88,2.05,36.8,10.4c2.37,1.82,3.37,3.89,3.34,6.87
		c-0.1,12.72-0.07,25.44-0.04,38.16c0.03,13.22-3.19,25.16-13.27,34.49c-0.38,0.35-0.8,0.82-0.88,1.28
		c-0.43,2.43,3.04,8.43,5.39,9.45c9.97,4.32,20,8.52,29.88,13.05c1.96,0.9,3.68,2.82,4.95,4.65c4.26,6.15,5.21,13.04,5.1,20.51
		c-0.34,22.74-0.11,45.49-0.11,68.23C563.82,665.62,560.37,665.62,556.92,665.62z M525.76,509.81c-5.98-0.99-10.5-3.74-13.77-8.59
		c-0.5-0.75-1.92-1.21-2.93-1.23c-6.03-0.11-12.06-0.1-18.08-0.01c-0.95,0.01-2.36,0.27-2.78,0.92c-3.29,5.13-8.02,7.93-14,8.96
		c-0.47,8.16,0.09,16.04,3.85,23.35c4.63,9.01,12.17,13.39,22.23,13.3c9.94-0.1,17.28-4.6,21.75-13.53
		C525.65,525.73,526.24,517.97,525.76,509.81z M525.87,498.94c0-7.27,0.05-14.35-0.07-21.42c-0.01-0.72-0.89-1.63-1.6-2.11
		c-13.03-8.84-35.56-8.83-48.47,0.03c-0.7,0.48-1.56,1.4-1.57,2.12c-0.12,7.06-0.07,14.13-0.07,21.41c2.99-0.63,4.89-1.69,5.28-4.73
		c0.41-3.12,2.44-4.63,5.6-4.63c10.02,0.01,20.03,0.01,30.05,0c3.17,0,5.15,1.56,5.57,4.67C521,497.34,522.93,498.37,525.87,498.94z
		 M500.07,575.54c3.92-3.98,7.51-7.67,11.14-11.32c3.98-4.01,3.99-4,1.14-9.47c-8.21,2.81-16.55,2.74-25.67-0.3
		c-0.15,2.74-1.27,5.84-0.21,7.12C490.49,566.42,495.22,570.68,500.07,575.54z"/>
	<path class="st1" d="M665.62,491.57c-1.98,2.65-4.65,3.35-7.87,3.25c-5.89-0.19-11.8-0.05-17.95-0.05c0,31.11,0,61.9,0,92.93
		c-3.51,0-6.77,0-10.3,0c0-30.85,0-61.65,0-92.81c-8.69,0-17.14,0-25.78,0c0-3.55,0-6.74,0-10.25c15.19,0,30.44,0,46.69,0
		c-15.85-21.63-31.2-42.57-46.9-63.99c-15.56,21.21-30.93,42.17-46.8,63.8c4.97,0,9.3,0,13.63,0c5.74,0.01,7.25,1.52,7.25,7.27
		c0.01,12.93,0,25.86,0,39.03c-3.42,0-6.68,0-10.21,0c0-11.86,0-23.67,0-35.99c-4.4,0-8.55,0-12.7,0c-2.26,0-4.53-0.03-6.79,0.01
		c-2.53,0.05-4.7-0.54-5.94-3.03c-1.19-2.39-0.22-4.33,1.19-6.25c12.25-16.67,24.48-33.37,36.71-50.05
		c6.18-8.43,12.35-16.87,18.56-25.28c3.24-4.39,6.92-4.41,10.15-0.01c18.85,25.73,37.68,51.48,56.53,77.22
		c0.11,0.15,0.34,0.22,0.52,0.33C665.62,488.98,665.62,490.28,665.62,491.57z"/>
	<path class="st1" d="M458.58,665.62c0-10.2,0-20.39,0-30.83c3.43,0,6.69,0,10.35,0c0,10.28,0,20.56,0,30.83
		C465.48,665.62,462.03,665.62,458.58,665.62z"/>
	<path class="st1" d="M531.04,665.62c0-10.2,0-20.39,0-30.83c3.43,0,6.69,0,10.35,0c0,10.28,0,20.56,0,30.83
		C537.94,665.62,534.49,665.62,531.04,665.62z"/>
	<path class="st1" d="M432.7,494.76c0,12.22,0,23.96,0,35.97c-3.4,0-6.66,0-10.15,0c-0.06-0.78-0.19-1.61-0.19-2.43
		c-0.01-12.4-0.02-24.8,0-37.2c0.01-4.92,1.71-6.62,6.58-6.64c4.51-0.02,9.01,0,14.3,0c-15.74-21.47-31.11-42.43-46.77-63.8
		c-15.6,21.28-30.98,42.24-46.74,63.73c15.88,0,31.1,0,46.52,0c0,3.52,0,6.7,0,10.27c-8.41,0-16.85,0-25.55,0
		c0,31.17,0,61.96,0,93.02c-3.51,0-6.77,0-10.3,0c0-30.77,0-61.57,0-92.62c-1.04-0.11-1.85-0.27-2.66-0.28
		c-5.28-0.02-10.57-0.04-15.85,0c-2.78,0.02-5.45-0.06-6.94-2.99c-1.45-2.85,0.15-4.92,1.72-7.04
		c16.84-22.94,33.66-45.89,50.49-68.83c1.4-1.91,2.79-3.83,4.21-5.73c3.28-4.4,6.92-4.46,10.15-0.07
		c13.47,18.32,26.91,36.67,40.35,55.01c4.97,6.78,9.92,13.57,14.92,20.33c1.41,1.92,2.41,3.86,1.23,6.25
		c-1.22,2.48-3.38,3.08-5.92,3.06C445.76,494.74,439.41,494.76,432.7,494.76z"/>
	<path class="st1" d="M453.21,411.98c5.21,0,9.69-0.01,14.17,0c4.92,0.02,6.69,1.71,6.7,6.52c0.02,8.05,0.01,16.11,0.01,24.33
		c-3.5,0-6.68,0-10.24,0c0-6.75,0-13.47,0-20.54c-6.58,0-12.8-0.03-19.02,0.02c-2.61,0.02-4.96-0.32-6.33-2.92
		c-1.4-2.67-0.08-4.72,1.44-6.79c18.3-24.92,36.58-49.86,54.88-74.78c3.36-4.58,6.97-4.59,10.33-0.01
		c18.3,24.92,36.58,49.86,54.88,74.79c1.52,2.07,2.84,4.13,1.44,6.8c-1.36,2.59-3.72,2.94-6.33,2.92
		c-6.14-0.05-12.28-0.02-18.79-0.02c0,6.83,0,13.56,0,20.49c-3.55,0-6.73,0-10.47,0c0-0.91,0-1.93,0-2.95c0-6.9-0.01-13.8,0-20.69
		c0.01-5.59,1.54-7.15,7.03-7.16c4.37-0.01,8.75,0,13.86,0c-15.78-21.53-31.15-42.48-46.78-63.8
		C484.35,369.51,468.99,390.46,453.21,411.98z"/>
	<path class="st1" d="M432.6,541.62c0,3.37,0,6.48,0,9.83c-3.33,0-6.59,0-10.05,0c0-3.22,0-6.4,0-9.83
		C425.78,541.62,429.04,541.62,432.6,541.62z"/>
	<path class="st1" d="M577.52,541.61c0,3.39,0,6.5,0,9.84c-3.34,0-6.6,0-10.05,0c0-3.24,0-6.43,0-9.84
		C570.73,541.61,573.99,541.61,577.52,541.61z"/>
	<path class="st1" d="M360.33,608.37c0-3.34,0-6.45,0-9.81c3.32,0,6.58,0,10.04,0c0,3.18,0,6.36,0,9.81
		C367.17,608.37,363.91,608.37,360.33,608.37z"/>
	<path class="st1" d="M629.61,598.45c3.35,0,6.53,0,9.92,0c0,3.28,0,6.47,0,9.92c-3.19,0-6.45,0-9.92,0
		C629.61,605.19,629.61,602.01,629.61,598.45z"/>
</g>
</svg>
