<?xml version="1.0" encoding="utf-8"?>
<!-- Generator: Adobe Illustrator 26.3.1, SVG Export Plug-In . SVG Version: 6.00 Build 0)  -->
<svg version="1.1" id="Layer_1" xmlns="http://www.w3.org/2000/svg" xmlns:xlink="http://www.w3.org/1999/xlink" x="0px" y="0px"
	 viewBox="0 0 49 56" style="enable-background:new 0 0 49 56;" xml:space="preserve">
<style type="text/css">
	.st0{fill:#FFFFFF;}
</style>
<g>
	<path class="st0" d="M32.57,51.47c0-3.5,0.02-7-0.01-10.5c-0.01-0.73-0.31-1.36-1.09-1.68c-1.17-0.47-2.33-0.99-3.49-1.51
		c-0.27-0.12-0.43-0.1-0.63,0.11c-0.61,0.64-1.26,1.25-1.87,1.89c-0.14,0.15-0.24,0.39-0.24,0.59c-0.02,1.22-0.01,2.44-0.01,3.7
		c-0.48,0-0.95,0-1.46,0c0-1.02-0.04-2.04,0.01-3.06c0.04-0.71-0.14-1.25-0.7-1.71c-0.51-0.41-0.96-0.9-1.4-1.39
		c-0.23-0.25-0.42-0.25-0.71-0.12c-1.15,0.52-2.31,1.04-3.48,1.51c-0.77,0.31-1.04,0.95-1.05,1.65c-0.03,3.5-0.01,7-0.01,10.5
		c-0.49,0-0.98,0-1.47,0c0-3.57,0-7.15,0.01-10.72c0-0.89,0.56-1.56,0.97-2.28c0.07-0.12,0.28-0.18,0.43-0.24
		c1.41-0.62,2.83-1.23,4.24-1.84c0.33-0.14,0.82-1,0.76-1.34c-0.01-0.08-0.09-0.15-0.16-0.21c-1.25-1.16-1.79-2.65-1.83-4.31
		c-0.05-2.03-0.03-4.06,0-6.1c0-0.25,0.16-0.57,0.36-0.73c1.22-1,2.63-1.5,4.21-1.58c1.91-0.09,3.67,0.29,5.22,1.47
		c0.34,0.26,0.48,0.55,0.47,0.97c-0.01,1.8-0.01,3.61-0.01,5.41c0,1.87-0.45,3.57-1.88,4.89c-0.05,0.05-0.11,0.12-0.12,0.18
		c-0.06,0.34,0.43,1.19,0.76,1.34c1.41,0.61,2.83,1.21,4.23,1.85c0.28,0.13,0.52,0.4,0.7,0.66c0.6,0.87,0.74,1.85,0.72,2.91
		c-0.05,3.22-0.02,6.45-0.02,9.67C33.54,51.47,33.06,51.47,32.57,51.47z M28.15,29.39c-0.85-0.14-1.49-0.53-1.95-1.22
		C26.13,28.07,25.93,28,25.78,28c-0.85-0.02-1.71-0.01-2.56,0c-0.13,0-0.33,0.04-0.39,0.13c-0.47,0.73-1.14,1.12-1.98,1.27
		c-0.07,1.16,0.01,2.27,0.55,3.31c0.66,1.28,1.72,1.9,3.15,1.88c1.41-0.01,2.45-0.65,3.08-1.92C28.13,31.65,28.22,30.55,28.15,29.39
		z M28.17,27.85c0-1.03,0.01-2.03-0.01-3.04c0-0.1-0.13-0.23-0.23-0.3c-1.85-1.25-5.04-1.25-6.87,0c-0.1,0.07-0.22,0.2-0.22,0.3
		c-0.02,1-0.01,2-0.01,3.03c0.42-0.09,0.69-0.24,0.75-0.67c0.06-0.44,0.35-0.66,0.79-0.66c1.42,0,2.84,0,4.26,0
		c0.45,0,0.73,0.22,0.79,0.66C27.48,27.62,27.75,27.77,28.17,27.85z M24.51,38.71c0.56-0.56,1.06-1.09,1.58-1.6
		c0.56-0.57,0.57-0.57,0.16-1.34c-1.16,0.4-2.35,0.39-3.64-0.04c-0.02,0.39-0.18,0.83-0.03,1.01
		C23.15,37.41,23.82,38.02,24.51,38.71z"/>
	<path class="st0" d="M47.97,26.81c-0.28,0.38-0.66,0.47-1.12,0.46c-0.83-0.03-1.67-0.01-2.54-0.01c0,4.41,0,8.77,0,13.17
		c-0.5,0-0.96,0-1.46,0c0-4.37,0-8.74,0-13.15c-1.23,0-2.43,0-3.65,0c0-0.5,0-0.96,0-1.45c2.15,0,4.31,0,6.62,0
		c-2.25-3.07-4.42-6.03-6.65-9.07c-2.21,3.01-4.38,5.98-6.63,9.04c0.7,0,1.32,0,1.93,0c0.81,0,1.03,0.22,1.03,1.03
		c0,1.83,0,3.66,0,5.53c-0.48,0-0.95,0-1.45,0c0-1.68,0-3.35,0-5.1c-0.62,0-1.21,0-1.8,0c-0.32,0-0.64,0-0.96,0
		c-0.36,0.01-0.67-0.08-0.84-0.43c-0.17-0.34-0.03-0.61,0.17-0.89c1.74-2.36,3.47-4.73,5.2-7.09c0.88-1.19,1.75-2.39,2.63-3.58
		c0.46-0.62,0.98-0.62,1.44,0c2.67,3.65,5.34,7.3,8.01,10.94c0.02,0.02,0.05,0.03,0.07,0.05C47.97,26.44,47.97,26.62,47.97,26.81z"
		/>
	<path class="st0" d="M18.63,51.47c0-1.45,0-2.89,0-4.37c0.49,0,0.95,0,1.47,0c0,1.46,0,2.91,0,4.37
		C19.61,51.47,19.12,51.47,18.63,51.47z"/>
	<path class="st0" d="M28.9,51.47c0-1.45,0-2.89,0-4.37c0.49,0,0.95,0,1.47,0c0,1.46,0,2.91,0,4.37
		C29.88,51.47,29.39,51.47,28.9,51.47z"/>
	<path class="st0" d="M14.96,27.26c0,1.73,0,3.4,0,5.1c-0.48,0-0.94,0-1.44,0c-0.01-0.11-0.03-0.23-0.03-0.34c0-1.76,0-3.51,0-5.27
		c0-0.7,0.24-0.94,0.93-0.94c0.64,0,1.28,0,2.03,0c-2.23-3.04-4.41-6.01-6.63-9.04c-2.21,3.02-4.39,5.99-6.62,9.03
		c2.25,0,4.41,0,6.59,0c0,0.5,0,0.95,0,1.46c-1.19,0-2.39,0-3.62,0c0,4.42,0,8.78,0,13.18c-0.5,0-0.96,0-1.46,0
		c0-4.36,0-8.73,0-13.13c-0.15-0.02-0.26-0.04-0.38-0.04c-0.75,0-1.5-0.01-2.25,0c-0.39,0-0.77-0.01-0.98-0.42
		c-0.21-0.4,0.02-0.7,0.24-1c2.39-3.25,4.77-6.5,7.16-9.75c0.2-0.27,0.4-0.54,0.6-0.81c0.46-0.62,0.98-0.63,1.44-0.01
		c1.91,2.6,3.81,5.2,5.72,7.8c0.7,0.96,1.41,1.92,2.11,2.88c0.2,0.27,0.34,0.55,0.17,0.89c-0.17,0.35-0.48,0.44-0.84,0.43
		C16.81,27.25,15.91,27.26,14.96,27.26z"/>
	<path class="st0" d="M17.87,15.53c0.74,0,1.37,0,2.01,0c0.7,0,0.95,0.24,0.95,0.92c0,1.14,0,2.28,0,3.45c-0.5,0-0.95,0-1.45,0
		c0-0.96,0-1.91,0-2.91c-0.93,0-1.81,0-2.7,0c-0.37,0-0.7-0.05-0.9-0.41c-0.2-0.38-0.01-0.67,0.2-0.96
		c2.59-3.53,5.18-7.07,7.78-10.6c0.48-0.65,0.99-0.65,1.46,0c2.59,3.53,5.18,7.07,7.78,10.6c0.22,0.29,0.4,0.59,0.2,0.96
		c-0.19,0.37-0.53,0.42-0.9,0.41c-0.87-0.01-1.74,0-2.66,0c0,0.97,0,1.92,0,2.9c-0.5,0-0.95,0-1.48,0c0-0.13,0-0.27,0-0.42
		c0-0.98,0-1.96,0-2.93c0-0.79,0.22-1.01,1-1.01c0.62,0,1.24,0,1.96,0c-2.24-3.05-4.41-6.02-6.63-9.04
		C22.28,9.51,20.11,12.48,17.87,15.53z"/>
	<path class="st0" d="M14.95,33.9c0,0.48,0,0.92,0,1.39c-0.47,0-0.93,0-1.42,0c0-0.46,0-0.91,0-1.39
		C13.98,33.9,14.44,33.9,14.95,33.9z"/>
	<path class="st0" d="M35.49,33.9c0,0.48,0,0.92,0,1.39c-0.47,0-0.94,0-1.42,0c0-0.46,0-0.91,0-1.39
		C34.52,33.9,34.99,33.9,35.49,33.9z"/>
	<path class="st0" d="M4.71,43.36c0-0.47,0-0.91,0-1.39c0.47,0,0.93,0,1.42,0c0,0.45,0,0.9,0,1.39C5.68,43.36,5.21,43.36,4.71,43.36
		z"/>
	<path class="st0" d="M42.87,41.95c0.47,0,0.93,0,1.41,0c0,0.46,0,0.92,0,1.41c-0.45,0-0.91,0-1.41,0
		C42.87,42.91,42.87,42.46,42.87,41.95z"/>
</g>
</svg>
