<?xml version="1.0" encoding="utf-8"?>
<!-- Generator: Adobe Illustrator 26.3.1, SVG Export Plug-In . SVG Version: 6.00 Build 0)  -->
<svg version="1.1" id="Layer_1" xmlns="http://www.w3.org/2000/svg" xmlns:xlink="http://www.w3.org/1999/xlink" x="0px" y="0px"
	 viewBox="0 0 49 56" style="enable-background:new 0 0 49 56;" xml:space="preserve">
<style type="text/css">
	.st0{fill:#FFFFFF;}
</style>
<g>
	<path class="st0" d="M3.66,52.03c-0.05-0.03-0.1-0.07-0.16-0.08c-1.76-0.46-2.75-1.73-2.76-3.54c0-5.91,0-11.82,0-17.74
		c0-5.22,0.01-10.45-0.01-15.67c0-1.19,0.39-2.14,1.23-2.97c2.28-2.25,4.55-4.52,6.8-6.8c0.85-0.87,1.84-1.26,3.06-1.26
		c7.73,0.02,15.45,0.01,23.18,0.01c2.39,0,3.83,1.43,3.83,3.82c0,2.89,0,5.79,0,8.68c0,0.17,0.01,0.35-0.04,0.51
		c-0.1,0.36-0.35,0.56-0.73,0.52c-0.38-0.03-0.59-0.26-0.63-0.63c-0.01-0.14-0.01-0.28-0.01-0.42c0-2.89,0-5.79,0-8.68
		c0-1.58-0.82-2.39-2.4-2.39c-7.74,0-15.49,0-23.23,0c-0.11,0-0.22,0.01-0.33,0c-0.37-0.04-0.48,0.13-0.47,0.49
		c0.02,1.94,0,3.88,0.01,5.82c0,0.87-0.3,1.59-1,2.11c-0.48,0.36-1.04,0.47-1.64,0.47c-1.88,0-3.75,0-5.63,0c-0.17,0-0.34,0-0.57,0
		c-0.01,0.23-0.03,0.42-0.03,0.62c0,11.17,0,22.34,0,33.5c0,1.38,0.85,2.23,2.22,2.23c10.28,0,20.55,0,30.83,0
		c1.38,0,2.24-0.87,2.25-2.26c0-0.25-0.01-0.5,0-0.75c0.02-0.42,0.29-0.71,0.67-0.71c0.4,0.01,0.67,0.22,0.71,0.62
		c0.25,2.22-0.7,3.99-2.84,4.45c-0.04,0.01-0.08,0.04-0.12,0.07C25.13,52.03,14.4,52.03,3.66,52.03z M9.62,6.64
		c-2.08,2.08-4.17,4.18-6.23,6.23c0.01,0,0.14,0,0.26,0c1.64,0,3.28,0.01,4.92-0.01c0.67-0.01,1.03-0.43,1.04-1.13
		c0.01-0.97,0-1.94,0-2.9C9.62,8.07,9.62,7.3,9.62,6.64z"/>
	<path class="st0" d="M33.23,38.95c-1.55-0.38-2.34-1.33-2.45-2.89c-0.04-0.63-0.5-0.96-1.06-1.2c-1.4-0.61-2.06-2.14-1.54-3.54
		c0.08-0.22,0.2-0.42,0.32-0.62c0.3-0.52,0.34-1.05,0-1.55c-1.09-1.63-0.26-3.69,1.36-4.26c0.6-0.21,0.88-0.69,0.94-1.33
		c0.16-1.84,1.69-2.98,3.49-2.58c0.71,0.16,1.23-0.03,1.71-0.57c1.2-1.34,3.09-1.34,4.27,0.01c0.47,0.54,1,0.71,1.71,0.56
		c1.77-0.39,3.28,0.71,3.46,2.5c0.07,0.71,0.38,1.17,1.05,1.46c1.67,0.72,2.25,2.53,1.32,4.1c-0.36,0.6-0.36,1.15,0,1.76
		c0.93,1.57,0.35,3.38-1.32,4.1c-0.67,0.29-0.99,0.75-1.05,1.46c-0.12,1.27-0.82,2.11-2.03,2.47c-0.34,0.1-0.38,0.26-0.38,0.56
		c0.01,1.92,0.01,3.85,0,5.77c0,0.95-0.49,1.59-1.32,1.64c-0.35,0.02-0.75-0.1-1.06-0.27c-0.75-0.41-1.48-0.88-2.2-1.34
		c-0.22-0.14-0.39-0.16-0.63-0.01c-0.72,0.47-1.47,0.9-2.19,1.36c-0.53,0.34-1.08,0.42-1.64,0.1c-0.56-0.31-0.77-0.82-0.77-1.45
		c0.01-1.91,0-3.82,0-5.72C33.23,39.29,33.23,39.12,33.23,38.95z M46.86,27.71c-0.02-0.75-0.28-1.22-0.84-1.45
		c-1.24-0.49-1.86-1.39-1.98-2.7c-0.08-0.91-0.85-1.43-1.74-1.22c-1.23,0.3-2.24-0.03-3.07-0.99c-0.63-0.73-1.57-0.73-2.2,0.01
		c-0.82,0.95-1.81,1.28-3.02,0.99c-0.98-0.23-1.73,0.35-1.81,1.36c-0.09,1.14-0.65,1.97-1.7,2.44c-1.13,0.51-1.37,1.25-0.75,2.33
		c0.54,0.95,0.59,1.94-0.01,2.85c-0.63,0.95-0.24,2.01,0.78,2.39c1.02,0.38,1.56,1.22,1.67,2.3c0.12,1.2,0.79,1.7,1.99,1.44
		c1.07-0.23,1.98,0.07,2.72,0.87c0.86,0.94,1.61,0.94,2.49-0.01c0.74-0.79,1.65-1.09,2.72-0.86c1.18,0.25,1.83-0.2,1.97-1.4
		c0.13-1.16,0.73-1.96,1.81-2.42c0.96-0.41,1.24-1.28,0.7-2.18c-0.61-1.02-0.61-2.03-0.01-3.06C46.72,28.15,46.8,27.86,46.86,27.71z
		 M41.61,38.82c-0.54-0.08-0.9,0.17-1.26,0.51c-0.34,0.32-0.69,0.65-1.1,0.85c-1.12,0.54-2.39,0.22-3.27-0.76
		c-0.36-0.4-0.75-0.68-1.31-0.6c0,2.22,0,4.39,0,6.64c0.21-0.12,0.36-0.19,0.5-0.28c0.69-0.42,1.39-0.84,2.07-1.28
		c0.59-0.37,1.17-0.38,1.76-0.01c0.74,0.46,1.49,0.92,2.23,1.38c0.1,0.06,0.21,0.1,0.36,0.17C41.61,43.19,41.61,41.01,41.61,38.82z"
		/>
	<path class="st0" d="M24.06,8.84c2.35,0,4.69,0,7.04,0c1.16,0,1.76,0.6,1.77,1.76c0,0.64,0,1.28,0,1.92
		c-0.01,1.12-0.62,1.74-1.75,1.75c-2.27,0.01-4.54,0-6.8,0c-0.94,0-1.88,0-2.82,0c-0.4,0-0.71-0.14-0.82-0.55
		c-0.12-0.43,0.21-0.83,0.7-0.84c0.69-0.02,1.38-0.01,2.06-0.01c2.47,0,4.94,0,7.41,0c0.61,0,0.61,0,0.61-0.63
		c0-0.53-0.01-1.06,0-1.6c0.01-0.3-0.08-0.41-0.4-0.41c-4.66,0.01-9.32,0.01-13.98,0c-0.3,0-0.43,0.08-0.42,0.4
		c0.02,0.61,0.01,1.22,0,1.83c-0.01,0.3,0.11,0.43,0.41,0.41c0.33-0.01,0.66-0.01,0.99,0c0.41,0.01,0.63,0.25,0.69,0.64
		c0.05,0.36-0.23,0.72-0.63,0.74c-0.53,0.03-1.07,0.04-1.59-0.03c-0.72-0.1-1.23-0.69-1.25-1.43c-0.03-0.8-0.02-1.6-0.01-2.39
		c0.02-0.93,0.66-1.54,1.59-1.55C19.27,8.84,21.66,8.84,24.06,8.84z"/>
	<path class="st0" d="M15.72,32.31c-2.89,0-5.79,0-8.68,0c-0.18,0-0.43,0.03-0.54-0.07c-0.2-0.18-0.44-0.47-0.42-0.69
		c0.02-0.22,0.31-0.45,0.53-0.61c0.11-0.08,0.33-0.03,0.51-0.03c5.76,0,11.51,0,17.27,0c0.12,0,0.25-0.01,0.38,0
		c0.41,0.03,0.68,0.3,0.69,0.68c0,0.38-0.26,0.67-0.67,0.71c-0.25,0.02-0.5,0.01-0.75,0.01C21.26,32.31,18.49,32.31,15.72,32.31z"/>
	<path class="st0" d="M15.74,27.35c-2.88,0-5.76,0-8.63,0c-0.16,0-0.31,0.01-0.47-0.01c-0.36-0.05-0.61-0.29-0.57-0.63
		c0.03-0.25,0.24-0.51,0.44-0.68c0.13-0.11,0.39-0.08,0.59-0.08c5.77,0,11.54,0,17.32,0c0.19,0,0.38,0,0.56,0.05
		c0.34,0.1,0.51,0.36,0.47,0.72c-0.03,0.36-0.25,0.57-0.6,0.62c-0.15,0.02-0.31,0.01-0.47,0.01C21.5,27.36,18.62,27.35,15.74,27.35z
		"/>
	<path class="st0" d="M15.75,35.86c2.86,0,5.72,0,8.59,0c0.17,0,0.35-0.01,0.52,0.02c0.36,0.05,0.56,0.26,0.59,0.62
		c0.03,0.38-0.15,0.63-0.53,0.72c-0.17,0.04-0.34,0.04-0.51,0.04c-5.77,0-11.54,0-17.31,0c-0.11,0-0.22,0-0.33-0.01
		c-0.44-0.04-0.73-0.33-0.72-0.71c0.01-0.39,0.3-0.67,0.75-0.67c1.56-0.01,3.13-0.01,4.69-0.01C12.91,35.86,14.33,35.86,15.75,35.86
		z"/>
	<path class="st0" d="M15.75,22.42c-2.86,0-5.72,0-8.59,0c-0.19,0-0.38,0-0.56-0.03c-0.38-0.07-0.57-0.34-0.55-0.71
		c0.02-0.34,0.22-0.58,0.58-0.64c0.15-0.02,0.31-0.02,0.47-0.02c5.77,0,11.54,0,17.31,0c0.14,0,0.28,0,0.42,0.01
		c0.38,0.05,0.6,0.27,0.61,0.65c0.01,0.4-0.2,0.65-0.6,0.71c-0.18,0.03-0.37,0.02-0.56,0.02C21.44,22.42,18.59,22.42,15.75,22.42z"
		/>
	<path class="st0" d="M11.27,43.11c1.44,0,2.88,0,4.32,0c0.57,0,0.87,0.24,0.88,0.68c0.01,0.45-0.31,0.72-0.9,0.72
		c-2.86,0-5.72,0-8.59,0c-0.59,0-0.93-0.25-0.94-0.69C6.03,43.36,6.37,43.11,7,43.11C8.42,43.11,9.84,43.11,11.27,43.11z"/>
	<path class="st0" d="M38.13,35.81c-3.24,0-5.88-2.63-5.89-5.87c-0.01-3.25,2.65-5.91,5.91-5.9c3.27,0.01,5.89,2.65,5.88,5.92
		C44.02,33.19,41.38,35.81,38.13,35.81z M38.15,34.41c2.5-0.01,4.49-2.02,4.47-4.52c-0.01-2.47-2.02-4.46-4.5-4.45
		c-2.47,0.01-4.47,2.01-4.48,4.48C33.63,32.39,35.66,34.41,38.15,34.41z"/>
</g>
</svg>
