<?xml version="1.0" encoding="utf-8"?>
<!-- Generator: Adobe Illustrator 23.0.1, SVG Export Plug-In . SVG Version: 6.00 Build 0)  -->
<svg version="1.1" id="Layer_1" xmlns="http://www.w3.org/2000/svg" xmlns:xlink="http://www.w3.org/1999/xlink" x="0px" y="0px"
	 viewBox="0 0 1000 1000" style="enable-background:new 0 0 1000 1000;" xml:space="preserve">
<style type="text/css">
	.st0{fill:#20B798;}
	.st1{fill:#FFFFFF;}
</style>
<circle class="st0" cx="500" cy="500" r="317.98"/>
<g>
	<path class="st1" d="M356.38,665.63c-0.37-0.19-0.71-0.47-1.11-0.57c-12.1-3.16-18.99-11.9-19-24.38
		c-0.03-40.75-0.01-81.51-0.01-122.26c0-36.01,0.08-72.02-0.06-108.03c-0.03-8.18,2.72-14.78,8.51-20.5
		c15.72-15.53,31.36-31.15,46.88-46.89c5.89-5.97,12.69-8.71,21.09-8.69c53.26,0.12,106.52,0.06,159.78,0.06
		c16.5,0,26.42,9.87,26.43,26.3c0.01,19.95,0.01,39.89-0.01,59.84c0,1.18,0.05,2.41-0.25,3.53c-0.66,2.5-2.38,3.83-5.01,3.61
		c-2.62-0.22-4.08-1.76-4.34-4.37c-0.1-0.96-0.05-1.94-0.05-2.91c0-19.95,0-39.89,0-59.84c0-10.88-5.64-16.49-16.56-16.49
		c-53.37,0-106.74,0-160.11,0c-0.75,0-1.52,0.07-2.26-0.01c-2.58-0.28-3.28,0.87-3.26,3.37c0.11,13.37,0,26.74,0.07,40.11
		c0.03,6.02-2.06,10.94-6.92,14.57c-3.34,2.5-7.19,3.26-11.28,3.26c-12.94-0.02-25.88-0.01-38.81-0.01c-1.18,0-2.35,0-3.95,0
		c-0.08,1.56-0.21,2.92-0.21,4.27c-0.01,76.98-0.02,153.96,0,230.94c0,9.48,5.88,15.38,15.29,15.38c70.84,0.01,141.67,0.01,212.51,0
		c9.54,0,15.43-5.97,15.5-15.61c0.01-1.72-0.06-3.45,0.03-5.17c0.15-2.87,2.01-4.89,4.59-4.86c2.74,0.04,4.6,1.54,4.9,4.24
		c1.7,15.32-4.83,27.48-19.6,30.65c-0.3,0.06-0.57,0.29-0.85,0.45C504.33,665.63,430.36,665.63,356.38,665.63z M397.45,352.75
		c-14.34,14.35-28.77,28.78-42.93,42.94c0.1,0,0.95,0,1.79,0c11.3-0.01,22.61,0.09,33.91-0.07c4.59-0.06,7.12-2.96,7.19-7.79
		c0.1-6.67,0.03-13.35,0.03-20.02C397.45,362.56,397.45,357.31,397.45,352.75z"/>
	<path class="st1" d="M560.22,575.47c-10.65-2.61-16.15-9.15-16.92-19.89c-0.31-4.33-3.48-6.59-7.28-8.25
		c-9.66-4.22-14.19-14.75-10.59-24.39c0.56-1.5,1.39-2.91,2.21-4.3c2.1-3.57,2.34-7.24,0.03-10.69
		c-7.53-11.24-1.81-25.44,9.37-29.39c4.15-1.46,6.09-4.73,6.48-9.17c1.1-12.68,11.63-20.54,24.04-17.79
		c4.91,1.09,8.5-0.24,11.77-3.91c8.26-9.27,21.32-9.23,29.46,0.06c3.25,3.72,6.91,4.9,11.79,3.83c12.22-2.67,22.6,4.92,23.82,17.26
		c0.48,4.87,2.65,8.09,7.27,10.07c11.53,4.96,15.51,17.41,9.1,28.24c-2.46,4.16-2.45,7.96,0.01,12.11
		c6.39,10.82,2.4,23.31-9.11,28.25c-4.62,1.98-6.81,5.2-7.26,10.07c-0.81,8.78-5.64,14.52-13.99,17.04
		c-2.32,0.7-2.65,1.79-2.64,3.84c0.07,13.26,0.07,26.51,0.02,39.77c-0.02,6.53-3.37,10.94-9.08,11.28c-2.4,0.14-5.14-0.67-7.29-1.84
		c-5.19-2.83-10.17-6.07-15.15-9.27c-1.55-0.99-2.71-1.11-4.33-0.07c-4.97,3.21-10.1,6.19-15.11,9.35
		c-3.67,2.31-7.46,2.88-11.3,0.72c-3.84-2.15-5.33-5.66-5.31-10.01c0.05-13.15,0.02-26.3,0.02-39.45
		C560.22,577.81,560.22,576.64,560.22,575.47z M654.14,498c-0.11-5.19-1.91-8.44-5.77-9.98c-8.52-3.39-12.85-9.56-13.65-18.63
		c-0.55-6.25-5.87-9.87-12.01-8.4c-8.5,2.04-15.44-0.21-21.15-6.83c-4.34-5.03-10.81-5.01-15.17,0.04
		c-5.62,6.52-12.47,8.8-20.85,6.84c-6.76-1.58-11.91,2.38-12.47,9.36c-0.62,7.89-4.49,13.55-11.73,16.82
		c-7.77,3.5-9.41,8.63-5.19,16.09c3.7,6.54,4.1,13.38-0.04,19.62c-4.33,6.53-1.63,13.85,5.37,16.45c7.05,2.62,10.77,8.4,11.53,15.86
		c0.84,8.27,5.45,11.7,13.69,9.95c7.38-1.57,13.65,0.48,18.73,6c5.95,6.47,11.09,6.46,17.15-0.04c5.11-5.48,11.37-7.54,18.75-5.95
		c8.11,1.75,12.64-1.4,13.6-9.67c0.93-8.03,5.06-13.52,12.46-16.68c6.64-2.83,8.56-8.8,4.84-15.05c-4.19-7.04-4.21-14.01-0.08-21.1
		C653.17,500.98,653.73,499.01,654.14,498z M617.94,574.54c-3.69-0.54-6.2,1.16-8.66,3.5c-2.31,2.19-4.75,4.5-7.57,5.85
		c-7.75,3.71-16.5,1.51-22.52-5.25c-2.46-2.76-5.15-4.72-9.02-4.14c0,15.27,0,30.25,0,45.75c1.43-0.8,2.46-1.33,3.44-1.93
		c4.77-2.92,9.56-5.82,14.29-8.81c4.07-2.57,8.07-2.59,12.14-0.06c5.12,3.18,10.25,6.34,15.4,9.48c0.68,0.41,1.45,0.68,2.5,1.16
		C617.94,604.68,617.94,589.67,617.94,574.54z"/>
	<path class="st1" d="M496.95,367.91c16.17,0,32.35-0.01,48.52,0c8.03,0.01,12.16,4.12,12.19,12.11c0.02,4.42,0.02,8.84,0,13.26
		c-0.04,7.69-4.3,12.02-12.04,12.04c-15.63,0.05-31.27,0.02-46.9,0.02c-6.47,0-12.94,0-19.41,0c-2.75,0-4.89-0.98-5.66-3.82
		c-0.8-2.95,1.45-5.7,4.82-5.78c4.74-0.12,9.49-0.04,14.23-0.05c17.04,0,34.07,0,51.11,0c4.18,0,4.18-0.01,4.19-4.31
		c0-3.67-0.09-7.33,0.03-11c0.07-2.05-0.56-2.85-2.73-2.85c-32.13,0.05-64.26,0.05-96.39,0c-2.04,0-2.93,0.56-2.87,2.73
		c0.12,4.2,0.1,8.41,0.01,12.61c-0.05,2.1,0.76,2.93,2.85,2.83c2.26-0.1,4.53-0.05,6.79,0.02c2.81,0.09,4.37,1.71,4.74,4.38
		c0.34,2.47-1.59,4.93-4.35,5.07c-3.64,0.2-7.36,0.26-10.95-0.24c-4.99-0.69-8.45-4.79-8.62-9.85c-0.18-5.49-0.17-11-0.04-16.49
		c0.16-6.38,4.55-10.64,10.98-10.66C463.95,367.88,480.45,367.91,496.95,367.91z"/>
	<path class="st1" d="M439.52,529.69c-19.95,0-39.9,0.01-59.85-0.02c-1.27,0-2.97,0.19-3.73-0.51c-1.35-1.26-3.03-3.21-2.9-4.73
		c0.14-1.53,2.14-3.11,3.66-4.22c0.79-0.58,2.3-0.19,3.49-0.19c39.68-0.01,79.37,0,119.05,0c0.86,0,1.73-0.04,2.59,0.03
		c2.85,0.22,4.7,2.08,4.73,4.72c0.03,2.65-1.76,4.62-4.6,4.87c-1.71,0.15-3.45,0.05-5.17,0.05
		C477.69,529.69,458.6,529.69,439.52,529.69z"/>
	<path class="st1" d="M439.65,495.52c-19.84,0-39.68,0-59.52,0c-1.08,0-2.17,0.07-3.23-0.09c-2.47-0.36-4.21-2.03-3.95-4.32
		c0.2-1.7,1.65-3.53,3.05-4.71c0.87-0.74,2.67-0.52,4.05-0.53c39.79-0.02,79.58-0.02,119.37,0c1.28,0,2.62,0.01,3.83,0.37
		c2.36,0.71,3.49,2.48,3.27,4.93c-0.22,2.46-1.69,3.91-4.11,4.26c-1.06,0.16-2.15,0.08-3.23,0.08
		C479.33,495.53,459.49,495.52,439.65,495.52z"/>
	<path class="st1" d="M439.72,554.16c19.73,0,39.46,0,59.19,0c1.18,0,2.38-0.05,3.55,0.11c2.46,0.33,3.89,1.82,4.06,4.28
		c0.18,2.6-1.06,4.37-3.63,4.97c-1.14,0.27-2.35,0.27-3.53,0.27c-39.78,0.01-79.57,0.01-119.35,0.01c-0.75,0-1.51,0.03-2.26-0.04
		c-3.03-0.3-5.03-2.29-4.97-4.92c0.06-2.66,2.07-4.62,5.17-4.64c10.78-0.07,21.56-0.04,32.34-0.04
		C420.1,554.16,429.91,554.16,439.72,554.16z"/>
	<path class="st1" d="M439.68,461.51c-19.73,0-39.46,0-59.19-0.01c-1.29,0-2.6,0-3.86-0.24c-2.61-0.51-3.92-2.35-3.79-4.87
		c0.12-2.36,1.49-4.03,3.99-4.39c1.06-0.15,2.15-0.13,3.23-0.13c39.78-0.01,79.56-0.01,119.34,0c0.97,0,1.95-0.03,2.91,0.09
		c2.61,0.33,4.13,1.84,4.22,4.47c0.1,2.78-1.36,4.47-4.11,4.9c-1.27,0.2-2.58,0.17-3.87,0.17
		C478.92,461.51,459.3,461.51,439.68,461.51z"/>
	<path class="st1" d="M408.79,604.11c9.92,0,19.84-0.01,29.76,0.01c3.94,0.01,6,1.64,6.06,4.7c0.06,3.13-2.16,4.95-6.2,4.95
		c-19.73,0.02-39.46,0.01-59.19,0c-4.06,0-6.38-1.75-6.45-4.77c-0.07-3.14,2.25-4.87,6.59-4.88
		C389.17,604.1,398.98,604.11,408.79,604.11z"/>
	<path class="st1" d="M593.95,553.79c-22.33-0.01-40.5-18.13-40.6-40.47c-0.09-22.39,18.25-40.72,40.71-40.68
		c22.53,0.04,40.62,18.25,40.55,40.8C634.54,535.76,616.36,553.8,593.95,553.79z M594.1,544.13c17.2-0.05,30.93-13.92,30.84-31.16
		c-0.09-17.01-13.94-30.71-31.02-30.66c-17.01,0.04-30.84,13.85-30.91,30.85C562.94,530.2,576.96,544.17,594.1,544.13z"/>
</g>
</svg>
