<?xml version="1.0" encoding="utf-8"?>
<!-- Generator: Adobe Illustrator 23.0.1, SVG Export Plug-In . SVG Version: 6.00 Build 0)  -->
<svg version="1.1" id="Layer_1" xmlns="http://www.w3.org/2000/svg" xmlns:xlink="http://www.w3.org/1999/xlink" x="0px" y="0px"
	 viewBox="0 0 1000 1000" style="enable-background:new 0 0 1000 1000;" xml:space="preserve">
<style type="text/css">
	.st0{fill:#20B798;}
	.st1{fill:#FFFFFF;}
</style>
<circle class="st0" cx="500" cy="500" r="317.98"/>
<g>
	<path class="st1" d="M665.65,634.58c-0.51,1.85-0.96,3.73-1.55,5.56c-4.01,12.5-15.32,21.11-28.48,21.71
		c-0.97,0.04-1.94,0.09-2.91,0.09c-88.42,0-176.84-0.02-265.27,0.03c-9.94,0.01-18.37-3.19-25.06-10.61
		c-5.03-5.57-7.62-12.19-7.93-19.67c-0.15-3.66-0.09-7.33-0.05-11c0.05-3.96,1.73-5.61,5.76-5.7c2.45-0.05,4.9-0.01,7.72-0.01
		c0-1.78,0-3.15,0-4.52c0-56.18-0.01-112.36,0.01-168.54c0-11.92,6.44-20.8,17.19-23.62c2.37-0.62,4.89-0.74,7.35-0.85
		c3.11-0.14,6.22-0.03,9.21-0.03c-0.4-3.51-1.25-6.79-1.03-10c0.5-7.46,4.5-12.82,11.1-16.31c17.14-9.06,34.26-18.14,51.39-27.22
		c13.51-7.16,27.04-14.29,40.53-21.49c10.69-5.7,21.4-5.88,32.16-0.29c4.01,2.08,8.01,4.21,11.98,6.37c3.19,1.73,4.2,4.23,2.91,6.86
		c-1.31,2.66-4.21,3.31-7.52,1.59c-3.92-2.03-7.8-4.14-11.71-6.2c-7.63-4.02-15.27-4.04-22.89-0.01
		c-30.84,16.33-61.66,32.68-92.5,49c-3.76,1.99-5.96,5.01-5.93,9.27c0.04,4.11,2.12,7.09,5.79,9.03
		c31.03,16.42,62.04,32.88,93.08,49.29c7.05,3.73,14.28,3.9,21.41,0.28c7.85-3.99,15.59-8.2,23.68-12.47
		c-6.98-7.97-13.72-15.66-20.46-23.35c-5.19-5.92-10.39-11.83-15.57-17.75c-3.25-3.71-3.63-6.56-1.23-8.69
		c2.42-2.15,5.27-1.37,8.45,2.26c12.01,13.71,24.03,27.4,36.05,41.1c0.42,0.48,0.87,0.95,1.6,1.74c3.82-2.02,7.69-4.06,11.55-6.1
		c16.37-8.67,32.75-17.32,49.1-26.02c5.43-2.89,7.9-7.94,5.55-12.79c-1.21-2.5-3.66-4.87-6.14-6.21
		c-19.99-10.81-40.11-21.36-60.2-31.99c-0.38-0.2-0.77-0.39-1.14-0.6c-2.79-1.61-3.78-4.28-2.52-6.76c1.25-2.46,4.04-3.25,6.98-1.74
		c6.04,3.09,12.02,6.29,18.02,9.47c13.8,7.31,27.6,14.63,41.4,21.93c12.75,6.75,15.83,13.45,12.46,27.81c3.28,0,6.48-0.02,9.67,0
		c14.82,0.09,24.46,9.73,24.47,24.58c0.02,56.07,0.01,112.15,0.01,168.22c0,1.39,0,2.79,0,4.76c2.4,0,4.62,0.12,6.83-0.03
		c2.98-0.2,5.29,0.69,6.69,3.45C665.65,623.8,665.65,629.19,665.65,634.58z M357.55,614.75c95.24,0,189.96,0,284.93,0
		c0-1.52,0-2.8,0-4.08c0-24.69,0-49.38,0-74.07c0-31.48,0.07-62.97-0.11-94.45c-0.02-3.16-0.99-6.66-2.57-9.4
		c-2.43-4.22-6.83-5.62-11.65-5.69c-20.05-0.29-20.05-0.31-37.84,9.23c-1.92,1.03-3.82,2.07-5.73,3.1c0.08,0.23,0.16,0.46,0.24,0.68
		c1.17,0,2.34,0,3.5,0c11.32,0,22.64-0.01,33.96,0c5.95,0,7.2,1.26,7.2,7.2c0,49.17,0,98.33,0,147.5c0,5.93-1.27,7.21-7.2,7.21
		c-66.53,0-133.05,0-199.58,0c-1.07,0-2.17,0.02-3.22-0.19c-2.58-0.52-3.98-2.25-3.9-4.81c0.09-2.54,1.52-4.24,4.18-4.53
		c1.28-0.14,2.58-0.11,3.88-0.11c63.94,0,127.88,0,191.82,0c1.37,0,2.73,0,4.15,0c0-47.72,0-95,0-142.38c-14.49,0-28.76,0-43.26,0
		c0,5.62,0.03,11-0.01,16.38c-0.13,20.32-9.19,34.96-27.73,43.58c-0.72,0.34-1.9,0.98-1.88,1.43c0.14,3.38-0.26,7.09,1.03,10.03
		c2.35,5.4,5.77,10.32,8.67,15.49c2.55,4.55,2.74,9.3,0.36,13.93c-2.9,5.62-7.72,7.98-14,8.13c-6.6,0.17-12.23-1.37-15.71-7.45
		c-3.39-5.93-2.15-11.54,1.32-17.04c2.41-3.82,4.76-7.72,6.72-11.78c1.19-2.47,1.6-5.31,2.42-8.17c-1.12-0.06-1.35-0.12-1.55-0.07
		c-0.74,0.17-1.47,0.36-2.19,0.55c-25.72,6.97-51.15,5.95-76.32-2.71c-7.94-2.73-15.27-6.44-21.14-12.64
		c-8.13-8.6-12.37-18.82-12.64-30.63c-0.15-6.32-0.03-12.64-0.03-19.03c-14.71,0-28.98,0-43.25,0c0,47.52,0,94.79,0,142.37
		c1.51,0,2.78,0,4.06,0c5.5,0.01,11-0.04,16.5,0.07c2.75,0.05,4.41,1.6,4.64,4.4c0.23,2.7-1.47,4.66-4.32,5.08
		c-0.74,0.11-1.51,0.09-2.26,0.09c-7.22,0.01-14.45,0.02-21.67,0c-5.49-0.01-6.84-1.38-6.84-6.91c0-49.38,0-98.77,0-148.15
		c0-5.47,1.37-6.84,6.9-6.84c11.54-0.01,23.07,0,34.61-0.01c1.09,0,2.17-0.1,3.26-0.15c-2.13-1.79-4.43-2.74-6.43-4.13
		c-10.7-7.45-22.45-9.62-35.4-8.95c-9.24,0.48-16.1,5.65-16.05,16.29c0.27,55.85,0.13,111.7,0.13,167.56
		C357.55,611.96,357.55,613.24,357.55,614.75z M344.3,624.63c-1.02,8.94,0.63,16.62,7.51,22.52c4.77,4.09,10.42,5.18,16.55,5.18
		c73.97-0.06,147.93-0.04,221.9-0.04c14.34,0,28.68,0.11,43.02-0.03c15.18-0.15,24.96-12.24,22.28-27.46
		c-0.79-0.05-1.63-0.16-2.47-0.16c-36.77-0.01-73.54,0.01-110.3-0.05c-2.09,0-2.9,0.68-3.54,2.69
		c-2.94,9.22-10.84,15.58-20.34,15.81c-12.61,0.31-25.24,0.43-37.84-0.04c-9.9-0.37-16.73-5.93-20.04-15.22
		c-0.98-2.75-2.26-3.26-4.82-3.25c-36.12,0.07-72.24,0.05-108.36,0.05C346.71,624.63,345.55,624.63,344.3,624.63z M536.91,464.58
		c-7.16,3.79-13.73,7.19-20.23,10.72c-11.24,6.09-22.37,5.96-33.58-0.13c-10.21-5.55-20.51-10.93-30.78-16.37
		c-6.15-3.26-12.32-6.49-18.96-9.99c0,6.92-0.06,13.33,0.01,19.74c0.16,14.67,9.05,27.4,22.62,32.8c10.88,4.33,22.12,7.13,33.78,8.1
		c15.4,1.27,30.55-0.2,45.29-4.96c0.77-0.25,1.78-1.37,1.78-2.09C536.94,490.03,536.91,477.66,536.91,464.58z M566.02,449.17
		c-5.63,2.98-11.35,6.11-17.19,9.04c-1.83,0.92-2.32,2.04-2.3,4c0.09,11.73,0.04,23.45,0.05,35.18c0,0.8,0.07,1.6,0.13,2.85
		c10.61-5.7,17.6-13.88,19.1-25.31C566.91,466.59,566.02,458,566.02,449.17z M470.35,624.76c2.06,5.8,6.36,8.74,12.84,8.82
		c7.65,0.09,15.31,0.04,22.96,0.02c4.31-0.01,8.63,0.11,12.93-0.21c5.23-0.38,9.46-4.07,10.36-8.63
		C509.82,624.76,490.22,624.76,470.35,624.76z M541.77,530.71c-2.18,3.75-4.18,7.04-6.03,10.42c-2.34,4.28-0.11,7.98,4.79,8.09
		c1.07,0.02,2.15,0.05,3.22-0.02c3.78-0.26,6.13-3.69,4.49-7.05C546.39,538.34,544.08,534.75,541.77,530.71z"/>
	<path class="st1" d="M447.95,579.34c-15.19,0-30.39,0-45.58,0c-1.08,0-2.17,0.05-3.23-0.09c-2.76-0.37-4.74-2.53-4.46-5.01
		c0.31-2.67,1.84-4.3,4.64-4.48c0.86-0.06,1.72-0.06,2.58-0.06c30.71,0,61.42,0,92.14,0c5.21,0,7.28,1.35,7.31,4.72
		c0.04,3.48-2.15,4.92-7.5,4.92C478.55,579.34,463.25,579.34,447.95,579.34z"/>
	<path class="st1" d="M431.96,558.88c-10.34,0-20.69,0.01-31.03,0c-4.03-0.01-6.33-1.81-6.28-4.87c0.04-3.03,2.35-4.79,6.41-4.79
		c20.69-0.01,41.38-0.01,62.06,0c3.74,0,5.8,1.56,6.03,4.42c0.26,3.12-1.86,5.21-5.51,5.22
		C453.08,558.91,442.52,558.88,431.96,558.88z"/>
</g>
</svg>
