<?xml version="1.0" encoding="utf-8"?>
<!-- Generator: Adobe Illustrator 26.3.1, SVG Export Plug-In . SVG Version: 6.00 Build 0)  -->
<svg version="1.1" id="Layer_1" xmlns="http://www.w3.org/2000/svg" xmlns:xlink="http://www.w3.org/1999/xlink" x="0px" y="0px"
	 viewBox="0 0 49 56" style="enable-background:new 0 0 49 56;" xml:space="preserve">
<style type="text/css">
	.st0{fill:#FFFFFF;}
</style>
<g>
	<path class="st0" d="M48.56,47.55c-0.07,0.27-0.14,0.54-0.23,0.81c-0.58,1.82-2.23,3.07-4.14,3.15c-0.14,0.01-0.28,0.01-0.42,0.01
		c-12.84,0-25.68,0-38.53,0c-1.44,0-2.67-0.46-3.64-1.54c-0.73-0.81-1.11-1.77-1.15-2.86c-0.02-0.53-0.01-1.06-0.01-1.6
		c0.01-0.58,0.25-0.81,0.84-0.83c0.36-0.01,0.71,0,1.12,0c0-0.26,0-0.46,0-0.66c0-8.16,0-16.32,0-24.48c0-1.73,0.94-3.02,2.5-3.43
		c0.34-0.09,0.71-0.11,1.07-0.12c0.45-0.02,0.9,0,1.34,0c-0.06-0.51-0.18-0.99-0.15-1.45c0.07-1.08,0.65-1.86,1.61-2.37
		c2.49-1.32,4.98-2.63,7.46-3.95c1.96-1.04,3.93-2.08,5.89-3.12c1.55-0.83,3.11-0.85,4.67-0.04c0.58,0.3,1.16,0.61,1.74,0.93
		c0.46,0.25,0.61,0.61,0.42,1c-0.19,0.39-0.61,0.48-1.09,0.23c-0.57-0.29-1.13-0.6-1.7-0.9c-1.11-0.58-2.22-0.59-3.32,0
		c-4.48,2.37-8.96,4.75-13.43,7.12c-0.55,0.29-0.87,0.73-0.86,1.35c0.01,0.6,0.31,1.03,0.84,1.31c4.51,2.38,9.01,4.78,13.52,7.16
		c1.02,0.54,2.07,0.57,3.11,0.04c1.14-0.58,2.26-1.19,3.44-1.81c-1.01-1.16-1.99-2.27-2.97-3.39c-0.75-0.86-1.51-1.72-2.26-2.58
		c-0.47-0.54-0.53-0.95-0.18-1.26c0.35-0.31,0.77-0.2,1.23,0.33c1.74,1.99,3.49,3.98,5.24,5.97c0.06,0.07,0.13,0.14,0.23,0.25
		c0.55-0.29,1.12-0.59,1.68-0.89c2.38-1.26,4.76-2.52,7.13-3.78c0.79-0.42,1.15-1.15,0.81-1.86c-0.18-0.36-0.53-0.71-0.89-0.9
		c-2.9-1.57-5.83-3.1-8.74-4.65c-0.06-0.03-0.11-0.06-0.17-0.09C30.14,8.41,30,8.02,30.18,7.66c0.18-0.36,0.59-0.47,1.01-0.25
		c0.88,0.45,1.75,0.91,2.62,1.38c2,1.06,4.01,2.12,6.01,3.19c1.85,0.98,2.3,1.95,1.81,4.04c0.48,0,0.94,0,1.4,0
		c2.15,0.01,3.55,1.41,3.55,3.57c0,8.14,0,16.29,0,24.43c0,0.2,0,0.41,0,0.69c0.35,0,0.67,0.02,0.99,0c0.43-0.03,0.77,0.1,0.97,0.5
		C48.56,45.98,48.56,46.76,48.56,47.55z M3.81,44.67c13.83,0,27.59,0,41.38,0c0-0.22,0-0.41,0-0.59c0-3.59,0-7.17,0-10.76
		c0-4.57,0.01-9.15-0.02-13.72c0-0.46-0.14-0.97-0.37-1.37c-0.35-0.61-0.99-0.82-1.69-0.83c-2.91-0.04-2.91-0.05-5.5,1.34
		c-0.28,0.15-0.55,0.3-0.83,0.45c0.01,0.03,0.02,0.07,0.03,0.1c0.17,0,0.34,0,0.51,0c1.64,0,3.29,0,4.93,0
		c0.86,0,1.05,0.18,1.05,1.05c0,7.14,0,14.28,0,21.42c0,0.86-0.18,1.05-1.05,1.05c-9.66,0-19.32,0-28.99,0c-0.16,0-0.32,0-0.47-0.03
		c-0.37-0.08-0.58-0.33-0.57-0.7c0.01-0.37,0.22-0.62,0.61-0.66c0.19-0.02,0.37-0.02,0.56-0.02c9.29,0,18.57,0,27.86,0
		c0.2,0,0.4,0,0.6,0c0-6.93,0-13.8,0-20.68c-2.1,0-4.18,0-6.28,0c0,0.82,0,1.6,0,2.38c-0.02,2.95-1.33,5.08-4.03,6.33
		c-0.1,0.05-0.28,0.14-0.27,0.21c0.02,0.49-0.04,1.03,0.15,1.46c0.34,0.78,0.84,1.5,1.26,2.25c0.37,0.66,0.4,1.35,0.05,2.02
		c-0.42,0.82-1.12,1.16-2.03,1.18c-0.96,0.02-1.78-0.2-2.28-1.08c-0.49-0.86-0.31-1.68,0.19-2.47c0.35-0.55,0.69-1.12,0.98-1.71
		c0.17-0.36,0.23-0.77,0.35-1.19c-0.16-0.01-0.2-0.02-0.23-0.01c-0.11,0.02-0.21,0.05-0.32,0.08c-3.74,1.01-7.43,0.86-11.08-0.39
		c-1.15-0.4-2.22-0.94-3.07-1.84c-1.18-1.25-1.8-2.73-1.84-4.45c-0.02-0.92,0-1.84,0-2.76c-2.14,0-4.21,0-6.28,0
		c0,6.9,0,13.77,0,20.68c0.22,0,0.4,0,0.59,0c0.8,0,1.6-0.01,2.4,0.01c0.4,0.01,0.64,0.23,0.67,0.64c0.03,0.39-0.21,0.68-0.63,0.74
		c-0.11,0.02-0.22,0.01-0.33,0.01c-1.05,0-2.1,0-3.15,0c-0.8,0-0.99-0.2-0.99-1c0-7.17,0-14.34,0-21.52c0-0.79,0.2-0.99,1-0.99
		c1.68,0,3.35,0,5.03,0c0.16,0,0.32-0.01,0.47-0.02c-0.31-0.26-0.64-0.4-0.93-0.6c-1.55-1.08-3.26-1.4-5.14-1.3
		c-1.34,0.07-2.34,0.82-2.33,2.37c0.04,8.11,0.02,16.22,0.02,24.34C3.81,44.26,3.81,44.45,3.81,44.67z M1.89,46.1
		c-0.15,1.3,0.09,2.41,1.09,3.27c0.69,0.59,1.51,0.75,2.4,0.75c10.74-0.01,21.48-0.01,32.23-0.01c2.08,0,4.17,0.02,6.25,0
		c2.2-0.02,3.63-1.78,3.24-3.99c-0.11-0.01-0.24-0.02-0.36-0.02c-5.34,0-10.68,0-16.02-0.01c-0.3,0-0.42,0.1-0.51,0.39
		c-0.43,1.34-1.57,2.26-2.95,2.3c-1.83,0.05-3.67,0.06-5.5-0.01c-1.44-0.05-2.43-0.86-2.91-2.21c-0.14-0.4-0.33-0.47-0.7-0.47
		C12.89,46.1,7.65,46.1,2.4,46.1C2.24,46.1,2.07,46.1,1.89,46.1z M29.86,22.86c-1.04,0.55-1.99,1.04-2.94,1.56
		c-1.63,0.88-3.25,0.87-4.88-0.02c-1.48-0.81-2.98-1.59-4.47-2.38c-0.89-0.47-1.79-0.94-2.75-1.45c0,1.01-0.01,1.94,0,2.87
		c0.02,2.13,1.31,3.98,3.29,4.76c1.58,0.63,3.21,1.04,4.91,1.18c2.24,0.18,4.44-0.03,6.58-0.72c0.11-0.04,0.26-0.2,0.26-0.3
		C29.86,26.55,29.86,24.76,29.86,22.86z M34.09,20.62c-0.82,0.43-1.65,0.89-2.5,1.31c-0.27,0.13-0.34,0.3-0.33,0.58
		c0.01,1.7,0.01,3.41,0.01,5.11c0,0.12,0.01,0.23,0.02,0.41c1.54-0.83,2.56-2.02,2.77-3.68C34.22,23.15,34.09,21.9,34.09,20.62z
		 M20.19,46.12c0.3,0.84,0.92,1.27,1.86,1.28c1.11,0.01,2.22,0.01,3.33,0c0.63,0,1.25,0.02,1.88-0.03c0.76-0.06,1.37-0.59,1.5-1.25
		C25.93,46.12,23.08,46.12,20.19,46.12z M30.57,32.46c-0.32,0.54-0.61,1.02-0.88,1.51c-0.34,0.62-0.02,1.16,0.7,1.17
		c0.16,0,0.31,0.01,0.47,0c0.55-0.04,0.89-0.54,0.65-1.02C31.24,33.57,30.9,33.05,30.57,32.46z"/>
	<path class="st0" d="M16.94,39.52c-2.21,0-4.41,0-6.62,0c-0.16,0-0.32,0.01-0.47-0.01c-0.4-0.05-0.69-0.37-0.65-0.73
		c0.05-0.39,0.27-0.62,0.67-0.65c0.12-0.01,0.25-0.01,0.37-0.01c4.46,0,8.92,0,13.38,0c0.76,0,1.06,0.2,1.06,0.69
		c0.01,0.51-0.31,0.71-1.09,0.71C21.38,39.52,19.16,39.52,16.94,39.52z"/>
	<path class="st0" d="M14.62,36.55c-1.5,0-3,0-4.51,0c-0.59,0-0.92-0.26-0.91-0.71c0.01-0.44,0.34-0.7,0.93-0.7c3,0,6.01,0,9.01,0
		c0.54,0,0.84,0.23,0.88,0.64c0.04,0.45-0.27,0.76-0.8,0.76C17.68,36.56,16.15,36.55,14.62,36.55z"/>
</g>
</svg>
