<?xml version="1.0" encoding="utf-8"?>
<!-- Generator: Adobe Illustrator 23.0.1, SVG Export Plug-In . SVG Version: 6.00 Build 0)  -->
<svg version="1.1" id="Layer_1" xmlns="http://www.w3.org/2000/svg" xmlns:xlink="http://www.w3.org/1999/xlink" x="0px" y="0px"
	 viewBox="0 0 255 177.4" style="enable-background:new 0 0 255 177.4;" xml:space="preserve">
<style type="text/css">
	.st0{fill:#71BF9D;}
	.st1{fill:#E57E55;}
	.st2{fill:#FFFFFF;}
	.st3{fill:#08C29D;}
	.st4{fill:#1DD8B4;}
	.st5{fill:#021166;}
	.st6{fill:#152C89;}
	.st7{fill-rule:evenodd;clip-rule:evenodd;fill:#021166;}
	.st8{fill-rule:evenodd;clip-rule:evenodd;fill:#FFFFFF;}
	.st9{fill:#764582;}
	.st10{opacity:0.2;}
	.st11{fill:#000F4C;}
	.st12{fill:#08AF8F;}
	.st13{fill:#A1ABAD;}
	.st14{fill-rule:evenodd;clip-rule:evenodd;fill:#08C29D;}
	.st15{fill-rule:evenodd;clip-rule:evenodd;fill:#000D44;}
	.st16{fill:#BFD9FF;}
	.st17{fill:#2D2737;}
	.st18{fill:#3D4776;}
	.st19{fill:#51598D;}
	.st20{fill:#A8B6E2;}
	.st21{fill:#FF8D68;}
	.st22{fill:#FF7759;}
	.st23{fill:#DEE0E8;}
	.st24{fill:#1C2A3D;}
	.st25{fill:#3E3343;}
	.st26{fill:#2A2E59;}
	.st27{fill:#524B81;}
	.st28{fill:#E66657;}
	.st29{fill:#024470;}
	.st30{fill:#713336;}
	.st31{fill:#71BFF4;}
	.st32{fill:#FA6157;}
	.st33{opacity:0.3;fill:#764582;enable-background:new    ;}
	.st34{fill:#FFBE57;}
	.st35{fill:#FFD25A;}
	.st36{fill:#FD6141;}
</style>
<g>
	<g>
		<g>
			<path class="st0" d="M219.6,123.4c-0.8-4-8.1-4.6-8.1-4.6s4.3-7.2,1.3-10.4s-10.1,4.4-10.1,4.4s-2.3-4.8-5.8,0
				c0,0-5.7-4.4-10.7-2.1c-3.5,1.6-3,5.9-2.4,8.1H86.3c-0.1-0.2-0.2-0.3-0.3-0.5c-3.3-4-12.8-1.9-12.8-1.9s4-9.8-2.6-12.8
				s-14.2,2.8-14.2,2.8c-4.6-6.4-7.6,0-7.6,0s-9.3-10.1-13.3-5.8s1.7,13.8,1.7,13.8s-9.8,0.9-10.8,6.1s16.9,10.7,16.9,10.7
				l163.6,0.3C206.8,131.5,220.3,127.4,219.6,123.4z"/>
		</g>
		<g>
			<g>
				<path class="st1" d="M52.2,129.8c-0.1,0-0.1,0-0.2-0.1c-3-8.4-7.4-16-13.1-22.8c-0.1-0.1,0-0.2,0-0.2c0.1-0.1,0.2-0.1,0.2,0
					c5.8,6.8,10.2,14.5,13.1,22.9C52.4,129.7,52.4,129.8,52.2,129.8L52.2,129.8z"/>
			</g>
			<g>
				<path class="st1" d="M52.2,130.1L52.2,130.1c-0.1,0-0.2-0.1-0.2-0.2c0.2-6.6,0.9-13.2,2-19.6c0-0.1,0.1-0.1,0.2-0.1
					c0.1,0,0.2,0.1,0.1,0.2c-1.1,6.4-1.8,13.1-2,19.6C52.4,130,52.3,130.1,52.2,130.1z"/>
			</g>
			<g>
				<path class="st1" d="M50.4,125.5L50.4,125.5c-4.3-2.1-8.8-3.6-13.5-4.4c-0.1,0-0.2-0.1-0.1-0.2c0-0.1,0.1-0.1,0.2-0.1
					c4.7,0.8,9.3,2.3,13.5,4.4c0.1,0,0.1,0.1,0.1,0.2C50.5,125.5,50.5,125.5,50.4,125.5z"/>
			</g>
			<g>
				<path class="st1" d="M46.1,116.6L46.1,116.6c-0.2,0-0.2-0.1-0.2-0.2c0.8-2,1.4-4.1,1.7-6.2c0-0.1,0.1-0.2,0.2-0.1
					c0.1,0,0.2,0.1,0.1,0.2C47.6,112.5,47,114.6,46.1,116.6C46.2,116.6,46.2,116.6,46.1,116.6z"/>
			</g>
		</g>
		<g>
			<g>
				<path class="st1" d="M199.4,130.5L199.4,130.5c-0.1,0-0.1-0.1-0.1-0.2c2.4-6.7,5.9-12.9,10.5-18.4c0.1-0.1,0.1-0.1,0.2,0
					c0.1,0.1,0.1,0.1,0,0.2C205.4,117.5,201.9,123.7,199.4,130.5C199.5,130.5,199.5,130.5,199.4,130.5z"/>
			</g>
			<g>
				<path class="st1" d="M199.4,130.7c-0.1,0-0.1-0.1-0.1-0.1c-0.2-5.2-0.7-10.5-1.6-15.7c0-0.1,0-0.1,0.1-0.2c0.1,0,0.1,0,0.2,0.1
					c0.9,5.2,1.5,10.5,1.6,15.7C199.6,130.7,199.5,130.7,199.4,130.7L199.4,130.7z"/>
			</g>
			<g>
				<path class="st1" d="M200.8,127.1c-0.1,0-0.1,0-0.1-0.1s0-0.1,0.1-0.2c3.4-1.7,7.1-2.9,10.8-3.5c0.1,0,0.1,0,0.2,0.1
					c0,0.1,0,0.1-0.1,0.2C207.9,124.2,204.3,125.4,200.8,127.1C200.9,127.1,200.9,127.1,200.8,127.1z"/>
			</g>
			<g>
				<path class="st1" d="M204.3,119.9c-0.1,0-0.1,0-0.1-0.1c-0.7-1.6-1.2-3.3-1.4-5c0-0.1,0-0.1,0.1-0.1s0.1,0,0.1,0.1
					c0.2,1.7,0.7,3.4,1.4,5C204.5,119.8,204.4,119.9,204.3,119.9L204.3,119.9z"/>
			</g>
		</g>
		<g>
			<g>
				<g>
					<g>
						<path class="st2" d="M43.9,102.9c0.1,0,0.1,0.1,0.2,0.1c0.1,0.1,0.1,0.1,0.2,0.2c0,0.1,0,0.2-0.1,0.2h-0.1
							c-0.1,0-0.1-0.1-0.2-0.1c0-0.1-0.1-0.1-0.2-0.2C43.7,103,43.7,102.9,43.9,102.9C43.8,102.9,43.8,102.9,43.9,102.9z"/>
					</g>
				</g>
				<g>
					<g>
						<path class="st2" d="M44.5,103.4c0.1,0,0.1,0.1,0.2,0.1c0,0.1,0.1,0.1,0.1,0.2c0,0.1,0,0.2-0.1,0.2h-0.1
							c-0.1,0-0.1-0.1-0.2-0.1c0-0.1-0.1-0.1-0.1-0.2C44.3,103.5,44.3,103.4,44.5,103.4C44.5,103.4,44.5,103.4,44.5,103.4z"/>
					</g>
				</g>
				<g>
					<g>
						<path class="st2" d="M45.2,104c0.1,0,0.1,0.1,0.2,0.1c0,0.1,0.1,0.1,0.1,0.2c0,0.1,0,0.2-0.1,0.2h-0.1c-0.1,0-0.1-0.1-0.2-0.1
							c0-0.1-0.1-0.1-0.1-0.2C45,104.1,45,104,45.2,104C45.1,104,45.2,104,45.2,104z"/>
					</g>
				</g>
				<g>
					<g>
						<path class="st2" d="M46.3,105c0.1,0,0.1,0.1,0.2,0.1c0,0.1,0.1,0.1,0.1,0.2c0,0.1,0,0.2-0.1,0.2h-0.1c-0.1,0-0.1-0.1-0.2-0.1
							c0-0.1-0.1-0.1-0.1-0.2C46.1,105.1,46.1,105,46.3,105C46.2,105,46.3,105,46.3,105z"/>
					</g>
				</g>
				<g>
					<g>
						<path class="st2" d="M47.1,105.7c0.1,0,0.1,0,0.1,0.1l0.1,0.1c0,0.1-0.1,0.2-0.2,0.2l0,0c-0.1,0-0.1,0-0.1-0.1l-0.1-0.1
							C46.8,105.9,46.9,105.7,47.1,105.7L47.1,105.7z"/>
					</g>
				</g>
				<g>
					<g>
						<path class="st2" d="M47.7,106.4c0.1,0,0.1,0,0.1,0.1l0.1,0.1c0,0.1-0.1,0.2-0.2,0.2l0,0c-0.1,0-0.1,0-0.1-0.1l-0.1-0.1
							C47.5,106.5,47.6,106.4,47.7,106.4L47.7,106.4z"/>
					</g>
				</g>
			</g>
			<g>
				<g>
					<g>
						<path class="st2" d="M36.4,100.7c0.6-0.4,1.2-0.5,1.9-0.5s1.3,0.2,1.9,0.4c0.6,0.3,1.2,0.6,1.7,0.9c0.5,0.3,1,0.7,1.5,1.1
							c0.1,0.1,0.1,0.2,0,0.2c0,0.1-0.2,0.1-0.2,0c-0.5-0.4-1-0.7-1.6-1c-0.5-0.3-1.1-0.6-1.6-0.8c-0.6-0.2-1.2-0.4-1.7-0.4
							c-0.6,0-1.2,0.1-1.7,0.4c-0.1,0-0.2,0-0.2-0.1C36.3,100.8,36.3,100.7,36.4,100.7z"/>
					</g>
				</g>
				<g>
					<g>
						<path class="st2" d="M36.2,101.2c0,0.1-0.1,0.1-0.1,0.1s-0.1,0.1-0.2,0.1c-0.1,0-0.2,0-0.2-0.1v-0.1c0-0.1,0.1-0.1,0.1-0.2
							c0-0.1,0.1-0.1,0.2-0.1C36.1,100.9,36.2,101,36.2,101.2C36.3,101.1,36.2,101.1,36.2,101.2z"/>
					</g>
				</g>
				<g>
					<g>
						<path class="st2" d="M35.8,101.7c0,0.1,0,0.1-0.1,0.2l-0.1,0.1c-0.1,0.1-0.2,0-0.3-0.1v-0.1c0-0.1,0-0.1,0.1-0.2
							c0-0.1,0.1-0.1,0.2-0.1C35.6,101.4,35.7,101.5,35.8,101.7C35.8,101.6,35.8,101.6,35.8,101.7z"/>
					</g>
				</g>
				<g>
					<g>
						<path class="st2" d="M35.5,102.3c0,0.1-0.1,0.2-0.1,0.4l-0.1,0.4c-0.1,0.2-0.1,0.5-0.2,0.7c0,0.1-0.1,0.1-0.2,0.1
							c-0.1,0-0.1-0.1-0.1-0.1c0-0.3,0-0.5,0.1-0.8l0.1-0.4c0-0.1,0.1-0.3,0.2-0.4c0-0.1,0.2-0.1,0.2-0.1
							C35.4,102.1,35.5,102.2,35.5,102.3z"/>
					</g>
				</g>
				<g>
					<g>
						<path class="st2" d="M35,104.3v0.1v0.1c-0.1,0.1-0.2,0.1-0.3,0l0,0v-0.1v-0.1C34.8,104.2,34.9,104.2,35,104.3L35,104.3z"/>
					</g>
				</g>
				<g>
					<g>
						<path class="st2" d="M35,105.1v0.1v0.1c-0.1,0.1-0.2,0.1-0.3,0l0,0v-0.1v-0.1C34.8,105,34.9,105,35,105.1L35,105.1z"/>
					</g>
				</g>
			</g>
		</g>
		<g>
			<g>
				<g>
					<g>
						<path class="st2" d="M212.4,113.2c0,0.1,0,0.2,0,0.3s-0.1,0.2-0.1,0.2c-0.1,0.1-0.2,0.1-0.3,0l-0.1-0.1c0-0.1,0-0.2,0-0.2
							c0-0.1,0-0.1,0.1-0.2C212.2,113.1,212.3,113.1,212.4,113.2C212.4,113.1,212.4,113.2,212.4,113.2z"/>
					</g>
				</g>
				<g>
					<g>
						<path class="st2" d="M212.2,114.1c0,0.1,0,0.2,0,0.3s-0.1,0.1-0.1,0.2c-0.1,0.1-0.2,0.1-0.3,0l-0.1-0.1c0-0.1,0-0.2,0-0.2
							c0-0.1,0.1-0.1,0.1-0.2C212,114,212.1,114,212.2,114.1C212.2,114,212.2,114.1,212.2,114.1z"/>
					</g>
				</g>
				<g>
					<g>
						<path class="st2" d="M212,115c0,0.1,0,0.2,0,0.2c0,0.1-0.1,0.1-0.1,0.2c-0.1,0.1-0.2,0.1-0.3,0l-0.1-0.1c0-0.1,0-0.2,0-0.2
							c0-0.1,0.1-0.1,0.1-0.2c0.1-0.1,0.2-0.1,0.3,0C212,114.9,212,115,212,115z"/>
					</g>
				</g>
				<g>
					<g>
						<path class="st2" d="M211.5,116.5c0,0.1,0,0.2,0,0.2c0,0.1-0.1,0.1-0.1,0.2c-0.1,0.1-0.2,0.1-0.3,0c0,0,0-0.1-0.1-0.1
							c0-0.1,0-0.2,0-0.2c0-0.1,0.1-0.1,0.1-0.2c0.1-0.1,0.2-0.1,0.3,0C211.4,116.5,211.5,116.5,211.5,116.5z"/>
					</g>
				</g>
				<g>
					<g>
						<path class="st2" d="M211.1,117.6c0,0.1,0,0.1,0,0.1s0,0.1-0.1,0.1c-0.1,0.1-0.2,0-0.3-0.1l0,0c0-0.1,0-0.1,0-0.1
							s0-0.1,0.1-0.1C210.9,117.4,211,117.5,211.1,117.6L211.1,117.6z"/>
					</g>
				</g>
				<g>
					<g>
						<path class="st2" d="M210.7,118.5c0,0.1,0,0.1,0,0.1l-0.1,0.1c-0.1,0.1-0.2,0-0.3-0.1l0,0c0-0.1,0-0.1,0-0.1l0.1-0.1
							C210.5,118.3,210.6,118.4,210.7,118.5L210.7,118.5z"/>
					</g>
				</g>
			</g>
			<g>
				<g>
					<g>
						<path class="st2" d="M207.8,109.4c0.6-0.4,1.2-0.7,1.9-0.9s1.4-0.2,2.1,0.2c0.3,0.2,0.6,0.5,0.7,0.9c0.1,0.3,0.2,0.7,0.2,1
							c0,0.7-0.1,1.4-0.2,2c0,0.1-0.1,0.1-0.2,0.1c-0.1,0-0.1-0.1-0.1-0.2c0.1-0.6,0.1-1.3,0.1-2c-0.1-0.6-0.2-1.3-0.7-1.6
							s-1.2-0.3-1.8-0.1c-0.6,0.1-1.2,0.4-1.8,0.8C207.9,109.6,207.8,109.6,207.8,109.4C207.7,109.5,207.8,109.5,207.8,109.4z"/>
					</g>
				</g>
				<g>
					<g>
						<path class="st2" d="M207.6,109.9c0,0.1-0.1,0.1-0.1,0.1c-0.1,0-0.1,0.1-0.2,0.1c-0.1,0-0.2-0.1-0.2-0.2v-0.1
							c0-0.1,0.1-0.1,0.1-0.1c0.1,0,0.1-0.1,0.2-0.1S207.6,109.7,207.6,109.9C207.6,109.8,207.6,109.9,207.6,109.9z"/>
					</g>
				</g>
				<g>
					<g>
						<path class="st2" d="M206.9,110.3c0,0.1-0.1,0.1-0.1,0.1c-0.1,0-0.1,0.1-0.2,0.1c-0.1,0-0.2-0.1-0.2-0.2v-0.1
							c0-0.1,0.1-0.1,0.1-0.2c0.1,0,0.1-0.1,0.2-0.1c0.1,0,0.2,0.1,0.2,0.2C206.9,110.3,206.9,110.3,206.9,110.3z"/>
					</g>
				</g>
				<g>
					<g>
						<path class="st2" d="M206.3,110.8c-0.2,0.2-0.4,0.4-0.6,0.5c-0.2,0.2-0.4,0.3-0.6,0.5c-0.1,0.1-0.2,0-0.2-0.1s0-0.1,0-0.2
							c0.2-0.2,0.4-0.4,0.6-0.6c0.2-0.2,0.4-0.3,0.7-0.5c0.1-0.1,0.2,0,0.2,0.1S206.4,110.7,206.3,110.8z"/>
					</g>
				</g>
				<g>
					<g>
						<path class="st2" d="M204.5,112.3c0,0.1,0,0.1-0.1,0.1l-0.1,0.1c-0.1,0-0.2-0.1-0.2-0.2l0,0c0-0.1,0-0.1,0.1-0.1l0.1-0.1
							C204.4,112,204.5,112.1,204.5,112.3L204.5,112.3z"/>
					</g>
				</g>
				<g>
					<g>
						<path class="st2" d="M203.9,112.8c0,0.1,0,0.1-0.1,0.1l-0.1,0.1c-0.1,0-0.2-0.1-0.2-0.2l0,0c0-0.1,0-0.1,0.1-0.1l0.1-0.1
							C203.8,112.6,203.9,112.7,203.9,112.8L203.9,112.8z"/>
					</g>
				</g>
			</g>
		</g>
	</g>
	<g>
		<g>
			<path class="st3" d="M125,87.8c-24.9-0.4-91.6,20.2-99.7,0c-6.7-16.7,18.3-15.4,19.8-29.2S40,38.9,50.4,32.5s27.3,2.5,38.5-6.4
				s17-15.3,42.2-18.4s43.8,25.3,54.6,28.1s26.2-4.3,33.8,4.3c7.6,8.7-16.9,27.9-11.6,35.9S226,88.4,221,99.6
				C216.1,111,149.2,88.2,125,87.8z"/>
		</g>
		<g>
			<g>
				<g>
					<g>
						<path class="st2" d="M25.5,80.1c0-0.1,0-0.2,0.1-0.3c0-0.1,0.1-0.2,0.2-0.3s0.2-0.1,0.3,0v0.1c0,0.1,0,0.2-0.1,0.3
							c0,0.1-0.1,0.2-0.1,0.3c-0.1,0.1-0.2,0.1-0.3,0L25.5,80.1z"/>
					</g>
				</g>
				<g>
					<g>
						<path class="st2" d="M26,79c0-0.1,0.1-0.2,0.1-0.3c0.1-0.1,0.1-0.2,0.2-0.3s0.2-0.1,0.3,0v0.1c0,0.1-0.1,0.2-0.1,0.3
							s-0.1,0.2-0.2,0.3s-0.2,0.1-0.3,0C26,79.1,26,79,26,79z"/>
					</g>
				</g>
				<g>
					<g>
						<path class="st2" d="M26.6,77.9c0-0.1,0.1-0.2,0.1-0.3c0.1-0.1,0.1-0.2,0.2-0.2c0.1-0.1,0.2-0.1,0.3,0.1v0.1
							c0,0.1-0.1,0.2-0.1,0.3C27,78,27,78.1,26.9,78.1c-0.1,0.1-0.2,0.1-0.3,0C26.6,78,26.6,78,26.6,77.9z"/>
					</g>
				</g>
				<g>
					<g>
						<path class="st2" d="M27.9,76.2c0-0.1,0.1-0.2,0.2-0.3s0.1-0.1,0.3-0.2c0.1-0.1,0.2,0,0.3,0.1v0.1c0,0.1-0.1,0.2-0.2,0.3
							s-0.1,0.1-0.3,0.2c-0.1,0.1-0.2,0-0.3-0.1C27.9,76.3,27.9,76.3,27.9,76.2z"/>
					</g>
				</g>
				<g>
					<g>
						<path class="st2" d="M29,75.2c0-0.1,0.1-0.1,0.1-0.2c0,0,0.1-0.1,0.2-0.1s0.2,0.1,0.2,0.2c0,0,0,0,0,0.1s-0.1,0.1-0.1,0.1
							s-0.1,0.1-0.2,0.1C29.1,75.5,29,75.4,29,75.2L29,75.2z"/>
					</g>
				</g>
				<g>
					<g>
						<path class="st2" d="M30,74.4c0-0.1,0.1-0.1,0.1-0.1c0.1,0,0.1-0.1,0.2-0.1s0.2,0.1,0.2,0.2l0,0c0,0.1-0.1,0.1-0.1,0.1
							s-0.1,0.1-0.2,0.1C30.1,74.7,30,74.6,30,74.4C30,74.5,30,74.4,30,74.4z"/>
					</g>
				</g>
			</g>
			<g>
				<g>
					<g>
						<path class="st2" d="M28.3,90.6c-0.3-0.3-0.6-0.7-0.8-1c-0.2-0.4-0.5-0.7-0.7-1.1c-0.2-0.4-0.4-0.8-0.6-1.2l-0.5-1.2
							c-0.3-0.8-0.5-1.7-0.5-2.6c-0.1-0.9,0-1.8,0.3-2.6c0-0.1,0.1-0.2,0.2-0.2s0.1,0.1,0.1,0.2c-0.2,0.8-0.3,1.7-0.2,2.5
							c0.1,0.9,0.3,1.7,0.5,2.5l0.5,1.2c0.2,0.4,0.4,0.8,0.6,1.2s0.4,0.7,0.7,1.1c0.3,0.3,0.5,0.7,0.8,1c0.1,0.1,0.1,0.2,0,0.3
							C28.5,90.7,28.3,90.7,28.3,90.6z"/>
					</g>
				</g>
				<g>
					<g>
						<path class="st2" d="M28.9,90.9c0.1,0,0.1,0.1,0.2,0.2c0.1,0.1,0.1,0.1,0.2,0.2c0,0.1,0,0.2-0.1,0.3h-0.1
							c-0.1,0-0.2-0.1-0.2-0.1c-0.1-0.1-0.1-0.1-0.1-0.2c0-0.1,0-0.2,0.1-0.2C28.8,90.9,28.8,90.9,28.9,90.9z"/>
					</g>
				</g>
				<g>
					<g>
						<path class="st2" d="M29.6,91.6c0.1,0,0.1,0.1,0.2,0.1c0.1,0.1,0.1,0.1,0.2,0.2c0.1,0.1,0,0.2-0.1,0.3h-0.1
							c-0.1,0-0.2-0.1-0.2-0.1c-0.1-0.1-0.1-0.1-0.2-0.2c-0.1-0.1,0-0.2,0.1-0.3C29.5,91.5,29.6,91.5,29.6,91.6z"/>
					</g>
				</g>
				<g>
					<g>
						<path class="st2" d="M30.4,92.2c0.3,0.2,0.6,0.4,0.9,0.5c0.3,0.2,0.6,0.3,0.9,0.5c0.1,0.1,0.2,0.2,0.1,0.3
							c0,0.1-0.1,0.1-0.2,0.1c-0.4-0.1-0.7-0.3-1-0.4c-0.3-0.2-0.6-0.4-0.9-0.6c-0.1-0.1-0.1-0.2,0-0.3
							C30.2,92.1,30.3,92.1,30.4,92.2z"/>
					</g>
				</g>
				<g>
					<g>
						<path class="st2" d="M33,93.5c0.1,0,0.1,0,0.2,0c0,0,0.1,0,0.1,0.1c0.1,0.1,0,0.3-0.1,0.3l0,0c-0.1,0-0.1,0-0.2,0
							c0,0-0.1,0-0.1-0.1C32.8,93.7,32.9,93.6,33,93.5L33,93.5z"/>
					</g>
				</g>
				<g>
					<g>
						<path class="st2" d="M34,93.8c0.1,0,0.1,0,0.2,0c0,0,0.1,0,0.1,0.1c0.1,0.1,0.1,0.2,0,0.3l0,0c-0.1,0-0.1,0-0.2,0
							c0,0-0.1,0-0.2-0.1C33.9,94,33.9,93.9,34,93.8L34,93.8z"/>
					</g>
				</g>
			</g>
		</g>
		<g>
			<path class="st4" d="M125.9,20.6c-11.7,1.9-20.8,7.2-27.2,15.9c-6.1,8-4.8,18.2,0.4,26.2c4.8,7.6,13.8,10.3,22.5,12.1
				c24.2,5.7,46.3,12.9,69.2,20.1c9.9,3,21.6,7.6,30.3,0.8l0,0c0.9-0.7,1.2-1.7,1-2.7c-1.4-6.7-10-10.7-14.1-16.9
				c-5.2-8,19.2-27.3,11.6-35.9s-23-1.5-33.8-4.3c-1.3-0.3-2.7-1-4.2-2C162.4,29.6,147.1,17.3,125.9,20.6z"/>
		</g>
		<g>
			<path class="st2" d="M211.7,101.2c-10.2,0-27.7-3.9-44.6-7.7c-16.6-3.7-32.4-7.2-42.1-7.4c-8-0.1-20.1,1.8-32.9,3.9
				c-14.3,2.3-30.6,5-43.3,5c-12.5,0-19.6-2.5-21.7-7.7c-3.2-8.1,1.5-10.9,8.1-14.9c5.2-3.1,11.1-6.7,11.8-13.6
				c0.5-4.9,0.1-8.9-0.3-12.1c-0.7-6.1-1.1-9.1,4.8-12.7c2.5-1.6,5.6-2.2,10.5-2.2c1.8,0,3.7,0.1,5.6,0.2c2,0.1,4,0.2,6.1,0.2
				c4.9,0,11.3-0.5,16.6-4.7c1-0.8,2-1.6,3-2.4c9.2-7.5,15.9-12.9,38.2-15.6c1.2-0.1,2.4-0.2,3.5-0.2c14.2,0,26.2,10.2,35.8,18.5
				c5.7,4.9,10.3,8.8,14.4,9.8c2,0.5,4.3,0.8,7,0.8c2.5,0,5.1-0.2,7.6-0.4c2.5-0.2,4.9-0.4,7.2-0.4c5.4,0,8.6,1.1,10.9,3.8
				c3.2,3.7-1.6,11-5.9,17.5c-4.6,7-8.9,13.6-5.9,18.2c1.8,2.7,4.3,5,6.7,7.1c5.2,4.6,9.2,8.3,6.3,15
				C218.5,100.8,214.7,101.2,211.7,101.2z M124.3,85.7c0.3,0,0.5,0,0.8,0c9.7,0.1,25.4,3.7,42.1,7.4c16.9,3.8,34.4,7.7,44.6,7.7
				c4.1,0,6.7-0.7,7.2-1.8c2.9-6.5-1.1-10.1-6.2-14.6c-2.4-2.2-5-4.5-6.8-7.2c-3.1-4.8,1.3-11.5,5.9-18.6c4.2-6.4,9-13.6,5.9-17.1
				c-2.2-2.6-5.4-3.7-10.7-3.7c-2.3,0-4.6,0.2-7.2,0.4c-2.5,0.2-5.1,0.4-7.7,0.4c-2.7,0-5-0.3-7.1-0.8c-4.2-1.1-8.7-5-14.5-9.9
				C161,19.7,149,9.5,135,9.5c-1.2,0-2.3,0.1-3.5,0.2c-22.2,2.7-28.8,8.1-38,15.5c-1,0.8-1.9,1.6-3,2.4c-5.3,4.2-11.8,4.8-16.8,4.8
				c-2.1,0-4.1-0.1-6.1-0.2S63.8,32,62,32c-4.7,0-7.8,0.7-10.3,2.2c-5.7,3.5-5.3,6.5-4.7,12.4c0.4,3.2,0.8,7.2,0.3,12.2
				c-0.7,7.1-6.7,10.6-12,13.8c-6.5,3.9-11.1,6.7-8,14.5c2,5.1,9,7.5,21.4,7.5c12.6,0,28.9-2.6,43.2-5
				C104.5,87.7,116.3,85.7,124.3,85.7z"/>
		</g>
	</g>
	<g>
		<path class="st5" d="M193.5,121.6H67.8c-2.1,0-3.8-1.7-3.8-3.9V51.8c0-2.1,1.7-3.8,3.8-3.8h125.6c2.1,0,3.9,1.7,3.9,3.8v65.9
			C197.3,119.8,195.6,121.6,193.5,121.6z"/>
	</g>
	<g>
		<path class="st6" d="M191.1,118.8H65.5c-2.1,0-3.8-1.7-3.8-3.9V49c0-2.1,1.7-3.8,3.8-3.8h125.6c2.1,0,3.9,1.7,3.9,3.8v65.9
			C195,117.1,193.3,118.8,191.1,118.8z"/>
	</g>
	<g>
		<g>
			<path class="st2" d="M190.5,116h-129c-1.2,0-2.1-0.9-2.1-2.1V44.5c0-1.2,1-2.1,2.1-2.1h129.1c1.2,0,2.1,0.9,2.1,2.1v69.4
				C192.7,115,191.7,116,190.5,116z"/>
			<path class="st5" d="M191.9,116.2H60c-0.5,0-0.9-0.4-0.9-0.9V43.1c0-0.5,0.4-0.9,0.9-0.9h131.9c0.5,0,0.9,0.4,0.9,0.9v72.2
				C192.8,115.8,192.4,116.2,191.9,116.2z M60,42.5c-0.3,0-0.5,0.3-0.5,0.6v72.2c0,0.3,0.3,0.6,0.5,0.6h131.9c0.3,0,0.6-0.3,0.6-0.6
				V43.1c0-0.3-0.3-0.6-0.6-0.6H60L60,42.5z"/>
		</g>
		<g>
			<path class="st7" d="M66.8,48.7h8.5v-0.5h-8.5V48.7z M64.8,48.9h1v-1h-1V48.9z M66.8,51.5h8.5V51h-8.5V51.5z M64.8,51.7h1v-1h-1
				V51.7z M66.8,54.2h8.5v-0.5h-8.5V54.2z M64.8,54.5h1v-1h-1V54.5z"/>
		</g>
		<g>
			<path class="st8" d="M87.5,95.6h-7.6c-8.3,0-15.1-6.8-15.1-15.1V74c0-8.4,6.8-15.1,15.1-15.1h7.6c8.3,0,15.1,6.8,15.1,15.1v6.5
				C102.6,88.8,95.9,95.6,87.5,95.6z"/>
			<path class="st5" d="M97.5,95.8H69.9c-2.9,0-5.3-2.4-5.3-5.3V64c0-2.9,2.4-5.3,5.3-5.3h27.6c2.9,0,5.3,2.4,5.3,5.3v26.5
				C102.8,93.4,100.4,95.8,97.5,95.8z M69.9,59.1c-2.7,0-4.9,2.2-4.9,4.9v26.5c0,2.7,2.2,4.9,4.9,4.9h27.6c2.7,0,4.9-2.2,4.9-4.9V64
				c0-2.7-2.2-4.9-4.9-4.9C97.5,59.1,69.9,59.1,69.9,59.1z"/>
		</g>
		<g>
			<path class="st8" d="M130.1,95.6h-7.6c-8.3,0-15.1-6.8-15.1-15.1V74c0-8.4,6.8-15.1,15.1-15.1h7.6c8.4,0,15.1,6.8,15.1,15.1v6.5
				C145.2,88.8,138.4,95.6,130.1,95.6z"/>
			<path class="st5" d="M140,95.8h-27.6c-2.9,0-5.3-2.4-5.3-5.3V64c0-2.9,2.4-5.3,5.3-5.3H140c2.9,0,5.3,2.4,5.3,5.3v26.5
				C145.3,93.4,143,95.8,140,95.8z M112.4,59.1c-2.7,0-4.9,2.2-4.9,4.9v26.5c0,2.7,2.2,4.9,4.9,4.9H140c2.7,0,4.9-2.2,4.9-4.9V64
				c0-2.7-2.2-4.9-4.9-4.9C140,59.1,112.4,59.1,112.4,59.1z"/>
		</g>
		<g>
			<path class="st8" d="M172.6,95.6H165c-8.4,0-15.1-6.8-15.1-15.1V74c0-8.4,6.8-15.1,15.1-15.1h7.6c8.4,0,15.1,6.8,15.1,15.1v6.5
				C187.7,88.8,180.9,95.6,172.6,95.6z"/>
			<path class="st5" d="M182.6,95.8H155c-2.9,0-5.3-2.4-5.3-5.3V64c0-2.9,2.4-5.3,5.3-5.3h27.6c2.9,0,5.3,2.4,5.3,5.3v26.5
				C187.9,93.4,185.5,95.8,182.6,95.8z M154.9,59.1c-2.7,0-4.9,2.2-4.9,4.9v26.5c0,2.7,2.2,4.9,4.9,4.9h27.6c2.7,0,4.9-2.2,4.9-4.9
				V64c0-2.7-2.2-4.9-4.9-4.9C182.5,59.1,154.9,59.1,154.9,59.1z"/>
		</g>
		<g>
			<g>
				<g>
					<g>
						<path class="st9" d="M178.4,51.7l-0.6-4.2c0-0.1-0.1-0.2-0.2-0.2h-1.1v-0.5h1.1c0.4,0,0.7,0.3,0.8,0.7l0.1,0.5l7.2,0.1
							l-0.7,3.3L178.4,51.7z M178.5,48.4l0.4,2.8l5.5-0.4l0.5-2.3L178.5,48.4z"/>
					</g>
				</g>
				<g>
					<g>
						<path class="st9" d="M184.9,52.7h-6.2c-0.1,0-0.3-0.1-0.4-0.2c-0.1-0.1-0.1-0.2-0.1-0.4l0.1-0.8l0.5,0.1l-0.1,0.7h6.1
							L184.9,52.7z"/>
					</g>
				</g>
				<g>
					<path class="st9" d="M179.6,54.7L179.6,54.7c-0.3,0-0.5-0.1-0.7-0.3c-0.2-0.2-0.3-0.4-0.3-0.7s0.1-0.5,0.3-0.7s0.4-0.3,0.6-0.3
						l0,0c0.5,0,0.9,0.4,0.9,0.9l0,0C180.5,54.2,180.1,54.7,179.6,54.7z M179.6,53.2c-0.1,0-0.3,0.1-0.4,0.1
						c-0.1,0.1-0.1,0.2-0.1,0.3s0.1,0.3,0.1,0.3s0.2,0.2,0.4,0.2l0,0c0.3,0,0.5-0.2,0.5-0.5C180.1,53.5,179.9,53.2,179.6,53.2
						L179.6,53.2z"/>
				</g>
				<g>
					<path class="st9" d="M183.3,54.7L183.3,54.7c-0.3,0-0.5-0.1-0.7-0.3c-0.2-0.2-0.3-0.4-0.3-0.7s0.1-0.5,0.3-0.7s0.4-0.3,0.6-0.3
						l0,0c0.5,0,0.9,0.4,0.9,0.9l0,0C184.2,54.3,183.8,54.7,183.3,54.7z M183.3,53.2c-0.1,0-0.3,0.1-0.4,0.1
						c-0.1,0.1-0.1,0.2-0.1,0.3s0.1,0.3,0.1,0.3s0.2,0.2,0.4,0.2l0,0c0.3,0,0.5-0.2,0.5-0.5S183.6,53.2,183.3,53.2L183.3,53.2z"/>
				</g>
			</g>
		</g>
		<g>
			<path class="st5" d="M145.2,98.3h-38.1c-0.1,0-0.2-0.1-0.2-0.2s0.1-0.2,0.2-0.2h38.1c0.1,0,0.2,0.1,0.2,0.2
				S145.3,98.3,145.2,98.3z"/>
		</g>
	</g>
	<g>
		<g class="st10">
			<path class="st6" d="M250.6,170H4.4c-0.9,0-1.3-1.2-0.6-1.7l36.9-29.5c0.8-0.6,1.8-1,2.8-1h168c1,0,2.1,0.4,2.8,1l36.9,29.5
				C252,168.9,251.6,170,250.6,170z"/>
		</g>
		<g>
			<g>
				<path class="st6" d="M249.7,158H5.3l37.9-30.3c0.8-0.6,1.8-0.9,2.8-0.9h163c1,0,2,0.3,2.8,0.9L249.7,158z"/>
			</g>
			<g>
				<polygon class="st5" points="225.5,155.3 29.5,155.3 57.1,129.5 197.9,129.5 				"/>
			</g>
			<g>
				<polygon class="st2" points="223.1,155.3 31.9,155.3 58.8,130.6 196.2,130.6 				"/>
			</g>
			<g>
				<path class="st5" d="M241.6,166.1H13.4c-4.5,0-8.1-3.6-8.1-8.1l0,0h244.4l0,0C249.7,162.5,246.1,166.1,241.6,166.1z"/>
			</g>
			<g>
				<rect x="5.3" y="161" class="st2" width="244.4" height="0.3"/>
			</g>
			<g>
				<path class="st11" d="M87.3,163.5H54.2c-1.2,0-2.1-1-2.1-2.1l0,0c0-1.2,1-2.1,2.1-2.1h33.1c1.2,0,2.1,1,2.1,2.1l0,0
					C89.4,162.5,88.5,163.5,87.3,163.5z"/>
			</g>
			<g>
				<path class="st6" d="M87.5,163.5H53.9c-1,0-1.9-0.9-1.9-1.9l0,0c0-1.1,0.8-1.9,1.9-1.9h33.6c1.1,0,1.9,0.9,1.9,1.9l0,0
					C89.4,162.7,88.6,163.5,87.5,163.5z"/>
			</g>
			<g>
				<g>
					<polygon class="st5" points="207.4,134.2 221.3,146.5 228.7,146.5 228.7,145.5 207.4,133.2 					"/>
				</g>
				<g>
					<polygon class="st6" points="207.4,133.2 221.3,145.5 228.7,145.5 213.3,133.2 					"/>
				</g>
			</g>
			<g>
				<ellipse class="st2" cx="37.8" cy="139.1" rx="5.8" ry="2.5"/>
			</g>
			<g>
				<path class="st9" d="M41.9,138.9c0,0.9-1.8,1.6-4.1,1.6s-4.1-0.7-4.1-1.6c0-0.9,1.8-1.6,4.1-1.6C40,137.3,41.9,138,41.9,138.9z"
					/>
			</g>
			<g>
				<path class="st2" d="M38.3,138.5c0,0.3-0.6,0.6-1.4,0.6s-1.4-0.3-1.4-0.6s0.6-0.6,1.4-0.6C37.6,138,38.3,138.2,38.3,138.5z"/>
			</g>
		</g>
	</g>
	<g>
		<g>
			<g>
				<path class="st12" d="M200.9,35.9H67.1c-3.3,0-6-2.7-6-6l0,0c0-3.3,2.7-6,6-6h133.8c3.3,0,6,2.7,6,6l0,0
					C206.9,33.3,204.2,35.9,200.9,35.9z"/>
			</g>
			<g>
				<circle class="st12" cx="39.2" cy="30" r="6"/>
			</g>
			<g>
				<circle class="st12" cx="53.2" cy="30" r="6"/>
			</g>
		</g>
	</g>
	<g>
		<polygon class="st12" points="215.2,23.7 217.1,27.9 221.8,28.5 218.4,31.7 219.3,36.2 215.2,34 211.1,36.2 212,31.7 208.6,28.5 
			213.2,27.9 		"/>
	</g>
	<g>
		<path class="st2" d="M200.9,33.9H67.1c-3.3,0-6-2.7-6-6l0,0c0-3.3,2.7-6,6-6h133.8c3.3,0,6,2.7,6,6l0,0
			C206.9,31.2,204.2,33.9,200.9,33.9z"/>
		<path class="st5" d="M202.3,34H65.7c-2.6,0-4.7-2.1-4.7-4.7v-2.9c0-2.6,2.1-4.7,4.7-4.7h136.7c2.6,0,4.7,2.1,4.7,4.7v2.9
			C207,31.9,204.9,34,202.3,34z M65.7,22.1c-2.4,0-4.4,2-4.4,4.4v2.9c0,2.4,2,4.4,4.4,4.4h136.7c2.4,0,4.4-2,4.4-4.4v-2.9
			c0-2.4-2-4.4-4.4-4.4H65.7z"/>
	</g>
	<g>
		<path class="st13" d="M102,27c0,0.9-0.5,1.1-0.9,1.1s-0.9-0.2-0.9-1.1s0.5-1.1,0.9-1.1S102,26.1,102,27z M100.7,27
			c0,0.3,0.1,0.6,0.4,0.6s0.4-0.3,0.4-0.6c0-0.3-0.1-0.6-0.4-0.6C100.7,26.4,100.7,26.7,100.7,27z M103.8,26
			C103.8,26,103.8,26.1,103.8,26l-2.4,4.4c-0.1,0.1-0.1,0.2-0.3,0.2h-0.2c-0.1,0-0.1,0-0.1-0.1v-0.1l2.4-4.3
			c0.1-0.1,0.2-0.2,0.3-0.2L103.8,26C103.8,25.9,103.8,26,103.8,26z M104.5,29.5c0,0.9-0.5,1.1-0.9,1.1s-0.9-0.2-0.9-1.1
			s0.5-1.1,0.9-1.1S104.5,28.6,104.5,29.5z M103.2,29.5c0,0.3,0.1,0.6,0.4,0.6s0.4-0.3,0.4-0.6c0-0.3-0.1-0.6-0.4-0.6
			C103.2,28.9,103.2,29.2,103.2,29.5z"/>
	</g>
	<g>
		<path class="st13" d="M90.4,31H78.7c-1.5,0-2.8-1.2-2.8-2.8l0,0c0-1.5,1.2-2.8,2.8-2.8h11.7c1.5,0,2.8,1.2,2.8,2.8l0,0
			C93.2,29.8,91.9,31,90.4,31z"/>
	</g>
	<g>
		<circle class="st2" cx="39.2" cy="27.9" r="6"/>
		<path class="st5" d="M39.2,34c-3.4,0-6.1-2.8-6.1-6.2s2.8-6.1,6.1-6.1c3.4,0,6.2,2.8,6.2,6.1C45.4,31.3,42.6,34,39.2,34z
			 M39.2,22.1c-3.2,0-5.8,2.6-5.8,5.8s2.6,5.8,5.8,5.8s5.8-2.6,5.8-5.8S42.4,22.1,39.2,22.1z"/>
	</g>
	<g>
		<circle class="st2" cx="53.2" cy="27.9" r="6"/>
		<path class="st5" d="M53.2,34c-3.4,0-6.2-2.8-6.2-6.2s2.8-6.1,6.2-6.1s6.1,2.8,6.1,6.1C59.3,31.3,56.5,34,53.2,34z M53.2,22.1
			c-3.2,0-5.8,2.6-5.8,5.8s2.6,5.8,5.8,5.8s5.8-2.6,5.8-5.8S56.4,22.1,53.2,22.1z"/>
	</g>
	<g>
		<polygon class="st3" points="215.2,21.6 217.1,25.8 221.8,26.4 218.4,29.6 219.3,34.2 215.2,31.9 211.1,34.2 212,29.6 208.6,26.4 
			213.2,25.8 		"/>
	</g>
	<g>
		<polygon class="st3" points="40,24.2 36.2,28 40,31.8 40.7,31.1 37.6,28 40.7,25 		"/>
	</g>
	<g>
		<polygon class="st3" points="52.6,31.8 56.4,28.1 52.6,24.2 51.9,25 55,28.1 51.9,31.1 		"/>
	</g>
	<g>
		<path class="st5" d="M73.4,31.3L71,29c0.3-0.5,0.5-1.1,0.5-1.7c0-1.7-1.4-3.1-3.2-3.1c-0.8,0-1.6,0.3-2.2,0.9s-0.9,1.4-0.9,2.2
			c0,1.7,1.4,3.1,3.2,3.1l0,0c0.6,0,1.2-0.2,1.7-0.5l2.4,2.4L73.4,31.3z M70.6,27.2c0,0.6-0.2,1.1-0.6,1.5s-1,0.6-1.6,0.6l0,0
			c-1.2,0-2.2-1-2.2-2.2c0-0.6,0.2-1.1,0.6-1.5s1-0.6,1.6-0.6C69.6,25.1,70.6,26,70.6,27.2z"/>
	</g>
	<g>
		<path class="st14" d="M198.8,28l-1.4,1.4c-0.2,0.2-0.2,0.4,0,0.6s0.4,0.2,0.6,0l1.4-1.4l1.4,1.4c0.2,0.2,0.4,0.2,0.6,0
			s0.2-0.4,0-0.6L200,28l1.4-1.4c0.2-0.2,0.2-0.4,0-0.6s-0.4-0.2-0.6,0l-1.4,1.4L198,26c-0.2-0.2-0.4-0.2-0.6,0s-0.2,0.4,0,0.6
			L198.8,28z M199.4,32.4c-2.4,0-4.4-2-4.4-4.4s2-4.4,4.4-4.4s4.4,2,4.4,4.4C203.7,30.5,201.8,32.4,199.4,32.4z"/>
	</g>
	<g>
		<g>
			<path class="st5" d="M48,55.7c0-4.5-3.6-8.1-8.1-8.1s-8.1,3.6-8.1,8.1l0,0c0,1.9-0.6,3.1,8.1,18.6C48.6,58.7,48,56.7,48,55.7z"/>
		</g>
		<g>
			<path class="st2" d="M39.9,59.5c-2,0-3.6-1.6-3.6-3.6s1.6-3.6,3.6-3.6s3.6,1.6,3.6,3.6S41.9,59.5,39.9,59.5z"/>
		</g>
	</g>
	<g>
		<g>
			<g>
				<path class="st7" d="M219.5,79.3c3.7-5.4,7.6-4.2,9-1.9s0.4,5.6-2.6,8.4c-2.1,2.1-6.3,3.6-9.7,4.4c-2.4-2.6-5.1-6.1-5.6-9.1
					c-0.9-3.9,0.1-7.3,2.6-8.4C215.5,71.6,219.4,72.8,219.5,79.3z"/>
			</g>
		</g>
		<g>
			<g>
				<path class="st15" d="M228.5,77.4c-1.2-1.9-4.2-3.1-7.4,0c2.7-2.1,6.6-2.2,6.9,1.7c0.4,4.1-2.9,6.9-6.7,6.2
					c-4.9-0.9-3.7-5.1-6.1-7.1c-1.8-1.6-4,0.8-4.1,2.7c0,0.9,0.1,1.7,0.2,2.6c1.1,2.4,3.1,4.9,4.9,6.8c3.4-0.8,7.6-2.3,9.7-4.4
					C228.9,83,229.9,79.6,228.5,77.4z"/>
			</g>
		</g>
	</g>
	<g>
		<path class="st13" d="M94.9,25.9h3.3l0,0c-0.2,0.3-0.3,0.5-0.3,0.5H97c0.1,0.1,0.2,0.3,0.3,0.5h0.9l0,0c-0.2,0.3-0.3,0.5-0.3,0.5
			h-0.6c0,0.2-0.1,0.4-0.2,0.6c-0.2,0.2-0.4,0.4-0.5,0.4c-0.3,0.2-0.6,0.2-0.9,0.2l0,0c0,0,0.1,0.1,0.2,0.3l1.6,2V31l0,0h-0.7
			c-1.3-1.5-1.9-2.3-1.9-2.3v-0.5l0,0c0.1,0,0.3,0,0.4,0c0.7,0,1.2-0.2,1.3-0.7c0-0.1,0-0.1,0-0.2h-2l0,0c0.2-0.3,0.3-0.5,0.3-0.5
			h1.6l0,0c-0.1-0.2-0.3-0.3-0.5-0.4s-0.3-0.1-0.5-0.1h-0.9l0,0C94.8,26.1,94.9,25.9,94.9,25.9z"/>
	</g>
	<g>
		<path class="st5" d="M75.8,74.6c0-0.4-0.2-0.7-0.5-0.9s-0.7-0.3-1.3-0.3c-0.4,0-0.7,0.1-0.9,0.1c-0.3,0.1-0.4,0.2-0.6,0.4
			c-0.1,0.2-0.2,0.4-0.2,0.6c0,0.2,0,0.4,0.1,0.5s0.2,0.3,0.4,0.4c0.2,0.1,0.3,0.2,0.5,0.3s0.4,0.1,0.6,0.2l0.9,0.2
			c0.4,0.1,0.9,0.2,1.2,0.4c0.4,0.2,0.7,0.4,1,0.6c0.3,0.3,0.5,0.5,0.6,0.9s0.2,0.7,0.2,1.1c0,0.6-0.2,1.2-0.5,1.6
			c-0.3,0.5-0.8,0.8-1.4,1.1s-1.3,0.4-2.2,0.4c-0.8,0-1.6-0.1-2.2-0.4c-0.6-0.3-1.1-0.6-1.4-1.1s-0.5-1.1-0.5-1.9H72
			c0,0.4,0.1,0.6,0.3,0.9s0.4,0.4,0.7,0.5c0.3,0.1,0.6,0.2,1,0.2s0.7-0.1,1-0.2s0.5-0.3,0.6-0.4s0.2-0.4,0.2-0.7
			c0-0.2-0.1-0.4-0.2-0.6c-0.1-0.2-0.3-0.3-0.6-0.4s-0.6-0.2-1-0.3l-1.1-0.3c-0.9-0.2-1.6-0.5-2.1-1c-0.5-0.4-0.8-1.1-0.8-1.8
			c0-0.6,0.2-1.2,0.5-1.6s0.8-0.8,1.4-1.1s1.3-0.4,2-0.4c0.8,0,1.4,0.1,2,0.4s1,0.6,1.3,1.1s0.5,1,0.5,1.6L75.8,74.6L75.8,74.6z"/>
		<path class="st5" d="M81.1,82h-2.3l3.6-10.4h2.8L88.8,82h-2.3l-2.6-8h-0.1L81.1,82z M80.9,77.9h5.5v1.7h-5.5V77.9z"/>
		<path class="st5" d="M88.3,73.4v-1.8h8.5v1.8h-3.2V82h-2.2v-8.6H88.3z"/>
	</g>
	<g>
		<path class="st5" d="M118.2,82h-2.3l3.6-10.4h2.8l3.6,10.4h-2.3l-2.6-8h-0.1L118.2,82z M118,77.9h5.5v1.7H118V77.9z"/>
		<path class="st5" d="M127,82V71.6h4.1c0.8,0,1.4,0.1,2,0.4c0.6,0.3,1,0.7,1.3,1.2s0.4,1.1,0.4,1.8s-0.1,1.3-0.4,1.8
			c-0.3,0.5-0.7,0.9-1.3,1.2s-1.2,0.4-2,0.4h-2.6v-1.5h2.3c0.4,0,0.8-0.1,1-0.2s0.5-0.4,0.6-0.6s0.2-0.6,0.2-0.9s-0.1-0.6-0.2-0.9
			c-0.1-0.3-0.3-0.5-0.6-0.6s-0.6-0.2-1.1-0.2h-1.5v8.6L127,82L127,82z"/>
	</g>
	<g>
		<path class="st5" d="M162,75c-0.1-0.3-0.2-0.5-0.3-0.6c-0.1-0.2-0.3-0.4-0.5-0.5s-0.4-0.2-0.6-0.3c-0.2-0.1-0.5-0.1-0.8-0.1
			c-0.5,0-1,0.1-1.4,0.4s-0.7,0.6-0.9,1.1s-0.3,1.1-0.3,1.8s0.1,1.3,0.3,1.8s0.5,0.9,0.9,1.2s0.9,0.4,1.4,0.4s0.9-0.1,1.3-0.3
			c0.4-0.2,0.6-0.4,0.8-0.8s0.3-0.7,0.3-1.1l0.4,0.1H160v-1.6h4.3v1.3c0,0.9-0.2,1.7-0.6,2.3c-0.4,0.6-0.9,1.1-1.6,1.5
			c-0.7,0.4-1.4,0.5-2.3,0.5c-1,0-1.8-0.2-2.6-0.6c-0.7-0.4-1.3-1-1.7-1.8s-0.6-1.7-0.6-2.8c0-0.8,0.1-1.6,0.4-2.3
			c0.2-0.7,0.6-1.2,1-1.7s1-0.8,1.5-1.1c0.6-0.2,1.2-0.4,1.9-0.4c0.6,0,1.1,0.1,1.6,0.3s0.9,0.4,1.4,0.7c0.4,0.3,0.7,0.7,1,1.1
			c0.3,0.4,0.4,0.9,0.5,1.4L162,75L162,75z"/>
		<path class="st5" d="M165.9,82V71.6h4.1c0.8,0,1.4,0.1,2,0.4s1,0.7,1.3,1.2s0.4,1.1,0.4,1.8s-0.1,1.3-0.4,1.8s-0.7,0.9-1.3,1.1
			c-0.6,0.3-1.2,0.4-2,0.4h-2.7v-1.8h2.4c0.4,0,0.8-0.1,1-0.2s0.5-0.3,0.6-0.5s0.2-0.5,0.2-0.9c0-0.3-0.1-0.6-0.2-0.9
			c-0.1-0.2-0.3-0.4-0.6-0.5s-0.6-0.2-1.1-0.2h-1.5v8.6L165.9,82L165.9,82z M171.5,77.3l2.6,4.7h-2.4l-2.5-4.7H171.5z"/>
		<path class="st5" d="M175.3,82V71.6h7v1.8h-4.8v2.5h4.4v1.8h-4.4v2.5h4.8V82L175.3,82L175.3,82z"/>
	</g>
	<g>
		<g>
			<ellipse class="st16" cx="54.5" cy="148.1" rx="19.7" ry="1.6"/>
		</g>
		<g>
			<g>
				<g>
					<g>
						<g>
							<g>
								<path class="st17" d="M46.5,142.8c0,0,0.4-0.9,2-0.7c1.5,0.2,1.7,0.5,1.9,1.3s0.7,1.6,1.1,1.8s1.7,1.1,2.8,1.3
									s1.2,0.8,1,1.1s-4.3,0.5-5.2,0.4c0,0-3-0.1-3.8-0.3S46.5,143,46.5,142.8z"/>
							</g>
						</g>
						<g>
							<g>
								<path class="st18" d="M44.8,121.8c0,0-0.5-2.5,2.2-3.3s3.1,0.4,3.9,2.6c0.8,2.3-0.7,21.5-0.7,21.5s-3,0.5-3.8,0.1
									c0,0-2.3-12.5-2.1-16C44.4,123.2,44.8,121.8,44.8,121.8z"/>
							</g>
						</g>
						<g>
							<g>
								<path class="st19" d="M46.1,141.9c0,0,3.4-0.3,4.5-0.5l-0.1,1.6c0,0-2.7,0.5-4.4,0.2V141.9z"/>
							</g>
						</g>
					</g>
					<g>
						<g>
							<path class="st20" d="M45.3,73.5c0,0-2.2,0.1-3.5,5s-2.2,10.9-1.7,12.4c0.5,1.6,5.6,5.7,7.5,5.7s2-1.4,1.7-2.6
								c-0.4-1.2-4.1-4.4-4.1-4.4s3-9.6,2.9-12.1C48,75,46.6,73.5,45.3,73.5z"/>
						</g>
					</g>
					<g>
						<g>
							<g>
								<path class="st21" d="M72.2,72h-0.4l0.8-1.6c0,0,2-0.1,2.4,0.7l-0.9,2.1L72.2,72z"/>
							</g>
						</g>
						<g>
							<g>
								<g>
									<path class="st22" d="M73.3,67.5c0,0-0.1-1.6,0.5-1.9c0.6-0.2,1.2,0.2,1.2,0.2s0.9-0.1,1.2,0.3c0.3,0.4,0.3,1,0.3,1
										s0.5,0.1,0.7,0.6c0.1,0.5-0.1,1.5-0.1,1.5s-0.6,0.8-1.3,0.6S73.3,67.5,73.3,67.5z"/>
								</g>
							</g>
							<g>
								<g>
									<path class="st22" d="M72.3,68.8c0,0-0.2-2.1,0-2.4s2.6-3.5,2.6-3.5s0.5,0.6,0.2,1.2s-1.4,2.5-1.4,2.5v1.6
										C73.6,68.3,72.9,68.8,72.3,68.8z"/>
								</g>
							</g>
							<g>
								<g>
									<path class="st21" d="M72.4,70.5c0,0-0.6-3.4-0.2-3.9s2.2-0.2,2.6-0.1s1.3,1.4,1.5,1.9c0.1,0.5-0.8,2.3-1.3,2.7
										C74.4,71.6,72.7,71.2,72.4,70.5z"/>
								</g>
							</g>
						</g>
					</g>
					<g>
						<g>
							<path class="st23" d="M71.1,72.8l0.7-1.3c0,0,1.7-0.3,2.5,1c0.2,0.5,0.1,0.5,0.1,0.5l-0.5,1.1L71.1,72.8z"/>
						</g>
					</g>
					<g>
						<g>
							<path class="st21" d="M54.1,58.4c0,0,1.8,0.4,2.8,3.2s0.3,8.5-0.3,9.2c-0.7,0.7-2.7,0.4-5.5-0.5c-3-1-4-4.1-4.5-6.1
								C45.5,60.2,48.9,56.2,54.1,58.4z"/>
						</g>
					</g>
					<g>
						<g>
							<path class="st21" d="M47.8,73.3l1.4-5.1c0,0,2.9-0.8,4.7,1.1l0.6,0.8v3.3C54.4,73.5,51.5,74.1,47.8,73.3z"/>
						</g>
					</g>
					<g>
						<g>
							<path class="st18" d="M43.8,101c0,0-1.1,6.3,0,13.4s3.2,7.9,5.2,7.9s2.5-5.7,2.9-8.2S53.7,103,51,101
								C48.2,99,45.2,98.8,43.8,101z"/>
						</g>
					</g>
					<g>
						<g>
							<path class="st18" d="M51.3,109.4c0,0-2.2-5.7,1.6-8.2s6.6-2.1,7.5,2s1.1,18.3-0.2,21.1C59,127.2,54.5,122.7,51.3,109.4z"/>
						</g>
					</g>
					<g>
						<g>
							<path class="st24" d="M57.5,58.6c0,0,0.8,1.1,0.3,2.4s-2.4,1.8-2.4,1.8s0.6,0.8,0,2L55,65.5c0,0,0.6,1.4,0.4,1.7
								c-0.2,0.3-0.8,0.3-0.8,0.3s-0.7-1.9-0.9-1.7s-0.9,1-0.9,1.8s0.3,1.4,0.1,1.9S50.1,70,49,69.8c-1.1-0.2-2.8-3.6-3.2-5.1
								c0,0-0.6-2.1,0.3-3.9c0,0-0.2-1.5,1.3-3.1c1.4-1.5,6-1,6.8-0.4c0,0-0.1-0.8,0.8-0.7C55.8,56.8,57,57.5,57.5,58.6z"/>
						</g>
					</g>
					<g>
						<g>
							<path class="st22" d="M55,66.3c0,0-0.3-1.1-1.2-0.6s0.2,3.1,0.9,3C55.5,68.5,55.2,66.8,55,66.3z"/>
						</g>
					</g>
					<g>
						<g>
							<path class="st23" d="M47,73.3c0,0,0.4-1.4,0.8-1.5c0.4-0.1,4.8-0.6,7.2,0.8c1.1,0.8,1,1.4,1,1.4S48.8,72.7,47,73.3z"/>
						</g>
					</g>
					<g>
						<g>
							<path class="st20" d="M46.1,73c0,0,7.4-0.5,12.7,1.8c2.4,1.2,7.9,6.6,7.9,6.6l4.3-9c0,0,2.4-0.9,3.4,1.4c0,0-2.7,10.6-5,13.9
								C68,88.9,61.1,85,61.1,85s1.1,13.9,0.7,20.1c-0.5,1.2-9.8,1.8-11.5,1.7s-7.5-2-7.6-2.4s0.8-14.7,0.6-16.4s-1-9.9-0.7-11.1
								C42.7,75.7,43.8,73.5,46.1,73z"/>
						</g>
					</g>
					<g>
						<g>
							<g>
								<path class="st25" d="M54,143.1c0,0,0.4-0.9,2-0.7c1.5,0.2,1.7,0.5,1.9,1.3s0.7,1.6,1.1,1.8s1.7,1.1,2.8,1.3s1.2,0.8,1,1.1
									s-4.3,0.5-5.2,0.4c0,0-3-0.1-3.8-0.3C53,147.8,53.9,143.4,54,143.1z"/>
							</g>
						</g>
						<g>
							<g>
								<path class="st18" d="M54.7,122.2c0,0-0.2-2.5,2.5-3.1c2.7-0.5,3,0.7,3.6,3.1c0.5,2.3-3,21.3-3,21.3s-3,0.2-3.8-0.4
									c0,0-0.9-12.7-0.4-16.1C54.1,123.6,54.7,122.2,54.7,122.2z"/>
							</g>
						</g>
						<g>
							<g>
								<path class="st19" d="M53.7,143.4c0,0,2.3,0.7,4.3,0.3l0.2-1.4l-4.5-0.3V143.4z"/>
							</g>
						</g>
					</g>
					<g>
						<g>
							<path class="st26" d="M54.8,120.2c-1.9-3.9-4.4-11.9-4.4-12l0.3-0.1c0,0.1,2.5,8.1,4.4,12L54.8,120.2z"/>
						</g>
					</g>
					<g>
						<g>
							<path class="st26" d="M55.8,121.8l-0.2-0.3c0.1,0,1.6-0.9,3.2,0l-0.2,0.3C57.2,121,55.8,121.8,55.8,121.8z"/>
						</g>
					</g>
					<g>
						<g>
							<path class="st26" d="M58.7,123.6c-2-1.4-3.2-0.8-3.2-0.8l-0.2-0.3c0.1,0,1.4-0.8,3.6,0.8L58.7,123.6z"/>
						</g>
					</g>
					<g>
						<g>
							<path class="st26" d="M49.2,120.9c-2.1-0.9-3-0.1-3-0.1l-0.2-0.3c0,0,1.1-1,3.4,0.1L49.2,120.9z"/>
						</g>
					</g>
					<g>
						<g>
							<path class="st26" d="M49.4,122c-1.2-1-2.5-0.4-2.6-0.3l-0.2-0.3c0.1,0,1.5-0.8,3,0.4L49.4,122z"/>
						</g>
					</g>
					<g>
						<g>
							
								<rect x="40.6" y="131.9" transform="matrix(2.859948e-02 -0.9996 0.9996 2.859948e-02 -83.7298 178.02)" class="st26" width="18.3" height="0.4"/>
						</g>
					</g>
					<g>
						<g>
							<path class="st26" d="M58.8,108.2c-0.7,0-1.4-0.4-1.4-0.4l0.2-0.3c0,0,0.9,0.5,1.7,0.3c0.4-0.1,0.7-0.4,0.9-0.9l0.3,0.1
								c-0.3,0.6-0.6,0.9-1.1,1.1C59.1,108.2,59,108.2,58.8,108.2z"/>
						</g>
					</g>
					<g>
						<g>
							<path class="st26" d="M60.3,120.2H60c0.2-4.8-0.7-12.2-0.7-12.3h0.3C59.6,107.9,60.6,115.3,60.3,120.2z"/>
						</g>
					</g>
					<g>
						<g>
							
								<rect x="42.8" y="80" transform="matrix(0.9957 -9.260064e-02 9.260064e-02 0.9957 -7.6983 4.3395)" class="st27" width="0.3" height="10.3"/>
						</g>
					</g>
					<g>
						<g>
							<path class="st27" d="M68.3,88c-3.6,0-9.3-4.1-9.5-4.3l0.2-0.3c0.1,0.1,7,5.1,10.2,4.1l0.1,0.3C69,88,68.7,88,68.3,88z"/>
						</g>
					</g>
					<g>
						<g>
							<path class="st27" d="M68.8,85.1h-0.3c0.1-1.8-1.2-2.5-1.3-2.5l0.2-0.3C67.5,82.3,68.9,83.1,68.8,85.1z"/>
						</g>
					</g>
					<g>
						<g>
							<path class="st27" d="M69.2,82.8c-0.8-1.4-2.2-1-2.2-1l-0.1-0.3c0,0,1.7-0.5,2.6,1.1L69.2,82.8z"/>
						</g>
					</g>
					<g>
						<g>
							<path class="st27" d="M57.2,82.1c-0.8-1.6-1.1-3-0.7-4.3c0.5-1.7,2-2.5,2-2.5l0.2,0.3c0,0-1.4,0.8-1.9,2.3
								c-0.3,1.2-0.1,2.5,0.7,4L57.2,82.1z"/>
						</g>
					</g>
					<g>
						<g>
							<path class="st28" d="M55.6,71.1c-1.8,0-2.4-1.5-2.4-1.5l0.3-0.1c0,0.1,0.6,1.5,2.5,1.2V71C55.9,71,55.7,71.1,55.6,71.1z"/>
						</g>
					</g>
					<g>
						<g>
							<path class="st28" d="M73.7,66.3L73.5,66l0.8-0.7h0.1l0,0c0,0,0.6,0,0.9,0.4L75,65.9c-0.2-0.2-0.4-0.2-0.6-0.3L73.7,66.3z"/>
						</g>
					</g>
					<g>
						<g>
							<path class="st28" d="M76.6,67.2l-0.3-0.1l0,0c0,0,0.1-0.2,0-0.6c-0.1-0.3-0.6-0.5-0.9-0.6c-0.4,0.2-0.8,0.5-0.9,0.5
								l-0.1-0.1h-0.2c0-0.1,0-0.1,1.1-0.7h0.1h0.1c0.1,0,1,0.3,1.2,0.8C76.8,66.9,76.7,67.2,76.6,67.2z"/>
						</g>
					</g>
					<g>
						<g>
							<path class="st28" d="M75.9,70L75.9,70v-0.4l0,0c0.6,0,0.9-0.4,1-0.5c0-0.1,0.2-0.6,0.2-1.1c0-0.4-0.2-0.6-0.3-0.7
								c-0.5,0-1.1-0.1-1.2-0.1v-0.1l-0.1-0.2c0,0,0.1,0,1.3,0.1h0.1l0,0c0,0,0.5,0.4,0.5,1s-0.2,1.2-0.2,1.2l0,0
								C77.2,69.4,76.7,70,75.9,70z"/>
						</g>
					</g>
					<g>
						<g>
							<path class="st28" d="M75.1,71.3L74.9,71c0.6-0.4,0.9-1.2,1.1-1.7c0.1-0.1,0.1-0.3,0.1-0.4c0.2-0.3,0.1-0.5,0.1-0.5l0.3-0.2
								c0,0,0.2,0.3,0,0.8c0,0.1-0.1,0.2-0.1,0.3C76.1,70,75.8,70.9,75.1,71.3z"/>
						</g>
					</g>
				</g>
			</g>
		</g>
	</g>
	<g>
		<ellipse class="st16" cx="200.8" cy="145.2" rx="20.3" ry="1.7"/>
	</g>
	<g>
		<g>
			<path class="st29" d="M201.6,54.6c0,0-0.5,1-0.8,3.3s0.5,15.4,0.5,15.4l8.9-0.9l-4-17.1L201.6,54.6z"/>
			<path class="st24" d="M201.1,73.4v-0.2c0-0.5-0.8-13.1-0.5-15.4s0.8-3.3,0.8-3.3l0.1-0.1l4.8,0.7v0.1l4.1,17.3L201.1,73.4z
				 M201.7,54.7c-0.1,0.3-0.5,1.3-0.8,3.1c-0.3,2.1,0.4,13.6,0.5,15.2l8.5-0.9L206,55.3L201.7,54.7z"/>
		</g>
		<g>
			<g>
				<g>
					<g>
						<path class="st5" d="M196.4,109.9l-3.1,15.3l6,0.1c0,0,1.6-13.6,0.9-13.6C199.6,111.8,196.4,109.9,196.4,109.9z"/>
					</g>
				</g>
			</g>
			<g>
				<g>
					<g>
						<g>
							<path class="st30" d="M210.4,143c0,0-2.3,2.4-3.2,2.9c0.2,0.4,3.5,0.4,4.7-0.2c1.2-0.6,2.2-2.1,2.2-2.1l-0.1,1.6h0.6
								c0,0,0.6-2.2,0.6-2.7s-0.6-1.2-0.6-1.2L210.4,143z"/>
						</g>
					</g>
				</g>
				<g>
					<g>
						<g>
							<path class="st21" d="M209.4,112.4l2.3,27.9l2.7-0.2c0,0,3.1-20.4,1.9-27.4C215,105.6,209.4,112.4,209.4,112.4z"/>
						</g>
					</g>
				</g>
				<g>
					<g>
						<g>
							<path class="st21" d="M211.7,140.3c0,0-0.8,2.2-2,3.2s1.8,1,3,0s1.3-1.6,1.8-1.9s-0.1-1.6-0.1-1.6L211.7,140.3z"/>
						</g>
					</g>
				</g>
			</g>
			<g>
				<g>
					<g>
						<g>
							<path class="st30" d="M191.8,142.5c0,0-2.6,2-3.6,2.3c0.1,0.4,3.4,1,4.7,0.6s2.5-1.7,2.5-1.7l-0.4,1.5l0.6,0.1
								c0,0,1-2,1.1-2.5s-0.4-1.3-0.4-1.3L191.8,142.5z"/>
						</g>
					</g>
				</g>
				<g>
					<g>
						<g>
							<path class="st21" d="M196,112.2l-2.5,27.8l2.7,0.3c0,0,6.5-19.6,6.4-26.7C202.6,106.5,196,112.2,196,112.2z"/>
						</g>
					</g>
				</g>
				<g>
					<g>
						<g>
							<path class="st21" d="M193.5,140.1c0,0-1.2,2-2.5,2.8s1.6,1.3,2.9,0.5c1.4-0.8,1.6-1.4,2-1.5s0.2-1.5,0.2-1.5L193.5,140.1z"
								/>
						</g>
					</g>
				</g>
			</g>
			<g>
				<g>
					<g>
						<g>
							<path class="st22" d="M186.5,68l-5.3-1.1c0,0-0.1,0.7,0.4,0.9s0.5,0.2,0.5,0.2s1.2,2.9,1.8,3.2s4,1.7,4,1.7l0.9-3.4L186.5,68
								z"/>
						</g>
					</g>
				</g>
				<g>
					<g>
						<g>
							<path class="st21" d="M190.3,72.3c0,0-0.1-0.4-0.8-1.8c-0.8-1.6-1-2.3-1-2.3s-2.5-1-2.9-1.4c-0.4-0.5-0.6-0.6-0.6-0.6
								s-0.5,0.9,0.2,1.5s1.4,1.1,1.4,1.1s-0.1,1.9,0.2,2.8s1,1.3,1,1.3L190.3,72.3z"/>
						</g>
					</g>
				</g>
				<g>
					<g>
						<g>
							<path class="st21" d="M198.6,75.3c0,0-3.6,5.8-3.7,5.3s-4.6-8.5-4.6-8.5l-2.5,0.9c0,0,3.7,11.6,6.1,13.5c0,0,0.2,0.3,0.9,0.2
								s6.3-5.9,6.3-5.9L198.6,75.3z"/>
						</g>
					</g>
				</g>
			</g>
			<g>
				<g>
					<g>
						<path class="st31" d="M202,68.4c0,0-1.9,0.8-2.9,2.1c-0.9,1.3-3.6,7.4-3.6,7.4s1.4,2.6,4.7,3.5l4.5-8.4L202,68.4z"/>
					</g>
				</g>
			</g>
			<g>
				<g>
					<g>
						<path class="st18" d="M199.6,88.2c0,0,0.1,2.5,0.1,3.4c0,0-3.7,17.9-3.9,22.1c-0.1,4.2,2.9,12.7,2.9,12.7s13.3-0.3,17.6-1.2
							l0.5-9c0,0,0.6-15.6,0-20.1s-3.3-6.8-3.3-6.8l-0.8-2.2L199.6,88.2z"/>
					</g>
				</g>
			</g>
			<g>
				<g>
					<g>
						<path class="st31" d="M211,67.4c0,0,3.5,1.6,4.6,3.3s4.3,10.9,4.3,10.9s-3.6,1.3-6.8,1.3c0,0,0.3,2.9,0.6,3.9
							s-0.8,1.3-0.8,1.3s-7.6,2.1-13.2,0.9c0,0-0.7-0.1-0.7-0.5s0.1-1.1,0.1-1.1s-0.5-5.3-0.7-6.2c-0.1-0.9-1.9-3.4-1.7-4.5
							c0.1-1,2.8-5.7,2.8-5.7s1.8-2.1,2.6-2.6s2.7-0.5,2.7-0.5L211,67.4z"/>
					</g>
				</g>
			</g>
			<g>
				<g>
					<g>
						<path class="st21" d="M204.4,64.6c0,0.1,0.4,2.8-1,4.6c-1.4,1.9,4.3,1.8,5.6-0.1c1.2-1.7,1.1-2,1.1-2s-1-3.2-0.7-5.2
							C209.3,60,204.3,61.1,204.4,64.6z"/>
					</g>
				</g>
			</g>
			<g>
				<g>
					<g>
						<path class="st21" d="M204.3,53.6c0,0-1.7,0.4-2.6,3s-0.3,8,0.3,8.7c0.6,0.6,2.6,0.4,5.2-0.5c2.8-0.9,3.8-3.8,4.3-5.8
							C212.5,55.3,209.3,51.5,204.3,53.6z"/>
					</g>
				</g>
			</g>
			<g>
				<g>
					<g>
						<path class="st29" d="M201.1,56.5c0,0,1.6,3.7,7.4,3.9l1.4,6.6c0,0,2.5,1.2,3.5,1.7c0,0,1.1-11.9-1.6-14.8
							c-2.7-2.9-7.4-2.2-9.3-0.5C200.7,55.1,201.1,56.5,201.1,56.5z"/>
					</g>
				</g>
				<g>
					<g>
						<path class="st24" d="M213.5,69l-0.2-0.1c-1-0.5-3.4-1.7-3.5-1.7h-0.1l-1.4-6.5c-5.8-0.3-7.4-4-7.4-4l0,0
							c0-0.1-0.4-1.6,1.5-3.3c2-1.8,6.8-2.4,9.5,0.5s1.6,14.4,1.6,14.9L213.5,69z M210,66.9c0.4,0.2,2.2,1.1,3.2,1.6
							c0.1-1.7,0.9-11.8-1.5-14.4c-2.5-2.7-7.1-2.2-9.1-0.5c-1.7,1.5-1.4,2.8-1.4,2.9c0.1,0.2,1.7,3.6,7.3,3.8h0.1L210,66.9z"/>
					</g>
				</g>
			</g>
			<g>
				<g>
					<g>
						<path class="st2" d="M211,67.4l-1.3-1.2c0,0-1.2,3.3-5.3,3.6c0,0-0.5-0.9-0.2-2.1l-0.7,0.5c0,0-1.5,2.1-1.3,2.7
							c0.1,0.6,2.1-0.5,2.1-0.5s2.3,1.4,3.3,1.5C208.4,71.9,210.8,67.6,211,67.4z"/>
					</g>
				</g>
			</g>
			<g>
				<g>
					<g>
						<path class="st22" d="M208.6,60.3c0,0,0.6-1,1.2-0.7c0.6,0.4-0.4,2.7-1.2,2.8C207.8,62.5,208.2,60.9,208.6,60.3z"/>
					</g>
				</g>
			</g>
		</g>
		<g>
			<path class="st31" d="M199.2,71.6c0,0-2.5,4.1-2.5,5.1s1.6,3.8,1.6,3.8l2,5.3"/>
		</g>
		<g>
			<g>
				<path class="st28" d="M184.9,70c-0.5-0.2-2.3-0.8-2.5-1s-0.5-0.9-0.5-1l-0.1-0.3l3.5,1l-0.1,0.3l-2.8-0.8
					c0.1,0.2,0.2,0.4,0.3,0.5s1.3,0.6,2.4,0.9L184.9,70z"/>
			</g>
			<g>
				<path class="st28" d="M185.1,70.9c-0.8-0.2-2-0.6-2.2-0.8s-0.4-0.9-0.5-1.1l0.3-0.1c0.1,0.4,0.4,0.9,0.4,1
					c0.1,0.1,1.1,0.4,2,0.7V70.9z"/>
			</g>
			<g>
				<polygon class="st28" points="186.6,69.1 185.6,68.3 185.8,68 186.7,68.7 187.3,68.5 187.4,68.9 				"/>
			</g>
		</g>
	</g>
	<g>
		<g>
			<path class="st28" d="M204.7,65.6l-0.1-0.3c0,0,1.9-0.4,2.9-2.2l0.3,0.2C206.8,65.2,204.8,65.6,204.7,65.6z"/>
		</g>
		<g>
			<polygon class="st28" points="203.3,63.2 202.4,63 202.8,60.9 203.2,60.9 202.8,62.7 203.4,62.9 			"/>
		</g>
		<g>
			<path class="st28" d="M203.4,64.1c-0.3,0-0.5,0-0.5,0l0.1-0.3c0,0,0.9,0.2,1.9-0.3l0.2,0.3C204.4,64,203.8,64.1,203.4,64.1z"/>
		</g>
		<g>
			<path class="st32" d="M206.6,61.9c0,0.5-0.4,0.9-0.9,0.9s-0.9-0.4-0.9-0.9s0.4-0.9,0.9-0.9C206.1,61,206.6,61.4,206.6,61.9z"/>
		</g>
		<g>
			<path class="st29" d="M204.7,60.6c0,0.1-0.1,0.2-0.2,0.2c-0.1,0-0.2-0.1-0.2-0.2s0.1-0.2,0.2-0.2
				C204.6,60.4,204.7,60.5,204.7,60.6z"/>
		</g>
		<g>
			<path class="st29" d="M202.2,60.6c0,0.1-0.1,0.2-0.2,0.2c-0.1,0-0.2-0.1-0.2-0.2s0.1-0.2,0.2-0.2
				C202.1,60.4,202.2,60.5,202.2,60.6z"/>
		</g>
	</g>
	<g>
		<path class="st31" d="M204.3,91.8c-2.1,0-3.7-0.5-3.8-0.5l0.1-0.4c0,0,4.2,1.3,8.1-0.4l0.1,0.4C207.3,91.6,205.7,91.8,204.3,91.8z
			"/>
	</g>
	<g>
		<path class="st31" d="M203.4,93c-1.1,0-1.6-0.2-1.7-0.2l0.1-0.4c0,0,2.1,0.7,5.5-0.6l0.1,0.4C205.8,92.8,204.4,93,203.4,93z"/>
	</g>
	<g>
		<rect x="195.1" y="93" transform="matrix(0.866 -0.5 0.5 0.866 -22.8499 113.2198)" class="st2" width="9.4" height="12.5"/>
	</g>
	<g>
		<g>
			<g>
				<path class="st21" d="M208.6,95.7c0,0-1.3,1.4-1.7,1.7s-3,0.5-3,0.5s-1.2,1.9-1.5,1.9c-0.3-0.1-0.2-0.3-0.2-0.3
					s-0.1-3.5,0.1-3.9s4-1.5,4-1.5l0.5-0.5L208.6,95.7"/>
			</g>
			<g>
				<path class="st21" d="M218.7,82c0.1,0.3,0.9,2.7,1.3,4s-8.9,7.7-10.3,8.9l-1.1,0.9l-1.8-2.1l8.1-8.1l-1.2-2.7L218.7,82z"/>
			</g>
		</g>
		<g>
			<g>
				
					<rect x="201.6" y="98.6" transform="matrix(0.221 -0.9753 0.9753 0.221 61.6062 274.6494)" class="st28" width="2.2" height="0.4"/>
			</g>
			<g>
				
					<rect x="201.7" y="97" transform="matrix(0.4165 -0.9091 0.9091 0.4165 29.7435 240.7324)" class="st28" width="1.4" height="0.3"/>
			</g>
			<g>
				<polygon class="st28" points="202.9,100 202,100 202.2,95.7 202.6,95.7 202.4,99.7 202.8,99.7 203.8,97.9 204.1,98.1 				"/>
			</g>
		</g>
	</g>
	<g>
		<path class="st33" d="M164.1,35.2l-36.8-9.1l0,0l-4.7-1.2c-1.8-0.4-3.6,0.7-4.1,2.5l-3.7,14.9l0,0l-0.2,0.8l-1.7,6.8
			c-0.4,1.8,0.7,3.6,2.5,4.1l40.8,10.1c1.8,0.4,3.6-0.7,4.1-2.5l0.5-2l0,0l1.4-5.7l0,0l2-8.3l0,0l1.8-7.3
			C166.4,37,165.6,35.6,164.1,35.2z"/>
		<g>
			<path class="st34" d="M153.3,62.2l-36.1-8.9c-3.1-0.8-5-3.9-4.3-7.1l4.4-17.7c0.8-3.1,3.9-5,7.1-4.3l36.1,8.9
				c3.1,0.8,5,3.9,4.3,7.1l-4.4,17.7C159.5,61,156.4,63,153.3,62.2z"/>
			<path class="st35" d="M120.7,31.8c-1.4,3.7-0.9,8.8,2.8,10.7c13.3,7.9,27.4,7.2,40.2,2l1.8-7.3c0.4-1.4-0.5-2.9-2-3.3l-36.8-9.1
				C123.9,26.4,121.9,29.1,120.7,31.8z"/>
			
				<rect x="134.3" y="25.3" transform="matrix(0.239 -0.971 0.971 0.239 56.2058 171.0269)" class="st9" width="5.8" height="48.8"/>
			<path class="st9" d="M134.7,33.2l-14.1-3.5c-0.8-0.2-1.3-1-1.1-1.8l0,0c0.2-0.8,1-1.3,1.8-1.1l14.1,3.5c0.8,0.2,1.3,1,1.1,1.8
				l0,0C136.2,32.9,135.4,33.3,134.7,33.2z"/>
			<path class="st9" d="M147.3,39.2l-28.1-6.9c-0.4-0.1-0.6-0.5-0.5-0.9l0,0c0.1-0.4,0.5-0.6,0.9-0.5l28.1,6.9
				c0.4,0.1,0.6,0.5,0.5,0.9l0,0C148.1,39.1,147.7,39.3,147.3,39.2z"/>
			<g>
				<path class="st2" d="M141.5,44.6l-0.8-0.2c-0.6-0.1-0.9-0.7-0.8-1.2l0,0c0.1-0.6,0.7-0.9,1.2-0.8l0.8,0.2
					c0.6,0.1,0.9,0.7,0.8,1.2l0,0C142.6,44.4,142,44.7,141.5,44.6z"/>
				<path class="st2" d="M145,45.5l-0.8-0.2c-0.6-0.1-0.9-0.7-0.8-1.2l0,0c0.1-0.6,0.7-0.9,1.2-0.8l0.8,0.2c0.6,0.1,0.9,0.7,0.8,1.2
					l0,0C146.1,45.3,145.6,45.6,145,45.5z"/>
				<path class="st2" d="M148.5,46.3l-0.8-0.2c-0.6-0.1-0.9-0.7-0.8-1.2l0,0c0.1-0.6,0.7-0.9,1.2-0.8l0.8,0.2
					c0.6,0.1,0.9,0.7,0.8,1.2l0,0C149.6,46.2,149.1,46.5,148.5,46.3z"/>
			</g>
			<g>
				<path class="st36" d="M156.9,35.9c-0.4-0.7-1.1-1.3-2-1.5c-1.7-0.4-3.4,0.6-3.8,2.3s0.6,3.4,2.3,3.8c0.9,0.2,1.8,0,2.5-0.4
					c-0.4-0.7-0.5-1.5-0.3-2.3C155.8,37,156.3,36.4,156.9,35.9z"/>
				<path class="st36" d="M159.4,35.5c-0.9-0.2-1.8,0-2.5,0.4c0.4,0.7,0.5,1.5,0.3,2.3s-0.7,1.5-1.4,1.9c0.4,0.7,1.1,1.3,2,1.5
					c1.7,0.4,3.4-0.6,3.8-2.3C162.1,37.7,161.1,35.9,159.4,35.5z"/>
			</g>
		</g>
	</g>
</g>
</svg>
