<?xml version="1.0" encoding="utf-8"?>
<!-- Generator: Adobe Illustrator 23.0.1, SVG Export Plug-In . SVG Version: 6.00 Build 0)  -->
<svg version="1.1" id="Layer_1" xmlns="http://www.w3.org/2000/svg" xmlns:xlink="http://www.w3.org/1999/xlink" x="0px" y="0px"
	 viewBox="0 0 1000 1000" style="enable-background:new 0 0 1000 1000;" xml:space="preserve">
<style type="text/css">
	.st0{fill:#20B798;}
	.st1{fill:#FFFFFF;}
</style>
<g>
	<circle class="st0" cx="500" cy="500" r="317.98"/>
	<g>
		<path class="st1" d="M697.16,492.73c-1.28,2.63-2.21,5.52-3.9,7.85c-8.41,11.53-25.83,10.44-32.9-2.04
			c-1.12-1.98-2.15-2.99-4.62-2.98c-48.52,0.08-97.04,0.06-145.56,0.07c-1,0-1.99,0.11-3.21,0.17c0,6.43,0,12.64,0,19.3
			c1.62,0,3.12,0,4.62,0c32.73,0,65.46-0.01,98.19,0c13.61,0.01,21.77,8.18,21.8,21.79c0.02,9.63,0.06,19.25-0.04,28.88
			c-0.02,2.18,0.63,3.34,2.63,4.43c8.74,4.76,12.5,14.44,9.44,23.6c-2.94,8.79-12.18,14.72-20.98,13.46
			c-9.91-1.42-17.17-8.98-17.51-18.96c-0.27-7.93,3.25-14.18,10.3-18.02c2.13-1.16,2.82-2.44,2.79-4.78
			c-0.12-9.63-0.02-19.25-0.07-28.88c-0.03-5.98-2.2-8.3-8.03-8.31c-33.63-0.04-67.26-0.02-100.89-0.01c-0.62,0-1.25,0.09-2.17,0.16
			c0,6.46,0,12.77,0,19.56c1.61,0,3.12,0,4.62,0c21.18,0,42.36,0,63.54,0c1.41,0,2.83-0.03,4.23,0.11c3.55,0.36,5.93,2.9,6,6.32
			c0.08,3.47-2.49,6.36-6.07,6.73c-1.14,0.12-2.31,0.05-3.46,0.05c-21.44,0-42.87,0-64.31,0c-1.4,0-2.8,0-4.53,0
			c0,4.32,0,8.46,0,13.1c2.38,0,4.78,0,7.17,0c10.27,0,20.54-0.05,30.81,0.01c12.54,0.08,20.56,8.06,20.71,20.78
			c0.14,11.94,0.09,23.87-0.01,35.81c-0.02,2.42,0.53,3.85,2.87,5.1c8.11,4.32,11.96,13.51,9.7,22.24
			c-2.26,8.71-10.16,14.71-19.32,14.68c-8.95-0.03-16.69-6.01-18.93-14.63c-2.3-8.89,1.4-17.88,9.53-22.24
			c2.29-1.23,2.94-2.59,2.92-5.05c-0.12-11.81-0.04-23.62-0.06-35.43c-0.01-5.76-2.37-8.13-8.19-8.15
			c-12.19-0.04-24.39-0.03-36.58,0.02c-1.06,0-2.66,0.11-3.11,0.77c-4.3,6.39-10.65,5.97-16.97,5.16
			c-43.82-5.59-78.73-36.29-89.69-78.75c-15.04-58.26,23.09-118.05,82.35-129.01c4.27-0.79,8.62-1.24,12.95-1.64
			c4.25-0.4,7.68,1.28,10.56,4.45c0.87,0.96,2.47,1.76,3.75,1.78c12.45,0.13,24.9,0.12,37.35,0.06c5.1-0.02,7.56-2.52,7.57-7.57
			c0.04-11.94-0.05-23.88,0.07-35.81c0.03-2.59-0.65-4.01-3.11-5.33c-7.94-4.27-11.57-13.26-9.35-21.97
			c2.13-8.39,9.66-14.56,18.02-14.78c9.52-0.25,17.11,5.02,19.91,13.8c2.77,8.72-0.8,18.42-8.89,22.83c-2.73,1.49-3.38,3.16-3.35,6
			c0.14,11.42-0.2,22.85,0.12,34.27c0.39,14.07-10.41,22.37-21.82,21.81c-11.52-0.56-23.1-0.13-34.65-0.11
			c-0.74,0-1.49,0.11-2.42,0.19c0,4.26,0,8.31,0,12.9c1.38,0,2.74,0,4.1,0c21.69,0,43.39,0,65.08,0c1.28,0,2.59-0.09,3.84,0.13
			c3.32,0.58,5.64,3.61,5.46,6.9c-0.19,3.25-2.49,5.69-5.85,6.06c-1.27,0.14-2.56,0.1-3.85,0.1c-21.44,0.01-42.87,0-64.31,0
			c-1.38,0-2.77,0-4.42,0c0,6.6,0,12.82,0,19.54c1.3,0.06,2.65,0.18,3.99,0.18c32.73,0.01,65.46,0.01,98.19,0
			c6.93,0,8.94-2,8.95-8.92c0.02-9.5-0.05-19,0.05-28.5c0.02-2.19-0.65-3.36-2.65-4.45c-8.63-4.73-12.4-14.18-9.53-23.24
			c2.73-8.62,11.16-14.51,19.93-13.92c9.61,0.64,17.2,7.78,18.62,17.52c1.09,7.49-3.05,15.68-10.27,19.56
			c-2.14,1.15-2.8,2.4-2.77,4.74c0.13,9.75,0.09,19.51,0.05,29.26c-0.05,12.83-8.42,21.14-21.26,21.15c-32.86,0.01-65.72,0-98.58,0
			c-1.51,0-3.03,0-4.76,0c0,6.56,0,12.77,0,19.48c1.49,0,2.85,0,4.22,0c47.88,0,95.76-0.02,143.63,0.05c2.69,0,4.23-0.57,5.7-3.15
			c3.85-6.78,10.09-10.3,17.87-9.88c8.06,0.43,13.95,4.63,17.28,12.14c0.45,1.01,0.99,1.97,1.48,2.96
			C697.16,487.08,697.16,489.91,697.16,492.73z M493,580.34c0-61.18,0-122.04,0-182.92c-45.47,2.71-85.3,42.13-84.88,92.24
			C408.54,539.52,448.61,577.83,493,580.34z M559.18,659.71c3.57-0.02,6.47-3.1,6.36-6.75c-0.1-3.54-2.89-6.24-6.42-6.23
			c-3.62,0.01-6.54,3.06-6.41,6.68C552.83,656.86,555.78,659.73,559.18,659.71z M565.54,324.64c0.02-3.63-3-6.66-6.55-6.56
			c-3.43,0.09-6.29,3.03-6.3,6.47c-0.02,3.48,2.76,6.37,6.23,6.49C562.62,331.16,565.52,328.36,565.54,324.64z M683.97,488.9
			c0.01-3.45-2.8-6.28-6.33-6.36c-3.78-0.09-6.68,2.66-6.68,6.34c-0.01,3.52,2.71,6.27,6.28,6.36
			C680.96,495.34,683.96,492.52,683.97,488.9z M618.5,389.99c-0.14,3.66,2.3,6.43,5.85,6.66c3.79,0.24,6.73-2.33,6.9-6.02
			c0.16-3.58-2.37-6.43-5.88-6.65C621.52,383.75,618.64,386.27,618.5,389.99z M624.81,581.12c-3.64,0.02-6.25,2.58-6.32,6.19
			c-0.07,3.8,2.61,6.52,6.4,6.5c3.6-0.02,6.27-2.63,6.35-6.2C631.33,583.87,628.59,581.1,624.81,581.12z"/>
		<path class="st1" d="M302.84,475.79c0.27-1.35,0.69-2.69,0.79-4.06c0.68-9.14,7.1-16.1,16.09-17.48
			c5.95-0.91,11.9-1.85,17.78-3.08c1.21-0.25,2.77-1.71,3.09-2.9c4.09-15.31,10.02-29.82,18.08-43.48c0.61-1.04,0.45-3.19-0.24-4.25
			c-3.3-5.03-6.95-9.84-10.41-14.77c-5.42-7.73-5.51-16.43,0.81-23.33c7.95-8.68,16.33-17.01,25.01-24.97
			c6.53-5.99,15.34-5.99,22.71-0.92c5.17,3.56,10.18,7.37,15.41,10.85c0.95,0.63,2.95,0.73,3.92,0.16
			c13.66-8.05,28.1-14.18,43.5-17.99c2.03-0.5,2.87-1.36,3.15-3.53c0.78-5.96,1.93-11.87,2.9-17.81c1.43-8.77,8.08-15,16.88-15.73
			c3.45-0.29,6.9-0.66,10.35-0.71c8.06-0.13,13.9,5.05,14.01,13.12c0.23,17.58,0.24,35.16-0.01,52.73
			c-0.11,7.74-5.6,12.71-13.75,13.26c-32.38,2.18-59.53,15.32-81.1,39.45c-20.13,22.53-30.18,49.15-29.83,79.4
			c0.65,56.75,39.53,103.76,95.09,115.2c4.87,1,9.88,1.48,14.85,1.85c9.96,0.74,14.83,5.79,14.85,15.84
			c0.02,15.27-0.23,30.54,0.1,45.8c0.18,8.11-2.12,14.26-9.91,17.61c-3.85,0-7.7,0-11.55,0c-0.84-0.25-1.66-0.63-2.51-0.72
			c-9.79-1.04-15.96-6.84-17.51-16.41c-0.92-5.69-2.11-11.34-2.81-17.05c-0.3-2.4-1.32-3.15-3.46-3.69
			c-15.12-3.82-29.41-9.71-42.73-17.82c-2.01-1.23-3.31-0.99-5.05,0.31c-4.93,3.68-9.92,7.29-15,10.76
			c-7.08,4.83-16.02,4.82-22.08-0.8c-8.74-8.09-17.25-16.47-25.31-25.23c-6.32-6.87-6.26-15.62-0.86-23.34
			c3.46-4.94,7.11-9.74,10.42-14.77c0.7-1.06,0.87-3.22,0.25-4.26c-8.06-13.66-14-28.17-18.11-43.48c-0.32-1.2-1.87-2.67-3.08-2.92
			c-6.01-1.25-12.1-2.12-18.17-3.13c-8.59-1.43-14.96-8.4-15.7-17.06c-0.13-1.49-0.53-2.97-0.81-4.45
			C302.84,493.24,302.84,484.51,302.84,475.79z M493.02,672.83c0-17.63,0-34.9,0-52.46c-33.81-2.39-62.93-15.07-86.69-39.2
			c-23.77-24.14-36.38-53.39-37.8-87.16c-1.26-29.77,6.79-57.16,24.28-81.33c24.62-34.02,58.4-52.06,100.16-55.38
			c0-17.6,0-34.86,0-52.31c-2.96,0.2-5.62,0.46-8.29,0.54c-3.84,0.11-5.77,2-6.34,5.8c-1.1,7.34-2.66,14.63-3.55,21.99
			c-0.6,4.91-3.15,7.15-7.71,8.11c-17.48,3.69-33.66,10.59-48.63,20.3c-3.61,2.34-6.8,2.12-10.23-0.44
			c-6.16-4.61-12.52-8.95-18.73-13.49c-2.82-2.06-5.47-2.06-7.94,0.38c-7.21,7.11-14.48,14.16-21.5,21.45
			c-3.61,3.76-3.47,5.23-0.5,9.4c4.39,6.17,8.76,12.34,13.22,18.45c2.22,3.04,2.54,6.02,0.45,9.24
			c-10.16,15.63-17.12,32.6-21.06,50.81c-0.74,3.43-2.8,5.33-6.22,5.89c-7.71,1.26-15.39,2.7-23.12,3.76
			c-3.85,0.53-5.95,2.46-6,6.18c-0.13,10.38-0.14,20.76,0.01,31.13c0.05,3.48,1.96,5.52,5.69,6.06c7.47,1.08,14.88,2.61,22.36,3.66
			c4.28,0.6,6.59,2.65,7.51,6.89c3.84,17.83,10.77,34.42,20.69,49.73c2.18,3.36,1.96,6.4-0.36,9.57
			c-4.47,6.1-8.84,12.28-13.23,18.44c-2.84,3.99-2.94,5.65,0.41,9.1c6.96,7.18,14.14,14.13,21.18,21.23
			c2.85,2.88,5.66,2.91,8.86,0.54c6.08-4.5,12.33-8.78,18.4-13.3c3.28-2.44,6.39-2.77,9.89-0.49c15.4,10.03,32.13,16.91,50.09,20.79
			c3.73,0.81,5.72,2.94,6.29,6.73c1.17,7.72,2.58,15.41,3.76,23.13c0.49,3.22,2.07,5.21,5.35,5.55
			C486.64,672.45,489.59,672.58,493.02,672.83z"/>
	</g>
</g>
</svg>
