<?xml version="1.0" encoding="utf-8"?>
<!-- Generator: Adobe Illustrator 23.0.1, SVG Export Plug-In . SVG Version: 6.00 Build 0)  -->
<svg version="1.1" id="Layer_1" xmlns="http://www.w3.org/2000/svg" xmlns:xlink="http://www.w3.org/1999/xlink" x="0px" y="0px"
	 viewBox="0 0 1000 1000" style="enable-background:new 0 0 1000 1000;" xml:space="preserve">
<style type="text/css">
	.st0{fill:#20B798;}
	.st1{fill:#FFFFFF;}
</style>
<g>
	<circle class="st0" cx="500" cy="500" r="317.98"/>
	<g>
		<path class="st1" d="M508.76,290.78c7.12,1.43,14.38,2.4,21.35,4.38c26.19,7.44,46.72,22.84,61.65,45.52
			c12.44,18.9,18.03,39.85,17.76,62.46c-0.17,13.99-0.01,27.98-0.04,41.97c-0.03,13.82-9.27,23-23.13,23.05
			c-3.88,0.01-7.76,0-11.84,0c-0.88,4.72-1.55,9.27-2.6,13.74c-3.18,13.5-9.34,25.49-18.8,35.68c-1.48,1.6-1.71,2.8-0.7,4.73
			c3.37,6.46,6.42,13.08,9.88,19.48c0.86,1.59,2.64,3.13,4.34,3.73c10.51,3.72,21.17,7.04,31.69,10.74
			c27.02,9.51,45.91,28.1,58.48,53.38c7.17,14.42,10.92,29.82,11.07,46c0.06,6.15-2.66,8.89-8.84,8.89
			c-106.08,0.01-212.15,0.01-318.23,0c-5.99,0-8.73-2.75-8.68-8.69c0.37-42.39,27.89-86.64,72.42-100.66
			c9.71-3.06,19.37-6.31,28.97-9.69c1.6-0.56,3.29-2.02,4.1-3.51c3.46-6.41,6.51-13.03,9.91-19.47c1.11-2.1,0.61-3.28-0.75-5.06
			c-4.04-5.29-8.06-10.66-11.42-16.39c-1.65-2.82-3.15-3.92-6.37-3.77c-10.11,0.48-17.99-3.69-21.85-13.11
			c-1.76-4.3-1.57-9.46-1.94-14.26c-0.15-2.01-0.58-3.11-2.53-4.12c-7.9-4.09-12.17-10.7-12.11-19.66
			c0.13-19.45-1.26-39.11,1.03-58.32c5.16-43.21,28.99-73.31,69.4-89.59c8.66-3.49,18.27-4.6,27.44-6.81
			c0.94-0.23,1.88-0.43,2.82-0.65C497.08,290.78,502.92,290.78,508.76,290.78z M565.09,415.13c-0.76-0.16-1.21-0.26-1.66-0.36
			c-10.43-2.21-21.07-3.71-31.23-6.79c-17.77-5.38-33.49-14.75-47.22-27.33c-1.64-1.5-3.2-2.05-5.52-1.77
			c-9.03,1.08-17.09,4.38-24.42,9.67c-8.27,5.97-13.52,14.55-19.49,22.5c-0.62,0.83-0.64,2.3-0.56,3.45
			c0.68,9.45,1.12,18.94,2.28,28.33c1.54,12.39,3.73,24.7,5.52,37.06c0.33,2.29,1.28,3.01,3.57,2.94c5.22-0.16,10.46-0.16,15.69,0
			c2.06,0.07,2.87-0.76,3.76-2.49c4.1-7.91,10.72-12,19.65-12.15c4.98-0.09,9.97-0.1,14.96,0.01c12.11,0.26,21.54,10.04,21.45,22.15
			c-0.09,11.83-9.62,21.38-21.64,21.58c-4.5,0.08-9-0.03-13.5,0.03c-9.68,0.12-16.78-3.98-21.2-12.67c-0.39-0.76-1.2-1.81-1.85-1.83
			c-4.38-0.16-8.77-0.08-13.49-0.08c5.98,10.49,15.75,19.57,26.06,24.09c35.07,15.37,71.26-4.92,80.45-40.66
			c3.57-13.91,4.81-28.45,6.71-42.75C564.43,430.51,564.56,422.85,565.09,415.13z M347.27,649.66c46.47,0,92.68,0,139.38,0
			c-9.52-14.7-19.43-28.58-27.79-43.33c-8.4-14.82-15.25-30.51-22.88-46.05c-7.97,2.67-16.54,5.73-25.22,8.42
			c-27.98,8.67-46.37,27.49-57.34,54.08C349.9,631.31,347.71,640.25,347.27,649.66z M512.9,649.77c47.23,0,93.4,0,139.73,0
			c0-0.91,0.03-1.62-0.01-2.33c-0.04-0.85-0.06-1.71-0.21-2.54c-6.76-37.61-26.64-64.26-63.85-76.45
			c-8.48-2.78-16.95-5.61-25.84-8.55C551.94,592.99,532.55,620.98,512.9,649.77z M434.91,386.92c0.85-0.66,1.25-0.9,1.55-1.23
			c11.16-12.29,25.06-19.29,41.44-21.52c5.68-0.77,10.76-0.63,15.4,4.03c10.14,10.18,22.29,17.56,35.56,23.03
			c11.71,4.83,23.93,7.51,36.52,8.69c2.98-25.44-13.13-51.77-36.9-61.01c-13.46-5.23-27.4-5.1-41.35-3.72
			c-18.41,1.81-32.65,11-42.96,26.26C439.09,368.96,435.99,377.26,434.91,386.92z M594.1,392.8c-1.87-42.92-39.57-87.86-94.92-87.24
			C441.03,306.2,406.91,354.3,406,393c2.29,0,4.58,0,6.86,0c2.25,0,4.5,0,6.59,0c0.38-3.61,0.53-6.65,1.04-9.64
			c4.8-27.98,20.28-47.55,46.52-58.38c16.03-6.61,32.88-5.92,49.58-4.15c28.02,2.97,53.52,25.19,60.67,52.36
			c1.68,6.39,2.5,13,3.74,19.61C585.2,392.8,589.65,392.8,594.1,392.8z M473.28,602.57c9.03,13.61,17.85,26.89,26.73,40.27
			c9-13.59,17.82-26.9,26.35-39.78c-9.38-9.35-18.37-18.32-27.56-27.49C490.57,584.29,482.08,593.27,473.28,602.57z M540.53,531.45
			c-10.53,11.14-20.73,21.94-30.56,32.35c8.32,8.31,16.36,16.35,25.01,24.98c5.02-12.18,10.06-24.35,15-36.57
			c0.29-0.73-0.02-1.89-0.41-2.68C546.69,543.64,543.73,537.81,540.53,531.45z M488.23,565.32c-10.43-10.42-20.43-20.41-30.47-30.44
			c-1.26,2.49-2.45,5.58-4.25,8.24c-3.65,5.39-3.85,10.55-1,16.48c4.6,9.57,8.58,19.43,13.05,29.68
			C473.66,580.73,481.15,572.81,488.23,565.32z M405.11,407.71c0,12.95-0.1,25.58,0.06,38.2c0.05,4.18,2.32,6.88,6.26,7.33
			c3.9,0.44,7.89,0.1,11.75,0.1c-1.23-15.34-2.44-30.42-3.66-45.63C414.76,407.71,410.18,407.71,405.11,407.71z M580.46,407.76
			c-1.21,15.27-2.41,30.35-3.65,45.83c3.05,0,6.05,0.04,9.06-0.01c6.05-0.09,8.95-2.94,9.02-8.95c0.07-5.59,0.01-11.18,0.02-16.78
			c0-6.65,0-13.3,0-20.1C589.86,407.76,585.19,407.76,580.46,407.76z M492.39,497.59c3.26-0.21,6.21-0.14,9.05-0.66
			c3.53-0.65,6.03-3.77,5.73-6.97c-0.32-3.42-1.99-6.41-5.63-6.65c-5.9-0.39-11.87-0.41-17.76,0.04c-3.37,0.26-5.57,3.54-5.6,6.68
			c-0.03,3.11,2.16,6.15,5.51,6.81C486.64,497.41,489.71,497.38,492.39,497.59z M486.55,540.8c4.18,4.08,8.46,8.26,12.91,12.61
			c3.75-3.96,7.72-8.15,11.93-12.61C502.63,540.8,494.57,540.8,486.55,540.8z M428.08,482.57c-0.85-4.79-1.68-9.49-2.52-14.21
			c-2.05,0-3.81,0-5.55,0C418.77,478.29,420.83,482.03,428.08,482.57z"/>
		<path class="st1" d="M606.94,593.7c1.12,0.61,3.07,1.34,4.62,2.58c7.8,6.21,13.98,13.79,18.7,22.58c2.47,4.61,1.69,8.92-2.1,11.11
			c-3.89,2.25-7.91,0.95-10.61-3.84c-4.04-7.19-9.1-13.45-15.48-18.69c-2.67-2.2-4.32-4.99-2.95-8.65
			C600.3,595.61,602.7,594.03,606.94,593.7z"/>
		<path class="st1" d="M580.59,579.91c3.9,0.15,7.03,3.45,6.97,7.37c-0.06,4.06-3.49,7.31-7.55,7.15c-4.04-0.16-7.21-3.67-6.96-7.73
			C573.3,582.81,576.68,579.76,580.59,579.91z"/>
	</g>
</g>
</svg>
