<?xml version="1.0" encoding="utf-8"?>
<!-- Generator: Adobe Illustrator 23.0.1, SVG Export Plug-In . SVG Version: 6.00 Build 0)  -->
<svg version="1.1" id="Layer_1" xmlns="http://www.w3.org/2000/svg" xmlns:xlink="http://www.w3.org/1999/xlink" x="0px" y="0px"
	 viewBox="0 0 1000 1000" style="enable-background:new 0 0 1000 1000;" xml:space="preserve">
<style type="text/css">
	.st0{fill:#20B798;}
	.st1{fill:#FFFFFF;}
</style>
<g>
	<circle class="st0" cx="500" cy="500" r="317.98"/>
	<g>
		<path class="st1" d="M645.07,641.26c-96.71,0-193.43,0-290.14,0c-4.54-2.21-9.42-3.94-13.56-6.75
			c-5.83-3.97-8.31-10.4-10.18-16.98c0-9.89,0-19.78,0-29.67c2.78-6.75,8.83-6.05,14.69-5.98c0-1.78,0-3.19,0-4.6
			c0-64.51-0.01-129.01,0.03-193.52c0-2.94,0.16-5.97,0.85-8.82c2.81-11.6,12.58-18.86,25.32-18.89
			c23.96-0.06,47.91-0.02,71.87-0.02c1.26,0,2.53,0,3.73,0c0.32-2.8,0.54-5.09,0.83-7.36c5-38.26,49.11-57.86,80.86-35.94
			c4.22,2.91,5.25,5.43,3.37,8.28c-1.93,2.94-4.68,2.86-9.12-0.1c-9.89-6.58-20.7-8.94-32.33-6.35
			c-22.23,4.97-36.04,25.05-32.76,47.68c1.15,7.94,4.46,15.02,10.18,21.18c2.6-8.47,7.67-14.57,14.96-18.79
			c-8.26-14.65-7.62-25.02,1.94-33.16c8.15-6.94,20.27-7.03,28.5-0.21c9.77,8.1,10.49,18.38,2.21,33.37
			c7.29,4.24,12.35,10.34,14.93,18.74c3.94-3.95,6.47-8.53,8.22-13.5c3.66-10.36,3.34-20.65-0.85-30.84
			c-1.37-3.34-0.37-5.97,2.43-7.19c2.71-1.18,5.44,0.05,6.76,3.38c1.16,2.94,2.21,5.98,2.87,9.07c0.82,3.81,1.2,7.72,1.79,11.75
			c1.4,0,2.71,0,4.03,0c23.52,0,47.03-0.06,70.55,0.07c3.46,0.02,7.07,0.43,10.34,1.5c10.65,3.49,16.7,12.88,16.71,25.31
			c0.01,64.84,0.01,129.67,0.01,194.51c0,1.4,0,2.79,0,4.52c2.07,0,3.81-0.01,5.54,0c5.96,0.04,9.12,3.19,9.14,9.16
			c0.02,7.36,0.04,14.73,0,22.09c-0.07,11.7-7.21,21.98-18.18,26.19C648.79,640.07,646.92,640.64,645.07,641.26z M522.59,402.53
			c8.26,12.39,16.21,24.38,24.29,36.26c0.5,0.74,2.16,1.09,3.22,0.99c3.7-0.34,7.37-1.31,11.07-1.43
			c31.93-1.03,57.34,27.72,52.76,59.57c-3.07,21.41-20.21,39.31-41.71,43.56c-21.04,4.16-43.49-5.85-54.36-24.57
			c-2.77-4.77-4.63-10.06-6.96-15.25c-7.27,0-14.91,0-22.5,0c-5.59,22.96-24.17,38.41-46.29,40.54
			c-33.15,3.2-61.28-26.9-56.04-59.78c4.77-29.9,33.66-49.49,63.2-42.71c2.23,0.51,3.3,0.16,4.53-1.71
			c7.35-11.2,14.83-22.31,22.25-33.45c0.41-0.61,0.71-1.29,1.19-2.19c-7.53-3.81-13.71-8.94-18.85-15.39c-0.63-0.79-2.33-1-3.53-1
			c-25.28-0.05-50.55-0.04-75.83-0.03c-0.96,0-1.91,0.11-3.2,0.2c0,1.47,0,2.76,0,4.05c0,25.17,0.01,50.33-0.02,75.5
			c0,1.41,0.19,3.18-0.54,4.15c-1.06,1.41-2.75,2.77-4.41,3.19c-2.23,0.56-4.06-0.86-4.72-3.13c-0.39-1.34-0.46-2.81-0.47-4.22
			c-0.03-26.49-0.02-52.97-0.02-79.46c0-7.89,2.55-10.42,10.49-10.42c23.85-0.01,47.7,0,71.55,0c1.29,0,2.58,0,4.12,0
			c-1.05-3.41-1.97-6.41-2.96-9.64c-1.21,0-2.41,0-3.6,0c-24.18,0-48.36,0.28-72.53-0.14c-9.73-0.17-16.83,6.61-16.79,16.68
			c0.23,65.17,0.12,130.34,0.13,195.51c0,1.16,0.1,2.32,0.15,3.43c96.07,0,191.82,0,287.6,0c0.05-0.93,0.12-1.59,0.12-2.24
			c0-65.94,0.02-131.88-0.02-197.82c-0.01-9.48-6.02-15.4-15.46-15.41c-24.73-0.03-49.46-0.01-74.18-0.01c-1.08,0-2.16,0-3.16,0
			c-1,3.31-1.9,6.3-2.92,9.64c1.63,0,2.93,0,4.23,0c23.96,0,47.92-0.01,71.88,0c7.3,0,10.03,2.69,10.03,9.89
			c0.01,55.5,0.01,111,0,166.5c0,7.29-2.64,9.91-9.91,9.92c-82.87,0-165.73,0-248.6,0c-7.54,0-10.14-2.55-10.15-10.01
			c-0.01-19.45-0.01-38.91,0-58.36c0-0.99-0.04-2,0.15-2.95c0.53-2.69,2.16-4.39,4.96-4.38c2.8,0.02,4.42,1.74,4.91,4.43
			c0.2,1.07,0.15,2.19,0.15,3.28c0.01,18.02,0.01,36.05,0.01,54.07c0,1.27,0,2.54,0,3.78c83.03,0,165.59,0,248.13,0
			c0-55.4,0-110.54,0-165.79c-0.57-0.1-0.99-0.22-1.4-0.22c-26.16-0.01-52.31-0.03-78.47,0.02c-0.87,0-2.07,0.37-2.55,1
			C536.49,393.51,530.23,398.55,522.59,402.53z M533.39,591.98c0,2.57,0.06,4.97-0.01,7.36c-0.24,7.64-4.94,12.23-12.52,12.23
			c-13.85,0.02-27.69,0.01-41.54,0c-7.82-0.01-12.52-4.57-12.72-12.36c-0.06-2.38-0.01-4.76-0.01-7.14c-42.09,0-83.76,0-125.51,0
			c0,7.3-0.11,14.34,0.04,21.36c0.1,4.53,1.76,8.58,4.88,11.93c3.98,4.28,9.01,6.03,14.77,6.03c92.85-0.01,185.7-0.01,278.55-0.01
			c0.55,0,1.1,0,1.65-0.03c8.36-0.46,16.18-6,17.06-13.85c0.94-8.4,0.21-16.98,0.21-25.53C616.9,591.98,575.31,591.98,533.39,591.98
			z M510.46,491.48c-0.17-10.02,2.24-19.11,7.18-27.5c5-8.49,12.03-14.92,20.71-19.79c-8.3-12.44-16.35-24.58-24.55-36.63
			c-0.51-0.75-2.27-1.17-3.29-0.97c-6.99,1.39-13.95,1.52-20.89-0.09c-1.89-0.44-2.98,0.09-4.03,1.71
			c-4.6,7.08-9.33,14.08-14.02,21.1c-3.27,4.9-6.53,9.81-9.92,14.92c8.79,4.83,15.67,11.28,20.66,19.67
			c5.03,8.46,7.35,17.68,7.28,27.57C496.63,491.48,503.31,491.48,510.46,491.48z M593.72,518.05c15.72-16.24,13.67-44.4-3.97-59.58
			c-18.26-15.71-46.15-12.65-60.79,6.53c-14.41,18.88-8.33,43.54,1.93,52.28c2.02-3.4,3.72-7.15,6.24-10.23
			c2.52-3.08,5.85-5.48,8.86-8.21c-8.25-12-7.79-23.6,1.43-32.05c8.23-7.55,20.86-7.78,29.51-0.46c4.46,3.78,7,8.64,7.74,14.45
			c0.9,7.1-1.68,13.06-6.21,18.46C586.06,503.49,591.02,509.69,593.72,518.05z M468.78,517.83c12.35-12.02,16.41-37.9-0.66-56.27
			c-15.88-17.09-43.45-17.59-60.21-0.92c-17.55,17.45-14.71,44.1-1.61,57.3c2.65-8.24,7.66-14.52,15.2-18.68
			c-10.31-12.34-6.56-25.13,0.48-31.98c7.94-7.72,20.63-8.41,29.24-1.65c4.41,3.46,7.35,7.93,8.32,13.42
			c1.33,7.54-0.65,14.31-6.02,20.12C461.15,503.54,466.17,509.68,468.78,517.83z M499.9,397.54c7.3,0.1,13.99-1.73,20.32-5.06
			c1.68-0.88,2.28-1.86,1.92-3.88c-1.73-9.57-8.28-16-18.05-17.44c-13.35-1.97-23.85,5-26.19,17.15c-0.46,2.38,0.36,3.37,2.21,4.33
			C486.36,395.87,492.95,397.66,499.9,397.54z M562.43,532.48c6.95-0.24,13.7-1.77,20.02-5.16c1.7-0.91,2.36-1.94,2.08-3.88
			c-0.63-4.38-2.47-8.12-5.48-11.33c-5.38-5.76-12.25-6.65-19.62-6.22c-9.66,0.56-17.69,7.76-19.17,17.28
			c-0.31,2.04,0.32,3.18,2.17,4.16C548.66,530.62,555.28,532.22,562.43,532.48z M436.73,505.92c-0.09,0-1.08-0.04-2.06,0.01
			c-9.09,0.4-16.69,6.7-18.91,15.55c-0.75,3-0.28,5,2.91,6.48c12.99,6.04,25.77,5.93,38.59-0.44c2.31-1.15,2.82-2.59,2.35-4.96
			C457.84,513.79,450.24,505.16,436.73,505.92z M500,361.03c6.71,0,12.39-5.63,12.46-12.34c0.07-6.71-5.51-12.36-12.31-12.47
			c-6.87-0.11-12.7,5.65-12.61,12.48C487.61,355.43,493.29,361.04,500,361.03z M562.5,495.67c6.92-0.03,12.25-5.39,12.25-12.31
			c0-6.92-5.35-12.29-12.25-12.31c-7.05-0.02-12.49,5.44-12.43,12.48C550.13,490.38,555.57,495.7,562.5,495.67z M437.48,495.67
			c6.93,0.03,12.38-5.29,12.45-12.13c0.07-7.03-5.38-12.51-12.42-12.49c-6.91,0.01-12.25,5.37-12.26,12.3
			C425.24,490.28,430.55,495.64,437.48,495.67z M476.78,591.89c0,2.69-0.22,5.12,0.11,7.47c0.12,0.87,1.52,2.24,2.34,2.25
			c13.84,0.14,27.69,0.13,41.53,0.01c0.82-0.01,2.24-1.18,2.33-1.93c0.29-2.55,0.11-5.15,0.11-7.8
			C507.57,591.89,492.43,591.89,476.78,591.89z"/>
	</g>
</g>
</svg>
