<?xml version="1.0" encoding="utf-8"?>
<!-- Generator: Adobe Illustrator 23.0.1, SVG Export Plug-In . SVG Version: 6.00 Build 0)  -->
<svg version="1.1" id="Layer_1" xmlns="http://www.w3.org/2000/svg" xmlns:xlink="http://www.w3.org/1999/xlink" x="0px" y="0px"
	 viewBox="0 0 1000 1000" style="enable-background:new 0 0 1000 1000;" xml:space="preserve">
<style type="text/css">
	.st0{fill:#20B798;}
	.st1{fill:#FFFFFF;}
</style>
<g>
	<circle class="st0" cx="500" cy="500" r="317.98"/>
	<path class="st1" d="M584.3,431.02c0,8.88-0.05,17.35,0.03,25.81c0.03,3.13-0.37,5.89-3.52,7.48c-3.1,1.57-5.41-0.09-7.75-1.77
		c-13.5-9.67-27.04-19.29-40.49-29.03c-2.4-1.74-4.75-2.57-7.77-2.55c-18.59,0.13-37.18,0.08-55.76,0.06
		c-11.63-0.01-18.63-6.88-18.65-18.57c-0.06-30.04-0.06-60.07,0-90.11c0.02-11.72,6.84-18.69,18.55-18.71
		c45.05-0.08,90.11-0.08,135.16,0.01c11.57,0.02,18.5,7.24,18.51,18.85c0.03,29.91,0.03,59.83,0,89.74
		c-0.01,11.74-7.14,18.78-18.9,18.8C597.42,431.03,591.15,431.02,584.3,431.02z M572.43,447.33c0-7.67-0.04-14.44,0.01-21.2
		c0.04-4.96,2-6.92,6.94-6.95c7.88-0.05,15.75,0,23.63-0.02c5.86-0.01,7.47-1.59,7.47-7.41c0.02-29.54,0.01-59.08,0-88.62
		c0-6.3-1.19-7.44-7.64-7.44c-44.31,0-88.62,0-132.93,0c-6.31,0-7.56,1.24-7.56,7.5c0,29.42,0,58.83,0,88.25
		c0,6.28,1.47,7.72,7.86,7.72c19.57,0.01,39.14-0.08,58.71,0.1c2.38,0.02,5.09,0.93,7.07,2.28c8.55,5.8,16.88,11.91,25.29,17.91
		C564.77,441.93,568.26,444.38,572.43,447.33z"/>
	<path class="st1" d="M617.29,589.89c-5.46,2.94-10.12,5.64-14.95,7.97c-2.26,1.09-4.84,1.93-7.32,2.08
		c-11.91,0.7-23.84,1.2-35.77,1.63c-11.65,0.42-18.13-7.62-15.16-18.94c2.45-9.32,8.42-15.42,17.84-17.81
		c9.87-2.51,19.81-4.76,29.68-7.28c1.54-0.39,3.15-1.36,4.24-2.52c4.14-4.38,7.9-9.13,12.13-13.42
		c12.51-12.71,27.65-17.35,44.85-12.61c17.01,4.68,27.76,16.15,32.11,33.32c0.81,3.18,1.22,6.56,1.23,9.84
		c0.1,24.5,0.04,48.99,0.08,73.49c0.01,3.26-0.84,5.89-4.18,6.98c-4.25,1.39-7.68-1.54-7.68-6.63c-0.04-23.51,0-47.02-0.04-70.53
		c0-2.45-0.13-4.93-0.5-7.35c-1.98-13.22-9.32-22.45-21.82-26.84c-12.62-4.44-24.39-1.99-34.13,7.36
		c-5.32,5.1-9.83,11.02-14.96,16.32c-1.6,1.65-3.9,3.03-6.12,3.61c-10.09,2.64-20.27,4.93-30.41,7.37
		c-6.34,1.53-10.35,5.45-10.91,10.55c-0.22,2.02,0.09,3.33,2.64,3.2c11.67-0.61,23.36-1.05,35.03-1.72c1.87-0.11,3.83-0.82,5.51-1.7
		c6.87-3.57,13.63-7.35,20.47-10.98c5.71-3.03,10.11-0.45,10.13,5.99c0.05,21.42,0.03,42.84,0.01,64.26c0,4.62-2.23,7.33-5.91,7.41
		c-3.83,0.08-6.05-2.6-6.06-7.56c-0.04-16.86-0.01-33.73-0.02-50.59C617.29,593.44,617.29,592.11,617.29,589.89z"/>
	<path class="st1" d="M382.97,589.89c0,11.69,0,22.51,0,33.33c0,7.51,0.05,15.02-0.02,22.53c-0.04,4.65-2.34,7.26-6.07,7.18
		c-3.69-0.08-5.9-2.77-5.91-7.41c-0.02-21.42-0.04-42.84,0.01-64.26c0.01-6.44,4.41-9.02,10.13-5.99
		c6.41,3.39,12.69,7.03,19.18,10.24c2.66,1.32,5.71,2.36,8.64,2.55c11.05,0.74,22.13,1.03,33.19,1.59c2.56,0.13,2.86-1.19,2.63-3.2
		c-0.54-4.71-4.1-8.7-9.52-10.07c-10.71-2.71-21.48-5.15-32.17-7.93c-2-0.52-4.08-1.75-5.51-3.25c-4.85-5.07-9.25-10.56-14.13-15.59
		c-9.09-9.36-20.29-12.45-32.77-9.13c-12.37,3.29-20.34,11.58-23.56,24.04c-0.85,3.29-1.14,6.8-1.15,10.22
		c-0.1,22.9-0.05,45.79-0.05,68.69c0,1.23,0.04,2.47-0.04,3.69c-0.24,3.5-2.61,5.81-5.89,5.79c-3.1-0.02-5.84-2.27-5.85-5.48
		c-0.06-26.34-0.95-52.73,0.34-79.02c1.15-23.48,21.47-41.17,44.66-41.16c12.46,0.01,23.38,4.38,32.18,13.32
		c4.57,4.64,8.69,9.73,13.17,14.47c1.09,1.16,2.71,2.11,4.25,2.5c9.99,2.53,20.07,4.74,30.04,7.34
		c10.48,2.73,17.41,11.45,18.02,22.17c0.47,8.28-5.33,14.74-13.58,14.52c-13.04-0.35-26.07-1.01-39.1-1.7
		c-1.88-0.1-3.84-0.84-5.55-1.7C393.52,595.65,388.61,592.91,382.97,589.89z"/>
	<path class="st1" d="M433.63,463.51c8.54-6.1,16.75-11.31,24.19-17.47c7.34-6.07,15.09-8.46,24.64-8
		c14.36,0.71,28.78,0.18,43.18,0.19c1.23,0,2.46,0,3.68,0.13c3.33,0.34,5.17,2.41,5.35,5.56c0.18,3.23-1.76,5.29-4.84,6.09
		c-1.16,0.3-2.44,0.17-3.67,0.17c-16.61,0.01-33.22-0.07-49.83,0.1c-2.14,0.02-4.59,0.82-6.35,2.05
		c-12.2,8.51-24.25,17.22-36.35,25.88c-2.62,1.87-5.16,4.01-8.69,2.12c-3.51-1.88-3.15-5.19-3.13-8.4
		c0.03-7.1,0.01-14.21,0.01-21.71c-5.85,0-11.35,0.01-16.85,0c-11.45-0.03-17.97-6.38-17.98-17.69c-0.04-27.32-0.04-54.63,0-81.95
		c0.02-11.09,6.6-17.58,17.72-17.61c10.34-0.02,20.67-0.05,31.01,0.02c5.04,0.04,8.03,3.54,6.71,7.78c-1.11,3.55-4.03,4.3-7.33,4.29
		c-9.6-0.01-19.19,0-28.79,0c-0.98,0-1.97-0.01-2.95,0.03c-2.99,0.12-4.47,1.68-4.47,4.68c0.01,27.93,0,55.86,0.01,83.79
		c0,3.79,2.47,4.74,5.65,4.75c7.14,0.02,14.27-0.01,21.41,0.02c5.87,0.02,7.67,1.85,7.69,7.72
		C433.64,451.57,433.63,457.1,433.63,463.51z"/>
	<path class="st1" d="M364.23,522.21c-20.75,0.03-37.64-16.92-37.67-37.81c-0.03-21.12,16.69-37.9,37.84-37.96
		c20.77-0.06,37.93,16.88,38.04,37.55C402.53,505.01,385.38,522.18,364.23,522.21z M390.29,484.21
		c-0.09-14.66-11.69-25.99-26.47-25.86c-13.99,0.12-25.64,12.11-25.48,26.24c0.16,14.33,11.91,25.72,26.42,25.62
		C379.02,510.1,390.38,498.54,390.29,484.21z"/>
	<path class="st1" d="M635.56,522.2c-20.72-0.1-37.71-17.16-37.73-37.91c-0.02-20.86,17.13-37.89,38.1-37.85
		c21.23,0.04,37.92,17,37.77,38.39C673.56,505.54,656.45,522.3,635.56,522.2z M609.95,484.12c-0.12,14.34,11.23,25.98,25.44,26.09
		c14.56,0.11,26.3-11.19,26.51-25.53c0.21-14.25-11.52-26.23-25.78-26.33C621.6,458.25,610.07,469.61,609.95,484.12z"/>
	<path class="st1" d="M467.6,605.41c19.55,0,39.1-0.02,58.65,0.02c4.02,0.01,6.44,2.41,6.37,6.02c-0.06,3.43-2.41,5.61-6.26,5.76
		c-1.1,0.05-2.21,0.02-3.32,0.02c-28.4,0-56.8,0-85.2,0c-9.22,0-18.44,0.02-27.66-0.01c-4.62-0.01-7.37-2.22-7.41-5.85
		c-0.04-3.63,2.77-5.96,7.31-5.96C429.24,605.41,448.42,605.41,467.6,605.41z"/>
	<path class="st1" d="M580.26,605.41c3.56,0,7.12-0.05,10.68,0.01c3.9,0.06,6.6,2.56,6.56,5.95c-0.03,3.28-2.6,5.79-6.29,5.83
		c-7.49,0.08-14.98,0.08-22.46,0c-3.72-0.04-6.29-2.47-6.39-5.74c-0.1-3.37,2.63-5.97,6.48-6.03
		C572.65,605.36,576.45,605.41,580.26,605.41z"/>
	<path class="st1" d="M546.63,605.42c0.61,0,1.22-0.01,1.84,0c4.17,0.07,6.95,2.47,6.91,5.96c-0.04,3.5-2.76,5.79-7,5.86
		c-1.59,0.03-3.19,0.06-4.77-0.03c-3.57-0.2-5.79-2.41-5.85-5.74c-0.07-3.49,2.23-5.84,5.94-6.03
		C544.67,605.37,545.65,605.42,546.63,605.42z"/>
	<path class="st1" d="M536.41,363.18c-17.11,0-34.22,0.03-51.33-0.02c-5.24-0.02-8.44-4.01-6.23-8.04c0.91-1.66,3.19-2.68,5-3.7
		c0.75-0.42,1.93-0.1,2.92-0.1c33.11,0,66.23,0,99.34,0c1.23,0,2.51-0.15,3.68,0.14c3.09,0.79,4.98,2.83,4.78,6.1
		c-0.2,3.2-2.04,5.2-5.35,5.53c-1.22,0.12-2.46,0.07-3.69,0.07C569.15,363.19,552.78,363.18,536.41,363.18z"/>
	<path class="st1" d="M514.86,390.33c-9.84,0-19.69,0.03-29.53-0.01c-3.98-0.02-6.48-1.9-7.07-5.12c-0.53-2.93,1.48-5.95,4.55-6.58
		c1.43-0.29,2.93-0.3,4.4-0.3c18.45-0.02,36.91-0.01,55.36-0.01c0.62,0,1.23-0.01,1.85,0.01c4.58,0.18,7.32,2.56,7.16,6.19
		c-0.16,3.47-2.94,5.79-7.2,5.81C534.54,390.36,524.7,390.33,514.86,390.33z"/>
	<path class="st1" d="M563.81,390.46c-1.58-0.14-3.22-0.06-4.72-0.48c-3.12-0.88-4.64-3.1-4.3-6.36c0.33-3.11,2.23-4.87,5.28-5.13
		c2.43-0.21,4.91-0.23,7.34-0.03c3.49,0.29,5.82,2.87,5.72,5.99c-0.09,3.06-2.62,5.56-6,5.85c-1.09,0.1-2.21,0.02-3.31,0.02
		C563.82,390.36,563.81,390.41,563.81,390.46z"/>
</g>
</svg>
