<?xml version="1.0" encoding="utf-8"?>
<!-- Generator: Adobe Illustrator 23.0.1, SVG Export Plug-In . SVG Version: 6.00 Build 0)  -->
<svg version="1.1" id="Layer_1" xmlns="http://www.w3.org/2000/svg" xmlns:xlink="http://www.w3.org/1999/xlink" x="0px" y="0px"
	 viewBox="0 0 1000 1000" style="enable-background:new 0 0 1000 1000;" xml:space="preserve">
<style type="text/css">
	.st0{fill:#20B798;}
	.st1{fill:#FFFFFF;}
</style>
<g>
	<circle class="st0" cx="500" cy="500" r="317.98"/>
	<path class="st1" d="M623.22,337.83c1.24,0.46,2.48,0.92,3.73,1.38c10.19,3.77,16.27,13.77,15.04,24.76
		c-1.14,10.22-9.55,18.4-20.6,20.03c-9.62,1.42-20.12-4.8-23.74-14.5c-1.07-2.87-2.41-3.65-5.3-3.51
		c-5.37,0.25-10.77,0.12-16.16,0.05c-1.9-0.02-2.92,0.5-2.91,2.64c0.04,19.98,0.02,39.95,0.02,59.93c0,1,0,2.01,0,3.26
		c0.98,0.1,1.84,0.25,2.69,0.26c4.26,0.03,8.54-0.21,12.79,0.07c4.74,0.31,7.76-0.28,10.03-5.7c4.15-9.9,15.92-14.47,26.31-11.62
		c10.76,2.95,17.55,12.76,16.92,24.47c-0.54,10.01-8.79,18.86-19.4,20.79c-10.18,1.86-21.11-4.1-24.89-14.11
		c-1.19-3.16-2.68-3.94-5.79-3.82c-6.03,0.24-12.09,0.07-18.49,0.07c-0.07,1.39-0.17,2.57-0.17,3.75
		c-0.01,19.41,0.07,38.83-0.08,58.24c-0.03,3.31,1.01,4.26,4.2,4.11c5.26-0.24,10.55-0.16,15.82-0.02c2.2,0.06,3.27-0.48,4.09-2.77
		c3.91-10.81,14.6-16.76,26.04-14.83c10.21,1.73,18.49,11.35,18.68,21.73c0.22,11.73-7.14,21.27-18.31,23.73
		c-11.01,2.43-22.39-3.81-26.4-14.74c-0.83-2.26-1.89-2.85-4.1-2.79c-5.27,0.14-10.55,0.05-15.82,0.04
		c-9.96-0.02-14.45-4.45-14.45-14.32c-0.01-19.3,0-38.6,0-57.91c0-1.32,0-2.63,0-4.09c-10.18,0-19.9,0-29.61,0
		c-1.8,7.23-4.09,9.67-11.74,10.27c-5.46,0.43-8.67,2.03-9.74,7.89c-0.66,3.63-2.65,7.14-4.59,10.38c-1.44,2.41-1.09,3.98,0.57,5.89
		c1.54,1.77,2.89,3.72,4.19,5.68c2.97,4.48,2.65,9.02-0.99,12.92c-2.37,2.54-4.84,5-7.39,7.37c-3.74,3.49-8.66,3.85-12.95,0.98
		c-2.88-1.93-5.53-5.38-8.52-5.66c-2.95-0.27-6.15,2.69-9.33,4.04c-2.57,1.09-5.21,2.11-7.91,2.75c-2.4,0.57-3.2,1.89-3.41,4.16
		c-0.23,2.56-0.63,5.12-1.21,7.62c-1.16,5.01-4.64,7.93-9.74,8.16c-3.36,0.15-6.74,0.13-10.1,0.01c-5.28-0.18-8.83-3.11-9.99-8.28
		c-0.61-2.72-0.9-5.52-1.29-8.29c-0.24-1.69-0.97-2.54-2.76-3.19c-5.35-1.94-10.6-4.17-15.76-6.58c-1.59-0.74-2.57-0.7-3.86,0.32
		c-2.11,1.67-4.27,3.29-6.49,4.8c-4.55,3.1-9.47,2.69-13.47-1.13c-2.43-2.32-4.84-4.68-7.13-7.16c-3.51-3.8-3.87-8.28-1.01-12.63
		c1.6-2.43,3.56-4.63,5.06-7.12c0.55-0.91,0.63-2.49,0.24-3.5c-2.08-5.41-4.29-10.79-6.67-16.07c-0.47-1.05-1.79-2.09-2.91-2.4
		c-2.58-0.7-5.29-0.9-7.94-1.38c-5.33-0.97-8.5-4.63-8.61-9.98c-0.07-3.37-0.06-6.73,0-10.1c0.1-5.34,3.34-9.16,8.55-10.09
		c3.3-0.59,7.45-0.05,9.71-1.87c2.22-1.79,2.43-5.99,3.72-9.05c1.26-2.98,2.91-5.81,4.11-8.81c0.4-1.01,0.37-2.59-0.17-3.49
		c-1.43-2.4-3.31-4.52-4.89-6.83c-3.11-4.54-2.78-9.17,0.98-13.19c2.3-2.46,4.68-4.84,7.14-7.14c3.95-3.7,8.71-4.06,13.2-0.99
		c2.86,1.96,5.62,4.08,7.84,5.71c6.58-2.57,12.75-4.87,18.81-7.43c1.02-0.43,1.95-1.92,2.24-3.09c0.7-2.81,0.83-5.76,1.48-8.59
		c1.01-4.4,3.91-7.13,8.4-7.5c4.23-0.34,8.53-0.34,12.76-0.01c4.48,0.35,7.36,3.07,8.46,7.44c0.55,2.16,1.17,4.4,1.14,6.6
		c-0.05,3.67,1.64,5.04,5.02,6.11c5.41,1.71,10.56,4.25,16.2,6.6c2.18-1.6,4.77-3.56,7.41-5.44c5.04-3.6,9.84-3.27,14.26,1
		c2.34,2.26,4.69,4.53,6.88,6.93c3.5,3.84,3.85,8.29,1,12.65c-1.6,2.44-3.56,4.64-5.06,7.12c-0.54,0.9-0.61,2.48-0.23,3.49
		c2.1,5.53,4.37,10.99,6.71,16.42c0.36,0.83,1.35,1.71,2.2,1.93c2.38,0.61,4.84,0.91,7.27,1.28c6.31,0.97,9,3.58,10.13,10
		c9.79,0,19.61,0,29.79,0c0-1.49,0-2.81,0-4.14c0-19.08,0-38.15,0.01-57.23c0-1.46,0.02-2.92,0.2-4.36
		c0.73-5.87,5.12-10.09,11.02-10.26c6.39-0.18,12.79-0.14,19.19-0.05c2.06,0.03,3.08-0.44,3.84-2.63
		c2.56-7.35,7.79-12.13,15.17-14.59c0.71-0.24,1.38-0.58,2.07-0.87C617.38,337.83,620.3,337.83,623.22,337.83z M394.45,495.31
		c3.41-2.5,6.81-4.87,10.06-7.43c2.69-2.13,5.02-1.82,7.98-0.27c5.52,2.89,11.12,6,17.06,7.62c10.01,2.72,8.11,3.22,9.71,11.12
		c0.07,0.33,0.06,0.67,0.09,1c0.9,7.65,0.9,7.65,8.65,7.28c0.11-0.01,0.27,0.04,0.33-0.01c0.84-0.78,2.2-1.46,2.4-2.38
		c0.72-3.27,1.14-6.62,1.49-9.95c0.37-3.51,2.18-5.45,5.63-6.1c7.36-1.38,14.17-4.2,20.35-8.38c3.09-2.09,5.68-1.97,8.53,0.3
		c3.2,2.56,6.58,4.9,9.59,7.12c2.61-2.45,4.89-4.58,7.31-6.85c-2.66-3.63-5.22-7.16-7.82-10.64c-1.68-2.24-1.85-4.54-0.3-6.85
		c4.55-6.79,7.54-14.21,9.19-22.19c0.58-2.79,2.34-4.12,5.11-4.5c4.3-0.59,8.58-1.34,12.9-2.03c0-3.44,0-6.65,0-9.96
		c-4.03-0.59-7.89-1.28-11.77-1.67c-3.92-0.4-5.96-2.37-6.68-6.26c-1.31-7.13-4.13-13.72-8.19-19.71c-2.15-3.19-1.96-5.9,0.42-8.85
		c2.5-3.1,4.75-6.41,6.84-9.26c-2.41-2.61-4.52-4.89-6.82-7.38c-3.42,2.54-6.78,4.93-10.03,7.46c-2.65,2.06-5,1.93-8,0.36
		c-5.62-2.95-11.31-6.31-17.38-7.67c-6.44-1.44-9.37-4.38-9.42-10.69c0-0.33-0.07-0.67-0.11-1c-0.97-8.12-0.98-8.19-8.99-7.51
		c-0.9,0.08-2.23,1.31-2.43,2.21c-0.73,3.38-1.09,6.85-1.55,10.29c-0.42,3.15-2.07,5.05-5.27,5.66c-7.46,1.42-14.4,4.21-20.66,8.49
		c-3.07,2.1-5.68,1.95-8.54-0.35c-3.12-2.51-6.43-4.78-9.67-7.17c-2.49,2.44-4.77,4.68-7.15,7.01c2.62,3.58,5.09,7.04,7.67,10.42
		c1.79,2.35,1.94,4.73,0.32,7.14c-4.5,6.69-7.44,14.01-9.08,21.88c-0.54,2.61-2,4.14-4.67,4.55c-4.41,0.68-8.81,1.42-13.37,2.15
		c0,3.27,0,6.48,0,9.86c4.15,0.67,8.2,1.52,12.3,1.94c3.61,0.37,5.29,2.2,5.98,5.64c1.49,7.43,4.38,14.33,8.62,20.62
		c1.8,2.68,1.74,5.15-0.22,7.72c-2.56,3.36-5.03,6.8-7.54,10.21C389.76,490.69,391.98,492.88,394.45,495.31z M619.16,373.77
		c7.09-0.08,12.8-5.8,12.81-12.83c0.01-7.05-6.08-13.08-13.11-12.99c-7.16,0.1-12.8,6-12.68,13.28
		C606.31,368.39,611.96,373.84,619.16,373.77z M606.19,437.37c0.06,7.06,5.8,12.82,12.8,12.83c7.04,0.01,13.08-6.08,12.99-13.11
		c-0.09-7.01-5.87-12.71-12.93-12.74C611.79,424.32,606.13,430.05,606.19,437.37z M618.98,500.68c-7.19,0.01-12.73,5.51-12.79,12.7
		c-0.06,7.32,5.59,13.03,12.86,13.02c7-0.01,12.84-5.77,12.93-12.75C632.07,506.56,626.18,500.68,618.98,500.68z"/>
	<path class="st1" d="M672.37,593.7c-2.34,7.74-7.93,12.19-14.88,15.81c-14.5,7.54-28.75,15.58-43.12,23.37
		c-3.41,1.85-5.85,1.31-7.52-1.48c-1.73-2.88-0.87-5.53,2.59-7.43c12.66-6.95,25.36-13.85,38.04-20.77
		c3.15-1.72,6.32-3.38,9.44-5.15c5.03-2.86,6.7-8.26,4.04-12.87c-2.59-4.49-7.93-5.88-12.87-3.16c-15.6,8.59-31.1,17.36-46.75,25.85
		c-26.59,14.44-55.12,21.21-85.31,19.89c-13.4-0.59-26.74-2.73-40.1-4.17c-3.01-0.32-6.01-0.69-9.02-1.03
		c-3.58-0.41-5.87-2.51-5.82-5.35c0.04-2.73,2.2-4.78,5.61-5.21c25.67-3.21,51.34-6.4,77.01-9.61c2.56-0.32,5.11-0.69,7.64-1.16
		c5.04-0.94,7.78-4.6,7.3-9.59c-0.42-4.35-3.95-7.45-8.83-7.48c-11.89-0.07-23.78-0.03-35.67-0.03c-3.25,0-6.53-0.24-9.76,0.04
		c-14.17,1.26-27.63-2-41.26-5.38c-15.8-3.92-31.81-2.97-47.45,1.97c-0.85,0.27-1.7,0.58-2.58,0.73c-3.14,0.56-5.46-0.84-6.23-3.68
		c-0.69-2.56,0.57-5.24,3.44-6.06c5.58-1.6,11.2-3.23,16.92-4.17c17.94-2.96,35.47-0.83,52.7,4.74c1.54,0.5,3.75,0.15,5.23-0.61
		c20.29-10.5,40.5-21.14,60.72-31.77c4.07-2.14,8.28-3.44,12.91-2.45c8.13,1.73,12.87,6.95,14.87,16.64
		c2.12-1.15,4.23-2.11,6.15-3.36c12.13-7.91,26.1-1.5,28.42,12.81c3.15-1.65,6.32-3.01,9.18-4.86c11.46-7.4,25.77-1.99,28.36,12.35
		c3.21-0.22,6.47-0.97,9.58-0.56c8.19,1.08,13.58,5.87,16.25,13.7c0.17,0.5,0.49,0.94,0.74,1.41
		C672.37,588.31,672.37,591,672.37,593.7z M511.25,616.8c-0.03,0.11-0.07,0.23-0.1,0.34c0.43,0.07,0.87,0.16,1.3,0.19
		c18.17,1.23,35.96-0.89,53.47-5.86c24.03-6.81,44.54-20.71,66.1-32.5c1.63-0.89,3.18-3.63,3.12-5.45
		c-0.08-2.25-1.39-4.97-3.06-6.52c-2.44-2.26-5.58-1.48-8.46,0.05c-17.51,9.27-35.06,18.46-52.52,27.8
		c-1.27,0.68-2.39,2.22-2.91,3.61c-2.6,6.98-7.3,11.65-14.7,12.74C539.44,613.28,525.33,614.96,511.25,616.8z M504.34,573.32
		c1.28,0.29,1.68,0.45,2.07,0.45c9.87,0.02,19.73,0.04,29.6-0.02c0.96-0.01,2-0.32,2.86-0.78c6.72-3.58,13.43-7.17,20.07-10.88
		c4.12-2.3,5.46-6.8,3.39-10.6c-2.01-3.67-6.41-5.11-10.46-3.01C536.26,556.54,520.72,564.74,504.34,573.32z M568.36,584.63
		c8.05-4.24,16.73-8.62,25.18-13.4c1.8-1.02,3.31-3.32,3.99-5.35c0.92-2.73-0.35-5.3-2.79-6.99c-2.68-1.85-5.46-1.58-8.23-0.08
		c-9.32,5.07-18.65,10.13-27.97,15.21c-0.45,0.25-0.81,0.67-0.67,0.55C561.29,577.85,564.62,581.04,568.36,584.63z"/>
	<path class="st1" d="M482.49,682.58c-5.64-0.66-11.28-1.43-16.93-1.95c-19.98-1.84-39.97-3.5-59.94-5.41
		c-22.67-2.16-45.36-3.86-68.16-3.14c-1.46,0.05-2.92,0.06-4.37-0.04c-3.75-0.27-5.43-2.03-5.44-5.81c-0.02-21.77-0.02-43.53,0-65.3
		c0-4.15,1.74-5.92,5.92-5.94c10.32-0.05,20.64,0.06,30.96-0.1c1.74-0.03,3.65-0.79,5.17-1.71c6.7-4.06,13.23-8.41,19.94-12.46
		c3.57-2.15,6.52-1.39,8.06,1.59c1.43,2.78,0.24,5.22-3.18,7.38c-7.18,4.55-14.23,9.32-21.44,13.82c-1.51,0.94-3.51,1.51-5.29,1.54
		c-9.86,0.15-19.72,0.07-29.82,0.07c0,18.86,0,37.52,0,56.44c0.94,0.07,1.91,0.23,2.88,0.2c23.72-0.83,47.25,1.59,70.8,3.86
		c20.64,1.99,41.42,2.87,61.93,5.72c30.78,4.29,57.89-5.61,84.27-19.36c10.83-5.64,21.42-11.73,32.25-17.35
		c1.61-0.84,4.27-0.91,5.85-0.14c1.25,0.61,2.12,3.06,2.17,4.72c0.04,1.23-1.2,3.05-2.37,3.69c-25.46,14.05-50.36,29.35-79.04,36.39
		c-5.51,1.35-11.13,2.2-16.71,3.28C494.16,682.58,488.33,682.58,482.49,682.58z"/>
	<path class="st1" d="M445.7,476.03c-20.55-0.71-36.69-16.03-38.37-37c-1.48-18.52,12.76-36.26,31.9-39.3
		c15.33-2.43,27.97,2.78,37.03,15.27c8.83,12.15,9.67,25.44,3.36,39.09c-1.87,4.05-5.08,5.26-8.02,3.3c-2.37-1.57-2.9-4.16-1.32-7.4
		c3.01-6.18,3.79-12.61,2.2-19.28c-3.13-13.19-15.83-22.57-28.8-21.36c-14.42,1.35-25.39,12.38-25.98,26.14
		c-0.63,14.51,8.66,26.38,22.57,29.09c5.6,1.09,10.9,0.34,16.11-1.71c3.9-1.53,6.64-0.73,7.9,2.29c1.25,3.01-0.05,5.82-4.09,7.14
		C455.48,473.87,450.55,474.82,445.7,476.03z"/>
</g>
</svg>
