<?xml version="1.0" encoding="utf-8"?>
<!-- Generator: Adobe Illustrator 23.0.1, SVG Export Plug-In . SVG Version: 6.00 Build 0)  -->
<svg version="1.1" id="Layer_1" xmlns="http://www.w3.org/2000/svg" xmlns:xlink="http://www.w3.org/1999/xlink" x="0px" y="0px"
	 viewBox="0 0 1000 1000" style="enable-background:new 0 0 1000 1000;" xml:space="preserve">
<style type="text/css">
	.st0{fill:#20B798;}
	.st1{fill:#FFFFFF;}
</style>
<circle class="st0" cx="500" cy="500" r="308.38"/>
<g>
	<path class="st1" d="M692,543.56c-1.71,2.54-4.03,3.64-7.15,3.96c-11.3,1.15-22.56,2.65-33.85,3.85c-2.58,0.27-3.76,1.34-4.72,3.76
		c-18.89,47.87-52.91,79.85-102.07,94.85c-64.8,19.77-135.47-5.85-173.58-62.21c-1.75-2.59-3.26-3.58-6.55-3.16
		c-15.84,2.04-31.74,3.64-47.6,5.6c-3.58,0.44-6.33-0.26-8.48-3.15c0-43.5,0-87,0-130.5c1.71-2.55,4.02-3.61,7.16-3.93
		c11.43-1.15,22.82-2.68,34.24-3.92c2.32-0.25,3.35-1.28,4.18-3.39c20.04-50.7,56.43-83.56,109.15-96.98
		c41.28-10.51,80.77-4.04,117.65,17.53c2.77,1.62,4.97,3.56,4.05,7.16c-1.04,4.09-5.1,5.33-9.36,2.77
		c-12.29-7.37-25.36-12.79-39.22-16.41c-68.54-17.91-141.75,18.09-169.19,83.26c-0.53,1.25-0.96,2.55-1.58,4.21
		c6.12-0.73,11.95-1.32,17.72-2.23c1.02-0.16,2.12-1.52,2.7-2.59c20.13-37.68,51.06-61.34,93.14-68.28
		c46.63-7.69,86.19,7.15,118.01,42.12c2.44,2.68,4.58,4.3,8.19,3.2c0.7-0.21,1.49-0.11,2.23-0.21c3.82-0.49,7.64-0.99,11.99-1.55
		c-0.95-1.39-1.57-2.6-2.45-3.57c-6.88-7.57-13.68-15.22-20.78-22.57c-3.7-3.84-4.69-6.79-2.14-9.59c2.5-2.74,5.76-2.35,9.78,1.22
		c10.13,9.01,19.11,19.05,26.51,30.43c1.36,2.09,2.67,2.62,5.16,2.32c16.11-1.99,32.26-3.67,48.37-5.66
		c3.58-0.44,6.34,0.26,8.49,3.15C692,456.56,692,500.06,692,543.56z M319.41,578.53c120.65-13.99,240.83-27.92,361.1-41.86
		c0-38.47,0-76.64,0-115.04c-16.51,1.91-32.75,3.8-49,5.68c-28.91,3.34-57.82,6.65-86.72,10c-33.25,3.86-66.49,7.77-99.74,11.64
		c-4.65,0.54-7.49-1.24-7.94-4.79c-0.45-3.48,2.07-5.88,6.64-6.4c11.54-1.31,23.08-2.65,34.62-3.99c27.17-3.16,54.34-6.32,81.5-9.49
		c8.62-1,17.23-2.03,26.79-3.16c-29.92-30.5-65.17-43.16-106.41-36.29c-36.26,6.04-63.42,26.08-82.59,58.21
		c7.31-0.83,13.75-1.65,20.21-2.24c3.92-0.36,6.39,1.58,6.77,4.83c0.39,3.29-1.94,5.88-5.91,6.34c-24.07,2.81-48.14,5.57-72.21,8.36
		c-9.02,1.04-18.03,2.12-27.12,3.2C319.41,501.93,319.41,540.01,319.41,578.53z M634.8,553.36c-5.29,0.57-10.24,1.18-15.2,1.6
		c-2.7,0.23-4.33,1.26-5.65,3.87c-8.74,17.2-20.92,31.59-36.25,43.31c-3.61,2.76-6.67,2.72-8.92-0.01c-2.3-2.78-1.54-5.98,2.1-8.95
		c2.42-1.97,4.9-3.88,7.22-5.97c9.53-8.58,17.53-18.38,24.04-30.12c-63,7.31-125.46,14.55-188.67,21.88
		c22.77,23.98,49.8,36.55,81.86,38.02c18.91,0.87,36.99-2.85,54.19-10.85c3.9-1.81,7.17-0.79,8.57,2.39c1.36,3.09,0,6.05-3.77,7.77
		c-30,13.67-60.84,15.86-92.36,6.25c-23.92-7.29-43.8-20.85-60.07-39.81c-0.8-0.93-2.18-2.05-3.21-1.97
		c-5.78,0.46-11.53,1.26-18.23,2.06c33.37,44.29,76.8,65.69,131.42,61.75C573.59,640.11,617.81,598.28,634.8,553.36z"/>
	<path class="st1" d="M467.52,537.94c1.23-7.11,2.48-15,4-22.84c0.53-2.73,0.04-4.58-2.1-6.53c-5.35-4.88-10.41-10.09-15.61-15.14
		c-2.03-1.97-3.92-3.98-2.82-7.15c1.07-3.09,3.67-3.79,6.51-4.18c7.42-1.02,14.86-1.94,22.23-3.26c1.62-0.29,3.55-1.77,4.34-3.24
		c3.44-6.37,6.55-12.91,9.69-19.43c1.34-2.79,2.69-5.55,6.34-5.49c3.64,0.05,4.91,2.9,6.24,5.66c3.11,6.4,6.37,12.73,9.38,19.17
		c1.01,2.16,2.33,3.23,4.72,3.53c7.43,0.93,14.84,2.07,22.26,3.1c2.86,0.4,5.4,1.21,6.36,4.35c0.93,3.02-0.8,4.97-2.74,6.85
		c-5.37,5.23-10.68,10.53-16.13,15.68c-1.6,1.51-2.26,2.88-1.81,5.18c1.46,7.6,2.61,15.26,3.95,22.88c0.49,2.78,0.44,5.77-2.33,6.83
		c-1.99,0.77-4.93,0.54-6.91-0.39c-6.89-3.23-13.58-6.88-20.25-10.55c-1.96-1.08-3.44-1.18-5.46-0.07
		c-6.99,3.86-14.08,7.55-21.21,11.16C471.51,546.4,467.31,543.73,467.52,537.94z M480.49,529.07c5.63-2.95,10.64-5.43,15.51-8.17
		c2.81-1.58,5.31-1.53,8.1,0.02c4.88,2.71,9.88,5.21,15.39,8.08c-0.92-5.5-1.48-10.44-2.62-15.24c-1.07-4.51-0.08-7.83,3.46-10.96
		c3.74-3.31,6.93-7.26,10.42-10.99c-4.78-0.73-9.56-1.8-14.39-2.09c-4.88-0.29-7.74-2.45-9.57-6.88c-1.87-4.51-4.27-8.8-6.77-13.87
		c-2.8,5.66-5.31,10.37-7.49,15.24c-1.5,3.34-3.84,4.93-7.42,5.34c-5.35,0.62-10.67,1.53-15.8,2.29c3.5,3.75,6.57,7.57,10.19,10.76
		c3.63,3.19,4.76,6.58,3.62,11.26C481.97,518.57,481.44,523.41,480.49,529.07z"/>
	<path class="st1" d="M587.67,506c0.54-3.26,0.92-7.14,1.88-10.87c0.63-2.48-0.11-3.95-1.85-5.51c-2.6-2.33-5.3-4.65-7.43-7.38
		c-1.24-1.58-2.42-4.31-1.86-5.9c0.63-1.77,3.08-3.47,5.07-4.05c3.68-1.07,7.64-1.14,11.41-1.96c1.22-0.26,2.62-1.33,3.25-2.43
		c1.86-3.24,3.08-6.87,5.15-9.95c1.17-1.73,3.53-3.65,5.35-3.65c1.82,0,4.2,1.93,5.33,3.67c2.43,3.74,3.28,9.16,6.52,11.52
		c3.24,2.37,8.57,1.93,13.01,2.56c2.72,0.39,5.24,1.45,5.39,4.24c0.11,2.06-1.29,4.22-2.09,6.3c-0.16,0.42-0.64,0.78-1.05,1.04
		c-7.9,4.98-9.55,11.9-6.51,20.41c1.03,2.9,0.82,5.76-1.94,7.75c-2.66,1.92-5.46,1.16-7.64-0.64c-7.78-6.4-15.01-5.02-22.79,0.3
		C592.04,514.77,587.51,511.97,587.67,506z M596.06,481.3c2.12,2.84,4.34,4.77,5.16,7.19c0.8,2.35,0.17,5.18,0.17,8.59
		c4.8-4.87,9.74-3.91,15.08-0.59c-2.43-6.34-0.2-10.82,4.72-14.73c-6.8,0.33-10.43-3.26-12.72-10.06
		C606.52,478.76,602.87,481.93,596.06,481.3z"/>
	<path class="st1" d="M370.32,534.97c0.61-3.47,1.18-7.3,2-11.08c0.48-2.2-0.01-3.76-1.71-5.27c-2.7-2.4-5.47-4.83-7.68-7.65
		c-1.22-1.56-2.33-4.32-1.74-5.89c0.67-1.78,3.1-3.41,5.1-4.06c3.04-0.99,6.36-1.35,9.58-1.47c3.07-0.12,4.69-1.43,5.8-4.19
		c1.25-3.12,2.62-6.28,4.54-8.99c1.14-1.61,3.46-3.32,5.22-3.3c1.75,0.02,4,1.81,5.1,3.44c2.01,2.97,3.45,6.35,4.9,9.65
		c0.9,2.06,2.1,3.07,4.44,3.24c3.6,0.27,7.26,0.63,10.71,1.62c1.91,0.55,4.32,2.15,4.89,3.83c0.57,1.66-0.73,4.07-1.54,6.02
		c-0.4,0.96-1.53,1.61-2.34,2.39c-7.86,7.64-7.85,7.64-5.81,18.47c0.21,1.1,0.45,2.21,0.51,3.32c0.31,5.16-3.63,7.96-8.32,5.78
		c-3.39-1.57-6.72-3.31-9.94-5.21c-1.98-1.17-3.56-1.07-5.5,0.06c-3.23,1.89-6.54,3.66-9.94,5.2
		C374.14,542.94,370.06,540.1,370.32,534.97z M403.98,510.57c-6.64,0.22-10.54-2.97-12.69-9.07c-1.81,6.46-6.24,8.93-12.54,9.33
		c5.68,3.67,6.73,8.53,4.89,14.87c5.26-4.86,10.31-3.46,16.29,0.39C396.94,519.03,398.93,514.48,403.98,510.57z"/>
	<path class="st1" d="M499.97,411.43c9.48,0,18.97-0.02,28.45,0.01c4.74,0.01,7.2,2.05,7.1,5.73c-0.09,3.44-2.63,5.49-7.06,5.5
		c-18.97,0.03-37.94,0.03-56.9,0c-4.61-0.01-7.19-2.2-7.09-5.83c0.09-3.52,2.47-5.39,7.05-5.4
		C481.01,411.4,490.49,411.43,499.97,411.43z"/>
	<path class="st1" d="M500,405.62c-4.73,0-9.47,0.05-14.2-0.02c-3.89-0.05-6.14-2.11-6.19-5.46c-0.05-3.33,2.22-5.69,6-5.73
		c9.59-0.1,19.18-0.1,28.77,0c3.79,0.04,6.05,2.39,6.01,5.72c-0.05,3.35-2.3,5.41-6.19,5.47C509.47,405.67,504.73,405.62,500,405.62
		z"/>
	<path class="st1" d="M500.01,590.25c-9.48,0-18.97,0.02-28.45-0.01c-4.72-0.02-7.2-2.07-7.1-5.74c0.1-3.44,2.62-5.48,7.06-5.49
		c18.97-0.03,37.93-0.01,56.9-0.01c0.5,0,1-0.02,1.5,0.04c3.53,0.38,5.68,2.62,5.59,5.8c-0.09,3.23-2.24,5.33-5.93,5.36
		c-9.86,0.09-19.71,0.03-29.57,0.03C500.01,590.24,500.01,590.24,500.01,590.25z"/>
	<path class="st1" d="M500.16,596.04c4.73,0,9.47-0.06,14.2,0.02c3.78,0.07,6.08,2.29,6.04,5.63c-0.04,3.17-2.25,5.5-5.8,5.54
		c-9.72,0.11-19.43,0.11-29.15,0c-3.71-0.04-5.96-2.51-5.83-5.86c0.12-3.2,2.32-5.25,5.97-5.31
		C490.44,595.98,495.3,596.04,500.16,596.04z"/>
</g>
</svg>
