<?xml version="1.0" encoding="utf-8"?>
<!-- Generator: Adobe Illustrator 23.0.1, SVG Export Plug-In . SVG Version: 6.00 Build 0)  -->
<svg version="1.1" id="Layer_1" xmlns="http://www.w3.org/2000/svg" xmlns:xlink="http://www.w3.org/1999/xlink" x="0px" y="0px"
	 viewBox="0 0 1000 1000" style="enable-background:new 0 0 1000 1000;" xml:space="preserve">
<style type="text/css">
	.st0{fill:#20B798;}
	.st1{fill:#FFFFFF;}
</style>
<circle class="st0" cx="500" cy="500" r="308.38"/>
<g>
	<path class="st1" d="M470.89,617.18c0-11.59,0-22.73,0-34.17c-1.34,0-2.53,0-3.72,0c-27.66,0-55.32,0-82.97,0
		c-9.86,0-15.66-5.83-15.66-15.77c-0.01-57.96-0.01-115.92,0-173.88c0-9.55,5.83-15.36,15.41-15.36
		c22.88-0.01,45.76-0.03,68.64,0.05c2.06,0.01,3.31-0.63,4.48-2.3c4.42-6.33,8.97-12.58,13.51-18.83c3.2-4.42,6.06-4.51,9.49-0.36
		c5.62,6.81,11.23,13.62,17,20.61c1.37-1.08,2.54-2.03,3.75-2.93c6.52-4.89,14.88-3.94,20.32,2.1c0.84,0.94,2.53,1.58,3.82,1.58
		c30.4,0.09,60.81,0.07,91.21,0.07c10.38,0,15.96,5.6,15.97,16.03c0,5.89,0,11.78,0,18.14c4.24,0,8.36,0,12.48,0
		c11.19,0,16.81,5.66,16.81,16.93c0,52.16,0,104.33,0,156.49c0,11.39-5.62,16.96-17.1,16.96c-27.56,0-55.12-0.28-82.67,0.13
		c-11.67,0.18-18.49-7.85-17.4-17.41c0.07-0.59,0.01-1.2,0.01-2.03c-4.84,0-9.56,0-14.46,0c0,11.21,0,22.43,0,33.95
		c1.2,0,2.29,0,3.38,0c10.17,0,20.34-0.06,30.5,0.02c8.34,0.07,14.77,6.56,14.73,14.7c-0.04,8-6.42,14.52-14.59,14.54
		c-43.93,0.06-87.85,0.05-131.78,0c-8.33-0.01-14.75-6.61-14.69-14.74c0.05-7.98,6.46-14.43,14.63-14.49
		c11.79-0.09,23.59-0.02,35.39-0.02C468.48,617.18,469.58,617.18,470.89,617.18z M378.3,533.98c55.52,0,110.66,0,165.97,0
		c0-1.43,0-2.64,0-3.85c0-33.96-0.01-67.93,0-101.89c0-10.13,5.97-16.06,16.14-16.07c19.52-0.01,39.05,0,58.57,0
		c1.07,0,2.15,0,3.38,0c0-6.31,0.01-12.2,0-18.08c-0.01-4.97-1.36-6.32-6.31-6.32c-29.59,0-59.18,0-88.78,0c-1,0-2,0-3.01,0
		c0.21,0.24,0.42,0.48,0.63,0.72c-2.97,3.73-5.94,7.46-9.11,11.44c0.41,0.52,1.13,1.48,1.89,2.41c4.91,5.97,9.85,11.91,14.73,17.9
		c3.07,3.77,2.29,6.91-2.15,8.97c-0.46,0.21-0.93,0.41-1.4,0.61c-16.86,7.31-33.71,14.63-50.57,21.94
		c-7.52,3.26-15.04,6.54-22.79,9.9c0.82,1.05,1.41,1.86,2.04,2.63c5.73,7.01,11.43,14.03,17.2,21c3.35,4.04,4.62,8.57,3.24,13.65
		c-1.46,5.35-5.06,8.84-10.42,10.07c-5.82,1.34-10.9-0.3-14.77-4.98c-6.02-7.29-11.97-14.64-17.96-21.96
		c-0.94-1.15-1.91-2.29-2.85-3.41c-0.73,0.49-1.15,0.78-1.57,1.06c-10.93,7.13-24.83,4.91-32.44-5.19
		c-7.76-10.3-6.08-24.3,3.99-32.82c3.1-2.63,6.35-5.08,9.46-7.7c3.18-2.67,6.87-5,9.31-8.25c8.93-11.85,17.44-24.01,26.09-36.07
		c0.36-0.51,0.57-1.13,0.95-1.91c-21.19,0-42.03,0-62.88,0c-5.38,0-6.63,1.24-6.63,6.61c0,45.46,0,90.91,0,136.37
		C378.3,531.74,378.3,532.74,378.3,533.98z M651.53,446.55c-32.63,0-64.99,0-97.25,0c0,40.72,0,81.22,0,121.64
		c32.54,0,64.83,0,97.25,0C651.53,527.6,651.53,487.17,651.53,446.55z M544.13,544.17c-55.42,0-110.55,0-165.63,0
		c-0.09,0.41-0.18,0.6-0.18,0.79c-0.01,7.32-0.04,14.63-0.03,21.95c0.01,4.95,1.38,6.3,6.34,6.3c52.04,0,104.07,0,156.11,0
		c1.08,0,2.17,0,3.38,0C544.13,563.37,544.13,553.86,544.13,544.17z M449.18,453.8c24.25-10.53,48.25-20.94,72.55-31.49
		c-15.41-18.66-30.66-37.11-46.14-55.84c-15.38,21.39-30.59,42.54-45.93,63.89C436.15,438.15,442.57,445.86,449.18,453.8z
		 M554.07,436.41c32.59,0,64.94,0,97.58,0c0-2.65,0-5.16,0-7.67c-0.01-5.36-1.48-6.81-6.9-6.81c-27.94,0-55.87,0-83.81,0
		c-0.81,0-1.64-0.06-2.44,0.05c-2.52,0.34-4.21,1.81-4.38,4.32C553.9,429.61,554.07,432.94,554.07,436.41z M554.03,578.25
		c0,2.67,0,5,0,7.33c0,5.82,1.35,7.18,7.14,7.18c27.84,0,55.67,0,83.51,0c0.91,0,2.08,0.31,2.69-0.13c1.53-1.1,3.74-2.39,4.01-3.91
		c0.6-3.4,0.19-6.98,0.19-10.48C618.92,578.25,586.64,578.25,554.03,578.25z M497.58,636.7c21.56,0,43.12,0,64.67,0
		c4.11,0,6.39-1.76,6.39-4.88c0-3.12-2.26-4.85-6.39-4.88c-0.31,0-0.61,0-0.92,0c-42.3,0-84.61,0-126.91,0
		c-1.02,0-2.06-0.1-3.04,0.08c-2.63,0.48-4.21,2.1-4.21,4.8c0,2.7,1.59,4.32,4.22,4.8c0.99,0.18,2.03,0.08,3.04,0.08
		C455.49,636.7,476.53,636.7,497.58,636.7z M519.64,617.18c0-11.59,0-22.8,0-33.92c-13.06,0-25.89,0-38.67,0
		c0,11.38,0,22.52,0,33.81c0.64,0.04,1.12,0.11,1.61,0.11C494.86,617.18,507.15,617.18,519.64,617.18z M422.56,437.4
		c-5.31,4.37-10.44,8.34-15.28,12.65c-5.41,4.82-6.12,12.44-2.04,18.19c3.97,5.6,11.99,7.92,17.85,4.2
		c6.11-3.87,11.58-8.74,17.44-13.26C434.4,451.75,428.6,444.72,422.56,437.4z M439.63,472.38c1.87,2.28,3.47,4.24,5.08,6.19
		c5.17,6.28,10.3,12.59,15.52,18.82c2.02,2.4,4.94,2.68,7,0.92c1.82-1.55,2.15-4.22,0.48-6.3c-6.83-8.45-13.76-16.82-20.81-25.41
		C444.46,468.55,442.17,470.37,439.63,472.38z M509.04,391.82c2.51-2.4,6.19-3.59,5.18-7.57c-0.32-1.28-1.84-2.78-3.12-3.18
		c-3.53-1.1-5.37,1.86-7.77,3.72C505.28,387.2,507.06,389.38,509.04,391.82z"/>
	<path class="st1" d="M602.69,543.96c-7.73,0-15.45,0.02-23.18,0c-9.55-0.03-15.7-6.09-15.71-15.57c-0.03-14.03-0.03-28.05,0-42.08
		c0.02-9.47,6.16-15.55,15.71-15.56c15.55-0.02,31.1-0.02,46.66,0c9.54,0.01,15.7,6.09,15.72,15.56c0.03,14.03,0.03,28.05,0,42.08
		c-0.02,9.49-6.15,15.54-15.72,15.57C618.34,543.97,610.51,543.96,602.69,543.96z M603.06,534.19c7.63,0,15.25,0.02,22.88-0.01
		c4.43-0.01,6.18-1.69,6.18-6.01c0.02-13.93,0.03-27.86,0-41.79c-0.01-4.14-1.79-5.87-6.01-5.87c-15.56-0.02-31.12-0.02-46.67,0
		c-4.14,0.01-5.87,1.78-5.87,6c-0.02,13.93-0.02,27.86,0,41.79c0.01,4.14,1.78,5.86,6,5.88
		C587.4,534.22,595.23,534.19,603.06,534.19z"/>
	<path class="st1" d="M500.14,563.46c-1.63,0-3.26,0.1-4.88-0.03c-2.72-0.21-4.6-2.19-4.66-4.73c-0.06-2.66,1.88-4.82,4.75-4.94
		c3.35-0.14,6.71-0.14,10.06,0.01c2.72,0.12,4.61,2.17,4.67,4.71c0.06,2.65-1.89,4.76-4.75,4.95
		C503.6,563.56,501.86,563.46,500.14,563.46z"/>
	<path class="st1" d="M588.2,507.13c0-4.16-0.25-8.34,0.12-12.46c0.16-1.78,1.16-4.19,2.54-4.95c1.37-0.75,4.07-0.39,5.51,0.53
		c6.31,4.05,12.41,8.42,18.51,12.78c3.59,2.57,3.55,6.1-0.09,8.7c-6.1,4.36-12.21,8.72-18.51,12.79c-1.37,0.89-3.98,1.26-5.24,0.53
		c-1.41-0.82-2.56-3.11-2.71-4.85C587.94,515.87,588.2,511.49,588.2,507.13z M604.04,507.33c-2.23-1.54-3.93-2.72-5.86-4.06
		c0,2.9,0,5.33,0,8.15C600.23,510,601.93,508.81,604.04,507.33z"/>
</g>
</svg>
