<?xml version="1.0" encoding="utf-8"?>
<!-- Generator: Adobe Illustrator 23.0.1, SVG Export Plug-In . SVG Version: 6.00 Build 0)  -->
<svg version="1.1" id="Layer_1" xmlns="http://www.w3.org/2000/svg" xmlns:xlink="http://www.w3.org/1999/xlink" x="0px" y="0px"
	 viewBox="0 0 1000 1000" style="enable-background:new 0 0 1000 1000;" xml:space="preserve">
<style type="text/css">
	.st0{fill:#20B798;}
	.st1{fill:#FFFFFF;}
</style>
<circle class="st0" cx="500" cy="500" r="308.38"/>
<g>
	<path class="st1" d="M511.17,582.69c21.93,0,43.81,0.38,65.66-0.14c13.61-0.32,24.47-12.35,24.82-25.91
		c0.37-14.25-9.53-25.57-24.5-27.7c-4.3,11.46-12.34,18.4-25.08,17.66c-11.18-0.65-18.2-7.33-21.83-17.84c-1.59,0-3.08,0-4.58,0
		c-45.37,0-90.74,0.05-136.11-0.02c-23.11-0.04-40.55-17.89-39.84-40.55c0.62-19.87,17.1-36.55,36.97-37.35
		c3.74-0.15,7.49-0.02,11.44-0.02c4.23-11.53,12.1-18.46,24.69-17.93c11.38,0.48,18.52,7.15,22.21,17.66c45.26,0,90.41,0,134.86,0
		c-6.77-5.1-14.32-9.99-20.91-15.93c-14.97-13.5-23.35-30.34-23.29-50.85c0.07-25.26,19.91-45.85,45.71-47.54
		c24-1.58,46.27,16.52,49.6,40.8c2.8,20.43-4.23,37.83-17.79,52.86c-7.76,8.6-17.01,15.32-27.61,20.68
		c0.98,0.85,2.06,1.35,2.33,2.13c0.67,1.89,1.78,4.24,1.18,5.8c-0.68,1.74-2.93,3.05-4.75,4.1c-0.95,0.55-2.45,0.16-3.69,0.16
		c-44,0-87.99,0-131.99,0.01c-1.92,0-3.61-0.36-4.65,2.36c-3.8,9.87-12.45,15.66-22.5,15.63c-9.99-0.03-18.47-6.04-22.4-15.85
		c-0.27-0.68-0.61-1.34-1.08-2.36c-4.8,0.26-9.74,0.02-14.48,0.87c-13.75,2.47-23.08,15.09-21.8,28.85
		c1.27,13.58,12.62,24.32,26.37,24.45c19.87,0.18,39.75,0.06,59.62,0.06c26.12,0,52.25,0,78.37,0c1.36,0,2.72,0,4.14,0
		c3.1-9.06,8.79-15.22,18.19-17.36c11.37-2.59,22.79,3.19,27.21,14.04c1.05,2.58,2.42,3.51,5.02,3.93
		c18.54,3.01,32.18,18.16,32.94,36.39c0.79,18.93-11.36,35.32-29.76,39.79c-3.6,0.87-7.41,1.14-11.13,1.16
		c-20.49,0.11-40.99,0.05-61.56,0.05c-0.53,1.24-0.97,2.4-1.5,3.51c-4.43,9.37-11.88,14.47-22.21,14.39
		c-10.17-0.08-17.67-5.11-21.68-14.5c-1.22-2.87-2.65-3.52-5.47-3.46c-8.37,0.17-16.75,0.08-25.12,0.05c-4.73-0.02-7.47-2.25-7.47-6
		c0-3.75,2.73-5.97,7.47-5.99c8.75-0.03,17.5-0.05,26.25,0.03c1.94,0.02,3.03-0.31,3.86-2.43c3.88-9.84,12.49-15.66,22.53-15.6
		c10.03,0.06,18.48,6.04,22.4,15.85C510.5,581.31,510.84,581.97,511.17,582.69z M547.69,386.12c0.05,0.63,0.11,2.38,0.34,4.11
		c2.99,21.79,16.46,35.99,34.22,47.03c0.73,0.45,2.23,0.43,2.98-0.03c18.03-11.01,31.25-25.53,34.17-47.45
		c2.74-20.53-12.47-39.44-32.96-40.93C565.42,347.33,547.63,363.91,547.69,386.12z M421.77,468.74c6.54-0.05,11.87-5.42,11.89-11.98
		c0.02-6.49-5.4-11.95-11.89-11.98c-6.71-0.03-12.17,5.48-12.07,12.17C409.8,463.49,415.23,468.79,421.77,468.74z M553.84,534.74
		c6.54-0.09,11.84-5.48,11.82-12.05c-0.01-6.49-5.47-11.92-11.96-11.91c-6.71,0.01-12.14,5.55-12.01,12.24
		C541.83,529.55,547.29,534.82,553.84,534.74z M487.61,576.78c-6.56,0.06-11.9,5.41-11.91,11.95c-0.01,6.69,5.54,12.14,12.23,12
		c6.53-0.13,11.79-5.58,11.73-12.14C499.6,582.11,494.1,576.72,487.61,576.78z"/>
	<path class="st1" d="M421.4,590.35c-1.16,1.1-2.76,3.37-4.95,4.57c-16.5,9.07-33.11,17.93-49.68,26.86
		c-8.34,4.49-16.71,8.94-25.02,13.49c-2.73,1.49-5.32,2.2-7.96-0.01c-2.59-2.17-2.54-4.86-1.64-7.84
		c3.54-11.69,7.1-23.38,10.39-35.14c0.62-2.22,0.59-4.93-0.04-7.16c-3.26-11.64-6.77-23.21-10.27-34.78
		c-0.92-3.05-1.32-5.92,1.47-8.21c2.81-2.3,5.53-1.24,8.32,0.26c24.69,13.33,49.39,26.62,74.1,39.89
		C418.87,583.77,421.34,585.36,421.4,590.35z M403.03,588.76c-18.73-10.13-36.58-19.79-55.38-29.97c1.73,5.83,2.74,10.86,4.69,15.49
		c4.04,9.59,4.21,18.88,0.09,28.5c-2.03,4.74-3.03,9.91-4.81,15.96C366.51,608.53,384.4,598.84,403.03,588.76z"/>
	<path class="st1" d="M560.42,384.4c0-13.02,10.56-23.61,23.58-23.63c13-0.02,23.74,10.67,23.67,23.56
		c-0.07,13.03-10.97,23.77-24.05,23.69C570.88,407.94,560.42,397.29,560.42,384.4z M583.87,372.78c-6.15,0-11.36,5.22-11.44,11.46
		c-0.08,6.4,5.11,11.72,11.5,11.77c6.39,0.05,11.76-5.26,11.73-11.57C595.63,378.26,590.09,372.77,583.87,372.78z"/>
</g>
</svg>
