<?xml version="1.0" encoding="utf-8"?>
<!-- Generator: Adobe Illustrator 23.0.1, SVG Export Plug-In . SVG Version: 6.00 Build 0)  -->
<svg version="1.1" id="Layer_1" xmlns="http://www.w3.org/2000/svg" xmlns:xlink="http://www.w3.org/1999/xlink" x="0px" y="0px"
	 viewBox="0 0 1000 1000" style="enable-background:new 0 0 1000 1000;" xml:space="preserve">
<style type="text/css">
	.st0{fill:#20B798;}
	.st1{fill:#FFFFFF;}
</style>
<circle class="st0" cx="500" cy="500" r="308.38"/>
<g>
	<path class="st1" d="M512.77,539.05c-22.46,0-44.41,0-66.76,0c0,5.5,0.02,10.83-0.01,16.17c-0.02,4.79-2.14,7.53-5.84,7.63
		c-3.84,0.1-6.14-2.74-6.15-7.7c-0.01-22.62,0.06-45.25-0.07-67.87c-0.02-3.84,1.6-5.92,4.92-7.46
		c18.02-8.31,35.98-16.74,53.96-25.11c2.77-1.29,4.51-3.11,3.78-6.42c-1.01-4.56-4.36-6.34-8.67-4.35
		c-17.79,8.21-35.51,16.55-53.35,24.65c-2.22,1.01-5.07,1.47-7.47,1.1c-17.96-2.79-35.59-1.96-52.9,3.86
		c-7.02,2.36-12.08,8.51-12.14,15.91c-0.16,20.87-0.09,41.75-0.05,62.62c0.01,3.8,2.14,5.73,5.87,5.77
		c3.89,0.05,6.06-1.94,6.07-5.95c0.05-17.37,0.02-34.75,0.03-52.12c0-1.25-0.12-2.53,0.12-3.74c0.6-3.06,2.59-4.81,5.69-5.05
		c2.88-0.22,5.59,2.05,6.06,5.04c0.21,1.34,0.12,2.74,0.12,4.12c0.01,42.5,0,84.99,0.01,127.49c0,6.92,4.02,10.44,10.72,9.51
		c4.68-0.65,7.24-3.66,7.25-8.86c0.04-16,0.02-32,0.02-48c0-8.87-0.02-17.75,0.01-26.62c0.02-4.64,2.4-7.4,6.17-7.28
		c3.62,0.11,5.81,2.76,5.81,7.27c0.02,24.75,0,49.5,0.02,74.24c0.01,6.44,3.56,9.74,9.85,9.33c5.04-0.33,8.03-3.32,8.1-8.45
		c0.1-7.12,0.03-14.25,0.03-21.37c0.01-5.7,2.07-8.57,6.09-8.51c3.99,0.06,5.91,2.88,5.91,8.69c0,6.62-0.08,13.25,0.02,19.87
		c0.12,8.59-2.86,15.51-10.82,19.41c-8.03,3.94-15.95,3.35-23.4-1.79c-0.51-0.35-1.01-0.74-1.74-1.27c-4.69,3.71-10,5.75-16.16,5.48
		c-11.62-0.52-19.86-8.91-19.89-20.57c-0.05-18.37-0.01-36.75-0.01-55.12c0-1.35,0-2.7,0-3.87c-3.04,0-5.77,0.21-8.45-0.04
		c-8.91-0.82-15.47-7.81-15.51-16.76c-0.1-21.12-0.13-42.25,0.01-63.37c0.08-12.88,9.14-24.4,21.63-27.96
		c4.41-1.26,8.86-2.36,13.75-3.66c-9.3-10.39-13.14-22.09-8.8-35.37c4.26-13.03,13.62-20.86,27.37-24.3c0-5.42,0-10.99,0-16.56
		c0-12.47,7.33-19.84,19.75-19.84c30.87,0,61.75,0,92.62,0c1.36,0,2.73,0,4.47,0c0.62-4.88-1.46-12.06,6.53-11.77
		c7.14,0.27,5.25,6.81,5.81,11.77c1.54,0,3,0,4.46,0c31,0,62,0,92.99,0c11.88,0,19.37,7.53,19.37,19.47c0.01,21.62,0,43.25,0,64.87
		c0,1.12,0.11,2.28-0.09,3.37c-0.59,3.23-2.57,5.2-5.88,5.21c-3.31,0.01-5.31-1.93-5.92-5.16c-0.21-1.09-0.1-2.24-0.1-3.37
		c0-21.37,0-42.75-0.01-64.12c0-6.39-1.87-8.27-8.23-8.27c-68.49,0-136.99,0-205.48,0c-6.4,0-8.27,1.87-8.28,8.22
		c-0.01,5.36,0,10.72,0,16c24.9,5.96,37.4,32.59,22.5,55.46c7.09-3.27,13.61-6.26,20.11-9.29c8.03-3.75,16.04-7.52,24.04-11.33
		c9.64-4.59,19.68-1.08,24.23,8.52c4.57,9.63,0.99,19.58-8.75,24.14c-15.37,7.19-30.66,14.57-46.22,21.34
		c-4.8,2.09-6.26,4.63-6.04,9.67c0.42,9.95,0.13,19.93,0.13,30.28c1.68,0,3.01,0,4.35,0c59.62,0,119.24,0,178.86,0
		c7.11,0,8.78-1.69,8.79-8.85c0-6.62-0.03-13.25,0.01-19.87c0.02-4.47,2.23-7.15,5.84-7.25c3.74-0.1,6.12,2.69,6.14,7.33
		c0.03,7.25,0.02,14.5,0.01,21.75c-0.03,11.14-7.73,18.88-18.83,18.89c-34,0.02-67.99,0.01-101.99,0.01c-1.34,0-2.69,0-4.41,0
		c0,3.55,0,6.77,0,9.98c0,13.25,0.07,26.5-0.06,39.75c-0.03,2.64,0.82,4.33,2.8,6.03c16.46,14.21,32.83,28.53,49.22,42.81
		c0.75,0.66,1.55,1.28,2.23,2c2.51,2.65,2.65,5.94,0.4,8.42c-2.23,2.46-5.58,2.75-8.41,0.41c-4.24-3.5-8.32-7.19-12.46-10.8
		c-10.27-8.95-20.53-17.91-30.81-26.85c-0.73-0.64-1.52-1.2-2.92-2.29c0,6.16,0.09,11.7-0.03,17.24c-0.1,4.36-3.69,7.25-7.48,6.09
		c-3.15-0.96-4.51-3.3-4.49-6.56c0.03-5.34,0.01-10.67,0.01-16.71c-1.63,1.31-2.77,2.17-3.85,3.11
		c-13.77,11.97-27.54,23.94-41.28,35.96c-2.61,2.28-5.3,3.38-8.44,1.24c-3.5-2.38-3.5-6.67,0.13-9.87
		c9.56-8.43,19.21-16.77,28.81-25.14c7.54-6.57,15.09-13.12,22.56-19.76c0.92-0.82,1.96-2.16,1.97-3.27
		C512.81,573.57,512.77,556.47,512.77,539.05z M409.98,455.78c12.56,0.07,22.99-10.14,23.15-22.63
		c0.16-12.48-10.53-23.24-23.08-23.26c-12.4-0.01-22.97,10.4-23.15,22.82C386.72,445.21,397.22,455.71,409.98,455.78z"/>
	<path class="st1" d="M527.02,409.88c-18.12,0-36.25,0-54.37,0c-1.12,0-2.28,0.11-3.37-0.09c-3.22-0.6-5.19-2.58-5.19-5.9
		c0-3.32,1.95-5.3,5.18-5.91c1.09-0.2,2.24-0.09,3.37-0.09c36.25,0,72.49,0,108.74,0c1.12,0,2.28-0.11,3.37,0.09
		c3.23,0.6,5.18,2.59,5.19,5.9c0.01,3.32-1.96,5.3-5.18,5.91c-1.09,0.21-2.24,0.09-3.37,0.1
		C563.26,409.89,545.14,409.88,527.02,409.88z"/>
	<path class="st1" d="M561.13,481.88c-14.6,0-29.21,0-43.81,0c-1.12,0-2.28,0.11-3.36-0.14c-3.01-0.69-4.87-2.6-4.9-5.76
		c-0.03-3.33,1.85-5.34,5.07-5.98c1.2-0.24,2.49-0.11,3.73-0.11c29.08,0,58.16,0,87.24,0c0.87,0,1.75-0.03,2.62,0.02
		c3.79,0.22,6.31,2.67,6.25,6.06c-0.05,3.38-2.58,5.74-6.42,5.9c-1.62,0.07-3.24,0.02-4.87,0.02
		C588.84,481.88,574.98,481.88,561.13,481.88z"/>
	<path class="st1" d="M564.12,433.88c-13.73,0-27.47,0-41.2,0c-1.12,0-2.27,0.11-3.36-0.08c-3.22-0.57-5.13-2.46-5.28-5.81
		c-0.14-3.15,2.14-5.71,5.44-6.03c1.86-0.18,3.74-0.07,5.61-0.07c26.47,0,52.93,0,79.4,0c1,0,2-0.04,3,0.02
		c3.79,0.21,6.31,2.66,6.26,6.06c-0.05,3.38-2.58,5.86-6.42,5.89c-9.99,0.08-19.97,0.03-29.96,0.03
		C573.1,433.88,568.61,433.88,564.12,433.88z"/>
	<path class="st1" d="M567.51,445.88c12.99,0,25.97-0.01,38.96,0.01c4.74,0.01,7.48,2.21,7.52,5.94c0.04,3.75-2.71,6.04-7.41,6.05
		c-26.1,0.02-52.19,0.02-78.29,0c-4.72,0-7.37-2.29-7.29-6.13c0.08-3.67,2.67-5.84,7.18-5.85
		C541.29,445.87,554.4,445.89,567.51,445.88z"/>
	<path class="st1" d="M644.14,478.85c-3.25,0.08-6.01-2.57-6.1-5.83c-0.08-3.28,2.52-5.98,5.84-6.06c3.3-0.08,6.02,2.52,6.1,5.8
		C650.05,476.01,647.4,478.78,644.14,478.85z"/>
	<path class="st1" d="M445.98,580.7c0.1,3.24-2.53,6.04-5.78,6.15c-3.24,0.11-6.04-2.52-6.15-5.77c-0.12-3.27,2.47-6.01,5.78-6.12
		C443.12,574.85,445.88,577.43,445.98,580.7z"/>
</g>
</svg>
