<?xml version="1.0" encoding="utf-8"?>
<!-- Generator: Adobe Illustrator 23.0.1, SVG Export Plug-In . SVG Version: 6.00 Build 0)  -->
<svg version="1.1" id="Layer_1" xmlns="http://www.w3.org/2000/svg" xmlns:xlink="http://www.w3.org/1999/xlink" x="0px" y="0px"
	 viewBox="0 0 1000 1000" style="enable-background:new 0 0 1000 1000;" xml:space="preserve">
<style type="text/css">
	.st0{fill:#20B798;}
	.st1{fill:#FFFFFF;}
</style>
<circle class="st0" cx="500" cy="500" r="308.38"/>
<g>
	<path class="st1" d="M699.8,390c-1.98,4.03-4.93,6.58-10.09,6.12c0,1.57,0,2.89,0,4.2c0,32.74,0,65.49,0,98.23
		c0,8.07-2.83,10.91-10.92,10.92c-19.51,0.01-39.02,0-58.54,0c-1.33,0-2.66,0-3.91,0c-1.32,5.54-1.03,6.32,3.23,9.18
		c5.79,3.89,8.36,11.1,6.31,17.72c-2.04,6.61-7.93,11.05-14.78,11.15c-7.05,0.1-13.23-4.27-15.37-10.85
		c-2.13-6.56,0.33-13.87,6.02-17.85c4.37-3.06,4.37-3.06,3.64-9.15c-1.01-0.07-2.09-0.19-3.16-0.19
		c-15.14-0.01-30.28,0.04-45.42-0.06c-2.4-0.02-3.85,0.76-5.27,2.68c-6.44,8.76-13.04,17.4-19.69,26.22
		c0.35,0.55,0.64,1.13,1.05,1.61c5.1,5.98,7.36,12.95,7.35,20.75c-0.01,29.27,0,58.54-0.01,87.8c0,5.61-1.61,7.22-7.19,7.22
		c-41.83,0.01-83.65,0.04-125.48-0.05c-4.05-0.01-7.62,0.63-11.07,2.89c-6.54,4.3-13.87,4.88-21.35,3.35
		c-11.43-2.33-19.74-12.28-19.8-23.98c-0.12-26.35-0.16-52.71,0.01-79.06c0.1-15.05,11.63-27.42,26.53-29.06
		c0.97-0.11,1.93-0.29,3.21-0.48c-1.11-6.72-2.24-13.2-3.23-19.71c-3.7-24.16-6.77-48.39-7.59-72.85
		c-0.36-10.84,0.98-21.47,4.67-31.73c0.84-2.34,2.01-4.28,4.8-4.52c3.95-0.34,6.41,3.17,4.89,7.37c-3.62,9.97-4.71,20.27-4.23,30.77
		c1.36,29.83,5.46,59.34,10.74,88.7c0.15,0.84,1.46,2.1,2.25,2.12c8.73,0.15,17.46,0.1,26.64,0.1c0-6.95,0.06-13.63-0.08-20.32
		c-0.01-0.74-0.98-1.66-1.73-2.16c-14.47-9.79-20.76-23.54-20.05-40.81c0.13-3.07,1.74-4.58,4.31-5.73
		c15.74-7.03,29.59-16.78,41.6-29.14c8.01-8.24,14.88-17.34,20.47-27.4c0.71-1.27,1.34-2.62,2.25-3.73c1.72-2.11,4.04-2.5,6.33-1.17
		c2.27,1.32,3.22,3.46,2.16,6.04c-0.76,1.84-1.79,3.57-2.77,5.51c11.81,5.64,17.49,14.98,16.74,28.37
		c6.42-0.25,12.31,0.59,17.03,5.34c4.1-32.82-8.12-60.03-41.35-67.04c-15.8-3.34-31.62-3.17-47.26,1.24
		c-7.53,2.12-14.35,5.65-20.32,10.77c-3,2.57-5.94,2.51-7.96,0.01c-1.88-2.33-1.42-5.14,1.4-7.62c9.37-8.23,20.47-12.78,32.59-14.89
		c17.47-3.03,34.87-2.78,51.83,2.9c23.81,7.96,37,24.92,40.91,49.44c2.14,13.43,1.18,26.9-0.39,40.24
		c-2.63,22.35-5.93,44.63-8.94,66.94c-0.12,0.87-0.2,1.75-0.3,2.65c4.33,1.04,8.52,2.05,13.3,3.19
		c5.31-7.03,10.95-14.51,16.83-22.31c-1.2-0.25-2-0.45-2.82-0.59c-4.19-0.74-6.78-3.39-7.3-7.61c-0.15-1.22-0.11-2.46-0.11-3.69
		c-0.01-32.52,0-65.04,0-97.56c0-1.32,0-2.64,0-3.88c-8.39-1.62-10.09-3.72-10.09-12.1c0-2.02-0.09-4.04,0.05-6.05
		c0.36-5.09,3.59-8.19,8.68-8.46c1.01-0.05,2.02-0.02,3.03-0.02c52.03,0,104.06,0.05,156.1-0.07c5.18-0.01,9.16,1.28,11.63,6.01
		C699.8,380.58,699.8,385.29,699.8,390z M540.78,396.32c0,34.38,0,68.57,0,102.7c5.03,1.08,8.71,0.31,11.55-4.4
		c3.05-5.06,6.96-9.61,10.63-14.27c1.87-2.37,4.62-2.67,6.87-1.08c2.23,1.57,2.78,4.33,1.28,6.85c-0.57,0.96-1.31,1.82-1.98,2.71
		c-2.46,3.29-4.92,6.58-7.7,10.3c39.72,0,78.85,0,118,0c0-34.38,0-68.52,0-102.81C633.14,396.32,587.02,396.32,540.78,396.32z
		 M457.2,587.83c-1.63,0.93-2.89,1.64-4.15,2.36c-19.21,11.09-38.4,22.19-57.63,33.25c-5.51,3.17-9.12,1.03-9.13-5.36
		c-0.02-6.84-0.03-13.68,0.01-20.52c0.02-3.88,1.99-6.25,5.07-6.24c3.08,0.01,4.98,2.35,5.01,6.27c0.03,4.34,0.01,8.67,0.01,13.47
		c1.48-0.76,2.57-1.27,3.6-1.87c25.32-14.61,50.71-29.1,75.91-43.93c7.96-4.69,15.71-6.2,24.27-1.62c5.68-7.55,11.28-15,17.36-23.08
		c-3.28-0.36-5.7-0.81-8.13-0.87c-5.04-0.12-10.1,0.09-15.13-0.09c-2.33-0.09-3.62,0.77-4.86,2.67c-4,6.17-8.7,11.71-15.32,15.25
		c-8.22,4.4-16.32,2.84-22.36-4.24c-1-1.17-1.9-2.42-2.98-3.81c-0.42,0.52-0.69,0.84-0.94,1.18c-7.96,10.86-18.15,12.53-28.53,3.99
		c-4.34-3.57-7.6-8.44-11.42-12.66c-0.83-0.91-1.95-2.2-2.95-2.22c-7.39-0.12-14.82-0.36-22.18,0.22
		c-9.65,0.76-17.2,9.07-17.25,18.79c-0.14,26.35-0.11,52.7-0.02,79.05c0.03,7.27,5.54,13.46,12.64,14.42
		c4.74,0.64,9.29,0.09,13.61-2.45c14.29-8.4,28.68-16.63,43.05-24.9c3.36-1.93,6.35-1.4,7.9,1.27c1.57,2.7,0.56,5.43-2.88,7.46
		c-5.12,3.01-10.28,5.94-15.42,8.91c-1.37,0.79-2.7,1.64-4.74,2.88c27.06,0,53.13,0,79.57,0c0-1.39,0-2.6,0-3.8
		c0-7.62-0.02-15.25,0.01-22.87c0.01-4.11,1.7-6.23,4.89-6.28c3.26-0.06,5.16,2.24,5.18,6.43c0.04,5.83,0.01,11.66,0.01,17.49
		c0,2.99,0,5.97,0,8.95c7.21,0,13.97,0,20.85,0c0-29.2,0.06-58.12-0.07-87.04c-0.02-4.12-1.43-8.04-4.69-11.32
		c-5.87,7.79-11.55,15.28-17.13,22.85c-0.46,0.62-0.49,1.88-0.21,2.65c4.29,11.77,0.98,21.2-9.79,27.44
		c-11.53,6.68-23.08,13.33-34.63,19.99c-4.2,2.42-7.13,2.19-8.82-0.66c-1.78-3-0.52-5.61,3.92-8.17c2.97-1.71,5.93-3.43,8.96-5.18
		C464.07,599.71,460.71,593.9,457.2,587.83z M471,419.82c-0.18,0.12-0.42,0.21-0.54,0.37c-14.71,20.82-33.46,36.88-56.39,48.08
		c-0.87,0.42-1.64,2.05-1.63,3.1c0.17,10.38,4.56,18.75,12.57,25.26c8.1,6.59,17.63,7.68,27.6,7.04
		c16.16-1.03,30.09-15.1,30.48-31.26c0.3-12.54,0.18-25.09,0.06-37.63C483.08,427.52,478.19,421.71,471,419.82z M493.35,475.52
		c-0.17,0.39-0.37,0.69-0.42,1.01c-2.13,13.25-8.84,23.51-20.08,30.85c-0.65,0.42-1.35,1.35-1.36,2.05
		c-0.1,6.58-0.06,13.16-0.06,19.94c1.47,0.08,2.56,0.2,3.65,0.2c7.17,0.02,14.35-0.1,21.52,0.07c2.64,0.06,3.69-0.71,4.08-3.42
		c1.81-12.52,3.92-25,5.78-37.51c0.81-5.43,1.29-10.91,1.92-16.41c-2.81,0.97-5.06,2-7.43,2.5
		C498.48,475.3,495.88,475.3,493.35,475.52z M530.59,385.8c53.09,0,106.02,0,158.91,0c0-1.99,0-3.73,0-5.56
		c-53.05,0-105.88,0-158.91,0C530.59,382.19,530.59,383.92,530.59,385.8z M476.42,600.88c6.55-3.82,12.72-7.22,18.69-10.95
		c4.72-2.95,6.04-8.78,3.49-13.58c-2.5-4.71-8.42-7.05-13.23-4.6c-6.55,3.33-12.82,7.21-19.44,10.98
		C469.49,588.87,472.88,594.74,476.42,600.88z M434.34,529.33c8.96,0,17.75,0,26.7,0c0-5.63,0-11.13,0-16.1c-9.04,0-17.81,0-26.7,0
		C434.34,518.2,434.34,523.64,434.34,529.33z M493.58,449.39c0,5.32,0,10.46,0,15.63c4.45,0.47,8.43,0.19,10.83-3.89
		c1.66-2.81,1.54-5.79-0.35-8.51C501.43,448.84,497.6,448.91,493.58,449.39z M418.8,539.88c3.25,4.29,6.49,7.68,11.07,9.49
		c2.62,1.04,5.24,0.64,7.07-1.47c1.98-2.28,3.52-4.93,5.67-8.02C434.21,539.88,426.82,539.88,418.8,539.88z M455.1,539.88
		c1.78,2.78,3.06,5.21,4.74,7.32c2.09,2.62,4.96,3.39,8.12,2.06c4.43-1.87,7.59-5.22,10.79-9.38
		C470.74,539.88,463.34,539.88,455.1,539.88z M616.44,531.7c-0.04-3.17-2.71-5.77-5.81-5.67c-2.96,0.1-5.53,2.69-5.59,5.64
		c-0.06,3.11,2.56,5.74,5.73,5.75C614.03,537.44,616.48,534.96,616.44,531.7z"/>
	<path class="st1" d="M447.65,488.33c-4.98,0.18-9.29-1.41-12.97-4.68c-2.39-2.12-2.75-4.96-1.04-7.17c1.71-2.21,4.57-2.51,7.2-0.78
		c5.35,3.53,8.58,3.54,13.8,0.02c2.61-1.76,5.47-1.47,7.2,0.73c1.77,2.24,1.46,5-0.96,7.17C457.12,487,452.67,488.56,447.65,488.33z
		"/>
</g>
</svg>
