<?xml version="1.0" encoding="utf-8"?>
<!-- Generator: Adobe Illustrator 23.0.1, SVG Export Plug-In . SVG Version: 6.00 Build 0)  -->
<svg version="1.1" id="Layer_1" xmlns="http://www.w3.org/2000/svg" xmlns:xlink="http://www.w3.org/1999/xlink" x="0px" y="0px"
	 viewBox="0 0 255 290" style="enable-background:new 0 0 255 290;" xml:space="preserve">
<style type="text/css">
	.st0{opacity:0.35;fill:#1F5E52;}
	.st1{fill:#243451;}
	.st2{fill:#021166;}
	.st3{fill:#1A85C1;}
	.st4{fill:#086ABA;}
	.st5{fill:#0950B7;}
	.st6{fill:#DEE5F8;}
	.st7{opacity:0.4;fill:#FFFFFF;}
	.st8{fill:#200200;}
	.st9{fill:#F8C694;}
	.st10{fill:#3F1C1C;}
	.st11{fill:#5B302E;}
	.st12{fill:#F77701;}
	.st13{clip-path:url(#XMLID_3_);}
	.st14{fill:#E71115;}
	.st15{fill:none;stroke:#000000;stroke-width:0.5111;stroke-linecap:round;stroke-linejoin:round;stroke-miterlimit:10;}
	.st16{fill:#097BCC;}
	.st17{fill:#007AFD;}
	.st18{fill:#1A2E35;}
	.st19{fill:#FFB570;}
	.st20{opacity:0.2;enable-background:new    ;}
	.st21{fill:#007CFF;}
	.st22{opacity:0.1;}
	.st23{opacity:0.2;fill:#FFFFFF;}
	.st24{opacity:0.2;}
	.st25{fill:#FFFFFF;}
	.st26{fill:#67B375;}
	.st27{fill:#94D29D;}
	.st28{fill:#FFA347;}
	.st29{fill:#FFB96F;}
	.st30{fill:#F46700;}
</style>
<g>
	<ellipse class="st0" cx="60.67" cy="242.78" rx="44.18" ry="4.51"/>
	<ellipse class="st0" cx="200.13" cy="241.38" rx="44.18" ry="4.51"/>
	<ellipse class="st0" cx="135.27" cy="246.7" rx="26.29" ry="2.18"/>
	<path class="st1" d="M129.67,48.91v196.88c0,0.54-0.22,1.03-0.59,1.33c-0.28,0.23-0.64,0.38-1.03,0.36l-0.9-0.03
		c-0.91-0.03-1.73-0.87-1.73-1.81V49.05L129.67,48.91z"/>
	<path class="st1" d="M131.91,45.41c0,1.57-0.8,2.98-2,3.8c-0.68,0.47-1.48,0.75-2.34,0.77c-0.43,0.01-0.84-0.04-1.23-0.14
		c-0.29-0.08-0.57-0.19-0.84-0.33c-0.07-0.04-0.13-0.07-0.2-0.11c-1.23-0.74-2.05-2.11-2.05-3.7c0-2.44,1.93-4.49,4.31-4.58
		C129.97,41.04,131.91,42.95,131.91,45.41z"/>
	<g>
		<path class="st2" d="M87.73,47.21l62.57,9.69c0.06,0.01,0.08,0.09,0.03,0.12l-8.82,6.45c-0.12,0.09-0.15,0.26-0.07,0.38l6.31,9.96
			c0.03,0.05-0.01,0.11-0.07,0.11l-62.61-9.7c-0.18-0.03-0.34-0.11-0.47-0.24l-9.33-9.45c-0.04-0.04-0.03-0.11,0.02-0.14l11.88-7.07
			C87.34,47.22,87.54,47.18,87.73,47.21z"/>
	</g>
	<path class="st3" d="M90.81,103.22l61.1-5.17c0.13-0.01,0.2,0.14,0.12,0.23l-6.73,7.99c-0.09,0.11-0.08,0.28,0.02,0.38l8.24,7.98
		c0.04,0.04,0.02,0.11-0.04,0.11l-61.32,5.19c-0.17,0.01-0.35-0.03-0.5-0.12l-10.97-6.8c-0.05-0.03-0.05-0.1-0.01-0.13l9.59-9.42
		C90.44,103.32,90.62,103.24,90.81,103.22z"/>
	<path class="st4" d="M166.58,74.58l-66.93,5.56c-0.11,0.01-0.15,0.15-0.06,0.22l8.69,6.67c0.12,0.09,0.14,0.26,0.04,0.37l-7.5,9.23
		c-0.04,0.05,0,0.11,0.06,0.11l67.11-5.57c0.19-0.02,0.37-0.09,0.52-0.21l10.67-8.56c0.04-0.04,0.04-0.1-0.01-0.13l-12-7.55
		C167,74.61,166.79,74.56,166.58,74.58z"/>
	<path class="st5" d="M163.37,130.22l-66.94-5.4c-0.11-0.01-0.17,0.12-0.1,0.2l7.49,8c0.1,0.11,0.09,0.28-0.02,0.38l-8.9,7.89
		c-0.04,0.04-0.02,0.11,0.04,0.12l67.12,5.42c0.19,0.02,0.38-0.03,0.55-0.12l11.92-6.71c0.05-0.03,0.06-0.1,0.01-0.13l-10.61-9.4
		C163.78,130.32,163.58,130.24,163.37,130.22z"/>
	<g>
		<g>
			<path class="st6" d="M250.98,105.17c0,0.39-0.08,0.77-0.21,1.13h-12.15c-0.01-0.01-0.01-0.02-0.02-0.03c0,0.01,0,0.02-0.01,0.03
				c0,0-0.33,0-0.92,0.01c-6.01,0.03-39.62,0.22-39.62-0.08c0-3.43,2.62-6.2,5.85-6.2c0.76,0,1.48,0.15,2.14,0.43
				c0.61-0.53,1.4-0.84,2.25-0.84c1.23,0,2.32,0.65,2.97,1.65c0.01-0.02,0.02-0.04,0.03-0.05c0.63-1.33,1.85-2.46,3.43-3.19
				c1.27-0.59,2.76-0.94,4.36-0.94c0.46,0,0.92,0.03,1.36,0.08c1.7-3.32,5.02-5.57,8.84-5.57c4.88,0,8.96,3.69,9.87,8.59
				c0.55-0.36,1.2-0.57,1.89-0.57c1.39,0,2.6,0.83,3.2,2.06c0.6-0.22,1.27-0.34,1.97-0.34c1.89,0,3.52,0.88,4.3,2.15
				C250.81,104,250.98,104.57,250.98,105.17z"/>
		</g>
		<path class="st7" d="M250.5,103.49c-1.55-0.41-3.21-0.4-4.83-0.38c-3.62,0.04-7.23,0.08-10.85,0.13
			c-4.33,0.05-8.19-2.43-12.62-2.03c-2.12,0.2-4.28,1.06-6.32,1.18c-1.62,0.1-3.59-0.19-4.58-1.17c0.63-1.33,1.85-2.46,3.43-3.19
			c1.27-0.59,2.76-0.94,4.36-0.94c0.46,0,0.92,0.03,1.36,0.08c1.7-3.32,5.02-5.57,8.84-5.57c4.88,0,8.96,3.69,9.87,8.59
			c0.55-0.36,1.2-0.57,1.89-0.57c1.39,0,2.6,0.83,3.2,2.06c0.6-0.22,1.27-0.34,1.97-0.34C248.09,101.34,249.72,102.22,250.5,103.49z
			"/>
	</g>
	<g>
		<path class="st6" d="M55.32,65.25c0,0.32-39.29,0.06-39.29,0.06c0-0.01,0-0.01,0-0.02c-0.01,0.01-0.02,0.01-0.03,0.02H4.22
			c-0.13-0.35-0.2-0.71-0.2-1.09c0-2.05,2.07-3.71,4.63-3.71c0.68,0,1.33,0.12,1.91,0.33c0.58-1.18,1.75-1.99,3.1-1.99
			c0.67,0,1.3,0.2,1.83,0.55c0.88-4.75,4.83-8.32,9.57-8.32c0.03,0,0.07,0,0.1,0c3.66,0.03,6.84,2.21,8.47,5.4
			c0.43-0.05,0.87-0.08,1.32-0.08c3.51,0,6.5,1.69,7.57,4.05c0.64-0.97,1.69-1.6,2.88-1.6c0.82,0,1.58,0.3,2.18,0.81
			c0.64-0.27,1.34-0.41,2.07-0.41c2.27,0,4.22,1.41,5.13,3.45C55.13,63.47,55.32,64.34,55.32,65.25z"/>
		<path class="st7" d="M54.78,62.69c-1.77,0.59-3.76,0.67-5.65,0.71c-4.42,0.1-9.11,0.12-12.87-2.2c-1.3-0.8-2.45-1.87-3.86-2.47
			c-2.35-1.02-5.37-0.74-7.1-2.62c-1.12-1.22-1.32-3.19-0.46-4.6c0.09-0.15,0.19-0.3,0.31-0.43c3.66,0.03,6.84,2.21,8.47,5.4
			c0.43-0.05,0.87-0.08,1.32-0.08c3.51,0,6.5,1.69,7.57,4.05c0.64-0.97,1.69-1.6,2.88-1.6c0.82,0,1.58,0.3,2.18,0.81
			c0.64-0.27,1.34-0.41,2.07-0.41C51.92,59.24,53.87,60.66,54.78,62.69z"/>
	</g>
	<g>
		<g>
			<g>
				<g>
					<g>
						<path class="st8" d="M178.11,236.68l-4.62,2.54c-0.49,0.27-0.79,0.89-0.63,1.47c0.12,0.46,0.51,0.81,1.54,0.84
							c2.28,0.05,12.38-1.64,12.38-1.64v1.45l4.72,0.02c0,0,0.3-6.86-1.13-7.74L178.11,236.68z"/>
						<path class="st9" d="M184.3,231.64l-6.18,5.05c0,0,0.8,2.28,4.32,0.76c3.52-1.52,7.94-3.81,7.94-3.81l-0.64-2.64L184.3,231.64
							z"/>
					</g>
					<polygon class="st9" points="189.72,230.99 190.37,212.67 184.24,212.17 184.24,233.63 					"/>
				</g>
				<polygon class="st10" points="178.81,157.66 181.38,229.01 193.26,229.01 193.87,151.9 				"/>
			</g>
			<g>
				<path class="st11" d="M180.15,156.41l5.98,34.76c0.73,4.29,5.12,6.91,9.24,5.5h0c3.03-1.04,4.98-3.98,4.75-7.18l-1.14-15.79
					c-0.58-5.36,0.75-12.29-5.1-21.81L180.15,156.41z"/>
				<g>
					<g>
						<g>
							<path class="st8" d="M211.58,234.93l-2.56,4.6c-0.27,0.49-0.2,1.17,0.24,1.58c0.35,0.33,0.87,0.42,1.75-0.11
								c1.96-1.17,9.62-7.95,9.62-7.95l0.77,1.23l4.01-2.48c0,0-3.39-5.97-5.06-5.96L211.58,234.93z"/>
							<path class="st9" d="M214.14,227.37l-2.56,7.56c0,0,1.89,1.51,4.06-1.65s4.71-7.44,4.71-7.44l-1.95-1.9L214.14,227.37z"/>
						</g>
						<polygon class="st9" points="218.4,223.94 209.23,208.07 203.77,210.9 215.15,229.09 						"/>
					</g>
					<polygon class="st11" points="187.02,193.6 209.11,226.55 219.4,219.95 198.05,184.1 					"/>
				</g>
			</g>
		</g>
		<g>
			<path class="st12" d="M170.53,99.95c0,0-4.91-0.64-5.55,4.01c-0.48,3.46,1.12,5.16-0.13,7.94s1.09,5.27,1.09,5.27
				s5.82,2.7,12.13-2.82L170.53,99.95z"/>
			<polygon class="st9" points="172.44,115.49 175.1,122.41 180.68,120.93 175.53,110.98 			"/>
			<polygon points="173.71,118.8 174.86,113.73 172.78,116.37 			"/>
			<path class="st9" d="M169.91,100.99c0,0-3.31,0.7-3.31,4.9c0,0-0.16,1.6,0.05,5.98c0.15,3.1,1.61,5.24,4.52,4.95
				c1.41-0.14,2.89-1,4.21-2.12l1.85-1.89c4.28-5.22-0.19-13.1-6.84-11.91C170.24,100.93,170.08,100.96,169.91,100.99z"/>
			<path class="st9" d="M166.87,109.43l-1.17,2.06c-0.14,0.22-0.07,0.55,0.22,0.57l1.52,0.2L166.87,109.43z"/>
			<path class="st12" d="M174.68,108.2c0.12-0.95,0.76-7.56-4.19-6.71c-0.77,0.13-1.16-0.89-0.5-1.3c1.77-1.1,4.58-1.87,8.64-0.3
				c1.65,0.64,3.92,2.81,3.92,4.95c0,4.59-1.53,6.91-4.21,9.27c-0.14,0.12-0.36,0.08-0.44-0.08l-1.73-3.35
				c-0.01-0.01-0.01-0.02-0.01-0.04c-0.19-0.61-1.15-1.89-1.43-2.24C174.69,108.35,174.68,108.28,174.68,108.2z"/>
			<path class="st12" d="M171.37,99.87c-6.23,2.87,2.89,9.7,2.89,9.7l0,0l2.57-5.05C176.82,104.53,172.41,99.39,171.37,99.87z"/>
			<g>
				<path d="M167.24,105.59l3.29,1.12c0,0-0.57-1.06-1.74-1.63C167.22,104.32,167.24,105.59,167.24,105.59z"/>
				<g>
					<g>
						<defs>
							<path id="XMLID_1_" d="M167.93,107.84c0,0,1.11,0.24,1.15,1.35c0.04,1.11-1.17,1.03-1.17,1.03S166.87,108.88,167.93,107.84z"
								/>
						</defs>
						<use xlink:href="#XMLID_1_"  style="overflow:visible;fill:#FFFFFF;"/>
						<clipPath id="XMLID_3_">
							<use xlink:href="#XMLID_1_"  style="overflow:visible;"/>
						</clipPath>
						<path class="st13" d="M168.16,107.56c0,0,0.86,1.6-0.24,2.66c-1.1,1.06,0,0,0,0l-0.62-0.06l-0.03-1.76L168.16,107.56z"/>
					</g>
					<g>
						<path d="M167.66,107.24c0.27,0.03,0.44,0.1,0.63,0.2c0.19,0.09,0.36,0.22,0.5,0.37c0.29,0.3,0.43,0.69,0.46,1.05
							c0.01,0.09-0.06,0.17-0.15,0.18c-0.07,0.01-0.13-0.03-0.16-0.09l0-0.01c-0.14-0.27-0.33-0.48-0.56-0.58
							c-0.11-0.05-0.23-0.08-0.36-0.09c-0.11-0.01-0.27,0-0.33,0.03c-0.28,0.15-0.63,0.04-0.77-0.25s-0.04-0.63,0.25-0.77
							c0.11-0.06,0.22-0.07,0.33-0.06L167.66,107.24z"/>
					</g>
				</g>
				<path class="st14" d="M166.86,112.84c-0.39,0.06-0.42,0.52-0.06,0.66c0,0-0.48,0.49,0.25,0.65c0.72,0.16,1.4-1.07,1.4-1.07
					C167.56,113.28,167.38,112.76,166.86,112.84z"/>
			</g>
			<path class="st12" d="M175.15,111.01c0.39,2.77,0.07,5.83,0.07,5.83s7.86,2.53,11.43-6.42c0,0-2.28-0.88-2.98-2.84
				c-0.7-1.96-0.01-8.78-9.18-8.58C174.48,99.01,174.71,107.89,175.15,111.01z"/>
			<g>
				<path class="st9" d="M178.17,109.52c0.14,1.16-0.68,2.22-1.84,2.36c-1.16,0.14-2.22-0.68-2.36-1.84
					c-0.14-1.16,0.68-2.22,1.84-2.36C176.96,107.54,178.02,108.36,178.17,109.52z"/>
				<path class="st15" d="M175.15,110.68c0,0,0.08-1.61,1.41-1.64"/>
			</g>
		</g>
		<g>
			<g>
				<g>
					<path class="st9" d="M188.83,126.24l13.03,10.55c1.87,1.59,2.01,4.43,0.31,6.2h0c-1.55,1.62-4.09,1.76-5.82,0.33l-14.14-11.2
						L188.83,126.24z"/>
					<path class="st16" d="M196.64,130.12c0,0-0.56,4.2-7.88,9.02l-9.95-7.4c-2.78-2.07-3.18-6.07-0.88-8.65l0,0
						c1.91-2.14,5.09-2.59,7.52-1.07L196.64,130.12z"/>
				</g>
				<g>
					<g>
						<path class="st9" d="M196.4,143.47l12.92,16.6l3.17-3.71l-9.66-18.44c-1.57-2.12-4.67-2.32-6.5-0.41l0,0
							C194.73,139.18,194.76,141.83,196.4,143.47z"/>
					</g>
					<g>
						<path class="st9" d="M208.57,159.36l-0.13,0.83c-0.18,1.12-0.09,2.26,0.25,3.34l0.61,1.9c0.14,0.45,0.66,0.66,1.08,0.45l0,0
							c0.35-0.18,0.56-0.56,0.53-0.96l-0.2-2.1l4.2,5.95c0.2,0.3,0.61,0.35,0.88,0.12l0.18-0.16c0.21-0.19,0.27-0.49,0.13-0.74
							l-2.68-4.1l3.73,4.29c0.22,0.28,0.63,0.31,0.88,0.06l0.13-0.12c0.21-0.21,0.24-0.55,0.05-0.78l-3.09-3.97l3.01,2.5
							c0.28,0.25,0.73,0.18,0.91-0.16l0.04-0.07c0.13-0.23,0.09-0.51-0.09-0.7l-2.94-2.82l1.85,1.1c0.34,0.27,0.85,0.1,0.95-0.32
							l0,0c0.05-0.2-0.01-0.41-0.16-0.56l-7.5-7.02l-1.53,1.75C209.08,157.71,208.71,158.51,208.57,159.36z"/>
					</g>
				</g>
			</g>
			<path class="st17" d="M178.87,120.72c0,0-5.12-0.5-5.19,8.75c-0.07,9.27,2.86,13.64,5.13,28.19c0,0,8.68-1.06,15.06-5.76
				C193.87,151.9,194.26,117.83,178.87,120.72z"/>
			<g>
				<g>
					<path class="st9" d="M177.84,133.11l-12.11,11.59c-1.82,1.65-4.65,1.43-6.19-0.48l0,0c-1.41-1.74-1.23-4.28,0.41-5.81
						l12.89-12.61L177.84,133.11z"/>
					<g>
						<path class="st17" d="M174.53,140.46c0,0-4.22-0.15-8.57-8.76l8.52-9.01c2.38-2.52,6.4-2.45,8.69,0.15l0,0
							c1.9,2.15,1.97,5.35,0.17,7.59L174.53,140.46z"/>
						<line class="st15" x1="175.7" y1="139.13" x2="181.53" y2="132.51"/>
					</g>
				</g>
				<g>
					<g>
						<path class="st9" d="M165.51,138.54l-17.25-13.06l-2.27,3.55l13.64,15.31c1.66,1.96,4.69,1.95,6.34-0.02l0,0
							C167.42,142.6,167.22,140.03,165.51,138.54z"/>
					</g>
					<g>
						<path class="st9" d="M150.55,129.09c-0.65,2.19-2.76,2.1-6.91,0.94c-2.2-0.62-2.99-2.17-2.34-4.36
							c0.65-2.19,2.95-3.43,5.14-2.78C148.62,123.54,151.2,126.91,150.55,129.09z"/>
						<path class="st9" d="M147.19,123.2l-5.27-3.07c-0.35-0.24-0.83-0.15-1.07,0.19l0,0c-0.21,0.29-0.16,0.68,0.11,0.92l4.09,3.46
							L147.19,123.2z"/>
					</g>
				</g>
			</g>
		</g>
	</g>
	<g>
		<g>
			<g>
				<path class="st18" d="M51.59,93.94c-2.34-1.64-4.48-3.72-5.52-6.38c-1.04-2.66-0.77-5.96,1.23-8.01
					c0.16-0.16,0.38-0.33,0.6-0.26c0.17,0.06,0.26,0.25,0.32,0.42C50.02,84.32,49.42,89.48,51.59,93.94z"/>
				<path class="st19" d="M51.86,90.33c0.38,3.35,0.43,8.86-2.06,10.88c0,0-0.15,3.38,8.9,7.79c3.77-4.56,1.41-6.94,1.41-6.94
					c-3.63-1.18-3.21-3.29-2.36-5.81L51.86,90.33z"/>
				<path class="st20" d="M54.25,92.71l3.46,3.52c-0.21,0.58-0.36,1.18-0.47,1.79c-1.4-0.32-3.52-1.7-3.69-3.25
					C53.6,94.04,53.85,93.33,54.25,92.71z"/>
				<path class="st18" d="M59.71,82.49c-0.07-1.21-0.69-2.39-1.67-3.12c0.11,0.52,0,0.97-0.23,1.45
					C58.46,81.4,59.06,81.92,59.71,82.49z"/>
				<path class="st19" d="M48.64,85.53c0.99,5.26,1.3,7.5,4.31,9.88c4.54,3.59,10.78,1.21,11.38-4.23c0.54-4.9-1.18-12.7-6.63-14.13
					c-3.89-1.06-7.9,1.23-8.95,5.12C48.46,83.27,48.42,84.42,48.64,85.53z"/>
				<path class="st18" d="M61.56,80.78c0,0,0.63,2.38-0.18,3.68c-0.81,1.3-0.54,3.59-1.17,3.41c-0.63-0.18-0.31-2.65-1.39-2.38
					c-1.08,0.27-2.96,1.29-1.84,3.09c1.12,1.8,0.72,2.47,0.72,2.47s-0.13,4.75-3.27,4.57c-3.14-0.18-6.46-5.29-6.46-5.29l-0.45-8.56
					l0.27-2.66c0,0,1.48-3.03,5.42-3.44s4.03,0.58,6.5,0.54c2.47-0.04,5.47,1.17,4.71,2.69C63.67,80.42,61.83,79.21,61.56,80.78z"/>
			</g>
			<path class="st19" d="M51.81,105.6c-0.24,2.13-0.58,4.24-0.94,6.35c-0.18,1.05-0.36,2.11-0.57,3.16c-0.2,1.05-0.39,2.1-0.62,3.15
				l-1.3,6.3c-0.19,0.96-0.3,1.75-0.32,2.57c-0.02,0.81,0.04,1.66,0.18,2.56l-0.06-0.3c0.3,1.39,0.59,2.78,0.85,4.18
				c0.27,1.4,0.5,2.81,0.73,4.22l0.32,2.12l0.27,2.13c0.16,1.43,0.32,2.85,0.39,4.3c0.05,1.05-0.76,1.95-1.82,1.99
				c-0.78,0.04-1.48-0.4-1.8-1.06c-0.64-1.3-1.19-2.63-1.74-3.96l-0.79-2l-0.75-2.01c-0.47-1.35-0.95-2.69-1.39-4.05
				c-0.45-1.35-0.87-2.71-1.27-4.08l-0.03-0.08l-0.04-0.22c-0.22-1.21-0.36-2.5-0.36-3.83c0-1.33,0.16-2.67,0.36-3.81
				c0.2-1.17,0.4-2.13,0.56-3.15l0.53-3.17c0.17-1.06,0.37-2.11,0.57-3.17c0.19-1.06,0.4-2.11,0.61-3.16
				c0.42-2.1,0.88-4.2,1.43-6.28c0.5-1.9,2.44-3.04,4.34-2.54C50.91,102.21,52.01,103.87,51.81,105.6z"/>
			<path class="st21" d="M49.38,100.57c0,0-3.59-0.6-5.67,3.32c-1.53,2.88-3.47,13.45-3.12,13.52c0.35,0.06,10.03,2.1,10.03,2.1
				S56.81,100.49,49.38,100.57z"/>
			<path class="st22" d="M49.38,100.57c0,0-3.59-0.6-5.67,3.32c-1.53,2.88-3.47,13.45-3.12,13.52c0.35,0.06,10.03,2.1,10.03,2.1
				S56.81,100.49,49.38,100.57z"/>
			<g>
				<path class="st21" d="M61.32,101.02c1.32,0.08,2.61,0.44,3.74,1.13c2.49,1.52,3.45,3.91,3.45,8.08c0,5.58,0.3,3.09,0,6.09
					l-0.22,22.98l-21.41-1.14c0,0-0.58-9.13-0.72-14.37c-0.24-8.84-3.49-13-1.83-19.63c0.49-1.96,3.11-3.8,6.46-3.8L61.32,101.02z"
					/>
			</g>
			<path class="st21" d="M49.79,100.34l0.1-0.65c0.07-0.46,0.49-0.78,0.95-0.73l7.25,0.85l2.15,1.2
				C60.24,101.02,53.9,101.81,49.79,100.34z"/>
			<path class="st23" d="M49.79,100.34l0.1-0.65c0.07-0.46,0.49-0.78,0.95-0.73l7.25,0.85l2.15,1.2
				C60.24,101.02,53.9,101.81,49.79,100.34z"/>
			<g>
				<g>
					<polygon class="st19" points="35.87,234.68 40.38,236.33 51.82,210.97 44.7,208.35 					"/>
					<polygon class="st24" points="51.82,210.97 42.17,232.36 37.19,230.73 44.7,208.35 					"/>
				</g>
			</g>
			<g>
				<path class="st21" d="M42.23,236.94c0.58,0.21,1.17,0.33,1.45,0.13c0.1-0.07,0.2-0.21,0.14-0.48c-0.03-0.15-0.12-0.28-0.26-0.38
					c-0.69-0.48-2.57-0.13-2.65-0.11c-0.05,0.01-0.08,0.05-0.09,0.09c-0.01,0.05,0.02,0.1,0.06,0.12
					C41.15,236.48,41.69,236.75,42.23,236.94z M43.24,236.31c0.08,0.03,0.14,0.06,0.2,0.1c0.09,0.06,0.14,0.14,0.16,0.23
					c0.03,0.16-0.02,0.22-0.06,0.25c-0.31,0.22-1.46-0.18-2.27-0.61C41.77,236.21,42.71,236.12,43.24,236.31z"/>
				<path class="st21" d="M40.9,236.32c0.01,0.01,0.03,0.01,0.05,0.01c0.63-0.05,2.03-0.66,2.11-1.21c0.02-0.13-0.02-0.31-0.3-0.45
					c-0.21-0.1-0.43-0.11-0.66-0.03c-0.73,0.27-1.25,1.47-1.27,1.52c-0.02,0.04-0.01,0.08,0.01,0.11
					C40.86,236.3,40.88,236.32,40.9,236.32z M42.6,234.85c0.02,0.01,0.04,0.02,0.06,0.03c0.19,0.09,0.18,0.17,0.17,0.2
					c-0.05,0.33-1.04,0.85-1.71,0.99c0.17-0.34,0.57-1.03,1.05-1.21C42.33,234.81,42.47,234.81,42.6,234.85z"/>
				<path class="st18" d="M40.62,235.51l-4.97-1.77c-0.19-0.07-0.39,0.01-0.49,0.18l-2.2,3.77c-0.23,0.39-0.04,0.91,0.39,1.05
					c1.8,0.61,4.42,1.43,6.68,2.23c2.63,0.94,1.1,0.55,4.19,1.66c1.87,0.67,2.99-1.06,2.27-1.51c-3.31-2.06-2.42-1.84-4.89-4.86
					C41.33,235.93,41.01,235.65,40.62,235.51z"/>
			</g>
			<path class="st18" d="M62.72,138.15l-0.65,35.35c-0.14,15.49-4.93,30.23-11.51,44.25l-6.23,13.27l-8.07-2.66l10.12-36.86
				l0.82-30.93c-2-4.48-2.63-9.23-1.99-12.93c0.38-2.2,0.79-4.4,1.09-6.61l0.58-2.88H62.72z"/>
			<path class="st24" d="M62.92,138.15l-0.65,35.35c-0.14,15.49-4.93,30.23-11.51,44.25l-6.23,13.27l-8.07-2.66l10.12-36.86
				l0.82-30.93c-2-4.48-2.63-9.23-1.99-12.93c0.38-2.2,0.79-4.4,1.09-6.61l0.38-2.88H62.92z"/>
			<path class="st18" d="M35.4,228.33l9.54,3.59c0.17,0.06,0.35-0.01,0.44-0.17l1.78-3.33c0.11-0.2,0.01-0.44-0.21-0.51l-10.86-3.37
				c-0.21-0.06-0.43,0.07-0.46,0.29l-0.46,3.11C35.15,228.11,35.24,228.27,35.4,228.33z"/>
			<g>
				<polygon class="st19" points="63.3,239.28 68.51,239.28 70.69,209.16 62.46,209.16 				"/>
				<polygon class="st24" points="70.69,209.16 68.85,234.64 63.17,234.64 62.46,209.16 				"/>
			</g>
			<g>
				<path class="st21" d="M70.32,238.78c0.61,0,1.19-0.08,1.39-0.36c0.07-0.1,0.12-0.26-0.01-0.49c-0.07-0.13-0.19-0.22-0.35-0.26
					c-0.79-0.21-2.43,0.73-2.5,0.77c-0.04,0.02-0.06,0.07-0.05,0.11c0.01,0.05,0.04,0.08,0.09,0.09
					C69.17,238.71,69.76,238.78,70.32,238.78z M71.07,237.86c0.08,0,0.15,0.01,0.22,0.03c0.1,0.03,0.17,0.08,0.22,0.16
					c0.08,0.14,0.05,0.21,0.02,0.25c-0.22,0.31-1.41,0.31-2.29,0.19C69.67,238.26,70.52,237.86,71.07,237.86z"/>
				<path class="st21" d="M68.9,238.65c0.02,0,0.03,0,0.05-0.01c0.57-0.26,1.7-1.28,1.61-1.81c-0.02-0.13-0.11-0.28-0.42-0.31
					c-0.23-0.02-0.44,0.04-0.62,0.19c-0.6,0.49-0.73,1.76-0.73,1.82c0,0.04,0.01,0.08,0.05,0.1
					C68.85,238.64,68.87,238.65,68.9,238.65z M70.05,236.74c0.02,0,0.04,0,0.07,0c0.2,0.02,0.21,0.1,0.22,0.13
					c0.05,0.32-0.71,1.12-1.3,1.47c0.06-0.37,0.23-1.13,0.62-1.46C69.78,236.78,69.91,236.74,70.05,236.74z"/>
				<path class="st18" d="M68.24,237.99h-4.89c-0.18,0-0.34,0.13-0.38,0.32l-0.88,4.19c-0.09,0.43,0.22,0.85,0.64,0.84
					c1.76-0.03,4.31-0.14,6.53-0.14c2.59,0,4.83,0.15,7.87,0.15c1.84,0,2.35-1.96,1.58-2.14c-3.5-0.81-6.36-0.89-9.39-2.86
					C68.99,238.14,68.63,237.99,68.24,237.99z"/>
			</g>
			<path class="st18" d="M50.12,138.16l-3.24-0.01c-0.51,13.14,4.54,20,4.87,20.67l1.37,2.77c1.37,2.77,6.85,30.16,6.85,30.16
				c-1.12,9.11,0.72,18.52,1.31,27.68l0.93,13.61h8.49l2.74-33.31c0.54-4.38,0.6-9.94,0.13-14.33c-5.02-46.12-5.27-47.26-5.27-47.26
				L50.12,138.16z"/>
			<path class="st18" d="M61.32,233.75l10.18-0.28c0.18,0,0.33-0.14,0.34-0.32l0.39-3.75c0.02-0.22-0.16-0.41-0.38-0.39l-11.33,0.98
				c-0.22,0.02-0.37,0.23-0.31,0.44l0.75,3.05C61.01,233.64,61.16,233.75,61.32,233.75z"/>
			<path class="st22" d="M58.73,107.65c0,0,6.52,13.75,8.55,12.8c2.04-0.95,4.36-5.13,2.25-8.3
				C67.42,108.98,58.73,107.65,58.73,107.65z"/>
			<g>
				<g>
					<path class="st19" d="M96.69,100.06c-0.06,0.38-1.49,0.28-1.52-1.4c0.29-0.65,1.27-3.57,1.91-3.89
						c3.4-1.75,9.05-3.25,9.05-3.25c0.34,0.99-0.53,1.36-0.53,1.36l-2.89,1.03c0.04,0.92,0.22,1.77,0.01,2.75
						c-0.16,0.75-0.61,1.4-1.25,1.83c-0.63,0.44-1.48,0.99-2.22,1.39C97.86,100.63,96.69,100.06,96.69,100.06z"/>
				</g>
				<path class="st19" d="M96.28,96.86l-10.64,10.93c-0.36,0.37-0.89,0.5-1.37,0.35l-8.7-2.7c-0.2-0.06-0.41-0.08-0.61-0.04
					l-3.62,0.57c-0.86,0.13-1.37,1.03-1.05,1.83l0.72,5.24c0.17,0.43,0.54,0.75,1,0.84l13.14,2.9c0.51,0.1,1.03-0.09,1.34-0.5
					l12.07-16.16"/>
				<path class="st21" d="M58.26,104.03c0,0-1.55,3.33,1.11,5.14c2.65,1.81,12.19,6.22,12.33,5.9c0.14-0.33,3.57-9.74,3.57-9.74
					S59.79,96.87,58.26,104.03z"/>
			</g>
		</g>
		<polyline class="st21" points="68.31,137.3 68.96,143.63 46.05,142.75 46.88,138.15 50.6,133.94 64.92,135.1 		"/>
	</g>
	<g>
		<g>
			<path class="st25" d="M93.55,59.73l0.81-5.04l3.28,0.53l-0.12,0.77l-2.36-0.38l-0.22,1.37l2.19,0.35L97,58.1l-2.19-0.35
				l-0.22,1.37l2.38,0.39l-0.12,0.77L93.55,59.73z"/>
			<path class="st25" d="M99.47,60.69l-1.71-0.28l0.81-5.04l1.74,0.28c0.5,0.08,0.91,0.25,1.24,0.51c0.33,0.26,0.56,0.59,0.69,1
				c0.13,0.41,0.16,0.87,0.07,1.4c-0.08,0.52-0.25,0.96-0.51,1.31c-0.26,0.35-0.58,0.59-0.98,0.73
				C100.43,60.74,99.98,60.77,99.47,60.69z M98.8,59.77l0.75,0.12c0.35,0.06,0.65,0.04,0.91-0.05c0.26-0.09,0.46-0.26,0.62-0.49
				c0.16-0.24,0.27-0.55,0.33-0.93c0.06-0.39,0.06-0.72-0.02-0.99c-0.08-0.27-0.22-0.49-0.43-0.66c-0.21-0.16-0.49-0.27-0.83-0.33
				l-0.78-0.13L98.8,59.77z"/>
			<path class="st25" d="M106.77,56.7l0.91,0.15l-0.53,3.29c-0.06,0.36-0.19,0.66-0.41,0.91c-0.21,0.25-0.49,0.42-0.82,0.53
				c-0.33,0.1-0.7,0.12-1.11,0.06c-0.41-0.07-0.76-0.2-1.04-0.4s-0.49-0.46-0.61-0.76c-0.12-0.3-0.16-0.63-0.1-0.99l0.53-3.29
				l0.91,0.15l-0.52,3.22c-0.03,0.21-0.02,0.4,0.05,0.58c0.07,0.18,0.18,0.33,0.33,0.45c0.15,0.12,0.35,0.2,0.58,0.24
				c0.23,0.04,0.44,0.02,0.62-0.04c0.18-0.07,0.34-0.17,0.45-0.32c0.12-0.15,0.19-0.33,0.23-0.54L106.77,56.7z"/>
			<path class="st25" d="M112.71,59.4l-0.92-0.15c0-0.16-0.03-0.3-0.08-0.43c-0.05-0.13-0.12-0.24-0.22-0.34
				c-0.09-0.1-0.2-0.18-0.33-0.24c-0.13-0.06-0.27-0.11-0.42-0.13c-0.27-0.04-0.53-0.01-0.76,0.09c-0.23,0.1-0.43,0.28-0.59,0.52
				c-0.16,0.24-0.27,0.56-0.33,0.93c-0.06,0.39-0.05,0.72,0.02,1c0.08,0.28,0.21,0.51,0.4,0.68c0.19,0.17,0.42,0.27,0.69,0.32
				c0.15,0.02,0.3,0.03,0.43,0.01c0.14-0.02,0.27-0.06,0.39-0.12c0.12-0.06,0.22-0.14,0.31-0.25c0.09-0.1,0.16-0.23,0.22-0.37
				l0.92,0.15c-0.07,0.23-0.18,0.45-0.33,0.64c-0.15,0.19-0.33,0.35-0.54,0.48c-0.21,0.13-0.44,0.22-0.7,0.27
				c-0.26,0.05-0.54,0.05-0.84,0c-0.44-0.07-0.82-0.24-1.14-0.5c-0.31-0.26-0.54-0.6-0.68-1.02c-0.14-0.42-0.16-0.9-0.07-1.44
				c0.09-0.54,0.26-0.99,0.53-1.34c0.26-0.35,0.59-0.61,0.97-0.75c0.38-0.15,0.79-0.19,1.23-0.12c0.28,0.05,0.54,0.13,0.76,0.24
				c0.23,0.12,0.42,0.27,0.59,0.45c0.16,0.18,0.29,0.39,0.38,0.63C112.68,58.85,112.72,59.12,112.71,59.4z"/>
			<path class="st25" d="M113.59,62.97l-0.97-0.16l2.59-4.75l1.13,0.18l0.96,5.32l-0.97-0.16l-0.7-4.22l-0.04-0.01L113.59,62.97z
				 M113.94,61l2.66,0.43l-0.12,0.73l-2.66-0.43L113.94,61z"/>
			<path class="st25" d="M117.82,59.27l0.12-0.77l4.02,0.65l-0.12,0.77l-1.56-0.25l-0.69,4.27l-0.9-0.15l0.69-4.27L117.82,59.27z"/>
			<path class="st25" d="M123.65,59.43l-0.81,5.04l-0.91-0.15l0.81-5.04L123.65,59.43z"/>
			<path class="st25" d="M128.73,62.83c-0.09,0.54-0.26,0.99-0.53,1.34c-0.27,0.35-0.59,0.6-0.97,0.75
				c-0.38,0.15-0.79,0.19-1.23,0.12c-0.44-0.07-0.82-0.24-1.13-0.5c-0.32-0.26-0.54-0.6-0.68-1.02c-0.14-0.42-0.17-0.9-0.08-1.44
				c0.09-0.54,0.26-0.99,0.53-1.34c0.26-0.35,0.59-0.6,0.97-0.75c0.38-0.15,0.79-0.19,1.23-0.12c0.44,0.07,0.82,0.24,1.14,0.5
				c0.31,0.26,0.54,0.6,0.68,1.02C128.79,61.81,128.82,62.29,128.73,62.83z M127.81,62.68c0.06-0.38,0.05-0.71-0.02-1
				c-0.08-0.28-0.21-0.51-0.4-0.68c-0.19-0.17-0.42-0.28-0.69-0.32c-0.27-0.04-0.53-0.02-0.76,0.09c-0.23,0.1-0.43,0.27-0.59,0.52
				c-0.16,0.24-0.27,0.56-0.34,0.94c-0.06,0.38-0.05,0.71,0.02,1c0.08,0.28,0.21,0.51,0.4,0.68c0.19,0.17,0.42,0.28,0.69,0.32
				c0.27,0.04,0.53,0.02,0.76-0.09c0.23-0.1,0.43-0.27,0.59-0.52C127.64,63.38,127.75,63.07,127.81,62.68z"/>
			<path class="st25" d="M134.15,61.12l-0.81,5.04l-0.81-0.13l-1.82-3.82l-0.04-0.01l-0.55,3.43l-0.91-0.15l0.81-5.04l0.82,0.13
				l1.82,3.82l0.04,0.01l0.55-3.43L134.15,61.12z"/>
		</g>
	</g>
	<g>
		<g>
			<path class="st25" d="M108.1,109.06l-0.93,0.08c-0.04-0.15-0.1-0.28-0.18-0.39c-0.08-0.11-0.18-0.21-0.29-0.28
				c-0.11-0.07-0.24-0.13-0.38-0.16c-0.14-0.03-0.29-0.04-0.44-0.03c-0.28,0.02-0.52,0.11-0.72,0.27c-0.2,0.16-0.35,0.37-0.45,0.65
				c-0.1,0.28-0.13,0.61-0.1,0.99c0.03,0.39,0.12,0.71,0.27,0.97c0.14,0.25,0.33,0.44,0.55,0.56c0.22,0.12,0.47,0.16,0.75,0.14
				c0.15-0.01,0.29-0.05,0.42-0.1c0.13-0.05,0.24-0.12,0.34-0.21c0.1-0.09,0.18-0.19,0.25-0.32c0.06-0.12,0.1-0.26,0.12-0.41
				l0.93-0.08c-0.01,0.25-0.07,0.48-0.17,0.7s-0.23,0.42-0.4,0.6c-0.17,0.18-0.38,0.32-0.62,0.43c-0.24,0.11-0.51,0.18-0.81,0.21
				c-0.45,0.04-0.86-0.03-1.22-0.21c-0.37-0.18-0.67-0.45-0.91-0.82c-0.24-0.37-0.38-0.83-0.42-1.38c-0.05-0.55,0.01-1.03,0.18-1.43
				c0.17-0.41,0.42-0.73,0.75-0.97c0.33-0.24,0.72-0.38,1.16-0.41c0.28-0.02,0.55-0.01,0.8,0.05c0.25,0.06,0.48,0.16,0.68,0.29
				c0.2,0.14,0.38,0.31,0.52,0.52C107.94,108.53,108.04,108.78,108.1,109.06z"/>
			<path class="st25" d="M109.83,112.3l-0.98,0.08l1.35-5.24l1.14-0.1l2.23,4.93l-0.98,0.08l-1.71-3.92l-0.04,0L109.83,112.3z
				 M109.69,110.31l2.68-0.23l0.06,0.74l-2.68,0.23L109.69,110.31z"/>
			<path class="st25" d="M114.24,111.92l-0.44-5.08l1.91-0.16c0.39-0.03,0.72,0.01,1,0.12c0.28,0.11,0.49,0.29,0.65,0.52
				c0.16,0.23,0.25,0.51,0.28,0.84c0.03,0.33-0.02,0.61-0.13,0.87c-0.12,0.25-0.3,0.45-0.56,0.61c-0.26,0.15-0.58,0.25-0.97,0.28
				l-1.36,0.12l-0.07-0.76l1.23-0.11c0.23-0.02,0.41-0.07,0.55-0.14c0.14-0.08,0.24-0.18,0.3-0.31c0.06-0.13,0.08-0.28,0.07-0.46
				s-0.06-0.33-0.15-0.45c-0.08-0.12-0.2-0.21-0.35-0.26c-0.15-0.05-0.34-0.07-0.57-0.05l-0.84,0.07l0.37,4.31L114.24,111.92z
				 M116.66,109.39l1.46,2.19l-1.03,0.09l-1.44-2.2L116.66,109.39z"/>
			<path class="st25" d="M118.78,111.53l-0.44-5.08l3.31-0.29l0.07,0.77l-2.39,0.21l0.12,1.38l2.21-0.19l0.07,0.77l-2.21,0.19
				l0.12,1.39l2.41-0.21l0.07,0.77L118.78,111.53z"/>
			<path class="st25" d="M123.03,111.16l-0.44-5.08l3.31-0.29l0.07,0.77l-2.39,0.21l0.12,1.38l2.21-0.19l0.07,0.77l-2.21,0.19
				l0.12,1.39l2.41-0.21l0.07,0.77L123.03,111.16z"/>
			<path class="st25" d="M127.28,110.8l-0.44-5.08l1.91-0.16c0.39-0.03,0.72,0.01,1,0.12s0.49,0.29,0.65,0.52
				c0.16,0.23,0.25,0.51,0.28,0.84c0.03,0.33-0.02,0.61-0.13,0.87c-0.12,0.25-0.3,0.45-0.56,0.61c-0.26,0.15-0.58,0.25-0.97,0.28
				l-1.36,0.12l-0.07-0.76l1.23-0.11c0.23-0.02,0.41-0.07,0.55-0.14c0.14-0.08,0.24-0.18,0.3-0.31c0.06-0.13,0.08-0.28,0.07-0.46
				c-0.02-0.18-0.06-0.33-0.15-0.45c-0.08-0.12-0.2-0.21-0.35-0.26c-0.15-0.05-0.34-0.07-0.57-0.05l-0.84,0.07l0.37,4.31
				L127.28,110.8z M129.71,108.26l1.46,2.2l-1.03,0.09l-1.44-2.2L129.71,108.26z"/>
		</g>
	</g>
	<g>
		<path class="st25" d="M123.74,89.07l-0.43-5.08l1.91-0.16c0.39-0.03,0.72,0.01,1,0.13c0.28,0.12,0.5,0.31,0.65,0.55
			c0.16,0.24,0.25,0.52,0.28,0.85c0.03,0.33-0.02,0.62-0.13,0.89c-0.12,0.26-0.3,0.48-0.56,0.65c-0.26,0.17-0.58,0.27-0.97,0.3
			l-1.26,0.11l-0.06-0.76l1.14-0.1c0.23-0.02,0.41-0.07,0.55-0.17c0.14-0.09,0.24-0.21,0.3-0.36c0.06-0.15,0.08-0.31,0.06-0.49
			c-0.02-0.18-0.06-0.34-0.15-0.47c-0.08-0.13-0.2-0.23-0.35-0.29c-0.15-0.06-0.34-0.09-0.57-0.07l-0.84,0.07l0.37,4.32
			L123.74,89.07z"/>
		<path class="st25" d="M128.33,88.68l-0.98,0.08l1.36-5.24l1.14-0.1l2.22,4.93l-0.98,0.08l-1.7-3.93l-0.04,0L128.33,88.68z
			 M128.19,86.69l2.68-0.23l0.06,0.74l-2.68,0.23L128.19,86.69z"/>
		<path class="st25" d="M135.11,84.4c-0.04-0.21-0.15-0.38-0.33-0.48c-0.18-0.11-0.41-0.15-0.68-0.12
			c-0.19,0.02-0.35,0.06-0.49,0.13c-0.13,0.07-0.23,0.16-0.3,0.26c-0.06,0.11-0.09,0.22-0.08,0.35c0.01,0.11,0.04,0.2,0.1,0.27
			c0.06,0.07,0.13,0.13,0.22,0.18s0.19,0.08,0.29,0.11c0.11,0.03,0.21,0.05,0.32,0.07l0.49,0.08c0.2,0.03,0.39,0.07,0.57,0.13
			c0.18,0.06,0.35,0.14,0.5,0.25c0.15,0.1,0.28,0.23,0.37,0.39c0.1,0.16,0.15,0.35,0.17,0.57c0.03,0.3-0.03,0.57-0.16,0.81
			c-0.13,0.24-0.34,0.43-0.61,0.58c-0.28,0.15-0.62,0.24-1.03,0.28c-0.4,0.03-0.74,0-1.04-0.1c-0.3-0.1-0.54-0.26-0.73-0.48
			c-0.18-0.22-0.3-0.5-0.34-0.84l0.91-0.08c0.03,0.18,0.1,0.32,0.2,0.43c0.11,0.11,0.24,0.19,0.4,0.23
			c0.16,0.04,0.34,0.06,0.53,0.04c0.2-0.02,0.37-0.06,0.52-0.14c0.15-0.07,0.26-0.17,0.34-0.28c0.08-0.12,0.11-0.25,0.1-0.39
			c-0.01-0.13-0.06-0.24-0.14-0.32c-0.08-0.08-0.2-0.14-0.34-0.19c-0.14-0.05-0.31-0.09-0.49-0.12l-0.59-0.1
			c-0.43-0.07-0.77-0.21-1.03-0.41c-0.26-0.2-0.41-0.48-0.44-0.84c-0.03-0.3,0.03-0.57,0.18-0.81c0.14-0.24,0.35-0.43,0.62-0.58
			c0.27-0.15,0.58-0.24,0.94-0.27c0.36-0.03,0.68,0.01,0.97,0.11c0.28,0.1,0.51,0.26,0.69,0.46c0.17,0.21,0.28,0.45,0.31,0.74
			L135.11,84.4z"/>
		<path class="st25" d="M139.65,84.01c-0.04-0.21-0.15-0.38-0.33-0.48c-0.18-0.11-0.41-0.15-0.68-0.12
			c-0.19,0.02-0.35,0.06-0.49,0.13c-0.13,0.07-0.23,0.16-0.3,0.26c-0.06,0.11-0.09,0.22-0.08,0.35c0.01,0.11,0.04,0.2,0.1,0.27
			c0.06,0.07,0.13,0.13,0.22,0.18s0.19,0.08,0.29,0.11c0.11,0.03,0.21,0.05,0.32,0.07l0.49,0.08c0.2,0.03,0.39,0.07,0.57,0.13
			c0.18,0.06,0.35,0.14,0.5,0.25c0.15,0.1,0.28,0.23,0.37,0.39c0.1,0.16,0.15,0.35,0.17,0.57c0.03,0.3-0.03,0.57-0.16,0.81
			c-0.13,0.24-0.34,0.43-0.61,0.58c-0.28,0.15-0.62,0.24-1.03,0.28c-0.4,0.03-0.74,0-1.04-0.1c-0.3-0.1-0.54-0.26-0.73-0.48
			c-0.18-0.22-0.3-0.5-0.34-0.84l0.91-0.08c0.03,0.18,0.1,0.32,0.2,0.43c0.11,0.11,0.24,0.19,0.4,0.23
			c0.16,0.04,0.34,0.06,0.53,0.04c0.2-0.02,0.37-0.06,0.52-0.14c0.15-0.07,0.26-0.17,0.34-0.28c0.08-0.12,0.11-0.25,0.1-0.39
			c-0.01-0.13-0.06-0.24-0.14-0.32c-0.08-0.08-0.2-0.14-0.34-0.19c-0.14-0.05-0.31-0.09-0.49-0.12l-0.59-0.1
			c-0.43-0.07-0.77-0.21-1.03-0.41c-0.26-0.2-0.41-0.48-0.44-0.84c-0.03-0.3,0.03-0.57,0.18-0.81c0.14-0.24,0.35-0.43,0.62-0.58
			c0.27-0.15,0.58-0.24,0.94-0.27c0.36-0.03,0.68,0.01,0.97,0.11c0.28,0.1,0.51,0.26,0.69,0.46c0.17,0.21,0.28,0.45,0.31,0.74
			L139.65,84.01z"/>
		<path class="st25" d="M142.22,82.39l0.43,5.08l-0.92,0.08l-0.43-5.08L142.22,82.39z"/>
		<path class="st25" d="M147.98,84.46c0.05,0.55-0.02,1.02-0.19,1.43c-0.17,0.41-0.42,0.73-0.76,0.97
			c-0.33,0.24-0.72,0.37-1.17,0.41c-0.45,0.04-0.85-0.03-1.22-0.21c-0.37-0.18-0.67-0.45-0.91-0.83s-0.38-0.83-0.43-1.38
			c-0.05-0.55,0.02-1.03,0.19-1.43c0.17-0.41,0.42-0.73,0.76-0.97c0.33-0.24,0.72-0.37,1.17-0.41c0.45-0.04,0.85,0.03,1.22,0.21
			c0.37,0.18,0.67,0.45,0.91,0.82C147.8,83.45,147.94,83.91,147.98,84.46z M147.06,84.54c-0.03-0.39-0.12-0.71-0.26-0.96
			c-0.14-0.26-0.33-0.44-0.55-0.56c-0.22-0.12-0.47-0.17-0.75-0.14c-0.28,0.02-0.51,0.11-0.72,0.27c-0.2,0.15-0.35,0.37-0.45,0.65
			c-0.1,0.28-0.13,0.61-0.1,0.99c0.03,0.39,0.12,0.71,0.26,0.96c0.14,0.26,0.33,0.44,0.55,0.56c0.22,0.12,0.47,0.17,0.75,0.14
			c0.28-0.02,0.51-0.11,0.72-0.27c0.2-0.15,0.35-0.37,0.45-0.65C147.06,85.26,147.09,84.93,147.06,84.54z"/>
		<path class="st25" d="M152.82,81.49l0.43,5.08l-0.82,0.07l-2.69-3.26l-0.04,0l0.29,3.46l-0.92,0.08l-0.43-5.08l0.82-0.07
			l2.69,3.26l0.04,0l-0.29-3.47L152.82,81.49z"/>
	</g>
	<g>
		<g>
			<path class="st25" d="M117.58,138.18l-1.01-5.21l0.99,0.08l0.6,3.81l0.05,0l1.29-3.66l0.9,0.08l0.67,3.82l0.04,0l1.23-3.66
				l0.99,0.08l-1.86,4.97l-0.91-0.08l-0.72-3.65l-0.04,0l-1.32,3.48L117.58,138.18z"/>
			<path class="st25" d="M123.55,138.68l0.42-5.09l3.31,0.28l-0.06,0.77l-2.39-0.2l-0.12,1.38l2.22,0.19l-0.06,0.77l-2.22-0.19
				l-0.12,1.39l2.41,0.2l-0.06,0.77L123.55,138.68z"/>
			<path class="st25" d="M128.45,139.09l-0.98-0.08l2.22-4.94l1.14,0.1l1.37,5.24l-0.98-0.08l-1.02-4.16l-0.04,0L128.45,139.09z
				 M128.65,137.1l2.68,0.22l-0.06,0.74l-2.68-0.22L128.65,137.1z"/>
			<path class="st25" d="M132.86,139.46l0.42-5.09l0.92,0.08l-0.36,4.31l2.24,0.19l-0.06,0.77L132.86,139.46z"/>
			<path class="st25" d="M136.31,135.4l0.06-0.77l4.06,0.34l-0.06,0.77l-1.57-0.13l-0.36,4.31l-0.91-0.08l0.36-4.31L136.31,135.4z"
				/>
			<path class="st25" d="M140.78,140.12l0.42-5.09l0.92,0.08l-0.18,2.15l2.36,0.2l0.18-2.15l0.92,0.08l-0.42,5.09l-0.92-0.08
				l0.18-2.16l-2.36-0.2l-0.18,2.16L140.78,140.12z"/>
		</g>
	</g>
	<g>
		<g>
			<path class="st26" d="M138.57,224.09c0,0-3.75-4.38-0.23-7.16c0,0,2.57-1.56,4.67-1.43c0,0-2.97,4.99-2.01,5.48
				c0.96,0.5,2.91-5.79,2.91-5.79s5.86-0.57,7.74,0.34c0,0-5.01,4.1-3.95,4.34c1.05,0.24,6.46-3.78,6.46-3.78s5.45,0.93,5.16,4.25
				c-0.29,3.33-2.17,4.35-2.99,4.26c-0.83-0.09-5.65-1.93-5.76-1.26c-0.11,0.68,2.8,2.89,4.84,2.99c0,0-3.84,4.24-6.4,3.01
				c-2.55-1.22-2.77-3.16-4.36-3.89c-1.59-0.73-2.95-0.73-2.29,0.02c0.66,0.74,3.54,1.46,4.45,3.07c0.91,1.61,1.73,2.7-0.92,2.3
				c-2.64-0.4-6.94-2.33-7.13-4.54C138.57,224.09,138.57,224.09,138.57,224.09z"/>
			<g>
				<path class="st26" d="M156.64,220.42c0,0-14.8-0.57-18.07,3.66c0,0-0.72,2.17-2.95,4.14l-0.35,0.95c0,0,2.57-2.7,3.48-2.87
					C138.75,226.3,137.32,221.05,156.64,220.42z"/>
				<path class="st26" d="M135.62,228.22c0,0-3.18,2.35-3.4,6.55l0.58,0.05c0,0,1.01-4.34,2.85-6.04
					C137.48,227.09,135.62,228.22,135.62,228.22z"/>
			</g>
		</g>
		<g>
			<path class="st27" d="M125.44,218.58c0,0,5.97-3.34,3.19-7.88c0,0-2.23-2.79-4.62-3.5c0,0,1.27,6.77,0,6.93
				c-1.27,0.16-0.88-7.65-0.88-7.65s-6.29-3.03-8.76-2.79c0,0,3.9,6.61,2.63,6.45c-1.27-0.16-5.65-6.85-5.65-6.85
				s-6.45-1.19-7.49,2.63c-1.04,3.82,0.64,5.73,1.59,5.97c0.96,0.24,7.09,0.16,6.93,0.96c-0.16,0.8-4.3,2.07-6.61,1.35
				c0,0,2.55,6.29,5.89,5.97c3.34-0.32,4.38-2.39,6.45-2.55c2.07-0.16,3.58,0.4,2.55,0.96c-1.04,0.56-4.54,0.18-6.21,1.6
				c-1.67,1.42-3.03,2.3,0.08,2.93c3.11,0.64,8.68,0.24,9.8-2.15C125.44,218.58,125.44,218.58,125.44,218.58z"/>
			<g>
				<path class="st26" d="M106.8,207.11c0,0,16.72,5.42,18.64,11.47c0,0-0.08,2.71,1.59,5.81v1.19c0,0-1.75-4.06-2.71-4.62
					C124.32,220.97,128.07,215.71,106.8,207.11z"/>
				<path class="st26" d="M127.03,224.39c0,0,2.58,3.92,1.11,8.68l-0.66-0.18c0,0,0.64-5.25-0.71-7.89
					C125.42,222.36,127.03,224.39,127.03,224.39z"/>
			</g>
		</g>
		<g>
			<path class="st27" d="M134.94,213.96c0,0-7.87-4.41-4.2-10.39c0,0,2.94-3.67,6.09-4.62c0,0-1.68,8.92,0,9.13
				c1.68,0.21,1.15-10.08,1.15-10.08s8.29-3.99,11.55-3.67c0,0-5.14,8.71-3.46,8.5c1.68-0.21,7.45-9.03,7.45-9.03
				s8.5-1.57,9.87,3.46c1.36,5.04-0.84,7.56-2.1,7.87c-1.26,0.31-9.34,0.21-9.13,1.26c0.21,1.05,5.67,2.73,8.71,1.78
				c0,0-3.36,8.29-7.77,7.87c-4.41-0.42-5.77-3.15-8.5-3.36c-2.73-0.21-4.72,0.52-3.36,1.26c1.36,0.73,5.98,0.24,8.19,2.11
				c2.2,1.87,3.99,3.03-0.1,3.87c-4.09,0.84-11.44,0.32-12.91-2.83C134.94,213.96,134.94,213.96,134.94,213.96z"/>
			<g>
				<path class="st26" d="M159.5,198.85c0,0-22.05,7.14-24.56,15.12c0,0,0.11,3.57-2.1,7.66v1.57c0,0,2.31-5.35,3.57-6.09
					C136.41,217.11,131.48,210.19,159.5,198.85z"/>
				<path class="st26" d="M132.84,221.63c0,0-3.4,5.16-1.46,11.45l0.87-0.24c0,0-0.85-6.92,0.93-10.4
					C134.96,218.96,132.84,221.63,132.84,221.63z"/>
			</g>
		</g>
		<path class="st28" d="M134.67,246.7c8.52,0,15.42-6.9,15.42-15.42h-30.84C119.25,239.8,126.16,246.7,134.67,246.7z"/>
		<path class="st29" d="M138.47,246.58c-0.63,0.08-1.27,0.12-1.92,0.12c-8.52,0-15.42-6.91-15.42-15.42h3.83
			C124.96,239.15,130.86,245.64,138.47,246.58z"/>
		<path class="st28" d="M150.31,247.49h-31.27l0,0c0-1.05,0.85-1.9,1.9-1.9h27.47C149.46,245.58,150.31,246.44,150.31,247.49
			L150.31,247.49z"/>
		<rect x="118.74" y="231.28" class="st30" width="31.7" height="0.47"/>
	</g>
</g>
</svg>
