<svg id="Layer_1" data-name="Layer 1" xmlns="http://www.w3.org/2000/svg" viewBox="0 0 255 290"><defs><style>.cls-1{font-size:11.61px;fill:#021166;font-family:Inter-Bold, Inter;font-weight:700;}.cls-2{fill:#e1e1e1;}.cls-3{fill:#fafafa;}.cls-4{fill:#ececec;}.cls-5{fill:#f5f5f5;}.cls-6{fill:#1a2e35;}.cls-7{fill:#375a64;}.cls-8{opacity:0.6;}.cls-9{fill:#fff;}.cls-10{opacity:0.3;}.cls-11{fill:#ffc19d;}.cls-12{fill:#ff9c6a;}.cls-13{fill:#4458ad;}.cls-14{opacity:0.2;}.cls-15{fill:#08c29d;}.cls-16{fill:#53a8bc;}.cls-17{opacity:0.4;}</style></defs><title>banner</title><text class="cls-1" transform="translate(61.14 63.75)">CAREER COUNSELLING</text><rect class="cls-2" x="228.08" y="80.51" width="23.88" height="24.89"/><rect class="cls-3" x="226.46" y="80.51" width="23.88" height="24.89"/><path class="cls-2" d="M250.35,105.41h-23.9V80.5h23.9Zm-23.88,0h23.86V80.52H226.47Z"/><rect class="cls-3" x="229.67" y="83.86" width="17.46" height="18.2"/><path class="cls-2" d="M229.67,102.18a2.66,2.66,0,0,1-.43.5c-.28.3-.67.69-1.11,1.13L227,104.9a3.06,3.06,0,0,1-.51.42,2.66,2.66,0,0,1,.43-.5l1.11-1.13c.44-.43.85-.82,1.15-1.09A2.35,2.35,0,0,1,229.67,102.18Z"/><path class="cls-2" d="M247.13,102.14s.21.15.5.43.69.67,1.12,1.11.82.84,1.1,1.14a4,4,0,0,1,.42.5s-.21-.15-.5-.43-.7-.67-1.13-1.11-.82-.84-1.09-1.14A2.56,2.56,0,0,1,247.13,102.14Z"/><path class="cls-2" d="M247.08,83.91a2.66,2.66,0,0,1,.43-.5c.28-.3.67-.7,1.11-1.13s.84-.82,1.14-1.09a2.53,2.53,0,0,1,.51-.42,3.7,3.7,0,0,1-.43.5l-1.11,1.13c-.44.43-.85.82-1.15,1.09A3.3,3.3,0,0,1,247.08,83.91Z"/><path class="cls-2" d="M229.62,84s-.21-.15-.5-.43L228,82.41l-1.09-1.14a4,4,0,0,1-.42-.5,2.35,2.35,0,0,1,.5.42c.3.28.69.68,1.13,1.12s.82.84,1.09,1.14A2.56,2.56,0,0,1,229.62,84Z"/><path class="cls-2" d="M247.08,102.06v-1.33c0-.86,0-2.11,0-3.7,0-3.19,0-7.73,0-13.17l.07.07H229.67l.08-.08c0,6.68,0,12.93,0,18.2l-.06-.07,12.61,0h3.56l-3.52,0-12.65,0h-.07v-.07c0-5.27,0-11.52,0-18.2v-.08h17.56v.07c0,5.45,0,10,0,13.21,0,1.58,0,2.83,0,3.69,0,.42,0,.75,0,1v.33Z"/><rect class="cls-4" x="235.49" y="90.05" width="5.83" height="5.83"/><path class="cls-4" d="M230.24,150.82s-3.54-.26-3.22,7.7a92.74,92.74,0,0,0,1.14,12.19s-.1,1.76-1.47,1.42-3.94-2.07-5.21-.78-.84,3.37.9,5.77,5.38,7.82,5.71,8.31.45,1.38-.52,1.29-7.51-2.3-8.37.86,5.1,9.07,5.74,9.72.67,1.08.41,1.47-2.39-.55-4.27-1.1-4.17-.87-4.51,1,2.28,7.33,12.12,13.08l4.73,2.36,4.48-2.86c9.21-6.7,11.28-12.4,10.75-14.22s-2.77-1.29-4.59-.55-3.84,1.9-4.14,1.53-.31-.78.26-1.5,5.92-7.19,4.74-10.25-7.46-.2-8.41,0-.92-.73-.65-1.24,3.35-6.26,4.85-8.83,1.75-4.64.31-5.83-3.78.81-5.1,1.29-1.6-1.26-1.6-1.26a92.85,92.85,0,0,0-.09-12.25c-.47-7.94-4.06-7.3-4.06-7.3"/><path class="cls-2" d="M230.52,157.94s0,.06,0,.17,0,.28,0,.49c0,.43.07,1.07.13,1.87.1,1.64.24,4,.41,6.92.32,5.84.7,13.9,1.09,22.82s.75,17,1,22.82c.15,2.91.27,5.27.35,6.91,0,.81.07,1.45.09,1.88l0,.49a.74.74,0,0,1,0,.17s0-.06,0-.17l0-.48c0-.44-.08-1.07-.13-1.88-.11-1.63-.25-4-.41-6.91-.32-5.84-.7-13.91-1.09-22.83s-.75-17-1-22.82c-.15-2.91-.27-5.27-.35-6.91,0-.81-.08-1.44-.1-1.88,0-.21,0-.37,0-.49Z"/><path class="cls-2" d="M225,173.89a1.35,1.35,0,0,1,.3.25c.18.16.44.41.75.72.62.62,1.46,1.5,2.37,2.48l2.32,2.53.7.77a1.49,1.49,0,0,1,.25.29,1.46,1.46,0,0,1-.3-.24l-.75-.73c-.62-.62-1.44-1.51-2.35-2.5L225.94,175l-.71-.76A1.35,1.35,0,0,1,225,173.89Z"/><path class="cls-2" d="M232.14,180.77s1.69-1.84,3.86-4,4-4,4-3.93-1.7,1.85-3.87,4S232.17,180.81,232.14,180.77Z"/><path class="cls-2" d="M232.12,194.49a1.28,1.28,0,0,1,.33-.21l.92-.52c.78-.44,1.86-1,3-1.76s2.2-1.4,3-1.9l.88-.59a2.12,2.12,0,0,1,.34-.2,1.29,1.29,0,0,1-.3.26c-.19.16-.48.38-.85.64-.73.52-1.75,1.22-2.92,1.94s-2.26,1.31-3.06,1.72c-.4.21-.72.37-1,.47A1.72,1.72,0,0,1,232.12,194.49Z"/><path class="cls-2" d="M224.28,189.69a1.33,1.33,0,0,1,.32.15l.86.48,2.8,1.63c1.09.65,2.06,1.24,2.77,1.68l.83.53a1.52,1.52,0,0,1,.29.21,1.14,1.14,0,0,1-.33-.15l-.86-.48c-.72-.41-1.71-1-2.79-1.63s-2.07-1.24-2.77-1.68l-.83-.53C224.37,189.78,224.27,189.7,224.28,189.69Z"/><path class="cls-2" d="M222.72,201.8s.16.06.42.2l1.1.6c.93.52,2.2,1.25,3.6,2.07s2.66,1.56,3.57,2.11l1.08.66a2.17,2.17,0,0,1,.38.26,2,2,0,0,1-.42-.2l-1.1-.61c-.93-.52-2.2-1.25-3.6-2.06l-3.58-2.11c-.42-.27-.78-.49-1.07-.66A2.35,2.35,0,0,1,222.72,201.8Z"/><path class="cls-2" d="M232.66,207.49a3.17,3.17,0,0,1,.41-.28l1.16-.7c1-.59,2.3-1.41,3.76-2.36s2.74-1.83,3.68-2.48l1.1-.77a3.32,3.32,0,0,1,.42-.27,1.81,1.81,0,0,1-.37.32c-.25.2-.62.48-1.08.82-.91.68-2.2,1.59-3.65,2.53s-2.81,1.76-3.8,2.32c-.5.28-.9.51-1.18.65A2.6,2.6,0,0,1,232.66,207.49Z"/><polygon class="cls-2" points="239.78 215.66 226.68 215.66 230.96 248.01 235.5 248.01 239.78 215.66"/><path class="cls-5" d="M227.36,219.63a.41.41,0,0,0,.07.12.77.77,0,0,0,.32.22,1.55,1.55,0,0,0,1.38-.17,10.42,10.42,0,0,1,1.7-1.11,3.76,3.76,0,0,1,2.41,0,10.84,10.84,0,0,1,2.24,1.09,14.56,14.56,0,0,0,1.82,1,4.94,4.94,0,0,0,1.35.39,1.81,1.81,0,0,0,.38,0c.08,0,.13,0,.13,0a6.52,6.52,0,0,1-1.8-.54,16.61,16.61,0,0,1-1.78-1,10.3,10.3,0,0,0-2.28-1.12,3.82,3.82,0,0,0-2.54,0,3.63,3.63,0,0,0-1,.59,7.11,7.11,0,0,1-.75.59,1.57,1.57,0,0,1-1.27.22A1.33,1.33,0,0,1,227.36,219.63Z"/><path class="cls-5" d="M227.84,225.59s.1-.13.31-.35a3.16,3.16,0,0,1,1-.66,4.62,4.62,0,0,1,1.82-.27,18.47,18.47,0,0,1,2.28.31,8.11,8.11,0,0,0,2.34.09,6.2,6.2,0,0,0,1.83-.52,5.86,5.86,0,0,0,1.11-.66,1.79,1.79,0,0,0,.35-.31,12.14,12.14,0,0,1-1.52.83,6.82,6.82,0,0,1-1.8.47,8.06,8.06,0,0,1-2.27-.11,16.84,16.84,0,0,0-2.31-.3,4.62,4.62,0,0,0-1.88.33,2.73,2.73,0,0,0-1,.75,1.38,1.38,0,0,0-.2.29C227.85,225.55,227.83,225.59,227.84,225.59Z"/><path class="cls-5" d="M238.29,228.78a1,1,0,0,0-.36-.19,4.13,4.13,0,0,0-1.08-.23,6.8,6.8,0,0,0-1.64.09c-.61.1-1.27.27-2,.42a8.57,8.57,0,0,1-1.95.22,4,4,0,0,1-1.54-.34,3.48,3.48,0,0,1-1.18-.87,1,1,0,0,0,.22.34,2.88,2.88,0,0,0,.89.67,4.32,4.32,0,0,0,1.61.4,8.41,8.41,0,0,0,2-.21c.69-.15,1.34-.32,1.94-.43a7.32,7.32,0,0,1,1.6-.14A5.87,5.87,0,0,1,238.29,228.78Z"/><path class="cls-5" d="M229,233.27a2.07,2.07,0,0,1,1.27-.13,6,6,0,0,1,1.33.5,5.07,5.07,0,0,0,1.72.47,5.18,5.18,0,0,0,3.14-.72,5.24,5.24,0,0,0,.78-.6c.16-.17.24-.27.23-.28s-.38.35-1.09.74a5.33,5.33,0,0,1-3,.65c-1.24-.07-2.19-.81-3.05-.91a1.91,1.91,0,0,0-1,.09C229.08,233.16,229,233.26,229,233.27Z"/><path class="cls-5" d="M229.73,239.48a2.6,2.6,0,0,0,1.09-.22c.66-.22,1.47-.72,2.42-1.1a3.85,3.85,0,0,1,1.39-.29,2.47,2.47,0,0,1,1.12.25,2.5,2.5,0,0,1,.81.7.7.7,0,0,0-.12-.28,1.82,1.82,0,0,0-.62-.55,2.45,2.45,0,0,0-1.18-.32,3.92,3.92,0,0,0-1.47.29c-1,.39-1.78.91-2.41,1.16S229.72,239.44,229.73,239.48Z"/><path class="cls-5" d="M230.37,242.37a3.18,3.18,0,0,0,.83.27,16.49,16.49,0,0,0,2.07.34,16.09,16.09,0,0,0,2.1.07,3,3,0,0,0,.87-.11c0-.06-1.33,0-3-.17S230.38,242.3,230.37,242.37Z"/><rect class="cls-2" x="50.86" y="92.62" width="3.38" height="16.84" transform="translate(-0.54 0.28) rotate(-0.31)"/><rect class="cls-4" x="21.51" y="92.68" width="8.77" height="9.3" transform="translate(-0.52 0.14) rotate(-0.31)"/><rect class="cls-5" x="30.24" y="92.63" width="8.77" height="9.3" transform="translate(-0.52 0.19) rotate(-0.31)"/><path class="cls-2" d="M21.5,95.27c5.83,0,11.67,0,17.49-.08A.1.1,0,0,0,39,95q-8.75,0-17.49.11a.08.08,0,0,0,0,.16Z"/><rect class="cls-4" x="16.04" y="101.84" width="15.93" height="7.58" transform="translate(-0.57 0.13) rotate(-0.31)"/><rect class="cls-5" x="31.89" y="101.75" width="15.93" height="7.58" transform="translate(-0.56 0.21) rotate(-0.31)"/><path class="cls-2" d="M16,104c10.58.12,21.2,0,31.78-.16a.09.09,0,0,0,0-.18c-10.58-.06-21.2-.05-31.78.18a.08.08,0,0,0,0,.16Z"/><rect class="cls-2" x="10.08" y="109.46" width="61.7" height="2.71"/><rect class="cls-2" x="20.18" y="110.76" width="2.5" height="9.26"/><rect class="cls-2" x="57.57" y="110.76" width="2.5" height="9.26"/><rect class="cls-4" x="54.18" y="86.34" width="3.38" height="23.17" transform="translate(-0.52 0.3) rotate(-0.31)"/><rect class="cls-5" x="57.58" y="90.65" width="5.26" height="18.77" transform="translate(-0.54 0.32) rotate(-0.31)"/><path class="cls-2" d="M62.75,94.26a19.15,19.15,0,0,1-2.63.09,19.27,19.27,0,0,1-2.63-.09,19.27,19.27,0,0,1,2.63-.09A19.15,19.15,0,0,1,62.75,94.26Z"/><path class="cls-2" d="M62.75,93.47a19.15,19.15,0,0,1-2.63.09,19.27,19.27,0,0,1-2.63-.09,19.27,19.27,0,0,1,2.63-.09A19.15,19.15,0,0,1,62.75,93.47Z"/><path class="cls-2" d="M62.75,106.59a19.15,19.15,0,0,1-2.63.09,19.27,19.27,0,0,1-2.63-.09,19.27,19.27,0,0,1,2.63-.09A19.15,19.15,0,0,1,62.75,106.59Z"/><path class="cls-2" d="M62.75,105.8a19.15,19.15,0,0,1-2.63.09,19.27,19.27,0,0,1-2.63-.09,19.27,19.27,0,0,1,2.63-.09A19.15,19.15,0,0,1,62.75,105.8Z"/><path class="cls-2" d="M60.21,104.08c-.05,0-.09-1.89-.09-4.23s0-4.23.09-4.23.09,1.89.09,4.23S60.26,104.08,60.21,104.08Z"/><rect class="cls-4" x="62.81" y="95.25" width="5.73" height="14.17"/><circle class="cls-2" cx="55.76" cy="90.28" r="0.97"/><rect class="cls-2" x="55.46" y="92.96" width="0.6" height="13.78"/><rect class="cls-2" x="10.3" y="135.64" width="23.88" height="24.89"/><rect class="cls-3" x="8.68" y="135.64" width="23.88" height="24.89"/><path class="cls-2" d="M32.57,160.54H8.67V135.63h23.9Zm-23.88,0H32.55V135.65H8.69Z"/><rect class="cls-3" x="11.89" y="138.99" width="17.46" height="18.2"/><path class="cls-2" d="M11.89,157.31a2.66,2.66,0,0,1-.43.5c-.28.3-.67.69-1.11,1.13L9.21,160a3.06,3.06,0,0,1-.51.42,2.66,2.66,0,0,1,.43-.5l1.11-1.13c.44-.43.85-.82,1.15-1.09A2.68,2.68,0,0,1,11.89,157.31Z"/><path class="cls-2" d="M29.35,157.27s.21.15.5.43L31,158.81,32.07,160a4,4,0,0,1,.42.5s-.21-.15-.5-.43-.69-.67-1.13-1.11-.82-.84-1.09-1.14A2.56,2.56,0,0,1,29.35,157.27Z"/><path class="cls-2" d="M29.3,139a2.66,2.66,0,0,1,.43-.5c.28-.3.67-.7,1.11-1.13L32,136.32a2.53,2.53,0,0,1,.51-.42,3.7,3.7,0,0,1-.43.5L31,137.53c-.44.43-.85.82-1.15,1.09A2.81,2.81,0,0,1,29.3,139Z"/><path class="cls-2" d="M11.84,139.08s-.21-.15-.5-.43-.69-.67-1.12-1.11-.82-.84-1.1-1.14a4,4,0,0,1-.42-.5,2.35,2.35,0,0,1,.5.42c.3.28.7.68,1.13,1.12s.82.84,1.09,1.14A2.56,2.56,0,0,1,11.84,139.08Z"/><path class="cls-2" d="M29.3,157.19v-1.33c0-.86,0-2.11,0-3.7,0-3.19,0-7.73,0-13.17l.07.07H11.89L12,139c0,6.68,0,12.93,0,18.2l-.07-.07,12.61,0h3.57l-3.53,0-12.65,0h-.07v-.07c0-5.27,0-11.52,0-18.2v-.08H29.37V139c0,5.45,0,10,0,13.21,0,1.58,0,2.83,0,3.69,0,.42,0,.75,0,1v.25A.45.45,0,0,0,29.3,157.19Z"/><rect class="cls-4" x="17.71" y="145.18" width="5.83" height="5.83"/><rect class="cls-5" x="139.15" y="103.75" width="12.8" height="27.4"/><rect class="cls-5" x="152.48" y="133.06" width="15.73" height="26.48"/><polygon class="cls-5" points="170.13 103.27 185.06 103.27 185.06 78.96 185.59 78.96 185.59 103.27 199.42 103.27 199.42 78.42 170.13 78.42 170.13 103.27"/><rect class="cls-5" x="139.15" y="133.06" width="12.8" height="26.48"/><rect class="cls-5" x="185.6" y="133.06" width="13.82" height="26.48"/><rect class="cls-5" x="152.48" y="103.75" width="15.73" height="27.4"/><rect class="cls-5" x="185.6" y="103.75" width="13.82" height="27.4"/><rect class="cls-5" x="139.15" y="160.02" width="12.8" height="23.86"/><polygon class="cls-5" points="151.95 103.27 151.95 78.96 152.48 78.96 152.48 103.27 168.21 103.27 168.21 78.42 139.15 78.42 139.15 103.27 151.95 103.27"/><rect class="cls-5" x="152.48" y="160.02" width="15.73" height="23.86"/><rect class="cls-5" x="185.6" y="160.02" width="13.82" height="23.86"/><rect class="cls-5" x="170.13" y="103.75" width="14.94" height="27.4"/><rect class="cls-5" x="170.13" y="160.02" width="14.94" height="23.86"/><rect class="cls-5" x="170.13" y="133.06" width="14.94" height="26.48"/><rect class="cls-5" x="76.75" y="103.75" width="12.8" height="27.4"/><rect class="cls-5" x="90.09" y="133.06" width="15.73" height="26.48"/><polygon class="cls-5" points="107.73 103.27 122.67 103.27 122.67 78.96 123.2 78.96 123.2 103.27 137.03 103.27 137.03 78.42 107.73 78.42 107.73 103.27"/><rect class="cls-5" x="76.75" y="133.06" width="12.8" height="26.48"/><rect class="cls-5" x="123.2" y="133.06" width="13.83" height="26.48"/><rect class="cls-5" x="90.09" y="103.75" width="15.73" height="27.4"/><rect class="cls-5" x="123.2" y="103.75" width="13.83" height="27.4"/><rect class="cls-5" x="76.75" y="160.02" width="12.8" height="23.86"/><polygon class="cls-5" points="89.56 103.27 89.56 78.96 90.09 78.96 90.09 103.27 105.82 103.27 105.82 78.42 76.75 78.42 76.75 103.27 89.56 103.27"/><rect class="cls-5" x="90.09" y="160.02" width="15.73" height="23.86"/><rect class="cls-5" x="123.2" y="160.02" width="13.83" height="23.86"/><rect class="cls-5" x="107.73" y="103.75" width="14.94" height="27.4"/><rect class="cls-5" x="107.73" y="160.02" width="14.94" height="23.86"/><rect class="cls-5" x="107.73" y="133.06" width="14.94" height="26.48"/><path class="cls-6" d="M249.21,248.23c0,.05-49.11.1-122,.1s-122-.05-122-.1,49.09-.11,122-.11S249.21,248.17,249.21,248.23Z"/><polygon class="cls-6" points="216.5 221.17 216.5 248.01 219.68 248.01 220.86 221.1 216.5 221.17"/><polygon class="cls-6" points="164.17 221.1 165.69 248.01 168.7 248.01 168.73 221.17 164.17 221.1"/><rect class="cls-7" x="159.17" y="203.72" width="59.62" height="19.43" rx="5.21"/><path class="cls-7" d="M221.51,195c.71-5.37,1.29-11.16-1.29-15.93-2.69-4.95-8.61-7.76-14.22-7.26a18.49,18.49,0,0,0-13.68,8.86A24.56,24.56,0,0,0,189.26,197"/><path class="cls-6" d="M194.27,216.31c0,.05-6.8.1-15.18.1s-15.18,0-15.18-.1,6.8-.11,15.18-.11S194.27,216.25,194.27,216.31Z"/><path class="cls-3" d="M194.48,216.19s-1.29,1.11-2.91,2.44-3,2.39-3,2.37,1.29-1.11,2.91-2.44S194.47,216.17,194.48,216.19Z"/><path class="cls-3" d="M188.68,209.92s-4,2.91-9.06,6.46-9.11,6.41-9.12,6.39,4-2.91,9.07-6.46S188.67,209.9,188.68,209.92Z"/><path class="cls-3" d="M174.86,209.63s-2.66,2-6,4.35-6,4.3-6,4.28,2.65-2,5.95-4.35S174.84,209.61,174.86,209.63Z"/><path class="cls-3" d="M168.68,205.44l-.06.05-.19.1-.7.4c-.58.34-1.38.83-2.23,1.41s-1.59,1.16-2.12,1.58l-.62.51-.17.13-.06,0,.05-.06.16-.15c.14-.13.35-.31.61-.52a24.66,24.66,0,0,1,2.11-1.6c.85-.59,1.65-1.07,2.24-1.4l.71-.37.2-.1Z"/><path class="cls-3" d="M221.15,181l-.12.1-.35.3-1.31,1.05c-1.13.88-2.71,2.06-4.51,3.27s-3.48,2.24-4.72,3l-1.47.83-.4.21-.15.07.14-.08.39-.23,1.46-.85c1.23-.72,2.91-1.75,4.71-3s3.38-2.39,4.51-3.25l1.33-1L221,181Z"/><path class="cls-6" d="M211.82,174.85l.17.08a4.47,4.47,0,0,1,.45.28,7.87,7.87,0,0,1,1.47,1.26,12,12,0,0,1,2.83,5.7,22.81,22.81,0,0,1,.28,6.38c-.07.82-.14,1.47-.2,1.93l-.08.52c0,.12,0,.18,0,.18a5.3,5.3,0,0,1,0-.71c0-.46.08-1.12.13-1.93a24.35,24.35,0,0,0-.33-6.33,12.39,12.39,0,0,0-2.73-5.64A11.36,11.36,0,0,0,211.82,174.85Z"/><path class="cls-3" d="M217.61,175.52l-.05,0-.17.14c-.15.12-.37.3-.64.5-.54.42-1.31,1-2.19,1.54s-1.7,1-2.31,1.36c-.3.17-.54.29-.72.38l-.2.09-.07,0,.07,0,.19-.11.71-.4c.59-.33,1.41-.81,2.28-1.38s1.65-1.11,2.2-1.51l.66-.48.17-.13C217.59,175.53,217.61,175.51,217.61,175.52Z"/><path d="M152.63,232.85l.39,9.75s-9.77,3.68-9.88,5.49l18.93-.09V232.78Z"/><g class="cls-8"><path class="cls-9" d="M158.87,241.75a.78.78,0,0,1,.54.88.74.74,0,0,1-.87.54.81.81,0,0,1-.56-.93.76.76,0,0,1,1-.46"/></g><g class="cls-8"><path class="cls-9" d="M162.07,248l0-1.54-18.13.66s-.84.37-.75,1Z"/></g><path class="cls-6" d="M152.72,242.51c0,.09.46.13.92.42s.7.69.78.65,0-.57-.61-.92S152.69,242.42,152.72,242.51Z"/><path class="cls-6" d="M150.73,243.34c0,.09.38.24.7.63s.41.8.5.8.15-.53-.25-1S150.74,243.25,150.73,243.34Z"/><path class="cls-6" d="M149.62,245.72c.08,0,.21-.45,0-.95s-.68-.7-.71-.63.23.35.42.77S149.52,245.71,149.62,245.72Z"/><path class="cls-6" d="M152.87,240.27c0,.09.46,0,1,0s.93.2,1,.12-.35-.41-1-.44S152.83,240.2,152.87,240.27Z"/><g class="cls-10"><polygon points="152.71 234.78 152.78 236.52 162.08 236.39 162.09 234.83 152.71 234.78"/></g><path class="cls-6" d="M152.83,238.31a1.94,1.94,0,0,0,.95,0,4.8,4.8,0,0,0,1-.31,4.74,4.74,0,0,0,.54-.29,1.38,1.38,0,0,0,.29-.23.42.42,0,0,0,0-.49.49.49,0,0,0-.41-.21,1.3,1.3,0,0,0-.36,0,2.66,2.66,0,0,0-.58.21,3.19,3.19,0,0,0-.88.57c-.43.41-.58.76-.55.78s.25-.26.7-.6a3.87,3.87,0,0,1,.84-.48,3,3,0,0,1,.55-.17c.2-.06.37-.06.42,0s0,.05,0,.11a1,1,0,0,1-.21.16,5.32,5.32,0,0,1-.5.29,4.86,4.86,0,0,1-.92.35A6.6,6.6,0,0,0,152.83,238.31Z"/><path class="cls-6" d="M153,238.44a1.62,1.62,0,0,0,.25-.92,3.11,3.11,0,0,0-.14-1,3.46,3.46,0,0,0-.24-.57.8.8,0,0,0-.61-.48.46.46,0,0,0-.4.27,1.29,1.29,0,0,0-.09.35,2.29,2.29,0,0,0,0,.64,2.16,2.16,0,0,0,.41,1c.37.49.76.6.77.57s-.3-.22-.58-.69a2.13,2.13,0,0,1-.3-.89,2,2,0,0,1,0-.55c0-.2.1-.37.18-.35s.25.15.33.31a3,3,0,0,1,.24.52,3.64,3.64,0,0,1,.19.94C153,238.08,152.9,238.42,153,238.44Z"/><path class="cls-6" d="M179.41,190.88l-21.87-3.45a7.62,7.62,0,0,0-6,1.66h0a7.6,7.6,0,0,0-2.74,6.14l1.55,39.82h13.5V204.13l12.95.24,10.28-9,7.41-1.32,5.52-3.36Z"/><path class="cls-7" d="M163.81,196.31a.45.45,0,0,1,0,.1l0,.29c0,.26,0,.64,0,1.13,0,1,.05,2.4.08,4.15.05,3.51.08,8.35.09,13.7s0,10.19-.06,13.7c0,1.75-.05,3.17-.09,4.15,0,.49,0,.87-.06,1.13l0,.29a.45.45,0,0,1,0,.1.45.45,0,0,1,0-.1v-.3c0-.25,0-.63,0-1.12,0-1,0-2.4,0-4.15v-13.7C163.83,205.15,163.81,197.43,163.81,196.31Z"/><path d="M183.87,236.43l5.25,8.23s-6.59,8.1-5.77,9.71l16.31-9.61L192,231.61Z"/><g class="cls-8"><path class="cls-9" d="M193.75,241a.78.78,0,0,1,.91.49.74.74,0,0,1-.48.9.81.81,0,0,1-1-.52.78.78,0,0,1,.6-.89"/></g><g class="cls-8"><path class="cls-9" d="M199.66,244.76l-.82-1.29-15.33,9.69s-.54.75-.16,1.21Z"/></g><path class="cls-6" d="M188.81,244.73c.05.08.47-.12,1-.1s1,.24,1,.17-.33-.47-1-.49S188.75,244.67,188.81,244.73Z"/><path class="cls-6" d="M187.51,246.45c0,.08.46,0,.93.19s.75.49.83.44-.14-.53-.73-.74S187.47,246.37,187.51,246.45Z"/><path class="cls-6" d="M187.75,249.07c.08,0,0-.49-.5-.81s-.94-.27-.93-.18.37.18.74.45S187.67,249.1,187.75,249.07Z"/><path class="cls-6" d="M187.82,242.72c.08.06.38-.27.84-.5s.91-.3.91-.4-.51-.17-1,.11S187.74,242.68,187.82,242.72Z"/><g class="cls-10"><polygon points="184.91 238.06 185.84 239.53 193.82 234.73 193.03 233.38 184.91 238.06"/></g><path class="cls-6" d="M186.79,241s.36-.1.81-.48a4.81,4.81,0,0,0,1-1.29,1.86,1.86,0,0,0,.13-.34.4.4,0,0,0-.21-.45.52.52,0,0,0-.46,0,1.71,1.71,0,0,0-.28.22,3.54,3.54,0,0,0-.41.47,3.85,3.85,0,0,0-.46.94,1.68,1.68,0,0,0-.09,1c.05,0,.09-.35.31-.87a3.5,3.5,0,0,1,.48-.84A3,3,0,0,1,188,239c.14-.15.29-.24.38-.18s0,0,0,.1a1,1,0,0,1-.09.24c-.09.18-.19.35-.29.51a5.76,5.76,0,0,1-.61.76C187.06,240.8,186.76,241,186.79,241Z"/><path class="cls-6" d="M187,241.1s0-.39-.25-.92a3,3,0,0,0-.64-.83,2.82,2.82,0,0,0-.5-.37.78.78,0,0,0-.76-.11.44.44,0,0,0-.21.43,1.36,1.36,0,0,0,.09.35,2.29,2.29,0,0,0,.33.55,2.19,2.19,0,0,0,.84.64,1.19,1.19,0,0,0,.95.1,6.24,6.24,0,0,1-.85-.3,2.13,2.13,0,0,1-.71-.62,2.19,2.19,0,0,1-.26-.48c-.08-.19-.09-.37,0-.39a.52.52,0,0,1,.44.1,3.28,3.28,0,0,1,.47.33,3.77,3.77,0,0,1,.64.72C186.82,240.76,186.91,241.11,187,241.1Z"/><path class="cls-11" d="M153.58,168.05l-6.34-3.23c-1.65-.71-2.28-1.12-2.12-1.42s.11-.26,3.29.61c0,0-4.53-1.28-3.33-1.77a4.88,4.88,0,0,1,1.73.19c-1.15-.39-1.58-.79-1.51-1.09.12-.52,2.83.11,4.09.44a25.25,25.25,0,0,1-3.44-1.1c-.56-.35.2-.6.89-.63s5.3.39,6.62.45a.78.78,0,0,0,.89-.77,4.9,4.9,0,0,1,1-3.84c.42-.33,1,.13.86.7a7.47,7.47,0,0,0-.09,1.93,4.61,4.61,0,0,0,.34,1.51c.23.55.45,1,.64,1.4l5.18,5.14-4.16,5.27Z"/><path class="cls-12" d="M150.07,164.65a8.45,8.45,0,0,1-2.21-.5,8.3,8.3,0,0,1-2.11-.8,9.18,9.18,0,0,1,2.2.51A8.92,8.92,0,0,1,150.07,164.65Z"/><path class="cls-12" d="M150.9,163.32a9.7,9.7,0,0,1-2.38-.41,9.59,9.59,0,0,1-2.31-.7,10.23,10.23,0,0,1,2.38.41A9.94,9.94,0,0,1,150.9,163.32Z"/><path class="cls-12" d="M151.55,162.17a8.77,8.77,0,0,1-2.26-.34,9.49,9.49,0,0,1-2.2-.64,8.77,8.77,0,0,1,2.26.34A9.3,9.3,0,0,1,151.55,162.17Z"/><path class="cls-6" d="M181.58,124.29c1.61-.5,3.29.95,4.94.62a9.51,9.51,0,0,0,2.66-1.5,5.19,5.19,0,0,1,4.59-.17c1.36.69,2.24,1.43,2.43,3,1.24-.71,3.31.85,4,2.36a6.8,6.8,0,0,1,.13,4.69,22.05,22.05,0,0,1-3.64,7.73c-.15.21-.39.43-.62.32s-.21-.27-.24-.44a18.67,18.67,0,0,1,.08-4.48,11.1,11.1,0,0,0-.28-4.45,4.34,4.34,0,0,0-3.05-3,4.79,4.79,0,0,0-3.18.68c-1,.54-1.81,1.27-2.73,1.88a6.1,6.1,0,0,1-3.05,1.19,2.89,2.89,0,0,1-2.76-1.48,1.92,1.92,0,0,1,1.13-2.65,2.17,2.17,0,0,1-.43-4.24Z"/><path class="cls-11" d="M198,133.69l-1.6,16.72c-.27,2.84-3.25,7.05-6.08,6.64h0c-2.63-.38-4.12-5-3.86-7.61.12-1.25.22-2.3.22-2.43s-4.21-.81-4.12-5c0-2.05.49-6.26.93-10.07a7.9,7.9,0,0,1,8.13-7h.41C196.45,125.34,198.56,129.3,198,133.69Z"/><path class="cls-12" d="M186.7,147a9.87,9.87,0,0,0,5.58-1.38s-1.41,3-5.63,2.47Z"/><path class="cls-6" d="M184.65,134.77a.61.61,0,0,0,.56.63.57.57,0,0,0,.64-.52.6.6,0,0,0-.56-.63A.57.57,0,0,0,184.65,134.77Z"/><path class="cls-6" d="M184.35,134c.07.08.54-.24,1.19-.22s1.12.37,1.19.29,0-.18-.23-.33a1.65,1.65,0,0,0-.95-.33,1.53,1.53,0,0,0-1,.27C184.39,133.82,184.31,134,184.35,134Z"/><path class="cls-6" d="M191,135.22a.61.61,0,0,0,.56.63.58.58,0,0,0,.64-.53.6.6,0,0,0-.56-.63A.58.58,0,0,0,191,135.22Z"/><path class="cls-6" d="M190.75,134.35c.07.08.54-.24,1.19-.22s1.12.37,1.19.29,0-.18-.23-.34A1.67,1.67,0,0,0,191,134C190.79,134.17,190.71,134.31,190.75,134.35Z"/><path class="cls-6" d="M188.22,139.1a3.85,3.85,0,0,0-1.06-.23c-.16,0-.32-.06-.34-.18a.8.8,0,0,1,.13-.49c.17-.39.35-.81.53-1.25a20.31,20.31,0,0,0,1.22-3.27,22.66,22.66,0,0,0-1.48,3.17l-.51,1.25a1,1,0,0,0-.11.65.44.44,0,0,0,.26.26,1.86,1.86,0,0,0,.28.05A5.55,5.55,0,0,0,188.22,139.1Z"/><path class="cls-6" d="M190.12,139.61c-.11,0-.14.7-.76,1.18s-1.37.38-1.38.48.16.14.48.16a1.74,1.74,0,0,0,1.15-.36,1.51,1.51,0,0,0,.59-1C190.24,139.79,190.17,139.61,190.12,139.61Z"/><path class="cls-6" d="M190.67,131.79c.06.18.71.12,1.47.24s1.37.34,1.48.19-.05-.25-.3-.43a2.46,2.46,0,0,0-1.08-.42,2.33,2.33,0,0,0-1.16.1C190.79,131.57,190.65,131.7,190.67,131.79Z"/><path class="cls-6" d="M184.66,132.12c.11.16.56,0,1.1,0s1,.13,1.1,0,0-.22-.21-.37a1.63,1.63,0,0,0-1.78,0C184.68,131.9,184.61,132.05,184.66,132.12Z"/><path class="cls-11" d="M197.57,136.82c.07,0,2.94-.76,2.75,2.13a2.18,2.18,0,0,1-3.06,2C197.26,140.89,197.57,136.82,197.57,136.82Z"/><path class="cls-12" d="M198.21,139.94s0,0,.14.08a.49.49,0,0,0,.37,0,1.22,1.22,0,0,0,.65-1.08,1.58,1.58,0,0,0-.09-.73.55.55,0,0,0-.35-.41.26.26,0,0,0-.31.12.51.51,0,0,0,0,.14s-.06-.06,0-.17a.29.29,0,0,1,.12-.18.4.4,0,0,1,.29-.05.7.7,0,0,1,.49.48,1.82,1.82,0,0,1,.13.82,1.32,1.32,0,0,1-.82,1.2.52.52,0,0,1-.46-.11C198.22,140,198.2,139.94,198.21,139.94Z"/><path class="cls-6" d="M182.65,131a6.13,6.13,0,0,0,5.48-1c1.06-.84,1.9-2.06,3.21-2.42A3.49,3.49,0,0,1,194,128a6.59,6.59,0,0,1,1.93,1.9c-.9,2.13-.43,4.55.05,6.81a1.16,1.16,0,0,0,.31.68.94.94,0,0,0,1.17-.22,3.63,3.63,0,0,0,.85-1.86,11.81,11.81,0,0,0,.13-4.7,8.14,8.14,0,0,0-2.08-4.18,7.66,7.66,0,0,0-5.32-2.22,9.46,9.46,0,0,0-5.55,1.76,5.6,5.6,0,0,0-1.85,2"/><path class="cls-7" d="M180.33,125.27a.47.47,0,0,0,0,.25,1.16,1.16,0,0,0,.39.61,1.9,1.9,0,0,0,1.07.4,2.94,2.94,0,0,0,.72,0,1.55,1.55,0,0,0,.75-.32,1,1,0,0,0,.39-.8.88.88,0,0,0-.59-.76,1.14,1.14,0,0,0-.52-.09,1,1,0,0,0-.51.21,1.32,1.32,0,0,0-.46,1,1.49,1.49,0,0,0,.42,1.08,2.32,2.32,0,0,0,1,.63,3.8,3.8,0,0,0,2.48-.18,11,11,0,0,0,2.19-1.22,13.75,13.75,0,0,1,2-1.17,4.19,4.19,0,0,1,2-.42,4,4,0,0,1,1.71.51,5.14,5.14,0,0,1,1.87,1.81c.16.27.27.48.34.63a1.09,1.09,0,0,0,.12.23l0-.07a1.1,1.1,0,0,1-.07-.17c-.07-.15-.17-.37-.33-.65a4.94,4.94,0,0,0-1.86-1.87,4.19,4.19,0,0,0-1.76-.54,4.45,4.45,0,0,0-2.07.42,14.32,14.32,0,0,0-2,1.17,10.78,10.78,0,0,1-2.16,1.2,3.67,3.67,0,0,1-2.39.18,2.06,2.06,0,0,1-1-.59,1.37,1.37,0,0,1-.39-1,1.18,1.18,0,0,1,.41-.9.87.87,0,0,1,.9-.11.78.78,0,0,1,.53.65,1,1,0,0,1-.35.73,1.45,1.45,0,0,1-.7.3,3.34,3.34,0,0,1-.7,0,1.92,1.92,0,0,1-1-.36,1.17,1.17,0,0,1-.39-.58A.64.64,0,0,1,180.33,125.27Z"/><path class="cls-7" d="M200.65,131.07a4.73,4.73,0,0,1-.9.19,2.45,2.45,0,0,1-1-.13,4.24,4.24,0,0,1-1.07-.56,3.4,3.4,0,0,1-1.23-1.77,6.87,6.87,0,0,1-.16-.91.87.87,0,0,0,0,.25,2.88,2.88,0,0,0,.09.68,3.29,3.29,0,0,0,1.24,1.86,4.28,4.28,0,0,0,1.12.58,2.65,2.65,0,0,0,1,.11,2.7,2.7,0,0,0,.67-.18A1.53,1.53,0,0,0,200.65,131.07Z"/><path class="cls-7" d="M200.45,133.16s-.35,0-.89,0a4.21,4.21,0,0,1-2-.73,4.08,4.08,0,0,1-1.32-1.63c-.23-.5-.28-.84-.31-.84a.93.93,0,0,0,0,.25,4,4,0,0,0,.19.63,4,4,0,0,0,1.34,1.71,3.91,3.91,0,0,0,2.05.71,4,4,0,0,0,.66,0Z"/><path class="cls-12" d="M192.82,137.19a.07.07,0,0,0,.08-.06.07.07,0,0,0-.05-.09.08.08,0,1,0,0,.15Z"/><path class="cls-12" d="M191.58,136.87s.08,0,.09-.07a.09.09,0,0,0,0-.11.08.08,0,0,0-.09.07A.09.09,0,0,0,191.58,136.87Z"/><path class="cls-12" d="M190.74,136.82s.08,0,.09-.11,0-.12-.05-.13-.08,0-.09.11A.12.12,0,0,0,190.74,136.82Z"/><path class="cls-12" d="M192.18,138s.07,0,.07,0,0,0-.07,0-.07,0-.07,0S192.14,138,192.18,138Z"/><path class="cls-12" d="M191,137.65a.1.1,0,0,0,.09-.07.08.08,0,0,0-.07-.09s-.07,0-.08.07A.1.1,0,0,0,191,137.65Z"/><path class="cls-12" d="M185.13,136.73a.08.08,0,1,0,0-.1A.08.08,0,0,0,185.13,136.73Z"/><path class="cls-12" d="M184.28,136.62s.08,0,.09-.08a.09.09,0,0,0-.06-.1.09.09,0,0,0-.09.08S184.24,136.62,184.28,136.62Z"/><path class="cls-12" d="M185.88,136.78a.06.06,0,0,0,.08-.05.07.07,0,0,0-.05-.08.09.09,0,0,0-.09,0S185.84,136.77,185.88,136.78Z"/><path class="cls-12" d="M185.22,137.6a.07.07,0,0,0,.1,0,.08.08,0,0,0,0-.11.09.09,0,0,0-.1.05A.07.07,0,0,0,185.22,137.6Z"/><path class="cls-12" d="M184.5,137.43a.07.07,0,0,0,.06-.07.08.08,0,0,0-.09,0,.05.05,0,0,0-.05.07S184.46,137.44,184.5,137.43Z"/><path class="cls-6" d="M199.35,140.76a2,2,0,0,1,.05.66,1,1,0,0,1-.33.6.89.89,0,0,1-.79.18.82.82,0,0,1-.55-.58,1,1,0,0,1,.15-.68,1.38,1.38,0,0,1,.44-.49s-.3.06-.53.44a1.09,1.09,0,0,0-.19.75,1,1,0,0,0,.64.7,1,1,0,0,0,1.26-.9,1.06,1.06,0,0,0-.06-.51C199.4,140.81,199.36,140.76,199.35,140.76Z"/><path class="cls-6" d="M199.36,140.27s-.11,0-.17.19a.44.44,0,0,0,0,.3.42.42,0,0,0,.27.25.41.41,0,0,0,.36-.07.35.35,0,0,0,.12-.28c0-.18-.14-.23-.15-.22s.06.09.05.22a.26.26,0,0,1-.34.21.33.33,0,0,1-.19-.16.43.43,0,0,1,0-.22C199.31,140.36,199.37,140.29,199.36,140.27Z"/><path class="cls-6" d="M194.35,193.68c-.36,0-22.83,2.7-26.36,4.68-2,1.09-1.78,3-2.09,3.82-1.19,3.2-.17,6.44,1.49,9.42l16.48,28.74,10.45-7-10.5-22.94,16.08-1.58a8.74,8.74,0,0,0,7.33-6.82l1.91-8.87Z"/><path class="cls-7" d="M194.32,233.31s-3.06-6.45-6.71-14.45-6.57-14.52-6.52-14.54,3,6.44,6.71,14.45S194.37,233.28,194.32,233.31Z"/><path class="cls-7" d="M194.35,195.06l-.11,0-.31,0-1.18.1-4.35.35c-3.67.3-8.75.68-14.34,1.22L172,197c-.34.05-.68.08-1,.14a4.69,4.69,0,0,0-1,.28,7,7,0,0,0-3.06,2.12A7.53,7.53,0,0,0,166,201a6.71,6.71,0,0,0-.47,1.59,10.74,10.74,0,0,0-.07,3,18.29,18.29,0,0,0,1.06,4.2c.19.48.35.84.47,1.09l.13.28a.35.35,0,0,1,0,.1l-.06-.09c0-.06-.09-.15-.15-.27s-.3-.6-.5-1.08a17.13,17.13,0,0,1-1.13-4.22,10.25,10.25,0,0,1,0-3,6.71,6.71,0,0,1,.48-1.63,7.47,7.47,0,0,1,1-1.53,7.26,7.26,0,0,1,3.14-2.19,5.28,5.28,0,0,1,1-.29c.34-.07.67-.09,1-.14.69-.08,1.38-.16,2.08-.22,5.6-.54,10.68-.9,14.35-1.17l4.36-.28,1.18-.06h.42Z"/><path class="cls-13" d="M205.38,179l.85-27.09-8.52-1.82-.93-1.5-5.73,3.69-1.15,2.58-1.39-2.95-2.07-1.57-.95,1.84-6.42,2.64a2.69,2.69,0,0,0-1.37,1.27l-7.21,14.39-12.79-8.85-4,7,14.8,12.61a6.13,6.13,0,0,0,8.31-1.64l3.79-5.39,1.59,9.07.27,9.21,11.14,2.07,15.61-1.45Z"/><g class="cls-10"><path d="M193.07,194.41a23.1,23.1,0,0,0,15.45-4l-.85-3.1Z"/></g><path class="cls-13" d="M206.23,151.93s-5.31,1.63-5.72,7-.62,20.78-.62,20.78-.82.62-.62,1.24-15.3,9.31-15.3,9.31l3.1,5.4a67.43,67.43,0,0,0,21-7c5.67-3,3.44-26.22,3.33-26.53S209.86,151.92,206.23,151.93Z"/><path class="cls-6" d="M182.23,183.27l-.06-.22-.13-.67-.46-2.43c-.19-1-.41-2.27-.66-3.63l-.38-2.14c-.1-.74-.2-1.52-.31-2.31-.4-3.16-.77-6-1-8.12-.12-1-.22-1.86-.29-2.47l-.07-.67a.64.64,0,0,1,0-.24s0,.08.05.23l.1.67.36,2.46c.29,2.1.67,5,1.1,8.11l.31,2.31c.12.74.25,1.46.37,2.14.23,1.36.43,2.59.61,3.63l.4,2.45.09.67A.8.8,0,0,1,182.23,183.27Z"/><path class="cls-6" d="M187.07,195.66l-.06-.09-.16-.27-.62-1.05c-.55-.93-1.33-2.27-2.31-4l0-.07.07,0a38,38,0,0,0,6.89-3.75c2.55-1.66,5.3-3.7,8.53-5.41l0,.14a1.36,1.36,0,0,1,1-2l-.1.09.17-1.25a65.91,65.91,0,0,0,.43-10.79c-.07-1.66-.23-3.23-.33-4.71a20.73,20.73,0,0,1,.09-4.13,10.44,10.44,0,0,1,1-3.25,7.4,7.4,0,0,1,1.52-2.07,5.69,5.69,0,0,1,1.31-1c.16-.09.3-.14.38-.18l.14,0a6.39,6.39,0,0,0-1.78,1.24,7.88,7.88,0,0,0-1.47,2.07,10.26,10.26,0,0,0-1,3.22,20.51,20.51,0,0,0-.06,4.1c.1,1.47.27,3,.34,4.71a64,64,0,0,1-.41,10.82l-.16,1.26v.08h-.08a1.17,1.17,0,0,0-.85,1.65l.06.09-.1.05c-3.21,1.69-6,3.73-8.52,5.38a36.73,36.73,0,0,1-6.95,3.72l0-.09c1,1.69,1.72,3.05,2.26,4l.59,1.07.15.27C187.06,195.63,187.08,195.66,187.07,195.66Z"/><path class="cls-6" d="M202.16,183.82a6.88,6.88,0,0,0-1.12-1.73,7,7,0,0,0-1.7-1.16s.24,0,.6.16a3.74,3.74,0,0,1,1.25.86,3.94,3.94,0,0,1,.83,1.26C202.16,183.57,202.19,183.81,202.16,183.82Z"/><path class="cls-6" d="M203,182.47a8.76,8.76,0,0,0-1.11-1.75,8.66,8.66,0,0,0-1.63-1.3,4.1,4.1,0,0,1,2.74,3.05Z"/><path class="cls-6" d="M208,188.68l-.19.11-.57.28c-.5.24-1.22.58-2.13,1-1.8.8-4.32,1.86-7.16,2.88a58.81,58.81,0,0,1-7.4,2.22,22.55,22.55,0,0,1-2.31.39l-.63.07h-.22s.07,0,.22-.05l.62-.11c.55-.07,1.33-.24,2.29-.45a70.84,70.84,0,0,0,7.36-2.27c2.83-1,5.36-2,7.17-2.82l2.16-.91.58-.25A1,1,0,0,1,208,188.68Z"/><path class="cls-6" d="M188.11,152s0,.07-.11.2a3.65,3.65,0,0,0-.23.58,11.12,11.12,0,0,0-.42,2l0,.3-.16-.25,0-.07c-.45-.73-.78-1.41-1.1-1.86s-.55-.7-.53-.72a2.16,2.16,0,0,1,.65.63c.35.44.71,1.13,1.15,1.84l0,.07-.18,0a8.81,8.81,0,0,1,.48-2.07,2.63,2.63,0,0,1,.3-.57C188,152,188.11,152,188.11,152Z"/><path class="cls-6" d="M196.85,150.94s-.46.34-1.16.92a16.34,16.34,0,0,0-2.48,2.58c-.35.47-.66.93-.92,1.36l-.1.18-.07-.19c-.33-.95-.61-1.77-.8-2.35a6.06,6.06,0,0,1-.27-.93,4.2,4.2,0,0,1,.39.89c.22.57.52,1.38.86,2.32l-.17,0a12.24,12.24,0,0,1,.92-1.38,13.73,13.73,0,0,1,2.55-2.57,8.87,8.87,0,0,1,.9-.62C196.72,151,196.85,150.92,196.85,150.94Z"/><path class="cls-6" d="M191,180.49a.92.92,0,0,1,0-.24c0-.18-.05-.42-.09-.71-.07-.61-.16-1.5-.27-2.61-.2-2.2-.45-5.25-.65-8.62s-.32-6.43-.38-8.64c0-1.1,0-2,0-2.62v-.71a1,1,0,0,1,0-.25.87.87,0,0,1,0,.25l0,.71c0,.64.07,1.53.12,2.62.09,2.21.23,5.26.43,8.63s.43,6.42.6,8.62c.08,1.09.15,2,.2,2.61l0,.71A.78.78,0,0,1,191,180.49Z"/><path class="cls-6" d="M198.88,173.8a3.55,3.55,0,0,1-.35.45c-.24.28-.6.68-1.05,1.16a42.49,42.49,0,0,1-3.75,3.55,47.6,47.6,0,0,1-4.12,3.09c-.55.36-1,.64-1.32.83a2.11,2.11,0,0,1-.51.27,3.58,3.58,0,0,1,.46-.34l1.29-.88c1.08-.76,2.54-1.84,4.07-3.13s2.85-2.55,3.78-3.49l1.09-1.11A2.57,2.57,0,0,1,198.88,173.8Z"/><path class="cls-6" d="M189.73,186.9a17.07,17.07,0,0,1-.06-2.52,16.36,16.36,0,0,1,.14-2.52,14.86,14.86,0,0,1,.07,2.52A15.71,15.71,0,0,1,189.73,186.9Z"/><g class="cls-10"><path d="M180.53,174.41a63.92,63.92,0,0,0-1.06-8.39,84.77,84.77,0,0,1-1.93,12.58Z"/></g><g class="cls-10"><path d="M189.9,154.88c.4-.33.88-.06,1.12.4a3.41,3.41,0,0,1,.21,1.53,2,2,0,0,0,.16.84.77.77,0,0,0,.68.44c.34,0,.58-.32.78-.59,1.57-2.16,3-4.4,4.39-6.69-2.19.84-3.67,2.93-5.09,5.14-.06,0-1.15-3.54-1.15-3.54-.3.77-.79,1.71-1.1,2.47"/></g><g class="cls-10"><path d="M185.38,152.29a21.59,21.59,0,0,0,3.21,5.17,13.57,13.57,0,0,0-.29-3.81c.41.27,1.2,1,1.6,1.23,0,0-.87-1.87-1.22-2.56-.1-.18-.24-.38-.45-.37s-.35.29-.41.51l-.57,2.24a6.17,6.17,0,0,0-1.76-2.54"/></g><g class="cls-10"><path d="M188.17,182.86a3.49,3.49,0,0,1,1.3-3.27c.77-.57,1.75-.81,2.51-1.39,1.31-1,1.82-2.89,3.28-3.66.55-.29,1.38-.3,1.63.27s-.18,1.05-.56,1.45a39.83,39.83,0,0,1-8.17,6.52"/></g><g class="cls-10"><path d="M199.5,181.15a4,4,0,0,1,1.16,2.74,3.77,3.77,0,0,0,0,.89.82.82,0,0,0,.56.65.78.78,0,0,0,.85-.68,2.07,2.07,0,0,0-.25-1.19,4.74,4.74,0,0,0-2.25-2.65"/></g><g class="cls-14"><path d="M170.36,170.41a6.34,6.34,0,0,1,1,3.53,10.24,10.24,0,0,0-.2,2.13c0,.18-.29.24-.15.34s.6,0,.7-.28a1.41,1.41,0,0,0,0-.86.6.6,0,0,0,.74.56,1,1,0,0,0,.67-.79A2.59,2.59,0,0,0,173,174a7.38,7.38,0,0,0-.8-2.34,2.78,2.78,0,0,0-2-1.39"/></g><path class="cls-6" d="M171.14,176.25a13.09,13.09,0,0,0,.08-3,12.5,12.5,0,0,0-.82-2.9,2.75,2.75,0,0,1,.45.78,7.63,7.63,0,0,1,.58,2.1,7.55,7.55,0,0,1-.05,2.17A2.37,2.37,0,0,1,171.14,176.25Z"/><path class="cls-7" d="M194.79,223.15c-1.65-7.37,1.17-20,6.41-25.46a23.35,23.35,0,0,1,20.73-6.6v32.42Z"/><path class="cls-3" d="M221.81,209.48s-5.15,3.1-11.53,6.87-11.56,6.82-11.57,6.8,5.15-3.1,11.53-6.87S221.8,209.46,221.81,209.48Z"/><path class="cls-3" d="M221.81,198.45l-.27.17-.79.49-2.9,1.76c-2.46,1.49-5.85,3.54-9.62,5.77s-7.19,4.23-9.68,5.65l-3,1.66-.81.44-.29.15.28-.17.8-.45,3-1.69c2.48-1.43,5.9-3.43,9.67-5.66l9.63-5.75,2.91-1.74.8-.47Z"/><path class="cls-3" d="M218.31,191.28l-.2.11-.56.32-2.09,1.15c-1.76.95-4.22,2.26-6.93,3.68l-9.82,5.2.19-.12.57-.32,2.09-1.14c1.76-1,4.21-2.26,6.93-3.69Z"/><path class="cls-6" d="M221.25,191.31h-.13l-.36,0c-.33,0-.8-.1-1.42-.13a25.93,25.93,0,0,0-5.22.19l-.83.12-.87.18c-.59.1-1.19.29-1.82.45a21.9,21.9,0,0,0-3.83,1.54,19.87,19.87,0,0,0-3.79,2.53,19.3,19.3,0,0,0-3.3,3.6,26.43,26.43,0,0,0-2.43,4.26,28.74,28.74,0,0,0-1.6,4.28,36.18,36.18,0,0,0-.94,4c-.2,1.28-.34,2.49-.4,3.59a31.54,31.54,0,0,0,.07,5.22c0,.62.13,1.09.16,1.42l0,.36c0,.09,0,.13,0,.13l0-.12-.06-.37c-.05-.32-.15-.79-.2-1.41a30.39,30.39,0,0,1-.14-5.24,33.64,33.64,0,0,1,1.31-7.66,29.59,29.59,0,0,1,1.6-4.32,26.43,26.43,0,0,1,2.44-4.29,20.07,20.07,0,0,1,3.34-3.64,19.5,19.5,0,0,1,3.83-2.53,21.78,21.78,0,0,1,3.87-1.54c.64-.16,1.24-.35,1.84-.45l.87-.17c.29-.05.57-.08.84-.11a25.31,25.31,0,0,1,5.24-.13c.62,0,1.1.13,1.42.17l.37.05Q221.25,191.3,221.25,191.31Z"/><path class="cls-11" d="M184.31,190.82a12.61,12.61,0,0,1-2.61-.35,9.18,9.18,0,0,0-3.16-.4c-.73.12-2.62.86-3.82,1.2s-2.16.06-2.22.63.57,1.28,1.77,1.28c0,0-1.31.43-1.09.72s.63,1,1.2,1a1.22,1.22,0,0,0,1,1.14s.34.85,2,1.25c0,0-.13.75,1.13,1s8.34-3,8.34-3Z"/><path class="cls-6" d="M52.07,150.44c-1-.93-2.59-.13-3.39.93s-1.37,2.42-2.58,3-2.8.07-3.82.92c-1.4,1.17-.61,3.87-2.13,4.89a19.86,19.86,0,0,1-2,.72c-1.52.78-1.5,2.93-1.27,4.62.33,2.38.7,4.84,2,6.85S42.7,175.76,45,175s3.31-3.1,4.2-5.23q1.83-4.41,3.68-8.83a20.7,20.7,0,0,0,1.66-5.27,7,7,0,0,0-1.24-5.24"/><path class="cls-6" d="M49.48,133c0-1,.87-1.72,1.78-2.08a13.3,13.3,0,0,0,2.72-1,12.68,12.68,0,0,0,1.81-1.85,6,6,0,0,1,10.1,2.76,3.92,3.92,0,0,1-1,3.95c-1.27,1.07-3.15.83-4.78.5s-3.47-.66-4.83.3A6.86,6.86,0,0,0,53.5,138,4.25,4.25,0,0,1,51.42,140c-.94.33-2.23-.24-2.27-1.24"/><path class="cls-6" d="M49.54,133.58a2.72,2.72,0,0,1-1.07,2.13,3.71,3.71,0,0,0-1.36,2c-.12,1,.58,1.9.37,2.84a6.56,6.56,0,0,1-.87,1.6,3.35,3.35,0,0,0-.17,2.51,11.13,11.13,0,0,0,1.2,3.3,13.26,13.26,0,0,0,6.41,3.83,24.78,24.78,0,0,0,7.09.38c1.94-.11,4.17,0,5.78-2.69a19.86,19.86,0,0,0,1.7-4.78,7.49,7.49,0,0,0,.32-4.1c-.24-.78-.7-1.47-.93-2.24a17.77,17.77,0,0,1-.3-3,6.92,6.92,0,0,0-9.84-5.46"/><path class="cls-11" d="M66.78,136.93c-.18-2.78-2-6.19-4.8-5.89l-8.66,2.2a1.64,1.64,0,0,0-1.45,1.66l1,20.88-.06,0s2,5.89,7.69,4.09c1.14-.36,1.66-1.6,1.88-2.88h.06c0-.15,0-.29,0-.44a13.34,13.34,0,0,0,0-2.86h0c0-1.69,0-2.38,0-2.37s3.55-.59,4.28-5.24A49,49,0,0,0,66.78,136.93Z"/><path class="cls-6" d="M66.34,139.72a.6.6,0,0,1-.57.6.57.57,0,0,1-.62-.54.6.6,0,0,1,.57-.6A.57.57,0,0,1,66.34,139.72Z"/><path class="cls-6" d="M66,138.9c-.08.08-.53-.25-1.17-.25s-1.11.32-1.18.25,0-.18.25-.33a1.61,1.61,0,0,1,.94-.29,1.55,1.55,0,0,1,.93.3C65.94,138.73,66,138.87,66,138.9Z"/><path class="cls-6" d="M59.85,139.94a.6.6,0,0,1-.57.6.58.58,0,0,1-.62-.54.6.6,0,0,1,.58-.6A.57.57,0,0,1,59.85,139.94Z"/><path class="cls-6" d="M59.67,139c-.07.08-.52-.25-1.16-.25s-1.11.33-1.18.25,0-.18.24-.33a1.75,1.75,0,0,1,1-.29,1.58,1.58,0,0,1,.93.3C59.64,138.86,59.71,139,59.67,139Z"/><path class="cls-6" d="M62,143.78a3.7,3.7,0,0,1,1-.19c.16,0,.32-.05.34-.16a.83.83,0,0,0-.11-.49l-.48-1.24a21.28,21.28,0,0,1-1.1-3.26,22.29,22.29,0,0,1,1.36,3.16c.16.44.31.86.46,1.25a1,1,0,0,1,.09.65.41.41,0,0,1-.27.23.75.75,0,0,1-.28,0A4.53,4.53,0,0,1,62,143.78Z"/><path class="cls-12" d="M62.47,151.35a11.81,11.81,0,0,1-6.22-1.64s1.51,3.18,6.16,2.74Z"/><path class="cls-12" d="M61.74,145.32a1.13,1.13,0,0,0-1-.42,1,1,0,0,0-.73.39.67.67,0,0,0,0,.76.77.77,0,0,0,.84.21,2.56,2.56,0,0,0,.82-.49.55.55,0,0,0,.18-.19.23.23,0,0,0,0-.24"/><path class="cls-6" d="M60.12,144.22c.11,0,.11.69.71,1.19s1.33.41,1.34.51-.17.13-.48.14a1.75,1.75,0,0,1-1.12-.39,1.48,1.48,0,0,1-.54-1C60,144.39,60.08,144.22,60.12,144.22Z"/><path class="cls-6" d="M60,137.91c-.06.18-.7.1-1.45.19s-1.36.3-1.46.14.06-.24.3-.41a2.56,2.56,0,0,1,2.22-.25C59.85,137.69,60,137.83,60,137.91Z"/><path class="cls-6" d="M65.73,137.05c-.11.14-.56,0-1.09,0s-1,.1-1.08,0,0-.22.22-.36a1.58,1.58,0,0,1,1.75.05C65.72,136.83,65.78,137,65.73,137.05Z"/><path class="cls-6" d="M50.08,148.51A4.12,4.12,0,0,0,55,144c-.14-1.14-.75-2.3-.36-3.37.52-1.43,2.52-1.87,3.05-3.29.31-.83,0-1.8.38-2.61A3.09,3.09,0,0,1,60,133.2a8,8,0,0,0,2.28-1,1.79,1.79,0,0,0,.64-2.18,43.65,43.65,0,0,0-10.14,2.46,3.92,3.92,0,0,0-2,1.3,4.1,4.1,0,0,0-.41,2.48q.29,6.25.58,12.5"/><path class="cls-7" d="M50.37,150.1s0,0-.07,0l-.21-.16c-.18-.14-.44-.35-.77-.64a8.24,8.24,0,0,1-1.09-1.15,4.17,4.17,0,0,1-.86-1.91,2.91,2.91,0,0,1,.59-2.44,11.91,11.91,0,0,1,1.08-.92,2.5,2.5,0,0,0,.85-1.15,14.83,14.83,0,0,0,.32-3.16,6.38,6.38,0,0,1,1.32-3.2,4.23,4.23,0,0,1,1.37-1.12,8.69,8.69,0,0,1,1.63-.55A3.57,3.57,0,0,0,56,133a5.54,5.54,0,0,0,1-1.14c.59-.83,1-1.71,1.57-2.45a5.67,5.67,0,0,1,.92-1,3.7,3.7,0,0,1,1.08-.59,2.31,2.31,0,0,1,2.06.21,1.84,1.84,0,0,1,.73,1.39,1.33,1.33,0,0,1-.28,1,.75.75,0,0,1-.18.18l-.08.05.06-.06a.83.83,0,0,0,.17-.19,1.32,1.32,0,0,0,.23-.93,1.81,1.81,0,0,0-.71-1.3A2.21,2.21,0,0,0,60.6,128a3.31,3.31,0,0,0-1,.58,5,5,0,0,0-.88.95c-.54.72-1,1.6-1.55,2.45a5.66,5.66,0,0,1-1.07,1.18,4,4,0,0,1-1.49.74,8.76,8.76,0,0,0-1.59.54,4.2,4.2,0,0,0-1.31,1.07,6.08,6.08,0,0,0-1.27,3.1,14.66,14.66,0,0,1-.35,3.2,2.72,2.72,0,0,1-.9,1.22,8.9,8.9,0,0,0-1.07.9,2.71,2.71,0,0,0-.58,2.3,4.27,4.27,0,0,0,.81,1.87,8.21,8.21,0,0,0,1.06,1.15c.31.3.57.52.74.67Z"/><polygon class="cls-15" points="79.13 182.38 85.97 169.38 82.61 165.77 73.98 174.07 76.41 180.73 79.13 182.38"/><path class="cls-15" d="M63.43,157.4h0a11.44,11.44,0,0,1,6.46,5.89L78.71,182l7.59,3.08-6.69,1.93-6-4.37Z"/><path class="cls-3" d="M79.61,187.05l-3.2,2.47L60.46,173.1l-9.12-16.48,1-3.06,7,2.94,2,2.56,1.05-3.57.45.64.74,2s6.93,5.76,8.42,10.33c1.25,3.81.86,11.69,1.62,13.83Z"/><path class="cls-15" d="M49.63,156.41c-.11.32-6.82,3-7.14,5.37s4.82,20.53,4.82,20.53l8.16,7.21H76.41l-6.64-12.45a31.31,31.31,0,0,0-5.38-7.3c-2-2-4.34-4.46-5.57-5.93s-7-9-7-9Z"/><path class="cls-6" d="M53.83,157.15a10.33,10.33,0,0,1,1.19.54c.72.35,1.71.85,2.8,1.41l1.23.65-.14.09a8.89,8.89,0,0,1,.13-2.2,3,3,0,0,1,.23-.83,8.57,8.57,0,0,1-.11.85,10.38,10.38,0,0,0-.06,2.17V160l-.15-.08-1.24-.64c-1.09-.56-2.07-1.08-2.77-1.46A8.11,8.11,0,0,1,53.83,157.15Z"/><path class="cls-6" d="M63.52,158.14s-.13.26-.4.63l-.09.12,0-.14c-.13-.45-.3-1.08-.48-1.77l0-.16.19,0C62,158,61.65,159,61.59,159a8.3,8.3,0,0,1,.89-2.26l.12-.24.07.26,0,.16c.18.69.32,1.32.42,1.78l-.13,0A3,3,0,0,1,63.52,158.14Z"/><path class="cls-6" d="M70,173.73a3,3,0,0,1-.34-.53l-.85-1.48c-.72-1.26-1.72-3-2.85-4.88S63.76,163.25,63,162l-.9-1.46a2.31,2.31,0,0,1-.3-.55s.14.18.37.51.56.82,1,1.42c.79,1.21,1.86,2.9,3,4.8s2.11,3.63,2.79,4.91c.35.63.62,1.15.8,1.51S70,173.73,70,173.73Z"/><g class="cls-10"><path d="M66.75,186.41a10.62,10.62,0,0,0,3.68.18,3.55,3.55,0,0,0,2.78-2.17,2.32,2.32,0,0,1,.45-1c.47-.43,1.22-.17,1.85-.23A2.31,2.31,0,0,0,77.2,182a6.61,6.61,0,0,0,.7-2,2.84,2.84,0,0,0,.13-1,1,1,0,0,0-.55-.85c-.48-.22-1,.1-1.44.4a107.76,107.76,0,0,0-9.74,8.25"/></g><path class="cls-7" d="M120.94,211.45l6.09,7.63s9.8-3.63,11.06-2.33l-14.36,12.34-10-11.5Z"/><g class="cls-8"><path class="cls-9" d="M122.05,222.27a.79.79,0,0,0,.17,1,.75.75,0,0,0,1-.16.82.82,0,0,0-.18-1.08.77.77,0,0,0-1,.28"/></g><g class="cls-8"><path class="cls-9" d="M123.73,229.09l-1-1.2,14.12-11.38s.88-.27,1.2.24Z"/></g><path class="cls-6" d="M127.2,218.81c.06.07-.27.4-.42.92s-.08,1-.17,1-.33-.47-.14-1.1S127.16,218.73,127.2,218.81Z"/><path class="cls-6" d="M129.24,218.14c.08.05-.13.43-.11.93s.22.88.15.93-.46-.3-.47-.92S129.18,218.07,129.24,218.14Z"/><path class="cls-6" d="M131.64,219.2c0,.07-.44-.19-.59-.73s0-1,.12-.94.06.41.19.85S131.71,219.14,131.64,219.2Z"/><path class="cls-6" d="M125.62,217.22c0,.09-.38.27-.75.64s-.58.76-.67.73,0-.54.44-1S125.61,217.14,125.62,217.22Z"/><g class="cls-10"><polygon points="122.15 212.97 123.23 214.32 116.12 220.32 115.09 219.14 122.15 212.97"/></g><path class="cls-6" d="M124.36,215.71s-.21.31-.72.61a4.48,4.48,0,0,1-1,.42,5.29,5.29,0,0,1-.6.13,1,1,0,0,1-.36,0,.42.42,0,0,1-.36-.35.51.51,0,0,1,.17-.42,1.41,1.41,0,0,1,.3-.2,5.36,5.36,0,0,1,.58-.23,3.39,3.39,0,0,1,1-.13,1.63,1.63,0,0,1,.93.22c0,.05-.37,0-.93,0a3.79,3.79,0,0,0-.95.19,3.85,3.85,0,0,0-.52.22c-.19.09-.32.2-.3.31s0,.05.09.06a.78.78,0,0,0,.26,0,4.8,4.8,0,0,0,.57-.11,4.86,4.86,0,0,0,.92-.33A5.94,5.94,0,0,1,124.36,215.71Z"/><path class="cls-6" d="M124.36,215.89s-.37-.1-.79-.54a3.2,3.2,0,0,1-.58-.87,3.4,3.4,0,0,1-.19-.59.77.77,0,0,1,.15-.76.44.44,0,0,1,.47-.06,1.42,1.42,0,0,1,.3.2,2.38,2.38,0,0,1,.42.49,2.11,2.11,0,0,1,.33,1c0,.62-.18,1-.21.93a5.7,5.7,0,0,0,0-.9,2.1,2.1,0,0,0-.35-.87,2,2,0,0,0-.37-.4c-.15-.14-.32-.21-.36-.15a.55.55,0,0,0,0,.46,3.08,3.08,0,0,0,.16.54,3.49,3.49,0,0,0,.47.84C124.09,215.64,124.39,215.84,124.36,215.89Z"/><path class="cls-7" d="M114.29,233.25l-.37,9.75s9.78,3.65,9.89,5.46l-18.93,0,0-15.22Z"/><g class="cls-8"><path class="cls-9" d="M108.06,242.17a.77.77,0,0,0-.53.88.74.74,0,0,0,.87.54.83.83,0,0,0,.56-.94.77.77,0,0,0-1-.46"/></g><g class="cls-8"><path class="cls-9" d="M104.88,248.42l.05-1.53,18.13.6s.85.37.75,1Z"/></g><path class="cls-6" d="M114.22,242.9c0,.09-.46.14-.92.43s-.7.69-.78.65,0-.57.61-.92S114.24,242.82,114.22,242.9Z"/><path class="cls-6" d="M116.21,243.73c0,.09-.38.24-.7.63s-.4.81-.5.8-.15-.52.26-1S116.21,243.64,116.21,243.73Z"/><path class="cls-6" d="M117.33,246.11c-.08,0-.21-.45,0-1s.67-.71.71-.63-.23.35-.42.76S117.42,246.1,117.33,246.11Z"/><path class="cls-6" d="M114.06,240.67c0,.08-.46,0-1,0s-.93.2-1,.12.34-.41,1-.44S114.11,240.6,114.06,240.67Z"/><g class="cls-10"><polygon points="114.21 235.18 114.15 236.92 104.84 236.81 104.83 235.25 114.21 235.18"/></g><path class="cls-6" d="M114.1,238.7a1.74,1.74,0,0,1-.95,0,4.8,4.8,0,0,1-1-.31,4.74,4.74,0,0,1-.54-.29,1.12,1.12,0,0,1-.29-.23.4.4,0,0,1,0-.49.55.55,0,0,1,.4-.21,1.73,1.73,0,0,1,.36.05,2.75,2.75,0,0,1,.59.21,3.28,3.28,0,0,1,.87.57c.44.41.59.75.56.77s-.26-.26-.7-.59a4,4,0,0,0-.85-.48,3.09,3.09,0,0,0-.54-.17c-.2-.05-.37-.06-.43,0s0,.05,0,.11a.76.76,0,0,0,.21.16,3.6,3.6,0,0,0,.5.29,5.06,5.06,0,0,0,.91.35A8.52,8.52,0,0,1,114.1,238.7Z"/><path class="cls-6" d="M114,238.83s-.22-.31-.25-.91a3.36,3.36,0,0,1,.13-1,4,4,0,0,1,.24-.58.81.81,0,0,1,.61-.47.45.45,0,0,1,.4.26,1.29,1.29,0,0,1,.09.35,2,2,0,0,1,0,.64,2.1,2.1,0,0,1-.41,1c-.37.49-.75.6-.76.57s.29-.23.58-.7a2.22,2.22,0,0,0,.3-.89,2.06,2.06,0,0,0,0-.55c0-.2-.1-.36-.18-.34s-.25.15-.33.31a2.93,2.93,0,0,0-.24.51,3.22,3.22,0,0,0-.18.95C113.93,238.47,114,238.82,114,238.83Z"/><path class="cls-9" d="M83.28,176.25,93.4,152.87s-5.87,7.35-9,7.28c0,0-3.39,7.49-5.58,13.43l-3.33,8.6Z"/><path class="cls-6" d="M83.28,176.25l-.13.11-.39.31-1.52,1.19-5.66,4.38-.19.15.09-.24,3.81-9.93c1.44-3.76,3.16-7.84,5.07-12.11l0-.06h.07a3.62,3.62,0,0,0,1.71-.53,18.94,18.94,0,0,0,3.94-3.15c1.16-1.17,2.24-2.37,3.21-3.56l.45-.55-.28.65c-2.94,6.76-5.49,12.6-7.3,16.76l-2.13,4.85c-.25.56-.44,1-.58,1.29l-.15.33a.61.61,0,0,1,0,.11s0,0,0-.12l.14-.34.55-1.31,2.08-4.88c1.79-4.16,4.31-10,7.22-16.77l.17.1a46.19,46.19,0,0,1-3.23,3.58,19,19,0,0,1-4,3.2,4,4,0,0,1-1.82.55l.1-.06c-1.91,4.26-3.64,8.34-5.09,12.08s-2.76,7.11-3.85,9.92l-.11-.08,5.68-4.31,1.55-1.16.4-.3Z"/><polygon class="cls-6" points="43.11 228.58 46.15 248.46 49.16 248.46 47.68 228.66 43.11 228.58"/><polygon class="cls-6" points="96.58 228.66 96.58 248.46 99.77 248.46 100.95 228.58 96.58 228.66"/><path class="cls-11" d="M74.8,172.06s1.28-2.95,2-3.36,4.88-2.32,4.88-2.32l-.43.94,4.17-2.49a2,2,0,0,1-.33,1.76c-.65.89-.43.8-.43.8s.7.43.35,1.06a14.71,14.71,0,0,1-1,1.4,1.83,1.83,0,0,1,.39,1.53,3.27,3.27,0,0,1,.09,1.54,8.42,8.42,0,0,1-1.78,2.61l-8.1,3.86-3.26-5.55Z"/><path class="cls-15" d="M56.93,167.35l4.86,10.37L72.56,173s4.47,2.61,3.85,5.46l-9.7,8a8.71,8.71,0,0,1-6.58,1.92h0a8.71,8.71,0,0,1-6.21-3.86l-7-10.69L43,167.42a6,6,0,0,1,.16-6.65,4.77,4.77,0,0,1,1.39-1.3C46.27,158.4,51.49,157.94,56.93,167.35Z"/><path class="cls-12" d="M76.62,178.51l.1-.06.31-.17,1.22-.61,4.44-2.21,0,0a13.28,13.28,0,0,0,1.38-1.76,2.15,2.15,0,0,0,.39-1.09,3.16,3.16,0,0,0-.12-1.22v-.06a1.62,1.62,0,0,0-.38-1.44l0-.06,0-.07c.28-.37.56-.76.82-1.17A.83.83,0,0,0,85,168a.88.88,0,0,0-.39-.52h.09a.13.13,0,0,1-.16-.06c0-.05,0-.07,0-.09a.2.2,0,0,1,0-.09c0-.05,0-.1.07-.14l.15-.24c.1-.16.23-.32.32-.47a1.89,1.89,0,0,0,.31-1,1.93,1.93,0,0,0-.08-.49l.15,0-4.17,2.48-.28.17.14-.29.43-.94.13.13c-1.79.82-3.45,1.56-4.84,2.28a2.69,2.69,0,0,0-.7.83c-.19.3-.36.61-.51.9-.31.58-.57,1.12-.79,1.6h0l-1.77.89-.46.23-.16.07.15-.1.45-.25,1.74-.93,0,0c.21-.49.45-1,.76-1.62.15-.3.32-.61.51-.92a4.22,4.22,0,0,1,.31-.47,1.57,1.57,0,0,1,.43-.42c1.41-.74,3-1.48,4.84-2.32l.23-.11-.11.24-.42.94-.14-.12,4.16-2.5.11-.06,0,.12a1.82,1.82,0,0,1,.09.56,2.09,2.09,0,0,1-.33,1.15c-.11.17-.23.31-.33.47s-.1.15-.14.23l-.06.11a.11.11,0,0,0,0,.05h-.08c0,.06,0-.08,0-.06h.08a1,1,0,0,1,.49.65.86.86,0,0,1,0,.42,2.71,2.71,0,0,1-.18.34c-.26.42-.54.81-.83,1.19v-.13a2.62,2.62,0,0,1,.4.78,1.45,1.45,0,0,1,0,.85v-.07a3.25,3.25,0,0,1,.14,1.3,2,2,0,0,1-.14.63,4.63,4.63,0,0,1-.29.54,12.35,12.35,0,0,1-1.42,1.77v0h0l-4.47,2.15-1.24.57-.32.15C76.66,178.5,76.62,178.52,76.62,178.51Z"/><path class="cls-12" d="M81.48,167.16a10.91,10.91,0,0,1-1.69,1.16,9.66,9.66,0,0,1-1.8,1,10.15,10.15,0,0,1,1.69-1.16A10,10,0,0,1,81.48,167.16Z"/><path class="cls-12" d="M84.73,167.05a11.21,11.21,0,0,1-1.52,1.64,11.77,11.77,0,0,1-1.65,1.48,12.42,12.42,0,0,1,1.51-1.63A12.7,12.7,0,0,1,84.73,167.05Z"/><path class="cls-12" d="M84.29,169.55a3.34,3.34,0,0,1-.71,1,3.43,3.43,0,0,1-.86.86,3.75,3.75,0,0,1,.71-1A3.91,3.91,0,0,1,84.29,169.55Z"/><path class="cls-12" d="M84.44,171.24s-.13.31-.36.64-.43.58-.48.56.07-.35.31-.68S84.4,171.2,84.44,171.24Z"/><path class="cls-6" d="M65.05,187.5l0,0,.15-.13.62-.5L68.19,185l8.31-6.51,0,.06a4.24,4.24,0,0,0-.31-1.59,6.72,6.72,0,0,0-.89-1.46,11.52,11.52,0,0,0-2.76-2.36h.09L67,175.56l-5.19,2.25-.09,0,0-.08C60.27,175,59,172.31,57.61,170c-.67-1.16-1.33-2.23-2-3.22s-1.18-1.92-1.76-2.71A10.16,10.16,0,0,0,50.54,161c-.23-.13-.45-.24-.64-.33a3.7,3.7,0,0,0-.47-.22l-.3-.13-.1-.05a8.53,8.53,0,0,1,1.54.67A8.71,8.71,0,0,1,52.22,162,11.26,11.26,0,0,1,54,164c.59.8,1.17,1.72,1.8,2.71s1.29,2.06,2,3.21c1.35,2.3,2.68,5,4.12,7.76l-.13-.05,5.19-2.26L72.52,173l0,0,0,0a11.8,11.8,0,0,1,2.81,2.42,6.89,6.89,0,0,1,.91,1.51,4.42,4.42,0,0,1,.32,1.67v0l0,0-8.35,6.45-2.36,1.81-.63.47-.16.12Z"/><path class="cls-6" d="M61.13,181c-.05,0,.24-.76.41-1.72s.16-1.76.22-1.76a4,4,0,0,1,0,1.8A3.94,3.94,0,0,1,61.13,181Z"/><polygon class="cls-15" points="105.18 189.51 122.95 213.13 114.64 220.27 106.08 209.08 105.18 189.51"/><path class="cls-15" d="M67.55,190.64s28.59-8.7,31.21-8.6,7.59,9.57,7.59,9.57l-8-.29L88.18,206.81l-16.41-.76Z"/><path class="cls-6" d="M90.92,183.76c0,.06-2.92,1-6.56,2.06s-6.6,1.92-6.62,1.86,2.92-1,6.56-2.06S90.91,183.71,90.92,183.76Z"/><path class="cls-15" d="M97.57,191.17h8a9.43,9.43,0,0,1,8.91,6.3h0a14.73,14.73,0,0,1,.81,5.55l-.63,32.65h-10.8l-.2-10.43-1.36-19.84-9.36.39-5.3-.33Z"/><path class="cls-6" d="M97.81,191a6.58,6.58,0,0,1-.16.69,17.47,17.47,0,0,1-.56,1.85,19.69,19.69,0,0,1-1.2,2.6,20.46,20.46,0,0,1-2,2.9,53,53,0,0,1-4.37,4.62L88.19,205a4.77,4.77,0,0,1-.53.47,6.25,6.25,0,0,1,.47-.53c.31-.33.77-.8,1.34-1.37a63.08,63.08,0,0,0,4.31-4.64A21,21,0,0,0,97,193.48c.29-.75.5-1.37.63-1.81A3.68,3.68,0,0,1,97.81,191Z"/><path class="cls-6" d="M107.62,191.39s-.56,0-1.46-.07-2.14-.09-3.51-.06-2.62.11-3.51.17a12,12,0,0,1-1.46.07,1.56,1.56,0,0,1,.38-.08l1.06-.14c.9-.1,2.15-.2,3.53-.23a30.24,30.24,0,0,1,3.53.12c.45,0,.81.09,1.06.13S107.62,191.37,107.62,191.39Z"/><path class="cls-6" d="M103.83,229.71a1.07,1.07,0,0,1,0-.28l0-.78c0-.7-.08-1.68-.13-2.87-.11-2.43-.25-5.78-.48-9.48s-.51-7-.71-9.46c-.1-1.19-.18-2.17-.23-2.87l-.06-.78a.92.92,0,0,1,0-.27s0,.09,0,.27l.09.77c.08.7.18,1.68.3,2.87.24,2.41.54,5.76.77,9.46s.36,7.05.43,9.48c0,1.2,0,2.18.06,2.88v.78A1.23,1.23,0,0,1,103.83,229.71Z"/><path class="cls-6" d="M115.33,201.76s0,7.48-.09,16.71-.23,16.71-.29,16.71,0-7.48.09-16.71S115.27,201.76,115.33,201.76Z"/><path class="cls-6" d="M106.51,200.54a17.52,17.52,0,0,0-2.31,1.09,18.63,18.63,0,0,0-2,1.56,2.21,2.21,0,0,1,.47-.6,7.64,7.64,0,0,1,3.1-1.9A1.94,1.94,0,0,1,106.51,200.54Z"/><g class="cls-10"><path d="M87.66,205.46A9.12,9.12,0,0,0,94.1,204a8.87,8.87,0,0,0,3.78-5.28c.24-1,.31-2,.55-2.94a4.48,4.48,0,0,1,1.46-2.54c.92-.7,3.17-1.15,3.84-2.08a28.28,28.28,0,0,0-3.56.22,19.35,19.35,0,0,1-2.58.19,25.51,25.51,0,0,1-.94,2.87,56.63,56.63,0,0,1-9,11"/></g><path class="cls-7" d="M42.57,167.15s-4.26.17-5.56,2c-2.3,3.14-1,5.87-1.14,6.8s7.24,52.67,7.24,52.67h3l54.81.51,2.63-6.4-1.26-17.29-14.66.06s-6-17.22-11.25-18.38c-3.55-.78-11.89-.5-16.91-.24a7,7,0,0,1-6.26-3.19Z"/><path class="cls-6" d="M91.15,226.55s-.3,0-.89.07-1.44,0-2.55,0c-2.22,0-5.45,0-9.47,0-8,0-19.24-.07-31.9-.18h-.08l0-.08c-.23-1.09-.46-2.2-.7-3.33s-.46-2.29-.69-3.45c-2.75-14-4.36-26.88-5.23-36.21-.44-4.66-.7-8.44-.86-11.05-.08-1.3-.13-2.31-.17-3l0-.78v-.27s0,.09,0,.27l.06.78c0,.69.12,1.7.21,3,.18,2.61.47,6.39.92,11,.91,9.31,2.54,22.16,5.29,36.18.23,1.16.46,2.31.69,3.44l.7,3.33-.1-.08,31.9.25,9.47,0,2.55,0c.29,0,.51,0,.66,0Z"/><path class="cls-6" d="M90.57,229a2.25,2.25,0,0,1,0-.25c0-.18.07-.41.11-.69s.11-.68.15-1.11.13-.92.17-1.47.1-1.14.13-1.78,0-1.33,0-2.05a44,44,0,0,0-.27-4.7,45.63,45.63,0,0,0-.81-4.63c-.33-1.41-.69-2.66-1-3.7-.16-.53-.33-1-.47-1.4s-.28-.77-.39-1.05L88,205.5c-.06-.16-.08-.24-.07-.24l.11.22.28.65c.12.28.26.63.41,1s.34.87.51,1.39c.35,1,.73,2.29,1.07,3.71a42.8,42.8,0,0,1,.83,4.65,41.79,41.79,0,0,1,.26,4.72c0,.72,0,1.41-.07,2.06s-.1,1.24-.16,1.79-.13,1-.19,1.47-.13.8-.19,1.1l-.14.69A1,1,0,0,1,90.57,229Z"/><path class="cls-6" d="M50.41,191.93s.07-.07.22-.19l.66-.51.48-.36.61-.37a14,14,0,0,1,1.53-.85l.91-.45c.32-.15.67-.27,1-.41s.71-.3,1.1-.42l1.19-.38a34.31,34.31,0,0,1,5.44-1.13,40.54,40.54,0,0,1,5.55-.34c.86,0,1.67.06,2.43.09s1.46.12,2.1.21a24.72,24.72,0,0,1,3,.55l.8.22a1.09,1.09,0,0,1,.28.09l-.29-.05-.81-.18c-.7-.15-1.73-.34-3-.49-.64-.08-1.35-.12-2.1-.18s-1.57-.09-2.42-.07a43.63,43.63,0,0,0-5.52.35,36.34,36.34,0,0,0-5.41,1.11l-1.19.37c-.39.12-.75.28-1.1.41s-.7.25-1,.4l-.91.43a15.16,15.16,0,0,0-1.53.82l-.61.35-.49.35-.69.47Z"/><path class="cls-6" d="M156.58,125.92a1.23,1.23,0,1,0,1.23-1.23A1.22,1.22,0,0,0,156.58,125.92Z"/><circle class="cls-6" cx="152.9" cy="125.92" r="1.23"/><path class="cls-6" d="M146.79,125.31a1.22,1.22,0,1,0,1.67-.45A1.22,1.22,0,0,0,146.79,125.31Z"/><path class="cls-6" d="M152.83,111.6h-.25l-.73,0-.54,0-.64.09-.75.11-.84.21a13.61,13.61,0,0,0-4.06,1.77,14.43,14.43,0,0,0-4.19,4.09,14.7,14.7,0,0,0-2.39,6.68,16,16,0,0,0,0,2c0,.33,0,.67.07,1l.15,1a14.31,14.31,0,0,0,1.37,4,14.17,14.17,0,0,0,6.36,6.29,13.63,13.63,0,0,0,4.59,1.41,8.25,8.25,0,0,0,1.22.1,10.1,10.1,0,0,0,1.23,0,14.9,14.9,0,0,0,2.48-.32A14.48,14.48,0,0,0,160.8,138l-.15,0,5,2,.29.12-.08-.31-1.48-5.36,0,.13a14.48,14.48,0,0,0,2.68-6.13,13.39,13.39,0,0,0,.19-3.14,10.59,10.59,0,0,0-.14-1.51l-.12-.74c0-.24-.11-.47-.17-.71a14.4,14.4,0,0,0-5.6-8.16,14,14,0,0,0-3.33-1.76l-.75-.27-.72-.18-.65-.16-.6-.09c-.38-.05-.71-.11-1-.13l-.74,0h-.6s0,0,.15,0l.45,0,.73,0c.29,0,.62.09,1,.15a14.26,14.26,0,0,1,11.41,10.59c.05.23.12.46.17.69s.07.48.1.73a9,9,0,0,1,.14,1.48,12.92,12.92,0,0,1-.21,3.08,14.05,14.05,0,0,1-2.64,6l0,.06,0,.08,1.46,5.36.21-.19-5-2-.08,0-.07,0a14.33,14.33,0,0,1-4.82,2,14.17,14.17,0,0,1-2.42.3,9.81,9.81,0,0,1-1.21,0,7.85,7.85,0,0,1-1.19-.1,13.35,13.35,0,0,1-4.48-1.37,14,14,0,0,1-6.25-6.15,14.3,14.3,0,0,1-1.35-3.91l-.15-1c-.05-.32,0-.66-.07-1a15.48,15.48,0,0,1,0-1.93A14.25,14.25,0,0,1,145.12,114a13.82,13.82,0,0,1,4-1.8l.82-.22.75-.12.63-.11.54,0,.72-.05A.87.87,0,0,0,152.83,111.6Z"/><rect class="cls-6" x="22.8" y="225.69" width="26.46" height="3.64"/><path class="cls-6" d="M49.3,229.37H22.75v-3.73H49.3Zm-26.46-.09H49.21v-3.55H22.84Z"/><polygon class="cls-6" points="25.25 228.11 29.06 246.9 43.15 246.9 46.83 229.32 25.25 228.11"/><polygon class="cls-7" points="25.25 245.12 27.28 247.92 44.41 247.92 46.83 245.12 25.25 245.12"/><path class="cls-6" d="M35,228.66c-.05,0-.12-8.7-.15-19.44s0-19.44,0-19.44.12,8.7.15,19.44S35.09,228.66,35,228.66Z"/><path class="cls-6" d="M40.93,206.88s0,.07-.07.2-.14.33-.24.56l-.17.41-.18.49-.2.57c-.07.2-.13.42-.2.65a25.47,25.47,0,0,0-.74,3.24,39,39,0,0,0-.41,4.05,55.16,55.16,0,0,0,.21,7.4c.09.94.17,1.71.24,2.23l.06.61c0,.14,0,.21,0,.21s0-.07-.05-.2-.06-.36-.1-.61c-.08-.52-.19-1.28-.29-2.23a48.39,48.39,0,0,1-.27-7.42A39.46,39.46,0,0,1,39,213a25.16,25.16,0,0,1,.78-3.25c.08-.23.14-.45.21-.65l.22-.56.19-.5c.07-.14.14-.28.19-.4l.27-.55C40.89,206.94,40.92,206.87,40.93,206.88Z"/><path class="cls-6" d="M40.25,199.84a1.2,1.2,0,0,1-.08.28l-.28.81-.2.59-.21.7c-.16.5-.34,1.08-.5,1.72l-.26,1c-.08.35-.16.72-.25,1.1-.19.75-.32,1.58-.49,2.44-.29,1.73-.55,3.64-.72,5.65s-.24,4-.27,5.7,0,3.34.09,4.66c0,.66.06,1.26.1,1.79s.06,1,.1,1.35,0,.64.06.85a1.69,1.69,0,0,1,0,.3,1.76,1.76,0,0,1-.05-.29c0-.22-.06-.5-.1-.85s-.09-.83-.13-1.35-.09-1.13-.12-1.79c-.09-1.33-.13-2.91-.13-4.67s.08-3.69.25-5.71.44-3.94.74-5.67c.18-.87.31-1.69.51-2.45l.26-1.1c.09-.35.19-.68.27-1,.17-.64.36-1.21.53-1.71l.22-.7c.08-.21.16-.41.22-.58l.31-.8A1.63,1.63,0,0,1,40.25,199.84Z"/><path class="cls-6" d="M33.36,230.2a.36.36,0,0,1,0-.1l0-.3c0-.28,0-.66-.08-1.15-.06-1-.15-2.46-.26-4.24-.23-3.58-.56-8.53-1.17-14-.3-2.72-.66-5.3-1-7.64-.2-1.17-.38-2.28-.58-3.31s-.39-2-.57-2.88-.37-1.67-.53-2.36-.3-1.29-.42-1.78l-.28-1.12-.06-.29a.42.42,0,0,1,0-.1.64.64,0,0,1,0,.09l.09.29c.07.27.18.64.31,1.11s.29,1.08.46,1.77.36,1.48.55,2.36.4,1.84.59,2.88.4,2.14.6,3.31c.38,2.35.74,4.93,1.05,7.65.6,5.45.91,10.4,1.11,14,.1,1.79.16,3.24.21,4.24,0,.49,0,.88,0,1.16v.4Z"/><path class="cls-16" d="M34.82,194a2.62,2.62,0,0,0-2.6-2.17,4.07,4.07,0,0,0-3.15,1.71,9.75,9.75,0,0,0-1.52,3.36,22.9,22.9,0,0,0-.93,9,13.5,13.5,0,0,0,3.73,8.08,1.54,1.54,0,0,0,1.28.59,1.62,1.62,0,0,0,.68-.42,20,20,0,0,0,6.5-15.25,6.18,6.18,0,0,0-.81-3.28c-.63-.95-2.11-2-3.18-1.58"/><path class="cls-16" d="M25.57,184.09l-1.74,3.15c0,.08-.1.16-.18.17s-.16-.08-.21-.16q-2.31-3.54-4.61-7.08l1.06-.6Z"/><path class="cls-16" d="M25.57,184.09l-1.74,3.15c0,.08-.1.16-.18.17s-.16-.08-.21-.16q-2.31-3.54-4.61-7.08l1.06-.6Z"/><path class="cls-16" d="M34.92,189.78,19.19,180.5a.76.76,0,0,1-.38-.39.72.72,0,0,1,.28-.63,10.82,10.82,0,0,1,8.41-3.3,9.6,9.6,0,0,1,7.6,4.72,8.65,8.65,0,0,1-.18,8.88"/><path class="cls-6" d="M21.46,177.53l.21,0c.13,0,.33,0,.59,0a12.13,12.13,0,0,1,2.18.17,13.06,13.06,0,0,1,6.45,3.11,12.9,12.9,0,0,1,2.49,3.11,12.68,12.68,0,0,1,1.25,3A12.2,12.2,0,0,1,35,189c0,.26,0,.32,0,.46a1,1,0,0,1-.12.34,2.56,2.56,0,0,0,0-.79,13.93,13.93,0,0,0-.44-2.13,12.88,12.88,0,0,0-10.08-9.12,14.32,14.32,0,0,0-2.16-.23A7.25,7.25,0,0,1,21.46,177.53Z"/><path class="cls-6" d="M32.8,183.37a5,5,0,0,1-.8.36c-.5.2-1.2.45-2,.7s-1.5.45-2,.58a4.59,4.59,0,0,1-.86.16,4.24,4.24,0,0,1,.82-.29l2-.63,2-.64A4.64,4.64,0,0,1,32.8,183.37Z"/><path class="cls-6" d="M30.32,176.72a11.48,11.48,0,0,1,.09,3.51,34.18,34.18,0,0,1-.09-3.51Z"/><path class="cls-6" d="M19.06,180.32a7.18,7.18,0,0,1,1.14-.4c.71-.22,1.71-.5,2.82-.77s2.12-.47,2.86-.6a6.12,6.12,0,0,1,1.2-.16,10.17,10.17,0,0,1-1.18.29l-2.84.65-2.83.72A11.41,11.41,0,0,1,19.06,180.32Z"/><path class="cls-16" d="M28.29,191.29a6.42,6.42,0,0,0-4.48-1.16,13.6,13.6,0,0,0-4.91,1.26,15.17,15.17,0,0,0-6.73,5.3,8.87,8.87,0,0,0-.95,8.27,1.23,1.23,0,0,0,.54.66,1.37,1.37,0,0,0,.89-.07A50.33,50.33,0,0,0,21.48,202a16.72,16.72,0,0,0,6.79-6.49,5.69,5.69,0,0,0,.71-2.15,2.66,2.66,0,0,0-.69-2.1"/><path class="cls-6" d="M28.32,191l-.22.09-.63.21-.46.16-.54.21c-.38.15-.82.3-1.29.53l-.74.34-.78.4c-.55.27-1.1.61-1.69,1a28.53,28.53,0,0,0-3.57,2.65,30.57,30.57,0,0,0-3.09,3.2c-.42.55-.83,1.05-1.16,1.56-.18.25-.35.49-.5.72l-.43.7c-.28.43-.49.85-.7,1.21-.09.18-.19.35-.27.5l-.21.44-.3.6-.11.2a.77.77,0,0,1,.08-.22l.26-.61.2-.45c.07-.16.17-.33.26-.51.19-.37.4-.79.67-1.23l.43-.7c.14-.25.32-.49.49-.74.33-.52.74-1,1.16-1.57a27.25,27.25,0,0,1,3.09-3.24,28,28,0,0,1,3.61-2.66c.59-.34,1.15-.68,1.71-.95.27-.14.53-.28.79-.39l.75-.33c.47-.22.92-.37,1.31-.51l.54-.2.46-.14.65-.18A.76.76,0,0,1,28.32,191Z"/><path class="cls-6" d="M17.75,196.69a30.57,30.57,0,0,1-3.3,1.06,30.85,30.85,0,0,1-3.34.88,33.79,33.79,0,0,1,3.29-1.06A32.9,32.9,0,0,1,17.75,196.69Z"/><path class="cls-6" d="M17.61,204a4.37,4.37,0,0,1-.07-1c0-.63,0-1.51,0-2.48s.08-1.84.14-2.47a4.54,4.54,0,0,1,.13-1,6.82,6.82,0,0,1,0,1c0,.7,0,1.54-.08,2.48s0,1.77-.06,2.47A5.85,5.85,0,0,1,17.61,204Z"/><path class="cls-6" d="M23.83,200.79s-.22-1.78-.37-4-.23-4-.18-4,.22,1.77.37,4S23.88,200.78,23.83,200.79Z"/><path class="cls-6" d="M16.09,192.64a7.5,7.5,0,0,1,1.05,0l2.54.06c1,0,1.89.07,2.54.11a7,7,0,0,1,1.05.1,5,5,0,0,1-1.05,0c-.65,0-1.55,0-2.54,0s-1.89-.08-2.54-.11A5.09,5.09,0,0,1,16.09,192.64Z"/><path class="cls-6" d="M31,214.31a.85.85,0,0,1,0-.21l0-.6c0-.53,0-1.29,0-2.23s.08-2.06.2-3.3.3-2.6.55-4,.57-2.75.89-4,.67-2.28,1-3.17.58-1.6.79-2.08l.24-.56.09-.19s0,.07-.06.2l-.2.57c-.19.49-.44,1.21-.74,2.1s-.62,2-.94,3.17-.62,2.53-.88,3.94-.43,2.76-.56,4-.2,2.35-.24,3.28S31,213,31,213.5v.6A.85.85,0,0,1,31,214.31Z"/><path class="cls-6" d="M31.85,204a3.77,3.77,0,0,1-.63.69c-.4.41-1,1-1.64,1.53s-1.28,1.08-1.73,1.43a4.17,4.17,0,0,1-.77.53,5.39,5.39,0,0,1,.68-.63l1.69-1.47,1.68-1.48A5.18,5.18,0,0,1,31.85,204Z"/><path class="cls-6" d="M36.83,208a7.35,7.35,0,0,1-.67-.92l-1.55-2.27c-.61-.85-1.15-1.62-1.59-2.25a8.4,8.4,0,0,1-.64-.94,5.88,5.88,0,0,1,.75.86c.43.56,1,1.34,1.63,2.22s1.15,1.7,1.51,2.31A6.91,6.91,0,0,1,36.83,208Z"/><path class="cls-6" d="M34.22,195.41s-1.62,1.16-3.69,2.49-3.77,2.37-3.8,2.33,1.63-1.16,3.7-2.49S34.19,195.37,34.22,195.41Z"/><path class="cls-6" d="M38.89,200.44a28.31,28.31,0,0,1-2.51-2.31C35,196.82,34,195.72,34,195.69A28.31,28.31,0,0,1,36.52,198C37.86,199.31,38.92,200.41,38.89,200.44Z"/><path class="cls-16" d="M40.06,200.34l1.42-.11a7.27,7.27,0,0,0,2.87-.88,9.74,9.74,0,0,1,1.33-.67c1.76-.71,3.72-.58,5.61-.68a23,23,0,0,0,8.91-2.28.83.83,0,0,0,.39-.35c.29-.53-.25-1-.72-1.29a29.35,29.35,0,0,0-7.54-3.7,9.87,9.87,0,0,0-8.11,1c-2.71,1.87-3.7,5.71-4.16,9"/><path class="cls-6" d="M60.62,195.2l-.24-.12-.67-.35c-.59-.3-1.43-.76-2.49-1.27A23.38,23.38,0,0,0,53.37,192a12.71,12.71,0,0,0-5-.4,8.51,8.51,0,0,0-4.55,1.95,10.16,10.16,0,0,0-2.37,3.32c-.5,1.07-.8,2-1,2.59l-.25.72c-.06.16-.09.25-.1.24a1.49,1.49,0,0,1,.06-.25l.22-.73a22.46,22.46,0,0,1,1-2.62,10.07,10.07,0,0,1,2.37-3.4,8.63,8.63,0,0,1,4.64-2,12.7,12.7,0,0,1,5.06.42,23,23,0,0,1,3.86,1.53c1.06.53,1.89,1,2.46,1.33l.66.38A1,1,0,0,1,60.62,195.2Z"/><path class="cls-6" d="M57.21,197s-1.89-1.16-4.15-2.68-4.07-2.8-4-2.84,1.89,1.15,4.15,2.68S57.24,197,57.21,197Z"/><path class="cls-6" d="M55.23,191.41a4.53,4.53,0,0,1-1.35.24,4.06,4.06,0,0,1-1.38,0,11,11,0,0,1,1.36-.14A7.87,7.87,0,0,1,55.23,191.41Z"/><path class="cls-6" d="M47.1,190.35a3.75,3.75,0,0,1-.61,1,4.14,4.14,0,0,1-.77.88,3.43,3.43,0,0,1,.61-1A3.85,3.85,0,0,1,47.1,190.35Z"/><path class="cls-6" d="M48.76,198.12a5.61,5.61,0,0,1-.89-.48c-.54-.33-1.26-.8-2-1.37s-1.45-1.09-1.94-1.48a5.85,5.85,0,0,1-.78-.66,5.41,5.41,0,0,1,.86.55l2,1.44c.78.56,1.49,1,2,1.41A5.6,5.6,0,0,1,48.76,198.12Z"/><path class="cls-16" d="M42.15,206.38c-1.36-.36-3,1-3.25,2.33a6.6,6.6,0,0,0,.84,4,20.58,20.58,0,0,0,5.6,7.33,13.84,13.84,0,0,0,8.56,3.15c-.57-2.66.16-5.44-.16-8.14a10.59,10.59,0,0,0-9.38-9.28c-.87-.1-1.87-.23-2.21.57"/><path class="cls-6" d="M53.9,223.23a.94.94,0,0,1-.19-.09,3.67,3.67,0,0,1-.51-.34A5.3,5.3,0,0,1,51.87,221c-.22-.42-.46-.87-.7-1.38s-.47-1-.72-1.61a16.73,16.73,0,0,0-.9-1.72,14.38,14.38,0,0,0-1.23-1.68c-.93-1.08-1.92-2-2.79-2.93a19.9,19.9,0,0,1-2.12-2.54,9.9,9.9,0,0,1-1-2c-.08-.25-.15-.44-.18-.58a.76.76,0,0,1,0-.2s.09.27.29.76a10.33,10.33,0,0,0,1.08,1.93,20.09,20.09,0,0,0,2.14,2.5c.86.89,1.86,1.83,2.8,2.93a14,14,0,0,1,1.25,1.7A16.05,16.05,0,0,1,50.6,218l.72,1.62c.22.5.46,1,.67,1.38a5.28,5.28,0,0,0,1.26,1.79C53.65,223.08,53.91,223.21,53.9,223.23Z"/><path class="cls-6" d="M46.9,221a4.73,4.73,0,0,1,.12-.91c.11-.56.28-1.33.52-2.16s.49-1.58.69-2.11a3.58,3.58,0,0,1,.37-.84,5.81,5.81,0,0,1-.25.88c-.17.54-.4,1.29-.63,2.12s-.43,1.59-.57,2.14A4.1,4.1,0,0,1,46.9,221Z"/><path class="cls-6" d="M53.65,214.49a4.58,4.58,0,0,1-1-.22c-.58-.15-1.39-.36-2.28-.56s-1.72-.36-2.31-.47a6.7,6.7,0,0,1-1-.21,4.16,4.16,0,0,1,1,.08c.6.08,1.43.21,2.33.42s1.7.43,2.28.61A5.4,5.4,0,0,1,53.65,214.49Z"/><path class="cls-6" d="M41.87,216.39a6.18,6.18,0,0,1,.15-1.06c.12-.64.31-1.53.56-2.5s.53-1.84.74-2.46a5,5,0,0,1,.39-1,8.25,8.25,0,0,1-.27,1c-.17.64-.42,1.51-.67,2.47s-.47,1.85-.62,2.49A5.79,5.79,0,0,1,41.87,216.39Z"/><path class="cls-6" d="M50.54,208.8a37.77,37.77,0,0,1-3.78-.3A33.61,33.61,0,0,1,43,208c0-.05,1.69.09,3.77.31S50.55,208.75,50.54,208.8Z"/><path class="cls-7" d="M49.3,229.31c0,.05-5.94.09-13.27.09s-13.28,0-13.28-.09,5.95-.1,13.28-.1S49.3,229.25,49.3,229.31Z"/><path class="cls-7" d="M45.17,237c0,.06-4,.1-9,.1s-8.94,0-8.94-.1,4-.09,8.94-.09S45.17,236.9,45.17,237Z"/><path class="cls-7" d="M45,238.05s-3.93.09-8.79.09-8.78,0-8.78-.09,3.93-.1,8.78-.1S45,238,45,238.05Z"/><path class="cls-7" d="M45.32,236.05c0,.06-4.14.1-9.25.1s-9.25,0-9.25-.1S31,236,36.07,236,45.32,236,45.32,236.05Z"/><rect class="cls-7" x="202.77" y="130.63" width="45.53" height="2.34"/><path class="cls-2" d="M239.91,106.92s0,0,0-.08l-.11-.2q-.15-.27-.48-.75a8.06,8.06,0,0,0-2.37-2.24,5.82,5.82,0,0,0-2.13-.79,5.43,5.43,0,0,0-2.59.27A4.17,4.17,0,0,0,230,105a13.18,13.18,0,0,0-1,2.92,5.9,5.9,0,0,1-.62,1.4,4.32,4.32,0,0,1-1.05,1c-.4.29-.81.55-1.19.86a5.23,5.23,0,0,0-1,1,6.46,6.46,0,0,0-1,2.41,8.5,8.5,0,0,0-.13,2.27,17.52,17.52,0,0,0,.58,3.22c.1.37.18.66.24.85a2.59,2.59,0,0,0,.09.3,1.21,1.21,0,0,0-.06-.31c-.05-.21-.12-.5-.2-.86a18.43,18.43,0,0,1-.52-3.21,8.24,8.24,0,0,1,.15-2.23,6.31,6.31,0,0,1,1-2.34,5,5,0,0,1,.94-1c.37-.3.78-.56,1.18-.85a4.69,4.69,0,0,0,1.1-1.08,5.81,5.81,0,0,0,.64-1.44,13.24,13.24,0,0,1,.95-2.89,4,4,0,0,1,2.12-1.75,5.12,5.12,0,0,1,2.51-.28,5.6,5.6,0,0,1,2.08.75,8.18,8.18,0,0,1,2.38,2.17c.23.31.4.56.51.73Z"/><path class="cls-2" d="M226.88,110.57c.28-.26.41-.08.78,0a2.22,2.22,0,0,1,1,.5,4.18,4.18,0,0,1,1.36,4.4,3.27,3.27,0,0,1-3-4.92"/><path class="cls-2" d="M238.15,105.44c.14-.35.34-.25.7-.35a2.45,2.45,0,0,1,1.11,0,4.22,4.22,0,0,1,3.13,3.39,3.31,3.31,0,0,1-3.36-.13,3.36,3.36,0,0,1-1.48-3"/><path class="cls-2" d="M224.4,117.51a3.78,3.78,0,0,1,5.94.29,4.63,4.63,0,0,1-3.08,1.22,4.79,4.79,0,0,1-3.11-1.26"/><path class="cls-2" d="M225.32,112.33a3.89,3.89,0,0,1-3-1.36,3.85,3.85,0,0,1-.83-3.21,3.43,3.43,0,0,1,4,4.53"/><path class="cls-2" d="M229.29,106.23a3.84,3.84,0,0,1-5.17-3,3.44,3.44,0,0,1,5.28,2.94"/><path class="cls-2" d="M230.62,104.24a3.84,3.84,0,0,1,5.17,3,3.44,3.44,0,0,1-5.28-3"/><path class="cls-2" d="M232.21,103.17a3.83,3.83,0,0,1-2-5.63,3.44,3.44,0,0,1,2.17,5.64"/><path class="cls-2" d="M236.27,103.36a3.82,3.82,0,0,1,3.13-5.1,3.44,3.44,0,0,1-3.05,5.21"/><polyline class="cls-6" points="219.89 130.83 217.73 117.24 234.31 117.44 232.68 130.65"/><path class="cls-16" d="M227.05,114.76a2.82,2.82,0,0,0,2.75.23,3,3,0,0,0,1.51-2.38,3.19,3.19,0,0,0-4.58,1.91"/><path class="cls-16" d="M234.63,117.68a2.84,2.84,0,0,0,2.76.24,3,3,0,0,0,1.5-2.38,3.36,3.36,0,0,0-2.75-.14,3.31,3.31,0,0,0-1.82,2"/><path class="cls-16" d="M230.38,111.15a2.81,2.81,0,0,0,2.17,1.71,3,3,0,0,0,2.56-1.16,3.18,3.18,0,0,0-4.87-.93"/><path class="cls-16" d="M233.14,114.54a2.81,2.81,0,0,0-2.47,1.22,3,3,0,0,0-.06,2.82,3.19,3.19,0,0,0,2.93-4"/><path class="cls-16" d="M235.82,119.88a2.83,2.83,0,0,0,.06,2.77,3,3,0,0,0,2.53,1.24,3.35,3.35,0,0,0-.16-2.75,3.07,3.07,0,0,0-2.2-1.41"/><path class="cls-16" d="M240.22,120.51a1.91,1.91,0,0,0-.65-.42,2.81,2.81,0,0,0-.9-.15,9.3,9.3,0,0,0-1.23.07,3.59,3.59,0,0,1-1.5-.13,2.32,2.32,0,0,1-1.25-1.2,7,7,0,0,1-.53-1.84,5.31,5.31,0,0,0-.64-1.88,6.78,6.78,0,0,0-1.4-1.43,6.68,6.68,0,0,1-1.35-1.36,4.5,4.5,0,0,1-.66-3.12,4.36,4.36,0,0,1,.81-2,3.13,3.13,0,0,1,.4-.44l.15-.13s0,.06-.13.16a4.94,4.94,0,0,0-.36.45,4.52,4.52,0,0,0-.75,2,4.37,4.37,0,0,0,.68,3,6.6,6.6,0,0,0,1.32,1.32,6.66,6.66,0,0,1,1.44,1.46,5.57,5.57,0,0,1,.66,2,6.65,6.65,0,0,0,.51,1.79,2.2,2.2,0,0,0,1.15,1.14,3.48,3.48,0,0,0,1.45.14,8.83,8.83,0,0,1,1.23,0,2.75,2.75,0,0,1,.92.19,1.59,1.59,0,0,1,.5.32l.11.12S240.23,120.51,240.22,120.51Z"/><path class="cls-16" d="M240.22,120.51a1.91,1.91,0,0,0-.65-.42,2.81,2.81,0,0,0-.9-.15,9.3,9.3,0,0,0-1.23.07,3.59,3.59,0,0,1-1.5-.13,2.32,2.32,0,0,1-1.25-1.2,7,7,0,0,1-.53-1.84,5.31,5.31,0,0,0-.64-1.88,6.78,6.78,0,0,0-1.4-1.43,6.68,6.68,0,0,1-1.35-1.36,4.5,4.5,0,0,1-.66-3.12,4.36,4.36,0,0,1,.81-2,3.13,3.13,0,0,1,.4-.44l.15-.13s0,.06-.13.16a4.94,4.94,0,0,0-.36.45,4.52,4.52,0,0,0-.75,2,4.37,4.37,0,0,0,.68,3,6.6,6.6,0,0,0,1.32,1.32,6.66,6.66,0,0,1,1.44,1.46,5.57,5.57,0,0,1,.66,2,6.65,6.65,0,0,0,.51,1.79,2.2,2.2,0,0,0,1.15,1.14,3.48,3.48,0,0,0,1.45.14,8.83,8.83,0,0,1,1.23,0,2.75,2.75,0,0,1,.92.19,1.59,1.59,0,0,1,.5.32l.11.12S240.23,120.51,240.22,120.51Z"/><path class="cls-16" d="M208.56,121.9a4.19,4.19,0,0,0-5.68-4.13,7,7,0,0,0,5.53,4.08"/><path class="cls-16" d="M207.46,122.48a3,3,0,0,0-.18,3.38,7.57,7.57,0,0,0,2.58,2.48,5.42,5.42,0,0,0-.13-3.49,5.51,5.51,0,0,0-2.21-2.69"/><path class="cls-16" d="M211.39,118.31a4.84,4.84,0,0,0,5.51,4.31,6.63,6.63,0,0,0-1.85-3.5,3.15,3.15,0,0,0-3.71-.47"/><path class="cls-16" d="M211.37,117a2.85,2.85,0,0,0-2.58-2.16,4.9,4.9,0,0,0-3.34,1.12,4.35,4.35,0,0,0,5.93.59"/><path class="cls-16" d="M205.19,127.07a3.88,3.88,0,0,0-.95,4.13,6.85,6.85,0,0,0,2.82,3.38,9,9,0,0,0,.53-4.38,4.59,4.59,0,0,0-2.5-3.48"/><path class="cls-16" d="M211.18,113.65a3.51,3.51,0,0,1,5.55-.33,3,3,0,0,1-5.46.14"/><path class="cls-16" d="M212.58,110.22a4.54,4.54,0,0,1-5.8-3.55,10.06,10.06,0,0,1,2.74,0,4.49,4.49,0,0,1,2.42,1.2,2.43,2.43,0,0,1,.64,2.32"/><path class="cls-16" d="M215.21,109.34a3.71,3.71,0,0,1,0-5.74,7.71,7.71,0,0,1,1.62,3.47,2.88,2.88,0,0,1,0,1.43,1.34,1.34,0,0,1-1,.94"/><g class="cls-17"><path d="M208.56,121.9a4.19,4.19,0,0,0-5.68-4.13,7,7,0,0,0,5.53,4.08"/></g><g class="cls-17"><path d="M207.46,122.48a3,3,0,0,0-.18,3.38,7.57,7.57,0,0,0,2.58,2.48,5.42,5.42,0,0,0-.13-3.49,5.51,5.51,0,0,0-2.21-2.69"/></g><g class="cls-17"><path d="M211.39,118.31a4.84,4.84,0,0,0,5.51,4.31,6.63,6.63,0,0,0-1.85-3.5,3.15,3.15,0,0,0-3.71-.47"/></g><g class="cls-17"><path d="M211.37,117a2.85,2.85,0,0,0-2.58-2.16,4.9,4.9,0,0,0-3.34,1.12,4.35,4.35,0,0,0,5.93.59"/></g><g class="cls-17"><path d="M205.19,127.07a3.88,3.88,0,0,0-.95,4.13,6.85,6.85,0,0,0,2.82,3.38,9,9,0,0,0,.53-4.38,4.59,4.59,0,0,0-2.5-3.48"/></g><g class="cls-17"><path d="M211.18,113.65a3.51,3.51,0,0,1,5.55-.33,3,3,0,0,1-5.46.14"/></g><g class="cls-17"><path d="M212.58,110.22a4.54,4.54,0,0,1-5.8-3.55,10.06,10.06,0,0,1,2.74,0,4.49,4.49,0,0,1,2.42,1.2,2.43,2.43,0,0,1,.64,2.32"/></g><g class="cls-17"><path d="M215.21,109.34a3.71,3.71,0,0,1,0-5.74,7.71,7.71,0,0,1,1.62,3.47,2.88,2.88,0,0,1,0,1.43,1.34,1.34,0,0,1-1,.94"/></g><path class="cls-16" d="M219.76,117.68v-.1l0-.27c0-.24,0-.59,0-1a9.55,9.55,0,0,0-.61-3.77,5.84,5.84,0,0,0-1.52-2.13,4.06,4.06,0,0,0-2.76-1,3.39,3.39,0,0,0-1.55.39,3,3,0,0,0-1.21,1.15,6.23,6.23,0,0,0-.7,3.47,23.45,23.45,0,0,1,.09,3.64,5.42,5.42,0,0,1-.46,1.7,3.44,3.44,0,0,1-1,1.33,4.91,4.91,0,0,1-1.42.73,6.84,6.84,0,0,0-1.34.61,5,5,0,0,0-1.76,1.91,4.6,4.6,0,0,0-.5,2.1,5,5,0,0,0,.26,1.62,5.44,5.44,0,0,0,.63,1.26l-.06-.07a1.83,1.83,0,0,1-.16-.22,4.2,4.2,0,0,1-.48-.94,5.29,5.29,0,0,1-.3-1.65,4.82,4.82,0,0,1,.5-2.15,5,5,0,0,1,1.79-2c.82-.55,1.91-.68,2.74-1.34a4.24,4.24,0,0,0,1.4-2.92,24.65,24.65,0,0,0-.09-3.62,6.36,6.36,0,0,1,.73-3.56,3.28,3.28,0,0,1,1.27-1.21,3.71,3.71,0,0,1,1.64-.4,4.18,4.18,0,0,1,2.86,1.07,5.79,5.79,0,0,1,1.53,2.19,7.69,7.69,0,0,1,.52,2.15,11,11,0,0,1,0,1.67c0,.46,0,.81-.08,1l0,.28A.66.66,0,0,1,219.76,117.68Z"/><g class="cls-17"><path d="M219.76,117.68v-.1l0-.27c0-.24,0-.59,0-1a9.55,9.55,0,0,0-.61-3.77,5.84,5.84,0,0,0-1.52-2.13,4.06,4.06,0,0,0-2.76-1,3.39,3.39,0,0,0-1.55.39,3,3,0,0,0-1.21,1.15,6.23,6.23,0,0,0-.7,3.47,23.45,23.45,0,0,1,.09,3.64,5.42,5.42,0,0,1-.46,1.7,3.44,3.44,0,0,1-1,1.33,4.91,4.91,0,0,1-1.42.73,6.84,6.84,0,0,0-1.34.61,5,5,0,0,0-1.76,1.91,4.6,4.6,0,0,0-.5,2.1,5,5,0,0,0,.26,1.62,5.44,5.44,0,0,0,.63,1.26l-.06-.07a1.83,1.83,0,0,1-.16-.22,4.2,4.2,0,0,1-.48-.94,5.29,5.29,0,0,1-.3-1.65,4.82,4.82,0,0,1,.5-2.15,5,5,0,0,1,1.79-2c.82-.55,1.91-.68,2.74-1.34a4.24,4.24,0,0,0,1.4-2.92,24.65,24.65,0,0,0-.09-3.62,6.36,6.36,0,0,1,.73-3.56,3.28,3.28,0,0,1,1.27-1.21,3.71,3.71,0,0,1,1.64-.4,4.18,4.18,0,0,1,2.86,1.07,5.79,5.79,0,0,1,1.53,2.19,7.69,7.69,0,0,1,.52,2.15,11,11,0,0,1,0,1.67c0,.46,0,.81-.08,1l0,.28A.66.66,0,0,1,219.76,117.68Z"/></g><path class="cls-16" d="M243.91,114.71a3.5,3.5,0,0,0,.25-1.21,3.19,3.19,0,0,0-.32-1.41,2.87,2.87,0,0,0-1.36-1.3,2.82,2.82,0,0,0-1.06-.29,3.5,3.5,0,0,0-1.19.14c-.82.21-1.62.68-2.58.87a3.06,3.06,0,0,1-1.5,0,2.23,2.23,0,0,1-1.21-1c-.58-.9-.75-2-1.45-2.86a2.79,2.79,0,0,0-1.31-.85,3.61,3.61,0,0,0-1.53-.16,3.91,3.91,0,0,0-2.54,1.33,6,6,0,0,0-1.27,2.33,7.11,7.11,0,0,0-.28,2.32A25.49,25.49,0,0,0,227,116c.07.39.12.69.16.92l0,.24a.45.45,0,0,1,0,.08l0-.08-.06-.24c0-.22-.11-.52-.19-.91a23.45,23.45,0,0,1-.49-3.39,7.14,7.14,0,0,1,.27-2.37,6.08,6.08,0,0,1,1.28-2.41,4.66,4.66,0,0,1,1.17-.93,3.76,3.76,0,0,1,1.48-.45,3.7,3.7,0,0,1,1.61.16,3,3,0,0,1,1.39.91c.74.88.9,2,1.45,2.87a2.06,2.06,0,0,0,1.13.91,2.93,2.93,0,0,0,1.41,0c.92-.17,1.73-.63,2.57-.84a3.54,3.54,0,0,1,1.24-.14,3.1,3.1,0,0,1,1.11.31,3,3,0,0,1,1.39,1.38,3.19,3.19,0,0,1,.3,1.45,2.64,2.64,0,0,1-.18.92A1.11,1.11,0,0,1,243.91,114.71Z"/><path class="cls-16" d="M234.21,108.69a3.22,3.22,0,0,0,3,.2,3,3,0,0,0,1.51-2.38,3.37,3.37,0,0,0-2.75-.14,3.33,3.33,0,0,0-1.83,2"/><path class="cls-16" d="M237.36,111.55a3.17,3.17,0,0,0,1.37,2.62,3,3,0,0,0,2.82,0,3.19,3.19,0,0,0-4-2.92"/><path class="cls-16" d="M242.81,110.91a3.2,3.2,0,0,0,3-.12,3,3,0,0,0,1.25-2.53,3.39,3.39,0,0,0-2.75.16,3.36,3.36,0,0,0-1.6,2.23"/><path class="cls-16" d="M229.63,106.8a3.36,3.36,0,0,1-1.18-2.79,3,3,0,0,1,1.83-2.14,3.18,3.18,0,0,1-.46,4.93"/><path class="cls-16" d="M208.33,102.9l0-.07.11-.21c.1-.17.26-.43.48-.75a8.19,8.19,0,0,1,2.37-2.24,5.81,5.81,0,0,1,2.13-.78,5.19,5.19,0,0,1,2.59.27,4.21,4.21,0,0,1,2.22,1.81,14.19,14.19,0,0,1,1,2.93,5.28,5.28,0,0,0,.61,1.39,4.32,4.32,0,0,0,1,1c.4.29.81.55,1.19.86a5.23,5.23,0,0,1,1,1,6.46,6.46,0,0,1,1,2.41,8.52,8.52,0,0,1,.13,2.27,17.52,17.52,0,0,1-.58,3.22c-.1.37-.18.66-.24.86a2.75,2.75,0,0,1-.09.29,1.11,1.11,0,0,1,.06-.3c.05-.22.12-.5.2-.87a18.43,18.43,0,0,0,.52-3.21,8.26,8.26,0,0,0-.15-2.23,6.37,6.37,0,0,0-1-2.34,5,5,0,0,0-.94-1c-.36-.29-.78-.55-1.18-.85a4.5,4.5,0,0,1-1.1-1.08,5.65,5.65,0,0,1-.64-1.44,13.42,13.42,0,0,0-1-2.89A4.07,4.07,0,0,0,216,99.27a5.2,5.2,0,0,0-2.5-.28,5.76,5.76,0,0,0-2.09.75,8.33,8.33,0,0,0-2.38,2.17c-.23.31-.4.56-.51.73Z"/><path class="cls-16" d="M221.36,106.55c-.27-.25-.41-.08-.78,0a2.33,2.33,0,0,0-1,.5,4.19,4.19,0,0,0-1.36,4.4,3.27,3.27,0,0,0,3-4.92"/><path class="cls-16" d="M210.09,101.42c-.14-.35-.34-.24-.7-.34a2.2,2.2,0,0,0-1.11,0,4.18,4.18,0,0,0-3.12,3.39,3.28,3.28,0,0,0,4.83-3.15"/><path class="cls-16" d="M223.84,113.5a3.76,3.76,0,0,0-5.94.29A4.67,4.67,0,0,0,221,115a4.83,4.83,0,0,0,3.11-1.25"/><path class="cls-16" d="M222.92,108.31a3.83,3.83,0,0,0,3.87-4.57,3.44,3.44,0,0,0-4,4.53"/><path class="cls-16" d="M219,102.21a3.82,3.82,0,0,0,5.17-3,3.44,3.44,0,0,0-5.28,3"/><path class="cls-16" d="M217.62,100.22a3.84,3.84,0,0,0-5.17,3,3.44,3.44,0,0,0,5.28-3"/><path class="cls-16" d="M216,99.15a3.86,3.86,0,0,0,2.38-2.32,3.9,3.9,0,0,0-.34-3.31,3.44,3.44,0,0,0-2.17,5.64"/><path class="cls-16" d="M212,99.35a3.82,3.82,0,0,0-3.13-5.11,3.44,3.44,0,0,0,3.06,5.21"/><polygon class="cls-6" points="217.51 129.25 218.78 130.83 234.4 130.83 235.46 129.25 217.51 129.25"/><path class="cls-7" d="M235.12,129.24s-3.84.09-8.57.09-8.57,0-8.57-.09,3.84-.09,8.57-.09S235.12,129.19,235.12,129.24Z"/><path class="cls-7" d="M233.36,123.31s0,0-.1.13a2.78,2.78,0,0,1-.31.33,5.54,5.54,0,0,1-1.4,1,6.06,6.06,0,0,1-2.43.63,6,6,0,0,1-1.5-.13,9.3,9.3,0,0,1-1.52-.5c-1-.43-1.92-.92-2.81-1.2a4.8,4.8,0,0,0-2.43-.24,3.28,3.28,0,0,0-1.49.69,4.79,4.79,0,0,0-.42.45s0,0,.08-.14a1.93,1.93,0,0,1,.3-.36,3.07,3.07,0,0,1,1.51-.76,4.9,4.9,0,0,1,2.5.2c.91.28,1.84.77,2.83,1.19a9,9,0,0,0,1.49.5,5.59,5.59,0,0,0,1.45.13,6.32,6.32,0,0,0,2.39-.57A7.43,7.43,0,0,0,233.36,123.31Z"/><path class="cls-7" d="M233.52,122.09l-.11.12a2.85,2.85,0,0,1-.34.31,6.35,6.35,0,0,1-1.45.9,6.73,6.73,0,0,1-2.45.59,7.05,7.05,0,0,1-1.5-.1,10.22,10.22,0,0,1-1.54-.44c-1-.37-2-.8-2.88-1.06a5.79,5.79,0,0,0-2.45-.22,3.63,3.63,0,0,0-1.54.59c-.33.23-.47.4-.48.39s0,0,.09-.13a2.4,2.4,0,0,1,.35-.31,3.4,3.4,0,0,1,1.56-.66,5.72,5.72,0,0,1,2.52.18c.92.25,1.87.68,2.89,1a9.93,9.93,0,0,0,1.52.43,6.65,6.65,0,0,0,3.86-.43A8.44,8.44,0,0,0,233.52,122.09Z"/><rect class="cls-7" x="215.1" y="132.36" width="1.37" height="3.81"/><rect class="cls-7" x="234.6" y="132.36" width="1.37" height="3.81"/></svg>