<svg id="Layer_1" data-name="Layer 1" xmlns="http://www.w3.org/2000/svg" viewBox="0 0 255 290"><defs><style>.cls-1,.cls-2{fill:#e1e1e1;}.cls-1,.cls-5,.cls-7,.cls-9{fill-rule:evenodd;}.cls-3{fill:#f5f5f5;}.cls-4{fill:#1a2e35;}.cls-12,.cls-5{fill:#08c29d;}.cls-6{opacity:0.8;}.cls-11,.cls-7{fill:#fff;}.cls-8{opacity:0.4;}.cls-15,.cls-20,.cls-9{fill:#021166;}.cls-10{fill:#fafafa;}.cls-13{opacity:0.3;}.cls-14{fill:#375a64;}.cls-16{opacity:0.6;}.cls-17{fill:#c78976;}.cls-18{fill:#bf654e;}.cls-19{fill:#ececec;}.cls-20{font-size:11.61px;font-family:Inter-Bold, Inter;font-weight:700;}</style></defs><title>banner</title><path class="cls-1" d="M89.38,195.46a14.83,14.83,0,0,1,3.79,1L96,194.13l4.8,3.65-1.51,3.31a15,15,0,0,1,2,3.39l3.63.32.81,6-3.41,1.28a14.71,14.71,0,0,1-1,3.79l2.34,2.8-3.65,4.79-3.31-1.51a15.12,15.12,0,0,1-3.4,2l-.32,3.62-6,.81-1.27-3.41a14.39,14.39,0,0,1-3.8-1l-2.79,2.34-4.79-3.65,1.51-3.31a14.76,14.76,0,0,1-2-3.4l-3.63-.32-.81-6,3.41-1.27a14.8,14.8,0,0,1,1-3.8l-2.34-2.79L75.1,197l3.32,1.51a14.48,14.48,0,0,1,3.39-2l.32-3.62,6-.81,1.28,3.4Zm-1.8,8.24a6.46,6.46,0,1,0,6.5,4.94A6.46,6.46,0,0,0,87.58,203.7Z"/><path class="cls-2" d="M25.92,108V90.65A17.35,17.35,0,1,1,8.58,108.4Z"/><path class="cls-3" d="M21.7,103.33l-17.35.39A18.28,18.28,0,0,1,9.26,91.23,17.87,17.87,0,0,1,21.43,86Z"/><path class="cls-1" d="M216.85,66.94a14.32,14.32,0,0,1,3.79,1l2.8-2.34,4.79,3.65-1.51,3.31a14.76,14.76,0,0,1,2,3.4l3.62.32.81,6-3.41,1.27a14.39,14.39,0,0,1-1,3.8l2.34,2.79-3.65,4.79-3.31-1.51a14.76,14.76,0,0,1-3.4,2L220.39,99l-6,.81-1.28-3.41a14.91,14.91,0,0,1-3.8-1l-2.79,2.34-4.79-3.65,1.51-3.31a14.69,14.69,0,0,1-2-3.39l-3.62-.32-.81-6,3.41-1.28a14.32,14.32,0,0,1,1-3.79l-2.34-2.79,3.65-4.8,3.31,1.51a15.06,15.06,0,0,1,3.39-2l.32-3.62,6-.81,1.28,3.41Zm-1.79,8.23a6.46,6.46,0,1,0,6.49,4.94A6.47,6.47,0,0,0,215.06,75.17Z"/><path class="cls-4" d="M255,233.62c0,.06-58.71.1-131.12.1s-131.12,0-131.12-.1,58.69-.1,131.12-.1S255,233.56,255,233.62Z"/><path class="cls-5" d="M35.83,149.89a13.89,13.89,0,0,1,3,2.12l3.2-1.15,3,4.76L42.64,158a13.67,13.67,0,0,1,.63,3.61l3.07,1.46-1.23,5.49h-3.4a13.84,13.84,0,0,1-2.11,3l1.14,3.2-4.75,3-2.41-2.4A13.73,13.73,0,0,1,30,176l-1.46,3.08L23,177.88v-3.4a13.45,13.45,0,0,1-3-2.11l-3.21,1.14-3-4.75,2.4-2.41a13.67,13.67,0,0,1-.63-3.62l-3.07-1.45,1.23-5.5h3.4a13.61,13.61,0,0,1,2.11-3l-1.14-3.21,4.76-3,2.41,2.4a14,14,0,0,1,3.61-.63l1.46-3.07,5.49,1.23v3.4ZM31,156.35a6,6,0,1,0,4.57,7.22A6,6,0,0,0,31,156.35Z"/><g class="cls-6"><path class="cls-7" d="M35.83,149.89a13.89,13.89,0,0,1,3,2.12l3.2-1.15,3,4.76L42.64,158a13.67,13.67,0,0,1,.63,3.61l3.07,1.46-1.23,5.49h-3.4a13.84,13.84,0,0,1-2.11,3l1.14,3.2-4.75,3-2.41-2.4A13.73,13.73,0,0,1,30,176l-1.46,3.08L23,177.88v-3.4a13.45,13.45,0,0,1-3-2.11l-3.21,1.14-3-4.75,2.4-2.41a13.67,13.67,0,0,1-.63-3.62l-3.07-1.45,1.23-5.5h3.4a13.61,13.61,0,0,1,2.11-3l-1.14-3.21,4.76-3,2.41,2.4a14,14,0,0,1,3.61-.63l1.46-3.07,5.49,1.23v3.4ZM31,156.35a6,6,0,1,0,4.57,7.22A6,6,0,0,0,31,156.35Z"/></g><path class="cls-4" d="M40.71,199.25a4.27,4.27,0,0,1,1.29.41,5.42,5.42,0,0,1,2.57,2.6,5.49,5.49,0,0,1,.53,2.52,5.59,5.59,0,0,1-.87,2.82,5,5,0,0,1-1,1.22,5.2,5.2,0,0,1-1.42.9,5.53,5.53,0,0,1-3.47.34,5.59,5.59,0,0,1-3-1.79,5.59,5.59,0,0,1-1.33-3,5.53,5.53,0,0,1,2-5,5.44,5.44,0,0,1,3.44-1.25,4,4,0,0,1,1.34.18s-.48-.09-1.34-.06a5.48,5.48,0,0,0-3.3,1.3,5.35,5.35,0,0,0-1.82,4.77,5,5,0,0,0,.41,1.47,5.3,5.3,0,0,0,7,2.71,4.82,4.82,0,0,0,1.35-.85,5,5,0,0,0,1-1.15,5.31,5.31,0,0,0,.85-2.67,5.42,5.42,0,0,0-2.89-5C41.18,199.37,40.7,199.29,40.71,199.25Z"/><path class="cls-4" d="M45.09,193.41a1.31,1.31,0,0,1,0-.19c0-.15,0-.34,0-.58q0-.81,0-2.31l0,0-5-1.08.09-.05L38.88,192l0,.05H38.8a12,12,0,0,0-3.24.58H35.5l0,0-2.18-2.16h.14l-4.3,2.73.05-.14c.32.9.68,1.88,1,2.9l0,.07-.06.06a12.19,12.19,0,0,0-1.88,2.68l0,.08H25.09l.14-.11c-.35,1.56-.73,3.24-1.11,5l-.08-.17,2.78,1.32.08,0V205a12.63,12.63,0,0,0,.57,3.23l0,.09-.07.06-2.17,2.18,0-.19c.87,1.36,1.79,2.82,2.73,4.3l-.18-.06,2.89-1,.09,0,.07.07a12.47,12.47,0,0,0,2.68,1.88h0l.09.14h0v3.06l-.12-.15,5,1.11-.18.09c.45-.94.89-1.86,1.32-2.78l0-.09h.1a12.09,12.09,0,0,0,3.23-.56l.08,0,.07.07,2.18,2.17-.19,0c1.47-.93,2.91-1.83,4.3-2.72l-.05.17c-.35-1-.7-2-1-2.9l0-.08.06-.06a12.53,12.53,0,0,0,1.89-2.68l0-.07h3.16l-.13.11c.4-1.75.77-3.4,1.12-5l.07.14-2.77-1.33-.07,0V204a12.61,12.61,0,0,0-.55-3.24l0-.06,0,0,2.18-2.18v.12c-1.05-1.67-1.94-3.1-2.71-4.31l.08,0-2.9,1h0l0,0a12.06,12.06,0,0,0-2-1.52l-.53-.32-.17-.11.19.08.54.3a12.88,12.88,0,0,1,2,1.49h-.05l2.89-1.05,0,0,0,.05,2.74,4.29,0,.06,0,.05-2.16,2.19,0-.1a12.49,12.49,0,0,1,.59,3.29l-.07-.09,2.78,1.31.09,0,0,.09-1.11,5,0,.1h-.1l-3.08,0,.12-.08a12.21,12.21,0,0,1-1.93,2.75l0-.14,1,2.89,0,.11-.1.06-4.3,2.73-.1.07-.08-.09c-.72-.71-1.45-1.43-2.18-2.17l.15,0a12.7,12.7,0,0,1-3.31.58l.13-.09c-.43.92-.87,1.84-1.32,2.78l-.05.11-.12,0-5-1.11-.12,0v-3.19h0c.17.28.05.08.09.14h0a12.81,12.81,0,0,1-2.74-1.93l.16,0-2.9,1-.12,0-.06-.1c-.94-1.48-1.86-2.94-2.73-4.3l-.06-.11.08-.08,2.18-2.18,0,.15a12.78,12.78,0,0,1-.57-3.31l.08.13-2.77-1.32-.11-.05,0-.12c.38-1.72.76-3.4,1.12-5l0-.11h3.19l-.12.07A12.52,12.52,0,0,1,30,195.93l0,.13-1-2.9,0-.09.08,0,4.31-2.72.07-.05.06.07,2.18,2.17-.1,0a12.34,12.34,0,0,1,3.29-.56l-.08.05L40,189.19l0-.06h.06l5,1.15h0v0c0,1,0,1.76,0,2.29v.59A1.57,1.57,0,0,1,45.09,193.41Z"/><path class="cls-5" d="M16,182.24a8,8,0,0,1,1.75,1.23l1.86-.66,1.76,2.76L19.94,187a8.19,8.19,0,0,1,.37,2.1l1.78.85-.71,3.2h-2a8.34,8.34,0,0,1-1.23,1.75l.66,1.86-2.76,1.75-1.41-1.39a7.77,7.77,0,0,1-2.1.36l-.85,1.79-3.2-.72v-2a8.34,8.34,0,0,1-1.75-1.23L4.9,196l-1.76-2.77,1.4-1.4a8.26,8.26,0,0,1-.37-2.11l-1.78-.84.71-3.2h2a8.28,8.28,0,0,1,1.23-1.74l-.66-1.87,2.77-1.75,1.4,1.4a7.78,7.78,0,0,1,2.1-.37l.85-1.79,3.2.72v2ZM13.15,186a3.51,3.51,0,1,0,2.66,4.2A3.51,3.51,0,0,0,13.15,186Z"/><g class="cls-8"><path class="cls-7" d="M16,182.24a8,8,0,0,1,1.75,1.23l1.86-.66,1.76,2.76L19.94,187a8.19,8.19,0,0,1,.37,2.1l1.78.85-.71,3.2h-2a8.34,8.34,0,0,1-1.23,1.75l.66,1.86-2.76,1.75-1.41-1.39a7.77,7.77,0,0,1-2.1.36l-.85,1.79-3.2-.72v-2a8.34,8.34,0,0,1-1.75-1.23L4.9,196l-1.76-2.77,1.4-1.4a8.26,8.26,0,0,1-.37-2.11l-1.78-.84.71-3.2h2a8.28,8.28,0,0,1,1.23-1.74l-.66-1.87,2.77-1.75,1.4,1.4a7.78,7.78,0,0,1,2.1-.37l.85-1.79,3.2.72v2ZM13.15,186a3.51,3.51,0,1,0,2.66,4.2A3.51,3.51,0,0,0,13.15,186Z"/></g><path class="cls-9" d="M221.43,126.91a10.39,10.39,0,0,1,2.6.69L226,126l3.29,2.5-1,2.28a10,10,0,0,1,1.36,2.32l2.49.22.55,4.1-2.34.87a10,10,0,0,1-.69,2.61l1.61,1.92-2.5,3.29-2.28-1a9.82,9.82,0,0,1-2.33,1.36l-.22,2.49-4.09.55-.88-2.34a10,10,0,0,1-2.6-.69l-1.92,1.61-3.29-2.51,1-2.27a9.82,9.82,0,0,1-1.36-2.33l-2.49-.22-.55-4.09,2.34-.88a10,10,0,0,1,.68-2.6l-1.6-1.92,2.5-3.29,2.28,1a9.82,9.82,0,0,1,2.33-1.36l.21-2.49,4.1-.56.88,2.34Zm-1.23,5.65a4.44,4.44,0,1,0,4.45,3.4A4.44,4.44,0,0,0,220.2,132.56Z"/><path class="cls-4" d="M237.47,102.4a4,4,0,0,1,1.33-.07,5.42,5.42,0,0,1,4.59,3.65,5.49,5.49,0,0,1,.17,2.89,5.21,5.21,0,0,1-.55,1.48,5,5,0,0,1-1,1.31,5.49,5.49,0,0,1-6.45.88,5.61,5.61,0,0,1-1.31-1,5.39,5.39,0,0,1-.92-1.28,5.51,5.51,0,0,1-.61-2.83,5.38,5.38,0,0,1,.73-2.41,5.29,5.29,0,0,1,2.73-2.33,3.91,3.91,0,0,1,1.29-.29s-.47.08-1.25.4a5.41,5.41,0,0,0-2.59,2.32,5.33,5.33,0,0,0-.65,2.32,5.22,5.22,0,0,0,.6,2.68,4.69,4.69,0,0,0,.88,1.21,5.06,5.06,0,0,0,1.25.94,5.18,5.18,0,0,0,6.09-.82,4.88,4.88,0,0,0,.95-1.24,5,5,0,0,0,.53-1.4A5.24,5.24,0,0,0,241.9,104a5.33,5.33,0,0,0-3.12-1.55C238,102.35,237.48,102.44,237.47,102.4Z"/><path class="cls-4" d="M239.5,95.53s0,0-.07-.17l-.21-.53c-.19-.49-.47-1.19-.82-2.1l0,0-4.94.7.07-.07c-.08.91-.16,1.92-.25,3v.06l0,0a12.29,12.29,0,0,0-2.78,1.63l-.05,0-.06,0-2.74-1.25.13,0-3,4v-.15l1.94,2.3.05.06,0,.07a12,12,0,0,0-.81,3.12v.08l-.08,0L223,107.39l.09-.15c.21,1.55.44,3.23.67,4.94l-.13-.12,3,.26h.09l0,.08a12.56,12.56,0,0,0,1.62,2.78l.06.07,0,.08-1.25,2.75,0-.19,4,3h-.19l2.31-1.94.07-.06.09,0a12.18,12.18,0,0,0,3.1.82h0l.13.1h0v0l0,0,0,.09.07.18.13.35.27.71.52,1.41-.16-.1,4.94-.67-.13.14q.14-1.52.27-3V119l.08,0a11.83,11.83,0,0,0,2.78-1.62l.07,0,.08,0,2.75,1.25-.18,0,3-4v.17l-1.94-2.31,0-.07,0-.07a12.15,12.15,0,0,0,.83-3.11v-.08l.07,0L253,108.1l-.08.13c-.23-1.74-.45-3.38-.66-4.94l.1.1-3-.27h-.07l0-.06a12,12,0,0,0-1.62-2.79l0-.05,0-.06c.46-1,.87-1.89,1.26-2.74l0,.11-4-3H245l-2.33,1.92,0,0h0a12.73,12.73,0,0,0-2.33-.72l-.6-.12c-.14,0-.2,0-.2,0l.2,0a6,6,0,0,1,.61.09,11.57,11.57,0,0,1,2.36.68h0l2.3-2,0,0,0,0,4,3,.06,0,0,.07c-.39.85-.79,1.75-1.25,2.75v-.11a12.19,12.19,0,0,1,1.66,2.83l-.09-.06,3,.25h.09v.1c.22,1.56.44,3.2.68,4.94l0,.1-.1,0-2.82,1.06.08-.11a12.55,12.55,0,0,1-.83,3.18l0-.14,1.94,2.31.07.09-.07.09-3,4-.07.09-.11,0-2.74-1.25.15,0a12.37,12.37,0,0,1-2.84,1.66l.09-.13c-.09,1-.18,2-.26,3v.12h-.13l-4.94.68h-.12l0-.11-.52-1.41-.27-.71-.13-.35-.07-.18,0-.09,0,0v0h0l.12.1h0a12.5,12.5,0,0,1-3.18-.84l.16,0-2.32,1.93-.09.08-.1-.07-4-3-.09-.07.05-.11,1.25-2.74,0,.15a12.21,12.21,0,0,1-1.66-2.85l.12.09-3-.26h-.11l0-.12c-.23-1.71-.46-3.39-.67-4.94v-.11l.1,0,2.83-1-.09.11a12.66,12.66,0,0,1,.85-3.18l0,.13c-.68-.81-1.34-1.6-1.93-2.32l-.07-.07.06-.08,3-4,.06-.07.08,0,2.74,1.26h-.11a12.32,12.32,0,0,1,2.84-1.64l0,.08c.1-1.09.19-2.1.27-3v-.06h.06l4.95-.64h0v0c.33.92.59,1.62.76,2.11l.19.54C239.49,95.47,239.51,95.53,239.5,95.53Z"/><rect class="cls-10" x="38.74" y="80.46" width="179.65" height="124.19"/><path class="cls-4" d="M218.4,204.65c0-.67,0-48.64-.09-124.19l.09.08-179.64,0h0l.1-.1V204.65l-.1-.09,179.66.09-179.66.1h-.09v-.1c0-37.69,0-79.83,0-124.19v-.1h.12l179.64,0h.08v.08C218.43,156,218.4,204,218.4,204.65Z"/><rect class="cls-4" x="38.74" y="80.46" width="179.65" height="7.21"/><path class="cls-11" d="M43.87,83.93a1.11,1.11,0,1,1-1.11-1.11A1.11,1.11,0,0,1,43.87,83.93Z"/><path class="cls-11" d="M47.86,83.93a1.11,1.11,0,1,1-1.11-1.11A1.1,1.1,0,0,1,47.86,83.93Z"/><path class="cls-11" d="M51.85,83.93a1.11,1.11,0,1,1-1.1-1.11A1.1,1.1,0,0,1,51.85,83.93Z"/><path class="cls-2" d="M212,196.85c0-.45,0-14.83-.06-40.34l.06.06-165.85,0h0l.1-.1v40.34l-.1-.1,165.86.1L46.11,197H46V156.4h.11l165.85,0H212v.06C212,182,212,196.4,212,196.85Z"/><path class="cls-2" d="M126.67,153.12s0-.35,0-1,0-1.68,0-3c0-2.62,0-6.46,0-11.38,0-9.82,0-23.93,0-41.08l.08.08-80.19,0h0l.1-.1c0,20.2,0,39.38,0,56.47l-.09-.09,57.83,0,16.47,0h0l-16.45,0-57.89,0h-.1V96.55h.1l80.19,0h.08v.08c0,17.17,0,31.3,0,41.13,0,4.91,0,8.75,0,11.36,0,1.3,0,2.3,0,3S126.67,153.12,126.67,153.12Z"/><path class="cls-12" d="M55.15,142.44l5.77-8.35a3.71,3.71,0,0,1,5.2-.91l.81.58A3.7,3.7,0,0,0,72.58,132l2.8-8.21a3.71,3.71,0,0,1,7,0l1.35,4a3.7,3.7,0,0,0,6.88.31l1.18-2.66a3.7,3.7,0,0,1,6.44-.59h0a3.69,3.69,0,0,0,6.55-.89L106.1,120a3.7,3.7,0,0,1,7.11.38l5,22S55.32,142.26,55.15,142.44Z"/><g class="cls-13"><path d="M55.15,142.44l5.77-8.35a3.71,3.71,0,0,1,5.2-.91l.81.58A3.7,3.7,0,0,0,72.58,132l2.8-8.21a3.71,3.71,0,0,1,7,0l1.35,4a3.7,3.7,0,0,0,6.88.31l1.18-2.66a3.7,3.7,0,0,1,6.44-.59h0a3.69,3.69,0,0,0,6.55-.89L106.1,120a3.7,3.7,0,0,1,7.11.38l5,22S55.32,142.26,55.15,142.44Z"/></g><path class="cls-12" d="M55,142.66l4.69-13.73a3.61,3.61,0,0,1,6.81-.09l2.24,6.09a3.62,3.62,0,0,0,6.21,1l1.82-2.27a3.62,3.62,0,0,1,4.95-.65l4.24,3.1a3.55,3.55,0,0,0,2.13.7h5.4a3.58,3.58,0,0,1,2.13.7l4,2.93a3.61,3.61,0,0,0,5.11-.87l3.77-5.52.15-.2a3.39,3.39,0,0,1,5.64.67l4,8S55,142.4,55,142.66Z"/><path class="cls-12" d="M118.31,142.53l-4.9-4c-6.72-4.94-9.91,4.47-15.2-2.59l-1.82-2.27a3.62,3.62,0,0,0-5-.65l-2.11,1.54a11.66,11.66,0,0,1-6.91,2.26H79.67a3.55,3.55,0,0,0-2.13.7l-4,2.93c-1.65,1.21-2.79,1.37-5.43-.84,0,0-2.86-2.33-2.93-2.41a3.7,3.7,0,0,0-5.6,0,13.29,13.29,0,0,1-1,1.15l-3.79,4.18S118.31,142.27,118.31,142.53Z"/><g class="cls-13"><path class="cls-11" d="M118.31,142.53l-4.9-4c-6.72-4.94-9.91,4.47-15.2-2.59l-1.82-2.27a3.62,3.62,0,0,0-5-.65l-2.11,1.54a11.66,11.66,0,0,1-6.91,2.26H79.67a3.55,3.55,0,0,0-2.13.7l-4,2.93c-1.65,1.21-2.79,1.37-5.43-.84,0,0-2.86-2.33-2.93-2.41a3.7,3.7,0,0,0-5.6,0,13.29,13.29,0,0,1-1,1.15l-3.79,4.18S118.31,142.27,118.31,142.53Z"/></g><path class="cls-4" d="M72.4,110.83s-2.24.1-5,.1-5-.05-5-.1,2.24-.11,5-.11S72.4,110.77,72.4,110.83Z"/><rect class="cls-12" x="59.57" y="109.97" width="1.72" height="1.72"/><path class="cls-4" d="M91.31,110.83s-2.24.1-5,.1-5-.05-5-.1,2.24-.11,5-.11S91.31,110.77,91.31,110.83Z"/><rect class="cls-12" x="78.48" y="109.97" width="1.72" height="1.72"/><path class="cls-4" d="M110.22,110.83s-2.25.1-5,.1-5-.05-5-.1,2.24-.11,5-.11S110.22,110.77,110.22,110.83Z"/><rect class="cls-12" x="97.39" y="109.97" width="1.72" height="1.72"/><path class="cls-12" d="M110.47,190l4.12-5.89a1.5,1.5,0,0,1,2.11-.33l2.17,1.64a1.47,1.47,0,0,0,2.17-.44l6.26-10.85a1.48,1.48,0,0,1,2.44-.17l3.92,5a1.47,1.47,0,0,0,2.4-.12l2.86-4.49a1.48,1.48,0,0,1,2.53.06l2.36,4.08a1.48,1.48,0,0,0,2.53.06l8.07-12.65a1.47,1.47,0,0,1,2.47,0l13.33,19.94a1.49,1.49,0,0,0,2.33.17l8.09-8.92a1.5,1.5,0,0,1,2.15-.05l6.44,6.47a1.48,1.48,0,0,0,2.33-.31l11.52-20a1.48,1.48,0,0,1,2.76.74V190Z"/><path class="cls-4" d="M205.59,193.21s0,0,0-.11v-.36c0-.32,0-.8,0-1.45l0,0c-5.51,0-24.67.07-47.42.07s-41.92,0-47.42-.07l0,0c0,.65,0,1.13,0,1.45v.47s0,0,0-.11v-.36c0-.32,0-.8,0-1.45v0h0c5.5,0,24.66-.07,47.42-.07s41.91,0,47.42.07h0v0c0,.65,0,1.13,0,1.45v.47Z"/><path class="cls-4" d="M121.28,193.06s-.1-.18-.1-.41,0-.4.1-.4.1.18.1.4S121.34,193.06,121.28,193.06Z"/><path class="cls-4" d="M131.82,193.06s-.1-.18-.1-.41.05-.4.1-.4.1.18.1.4S131.88,193.06,131.82,193.06Z"/><path class="cls-4" d="M142.36,193.06c-.06,0-.1-.18-.1-.41s0-.4.1-.4.1.18.1.4S142.42,193.06,142.36,193.06Z"/><path class="cls-4" d="M152.9,193.06c-.06,0-.1-.18-.1-.41s0-.4.1-.4.1.18.1.4S153,193.06,152.9,193.06Z"/><path class="cls-4" d="M163.44,193.06c-.06,0-.11-.18-.11-.41s0-.4.11-.4.1.18.1.4S163.49,193.06,163.44,193.06Z"/><path class="cls-4" d="M174,193.06c-.05,0-.1-.18-.1-.41s0-.4.1-.4.1.18.1.4S174,193.06,174,193.06Z"/><path class="cls-4" d="M184.51,193.06s-.1-.18-.1-.41.05-.4.1-.4.1.18.1.4S184.57,193.06,184.51,193.06Z"/><path class="cls-4" d="M195.05,193.06c-.06,0-.1-.18-.1-.41s0-.4.1-.4.1.18.1.4S195.11,193.06,195.05,193.06Z"/><path class="cls-2" d="M212.49,140.18s0-.23,0-.68v-2c0-1.75,0-4.33,0-7.64,0-6.63,0-16.2,0-28l.07.07-80.18,0h0l.1-.1v38.33l-.1-.09,57.6,0,16.62,0H211l-4.42,0-16.6,0-57.66.05h-.1V101.74h.11l80.18,0h.08v.08c0,11.84,0,21.43,0,28.06,0,3.31,0,5.88,0,7.63,0,.86,0,1.52,0,2S212.49,140.18,212.49,140.18Z"/><path class="cls-2" d="M194.34,118.56H139.1a.92.92,0,0,1,0-1.84h55.24a.92.92,0,0,1,0,1.84Z"/><path class="cls-2" d="M194.34,111.27H139.1a.92.92,0,0,1,0-1.84h55.24a.92.92,0,0,1,0,1.84Z"/><path class="cls-14" d="M164.06,118.56h-25a.92.92,0,0,1,0-1.84h25a.92.92,0,0,1,0,1.84Z"/><path class="cls-4" d="M201.35,118h-.41v.52h-.3V118h-1.19v-.22l1.09-1.41h.34l-1.06,1.36h.83v-.47h.29v.47h.41Z"/><path class="cls-4" d="M203,117.92c0,.37-.27.67-.82.67a1.22,1.22,0,0,1-.78-.26l.14-.25a.92.92,0,0,0,.64.23c.33,0,.51-.15.51-.38s-.15-.39-.65-.39h-.49l.12-1.13h1.21v.27h-1l-.06.59h.24C202.78,117.27,203,117.54,203,117.92Z"/><path class="cls-4" d="M203.22,117a.51.51,0,0,1,.5-.58c.29,0,.49.23.49.58s-.2.59-.49.59A.52.52,0,0,1,203.22,117Zm.8,0c0-.26-.12-.41-.3-.41s-.3.16-.3.41.11.41.3.41S204,117.24,204,117Zm1-.57h.24l-1.47,2.15h-.23Zm-.43,1.59a.52.52,0,0,1,.5-.59.53.53,0,0,1,.5.59.52.52,0,0,1-.5.58A.51.51,0,0,1,204.58,118Zm.8,0c0-.26-.12-.42-.3-.42s-.3.16-.3.42.11.41.3.41S205.38,118.25,205.38,118Z"/><path class="cls-2" d="M194.34,125.31H139.1a.92.92,0,1,1,0-1.84h55.24a.92.92,0,0,1,0,1.84Z"/><path class="cls-14" d="M172.19,125.31h-33a.87.87,0,0,1-1-.92c0-.5.29-.92.65-.92h33a1,1,0,0,1,1,.92A.91.91,0,0,1,172.19,125.31Z"/><path class="cls-4" d="M201,123.17v.21l-.87,1.93h-.32l.85-1.88h-1v.39h-.3v-.65Z"/><path class="cls-4" d="M201.25,124.24c0-.7.37-1.1.88-1.1s.87.4.87,1.1-.37,1.1-.87,1.1S201.25,124.94,201.25,124.24Zm1.45,0c0-.55-.24-.82-.57-.82s-.57.27-.57.82.23.83.57.83S202.7,124.79,202.7,124.24Z"/><path class="cls-4" d="M203.26,123.73a.52.52,0,0,1,.5-.58.51.51,0,0,1,.5.58c0,.36-.2.59-.5.59A.53.53,0,0,1,203.26,123.73Zm.8,0c0-.25-.11-.41-.3-.41s-.3.16-.3.41.12.42.3.42S204.06,124,204.06,123.73Zm1-.56h.23l-1.46,2.14h-.24Zm-.43,1.58c0-.35.2-.59.49-.59a.52.52,0,0,1,.5.59.51.51,0,0,1-.5.58C204.83,125.33,204.63,125.1,204.63,124.75Zm.79,0c0-.26-.11-.41-.3-.41s-.3.15-.3.41.12.41.3.41S205.42,125,205.42,124.75Z"/><path class="cls-2" d="M194.34,131.91H139.1a.93.93,0,0,1,0-1.85h55.24a.93.93,0,0,1,0,1.85Z"/><path class="cls-14" d="M159.62,131.91H139.1a.93.93,0,0,1,0-1.85h20.52a.93.93,0,0,1,0,1.85Z"/><path class="cls-4" d="M201,131.26c0,.37-.26.67-.81.67a1.27,1.27,0,0,1-.79-.26l.14-.24a1,1,0,0,0,.65.23c.32,0,.51-.15.51-.39s-.16-.39-.65-.39h-.49l.11-1.12h1.21V130h-1l-.06.58h.24C200.73,130.61,201,130.88,201,131.26Z"/><path class="cls-4" d="M201.24,130.83c0-.7.37-1.1.88-1.1s.87.4.87,1.1-.37,1.1-.87,1.1S201.24,131.53,201.24,130.83Zm1.44,0c0-.55-.23-.82-.56-.82s-.58.27-.58.82.24.83.58.83S202.68,131.38,202.68,130.83Z"/><path class="cls-4" d="M203.25,130.33a.52.52,0,0,1,.5-.59c.3,0,.5.23.5.59a.51.51,0,1,1-1,0Zm.8,0c0-.26-.11-.42-.3-.42s-.3.16-.3.42.12.41.3.41S204.05,130.58,204.05,130.33Zm1-.57h.23l-1.46,2.15h-.24Zm-.44,1.58a.51.51,0,1,1,1,0,.51.51,0,1,1-1,0Zm.8,0c0-.26-.12-.41-.3-.41s-.3.15-.3.41.11.41.3.41S205.41,131.59,205.41,131.34Z"/><path class="cls-12" d="M175.67,111.27H139.1a.92.92,0,0,1,0-1.84h36.57a.92.92,0,0,1,0,1.84Z"/><path class="cls-4" d="M201.14,110.62a.7.7,0,0,1-.76.68c-.58,0-.9-.39-.9-1.07a1,1,0,0,1,1-1.13,1,1,0,0,1,.54.13l-.12.23a.78.78,0,0,0-.41-.1c-.44,0-.72.28-.72.81a.22.22,0,0,0,0,.08.72.72,0,0,1,.61-.28A.66.66,0,0,1,201.14,110.62Zm-.3,0c0-.25-.19-.41-.49-.41a.44.44,0,0,0-.49.41c0,.22.17.42.51.42A.42.42,0,0,0,200.84,110.63Z"/><path class="cls-4" d="M201.37,110.2c0-.7.37-1.1.88-1.1s.87.4.87,1.1-.37,1.1-.87,1.1S201.37,110.9,201.37,110.2Zm1.44,0c0-.55-.23-.83-.56-.83s-.57.28-.57.83.23.82.57.82S202.81,110.75,202.81,110.2Z"/><path class="cls-4" d="M203.38,109.69a.52.52,0,0,1,.5-.58.51.51,0,0,1,.5.58.52.52,0,0,1-.5.59A.53.53,0,0,1,203.38,109.69Zm.8,0c0-.26-.11-.41-.3-.41s-.3.16-.3.41.12.41.3.41S204.18,110,204.18,109.69Zm1-.57h.23L204,111.27h-.24Zm-.43,1.58c0-.35.2-.58.49-.58a.51.51,0,0,1,.5.58.52.52,0,0,1-.5.59C205,111.29,204.75,111.05,204.75,110.7Zm.79,0c0-.25-.11-.41-.3-.41s-.3.16-.3.41.12.42.3.42S205.54,111,205.54,110.7Z"/><path class="cls-2" d="M193.05,144.11c0,.06-13.52.1-30.19.1s-30.2,0-30.2-.1,13.52-.1,30.2-.1S193.05,144.05,193.05,144.11Z"/><path class="cls-2" d="M193.05,147.69c0,.06-13.52.1-30.19.1s-30.2,0-30.2-.1,13.52-.1,30.2-.1S193.05,147.64,193.05,147.69Z"/><path class="cls-2" d="M193.05,150.93c0,.06-13.52.1-30.19.1s-30.2,0-30.2-.1,13.52-.1,30.2-.1S193.05,150.87,193.05,150.93Z"/><path class="cls-2" d="M57.15,187.61h0a1.09,1.09,0,0,1-1.09-1.08V166.16a1.08,1.08,0,0,1,1.09-1.08h0a1.08,1.08,0,0,1,1.08,1.08v20.37A1.08,1.08,0,0,1,57.15,187.61Z"/><path class="cls-12" d="M57.15,187.71h0a1.09,1.09,0,0,1-1.09-1.09V173.49a1.08,1.08,0,0,1,1.09-1.08h0a1.08,1.08,0,0,1,1.08,1.08v13.13A1.08,1.08,0,0,1,57.15,187.71Z"/><path class="cls-4" d="M56.46,188.56v1.81h-.18v-1.65h-.43v-.16Z"/><path class="cls-4" d="M56.9,189.46c0-.58.3-.92.72-.92s.72.34.72.92-.3.92-.72.92S56.9,190,56.9,189.46Zm1.25,0c0-.48-.22-.75-.53-.75s-.54.27-.54.75.22.75.54.75S58.15,190,58.15,189.46Z"/><path class="cls-2" d="M61.49,187.61h0a1.09,1.09,0,0,1-1.09-1.08V166.16a1.08,1.08,0,0,1,1.09-1.08h0a1.08,1.08,0,0,1,1.08,1.08v20.37A1.08,1.08,0,0,1,61.49,187.61Z"/><path class="cls-12" d="M61.49,187.71h0a1.09,1.09,0,0,1-1.09-1.09V169.36a1.09,1.09,0,0,1,1.09-1.09h0a1.08,1.08,0,0,1,1.08,1.09v17.26A1.08,1.08,0,0,1,61.49,187.71Z"/><path class="cls-4" d="M61.23,190.2v.17H60v-.14l.75-.73a.58.58,0,0,0,.24-.45c0-.21-.14-.34-.42-.34a.62.62,0,0,0-.49.2l-.14-.11a.81.81,0,0,1,.65-.26c.36,0,.6.19.6.49a.77.77,0,0,1-.3.57l-.62.6Z"/><path class="cls-4" d="M61.45,189.46c0-.58.3-.92.72-.92s.72.34.72.92-.3.92-.72.92S61.45,190,61.45,189.46Zm1.25,0c0-.48-.21-.75-.53-.75s-.53.27-.53.75.22.75.53.75S62.7,190,62.7,189.46Z"/><path class="cls-2" d="M65.83,187.61h0a1.09,1.09,0,0,1-1.09-1.08V166.16a1.08,1.08,0,0,1,1.09-1.08h0a1.08,1.08,0,0,1,1.08,1.08v20.37A1.08,1.08,0,0,1,65.83,187.61Z"/><path class="cls-12" d="M65.83,187.71h0a1.09,1.09,0,0,1-1.09-1.09v-10a1.08,1.08,0,0,1,1.09-1.08h0a1.08,1.08,0,0,1,1.08,1.08v10A1.08,1.08,0,0,1,65.83,187.71Z"/><path class="cls-4" d="M65.54,189.85c0,.3-.22.53-.65.53a.93.93,0,0,1-.65-.23l.09-.15a.78.78,0,0,0,.56.21c.3,0,.46-.14.46-.36s-.15-.36-.49-.36h-.13v-.14l.51-.63h-.93v-.16h1.16v.13l-.51.64C65.35,189.35,65.54,189.56,65.54,189.85Z"/><path class="cls-4" d="M65.8,189.46c0-.58.31-.92.73-.92s.72.34.72.92-.31.92-.72.92S65.8,190,65.8,189.46Zm1.26,0c0-.48-.22-.75-.53-.75s-.54.27-.54.75.22.75.54.75S67.06,190,67.06,189.46Z"/><path class="cls-2" d="M70.17,187.61h0a1.09,1.09,0,0,1-1.09-1.08V166.16a1.08,1.08,0,0,1,1.09-1.08h0a1.08,1.08,0,0,1,1.08,1.08v20.37A1.09,1.09,0,0,1,70.17,187.61Z"/><path class="cls-12" d="M70.17,187.71h0a1.09,1.09,0,0,1-1.09-1.09V169.36a1.09,1.09,0,0,1,1.09-1.09h0a1.09,1.09,0,0,1,1.08,1.09v17.26A1.09,1.09,0,0,1,70.17,187.71Z"/><path class="cls-4" d="M70.17,189.89h-.36v.48h-.18v-.48h-1v-.13l1-1.2h.21l-.93,1.17h.79v-.42h.18v.42h.36Z"/><path class="cls-4" d="M70.34,189.46c0-.58.31-.92.72-.92s.73.34.73.92-.31.92-.73.92S70.34,190,70.34,189.46Zm1.26,0c0-.48-.22-.75-.54-.75s-.53.27-.53.75.22.75.53.75S71.6,190,71.6,189.46Z"/><path class="cls-2" d="M74.5,187.61h0a1.08,1.08,0,0,1-1.08-1.08V166.16a1.08,1.08,0,0,1,1.08-1.08h0a1.08,1.08,0,0,1,1.09,1.08v20.37A1.09,1.09,0,0,1,74.5,187.61Z"/><path class="cls-12" d="M74.5,187.71h0a1.08,1.08,0,0,1-1.08-1.09v-14a1.08,1.08,0,0,1,1.08-1.09h0a1.09,1.09,0,0,1,1.09,1.09v14A1.09,1.09,0,0,1,74.5,187.71Z"/><path class="cls-4" d="M74.41,189.83c0,.31-.22.55-.66.55a1,1,0,0,1-.65-.23l.09-.15a.81.81,0,0,0,.56.21c.31,0,.47-.15.47-.37s-.15-.38-.61-.38h-.38l.09-.9h1v.16h-.83l-.06.58h.24C74.2,189.3,74.41,189.51,74.41,189.83Z"/><path class="cls-4" d="M74.64,189.46c0-.58.3-.92.72-.92s.73.34.73.92-.31.92-.73.92S74.64,190,74.64,189.46Zm1.26,0c0-.48-.22-.75-.54-.75s-.53.27-.53.75.22.75.53.75S75.9,190,75.9,189.46Z"/><path class="cls-2" d="M78.84,187.61h0a1.08,1.08,0,0,1-1.08-1.08V166.16a1.08,1.08,0,0,1,1.08-1.08h0a1.08,1.08,0,0,1,1.09,1.08v20.37A1.09,1.09,0,0,1,78.84,187.61Z"/><path class="cls-12" d="M78.84,187.61h0a1.07,1.07,0,0,1-1.08-1v-10a1.11,1.11,0,0,1,1.08-1.18h0a1.09,1.09,0,0,1,1.09,1.09v10A1.09,1.09,0,0,1,78.84,187.61Z"/><path class="cls-4" d="M78.7,189.83a.56.56,0,0,1-.62.55c-.48,0-.74-.33-.74-.9s.34-.94.83-.94a.85.85,0,0,1,.43.1l-.08.15a.63.63,0,0,0-.35-.09c-.39,0-.64.25-.64.75a.71.71,0,0,0,0,.14.57.57,0,0,1,.55-.31A.55.55,0,0,1,78.7,189.83Zm-.18,0c0-.24-.18-.39-.46-.39a.42.42,0,0,0-.46.4c0,.2.16.38.48.38A.39.39,0,0,0,78.52,189.83Z"/><path class="cls-4" d="M78.91,189.46c0-.58.31-.92.73-.92s.72.34.72.92-.31.92-.72.92S78.91,190,78.91,189.46Zm1.26,0c0-.48-.22-.75-.53-.75s-.54.27-.54.75.22.75.54.75S80.17,190,80.17,189.46Z"/><path class="cls-2" d="M83.18,187.61h0a1.08,1.08,0,0,1-1.08-1.08V166.16a1.08,1.08,0,0,1,1.08-1.08h0a1.08,1.08,0,0,1,1.09,1.08v20.37A1.09,1.09,0,0,1,83.18,187.61Z"/><path class="cls-12" d="M83.18,187.71h0a1.08,1.08,0,0,1-1.08-1.09v-18.3a1.08,1.08,0,0,1,1.08-1.08h0a1.08,1.08,0,0,1,1.09,1.08v18.3A1.09,1.09,0,0,1,83.18,187.71Z"/><path class="cls-4" d="M83,188.56v.13l-.76,1.68H82l.75-1.65h-.93v.34h-.19v-.5Z"/><path class="cls-4" d="M83.14,189.46c0-.58.31-.92.73-.92s.72.34.72.92-.31.92-.72.92S83.14,190,83.14,189.46Zm1.26,0c0-.48-.22-.75-.53-.75s-.54.27-.54.75.22.75.54.75S84.4,190,84.4,189.46Z"/><path class="cls-2" d="M87.52,187.61h0a1.08,1.08,0,0,1-1.08-1.08V166.16a1.08,1.08,0,0,1,1.08-1.08h0a1.08,1.08,0,0,1,1.09,1.08v20.37A1.09,1.09,0,0,1,87.52,187.61Z"/><path class="cls-12" d="M87.52,187.71h0a1.08,1.08,0,0,1-1.08-1.09v-8a1.08,1.08,0,0,1,1.08-1.08h0a1.08,1.08,0,0,1,1.09,1.08v8A1.09,1.09,0,0,1,87.52,187.71Z"/><path class="cls-4" d="M87.31,189.86c0,.32-.28.52-.71.52s-.7-.2-.7-.52a.45.45,0,0,1,.35-.44A.41.41,0,0,1,86,189c0-.3.25-.48.63-.48s.64.18.64.48a.4.4,0,0,1-.29.4A.45.45,0,0,1,87.31,189.86Zm-.2,0c0-.22-.19-.36-.51-.36s-.51.14-.51.36.19.36.51.36S87.11,190.09,87.11,189.86Zm-.51-.51c.28,0,.45-.13.45-.32s-.18-.33-.45-.33-.44.12-.44.32S86.32,189.35,86.6,189.35Z"/><path class="cls-4" d="M87.56,189.46c0-.58.31-.92.72-.92s.73.34.73.92-.31.92-.73.92S87.56,190,87.56,189.46Zm1.26,0c0-.48-.22-.75-.54-.75s-.53.27-.53.75.22.75.53.75S88.82,190,88.82,189.46Z"/><path class="cls-2" d="M91.86,187.61h0a1.08,1.08,0,0,1-1.08-1.08V166.16a1.08,1.08,0,0,1,1.08-1.08h0A1.08,1.08,0,0,1,93,166.16v20.37A1.09,1.09,0,0,1,91.86,187.61Z"/><path class="cls-12" d="M91.86,187.61h0a1.07,1.07,0,0,1-1.08-1v-2.79a1.1,1.1,0,0,1,1.08-1.18h0A1.08,1.08,0,0,1,93,183.73v2.8A1.09,1.09,0,0,1,91.86,187.61Z"/><path class="cls-4" d="M91.53,189.45c0,.61-.33.93-.82.93a.81.81,0,0,1-.43-.1l.07-.15a.59.59,0,0,0,.35.09c.39,0,.65-.25.65-.74,0,0,0-.1,0-.15a.58.58,0,0,1-.56.31.55.55,0,0,1-.61-.54.57.57,0,0,1,.62-.56C91.27,188.54,91.53,188.87,91.53,189.45Zm-.25-.36c0-.2-.17-.39-.48-.39a.39.39,0,0,0-.44.39c0,.24.17.39.45.39A.42.42,0,0,0,91.28,189.09Z"/><path class="cls-4" d="M91.8,189.46c0-.58.3-.92.72-.92s.73.34.73.92-.31.92-.73.92S91.8,190,91.8,189.46Zm1.26,0c0-.48-.22-.75-.54-.75s-.53.27-.53.75.22.75.53.75S93.06,190,93.06,189.46Z"/><path class="cls-2" d="M96.2,187.61h0a1.09,1.09,0,0,1-1.09-1.08V166.16a1.08,1.08,0,0,1,1.09-1.08h0a1.08,1.08,0,0,1,1.09,1.08v20.37A1.09,1.09,0,0,1,96.2,187.61Z"/><path class="cls-12" d="M96.2,187.61h0a1.08,1.08,0,0,1-1.09-1v-10a1.12,1.12,0,0,1,1.09-1.18h0a1.09,1.09,0,0,1,1.09,1.09v10A1.09,1.09,0,0,1,96.2,187.61Z"/><path class="cls-4" d="M94.64,188.56v1.81h-.18v-1.65H94v-.16Z"/><path class="cls-4" d="M95.08,189.46c0-.58.3-.92.72-.92s.72.34.72.92-.3.92-.72.92S95.08,190,95.08,189.46Zm1.25,0c0-.48-.22-.75-.53-.75s-.54.27-.54.75.22.75.54.75S96.33,190,96.33,189.46Z"/><path class="cls-4" d="M96.79,189.46c0-.58.3-.92.72-.92s.72.34.72.92-.3.92-.72.92S96.79,190,96.79,189.46Zm1.25,0c0-.48-.22-.75-.53-.75s-.53.27-.53.75.21.75.53.75S98,190,98,189.46Z"/><path class="cls-2" d="M105.19,191.87s-.1-6.71-.1-15,0-15,.1-15,.1,6.7.1,15S105.25,191.87,105.19,191.87Z"/><path class="cls-4" d="M130.44,163.88c0,.06-4.13.1-9.22.1s-9.23,0-9.23-.1,4.13-.1,9.23-.1S130.44,163.83,130.44,163.88Z"/><path class="cls-15" d="M110.47,190l4.12-5.89a1.5,1.5,0,0,1,2.11-.33l2.17,1.64a1.47,1.47,0,0,0,2.17-.44l6.26-10.85a1.48,1.48,0,0,1,2.44-.17l3.92,5a1.47,1.47,0,0,0,2.4-.12l2.86-4.49a1.48,1.48,0,0,1,2.53.06l2.36,4.08a1.48,1.48,0,0,0,2.53.06l8.07-12.65a1.47,1.47,0,0,1,2.47,0l13.33,19.94a1.49,1.49,0,0,0,2.33.17l8.09-8.92a1.5,1.5,0,0,1,2.15-.05l6.44,6.47a1.48,1.48,0,0,0,2.33-.31l11.52-20a1.48,1.48,0,0,1,2.76.74V190Z"/><path class="cls-15" d="M36.56,192.47a18.26,18.26,0,0,1-1.92-36.41,18.27,18.27,0,0,1,20.09,16.21h0a18.28,18.28,0,0,1-16.21,20.1A18.51,18.51,0,0,1,36.56,192.47Zm0-33.78a15.76,15.76,0,0,0-1.68.09,15.49,15.49,0,1,0,1.68-.09Z"/><path class="cls-15" d="M63.63,209.34a1.38,1.38,0,0,1-1.05-.48L45.32,188.6a1.37,1.37,0,0,1,2.08-1.77l17.27,20.26a1.38,1.38,0,0,1-.16,1.93A1.35,1.35,0,0,1,63.63,209.34Z"/><path class="cls-12" d="M229,208.2c2.81,1,6.47.11,8.88-1.65a22.4,22.4,0,0,0,5.66-6.82,9.87,9.87,0,0,0,1.5-3.48,3.73,3.73,0,0,0-1.07-3.48c-1.51-1.27-3.82-.62-5.54.35A19.12,19.12,0,0,0,229,208.2"/><path class="cls-12" d="M232,214.93c1.69,2.23,4.59,3.22,7.38,3.35a20.42,20.42,0,0,0,8.16-1.65,3.53,3.53,0,0,0,2.31-1.82,2.34,2.34,0,0,0-.5-2.15,4.81,4.81,0,0,0-1.88-1.28,12.89,12.89,0,0,0-8.21-.44,20.22,20.22,0,0,0-7.26,4"/><path class="cls-12" d="M229,196.17c2.32,0,4.08-2,5.14-4.07a15,15,0,0,0,1.38-9.4,4.08,4.08,0,0,0-1.72-3,3.07,3.07,0,0,0-3.4.63,7,7,0,0,0-1.76,3.18,21.26,21.26,0,0,0,.36,12.7"/><path class="cls-12" d="M221.32,209a28,28,0,0,0,2.29-22.48c-.38-1.21-1.1-2.6-2.37-2.68s-2.28,1.48-2.67,2.83c-1.36,4.74-1.07,9.78-.77,14.71a10.46,10.46,0,0,0,3.52,7.62"/><path class="cls-12" d="M217.2,211.81a16.25,16.25,0,0,0-9.62-10.21c-1.06-.39-2.4-.62-3.18.19s-.54,2.11,0,3.09a15.35,15.35,0,0,0,3.39,4.11,13.84,13.84,0,0,0,3.88,2.89c1.48.65,4.21.81,5.57-.07"/><path class="cls-4" d="M241.79,194.47l-.07.06-.21.16-.83.62-.61.45-.69.56c-.49.41-1.07.86-1.65,1.41l-.94.85c-.32.3-.63.63-1,1-.68.65-1.34,1.42-2,2.21a47.27,47.27,0,0,0-4.09,5.57,46.26,46.26,0,0,0-3.16,6.16c-.39,1-.78,1.92-1.07,2.83-.14.45-.3.87-.42,1.3l-.35,1.21c-.23.77-.37,1.49-.52,2.11-.06.31-.14.6-.19.87s-.09.52-.13.74l-.18,1-.06.27a.66.66,0,0,1,0,.09.67.67,0,0,1,0-.1l0-.26c0-.25.09-.6.15-1,0-.23.07-.47.11-.74s.12-.57.18-.88c.14-.63.27-1.35.5-2.12q.15-.59.33-1.23c.12-.42.27-.85.42-1.3.27-.91.66-1.85,1.05-2.85a45.84,45.84,0,0,1,3.16-6.18,45,45,0,0,1,4.12-5.59c.71-.8,1.38-1.56,2.07-2.21.34-.34.66-.67,1-1l.95-.85c.59-.55,1.18-1,1.68-1.39.25-.2.48-.39.7-.55l.61-.43.86-.6.22-.15Z"/><path class="cls-4" d="M247,213.18l-.27-.05c-.18,0-.43-.1-.77-.15a20.11,20.11,0,0,0-2.87-.35,20.92,20.92,0,0,0-17,7.07,21.72,21.72,0,0,0-1.77,2.29c-.2.28-.33.51-.43.66a1.37,1.37,0,0,1-.16.22,1,1,0,0,1,.12-.24c.1-.16.22-.39.41-.68a19.06,19.06,0,0,1,1.73-2.33,20.63,20.63,0,0,1,17.13-7.13,20.06,20.06,0,0,1,2.87.41c.34.07.6.15.77.2A.91.91,0,0,1,247,213.18Z"/><path class="cls-4" d="M232.4,182.35s0,0,0,.11l-.06.3-.26,1.16c-.23,1-.58,2.47-1,4.27-.87,3.59-2.14,8.54-3.47,14-.65,2.74-1.25,5.36-1.76,7.75s-.93,4.55-1.25,6.37c-.17.91-.3,1.74-.42,2.46s-.23,1.35-.3,1.86-.14.9-.18,1.18l-.06.3c0,.07,0,.11,0,.11a.87.87,0,0,1,0-.11l0-.31.15-1.18c.06-.51.15-1.14.26-1.86s.23-1.56.4-2.47c.3-1.82.72-4,1.21-6.38s1.1-5,1.75-7.76c1.33-5.49,2.62-10.43,3.52-14,.45-1.78.82-3.23,1.08-4.24l.29-1.16.08-.29C232.38,182.39,232.39,182.35,232.4,182.35Z"/><path class="cls-4" d="M223.29,221.69s0,0,0-.08l0-.24-.2-.94c-.17-.82-.39-2-.64-3.47-.51-2.94-1.12-7-1.49-11.55-.18-2.27-.28-4.44-.32-6.41s0-3.75.05-5.24c0-.74.06-1.42.1-2s.07-1.1.11-1.51.06-.72.08-1l0-.25a.73.73,0,0,1,0-.08v.34c0,.23,0,.55-.05,1s-.06.93-.08,1.52-.06,1.26-.07,2c-.05,1.49-.05,3.26,0,5.23s.16,4.13.34,6.39c.37,4.53,1,8.61,1.43,11.55.23,1.47.44,2.66.58,3.48l.16.94,0,.25A.45.45,0,0,1,223.29,221.69Z"/><path class="cls-4" d="M223.58,222.55a1.17,1.17,0,0,1-.1-.23l-.26-.68-.19-.49-.25-.57-.3-.66c-.1-.23-.23-.46-.36-.72l-.4-.78-.48-.83c-.32-.58-.73-1.16-1.13-1.79a41,41,0,0,0-3-3.82,46.19,46.19,0,0,0-3.43-3.43c-.57-.48-1.09-1-1.62-1.37l-.75-.6-.71-.52c-.45-.34-.87-.63-1.25-.88s-.69-.47-1-.63l-.61-.39-.21-.14a1,1,0,0,1,.23.11l.63.36c.28.15.61.36,1,.6s.81.53,1.27.86l.72.52.76.59c.53.4,1.06.88,1.64,1.36a46.28,46.28,0,0,1,3.45,3.43,41.19,41.19,0,0,1,3,3.85c.4.64.81,1.22,1.12,1.81q.24.44.48.84l.39.79c.12.26.25.5.35.73l.28.67c.09.2.17.4.24.58l.17.49.23.7A1.21,1.21,0,0,1,223.58,222.55Z"/><path class="cls-4" d="M240.32,202.3a12.45,12.45,0,0,1-1.25.07,22.8,22.8,0,0,0-3,.36,24.54,24.54,0,0,0-2.92.76c-.73.24-1.18.42-1.19.39a1.28,1.28,0,0,1,.3-.16c.2-.09.49-.22.85-.35a17.35,17.35,0,0,1,2.93-.82,17,17,0,0,1,3-.31c.39,0,.71,0,.92,0S240.32,202.28,240.32,202.3Z"/><path class="cls-4" d="M243.31,216.91a11,11,0,0,0-1.63-2.46,10.7,10.7,0,0,0-2.34-1.81,2.91,2.91,0,0,1,.81.35,7.21,7.21,0,0,1,1.67,1.33,7.06,7.06,0,0,1,1.2,1.76A2.65,2.65,0,0,1,243.31,216.91Z"/><path class="cls-4" d="M233.11,187.83s-.69.77-1.49,1.75-1.36,1.84-1.41,1.81a8.12,8.12,0,0,1,1.26-1.93A8.56,8.56,0,0,1,233.11,187.83Z"/><path class="cls-4" d="M230.71,183.7a6.47,6.47,0,0,1,.36,1.56,7.09,7.09,0,0,1,.18,1.6,7.09,7.09,0,0,1-.36-1.57A7,7,0,0,1,230.71,183.7Z"/><path class="cls-4" d="M223.29,196.68a18.09,18.09,0,0,1-1.16,2.45,18.69,18.69,0,0,1-1.33,2.35A22,22,0,0,1,222,199,20.14,20.14,0,0,1,223.29,196.68Z"/><path class="cls-4" d="M218.88,192.27a12.37,12.37,0,0,1,1,1.77,11.75,11.75,0,0,1,.82,1.85,20.81,20.81,0,0,1-1.8-3.62Z"/><path class="cls-4" d="M212.39,207.35c0,.06-.8-.1-1.79-.16s-1.78,0-1.78-.09a5.14,5.14,0,0,1,1.8-.1A5.44,5.44,0,0,1,212.39,207.35Z"/><path class="cls-4" d="M216.82,220.68,219,232.3a1.62,1.62,0,0,0,1.6,1.32h6.52a1.63,1.63,0,0,0,1.6-1.36l1.92-11.58Z"/><polygon class="cls-14" points="217.54 224.46 230.01 224.46 230.67 220.68 216.82 220.68 217.54 224.46"/><polygon class="cls-10" points="217.54 224.46 217.8 225.83 229.82 225.83 230.01 224.46 217.54 224.46"/><path class="cls-12" d="M176.51,222.54l.2,7.1s7.28,2.18,7.44,3.49L170.4,234l-.76-11Z"/><path class="cls-2" d="M172.42,229.32a.56.56,0,0,0-.35.66.53.53,0,0,0,.66.35.58.58,0,0,0,.36-.7.55.55,0,0,0-.72-.29"/><g class="cls-16"><path class="cls-11" d="M170.4,234l0-1.12,13.2-.42s.63.23.58.66Z"/></g><path class="cls-4" d="M176.93,229.56c0,.06-.34.12-.65.35s-.48.53-.54.51,0-.42.4-.7S176.94,229.49,176.93,229.56Z"/><path class="cls-4" d="M178.41,230.06c0,.06-.27.2-.48.5s-.25.6-.32.6-.14-.38.13-.74S178.4,230,178.41,230.06Z"/><path class="cls-4" d="M179.34,231.73c-.06,0-.18-.31,0-.69s.45-.54.49-.49-.15.27-.27.58S179.4,231.72,179.34,231.73Z"/><path class="cls-4" d="M176.7,227.94c0,.07-.34,0-.71,0s-.67.19-.71.14.23-.32.68-.37S176.73,227.89,176.7,227.94Z"/><path class="cls-4" d="M176.64,226.51a1.23,1.23,0,0,1-.69,0,2.88,2.88,0,0,1-.74-.17,3,3,0,0,1-.41-.19.78.78,0,0,1-.22-.15.3.3,0,0,1-.05-.35.35.35,0,0,1,.29-.17.72.72,0,0,1,.26,0,1.52,1.52,0,0,1,.43.12,2.62,2.62,0,0,1,.67.37c.33.28.46.52.44.53s-.2-.17-.54-.39a2.38,2.38,0,0,0-.64-.31,2.34,2.34,0,0,0-.4-.1c-.15,0-.27,0-.31.05s0,0,0,.07a.64.64,0,0,0,.16.11l.38.19a4,4,0,0,0,.68.21A6.43,6.43,0,0,1,176.64,226.51Z"/><path class="cls-4" d="M176.55,226.61s-.17-.22-.22-.65a2,2,0,0,1,0-.76,2.39,2.39,0,0,1,.14-.43c.08-.14.16-.33.42-.37a.3.3,0,0,1,.3.17,1,1,0,0,1,.09.25,1.81,1.81,0,0,1,0,.46,1.61,1.61,0,0,1-.25.73c-.25.37-.52.47-.53.45a5.71,5.71,0,0,0,.39-.53,1.64,1.64,0,0,0,.17-.66,1.09,1.09,0,0,0,0-.4c0-.15-.09-.26-.14-.24s-.18.12-.23.24a3.73,3.73,0,0,0-.15.38,2.28,2.28,0,0,0-.08.7C176.5,226.35,176.59,226.6,176.55,226.61Z"/><path class="cls-12" d="M147.41,222.23l-.83,9.12-2.73,7a.93.93,0,0,0,.59,1.23h0a1,1,0,0,0,.85-.14c1.54-1.18,7.18-5.52,7.21-6.19s1.51-9.57,1.51-9.57Z"/><g class="cls-16"><path class="cls-11" d="M144.44,239.61l8.13-7,0,.39a1.45,1.45,0,0,1-.43.87c-.66.61-2.51,2.27-6.78,5.55a.93.93,0,0,1-.87.14Z"/></g><g class="cls-16"><path class="cls-11" d="M151,229.51a.58.58,0,0,0-.24.72.56.56,0,0,0,.71.25.6.6,0,0,0,.25-.77.57.57,0,0,0-.76-.17"/></g><path class="cls-4" d="M147,235.87a2.65,2.65,0,0,0-.71-.79,2.59,2.59,0,0,0-1-.32s.12-.08.34-.09a1.42,1.42,0,0,1,.79.24,1.48,1.48,0,0,1,.55.62C147,235.73,147,235.87,147,235.87Z"/><path class="cls-4" d="M146.19,237c-.05,0-.31-.3-.76-.48a8.73,8.73,0,0,0-.88-.22,1,1,0,0,1,.95,0C146,236.57,146.24,237,146.19,237Z"/><path class="cls-4" d="M148.36,234.45a9.07,9.07,0,0,0-1.13-.82,8.73,8.73,0,0,0-1.31-.47,2.09,2.09,0,0,1,1.41.29A2.11,2.11,0,0,1,148.36,234.45Z"/><path class="cls-4" d="M148.84,231.7c0,.05-.51-.22-1.16-.32s-1.19,0-1.2,0a1.74,1.74,0,0,1,1.23-.14A1.79,1.79,0,0,1,148.84,231.7Z"/><path class="cls-4" d="M149.15,229a4.56,4.56,0,0,0-1.2-.36,5.24,5.24,0,0,0-1.24.16s.1-.12.32-.22a2.14,2.14,0,0,1,.94-.14,2.07,2.07,0,0,1,.9.29C149.07,228.89,149.17,229,149.15,229Z"/><path class="cls-4" d="M148,228.16a.81.81,0,0,1,0-.34,2.46,2.46,0,0,1,.38-.87,1.06,1.06,0,0,1,.51-.46.4.4,0,0,1,.42.13.61.61,0,0,1,.09.43,1.32,1.32,0,0,1-1.29,1.09,1.53,1.53,0,0,1-1.41-1,.59.59,0,0,1,0-.45.4.4,0,0,1,.41-.15,1.26,1.26,0,0,1,.56.38,2.61,2.61,0,0,1,.54.78.76.76,0,0,1,.11.33,4.54,4.54,0,0,0-.74-1,1.22,1.22,0,0,0-.5-.32.2.2,0,0,0-.23.08.41.41,0,0,0,0,.29,1.41,1.41,0,0,0,1.24.83,1.16,1.16,0,0,0,1.11-.91.42.42,0,0,0-.06-.3.21.21,0,0,0-.22-.08.9.9,0,0,0-.44.38A3.61,3.61,0,0,0,148,228.16Z"/><polygon class="cls-4" points="145.33 157.06 144.79 228.19 154.79 228.83 156.9 169.41 168.89 228.5 177.98 227.54 168.31 157.05 145.33 157.06"/><path class="cls-17" d="M157.5,99.31A6.08,6.08,0,0,0,151,105c-.17,2.81-.32,5.86-.3,7.39a4,4,0,0,0,3.33,3.81s-.08,1-.17,2.18A4.34,4.34,0,0,0,158,123h0a4.34,4.34,0,0,0,4.53-4.14l.59-13.26a6.06,6.06,0,0,0-5.58-6.32Z"/><path class="cls-18" d="M154,116.14a7.64,7.64,0,0,0,4.29-1.22A4.06,4.06,0,0,1,154,117Z"/><path class="cls-17" d="M162.78,106.76c.05,0,2.26-.67,2.19,1.58a1.69,1.69,0,0,1-2.32,1.65C162.65,109.93,162.78,106.76,162.78,106.76Z"/><path class="cls-18" d="M163.36,109.16s0,0,.11.06a.39.39,0,0,0,.29,0,1,1,0,0,0,.48-.86,1.43,1.43,0,0,0-.09-.56c-.07-.17-.17-.29-.29-.31a.19.19,0,0,0-.23.1c0,.06,0,.1,0,.11a.14.14,0,0,1,0-.13.24.24,0,0,1,.09-.14.33.33,0,0,1,.22,0,.55.55,0,0,1,.4.36,1.42,1.42,0,0,1,.12.63,1,1,0,0,1-.61,1,.37.37,0,0,1-.35-.07A.16.16,0,0,1,163.36,109.16Z"/><path class="cls-4" d="M151.81,107.08a.47.47,0,0,0,.45.48.46.46,0,0,0,.49-.43.47.47,0,0,0-.46-.47A.44.44,0,0,0,151.81,107.08Z"/><path class="cls-4" d="M151.82,106.16c.06.06.42-.2.92-.2s.88.25.93.19,0-.14-.19-.25a1.28,1.28,0,0,0-.75-.23,1.22,1.22,0,0,0-.73.23C151.84,106,151.79,106.13,151.82,106.16Z"/><path class="cls-4" d="M156.78,107.08a.48.48,0,0,0,.46.48.45.45,0,1,0,0-.9A.45.45,0,0,0,156.78,107.08Z"/><path class="cls-4" d="M156.79,106.26c.06.06.42-.21.93-.21s.87.26.93.2,0-.14-.2-.26a1.27,1.27,0,0,0-.74-.23,1.25,1.25,0,0,0-.74.24C156.82,106.12,156.77,106.23,156.79,106.26Z"/><path class="cls-4" d="M155,110a3,3,0,0,0-.82-.15c-.13,0-.26,0-.28-.13a.69.69,0,0,1,.09-.38l.38-1a17,17,0,0,0,.86-2.58,16.82,16.82,0,0,0-1.06,2.5c-.13.35-.25.68-.37,1a.78.78,0,0,0-.07.51.38.38,0,0,0,.22.19l.22,0A3.63,3.63,0,0,0,155,110Z"/><path class="cls-4" d="M156.45,110.36c-.09,0-.09.54-.56.93s-1,.33-1.06.41.14.11.38.11a1.38,1.38,0,0,0,.89-.31,1.21,1.21,0,0,0,.43-.78C156.55,110.49,156.48,110.35,156.45,110.36Z"/><path class="cls-4" d="M156.66,104.27c.05.14.56.07,1.15.15s1.08.23,1.16.11-.05-.19-.25-.33a1.92,1.92,0,0,0-.85-.29,1.9,1.9,0,0,0-.9.1C156.75,104.1,156.64,104.21,156.66,104.27Z"/><path class="cls-4" d="M152,104.7c.09.11.43,0,.85,0s.78.07.86,0,0-.17-.18-.28a1.13,1.13,0,0,0-.69-.19,1.28,1.28,0,0,0-.69.23C152,104.52,152,104.64,152,104.7Z"/><path class="cls-4" d="M163,106.66a4.36,4.36,0,0,1-.06,1.08,1.16,1.16,0,0,1-.58.82,1.21,1.21,0,0,1-1.52-.73,3.69,3.69,0,0,1-.13-1.87,8.92,8.92,0,0,0,0-2.58,3.72,3.72,0,0,0-1.23-2.21,2.35,2.35,0,0,0-2.43-.34,11.68,11.68,0,0,0-1.28.94,2,2,0,0,1-1.36.34,1.25,1.25,0,0,1-1-.87,1.38,1.38,0,0,1,.53-1.38,3,3,0,0,1,1.44-.57,7.67,7.67,0,0,1,4.27.33,5.58,5.58,0,0,1,3.1,2.88,7,7,0,0,1,.38,4.16"/><path class="cls-17" d="M117.18,123.9l4.8,1,6.6,4.2-2.25,4.29a11.63,11.63,0,0,1-3-1.25,2.71,2.71,0,0,0-1.43-.66s0,1.06-.76.88-2.14-.42-1.91-1.55a.87.87,0,0,1-.57-.95s-.66-.05-.48-1.15a2.45,2.45,0,0,1,3.16-2.12c.11,0,.26-.19.07-.27l-3.39-.8S115.9,124.66,117.18,123.9Z"/><path class="cls-18" d="M119.55,128.63a3.38,3.38,0,0,1,.8.19,6.92,6.92,0,0,1,.86.3.72.72,0,0,1,.39.44.6.6,0,0,1-.23.6,1.41,1.41,0,0,1-1.13.15,7.31,7.31,0,0,1-.89-.18,2.42,2.42,0,0,1-.77-.31,6.79,6.79,0,0,1,.81.17c.24,0,.54.1.87.14a4.36,4.36,0,0,0,.51,0,.82.82,0,0,0,.47-.15.42.42,0,0,0,.17-.4.59.59,0,0,0-.29-.33c-.27-.14-.59-.22-.82-.32A3.77,3.77,0,0,1,119.55,128.63Z"/><path class="cls-18" d="M120.72,128c0,.06-.3.06-.58.25s-.41.43-.47.41,0-.37.37-.59S120.74,128,120.72,128Z"/><path class="cls-18" d="M121.22,130.11s.06,0,.12.07.08.2.1.32a.6.6,0,0,1-.76.7,6.23,6.23,0,0,1-1.05-.21c-.27-.09-.42-.18-.4-.21s.17,0,.43.07.64.09,1,.15a.49.49,0,0,0,.46-.11.55.55,0,0,0,.14-.37c0-.15,0-.24,0-.3S121.21,130.12,121.22,130.11Z"/><path class="cls-18" d="M121.19,131s.09-.07.23,0a.85.85,0,0,1,.43.34.6.6,0,0,1,.05.57c0,.13-.1.2-.13.19s0-.1,0-.22a.7.7,0,0,0-.07-.42,1.28,1.28,0,0,0-.33-.33C121.27,131,121.19,131,121.19,131Z"/><path class="cls-17" d="M124.88,128.51l-2.32-.09-2.43.47s-.2.44.92.74a5.54,5.54,0,0,0,2.17.11,5,5,0,0,0,2.31,1.8"/><path class="cls-18" d="M125.53,131.54a.87.87,0,0,1-.21,0,2.61,2.61,0,0,1-.57-.24,5.35,5.35,0,0,1-1.6-1.47l.09,0a4.93,4.93,0,0,1-2.67-.25,1.28,1.28,0,0,1-.38-.24.44.44,0,0,1-.15-.48v0h.06l2.43-.46h0l1.69.11a3.05,3.05,0,0,1,.63.07,3.15,3.15,0,0,1-.63,0l-1.69,0h0l-2.43.49.07-.06a.29.29,0,0,0,.11.26,1.16,1.16,0,0,0,.33.2,5.09,5.09,0,0,0,2.55.26h.05l0,.05a5.59,5.59,0,0,0,1.51,1.48A8,8,0,0,0,125.53,131.54Z"/><path class="cls-18" d="M122.05,127.15s-.25-.05-.42-.29-.19-.48-.14-.49.16.17.31.37S122.08,127.11,122.05,127.15Z"/><path class="cls-3" d="M147.49,157.61a27.49,27.49,0,0,0,13.92,1.68L165.26,120l-2.73-2.1-6.3,4.68-2.16-4.51L149,125.36Z"/><path class="cls-4" d="M154.11,159.51s0,0,0-.1l0-.28-.15-1.07c0-.46-.07-1-.11-1.7s0-1.43-.06-2.26c0-3.36.21-8,.58-13.08s.83-9.71,1.21-13c.18-1.67.35-3,.48-3.94.06-.46.12-.82.16-1.07l.05-.27a.65.65,0,0,1,0-.1v.1l0,.28-.12,1.07c-.1,1-.25,2.29-.42,3.94-.34,3.34-.77,7.94-1.15,13s-.62,9.72-.63,13.07c0,.83,0,1.59,0,2.25l.08,1.71c0,.45.08.81.11,1.07l0,.28Z"/><path class="cls-12" d="M159.41,165.29s-2.93-30.7-1.11-34.13c1.41-2.65,3.59-8.2,4.5-10.56a2.82,2.82,0,0,0-.05-2.19l-.22-.49,2.73,2.1,5.62,3-3.39,26,3.84,13.2Z"/><g class="cls-13"><path d="M158.66,156.4c2.38-.5,1.35.89,3.77.54,1.3-.19,1.37-.95,2.44-1.72a7.41,7.41,0,0,1,4-1.37l-.54-1.84-10,.37Z"/></g><path class="cls-12" d="M144.9,124.52l1,24.52-2,13.73,4.92,1.82L151,126.66a10.25,10.25,0,0,1,.92-4.08l1.93-4.21-6.52,2.23Z"/><path class="cls-12" d="M170.88,123a12.61,12.61,0,0,1,3.77,6.24c.5,2.61,2,11.78,2.4,16.48a5.54,5.54,0,0,1-4.7,6l-.13,0c-4.46.61-12-.23-12-.23l1.31-5.7s6.63-1,7.82-1.76l-1.58-10.58S169.11,123.34,170.88,123Z"/><path class="cls-12" d="M129,128.25l10.86,6.88s3.91-11.49,6.42-14.19l3-1-2.75,22a4.45,4.45,0,0,1-2,3h0a4.46,4.46,0,0,1-5.24-.28L126,133.93Z"/><path class="cls-4" d="M171.37,147.65a4.88,4.88,0,0,1-.07-.64,3.75,3.75,0,0,0-.48-1.43,3.7,3.7,0,0,0-1-1.14c-.31-.24-.53-.36-.51-.39a1.51,1.51,0,0,1,.6.27,3.46,3.46,0,0,1,1.53,2.68A1.39,1.39,0,0,1,171.37,147.65Z"/><path class="cls-4" d="M170.21,148.41a8.59,8.59,0,0,0,0-2.31,7.86,7.86,0,0,0-.86-2.14,1.67,1.67,0,0,1,.44.54,4.48,4.48,0,0,1,.62,1.56,5,5,0,0,1,0,1.68A2,2,0,0,1,170.21,148.41Z"/><path class="cls-4" d="M170.12,124.11a9,9,0,0,0-1.19,1.18,7.48,7.48,0,0,0-1.44,3.7,15.45,15.45,0,0,0,.14,4c.07.49.13.89.18,1.22a1.44,1.44,0,0,1,.05.46,2.14,2.14,0,0,1-.12-.44c-.07-.28-.16-.7-.25-1.21a14.24,14.24,0,0,1-.21-4.08,7.34,7.34,0,0,1,1.54-3.77,4.86,4.86,0,0,1,.91-.86A1.39,1.39,0,0,1,170.12,124.11Z"/><g class="cls-13"><path d="M169.47,144a3.6,3.6,0,0,1,.79,2.19,6.56,6.56,0,0,1-.37,2.32.5.5,0,0,0,0,.43.34.34,0,0,0,.49,0,1,1,0,0,0,.24-.5c-.09.1,0,.28.19.28a.47.47,0,0,0,.32-.25,2.55,2.55,0,0,0,.09-2.33,6.66,6.66,0,0,0-1.4-2"/></g><path class="cls-4" d="M142.08,139.43a8.79,8.79,0,0,1-1.33-2.05,9,9,0,0,1-.88-2.28c.06,0,.45,1,1.07,2.19S142.13,139.39,142.08,139.43Z"/><path class="cls-4" d="M140.56,140.25a3.15,3.15,0,0,1-.27-.73,16.86,16.86,0,0,1-.43-1.83,15.48,15.48,0,0,1-.25-1.87,2.57,2.57,0,0,1,0-.79c.06,0,.19,1.18.46,2.62S140.62,140.24,140.56,140.25Z"/><path class="cls-4" d="M145.88,127.61c.05,0,.1,4.79.1,10.71s0,10.72-.1,10.72-.1-4.8-.1-10.72S145.82,127.61,145.88,127.61Z"/><path class="cls-4" d="M152.49,118.83a2.07,2.07,0,0,1-.13.19l-.39.53a22.93,22.93,0,0,0-1.31,2,12.58,12.58,0,0,0-1.4,3.31c-.12.66-.19,1.39-.3,2.13-.33.78.44,1.29,1.07,1.71l.15.11-.17.07a3.27,3.27,0,0,0-.64.41c-.28.21-.55.45-.79.67l0-.08c.13,1.55.39,3,.57,4.34l.49,3.51c.13,1,.24,1.77.32,2.35l.07.64a1.89,1.89,0,0,1,0,.22.64.64,0,0,1-.06-.21l-.11-.64c-.09-.57-.22-1.36-.37-2.34s-.34-2.18-.54-3.5-.46-2.78-.59-4.36v-.05l0,0q.38-.34.81-.69a3.48,3.48,0,0,1,.69-.43l0,.18a4.61,4.61,0,0,1-.94-.76,1.15,1.15,0,0,1-.28-.56,1,1,0,0,1,0-.17l0-.14,0-.28c.11-.74.19-1.45.33-2.14a9.24,9.24,0,0,1,.65-1.84,14.74,14.74,0,0,1,.8-1.5,18,18,0,0,1,1.37-2,6.39,6.39,0,0,1,.42-.51A.84.84,0,0,1,152.49,118.83Z"/><path class="cls-4" d="M164.52,119.55s0,0,.06.16a4.48,4.48,0,0,1,.09.49,6.72,6.72,0,0,1,0,1.81,18.51,18.51,0,0,1-.59,2.62,22.77,22.77,0,0,1-1.11,3.09c-.43,1-.88,1.86-1.3,2.68l0,0h-.05l-.94.19.05-.15.61.72,0,0,0,.05c-.56.89-1,1.63-1.36,2.19l-.39.6-.15.2a1.15,1.15,0,0,1,.1-.23l.35-.62,1.31-2.23v.1l-.62-.71-.1-.12.15,0,.94-.2-.07.05c.41-.82.86-1.72,1.28-2.67a22.56,22.56,0,0,0,1.12-3.06,18.67,18.67,0,0,0,.62-2.59,7.6,7.6,0,0,0,.07-1.78C164.56,119.78,164.5,119.55,164.52,119.55Z"/><g class="cls-13"><path d="M141.62,139.25c-.49-1.39-1.16-2.78-1.75-4.12l-.49-.31a5.87,5.87,0,0,0,.18,3.79.42.42,0,0,0,.21.27.28.28,0,0,0,.33-.24.76.76,0,0,0-.09-.44,11.84,11.84,0,0,0,1.1,1.62.41.41,0,0,0,.23.18.32.32,0,0,0,.35-.27A1,1,0,0,0,141.62,139.25Z"/></g><g class="cls-13"><path d="M149.82,140.42a40.54,40.54,0,0,1-2.25-8.11,4.79,4.79,0,0,1,0-1.85,1.87,1.87,0,0,1,1.15-1.36,1,1,0,0,1,0-1.34l1.14,1.22a1.41,1.41,0,0,0-1.26,1.07,4,4,0,0,0,0,1.76l1.17,8.71"/></g><g class="cls-13"><path d="M162.28,131.12q.85-3,1.7-6c-.47,1.14-.95,2.28-1.43,3.42a4.58,4.58,0,0,1-.75,1.35,1.59,1.59,0,0,1-1.36.59l.89.6c-.64,1-1.27,2.16-1.9,3.18l1.36.12L162.3,132l-.46-.82Z"/></g><polygon class="cls-3" points="153.83 118.37 153.9 117.42 155.67 119.91 156.23 122.6 157.67 119.91 162.65 117.02 162.65 119.55 161.7 122.01 159.84 123.44 157.72 124.37 155.19 123.9 153.67 123.04 153.33 121.25 153.83 118.37"/><path class="cls-4" d="M155.54,119.87a6.92,6.92,0,0,1-.26.91A7.74,7.74,0,0,0,155,123l0,.39-.21-.33-.12-.19a17,17,0,0,1-1-2.27c-.24-.58-.45-.91-.42-.93a2.93,2.93,0,0,1,.55.87c.29.56.55,1.41,1,2.22l.11.19-.18.06a6.56,6.56,0,0,1,.36-2.3A3.07,3.07,0,0,1,155.54,119.87Z"/><path class="cls-4" d="M162.65,118.66s0,0,0,.11a.83.83,0,0,1,0,.29,2.12,2.12,0,0,1-.53.94,6.08,6.08,0,0,1-1.21,1,16.07,16.07,0,0,0-1.55,1.14,16.89,16.89,0,0,1-1.41,1l-.18.11,0-.21a5.58,5.58,0,0,0,0-1.28c0-.39-.05-.73-.08-1a7.27,7.27,0,0,1-.08-.91,4.26,4.26,0,0,1,.19.89c0,.29.1.63.13,1a5.43,5.43,0,0,1,0,1.33l-.14-.1c.44-.29.9-.65,1.38-1a14.32,14.32,0,0,1,1.57-1.14,6.49,6.49,0,0,0,1.22-1,2.59,2.59,0,0,0,.56-.87C162.63,118.81,162.63,118.66,162.65,118.66Z"/><path class="cls-4" d="M168.67,152l-.16,0-.46,0-1.75.06c-.74,0-1.64,0-2.67,0l-1.63,0-.87,0-.46,0-.23,0-.12,0-.06,0h0s-.08-.05-.08-.09v0c.34-1.54.72-3.23,1.11-5,.07-.33.15-.66.22-1v-.06h.07a35.54,35.54,0,0,0,7.81-1.73l-.05.08c-.19-1.37-.34-2.48-.45-3.28l-.12-.9a1.44,1.44,0,0,1,0-.31,1.49,1.49,0,0,1,.07.31l.15.89c.13.79.31,1.9.52,3.27v.05l-.05,0a34.17,34.17,0,0,1-7.84,1.79l.09-.08-.22,1c-.4,1.78-.78,3.46-1.12,5l-.09,0c2.44.11,4.58.16,6.06.16h2.37Z"/><polygon class="cls-14" points="169.92 136.76 166.54 144.95 161.57 145.84 160.23 151.82 163.52 152.01 163.5 152.23 150.6 152.6 156.06 136.76 169.92 136.76"/><polygon class="cls-14" points="154.24 134.04 156.06 136.76 150.6 152.6 148.83 149.56 154.24 134.04"/><polygon class="cls-19" points="169.92 136.76 167.93 134.82 154.24 134.04 156.06 136.76 169.92 136.76"/><path class="cls-4" d="M156.06,136.76c.05,0-1.13,3.58-2.63,8s-2.77,7.91-2.83,7.89,1.13-3.58,2.63-7.95S156,136.74,156.06,136.76Z"/><path class="cls-17" d="M161.38,146.29l-2.36-.21a12.21,12.21,0,0,0-1.51-2,33.59,33.59,0,0,0-3.71-2,.85.85,0,0,0,0,1.09,12.63,12.63,0,0,0,1.67,1.07h0a.85.85,0,0,1-1,1.07c-.9-.17-2-.36-2.1-.36a9.74,9.74,0,0,1-1.73-1.51.57.57,0,0,0-1,.52.32.32,0,0,0,.08.14s-1,0-.1,1.25a2,2,0,0,0,.5,1.74A5.6,5.6,0,0,0,151,149c.45.49,4.85,1.43,4.85,1.43l4.59.45Z"/><path class="cls-18" d="M154.11,146.61a2.28,2.28,0,0,1-.79,0,4.06,4.06,0,0,1-1.85-.48,3.79,3.79,0,0,1-1.29-1.42,2.86,2.86,0,0,1-.34-.71,3.37,3.37,0,0,1,.46.63,4.33,4.33,0,0,0,1.27,1.32,4.76,4.76,0,0,0,1.77.52A3.78,3.78,0,0,1,154.11,146.61Z"/><path class="cls-18" d="M153.66,147.64a1.74,1.74,0,0,1-.72.05,5,5,0,0,1-.78-.11,2.46,2.46,0,0,1-.91-.37,4,4,0,0,1-.67-.7l-.49-.6a2.75,2.75,0,0,1-.41-.59s.22.17.52.5c.15.16.33.35.52.57a5,5,0,0,0,.65.66,2.68,2.68,0,0,0,.84.35,6.94,6.94,0,0,0,.74.15C153.38,147.62,153.65,147.61,153.66,147.64Z"/><path class="cls-18" d="M153,148.77a5.5,5.5,0,0,1-1.73-.34.86.86,0,0,1-.34-.21l-.24-.24a2.82,2.82,0,0,1-.34-.46.94.94,0,0,1-.2-.49s.12.16.31.4.22.27.36.42.15.15.24.22a.66.66,0,0,0,.26.16c.47.13.89.26,1.19.36A2.27,2.27,0,0,1,153,148.77Z"/><text class="cls-20" transform="translate(90.64 71.92)">DASHBOARD</text></svg>