<svg id="Layer_1" data-name="Layer 1" xmlns="http://www.w3.org/2000/svg" viewBox="0 0 255 290"><defs><style>.cls-1{font-size:11.61px;font-family:Inter-Bold, Inter;font-weight:700;}.cls-1,.cls-7{fill:#021166;}.cls-2{fill:#e1e1e1;}.cls-3{fill:#ececec;}.cls-4{fill:#f5f5f5;}.cls-5{fill:#1a2e35;}.cls-6{fill:#08c29d;}.cls-8{fill:#ffc19d;}.cls-9{fill:#53a8bc;}.cls-10,.cls-13{opacity:0.3;}.cls-11{fill:#375a64;}.cls-12{fill:#fff;}</style></defs><title>banner</title><text class="cls-1" transform="translate(98.1 24.07)">GROWTH</text><path class="cls-2" d="M240.39,143.7s-.23-.06-.64-.15a5,5,0,0,0-1.74,0,4.67,4.67,0,0,0-2.33,1,4.89,4.89,0,0,0-1.65,2.62v0l-.1.38-.15-.36a5.22,5.22,0,0,0-2-2.39,5.1,5.1,0,0,0-2.41-.82,6.69,6.69,0,0,0-2.36.3,2.07,2.07,0,0,1,.6-.26,4.92,4.92,0,0,1,1.77-.22,5.1,5.1,0,0,1,2.53.8A5.38,5.38,0,0,1,234,147.1l-.25,0v0a5,5,0,0,1,1.75-2.75,4.73,4.73,0,0,1,2.45-1,4.49,4.49,0,0,1,1.79.13A1.81,1.81,0,0,1,240.39,143.7Z"/><path class="cls-2" d="M39.08,111.88s-.23-.06-.63-.15a5.11,5.11,0,0,0-1.75,0,4.71,4.71,0,0,0-2.33,1,4.93,4.93,0,0,0-1.64,2.62v0l-.1.39-.15-.37a5.23,5.23,0,0,0-2-2.38,5.1,5.1,0,0,0-2.41-.82,6.63,6.63,0,0,0-2.36.3,1.9,1.9,0,0,1,.6-.26,4.92,4.92,0,0,1,1.77-.22,5.13,5.13,0,0,1,2.53.8,5.38,5.38,0,0,1,2.08,2.49l-.25,0v0a5,5,0,0,1,1.74-2.75,4.79,4.79,0,0,1,2.46-1,4.53,4.53,0,0,1,1.79.13A1.59,1.59,0,0,1,39.08,111.88Z"/><path class="cls-2" d="M178.83,100.72a6.32,6.32,0,0,1-.57.67,13.25,13.25,0,0,0-1.42,1.92,14.12,14.12,0,0,0-2.11,7.47v.1l-.26,0A12.57,12.57,0,0,0,171,104a18.51,18.51,0,0,0-2.51-2l.2.1c.13.07.33.17.57.32a11.36,11.36,0,0,1,1.87,1.49,12.4,12.4,0,0,1,2.16,2.83,12.09,12.09,0,0,1,1.41,4.12l-.26,0v-.09a13.77,13.77,0,0,1,2.21-7.58,12.35,12.35,0,0,1,1.5-1.89c.19-.21.37-.35.47-.46S178.83,100.71,178.83,100.72Z"/><path class="cls-3" d="M197.66,230.17a19.79,19.79,0,0,0-14.73,19.25,17.09,17.09,0,0,0-28.11,18.8c-8-6.29-21.16-4.55-27.29,3.63A17,17,0,0,0,101.86,262a23.36,23.36,0,0,0-42.18-9.77,20.55,20.55,0,0,0-32.26,4.69l5.46,1.76a29.94,29.94,0,0,1,22.25,18.67,23.22,23.22,0,0,1,37.73,4.93l42.06,0c10.47-.09,18.46.48,28.14,0,3.83-13.47,21.43-25.44,34.67-20.87a29.54,29.54,0,0,1,21.61-20.9A19.8,19.8,0,0,0,197.66,230.17Z"/><path class="cls-3" d="M219.68,240.41l-.34.07c0,.09.09.18.13.27Z"/><path class="cls-3" d="M111,215.43c.32-2.34-3-4.27-5.46-4.47a13.86,13.86,0,0,1-3.54-.3c-2.43-.85-3.4-4-5.77-5-1.77-.75-3.81-.08-5.53.78s-3.42,2-5.34,2.08c-1.67.11-3.48-.51-4.94.3-1.09.61-1.66,1.87-2.67,2.61a6.4,6.4,0,0,1-3.48.94,9.83,9.83,0,0,0-3.58.59,2.83,2.83,0,0,0-1.8,2.87Z"/><path class="cls-3" d="M229,83.76c.39-2.78-3.54-5.07-6.49-5.31-1.41-.12-2.87.1-4.21-.36-2.89-1-4-4.74-6.86-5.93-2.11-.89-4.54-.1-6.58.93s-4.06,2.32-6.34,2.47c-2,.12-4.15-.61-5.88.36-1.3.72-2,2.21-3.17,3.09a7.58,7.58,0,0,1-4.14,1.12,11.78,11.78,0,0,0-4.27.7,3.35,3.35,0,0,0-2.13,3.42Z"/><path class="cls-3" d="M75.13,69.22c.4-2.93-3.74-5.35-6.85-5.6-1.49-.12-3,.11-4.43-.38-3.05-1.06-4.27-5-7.24-6.25-2.22-.94-4.78-.1-6.93,1s-4.29,2.45-6.69,2.6c-2.1.14-4.37-.64-6.2.38-1.37.77-2.08,2.34-3.34,3.27a8,8,0,0,1-4.36,1.18,12.16,12.16,0,0,0-4.5.74,3.54,3.54,0,0,0-2.25,3.6Z"/><path class="cls-4" d="M238.89,180.92c.54-3.95-5-7.21-9.23-7.54-2-.17-4.08.14-6-.52-4.11-1.43-5.75-6.73-9.76-8.42-3-1.27-6.44-.14-9.34,1.32s-5.77,3.3-9,3.51c-2.82.18-5.88-.87-8.35.51-1.84,1-2.8,3.15-4.5,4.4a10.74,10.74,0,0,1-5.88,1.59,16.45,16.45,0,0,0-6.06,1c-1.88.86-3.43,2.84-3,4.86Z"/><path class="cls-3" d="M81.7,152.82c.49-3.58-4.56-6.52-8.36-6.83-1.81-.15-3.69.13-5.41-.47-3.71-1.29-5.2-6.09-8.82-7.62-2.72-1.15-5.84-.13-8.47,1.19s-5.22,3-8.16,3.18c-2.55.16-5.33-.78-7.56.46-1.67.93-2.54,2.85-4.07,4a9.69,9.69,0,0,1-5.33,1.45,15,15,0,0,0-5.48.89c-1.7.78-3.1,2.57-2.75,4.41Z"/><path class="cls-5" d="M248.9,250.65s-.27-.29-.78-.87a11.72,11.72,0,0,0-1-1l-.65-.65c-.23-.24-.49-.47-.77-.71l-.89-.77c-.31-.27-.68-.52-1-.8-.71-.57-1.57-1.08-2.47-1.67a30.56,30.56,0,0,0-6.77-3,28.76,28.76,0,0,0-9.08-1.27l-1.27,0-1.29.13-.65.07-.66.11-1.32.24a28.7,28.7,0,0,0-5.34,1.75,30.63,30.63,0,0,0-5.2,3,31.87,31.87,0,0,0-4.74,4.24,29.07,29.07,0,0,0-6.54,11.93l0,.13-.12,0a20,20,0,0,0-10.11-.59,30.11,30.11,0,0,0-10,3.9,35.71,35.71,0,0,0-8.64,7.28,27.75,27.75,0,0,0-5.71,10.21l0,.09h-.1c-5.33.27-10.82.21-16.43.1-2.81-.05-5.65-.1-8.51-.1H93.42l0-.07a23.29,23.29,0,0,0-7.93-8.65A22.88,22.88,0,0,0,74.82,270a23.59,23.59,0,0,0-19,7.42l-.13.14-.06-.17a29.77,29.77,0,0,0-7.18-10.84,32.42,32.42,0,0,0-4.77-3.73,29.78,29.78,0,0,0-5.09-2.59,29.07,29.07,0,0,0-5.14-1.47l-1.26-.19-.63-.09-.62,0-1.23-.1-1.21,0a29.22,29.22,0,0,0-8.62,1.26,30.81,30.81,0,0,0-6.46,2.75c-.87.54-1.69,1-2.38,1.53s-1.32,1-1.87,1.43-1,.89-1.39,1.24-.7.69-1,.95c-.5.53-.77.8-.77.8s.25-.29.74-.82c.25-.27.55-.61,1-1s.82-.82,1.38-1.25A23.38,23.38,0,0,1,11,263.76c.69-.53,1.51-1,2.38-1.55a31.17,31.17,0,0,1,6.47-2.79,29.09,29.09,0,0,1,8.66-1.29l1.22,0,1.23.09.63.05.63.09,1.27.18a29.46,29.46,0,0,1,10.31,4.07,32.8,32.8,0,0,1,4.8,3.75,29.82,29.82,0,0,1,7.25,10.91l-.19,0a23.83,23.83,0,0,1,19.15-7.52,23.11,23.11,0,0,1,10.75,3.72,23.6,23.6,0,0,1,8,8.74l-.13-.07,36.61,0h8.66c2.87,0,5.7.05,8.51.1,5.61.11,11.1.17,16.42-.09l-.13.09a28,28,0,0,1,5.78-10.3,36,36,0,0,1,8.7-7.33,30.69,30.69,0,0,1,10.13-3.93,20.28,20.28,0,0,1,10.23.62l-.16.08a29.3,29.3,0,0,1,6.61-12,32.72,32.72,0,0,1,4.78-4.25,28.51,28.51,0,0,1,10.62-4.75l1.33-.23.66-.11.66-.07,1.3-.12,1.28,0a28.66,28.66,0,0,1,9.12,1.3,30.67,30.67,0,0,1,6.78,3c.91.59,1.76,1.12,2.47,1.69.36.29.73.53,1,.81l.89.78a8.85,8.85,0,0,1,.76.72l.65.65a12.78,12.78,0,0,1,1,1.06C248.65,250.34,248.9,250.65,248.9,250.65Z"/><path class="cls-6" d="M127.34,47.29,130.16,53a1.35,1.35,0,0,0,1,.75l6.32.92a1.38,1.38,0,0,1,.76,2.36l-4.57,4.45a1.42,1.42,0,0,0-.4,1.22L134.39,69a1.38,1.38,0,0,1-2,1.46l-5.65-3a1.38,1.38,0,0,0-1.28,0l-5.65,3a1.39,1.39,0,0,1-2-1.46l1.08-6.29a1.39,1.39,0,0,0-.39-1.22L113.92,57a1.38,1.38,0,0,1,.76-2.36l6.32-.92a1.37,1.37,0,0,0,1-.75l2.82-5.72A1.38,1.38,0,0,1,127.34,47.29Z"/><path class="cls-6" d="M116.57,51.07c-.06,0-3.64-3.28-8-7.44s-7.86-7.58-7.81-7.63,3.64,3.27,8,7.43S116.62,51,116.57,51.07Z"/><path class="cls-6" d="M109.08,54.59c0,.08-3.09-.05-6.88-.28s-6.86-.48-6.85-.56,3.08,0,6.87.28S109.08,54.51,109.08,54.59Z"/><path class="cls-6" d="M120.76,44.33a37,37,0,0,1-2-4.11A39.6,39.6,0,0,1,117,36a38.13,38.13,0,0,1,2,4.11A37.22,37.22,0,0,1,120.76,44.33Z"/><path class="cls-6" d="M125.54,26c.08,0,.14,3.77.14,8.41s-.06,8.41-.14,8.41-.14-3.76-.14-8.41S125.46,26,125.54,26Z"/><path class="cls-6" d="M135.09,36.14a35.46,35.46,0,0,1-1.78,4.08,36.53,36.53,0,0,1-2,4,36.34,36.34,0,0,1,1.78-4.08A36.53,36.53,0,0,1,135.09,36.14Z"/><path class="cls-6" d="M150.52,38.9c0,.06-4.07,3-9.2,6.59S132,51.91,132,51.85s4.07-3,9.2-6.59S150.48,38.83,150.52,38.9Z"/><path class="cls-6" d="M150.93,50.84a42,42,0,0,1-4.55,1.92,44.25,44.25,0,0,1-4.66,1.66,44.49,44.49,0,0,1,4.55-1.92A44.25,44.25,0,0,1,150.93,50.84Z"/><path class="cls-6" d="M115,62.36c0,.07-5.34,2-12,4.26s-12,4.07-12.06,4,5.33-2,12-4.27S115,62.28,115,62.36Z"/><path class="cls-6" d="M157.24,68.25c0,.07-4.74-1.19-10.53-2.81s-10.48-3-10.46-3.08,4.73,1.18,10.53,2.81S157.26,68.17,157.24,68.25Z"/><path class="cls-6" d="M110.59,78a32.62,32.62,0,0,1,3.2-3,34.18,34.18,0,0,1,3.37-2.76,34,34,0,0,1-3.19,3A32.57,32.57,0,0,1,110.59,78Z"/><path class="cls-6" d="M126,91.24c-.08,0-.12-4.62-.09-10.31s.12-10.31.2-10.31.11,4.62.08,10.31S126.07,91.24,126,91.24Z"/><path class="cls-6" d="M141.91,79.16a34.82,34.82,0,0,1-3.31-2.93,35,35,0,0,1-3.13-3.15A36.72,36.72,0,0,1,138.79,76,34.6,34.6,0,0,1,141.91,79.16Z"/><path class="cls-6" d="M153.49,59.69l0,.93a.18.18,0,0,0,.1.16l.79.49a.2.2,0,0,1,0,.36l-.87.33a.22.22,0,0,0-.13.15l-.22.9a.2.2,0,0,1-.35.08l-.58-.72a.22.22,0,0,0-.18-.08l-.92.07a.2.2,0,0,1-.19-.31l.51-.78a.19.19,0,0,0,0-.18l-.36-.86a.21.21,0,0,1,.24-.28l.9.25a.2.2,0,0,0,.18-.05l.71-.6A.2.2,0,0,1,153.49,59.69Z"/><path class="cls-6" d="M159.46,49.9l.42.44a.13.13,0,0,0,.12,0l.6-.1a.14.14,0,0,1,.14.2l-.29.54a.13.13,0,0,0,0,.12l.28.55a.13.13,0,0,1-.14.19l-.61-.11a.11.11,0,0,0-.11,0l-.44.44a.13.13,0,0,1-.22-.08l-.08-.61a.16.16,0,0,0-.08-.1l-.54-.27a.13.13,0,0,1,0-.24l.55-.27a.14.14,0,0,0,.08-.1l.09-.6A.13.13,0,0,1,159.46,49.9Z"/><path class="cls-6" d="M90.94,42.55l.42.44a.14.14,0,0,0,.12,0l.61-.1a.13.13,0,0,1,.13.2l-.29.54a.13.13,0,0,0,0,.12l.28.54a.14.14,0,0,1-.14.2l-.6-.11a.12.12,0,0,0-.12,0l-.43.44a.14.14,0,0,1-.23-.08l-.08-.61a.14.14,0,0,0-.07-.1L90,43.83a.13.13,0,0,1,0-.24l.56-.27a.15.15,0,0,0,.07-.1l.09-.6A.13.13,0,0,1,90.94,42.55Z"/><path class="cls-5" d="M37.19,173.16s-.23-.06-.64-.14a5.27,5.27,0,0,0-1.74-.05,4.67,4.67,0,0,0-2.33,1,4.82,4.82,0,0,0-1.64,2.62v0l-.1.39-.15-.37a5.17,5.17,0,0,0-4.38-3.21,7,7,0,0,0-2.36.3,2.27,2.27,0,0,1,.6-.26,4.92,4.92,0,0,1,1.77-.22,5.07,5.07,0,0,1,2.53.8,5.38,5.38,0,0,1,2.08,2.49l-.25,0v0a5,5,0,0,1,1.75-2.75,4.87,4.87,0,0,1,4.25-.88A2,2,0,0,1,37.19,173.16Z"/><path class="cls-5" d="M63.34,171.09a12,12,0,0,1-.82.94,20.63,20.63,0,0,0-2,2.73,19.86,19.86,0,0,0-3,10.58v.14l-.37,0a17.8,17.8,0,0,0-4.88-9.72,23.7,23.7,0,0,0-3.56-2.88s.11,0,.3.13.46.24.79.46a15.55,15.55,0,0,1,2.66,2.11,17.59,17.59,0,0,1,3.05,4,17.38,17.38,0,0,1,2,5.84l-.37,0v-.13a19.43,19.43,0,0,1,3.13-10.73,17.82,17.82,0,0,1,2.12-2.69c.28-.29.52-.5.67-.64S63.33,171.08,63.34,171.09Z"/><path class="cls-5" d="M197,139s-.45-.16-1.28-.34a10.28,10.28,0,0,0-3.6-.14,9.71,9.71,0,0,0-4.84,2.09,10,10,0,0,0-3.42,5.43l0,.06-.1.39-.14-.37a10.75,10.75,0,0,0-4.1-4.94,10.37,10.37,0,0,0-5-1.67,10.8,10.8,0,0,0-3.57.33c-.82.21-1.26.4-1.27.38l.31-.15a7.83,7.83,0,0,1,.94-.33A10.61,10.61,0,0,1,179.6,141a10.93,10.93,0,0,1,4.21,5.05l-.25,0,0-.06a10.11,10.11,0,0,1,3.52-5.56,10,10,0,0,1,8.61-1.86,7.32,7.32,0,0,1,.95.3A1.08,1.08,0,0,1,197,139Z"/><path class="cls-5" d="M232.91,119.26s-.26-.07-.72-.16a5.48,5.48,0,0,0-2-.06,5.3,5.3,0,0,0-2.64,1.15,5.53,5.53,0,0,0-1.85,3v0l-.1.39-.15-.37a5.88,5.88,0,0,0-2.23-2.7,5.76,5.76,0,0,0-2.72-.92,6.28,6.28,0,0,0-1.95.16,7.33,7.33,0,0,1-.71.19s0,0,.17-.09a3,3,0,0,1,.51-.19,5.56,5.56,0,0,1,2-.25,5.76,5.76,0,0,1,2.84.9,6,6,0,0,1,2.34,2.8l-.25,0v0a5.68,5.68,0,0,1,2-3.09,5.39,5.39,0,0,1,2.76-1.14,5.26,5.26,0,0,1,2,.14,4,4,0,0,1,.52.17A.61.61,0,0,1,232.91,119.26Z"/><path class="cls-5" d="M209.41,111.19a8.16,8.16,0,0,1-.69.78,18.29,18.29,0,0,0-1.68,2.28,16.6,16.6,0,0,0-2.51,8.86v.11l-.26,0a14.87,14.87,0,0,0-4.09-8.14A15.11,15.11,0,0,0,198,113.3c-.54-.38-.86-.57-.85-.59l.25.12c.15.09.38.2.66.39a13.43,13.43,0,0,1,2.21,1.76,14.66,14.66,0,0,1,4.22,8.23l-.26,0v-.11a16.35,16.35,0,0,1,2.61-9,14.87,14.87,0,0,1,1.77-2.24c.22-.25.43-.42.55-.55Z"/><path class="cls-7" d="M103.74,126.43H149a1.35,1.35,0,0,0,0-2.7H103.74a1.35,1.35,0,0,0,0,2.7Z"/><rect class="cls-7" x="102.07" y="74.79" width="3.24" height="207.44"/><path class="cls-7" d="M105.14,282.23c-.08,0-.14-46.41-.14-103.65s.06-103.65.14-103.65.14,46.4.14,103.65S105.22,282.23,105.14,282.23Z"/><path class="cls-7" d="M103.74,105.44H149a1.35,1.35,0,0,0,0-2.7H103.74a1.35,1.35,0,0,0,0,2.7Z"/><rect class="cls-7" x="147.3" y="75.22" width="3.24" height="207.02"/><path class="cls-7" d="M147.39,256.15c-.08,0-.15-40.42-.15-90.28s.07-90.3.15-90.3.14,40.42.14,90.3S147.46,256.15,147.39,256.15Z"/><path class="cls-7" d="M103.69,264.69h45.24a1.35,1.35,0,0,0,0-2.7H103.69a1.35,1.35,0,0,0,0,2.7Z"/><path class="cls-7" d="M104.63,222.82h42.5a1.35,1.35,0,0,0,0-2.7h-42.5a1.35,1.35,0,0,0,0,2.7Z"/><path class="cls-7" d="M103.69,193.55h45.24a1.35,1.35,0,0,0,0-2.7H103.69a1.35,1.35,0,0,0,0,2.7Z"/><path class="cls-7" d="M103.69,170.47h45.24a1.35,1.35,0,0,0,0-2.7H103.69a1.35,1.35,0,0,0,0,2.7Z"/><path class="cls-7" d="M103.69,147.93h45.24a1.35,1.35,0,0,0,0-2.7H103.69a1.35,1.35,0,0,0,0,2.7Z"/><path class="cls-7" d="M104.14,244.4h43a1.35,1.35,0,0,0,0-2.7h-43a1.35,1.35,0,0,0,0,2.7Z"/><path class="cls-8" d="M140.93,108.26l-2.75-6.11s.15-3.27-.32-3.54c-.64-.38-.79-.07-1,1l-.26,1.61s-1-2.28-2-2.38c-.66-.06-.86,1.09-.86,1.09s-1.1-1-1.89-.78-.53,1.32-.53,1.32a.89.89,0,0,0-1.33.42c-.46,1.12,1.56,2.82,1.86,3.57.65,1.57-.72,1.62-.72,1.62s-3.51-.45-3.33.45,1.35.9,2.25,1c.75.07,3.57.77,4.49,1a1.7,1.7,0,0,1,.53.24l2.1,2.15Z"/><polygon class="cls-9" points="139.5 248.6 139.38 264.28 130.92 264.39 131.01 248.67 139.5 248.6"/><path class="cls-5" d="M135.21,263.74c-.07,0-.06-3.43,0-7.67s.21-7.67.29-7.66,0,3.43,0,7.67S135.28,263.74,135.21,263.74Z"/><path class="cls-5" d="M131,259.36s.06-.13.22-.34a5.82,5.82,0,0,1,.76-.79,5.89,5.89,0,0,1,1.38-.91,4.61,4.61,0,0,1,2-.43,4.49,4.49,0,0,1,3.28,1.47,4,4,0,0,1,.61.93,1.08,1.08,0,0,1,.13.39,8,8,0,0,0-.87-1.19,4.52,4.52,0,0,0-3.16-1.34,5.12,5.12,0,0,0-3.23,1.22C131.33,258.93,131,259.39,131,259.36Z"/><polygon class="cls-10" points="130.92 254.35 130.91 256.07 139.5 256.07 139.5 254.35 130.92 254.35"/><polygon class="cls-2" points="130.92 264.39 130.93 262.75 139.4 262.75 139.38 264.28 130.92 264.39"/><polygon class="cls-9" points="121.75 207.88 121.64 222.94 113.51 223.04 113.6 207.96 121.75 207.88"/><path class="cls-5" d="M117.63,222.42c-.07,0-.06-3.3,0-7.36s.2-7.36.27-7.36.06,3.3,0,7.36S117.69,222.42,117.63,222.42Z"/><path class="cls-5" d="M113.54,218.22a1.21,1.21,0,0,1,.21-.33,5.86,5.86,0,0,1,2.06-1.63,4.33,4.33,0,0,1,5,1,3.84,3.84,0,0,1,.59.89c.1.23.14.36.12.37a7.52,7.52,0,0,0-.83-1.14,4.32,4.32,0,0,0-3-1.29,5,5,0,0,0-3.11,1.17C113.91,217.81,113.57,218.25,113.54,218.22Z"/><polygon class="cls-10" points="113.52 213.4 113.51 215.06 121.75 215.06 121.75 213.4 113.52 213.4"/><polygon class="cls-2" points="113.51 223.04 113.52 221.47 121.65 221.47 121.64 222.94 113.51 223.04"/><path class="cls-5" d="M123.3,107l.21-.06a4.05,4.05,0,0,1,3.31-2,5.21,5.21,0,0,1,3.66,1.37c.7.62,1.25,1.38,2,2a3.07,3.07,0,0,0,2.54.88c.11.34-.52.54-.48.9a.42.42,0,0,0,.36.31,3.67,3.67,0,0,0,.74,0,.62.62,0,0,1,.6.37.74.74,0,0,1,0,.36,6.52,6.52,0,0,1-1.48,2.9,3.37,3.37,0,0,1-3,1.07,5.31,5.31,0,0,1-2.26-1.27l-3.89-3.11a8.88,8.88,0,0,1-1.65-1.59A3,3,0,0,1,123.3,107Z"/><path class="cls-5" d="M124.11,107.19a4.27,4.27,0,0,0-1.81-.89,2.52,2.52,0,0,0-2,.37,5.91,5.91,0,0,0-1.19,1.47,2.34,2.34,0,0,1-1.46,1.11.63.63,0,0,0-.31.1c-.15.14,0,.4.13.48a1,1,0,0,0,.58,0,2.1,2.1,0,0,1-1.21.69.89.89,0,0,0,1.09.63,9.44,9.44,0,0,0-.36,2.23,3.06,3.06,0,0,0,.73,2.1c.56.61,1.49,1,1.73,1.75"/><path class="cls-8" d="M129.56,133.89l-10.11-.13,1.13-8.62s-.7-.15-.74-3.9-.22-10.13-.22-10.13h0a13,13,0,0,1,13.08,1.65l.56.43Z"/><path class="cls-8" d="M132.09,117.8c.06,0,2.57-.76,2.49,1.8a1.92,1.92,0,0,1-2.64,1.88C131.94,121.41,132.09,117.8,132.09,117.8Z"/><path class="cls-8" d="M120.06,117.26a1.7,1.7,0,0,0-2.27,1.92,1.92,1.92,0,0,0,2.64,1.88C120.43,121,120.06,117.26,120.06,117.26Z"/><path class="cls-5" d="M132.92,117.51c-.39,2.15-.31,3.28-.67,4.72a7.52,7.52,0,0,1-3.73,5.14,5.84,5.84,0,0,1-6.56-.43,6,6,0,0,1-2.26-3.89c-.18-1.62-.66-4.65-.67-6.27,0-2.93.08-5.55.08-5.55l8.35-1.52,4.76,2.83Z"/><path class="cls-5" d="M124.3,128.67a2.69,2.69,0,0,0,1.46.13,2.63,2.63,0,0,0,1.4-.45c0-.06-.64.13-1.42.22S124.31,128.6,124.3,128.67Z"/><path class="cls-5" d="M132.51,121.17c.25-2.21.41-4.72.75-7a14.55,14.55,0,0,0,.36-3c-.08-.88-.32-.61-.7-1.41-.49-1-2.35-1.66-3.43-1.88s-1.22-1.16-2.06-.43a2.71,2.71,0,0,0-4.94,1.15,1.88,1.88,0,0,0-3.11,1.89,1.84,1.84,0,0,0-1.24,2.82c.39.6,1.08.93,1.51,1.5a2.15,2.15,0,0,1,.13,2.31"/><path class="cls-11" d="M121.75,120.71a4.91,4.91,0,0,0,1.56,4.13,8.56,8.56,0,0,1-1.56-4.13Z"/><path class="cls-11" d="M120.63,118.84a3.2,3.2,0,0,0-.17,2,3.26,3.26,0,0,0,.87,1.84,11.21,11.21,0,0,1-.64-1.88A11.33,11.33,0,0,1,120.63,118.84Z"/><path class="cls-5" d="M131.15,110a5.71,5.71,0,0,0-2.61-2.33,3.35,3.35,0,0,0-3.36.42"/><path class="cls-11" d="M130.94,115.65a2.17,2.17,0,0,1,.08-.76,9.23,9.23,0,0,0,.19-1.78,3.92,3.92,0,0,0-.38-1.7c-.2-.4-.4-.61-.37-.64s.28.13.55.54a3.44,3.44,0,0,1,.5,1.8,6.54,6.54,0,0,1-.29,1.83C131.09,115.39,131,115.66,130.94,115.65Z"/><path class="cls-11" d="M129.21,116.5a4.32,4.32,0,0,1,.33-1.19,4.72,4.72,0,0,1,.41-1.16,2,2,0,0,1-.12,1.25C129.61,116.07,129.28,116.54,129.21,116.5Z"/><path class="cls-11" d="M121.19,115.84a2.08,2.08,0,0,1-.58-.92,4.53,4.53,0,0,1,1-4.91,2.1,2.1,0,0,1,.88-.62s-.3.27-.72.76a4.8,4.8,0,0,0-.94,4.7C121,115.46,121.23,115.81,121.19,115.84Z"/><path class="cls-11" d="M130.32,106.29a3.65,3.65,0,0,1-.83-.34,4.78,4.78,0,0,0-2-.5,2.45,2.45,0,0,0-1.83.77c-.35.4-.42.75-.47.73s0-.38.31-.86a2.25,2.25,0,0,1,.78-.65,2.59,2.59,0,0,1,1.2-.28,4.24,4.24,0,0,1,2.12.6A2.37,2.37,0,0,1,130.32,106.29Z"/><path class="cls-11" d="M118.89,108.67s0-.3.3-.68a2.76,2.76,0,0,1,3.26-.94c.43.17.63.38.61.41s-.26-.1-.68-.21a3,3,0,0,0-1.64,0,3.09,3.09,0,0,0-1.39.88C119.06,108.44,118.94,108.69,118.89,108.67Z"/><path class="cls-11" d="M121.65,118.1s.41-.15,1.09-.45a8.56,8.56,0,0,0,2.47-1.68l.48-.47-.26.63a5.1,5.1,0,0,0-.36,1.22c0,.21-.08.47,0,.51s.29,0,.48-.19a7.49,7.49,0,0,0,1.72-1.52l.44-.53-.2.66c-.2.66-.39,1.28-.57,1.84l-.19-.12a11.5,11.5,0,0,0,1.64-2.06,2.42,2.42,0,0,1-.29.66,6.85,6.85,0,0,1-1.19,1.57l-.31.31.12-.43.52-1.85.24.13a7.38,7.38,0,0,1-1.77,1.59,2.63,2.63,0,0,1-.33.2.43.43,0,0,1-.65-.47c0-.13,0-.24,0-.36a5.71,5.71,0,0,1,.4-1.27l.22.15a7.9,7.9,0,0,1-2.6,1.63A3.61,3.61,0,0,1,121.65,118.1Z"/><path class="cls-5" d="M126.54,108.21a1.35,1.35,0,0,0-.81-.63,2.43,2.43,0,0,0-1,0,3.71,3.71,0,0,0-2.18,1.26c-.13.15-.24.38-.1.53a.39.39,0,0,0,.28.09,15.94,15.94,0,0,0,3.78-.13"/><path class="cls-5" d="M110,183.54c.17.31,2.22,7.16,6.74,8.32s18.58.38,19,0,4.52-2.67,6.52-7.4-12.36-13-12.36-13Z"/><path class="cls-5" d="M144.63,185.4l.13,3.82c0,.58-.08,3.54-.14,4.13l-1.75,23.72c-.18-.07-1.2,14.61-1.29,19.73-.08,4.95-.5,18.41-.5,18.41H129.54l-.78-22.29-.48-24.13-.72-16.88Z"/><path class="cls-5" d="M110,179.77s.26.38.2,5.63c0,4,2.39,28.75,2.39,28.75l9.86-.3,2-24.77Z"/><path class="cls-11" d="M128.47,192.21a4.36,4.36,0,0,1-.83.11c-.53.06-1.31.13-2.27.19a27.8,27.8,0,0,1-7.5-.43,10.84,10.84,0,0,1-6.37-3.85,7.1,7.1,0,0,1-1.08-2,4.58,4.58,0,0,1-.17-.6q0-.21,0-.21a9.5,9.5,0,0,0,1.44,2.71,10.94,10.94,0,0,0,6.27,3.69,29.93,29.93,0,0,0,7.43.51l2.27-.09A4.15,4.15,0,0,1,128.47,192.21Z"/><path class="cls-11" d="M140.16,191.73a4.85,4.85,0,0,1-1.26.34,30.17,30.17,0,0,1-3.13.44,28.53,28.53,0,0,1-3.15.11,5.21,5.21,0,0,1-1.31-.11,6.87,6.87,0,0,1,1.3-.09c.81,0,1.92-.09,3.14-.19s2.32-.25,3.11-.36A7,7,0,0,1,140.16,191.73Z"/><path class="cls-11" d="M139.82,196.08a9.71,9.71,0,0,1-1.66-.17c-1-.15-2.43-.42-4-.79s-2.9-.8-3.87-1.15a9.55,9.55,0,0,1-1.56-.62,10.07,10.07,0,0,1,1.62.44c1,.29,2.35.68,3.88,1.05s2.92.67,3.93.87A10.52,10.52,0,0,1,139.82,196.08Z"/><path class="cls-12" d="M137.08,113a23.8,23.8,0,0,0-1.42-2.52s3.19-3.38,5.1-3.28l1.82,2.52Z"/><path class="cls-6" d="M152.17,123.59c-.7-2.18-9.44-14.78-9.44-14.78-3.21,0-6.36,3.91-6.36,3.91l6.21,13.07-6.53,6,7.37,8.7s4.65-5.81,6.05-7.92C152.57,127.88,152.86,125.76,152.17,123.59Z"/><path class="cls-10" d="M109.74,182.85s.73,4.85,4.79,6.29,13.45,0,13.45,0l1.09-3.54,1.17,4.18,14.52-1.86-.21-3.32-15.39-6.39Z"/><path class="cls-6" d="M141.4,166.67c-.3-1.72-.7-2.59-.77-3.63a96,96,0,0,1,0-11.47c.28-1.24,2.8-11.07,2.8-11.07l-.86-7.6-10.72-1.81-.75-1.73s-7.15-1.85-11.68.58h0l-.78,1.85-2.8.7c-.42.17-2.61.78-4.26,1.23a6.45,6.45,0,0,0-4.2,3.51,19,19,0,0,0-.76,1.91c-.73,2.19-5,14.31-5.18,18-.22,4.32,3.6,4.47,5.93,3.92s4.9-5.78,4.9-5.78l1.46,10.23a23.66,23.66,0,0,1-1,4.11c-1.42,3.89-3.48,11.42-3.48,11.42.8,2.5,3.71,6.48,5.23,7s11.71.11,11.71.11l3-8,2.77,8.38,14.46-2.26Z"/><path class="cls-5" d="M129.16,163.72c0,.06-2,1.44-4.64,3.07a53.91,53.91,0,0,1-4.8,2.83,54.28,54.28,0,0,1,4.65-3.07A54.67,54.67,0,0,1,129.16,163.72Z"/><path class="cls-5" d="M125.36,167.92c0,.06-2.17,1.54-4.94,3.28s-5,3.12-5.09,3.05,2.17-1.53,4.94-3.28S125.32,167.85,125.36,167.92Z"/><path class="cls-5" d="M136.79,156.47a10.85,10.85,0,0,1-4.19,4.74c0-.07,1.09-.93,2.24-2.24S136.71,156.42,136.79,156.47Z"/><path class="cls-5" d="M137.08,157.83a4.28,4.28,0,0,1-.49,1.09,20.34,20.34,0,0,1-3.39,4.59,5.19,5.19,0,0,1-.89.79c-.06-.06,1.21-1.35,2.52-3.14S137,157.79,137.08,157.83Z"/><path class="cls-5" d="M137.41,171.09a8.51,8.51,0,0,1,.38-1.45c.25-.88.59-2.1.9-3.46s.55-2.61.72-3.51a8.6,8.6,0,0,1,.3-1.46,7.14,7.14,0,0,1-.11,1.49c-.11.91-.32,2.17-.63,3.54s-.69,2.59-1,3.46A7.1,7.1,0,0,1,137.41,171.09Z"/><path class="cls-5" d="M142.73,139.31c-.07,0-1-1.62-2.49-3.48s-2.82-3.19-2.76-3.25a4.74,4.74,0,0,1,1,.81,23.11,23.11,0,0,1,2,2.27,22.64,22.64,0,0,1,1.71,2.52A4.09,4.09,0,0,1,142.73,139.31Z"/><path class="cls-5" d="M145.05,135.46a12.24,12.24,0,0,0-2.14-2.35,11.85,11.85,0,0,0-2.8-1.5,2.21,2.21,0,0,1,.94.18,6.78,6.78,0,0,1,3.6,2.81A2.34,2.34,0,0,1,145.05,135.46Z"/><path class="cls-5" d="M113.72,165.51c-.07,0-.94-5.58-1.93-12.48s-1.73-12.52-1.65-12.53.94,5.58,1.93,12.49S113.8,165.5,113.72,165.51Z"/><path class="cls-5" d="M132,131.13a19.2,19.2,0,0,1-2-.06c-1.22,0-2.9-.07-4.76,0s-3.53.29-4.73.46-2,.29-2,.25a1.9,1.9,0,0,1,.51-.16c.33-.08.81-.18,1.42-.29a38.71,38.71,0,0,1,4.75-.54,40.14,40.14,0,0,1,4.78.06c.61,0,1.1.11,1.44.16A1.63,1.63,0,0,1,132,131.13Z"/><g class="cls-13"><path d="M112.31,155.67c-.57-4.32-1.36-8.64-1.94-13A14.32,14.32,0,0,0,112.31,155.67Z"/></g><g class="cls-13"><path d="M142.45,125.63a6.66,6.66,0,0,1,3.7-1.77,2.43,2.43,0,0,1,1.89.39.46.46,0,0,1,.19.38.38.38,0,0,1-.3.28,1.09,1.09,0,0,1-.44,0,9.74,9.74,0,0,0-5,.79"/></g><g class="cls-13"><path d="M119.17,131.85a11.29,11.29,0,0,0,4.26.22q3.79-.33,7.53-1a31.93,31.93,0,0,0-12,.68"/></g><g class="cls-13"><path d="M118.68,172.32a31.05,31.05,0,0,0,14.8-9.28C129,165.9,123.11,169.18,118.68,172.32Z"/></g><path class="cls-5" d="M146,125a5,5,0,0,0-3.65,1s.09-.22.37-.47a3.58,3.58,0,0,1,1.27-.68,3.32,3.32,0,0,1,1.44-.08C145.78,124.84,146,125,146,125Z"/><path class="cls-12" d="M93,118.73l-5,.23A13.42,13.42,0,0,1,82,123.08a13.14,13.14,0,0,1-16.68-8.82,13.87,13.87,0,0,1,8.75-17.2,13.15,13.15,0,0,1,16.69,8.82,14,14,0,0,1-.24,8.84h0Z"/><path class="cls-5" d="M93,118.73l-.18-.27-.5-.76-1.9-3h.1a.07.07,0,0,1-.09,0,.07.07,0,0,1,0-.07,13.94,13.94,0,0,0,.67-6.66A13.69,13.69,0,0,0,87,100a12.86,12.86,0,0,0-4.56-2.75,13.07,13.07,0,0,0-5.7-.65,13.4,13.4,0,0,0-5.7,2.1,13,13,0,0,0-4.33,4.65,14.76,14.76,0,0,0-1.27,2.95,15,15,0,0,0-.52,3.1,14,14,0,0,0,1,6,13.2,13.2,0,0,0,7.71,7.48,13,13,0,0,0,9-.07A13.41,13.41,0,0,0,88,118.92s0,0,0,0l3.68-.12,1,0H93l-.31,0-.94.06-3.72.21,0,0a13.42,13.42,0,0,1-5.5,4,13.26,13.26,0,0,1-17-7.49,14.17,14.17,0,0,1-1-6.07,13.74,13.74,0,0,1,.53-3.16,14.19,14.19,0,0,1,1.28-3,14.7,14.7,0,0,1,1.94-2.67,14,14,0,0,1,2.49-2.07,13.68,13.68,0,0,1,5.82-2.14,13.27,13.27,0,0,1,10.45,3.49,13.91,13.91,0,0,1,4.2,8.17,14.11,14.11,0,0,1-.74,6.73l-.11-.06h0a.07.07,0,0,1,.09,0s0,0,0,0c.8,1.32,1.43,2.33,1.86,3l.46.77C93,118.65,93,118.73,93,118.73Z"/><polygon class="cls-7" points="73.8 107.89 77.77 102.86 81.73 107.83 73.8 107.89"/><polygon class="cls-7" points="79.72 117.09 76.11 117.12 76 107.08 79.61 107.05 79.72 117.09"/></svg>