<?xml version="1.0" encoding="utf-8"?>
<!-- Generator: Adobe Illustrator 23.0.1, SVG Export Plug-In . SVG Version: 6.00 Build 0)  -->
<svg version="1.1" id="Layer_1" xmlns="http://www.w3.org/2000/svg" xmlns:xlink="http://www.w3.org/1999/xlink" x="0px" y="0px"
	 viewBox="0 0 500 500" style="enable-background:new 0 0 500 500;" xml:space="preserve">
<style type="text/css">
	.st0{fill:none;stroke:#000000;stroke-width:10;stroke-miterlimit:10;}
</style>
<path class="st0" d="M356.72,168.11c0,54.5,0,108.76,0,163.12c-25.88,0-51.62,0-77.36,0c-2.29-21.46-20.17-37.08-39.59-38.43
	c-9.95-0.69-19.15,1.64-27.37,7.32c-10.91,7.53-17.02,18.06-18.79,31.22c-25.97,0-51.75,0-77.52,0c0-54.39,0-108.78,0-163.17
	L356.72,168.11z"/>
<path d="M236.23,262.59c25.23,0,50.46,0,75.7,0c4.07,0,6.28-1.6,6.19-4.45c-0.08-2.77-2.16-4.2-6.18-4.2
	c-50.31,0-100.62,0-150.92,0.01c-1.01,0-2.05,0.05-3.03,0.28c-2.03,0.46-3.06,1.96-3.12,3.91c-0.06,1.95,0.91,3.52,2.89,4.07
	c1.11,0.31,2.32,0.37,3.48,0.37C186.24,262.6,211.24,262.59,236.23,262.59z"/>
<path d="M236.35,210.96c25.15,0,50.3,0,75.46-0.01c0.94,0,1.9,0.03,2.81-0.15c2.17-0.43,3.62-2.31,3.49-4.37
	c-0.13-2.13-1.7-3.73-3.94-3.96c-0.85-0.09-1.72-0.06-2.58-0.06c-50.07,0-100.14,0-150.21,0c-0.71,0-1.41-0.02-2.11,0.02
	c-2.64,0.16-4.43,1.89-4.43,4.23c0,2.33,1.81,4.09,4.43,4.28c0.7,0.05,1.41,0.02,2.11,0.02
	C186.36,210.96,211.36,210.96,236.35,210.96z"/>
<path d="M236.72,228.18c-25.07,0-50.15,0-75.22,0.01c-1.09,0-2.21-0.01-3.28,0.18c-2.03,0.36-3.14,1.77-3.32,3.73
	c-0.18,1.98,0.73,3.54,2.64,4.23c0.93,0.34,1.99,0.43,2.99,0.43c50.62,0.02,101.24,0.02,151.86,0.01c0.85,0,1.73-0.08,2.55-0.29
	c2.12-0.53,3.09-2.07,3.16-4.13c0.06-1.99-1.51-3.71-3.58-4.02c-1-0.15-2.03-0.15-3.05-0.15
	C286.55,228.17,261.64,228.18,236.72,228.18z"/>
<path d="M236.51,369.98c-18.9,0-34.44-15.39-34.4-34.08c0.04-19.25,15.27-34.62,34.32-34.65c19.05-0.02,34.37,15.37,34.4,34.57
	C270.86,354.57,255.38,369.98,236.51,369.98z M210.53,335.71c0.2,1.47,0.27,2.98,0.63,4.4c0.47,1.84,1.77,2.92,3.71,3.06
	c1.93,0.15,3.45-0.66,4.13-2.44c0.4-1.04,0.43-2.29,0.37-3.43c-0.26-4.56,0.79-8.7,3.67-12.29c3.15-3.93,7.23-6.08,12.29-6.46
	c3.77-0.28,5.63-2.05,5.36-4.83c-0.27-2.77-2.55-4.15-6.19-3.77C220.72,311.41,210.92,321.99,210.53,335.71z"/>
<path d="M248.53,376.93c14.7-4.58,24.65-14.67,29.37-29.59c8.93,8.92,17.87,17.86,26.88,26.86c-0.72,0.03-1.54,0.1-2.35,0.1
	c-7.13,0.01-14.26-0.01-21.39,0.01c-4.45,0.01-5.9,1.49-5.91,5.95c-0.01,7.9,0,15.8,0,23.27
	C266.3,394.71,257.34,385.75,248.53,376.93z"/>
<path d="M224.73,377.04c-8.91,8.91-17.84,17.85-26.79,26.79c-0.03-0.5-0.11-1.24-0.11-1.97c-0.01-7.21,0-14.41-0.01-21.62
	c-0.01-4.45-1.47-5.92-5.93-5.93c-7.9-0.02-15.81-0.01-23.29-0.01c8.82-8.8,17.79-17.74,26.57-26.49
	C199.79,362.28,209.77,372.34,224.73,377.04z"/>
</svg>
