<?xml version="1.0" encoding="utf-8"?>
<!-- Generator: Adobe Illustrator 23.0.1, SVG Export Plug-In . SVG Version: 6.00 Build 0)  -->
<svg version="1.1" id="Layer_1" xmlns="http://www.w3.org/2000/svg" xmlns:xlink="http://www.w3.org/1999/xlink" x="0px" y="0px"
	 viewBox="0 0 500 500" style="enable-background:new 0 0 500 500;" xml:space="preserve">
<style type="text/css">
	.st0{fill:none;stroke:#000000;stroke-width:10;stroke-miterlimit:10;}
</style>
<g>
	<path d="M223.06,140.89c14.21,0,28.22,0,42.45,0c0,18.31,0,36.59,0,55.13c0.96,0,1.7,0,2.44,0c21.56,0.01,43.11,0,64.67,0.03
		c8.8,0.01,15.22,4.83,17.23,12.96c0.39,1.58,0.56,3.25,0.56,4.87c0.03,40.06,0.04,80.11,0.03,120.17c0,10.55-7.3,17.86-17.82,17.86
		c-58.62,0.01-117.24,0.02-175.85,0.01c-10.48,0-17.8-7.37-17.81-17.89c-0.01-40-0.02-80-0.01-120c0-10.78,7.23-18.01,18.02-18.02
		c21.26-0.01,42.52,0.01,63.78,0.02c2.33,0,2.33,0,2.33-2.41c-0.01-16.8-0.01-33.6-0.02-50.39
		C223.06,142.49,223.06,141.74,223.06,140.89z M222.99,203.53c-0.87,0-1.39,0-1.91,0c-21.38-0.01-42.76-0.02-64.14-0.01
		c-6.61,0-10.5,3.89-10.5,10.53c-0.01,40-0.02,80-0.02,120c0,6.39,4.07,10.4,10.51,10.41c6.58,0,13.16-0.01,19.74-0.01
		c51.86,0,103.73,0,155.59,0c6.76,0,10.68-3.86,10.68-10.55c0.01-39.88,0.02-79.76,0.02-119.65c0-6.85-3.85-10.7-10.7-10.71
		c-21.38-0.01-42.76-0.01-64.14-0.02c-0.62,0-1.24,0-1.96,0c0,3.2-0.12,6.14,0.04,9.06c0.1,1.87-0.64,2.25-2.33,2.25
		c-10.87-0.06-21.73-0.03-32.6-0.03c-2.69,0-5.38,0-8.28,0C222.99,210.99,222.99,207.38,222.99,203.53z M257.97,207.01
		c0-19.63,0-39.09,0-58.6c-9.18,0-18.23,0-27.25,0c0,19.62,0,39.08,0,58.6C239.84,207.01,248.81,207.01,257.97,207.01z"/>
	<path d="M214.5,288.98c-19.24,0-38.29,0-57.44,0c-0.29-11.37,3.39-20.86,12.94-27.24c9.7-6.48,20.05-6.85,30.09-0.88
		C210.53,267.08,214.78,276.85,214.5,288.98z M165.3,281.42c13.71,0,27.29,0,40.87,0c-0.29-8.33-10.09-16.7-19.84-17.04
		C176.28,264.03,166.37,271.99,165.3,281.42z"/>
	<path d="M322.24,257.71c0,2.43,0,4.76,0,7.25c-31.25,0-62.45,0-93.81,0c0-2.35,0-4.71,0-7.25
		C259.64,257.71,290.83,257.71,322.24,257.71z"/>
	<path d="M228.4,242.91c0-2.44,0-4.81,0-7.3c31.29,0,62.49,0,93.8,0c0,2.46,0,4.82,0,7.3C290.92,242.91,259.72,242.91,228.4,242.91z
		"/>
	<path d="M322.24,277.71c0,2.44,0,4.77,0,7.25c-31.26,0-62.44,0-93.8,0c0-2.39,0-4.75,0-7.25
		C259.64,277.71,290.83,277.71,322.24,277.71z"/>
	<path d="M185.8,254.74c-7.71,0.01-13.85-6.14-13.84-13.85c0.01-7.64,6.09-13.74,13.73-13.77c7.76-0.03,13.91,6.04,13.92,13.75
		C199.62,248.63,193.54,254.73,185.8,254.74z M179.47,240.83c-0.03,3.59,2.7,6.4,6.26,6.42c3.54,0.02,6.39-2.8,6.4-6.32
		c0.01-3.52-2.85-6.36-6.38-6.35C182.3,234.6,179.5,237.38,179.47,240.83z"/>
	<path d="M245.79,312.96c0.26-0.09,0.31-0.12,0.36-0.12c4.98-0.33,5.01-0.34,7.45,3.94c1.96,3.44,3.83,6.93,5.71,10.34
		c0-4.71,0-9.49,0-14.41c1.39,0,2.77,0,4.29,0c0,7.09,0,14.15,0,21.42c-1.48,0-2.95,0.1-4.38-0.06c-0.48-0.05-1.01-0.71-1.29-1.22
		c-2.41-4.43-4.76-8.88-7.14-13.33c-0.13-0.24-0.27-0.47-0.61-1.06c0,5.39,0,10.38,0,15.53c-1.47,0-2.89,0-4.38,0
		C245.79,326.94,245.79,319.98,245.79,312.96z"/>
	<path d="M183.63,327.05c0-4.68,0-9.41,0-14.3c1.4,0,2.77,0,4.27,0c0,7.09,0,14.15,0,21.4c-1.55,0-3.01,0.12-4.45-0.06
		c-0.53-0.07-1.12-0.76-1.43-1.31c-2.58-4.6-5.1-9.23-7.67-13.93c0,5.01,0,10.03,0,15.18c-1.49,0-2.8,0-4.23,0c0-7.04,0-14,0-21.24
		c1.7,0,3.38-0.08,5.04,0.05c0.42,0.03,0.91,0.65,1.17,1.11C178.78,318.3,181.19,322.66,183.63,327.05z"/>
	<path d="M289.7,320.92c2.82,0,5.32,0,8.06,0c0-2.7,0-5.31,0-8.02c1.72,0,3.22,0,4.82,0c0,7.09,0,14.12,0,21.29
		c-1.53,0-3.02,0-4.72,0c0-2.83,0-5.67,0-8.67c-2.74,0-5.28,0-8.04,0c0,2.86,0,5.71,0,8.68c-1.71,0-3.2,0-4.83,0
		c0-7.05,0-14.11,0-21.3c1.52,0,3.02,0,4.71,0C289.7,315.51,289.7,318.12,289.7,320.92z"/>
	<path d="M242.93,334.16c-1.64,0-2.94,0.1-4.2-0.05c-0.48-0.06-1.13-0.61-1.3-1.08c-0.5-1.37-0.8-2.81-1.18-4.22
		c-0.71-2.66-1.59-3.24-4.75-2.86c0,2.1-0.09,4.25,0.03,6.39c0.09,1.51-0.48,1.99-1.91,1.84c-0.91-0.09-1.85-0.02-2.86-0.02
		c-0.06-0.65-0.14-1.1-0.14-1.55c0-6.04,0.04-12.08-0.01-18.11c-0.01-1.22,0.39-1.69,1.59-1.68c2.63,0.02,5.29-0.23,7.89,0.02
		c4.66,0.45,7.24,4.04,5.67,7.86c-0.56,1.36-1.84,2.43-2.81,3.66C241.71,326.74,241.59,330.54,242.93,334.16z M231.61,322.3
		c2.06,0,4.17,0.43,5.19-1.61c0.44-0.88,0.42-2.47-0.11-3.25c-1.2-1.78-3.19-1.18-5.08-1.03
		C231.61,318.4,231.61,320.25,231.61,322.3z"/>
	<path d="M223.35,334.07c-4.54,0-8.92,0-13.45,0c0-7.1,0-14.17,0-21.47c4.1,0,8.19-0.01,12.29,0.02c0.28,0,0.7,0.23,0.82,0.47
		c0.93,1.83-0.14,3.5-2.2,3.5c-1.98,0-3.96,0-6.03,0c0,1.5,0,2.82,0,4.38c2.55,0,5.04,0,7.62,0c0,1.45,0,2.66,0,4.08
		c-2.45,0-4.93,0-7.58,0c0,1.73,0,3.27,0,5.11c1.91,0,3.88-0.02,5.85,0.01c3.01,0.05,2.8-0.55,2.8,2.82
		C223.47,333.28,223.41,333.57,223.35,334.07z"/>
	<path d="M320.66,326.87c0,2.29,0,4.67,0,7.15c-1.71,0-3.2,0-4.88,0c0-1.28,0-2.44,0-3.61c0-5.22,0.05-10.45-0.03-15.67
		c-0.02-1.47,0.46-1.99,1.89-1.96c2.46,0.05,4.94-0.16,7.38,0.04c3.77,0.31,5.95,2.5,6.29,5.94c0.34,3.39-1.58,6.29-5.08,7.27
		C324.51,326.53,322.67,326.59,320.66,326.87z M320.88,322.63c2.43,0.55,4.43,0.03,5.2-1.37c0.72-1.31,0.79-2.7-0.17-3.94
		c-0.94-1.2-2.92-1.43-5.02-0.66C320.88,318.62,320.88,320.59,320.88,322.63z"/>
	<path d="M280.53,313.57c-0.38,1.34-0.73,2.55-1.02,3.57c-1.88-0.18-3.57-0.55-5.22-0.42c-0.85,0.07-2.15,0.91-2.29,1.61
		c-0.14,0.67,0.78,1.84,1.54,2.33c1.31,0.85,2.9,1.25,4.29,1.99c2.31,1.22,3.69,3.11,3.45,5.82c-0.24,2.72-1.79,4.55-4.32,5.47
		c-3.47,1.26-6.89,0.91-10.45-0.5c0.44-1.4,0.86-2.7,1.21-3.8c1.98,0.31,3.74,0.7,5.53,0.84c1.36,0.11,2.86-0.06,3.24-1.74
		c0.39-1.72-0.98-2.31-2.23-2.9c-1.38-0.64-2.81-1.2-4.13-1.95c-2.03-1.16-3.2-2.91-3.03-5.34c0.17-2.45,1.42-4.22,3.63-5.2
		C273.96,311.91,277.19,312.17,280.53,313.57z"/>
	<path d="M190.53,316.99c0-1.47,0-2.68,0-4.05c5.46,0,10.92,0,16.51,0c0,1.29,0,2.54,0,4c-1.89,0-3.68,0-5.66,0
		c0,5.86,0,11.52,0,17.28c-1.69,0-3.18,0-4.89,0c0-5.67,0-11.33,0-17.24C194.4,316.99,192.51,316.99,190.53,316.99z"/>
	<path d="M165.81,334.23c-1.61,0-3.05,0-4.62,0c0-7.11,0-14.13,0-21.3c1.47,0,2.97,0,4.62,0
		C165.81,319.96,165.81,327.02,165.81,334.23z"/>
	<path d="M311.79,312.91c0,7.17,0,14.17,0,21.3c-1.57,0-3.06,0-4.68,0c0-7.09,0-14.14,0-21.3
		C308.62,312.91,310.12,312.91,311.79,312.91z"/>
</g>
</svg>
