<?xml version="1.0" encoding="utf-8"?>
<!-- Generator: Adobe Illustrator 23.0.1, SVG Export Plug-In . SVG Version: 6.00 Build 0)  -->
<svg version="1.1" id="Layer_1" xmlns="http://www.w3.org/2000/svg" xmlns:xlink="http://www.w3.org/1999/xlink" x="0px" y="0px"
	 viewBox="0 0 500 500" style="enable-background:new 0 0 500 500;" xml:space="preserve">
<style type="text/css">
	.st0{fill:none;stroke:#000000;stroke-width:10;stroke-miterlimit:10;}
</style>
<g>
	<path d="M366.53,360.16c-1.18,2.09-3.02,2.68-5.33,2.68c-74.11-0.03-148.22-0.02-222.33-0.03c-4.17,0-5.37-1.24-5.37-5.47
		c0-6.45,0.08-12.9-0.02-19.34c-0.12-7.51,2.75-13.37,9.08-17.49c0.18-0.11,0.29-0.32,0.43-0.49c-8.05-9.07-6.27-18.3-2.54-24.03
		c4.03-6.2,12.05-9.51,19.23-8.03c7.83,1.61,13.47,7.63,14.97,15.75c1.02-2.35,1.89-5.03,3.28-7.4c2.3-3.94,5.86-6.48,10.23-7.82
		c0.96-0.29,1.79-0.47,1.78-1.87c-0.07-9.41-0.05-18.81-0.07-28.22c0-0.21-0.13-0.42-0.28-0.86c-1.98,0-4.01,0.03-6.04-0.01
		c-3.64-0.06-4.94-1.35-4.96-4.96c-0.02-4.1-0.01-8.19,0-12.29c0.01-4.1,1.18-5.27,5.28-5.31c0.67-0.01,1.34,0,2.3,0
		c0-3.41,0.07-6.66-0.02-9.9c-0.06-2.04,0.56-3.63,2.05-5.05c2.19-2.09,4.22-4.35,6.34-6.56c1.93,1.93,3.63,3.64,5.71,5.72
		c-0.64,0.45-1.34,0.82-1.88,1.35c-5.26,5.24-5.64,6.46-4.52,14.31c9.81,0,19.64,0,29.64,0c0-7.37,0-14.76,0-22.46
		c-2.99,0-6.05-0.36-9,0.07c-8.02,1.17-13.84-1.71-19.15-7.81c-6.81-7.82-14.57-14.81-21.91-22.16c-3.12-3.12-3.11-4.66,0.02-7.8
		c3.05-3.06,6.1-6.13,9.17-9.17c2.61-2.59,4.38-2.61,6.97-0.03c6.34,6.31,12.69,12.63,18.97,19.01c1.15,1.17,2.28,1.72,3.96,1.7
		c5.99-0.1,11.98-0.04,17.98-0.04c0.73,0,1.46,0,2.69,0c-4.8-6.15-6.72-12.63-5.14-19.88c1.23-5.63,4.24-10.21,8.95-13.52
		c8.2-5.75,19.21-6.03,27.9,1.55c4.6,4.02,7.12,9.17,7.54,15.28c0.42,6.08-1.54,11.44-5.66,16.58c2.07,0,3.63-0.03,5.18,0
		c11.49,0.25,19.32,8.13,19.41,19.64c0.07,8.87,0.01,17.75,0.01,26.62c0,0.75,0,1.5,0,2.4c5.02,0,9.89,0,15.02,0
		c0-2.99,0.07-5.93-0.05-8.86c-0.03-0.63-0.62-1.34-1.12-1.84c-1.71-1.72-3.49-3.36-5.32-5.11c1.97-1.84,3.73-3.48,5.5-5.12
		c2.38,2.32,5.02,4.7,7.39,7.34c0.75,0.84,0.97,2.35,1.02,3.57c0.13,3.31,0.05,6.64,0.05,10.19c1.37,0,2.49-0.05,3.61,0.01
		c2.4,0.14,3.87,1.45,3.92,3.87c0.11,4.93,0.11,9.86,0,14.79c-0.06,2.48-1.52,3.74-4.17,3.86c-2.26,0.1-4.53,0.02-6.89,0.02
		c-0.08,0.71-0.2,1.22-0.2,1.73c-0.01,8.95-0.01,17.9-0.01,26.85c0,0.98-0.12,1.83,1.25,2.24c7.3,2.21,11.77,7.12,13.45,14.57
		c0.08,0.35,0.23,0.69,0.41,1.23c1.98-9.02,7.78-15.05,15.5-16.27c7.52-1.19,15.23,2.25,19.05,8.44c3.92,6.34,4.66,15.55-2.77,23.63
		c1.42,1.22,2.9,2.38,4.26,3.67c2.92,2.75,4.16,6.41,5.24,10.13C366.53,342.56,366.53,351.36,366.53,360.16z M287.57,304.82
		c1.47-8.43,5.81-13.97,13.69-16.41c1.42-0.44,1.43-1.27,1.42-2.37c-0.01-8.8,0-17.59-0.02-26.39c0-0.64-0.11-1.29-0.17-1.9
		c-35.14,0-70.04,0-104.87,0c-0.12,0.34-0.22,0.48-0.22,0.62c-0.02,9.4-0.07,18.8,0.02,28.2c0.01,0.64,0.97,1.42,1.67,1.87
		c2.64,1.71,5.54,3.07,7.95,5.04c1.57,1.28,2.64,3.3,3.58,5.17c0.89,1.78,1.31,3.79,1.94,5.74c1.09-8.58,7.8-15.59,15.8-16.54
		c5.1-0.61,9.8,0.39,13.97,3.47c4.19,3.09,6.54,7.35,7.59,12.82c3.18-13.37,13.34-17.24,21.35-16.36
		C279.36,288.68,286.12,295.43,287.57,304.82z M283.69,234.88c0-10.61,0-21-0.01-31.38c0-0.52-0.16-1.04-0.31-1.55
		c-1.5-5.29-5.77-8.34-11.84-8.34c-20.4-0.02-40.8-0.03-61.2,0.03c-2.31,0.01-4.02-0.72-5.62-2.35
		c-5.57-5.69-11.23-11.29-16.87-16.92c-0.56-0.56-1.16-1.09-1.27-1.18c-2.1,2.03-4.03,3.9-6.01,5.81
		c8.27,8.26,16.67,16.69,25.14,25.06c0.55,0.54,1.59,0.82,2.4,0.83c5.99,0.07,11.98,0.03,17.97,0.04c3.9,0.01,5.17,1.27,5.18,5.18
		c0.02,7.28,0.01,14.56,0.01,21.84c0,0.95,0,1.91,0,2.88c11.41,0,22.52,0,33.82,0c0-8.76,0-17.37,0-26.03c2.57,0,4.94,0,7.55,0
		c0,8.77,0,17.38,0,26.08C276.43,234.88,279.96,234.88,283.69,234.88z M186.26,249.88c42.65,0,85.02,0,127.4,0c0-2.5,0-4.86,0-7.25
		c-42.57,0-84.93,0-127.4,0C186.26,245.11,186.26,247.43,186.26,249.88z M208.63,355.12c0-6.22,0.04-12.2-0.01-18.17
		c-0.07-6.98-4.71-11.63-11.7-11.79c-2.19-0.05-4.39-0.05-6.59,0c-6.95,0.16-11.66,4.86-11.74,11.8c-0.07,5.6-0.02,11.21-0.01,16.81
		c0,0.43,0.11,0.86,0.18,1.35C188.7,355.12,198.52,355.12,208.63,355.12z M321.21,355.09c0.09-0.31,0.21-0.52,0.21-0.72
		c0.01-5.83,0.08-11.66,0-17.49c-0.09-6.82-4.78-11.51-11.6-11.71c-2.19-0.06-4.39-0.05-6.59-0.01
		c-7.12,0.13-11.78,4.78-11.84,11.88c-0.05,5.45-0.02,10.9,0,16.36c0,0.57,0.11,1.15,0.18,1.81c9.63,0,19.09,0,28.55,0
		C320.49,355.2,320.85,355.13,321.21,355.09z M170.96,355.08c0.06-0.56,0.15-1,0.15-1.44c-0.04-5.99,0.18-11.99-0.2-17.96
		c-0.39-6.19-4.88-10.21-11.06-10.49c-2.57-0.12-5.16-0.13-7.73,0.01c-6.26,0.33-10.68,4.61-10.97,10.85
		c-0.24,5.15-0.09,10.31-0.11,15.47c0,1.18,0,2.36,0,3.57C151.22,355.08,161.04,355.08,170.96,355.08z M358.93,355.13
		c0-6.48,0.18-12.76-0.05-19.03c-0.23-6.26-4.66-10.55-10.91-10.9c-2.65-0.15-5.31-0.15-7.96,0c-6.08,0.33-10.48,4.33-10.89,10.42
		c-0.38,5.59-0.17,11.21-0.21,16.82c-0.01,0.87,0,1.74,0,2.69C339.05,355.13,348.82,355.13,358.93,355.13z M216.37,355.2
		c9.78,0,19.31,0,28.84-0.01c0.28,0,0.57-0.1,0.96-0.18c0-6.55,0.31-13.06-0.09-19.52c-0.37-6.04-4.93-10.01-10.99-10.3
		c-2.57-0.13-5.15-0.12-7.72,0c-5.68,0.27-10.6,4.16-10.9,9.38C216.07,341.34,216.37,348.15,216.37,355.2z M283.79,355.12
		c0-6.29,0.08-12.33-0.02-18.38c-0.11-6.85-4.76-11.41-11.66-11.57c-2.12-0.05-4.24-0.04-6.36,0c-7.21,0.11-11.9,4.76-12,12.01
		c-0.08,5.53-0.02,11.05-0.01,16.58c0,0.43,0.12,0.86,0.19,1.37C263.85,355.12,273.66,355.12,283.79,355.12z M249.99,156.12
		c-8.29,0.01-15.04,6.78-14.99,15.04c0.05,8.14,6.73,14.83,14.92,14.94c8.14,0.11,15.08-6.77,15.11-14.98
		C265.05,162.87,258.28,156.11,249.99,156.12z M167.25,306.45c0.02-6.23-5.02-11.34-11.2-11.34c-6.09,0-11.14,5.02-11.21,11.11
		c-0.07,6.24,4.86,11.33,11.1,11.44C162.08,317.78,167.22,312.67,167.25,306.45z M332.78,306.49c0.04,6.13,5,11.11,11.13,11.18
		c6.25,0.07,11.37-5.14,11.29-11.48c-0.08-6.09-5.17-11.1-11.25-11.07C337.75,295.14,332.74,300.25,332.78,306.49z M242.42,306.45
		c0.04-6.21-5.02-11.34-11.2-11.34c-6.06,0-11.16,5.03-11.25,11.1c-0.09,6.18,4.92,11.33,11.12,11.45
		C237.23,317.78,242.38,312.68,242.42,306.45z M280.05,306.39c0-6.18-5.16-11.32-11.3-11.27c-6.1,0.04-11.08,5.04-11.14,11.17
		c-0.06,6.22,4.95,11.33,11.16,11.38C274.89,317.71,280.05,312.56,280.05,306.39z M204.91,306.38c-0.01-6.12-5.24-11.31-11.35-11.26
		c-6.05,0.05-11.11,5.1-11.21,11.17c-0.09,6.1,5.07,11.33,11.23,11.37C199.69,317.71,204.92,312.5,204.91,306.38z M295.12,306.4
		c0,6.12,5.25,11.32,11.34,11.26c6.09-0.06,11.1-5.06,11.21-11.16c0.1-6.08-5.09-11.35-11.22-11.38
		C300.34,295.08,295.11,300.28,295.12,306.4z M244.67,320.33c1.5,1.31,3.42,2.99,5.34,4.67c1.91-1.66,3.82-3.33,5.34-4.65
		c-1.95-3.79-3.83-7.46-5.33-10.38C248.48,312.94,246.61,316.57,244.67,320.33z M174.84,325c1.94-1.69,3.85-3.36,5.28-4.62
		c-1.98-4-3.88-7.81-5.57-11.22c-0.43,3.89-2.5,7.58-5.54,10.75C171,321.65,172.87,323.28,174.84,325z M325.48,309.22
		c-1.74,3.45-3.68,7.28-5.63,11.14c1.62,1.4,3.53,3.05,5.35,4.62c1.95-1.7,3.81-3.33,5.81-5.07
		C327.98,316.74,325.9,313.06,325.48,309.22z M218.2,319.97c-4.17-5.4-4.8-6.71-5.8-12.35c-0.55,5.04-2.59,8.99-5.8,12.31
		c2.09,1.82,4,3.47,5.84,5.07C214.35,323.32,216.21,321.69,218.2,319.97z M287.61,324.99c1.88-1.65,3.8-3.32,5.84-5.1
		c-3.3-3.28-5.18-7.25-5.9-11.81c-0.43,4.75-2.75,8.56-5.73,11.89C283.89,321.76,285.76,323.39,287.61,324.99z"/>
	<path d="M306.42,190.32c-2.83-0.81-5.59-1.2-7.98-2.36c-6.66-3.23-10.4-8.68-10.69-16.16c-0.2-5.3-0.27-10.62-0.04-15.91
		c0.47-11.06,8.23-18.53,19.39-18.65c12.05-0.13,24.1-0.06,36.16-0.02c10.72,0.04,18.99,7.57,19.43,18.18
		c0.24,5.74,0.16,11.52-0.14,17.26c-0.48,9.38-8.46,17.25-19.33,17.24c-4.93,0-9.86-0.07-14.78,0.06c-0.99,0.02-2.2,0.54-2.91,1.22
		c-3.99,3.83-7.87,7.78-11.78,11.7c-1.39,1.4-2.86,2.57-5,1.68c-2.13-0.89-2.37-2.7-2.34-4.71
		C306.46,196.6,306.42,193.35,306.42,190.32z M313.87,191.42c0.17,0.08,0.34,0.17,0.51,0.25c2.32-2.34,4.7-4.61,6.93-7.03
		c1.56-1.69,3.34-2.39,5.63-2.36c5.76,0.08,11.52,0.13,17.28-0.03c6.31-0.18,10.82-4.76,10.95-11.03c0.11-5.08,0.11-10.16,0-15.23
		c-0.13-6.38-4.74-11.07-11.11-11.13c-12.58-0.11-25.16-0.1-37.75,0c-6.16,0.05-10.86,4.5-11.14,10.65
		c-0.24,5.37-0.24,10.77,0,16.14c0.27,6.06,4.86,10.33,10.93,10.63c1.13,0.06,2.28-0.01,3.41,0.05c2.95,0.16,4.24,1.47,4.33,4.4
		C313.9,188.29,313.87,189.85,313.87,191.42z"/>
	<path d="M253.6,208.56c-2.47,0-4.72,0-7.14,0c0-2.37,0-4.67,0-7.17c2.3,0,4.65,0,7.14,0C253.6,203.74,253.6,206.04,253.6,208.56z"
		/>
	<path d="M302.83,159.69c0-2.47,0-4.84,0-7.32c14.97,0,29.78,0,44.77,0c0,2.43,0,4.8,0,7.32
		C332.69,159.69,317.82,159.69,302.83,159.69z"/>
	<path d="M310.26,167.41c2.43,0,4.74,0,7.25,0c0,2.39,0,4.76,0,7.3c-2.38,0-4.74,0-7.25,0
		C310.26,172.28,310.26,169.91,310.26,167.41z"/>
	<path d="M332.61,167.43c0,2.45,0,4.76,0,7.26c-2.4,0-4.77,0-7.3,0c0-2.37,0-4.74,0-7.26C327.69,167.43,330,167.43,332.61,167.43z"
		/>
	<path d="M347.67,167.47c0,2.48,0,4.79,0,7.26c-2.49,0-4.86,0-7.35,0c0-2.42,0-4.74,0-7.26
		C342.68,167.47,345.05,167.47,347.67,167.47z"/>
</g>
</svg>
