<?xml version="1.0" encoding="UTF-8"?>
<!DOCTYPE svg PUBLIC "-//W3C//DTD SVG 1.1//EN" "http://www.w3.org/Graphics/SVG/1.1/DTD/svg11.dtd">
<!-- Creator: CorelDRAW X7 -->
<svg xmlns="http://www.w3.org/2000/svg" xml:space="preserve" width="273.5mm" height="90mm" version="1.1" style="shape-rendering:geometricPrecision; text-rendering:geometricPrecision; image-rendering:optimizeQuality; fill-rule:evenodd; clip-rule:evenodd"
viewBox="0 0 27350 9000"
 xmlns:xlink="http://www.w3.org/1999/xlink">
 <defs>
  <style type="text/css">
   <![CDATA[
    .fil41 {fill:#FEFEFE;fill-rule:nonzero}
    .fil26 {fill:url(#id0)}
    .fil31 {fill:url(#id1)}
    .fil1 {fill:url(#id2)}
    .fil0 {fill:url(#id3)}
    .fil22 {fill:url(#id4)}
    .fil25 {fill:url(#id5)}
    .fil15 {fill:url(#id6)}
    .fil5 {fill:url(#id7)}
    .fil2 {fill:url(#id8)}
    .fil39 {fill:url(#id9)}
    .fil40 {fill:url(#id10)}
    .fil10 {fill:url(#id11)}
    .fil12 {fill:url(#id12)}
    .fil9 {fill:url(#id13)}
    .fil21 {fill:url(#id14)}
    .fil16 {fill:url(#id15)}
    .fil34 {fill:url(#id16)}
    .fil32 {fill:url(#id17)}
    .fil6 {fill:url(#id18)}
    .fil11 {fill:url(#id19)}
    .fil27 {fill:url(#id20)}
    .fil14 {fill:url(#id21)}
    .fil7 {fill:url(#id22)}
    .fil28 {fill:url(#id23)}
    .fil33 {fill:url(#id24)}
    .fil19 {fill:url(#id25)}
    .fil36 {fill:url(#id26)}
    .fil13 {fill:url(#id27)}
    .fil20 {fill:url(#id28)}
    .fil38 {fill:url(#id29)}
    .fil23 {fill:url(#id30)}
    .fil35 {fill:url(#id31)}
    .fil18 {fill:url(#id32)}
    .fil30 {fill:url(#id33)}
    .fil4 {fill:url(#id34)}
    .fil24 {fill:url(#id35)}
    .fil17 {fill:url(#id36)}
    .fil3 {fill:url(#id37)}
    .fil37 {fill:url(#id38)}
    .fil8 {fill:url(#id39)}
    .fil29 {fill:url(#id40)}
   ]]>
  </style>
  <linearGradient id="id0" gradientUnits="userSpaceOnUse" x1="7687.77" y1="6374.36" x2="3046.4" y2="830.46">
   <stop offset="0" style="stop-opacity:1; stop-color:#D8EEFC"/>
   <stop offset="1" style="stop-opacity:1; stop-color:#DBF0FC"/>
  </linearGradient>
  <linearGradient id="id1" gradientUnits="userSpaceOnUse" x1="24655.9" y1="2592.48" x2="23631.2" y2="193.98">
   <stop offset="0" style="stop-opacity:1; stop-color:#DCF0FC"/>
   <stop offset="1" style="stop-opacity:1; stop-color:#E5F4FD"/>
  </linearGradient>
  <linearGradient id="id2" gradientUnits="userSpaceOnUse" x1="17102.7" y1="7374.37" x2="12865.6" y2="-286.87">
   <stop offset="0" style="stop-opacity:1; stop-color:#D0EDFB"/>
   <stop offset="1" style="stop-opacity:1; stop-color:#E7F5FD"/>
  </linearGradient>
  <linearGradient id="id3" gradientUnits="userSpaceOnUse" x1="26849.2" y1="2665.06" x2="24968.4" y2="121.37">
   <stop offset="0" style="stop-opacity:1; stop-color:#DFF2FC"/>
   <stop offset="1" style="stop-opacity:1; stop-color:#E1F3FC"/>
  </linearGradient>
  <linearGradient id="id4" gradientUnits="userSpaceOnUse" x1="27418" y1="7897.67" x2="24739.8" y2="5231.61">
   <stop offset="0" style="stop-opacity:1; stop-color:#DFF2FC"/>
   <stop offset="1" style="stop-opacity:1; stop-color:#DCF1FC"/>
  </linearGradient>
  <linearGradient id="id5" gradientUnits="userSpaceOnUse" x1="12453.5" y1="4357.15" x2="9399.4" y2="-104.44">
   <stop offset="0" style="stop-opacity:1; stop-color:#E4F4FD"/>
   <stop offset="1" style="stop-opacity:1; stop-color:#E1F3FC"/>
  </linearGradient>
  <linearGradient id="id6" gradientUnits="userSpaceOnUse" x1="25381.1" y1="8774.17" x2="24794.8" y2="8005.08">
   <stop offset="0" style="stop-opacity:1; stop-color:#DAF1FC"/>
   <stop offset="1" style="stop-opacity:1; stop-color:#E1F3FC"/>
  </linearGradient>
  <linearGradient id="id7" gradientUnits="userSpaceOnUse" xlink:href="#id6" x1="25583.1" y1="8781.97" x2="25348" y2="8368.73">
  </linearGradient>
  <linearGradient id="id8" gradientUnits="userSpaceOnUse" x1="16850.9" y1="7422.69" x2="13117.4" y2="3673.32">
   <stop offset="0" style="stop-opacity:1; stop-color:#DCF0FC"/>
   <stop offset="1" style="stop-opacity:1; stop-color:#ECF7FD"/>
  </linearGradient>
  <linearGradient id="id9" gradientUnits="userSpaceOnUse" x1="23528.4" y1="6699.81" x2="18209.3" y2="387.67">
   <stop offset="0" style="stop-opacity:1; stop-color:#CAEBFB"/>
   <stop offset="1" style="stop-opacity:1; stop-color:#C4E9FB"/>
  </linearGradient>
  <linearGradient id="id10" gradientUnits="userSpaceOnUse" x1="22071.3" y1="6756.97" x2="17465.3" y2="330.54">
   <stop offset="0" style="stop-opacity:1; stop-color:#D5EFFC"/>
   <stop offset="1" style="stop-opacity:1; stop-color:#E1F3FC"/>
  </linearGradient>
  <linearGradient id="id11" gradientUnits="userSpaceOnUse" x1="4389.15" y1="8994.49" x2="2774.82" y2="6631.29">
   <stop offset="0" style="stop-opacity:1; stop-color:#D2EEFB"/>
   <stop offset="1" style="stop-opacity:1; stop-color:#DFF2FC"/>
  </linearGradient>
  <linearGradient id="id12" gradientUnits="userSpaceOnUse" x1="5066.61" y1="5964.92" x2="-723.93" y2="1239.89">
   <stop offset="0" style="stop-opacity:1; stop-color:#CCECFB"/>
   <stop offset="1" style="stop-opacity:1; stop-color:#C4E9FB"/>
  </linearGradient>
  <linearGradient id="id13" gradientUnits="userSpaceOnUse" x1="5667.13" y1="8751.73" x2="4394.03" y2="6874.05">
   <stop offset="0" style="stop-opacity:1; stop-color:#E4F4FD"/>
   <stop offset="1" style="stop-opacity:1; stop-color:#DCF1FC"/>
  </linearGradient>
  <linearGradient id="id14" gradientUnits="userSpaceOnUse" x1="15309.3" y1="9078.95" x2="13909.6" y2="6761.87">
   <stop offset="0" style="stop-opacity:1; stop-color:#B3E3FA"/>
   <stop offset="1" style="stop-opacity:1; stop-color:#C7EAFB"/>
  </linearGradient>
  <linearGradient id="id15" gradientUnits="userSpaceOnUse" x1="22356.3" y1="9593.68" x2="21238.6" y2="5914.76">
   <stop offset="0" style="stop-opacity:1; stop-color:#E1F3FC"/>
   <stop offset="1" style="stop-opacity:1; stop-color:#CCECFB"/>
  </linearGradient>
  <linearGradient id="id16" gradientUnits="userSpaceOnUse" x1="12235.3" y1="9357.22" x2="9384.98" y2="4919.57">
   <stop offset="0" style="stop-opacity:1; stop-color:#E7F5FD"/>
   <stop offset="1" style="stop-opacity:1; stop-color:#E1F3FC"/>
  </linearGradient>
  <linearGradient id="id17" gradientUnits="userSpaceOnUse" x1="24247.2" y1="6820.06" x2="18937" y2="1519.36">
   <stop offset="0" style="stop-opacity:1; stop-color:#DCF0FC"/>
   <stop offset="1" style="stop-opacity:1; stop-color:#D4EDFC"/>
  </linearGradient>
  <linearGradient id="id18" gradientUnits="userSpaceOnUse" x1="13979.3" y1="8893.84" x2="12046.2" y2="6946.98">
   <stop offset="0" style="stop-opacity:1; stop-color:#D0EDFB"/>
   <stop offset="1" style="stop-opacity:1; stop-color:#E9F6FD"/>
  </linearGradient>
  <linearGradient id="id19" gradientUnits="userSpaceOnUse" x1="4911.92" y1="5778.46" x2="840.68" y2="1426.35">
   <stop offset="0" style="stop-opacity:1; stop-color:#D8EEFC"/>
   <stop offset="1" style="stop-opacity:1; stop-color:#CFEBFB"/>
  </linearGradient>
  <linearGradient id="id20" gradientUnits="userSpaceOnUse" x1="3096.13" y1="9403.45" x2="1246.53" y2="6222.33">
   <stop offset="0" style="stop-opacity:1; stop-color:#BDE6FA"/>
   <stop offset="1" style="stop-opacity:1; stop-color:#BDE6FA"/>
  </linearGradient>
  <linearGradient id="id21" gradientUnits="userSpaceOnUse" x1="26675.6" y1="8967.22" x2="25527.2" y2="7812.03">
   <stop offset="0" style="stop-opacity:1; stop-color:#D7EFFC"/>
   <stop offset="1" style="stop-opacity:1; stop-color:#DCF1FC"/>
  </linearGradient>
  <linearGradient id="id22" gradientUnits="userSpaceOnUse" xlink:href="#id13" x1="6675.33" y1="9135.16" x2="4938.72" y2="6490.62">
  </linearGradient>
  <linearGradient id="id23" gradientUnits="userSpaceOnUse" x1="3902.2" y1="8351.61" x2="440.46" y2="5154.91">
   <stop offset="0" style="stop-opacity:1; stop-color:#C7EAFB"/>
   <stop offset="1" style="stop-opacity:1; stop-color:#BFE7FA"/>
  </linearGradient>
  <linearGradient id="id24" gradientUnits="userSpaceOnUse" x1="12649" y1="7402.09" x2="8971.33" y2="3693.92">
   <stop offset="0" style="stop-opacity:1; stop-color:#E1F3FC"/>
   <stop offset="1" style="stop-opacity:1; stop-color:#DCF1FC"/>
  </linearGradient>
  <linearGradient id="id25" gradientUnits="userSpaceOnUse" x1="18761.5" y1="8897.12" x2="17373.9" y2="6611.32">
   <stop offset="0" style="stop-opacity:1; stop-color:#DCF1FC"/>
   <stop offset="1" style="stop-opacity:1; stop-color:#BFE7FA"/>
  </linearGradient>
  <linearGradient id="id26" gradientUnits="userSpaceOnUse" x1="8608.31" y1="9435.12" x2="5297.09" y2="4841.7">
   <stop offset="0" style="stop-opacity:1; stop-color:#E4F4FD"/>
   <stop offset="1" style="stop-opacity:1; stop-color:#D5EFFC"/>
  </linearGradient>
  <linearGradient id="id27" gradientUnits="userSpaceOnUse" x1="27654.6" y1="8367.9" x2="24945.5" y2="5811.16">
   <stop offset="0" style="stop-opacity:1; stop-color:#D7EFFC"/>
   <stop offset="1" style="stop-opacity:1; stop-color:#DFF2FC"/>
  </linearGradient>
  <linearGradient id="id28" gradientUnits="userSpaceOnUse" x1="17109.6" y1="9392.39" x2="14461.8" y2="6116.06">
   <stop offset="0" style="stop-opacity:1; stop-color:#B8E5FA"/>
   <stop offset="1" style="stop-opacity:1; stop-color:#C7EAFB"/>
  </linearGradient>
  <linearGradient id="id29" gradientUnits="userSpaceOnUse" x1="23809.3" y1="1442.75" x2="22984.4" y2="385.75">
   <stop offset="0" style="stop-opacity:1; stop-color:#ECF7FD"/>
   <stop offset="1" style="stop-opacity:1; stop-color:#DCF0FC"/>
  </linearGradient>
  <linearGradient id="id30" gradientUnits="userSpaceOnUse" x1="27025.5" y1="4933.01" x2="25132.2" y2="3034.98">
   <stop offset="0" style="stop-opacity:1; stop-color:#DFF2FC"/>
   <stop offset="1" style="stop-opacity:1; stop-color:#D7EFFC"/>
  </linearGradient>
  <linearGradient id="id31" gradientUnits="userSpaceOnUse" x1="11579.6" y1="5170.37" x2="7526.16" y2="685.48">
   <stop offset="0" style="stop-opacity:1; stop-color:#E1F3FC"/>
   <stop offset="1" style="stop-opacity:1; stop-color:#DFF2FC"/>
  </linearGradient>
  <linearGradient id="id32" gradientUnits="userSpaceOnUse" xlink:href="#id21" x1="27354.2" y1="5651.5" x2="27279.1" y2="5642">
  </linearGradient>
  <linearGradient id="id33" gradientUnits="userSpaceOnUse" x1="25064.3" y1="4225.73" x2="23222.8" y2="2373.75">
   <stop offset="0" style="stop-opacity:1; stop-color:#DCF0FC"/>
   <stop offset="1" style="stop-opacity:1; stop-color:#DBF0FC"/>
  </linearGradient>
  <linearGradient id="id34" gradientUnits="userSpaceOnUse" xlink:href="#id21" x1="26361.7" y1="8912.19" x2="25684.5" y2="8238.52">
  </linearGradient>
  <linearGradient id="id35" gradientUnits="userSpaceOnUse" x1="23896.1" y1="8650.49" x2="19698.8" y2="4478.79">
   <stop offset="0" style="stop-opacity:1; stop-color:#D5EFFC"/>
   <stop offset="1" style="stop-opacity:1; stop-color:#CCECFB"/>
  </linearGradient>
  <linearGradient id="id36" gradientUnits="userSpaceOnUse" x1="27333" y1="5483.27" x2="27300.3" y2="5463.97">
   <stop offset="0" style="stop-opacity:1; stop-color:#CCECFB"/>
   <stop offset="1" style="stop-opacity:1; stop-color:#D7EFFC"/>
  </linearGradient>
  <linearGradient id="id37" gradientUnits="userSpaceOnUse" xlink:href="#id4" x1="27735.2" y1="4274.55" x2="24473.9" y2="1483.55">
  </linearGradient>
  <linearGradient id="id38" gradientUnits="userSpaceOnUse" x1="8842.97" y1="6393.74" x2="3823.27" y2="811.08">
   <stop offset="0" style="stop-opacity:1; stop-color:#DCF1FC"/>
   <stop offset="1" style="stop-opacity:1; stop-color:#D0EDFB"/>
  </linearGradient>
  <linearGradient id="id39" gradientUnits="userSpaceOnUse" x1="27348.6" y1="5394.56" x2="27284.6" y2="5380.78">
   <stop offset="0" style="stop-opacity:1; stop-color:#DCF1FC"/>
   <stop offset="1" style="stop-opacity:1; stop-color:#D5EFFC"/>
  </linearGradient>
  <linearGradient id="id40" gradientUnits="userSpaceOnUse" x1="4132.75" y1="7018.44" x2="209.93" y2="3642.65">
   <stop offset="0" style="stop-opacity:1; stop-color:#CAEBFB"/>
   <stop offset="1" style="stop-opacity:1; stop-color:#CCECFB"/>
  </linearGradient>
 </defs>
 <g id="Layer_x0020_1">
  <metadata id="CorelCorpID_0Corel-Layer"/>
  <g id="_2116484493888">
   <polygon class="fil0" points="27075,288 26729,636 26729,636 26729,636 26728,637 26728,637 26728,638 26726,639 26726,639 26726,639 26724,641 26724,641 26724,641 26722,643 26722,643 26722,643 26720,645 26720,645 26720,645 26718,647 26718,647 26718,647 26362,1005 26362,1005 26362,1005 26360,1007 26360,1007 26360,1007 26358,1009 26358,1009 26358,1009 26356,1011 26356,1011 26356,1011 26355,1012 26355,1012 26355,1013 26353,1014 26353,1014 26353,1014 25997,1372 25997,1372 25997,1372 25995,1374 25995,1374 25995,1374 25993,1376 25993,1376 25993,1376 25991,1378 25991,1378 25991,1378 25989,1380 25989,1380 25989,1380 25987,1382 25987,1382 25987,1382 25985,1384 25985,1384 25985,1384 25630,1741 25630,1741 25630,1741 25628,1743 25628,1743 25628,1743 25626,1745 25626,1745 25626,1745 25624,1747 25624,1747 25624,1747 25622,1749 25622,1749 25622,1749 25620,1751 25620,1751 25620,1751 25618,1753 25618,1753 25618,1753 25264,2108 25264,2108 25264,2108 25262,2110 25262,2110 25262,2110 25261,2112 25261,2112 25261,2112 25259,2114 25259,2114 25259,2114 25257,2116 25257,2116 25257,2116 25255,2118 25255,2118 25255,2118 25253,2120 25253,2120 25253,2120 24897,2478 24897,2478 24897,2478 24895,2479 24895,2479 24895,2480 24893,2481 24893,2481 24893,2481 24891,2483 24891,2483 24891,2483 24889,2485 24889,2485 24889,2485 24888,2487 24887,2487 24887,2487 24886,2489 24886,2489 24886,2489 24877,2498 24743,288 "/>
   <polygon class="fil1" points="18327,6799 17524,288 13806,288 11641,3964 "/>
   <polygon class="fil2" points="18327,6799 13244,7132 11641,3964 "/>
   <polygon class="fil3" points="27332,5306 27301,5470 24877,2498 27075,288 27332,288 "/>
   <polygon class="fil4" points="26564,8709 25483,8441 25721,8709 "/>
   <polygon class="fil5" points="25210,8709 25311,8610 25311,8610 25311,8610 25427,8496 25427,8496 25427,8496 25483,8441 25721,8709 25721,8709 25721,8709 25721,8709 "/>
   <polygon class="fil6" points="14165,8709 13244,7132 11860,8709 "/>
   <polygon class="fil7" points="5771,8709 4290,6917 7324,8709 "/>
   <polygon class="fil8" points="27332,5463 27301,5470 27332,5306 "/>
   <polygon class="fil9" points="4807,8709 4713,8382 4713,8382 4713,8382 4680,8268 4680,8268 4680,8268 4454,7484 4454,7484 4454,7484 4421,7370 4421,7370 4421,7370 4290,6917 5771,8709 "/>
   <polygon class="fil10" points="2357,8709 2983,8129 2983,8129 2983,8129 3862,7314 3862,7314 3862,7314 4290,6917 4486,7598 4486,7598 4807,8709 "/>
   <polygon class="fil11" points="4290,6917 3694,288 1462,288 "/>
   <polygon class="fil12" points="3984,6687 3984,6687 3984,6687 3653,6440 3653,6440 3653,6440 3323,6192 3323,6192 3323,6192 2992,5945 2992,5945 2992,5945 2339,5456 2339,5456 2339,5456 2009,5209 2009,5209 2009,5209 1678,4961 1678,4961 1678,4961 1347,4714 1347,4714 1347,4714 1017,4466 1017,4466 1017,4466 686,4219 686,4219 686,4219 356,3972 356,3972 356,3972 53,3745 53,288 1462,288 4290,6917 "/>
   <polygon class="fil13" points="27332,5824 27301,5470 25268,8070 26935,8709 27332,8709 "/>
   <polygon class="fil14" points="26564,8709 25483,8441 25268,8070 26935,8709 "/>
   <polygon class="fil15" points="24693,8709 25268,8070 25483,8441 25210,8709 "/>
   <polygon class="fil16" points="19071,8709 19004,8537 19004,8537 19004,8537 18990,8502 18990,8502 18990,8502 18919,8319 18919,8319 18919,8319 18905,8284 18905,8284 18905,8284 18834,8100 18834,8100 18834,8100 18749,7882 18749,7882 18749,7882 18664,7663 18664,7663 18664,7663 18579,7445 18579,7445 18579,7445 18507,7261 18507,7261 18507,7261 18422,7043 18422,7043 18422,7043 18337,6825 18337,6825 18337,6825 18327,6799 18845,6894 18845,6894 18845,6894 25268,8070 25201,8145 25201,8145 25201,8145 25183,8164 25183,8164 25183,8164 25166,8183 25166,8183 25166,8183 25098,8259 25081,8278 25081,8278 25081,8278 25063,8297 25063,8297 25063,8297 24978,8392 24978,8392 24978,8392 24961,8411 24961,8411 24961,8411 24944,8431 24944,8431 24944,8431 24859,8525 24858,8525 24858,8525 24841,8545 24841,8545 24841,8545 24756,8639 24756,8639 24756,8639 24739,8659 24739,8659 24739,8659 24721,8678 24721,8678 24721,8678 24693,8709 "/>
   <polygon class="fil17" points="27332,5484 27301,5470 27332,5463 "/>
   <polygon class="fil18" points="27332,5824 27301,5470 27332,5484 "/>
   <polygon class="fil19" points="17064,8709 18327,6799 19071,8709 "/>
   <polygon class="fil20" points="18327,6799 13244,7132 15975,8709 17064,8709 "/>
   <polygon class="fil21" points="14165,8709 13244,7132 15975,8709 "/>
   <polygon class="fil22" points="27301,5470 25268,8070 24857,5059 "/>
   <polygon class="fil23" points="27301,5470 24877,2498 24857,5059 "/>
   <polygon class="fil24" points="25268,8070 18327,6799 24857,5059 "/>
   <polygon class="fil25" points="13806,288 11641,3964 8047,288 "/>
   <polygon class="fil26" points="4290,6917 3694,288 7040,288 "/>
   <polygon class="fil27" points="53,7932 4290,6917 3995,7190 3995,7190 3995,7190 3489,7659 3489,7659 3489,7660 3116,8005 3116,8005 3116,8005 2610,8475 2610,8475 2610,8475 2357,8709 53,8709 "/>
   <polygon class="fil28" points="53,5575 4290,6917 3649,7070 3649,7070 3327,7147 3327,7147 3327,7147 3004,7225 3004,7225 3004,7225 2681,7302 2681,7302 2681,7302 2358,7379 2358,7379 2358,7379 2036,7457 2036,7457 2036,7457 1713,7534 1713,7534 1713,7534 1390,7611 1390,7611 1390,7611 1067,7688 1067,7688 1067,7688 744,7766 744,7766 744,7766 422,7843 422,7843 422,7843 53,7932 "/>
   <polygon class="fil29" points="4189,6884 4189,6884 4189,6884 3804,6763 3804,6763 3804,6763 3419,6641 3419,6641 3419,6641 3035,6519 3035,6519 3035,6519 2650,6397 2650,6397 2650,6397 2266,6276 2266,6276 2266,6276 1881,6154 1881,6154 1881,6154 1496,6032 1496,6032 1496,6032 1112,5910 1112,5910 1112,5910 727,5789 727,5789 727,5789 342,5667 342,5667 342,5667 53,5575 53,3745 2670,5703 2670,5703 3000,5951 4290,6917 "/>
   <polygon class="fil30" points="24877,2498 24857,5059 23410,1540 "/>
   <polygon class="fil31" points="24877,2498 24743,288 23754,288 23410,1540 "/>
   <polygon class="fil32" points="24857,5059 18327,6799 23410,1540 "/>
   <polygon class="fil33" points="13244,7132 11641,3964 8376,5568 "/>
   <polygon class="fil34" points="13244,7132 11860,8709 9615,8709 8376,5568 "/>
   <polygon class="fil35" points="11641,3964 8047,288 7465,288 8376,5568 "/>
   <polygon class="fil36" points="7324,8709 4290,6917 8376,5568 9615,8709 "/>
   <polygon class="fil37" points="7040,288 4290,6917 8376,5568 7465,288 "/>
   <polygon class="fil38" points="23754,288 23410,1540 23040,288 "/>
   <polygon class="fil39" points="23410,1540 18327,6799 22012,288 23040,288 "/>
   <polygon class="fil40" points="18327,6799 17524,288 22012,288 "/>
   <path class="fil41" d="M9047 1754c0,-10 -1,-20 0,-29 0,-15 9,-24 22,-23 12,0 20,9 20,22 1,18 -4,37 2,52 6,14 22,24 34,36 8,10 8,22 0,30 -9,9 -21,9 -30,0 -14,-13 -29,-27 -42,-42 -4,-4 -5,-11 -6,-18 -1,-9 0,-18 0,-28z"/>
  </g>
 </g>
</svg>
