<?xml version="1.0" standalone="no"?>
<!DOCTYPE svg PUBLIC "-//W3C//DTD SVG 20010904//EN"
 "http://www.w3.org/TR/2001/REC-SVG-20010904/DTD/svg10.dtd">
<svg version="1.0" xmlns="http://www.w3.org/2000/svg"
 width="898.000000pt" height="278.000000pt" viewBox="0 0 898.000000 278.000000"
 preserveAspectRatio="xMidYMid meet">

<g transform="translate(0.000000,278.000000) scale(0.100000,-0.100000)"
fill="#000000" stroke="none">
<path d="M5147 1995 c-101 -26 -167 -64 -242 -139 -105 -106 -155 -226 -155
-371 0 -301 253 -543 545 -522 98 7 184 36 247 82 55 40 68 73 44 111 -25 37
-45 40 -90 14 -122 -70 -136 -74 -236 -75 -85 0 -101 3 -155 29 -296 146 -297
575 -1 717 107 51 242 48 333 -8 25 -15 56 -34 68 -41 45 -24 104 22 91 71 -9
32 -90 87 -170 115 -88 30 -199 37 -279 17z"/>
<path d="M226 1968 c-14 -20 -16 -83 -16 -486 l0 -463 25 -24 24 -25 316 0
316 0 24 25 c29 28 31 51 9 83 -15 22 -17 22 -295 22 l-279 0 0 160 0 160 200
0 c187 0 201 1 220 20 26 26 26 64 0 90 -19 19 -33 20 -220 20 l-200 0 0 155
0 155 263 0 c283 0 304 4 321 52 7 20 5 33 -8 52 l-16 26 -335 0 c-334 0 -334
0 -349 -22z"/>
<path d="M1106 1974 c-14 -14 -16 -72 -16 -494 l0 -479 30 -16 c39 -20 260
-20 367 0 247 47 402 241 403 504 0 180 -92 352 -234 435 -90 52 -163 66 -356
66 -149 0 -181 -3 -194 -16z m435 -136 c168 -77 253 -269 204 -458 -30 -117
-97 -199 -204 -249 -50 -23 -70 -26 -188 -29 l-133 -4 0 387 0 387 133 -4
c116 -3 139 -7 188 -30z"/>
<path d="M2076 1971 c-15 -17 -17 -51 -14 -382 l3 -364 27 -57 c70 -149 255
-235 447 -208 143 20 254 97 307 213 l29 62 3 353 c4 407 4 406 -71 400 -67
-5 -67 -6 -67 -391 0 -380 0 -380 -76 -447 -57 -50 -98 -63 -195 -64 -76 -1
-92 2 -144 29 -66 34 -111 87 -125 151 -5 21 -10 186 -10 366 0 283 -2 329
-16 342 -21 22 -77 20 -98 -3z"/>
<path d="M3000 1971 c-15 -30 -12 -66 8 -84 16 -14 43 -17 170 -17 l152 0 0
-424 c0 -389 1 -425 18 -444 23 -27 52 -34 82 -19 l25 13 5 434 5 435 155 3
c125 2 157 6 172 19 20 18 23 54 8 84 -10 18 -25 19 -400 19 -375 0 -390 -1
-400 -19z"/>
<path d="M3936 1968 c-14 -20 -16 -83 -16 -486 l0 -463 25 -24 24 -25 316 0
316 0 24 25 c29 28 31 51 9 83 -15 22 -17 22 -295 22 l-279 0 0 160 0 160 198
0 c186 0 200 1 220 20 27 26 28 64 2 90 -19 19 -33 20 -220 20 l-200 0 0 155
0 155 263 0 c283 0 304 4 321 52 7 20 5 33 -8 52 l-16 26 -335 0 c-334 0 -334
0 -349 -22z"/>
<path d="M5786 1968 c-14 -20 -16 -82 -16 -481 0 -304 4 -465 11 -478 20 -38
73 -44 109 -12 3 3 7 100 10 216 l5 212 290 0 290 0 6 -215 c3 -118 6 -216 7
-216 46 -30 91 -23 112 16 6 12 10 184 10 477 0 511 1 503 -64 503 -61 0 -65
-13 -68 -236 l-3 -199 -292 -3 -293 -2 0 204 c0 228 -2 236 -65 236 -24 0 -39
-7 -49 -22z"/>
<path d="M6890 1925 l0 -65 390 0 c215 0 390 3 390 6 0 4 -19 33 -42 65 l-43
58 -347 1 -348 0 0 -65z"/>
<path d="M8493 1968 c-24 -28 -187 -238 -197 -255 -7 -13 58 -108 74 -108 8 0
300 370 300 380 0 3 -35 5 -78 5 -69 0 -81 -3 -99 -22z"/>
<path d="M6890 1440 l0 -30 183 0 c100 0 212 3 250 7 62 5 67 8 67 29 l0 24
-250 0 -250 0 0 -30z"/>
<path d="M8326 1303 c-20 -26 -35 -51 -34 -55 2 -5 50 -69 107 -143 l104 -135
85 0 c80 0 84 1 70 18 -8 9 -74 95 -148 190 -73 94 -136 172 -140 172 -4 0
-24 -21 -44 -47z"/>
<path d="M6890 1035 l0 -65 344 0 344 0 39 53 c22 28 43 58 47 65 6 9 -74 12
-383 12 l-391 0 0 -65z"/>
<path d="M1930 571 c0 -133 6 -164 36 -195 49 -48 156 -39 198 17 18 25 21 45
25 158 3 126 2 129 -18 129 -20 0 -21 -5 -21 -102 0 -116 -12 -173 -40 -188
-30 -16 -86 -12 -111 9 -23 18 -24 27 -27 150 -3 121 -5 131 -23 131 -18 0
-19 -8 -19 -109z"/>
<path d="M2510 515 c0 -158 1 -165 20 -165 19 0 20 7 20 165 0 158 -1 165 -20
165 -19 0 -20 -7 -20 -165z"/>
<path d="M3090 515 c0 -140 2 -165 15 -165 11 0 15 11 15 43 0 31 6 49 19 61
19 17 21 16 58 -43 28 -46 44 -61 61 -61 22 0 22 0 5 28 -10 15 -32 48 -50 73
l-32 46 39 38 c22 22 40 43 40 47 0 22 -41 3 -80 -37 -24 -25 -48 -45 -52 -45
-4 0 -8 41 -8 90 0 73 -3 90 -15 90 -13 0 -15 -25 -15 -165z"/>
<path d="M3415 670 c3 -6 31 -47 61 -93 53 -80 54 -84 54 -154 0 -66 2 -73 20
-73 18 0 20 7 20 66 0 64 2 68 59 152 77 116 76 112 51 112 -15 0 -34 -21 -68
-74 -26 -41 -50 -75 -53 -75 -3 -1 -27 33 -53 74 -38 60 -52 75 -72 75 -14 0
-22 -4 -19 -10z"/>
<path d="M4490 516 c0 -159 1 -166 20 -166 18 0 20 7 20 65 l0 65 48 0 c110 0
168 42 159 114 -9 67 -32 80 -147 84 l-100 4 0 -166z m195 100 c19 -29 11 -72
-15 -86 -10 -6 -46 -10 -79 -10 l-61 0 0 60 0 60 70 0 c62 0 71 -2 85 -24z"/>
<path d="M5800 655 c0 -16 6 -25 15 -25 9 0 15 9 15 25 0 16 -6 25 -15 25 -9
0 -15 -9 -15 -25z"/>
<path d="M6150 515 c0 -158 1 -165 20 -165 19 0 20 7 20 165 0 158 -1 165 -20
165 -19 0 -20 -7 -20 -165z"/>
<path d="M5058 659 c-11 -6 -18 -22 -18 -39 0 -20 -5 -30 -15 -30 -8 0 -15 -7
-15 -15 0 -8 7 -15 15 -15 12 0 15 -17 15 -93 0 -59 4 -97 12 -105 18 -18 68
-15 68 3 0 8 -9 15 -20 15 -19 0 -20 7 -20 90 0 83 1 90 20 90 11 0 20 7 20
15 0 8 -9 15 -19 15 -16 0 -20 8 -23 39 -3 35 -5 38 -20 30z"/>
<path d="M5687 653 c-4 -3 -7 -19 -7 -35 0 -18 -5 -28 -15 -28 -8 0 -15 -7
-15 -15 0 -8 7 -15 15 -15 12 0 15 -17 15 -89 0 -49 3 -96 6 -105 8 -22 74
-22 74 -1 0 8 -9 15 -19 15 -25 0 -31 19 -31 102 0 61 2 70 20 75 11 3 20 12
20 19 0 8 -9 14 -20 14 -16 0 -20 7 -20 35 0 33 -8 43 -23 28z"/>
<path d="M2260 470 c0 -100 3 -120 15 -120 12 0 15 14 15 69 0 102 18 141 67
141 42 0 53 -24 53 -121 0 -84 1 -89 21 -89 20 0 21 4 17 101 -3 92 -5 103
-27 120 -28 23 -78 25 -109 3 -20 -14 -22 -14 -22 0 0 9 -7 16 -15 16 -12 0
-15 -20 -15 -120z"/>
<path d="M2644 579 c-53 -26 -71 -126 -34 -186 40 -66 148 -62 183 7 28 54 18
126 -22 162 -33 30 -85 37 -127 17z m105 -45 c37 -47 19 -144 -30 -157 -28 -8
-65 7 -78 32 -19 34 -13 105 9 129 29 31 73 29 99 -4z"/>
<path d="M2900 577 c-34 -17 -50 -53 -50 -114 0 -40 5 -58 25 -81 44 -53 131
-48 160 9 19 36 19 39 -5 39 -11 0 -20 -7 -20 -15 0 -21 -45 -48 -68 -41 -52
17 -73 107 -38 161 24 37 79 34 102 -6 6 -11 16 -14 28 -10 17 7 16 9 -9 39
-21 25 -34 32 -63 32 -21 0 -48 -6 -62 -13z"/>
<path d="M3720 563 c-24 -22 -32 -39 -36 -78 -10 -98 53 -158 141 -134 66 19
95 108 60 184 -29 61 -113 75 -165 28z m120 -25 c27 -29 28 -106 2 -139 -26
-31 -78 -31 -104 0 -25 32 -24 101 3 135 26 33 70 35 99 4z"/>
<path d="M3950 498 c0 -54 6 -103 13 -117 18 -36 63 -45 110 -22 29 15 37 16
37 5 0 -8 7 -14 15 -14 13 0 15 20 15 120 0 113 -1 120 -20 120 -18 0 -20 -7
-20 -88 0 -98 -12 -122 -61 -122 -42 0 -49 17 -49 117 0 86 -1 93 -20 93 -19
0 -20 -7 -20 -92z"/>
<path d="M4210 470 c0 -100 3 -120 15 -120 12 0 15 15 15 75 0 92 13 125 51
125 25 0 45 21 32 34 -12 12 -47 6 -65 -11 -17 -15 -18 -15 -18 0 0 10 -7 17
-15 17 -12 0 -15 -20 -15 -120z"/>
<path d="M4807 569 c-38 -29 -53 -87 -37 -143 18 -65 69 -93 135 -75 49 14 75
51 75 110 0 26 -5 60 -12 74 -24 54 -113 73 -161 34z m113 -29 c22 -22 28 -97
10 -130 -27 -51 -97 -45 -120 11 -15 36 -7 95 16 120 22 25 69 24 94 -1z"/>
<path d="M5203 580 c-31 -13 -53 -61 -53 -119 0 -87 62 -133 147 -109 29 8 63
40 63 60 0 17 -38 7 -52 -14 -29 -44 -118 -15 -118 39 0 22 2 23 86 23 l87 0
-6 42 c-10 73 -79 108 -154 78z m99 -37 c10 -9 18 -24 18 -35 0 -16 -8 -18
-65 -18 -58 0 -65 2 -65 19 0 43 76 66 112 34z"/>
<path d="M5420 470 c0 -96 3 -120 14 -120 11 0 15 21 18 91 3 98 15 119 64
119 43 0 54 -24 54 -121 0 -84 1 -89 21 -89 21 0 21 4 17 101 -3 91 -6 103
-27 120 -28 23 -79 25 -109 3 -20 -14 -22 -14 -22 0 0 9 -7 16 -15 16 -12 0
-15 -20 -15 -120z"/>
<path d="M5800 470 c0 -100 3 -120 15 -120 13 0 15 20 15 120 0 100 -2 120
-15 120 -12 0 -15 -20 -15 -120z"/>
<path d="M5934 578 c-12 -5 -27 -21 -33 -34 -9 -20 -8 -24 7 -24 10 0 25 9 35
20 33 39 114 19 105 -27 -2 -13 -19 -21 -67 -29 -70 -13 -91 -30 -91 -73 0
-34 10 -48 43 -60 31 -12 70 -6 105 17 20 13 22 13 22 -2 0 -9 8 -16 18 -16
15 0 17 10 12 106 -4 90 -8 108 -24 120 -23 16 -101 18 -132 2z m91 -185 c-14
-13 -34 -23 -44 -23 -29 0 -53 24 -49 50 2 21 11 26 58 35 54 11 55 10 58 -14
3 -18 -4 -32 -23 -48z"/>
</g>
</svg>
