<?xml version="1.0" encoding="utf-8"?>
<!-- Generator: Adobe Illustrator 23.0.1, SVG Export Plug-In . SVG Version: 6.00 Build 0)  -->
<svg version="1.1" id="Layer_1" xmlns="http://www.w3.org/2000/svg" xmlns:xlink="http://www.w3.org/1999/xlink" x="0px" y="0px"
	 viewBox="0 0 1000 1000" style="enable-background:new 0 0 1000 1000;" xml:space="preserve">
<style type="text/css">
	.st0{fill:#20B798;}
	.st1{fill:#FFFFFF;}
</style>
<g>
	<circle class="st0" cx="500" cy="500" r="308.38"/>
	<g>
		<path class="st1" d="M373.45,481.33c1.55-3.01,4.11-4.56,7.28-5.67c38.52-13.52,77-27.12,115.49-40.74
			c2.53-0.89,4.89-0.96,7.43-0.06c38.93,13.77,77.88,27.48,116.81,41.23c4.13,1.46,6.07,3.9,6.08,7.44
			c0.01,3.55-1.92,6.02-6.03,7.48c-38.98,13.87-77.95,27.77-116.98,41.49c-2.13,0.75-4.99,0.69-7.14-0.06
			c-38.97-13.71-77.88-27.6-116.83-41.38c-2.83-1-4.7-2.8-6.12-5.27C373.45,484.3,373.45,482.81,373.45,481.33z"/>
		<path class="st1" d="M425.78,523.1c4.62,1.63,9.02,3.18,13.41,4.74c17.33,6.15,34.68,12.24,51.97,18.51
			c6.02,2.18,11.81,2.14,17.8-0.01c20.79-7.47,41.62-14.83,62.44-22.22c0.9-0.32,1.82-0.59,3.14-1.02c0,1.22,0,2.09,0,2.96
			c0,8.89-0.24,17.8,0.08,26.68c0.25,6.97-2.81,11.8-8.32,15.46c-7.65,5.08-16.24,7.84-25.05,9.98
			c-18.87,4.58-37.98,5.83-57.32,4.07c-15.14-1.38-29.94-4.16-43.88-10.49c-4.44-2.02-8.81-4.38-11.6-8.52
			c-1.45-2.16-2.75-4.9-2.82-7.42c-0.31-10.53-0.13-21.08-0.12-31.62C425.5,523.95,425.62,523.72,425.78,523.1z"/>
		<path class="st1" d="M593.93,516.1c4.92-1.75,9.7-3.45,14.82-5.26c0,1.17,0,2.04,0,2.91c0,19.68,0.02,39.36-0.03,59.04
			c0,1.74,0.36,2.91,1.87,4.11c7.7,6.11,7.51,17.57-0.33,23.43c-1.24,0.93-1.55,1.87-1.54,3.29c0.04,11.36,0.05,22.72,0.01,34.09
			c-0.01,3.94-2.6,6.87-6.48,7.51c-3.34,0.55-6.92-1.72-7.97-5.2c-0.3-1-0.34-2.1-0.34-3.16c-0.02-11.03-0.04-22.07,0.01-33.1
			c0.01-1.5-0.32-2.5-1.64-3.49c-7.79-5.86-7.88-17.42-0.17-23.44c1.41-1.1,1.83-2.18,1.83-3.88c-0.06-17.95-0.04-35.9-0.04-53.85
			C593.93,518.18,593.93,517.28,593.93,516.1z"/>
	</g>
	<g>
		<path class="st1" d="M276,636.31c-1.88-1.09-3.96-1.95-5.6-3.33c-3.14-2.65-4.04-6.33-4.04-10.32
			c0.02-22.97,0.01-45.94,0.01-68.91c0-1.01,0-2.01,0-3.42c-2.35,0-4.53,0.05-6.7-0.01c-5.1-0.14-7.3-3.02-6.32-8.06
			c4.47-22.99,8.91-45.98,13.35-68.97c0.13-0.65,0.1-1.33-0.25-2.11c-0.9,2.42-1.82,4.83-2.69,7.26
			c-5.32,14.76-10.64,29.52-15.92,44.3c-1.53,4.28-4.31,7.16-8.91,7.72c-3.83,0.47-7.01-1.04-9.32-4.14
			c-2.53-3.4-2.35-7.04-0.96-10.88c7.23-19.93,14.3-39.93,21.62-59.83c2.07-5.62,4.33-11.27,7.32-16.43
			c3.81-6.57,9.92-10.17,17.7-10.22c12.16-0.08,24.33-0.04,36.49-0.01c6.59,0.02,12.2,2.74,16.52,7.42
			c7.44,8.05,14.48,16.48,21.65,24.77c2.17,2.51,4.24,5.1,6.35,7.66c5.79,6.99,3.32,15.27-5.41,17.63
			c-9.9,2.68-19.85,5.2-29.81,7.68c-5.58,1.39-10.89-1.72-12.4-7.04c-1.56-5.48,1.35-10.78,7.02-12.57c2.5-0.79,5.08-1.36,7.62-2.03
			c2.45-0.65,4.89-1.3,7.75-2.05c-2.24-2.72-4.24-5.19-6.3-7.61c-2.26-2.66-4.73-5.15-6.84-7.91c-3.58-4.7-9.22-4.73-13.47-2.27
			c-3.53,2.04-7.04,4.11-10.56,6.17c-3.08,1.8-6.19,3.56-9.23,5.42c-5.65,3.47-7.3,9.2-4.03,14.91
			c6.12,10.69,12.36,21.31,18.68,31.88c3.2,5.36,8.74,6.82,14.33,4.09c0.6-0.29,1.2-0.58,1.78-0.86c6.26,7.83,6.26,7.83,14.38,7.76
			c1.42,7.43,2.98,14.89,4.2,22.41c0.48,2.98-2.17,5.6-5.48,5.85c-2.45,0.18-4.92,0.04-7.86,0.04c0,1.27,0,2.32,0,3.38
			c0,22.2-0.16,44.41,0.09,66.61c0.08,7.59-2.05,13.26-9.54,16.05c-1.87,0-3.74,0-5.62,0c-7.53-2.74-9.69-8.43-9.61-16
			c0.22-22.19,0.08-44.38,0.08-66.57c0-1.07,0-2.14,0-3.25c-1.89,0-3.38,0-5.18,0c0,1.06,0,1.98,0,2.89c0,11.65,0,23.3,0,34.94
			c0,11.56,0.03,23.13-0.01,34.69c-0.02,6.79-2.5,10.31-8.77,12.81c-0.2,0.08-0.33,0.32-0.49,0.49
			C279.74,636.31,277.87,636.31,276,636.31z"/>
		<path class="st1" d="M293.62,421.42c-12.28,0.05-22.21-9.81-22.26-22.12c-0.06-12.25,9.88-22.27,22.11-22.3
			c12.19-0.04,22.26,9.96,22.32,22.15C315.84,411.33,305.85,421.37,293.62,421.42z"/>
		<path class="st1" d="M314.68,462.78c-3.85,2.25-7.57,4.42-11.29,6.61c-6.77,3.99-8.25,9.57-4.31,16.35
			c4.21,7.25,8.46,14.48,12.68,21.7c-3.1,2.5-4.77,2.27-6.64-0.9c-5.94-10.09-11.87-20.2-17.77-30.32c-1.78-3.05-1.39-4.35,1.75-6.2
			c5.71-3.36,11.43-6.68,17.15-10.02C310.96,457.25,311.84,457.51,314.68,462.78z"/>
	</g>
	<path class="st1" d="M481.89,502c9.21-2.33,18.2-4.6,27.19-6.89c3.76-0.96,3.87-0.92,5.51,2.57c0.94,1.99,0.62,3.67-1.31,4.81
		c-6.71,3.96-13.44,7.89-20.19,11.79c-1.84,1.06-3.53,0.65-4.62-1.14C486.13,509.33,483.91,505.44,481.89,502z"/>
	<g>
		<path class="st1" d="M664.47,469.9c7.42,1.6,14.46,3.1,21.5,4.63c2.07,0.45,4.16,0.85,6.18,1.46c5.46,1.66,8.58,7.02,7.25,12.31
			c-1.36,5.43-6.45,8.87-12.01,7.73c-13.3-2.72-26.58-5.5-39.82-8.49c-7.16-1.62-10.37-8.31-7.3-15.01
			c4.92-10.72,9.87-21.43,15.12-32c5.26-10.58,14.18-15.78,25.89-15.88c17.61-0.15,35.22-0.11,52.83-0.01
			c12.44,0.07,21.5,6.82,24.82,18.36c0.58,2.01,0.86,4.18,0.88,6.28c0.21,24.92,0.36,49.85,0.5,74.77
			c0.03,5.61-2.66,9.64-7.26,11.09c-6.43,2.03-13.04-2.46-13.54-9.23c-0.1-1.35-0.04-2.72-0.05-4.08
			c-0.14-23.65-0.29-47.3-0.43-70.94c0-0.6,0.18-1.32-0.09-1.76c-0.43-0.69-1.14-1.63-1.77-1.66c-0.63-0.03-1.6,0.82-1.87,1.5
			c-0.35,0.9-0.19,2.01-0.19,3.03c-0.02,56.4-0.04,112.8-0.02,169.2c0,4.42-0.76,8.48-4.34,11.48c-3.76,3.15-8.01,4.06-12.61,2.21
			c-4.63-1.86-7.36-5.32-7.83-10.38c-0.13-1.35-0.18-2.71-0.18-4.07c-0.01-30.96-0.01-61.93-0.01-92.89c0-1.09,0-2.18,0-3.4
			c-1.84,0-3.41,0-5.32,0c0,1.05,0,2.04,0,3.03c0,31.56,0.01,63.12-0.01,94.68c0,6.94-3.12,11.64-8.79,13.38
			c-7.9,2.44-15.44-3.1-16.13-11.87c-0.05-0.68-0.03-1.36-0.03-2.04c0.09-38.11,0.18-76.22,0.26-114.33c0-0.84,0-1.67,0-2.08
			c4.5,0.11,8.76,0.22,13.03,0.3c0.49,0.01,1.01-0.16,1.48-0.33c3.68-1.31,7.09-3.18,11.26-3.21c3.08-0.03,5.4-2.3,6.98-5
			c6.23-10.63,12.51-21.22,18.63-31.91c3.25-5.67,1.62-11.52-4.02-14.92c-6.33-3.81-12.73-7.5-19.13-11.21
			c-6.49-3.76-12.14-2.29-16.06,4.11c-0.35,0.57-0.73,1.12-0.97,1.47c-2.42-0.67-4.65-1.65-6.94-1.83c-4.17-0.32-7.58,1.57-9.44,5.3
			C671.34,454.87,668.05,462.23,664.47,469.9z"/>
		<path class="st1" d="M707.39,417.82c-11.74-0.05-21.39-9.69-21.43-21.4c-0.04-11.73,9.83-21.52,21.63-21.47
			c11.72,0.05,21.36,9.7,21.41,21.42C729.05,408.16,719.26,417.88,707.39,417.82z"/>
		<path class="st1" d="M674.59,462.44c2.39-4.02,4.55-7.84,6.9-11.54c0.91-1.43,2.45-1.86,4.03-0.95
			c6.91,3.99,13.81,7.99,20.67,12.06c1.81,1.08,2.13,2.8,1.14,4.65c-1.04,1.92-2.18,3.78-3.41,5.9c-5.76-6.38-13.75-6.47-21.08-8.3
			C680.24,463.61,677.6,463.1,674.59,462.44z"/>
		<path class="st1" d="M709.33,488.28c-0.36-2.86-0.73-5.11-0.88-7.37c-0.06-0.86,0.19-1.84,0.61-2.61
			c1.42-2.61,3.02-5.12,4.46-7.72c3.25-5.86,1.72-11.62-4.02-15.12c-3.84-2.34-7.73-4.6-11.59-6.9c-0.06-0.04-0.1-0.14-0.31-0.45
			c0.64-1,1.11-2.54,2.13-3.12c1.12-0.64,3.07-1.02,4.09-0.46c6.77,3.71,13.4,7.7,20.06,11.61c1.8,1.06,2.53,2.75,1.5,4.56
			C720.15,469.81,714.82,478.86,709.33,488.28z"/>
	</g>
</g>
</svg>
