<?xml version="1.0" encoding="utf-8"?>
<!-- Generator: Adobe Illustrator 23.0.1, SVG Export Plug-In . SVG Version: 6.00 Build 0)  -->
<svg version="1.1" id="Layer_1" xmlns="http://www.w3.org/2000/svg" xmlns:xlink="http://www.w3.org/1999/xlink" x="0px" y="0px"
	 viewBox="0 0 1000 1000" style="enable-background:new 0 0 1000 1000;" xml:space="preserve">
<style type="text/css">
	.st0{fill:#20B798;}
	.st1{fill:#FFFFFF;}
</style>
<g>
	<circle class="st0" cx="500" cy="500" r="308.38"/>
	<g>
		<path class="st1" d="M498.25,338.47c1.18,0,2.36,0,3.54,0c1.23,1.11,2.51,2.17,3.68,3.34c22.27,22.25,44.53,44.51,66.79,66.77
			c3.6,3.6,4.21,6.07,2.15,8.6c-1.94,2.38-4.61,2.32-8.69-0.27c0,7.39,0,14.68,0,22.28c1.23,0,2.29,0,3.36,0
			c10.23,0,20.46,0.06,30.69-0.02c5.71-0.04,10.29,2,13.79,6.57c2.81,3.67,5.75,7.23,8.65,10.84c9.66,12,19.32,24,28.98,36
			c0,1.38,0,2.76,0,4.13c-2.38,3.81-6.44,2.81-10.06,3.06c0,1.56,0,2.74,0,3.91c0,25.88,0,51.76,0,77.64
			c0,9.25-0.03,18.5,0.04,27.75c0.01,0.93,0.38,2.4,1.02,2.69c4.75,2.17,7.26,6.09,9,10.72c0,2.17,0,4.33,0,6.5
			c-0.32,0.69-0.67,1.37-0.95,2.08c-2.41,6.04-7.66,9.71-14.14,9.71c-90.72,0.01-181.44,0.01-272.17,0
			c-7.11,0-12.82-4.52-14.63-11.42c-1.72-6.53,1.2-13.58,7.33-16.77c1.95-1.02,2.32-2.17,2.32-4.1
			c-0.04-35.23-0.03-70.45-0.04-105.68c0-0.95-0.09-1.91-0.15-3.11c-1.44,0-2.7-0.05-3.96,0.01c-2.35,0.11-4.29-0.53-5.4-2.77
			c-1.17-2.35-0.41-4.33,1.13-6.24c11.94-14.88,23.91-29.74,35.75-44.71c3.71-4.69,8.32-6.9,14.27-6.83
			c10.23,0.11,20.47,0.03,30.7,0.02c1.04,0,2.07-0.1,3.1-0.15c0-7.57,0-14.8,0-22.37c-0.94,0.69-1.58,1.27-2.3,1.68
			c-2.14,1.23-4.9,0.74-6.39-1.16c-1.58-2.02-1.65-4.16-0.11-6.24c0.58-0.78,1.33-1.45,2.02-2.14c22.33-22.34,44.66-44.67,67.01-67
			C495.74,340.64,497.02,339.58,498.25,338.47z M444.55,610.46c0-1.47,0-2.63,0-3.8c0-23.42-0.01-46.83,0-70.25
			c0.01-15.91,10.74-26.65,26.63-26.66c19.19-0.01,38.37-0.01,57.56,0c16.09,0.01,26.75,10.7,26.75,26.84
			c0.01,23.42,0,46.83,0,70.25c0,1.15,0,2.29,0,3.48c25.37,0,50.38,0,75.29,0c0-37,0-73.74,0-110.38c-87.37,0-174.49,0-261.54,0
			c0,36.97,0,73.7,0,110.52C394.37,610.46,419.23,610.46,444.55,610.46z M500.08,350.82c-0.48,0.38-0.73,0.55-0.94,0.75
			c-17.75,17.74-35.51,35.46-53.18,53.26c-0.83,0.84-1.31,2.4-1.32,3.62c-0.07,26.17-0.06,52.34-0.05,78.52
			c0,0.84,0.11,1.69,0.17,2.45c37.02,0,73.77,0,110.59,0c0.05-0.7,0.11-1.18,0.11-1.66c0.01-26.57,0.03-53.13-0.08-79.7
			c-0.01-1.33-0.97-2.94-1.96-3.94c-16.99-17.1-34.05-34.13-51.1-51.17C501.63,352.27,500.91,351.62,500.08,350.82z M499.72,630.74
			c44.38,0,88.76,0,133.14,0c0.89,0,1.77,0.03,2.66-0.01c3.38-0.18,5.7-2.39,5.55-5.26c-0.15-2.79-2.41-4.69-5.69-4.77
			c-0.49-0.01-0.98,0-1.48,0c-89.26,0-178.51,0-267.77,0c-0.89,0-1.78-0.06-2.65,0.05c-2.46,0.3-4.5,2.35-4.49,4.71
			c0.01,2.52,1.25,4.35,3.77,4.98c1.22,0.3,2.53,0.3,3.8,0.3C410.95,630.74,455.34,630.74,499.72,630.74z M454.85,550.38
			c0,20.07,0,39.96,0,59.96c13.38,0,26.58,0,39.78,0c0-20.13,0-40.02,0-59.96C481.28,550.38,468.15,550.38,454.85,550.38z
			 M505.33,610.38c13.49,0,26.61,0,39.85,0c0-20.09,0-39.98,0-59.92c-13.4,0-26.59,0-39.85,0
			C505.33,570.53,505.33,590.35,505.33,610.38z M434.37,449.42c-11.15,0-22.06,0.11-32.96-0.07c-3.39-0.06-5.67,1.01-7.77,3.69
			c-8.91,11.38-18.02,22.62-27.05,33.91c-0.59,0.73-1.12,1.51-1.86,2.52c23.43,0,46.47,0,69.64,0
			C434.37,476.16,434.37,463.01,434.37,449.42z M565.76,449.44c0,13.6,0,26.83,0,39.94c23.24,0,46.26,0,69.65,0
			c-10.28-12.85-20.27-25.4-30.36-37.85c-0.83-1.03-2.45-1.99-3.71-2C589.54,449.38,577.74,449.44,565.76,449.44z M494.65,539.75
			c0-6.7,0-13.14,0-19.5c-0.37-0.17-0.54-0.31-0.72-0.31c-7.67-0.03-15.34-0.11-23.02-0.06c-11.17,0.07-17.98,8.56-15.88,19.87
			C468.15,539.75,481.29,539.75,494.65,539.75z M545.1,539.76c1.52-12.44-4.96-19.88-17.04-19.89c-5.31-0.01-10.62,0-15.94,0
			c-2.23,0-4.46,0-6.77,0c0,6.86,0,13.3,0,19.9C518.67,539.76,531.81,539.76,545.1,539.76z"/>
		<path class="st1" d="M389.09,554.49c0-8.36-0.14-16.73,0.04-25.08c0.21-10.03,7.94-18.35,17.9-19.58
			c9.71-1.2,19.07,5.09,21.69,14.76c0.61,2.24,0.85,4.65,0.86,6.98c0.07,15.64,0.05,31.28,0.03,46.92
			c-0.01,7.99-4.01,12.01-11.93,12.02c-5.8,0.01-11.61,0.03-17.41-0.01c-6.99-0.04-11.17-4.24-11.19-11.24
			c-0.02-8.26-0.01-16.53-0.01-24.79C389.08,554.49,389.08,554.49,389.09,554.49z M419.15,550.43c-6.72,0-13.15,0-19.62,0
			c0,10,0,19.76,0,29.57c6.66,0,13.08,0,19.62,0C419.15,570.07,419.15,560.38,419.15,550.43z M399.6,539.75c6.49,0,12.92,0,19.52,0
			c0-4.06,0.3-7.98-0.08-11.84c-0.44-4.43-4.96-7.93-9.59-8.02c-4.59-0.09-9.25,3.29-9.76,7.76
			C399.24,531.6,399.6,535.63,399.6,539.75z"/>
		<path class="st1" d="M610.97,554.84c0,8.16,0.02,16.33-0.01,24.49c-0.03,6.97-4.23,11.15-11.24,11.19c-6,0.03-12,0.03-18,0
			c-6.99-0.04-11.25-4.21-11.27-11.18c-0.05-16.23-0.08-32.46,0.01-48.69c0.06-10.88,7.2-19.17,17.6-20.77
			c9.43-1.45,19.04,4.67,21.87,14.11c0.67,2.22,0.96,4.63,0.99,6.96C611.05,538.9,610.97,546.87,610.97,554.84z M580.95,550.36
			c0,10,0,19.77,0,29.69c6.61,0,13.03,0,19.61,0c0-9.97,0-19.74,0-29.69C594,550.36,587.64,550.36,580.95,550.36z M600.5,539.8
			c0-4.11,0.29-7.95-0.08-11.72c-0.45-4.59-4.64-7.98-9.4-8.18c-4.51-0.2-9.36,3.14-9.93,7.58c-0.51,4.01-0.11,8.14-0.11,12.32
			C587.57,539.8,593.92,539.8,600.5,539.8z"/>
		<path class="st1" d="M499.98,479.58c-25.01-0.01-45.39-20.42-45.37-45.43c0.02-24.97,20.5-45.42,45.47-45.4
			c24.97,0.02,45.38,20.49,45.37,45.5C545.43,459.26,525.04,479.59,499.98,479.58z M500.12,399.04
			c-19.41-0.08-35.35,15.77-35.34,35.15c0.01,19.25,15.7,35.08,35,35.29c19.26,0.22,35.28-15.64,35.48-35.11
			C535.46,415.05,519.63,399.12,500.12,399.04z"/>
		<path class="st1" d="M494.86,426.65c0-2.36-0.08-4.73,0.02-7.08c0.15-3.45,2.24-5.57,5.26-5.5c2.88,0.06,4.89,2.14,5.01,5.46
			c0.14,4.13-0.97,8.68,0.44,12.27c1.36,3.46,5.32,5.87,8.01,8.86c2.07,2.29,1.97,5.18-0.02,7.16c-2.02,2.01-4.88,2.11-7.14-0.04
			c-3.43-3.25-6.81-6.56-9.97-10.06c-0.95-1.05-1.39-2.8-1.56-4.28C494.67,431.2,494.86,428.91,494.86,426.65z"/>
	</g>
</g>
</svg>
