<?xml version="1.0" encoding="utf-8"?>
<!-- Generator: Adobe Illustrator 23.0.1, SVG Export Plug-In . SVG Version: 6.00 Build 0)  -->
<svg version="1.1" id="Layer_1" xmlns="http://www.w3.org/2000/svg" xmlns:xlink="http://www.w3.org/1999/xlink" x="0px" y="0px"
	 viewBox="0 0 1000 1000" style="enable-background:new 0 0 1000 1000;" xml:space="preserve">
<style type="text/css">
	.st0{fill:#20B798;}
	.st1{fill:#FFFFFF;}
</style>
<g>
	<circle class="st0" cx="500" cy="500" r="308.38"/>
	<g>
		<path class="st1" d="M623.11,614.19c-3.37-0.45-6.76-0.84-10.12-1.37c-29.02-4.58-53.21-18.01-72.47-40.14
			c-15.46-17.76-24.79-38.45-27.94-61.76c-3.6-26.67,1.39-51.81,14.61-75.27c0.4-0.72,1.25-1.41,2.04-1.64
			c2.14-0.63,4.35-1.01,6.71-1.2c-2.57,2.07-5.15,4.13-7.86,6.31c3.59,2.65,6.87,4.65,11.61,4.68c9.06,0.07,17.71-2.13,26.52-3.48
			c1.38-0.21,2.06-0.02,2.79,1.19c3.56,5.93,7.25,11.79,10.81,17.72c0.49,0.81,0.73,1.88,0.74,2.83c0.07,5.14-0.04,10.28,0.09,15.41
			c0.03,1.22,0.45,2.61,1.16,3.59c4.81,6.69,9.79,13.27,14.61,19.96c1.07,1.49,2.2,2.06,4.13,1.46c0-2.22,0-4.52,0-6.81
			c0.18-0.05,0.35-0.11,0.53-0.16c1.39,2.87,3.03,5.65,4.11,8.64c1.19,3.28,3.23,4.83,6.65,5.37c4.51,0.71,8.97,1.84,13.41,2.94
			c1.13,0.28,2.13,1.11,3.18,1.71c0.2,0.11,0.34,0.32,0.5,0.49c4.22,4.33,8.1,9.19,15.4,9.17c-1.51,3.19-2.76,5.82-3.99,8.45
			c-1.36,2.88-3.81,5.78-3.75,8.63c0.06,2.85,2.44,5.76,4.14,8.43c5.12,8.04,6.73,17.3,9.37,26.19c0.23,0.76,0.05,1.71-0.14,2.52
			c-1.27,5.28-2.34,10.63-3.97,15.8c-1.6,5.07-0.51,10.02-0.23,15.02c0.08,1.38,0.19,2.75,0.3,4.19c-2.65,0.4-5.08,0.77-7.51,1.14
			C633.38,614.19,628.24,614.19,623.11,614.19z"/>
		<path class="st1" d="M750.64,501.14c-0.61,4.76-1.01,9.56-1.86,14.28c-4.85,26.87-17.5,49.51-37.65,67.84
			c-14.57,13.25-31.57,22.21-50.68,27.12c-0.29,0.08-0.61,0.06-1.17,0.1c1.01-3.98,1.26-7.87,5.58-10.25
			c5.36-2.96,10.31-6.67,15.36-10.17c0.94-0.65,1.76-1.74,2.19-2.8c1.4-3.45,2.66-6.96,3.85-10.49c0.56-1.65,1.35-2.86,3.11-3.41
			c1.25-0.39,2.35-1.26,3.6-1.62c6.43-1.87,10.26-6.16,12.86-12.24c2.53-5.89,5.86-11.44,8.92-17.31
			c-4.94-2.91-9.68-5.87-14.58-8.54c-4.16-2.26-7.84-4.99-10.69-8.81c-0.88-1.18-2.02-2.17-2.9-3.35c-1.94-2.62-4.18-4.24-7.72-4.32
			c-2.73-0.06-5.43-1.22-8.16-1.79c-5.54-1.17-11.06-2.6-16.66-3.26c-2.45-0.29-5.18,0.82-7.61,1.74c-2.15,0.82-3.48,0.33-4.7-1.42
			c-2.35-3.38-5.35-5.82-9.83-5.94c0.16-3.15,0.3-5.93,0.45-8.84c-4.39-0.49-8.43-0.34-10.66,4.59c-0.16-0.11-0.32-0.21-0.48-0.32
			c-0.75-3.09-1.5-6.17-2.29-9.42c2.9-1.37,5.68-2.75,8.52-3.97c0.59-0.25,1.49-0.09,2.13,0.17c2.08,0.86,4.04,2.07,6.17,2.73
			c1.95,0.6,4.06,0.73,6.11,0.92c0.4,0.04,1.23-0.6,1.26-0.96c0.44-6.06,4.54-10.01,8.12-14.27c2.3-2.74,4.56-5.52,6.91-8.22
			c0.64-0.74,1.48-1.38,2.35-1.82c5.6-2.88,11.2-5.74,16.87-8.48c1.02-0.49,2.35-0.6,3.51-0.51c3.08,0.24,6.15,0.69,9.38,1.07
			c0.33-1.56,0.75-2.98,0.89-4.41c0.06-0.64-0.3-1.49-0.75-1.98c-1.62-1.79-3.29-3.54-5.06-5.18c-5.42-5-10.13-10.49-12.83-17.5
			c-0.26-0.69-1.46-1.48-2.19-1.45c-3.89,0.17-7.37-0.49-10.85-2.56c-2.12-1.26-5.09-1.1-7.69-1.55c-0.91-0.16-1.84-0.21-3.12-0.35
			c-0.75,4.04-1.51,8.11-2.3,12.39c-4.02-0.78-7.88-1.48-11.72-2.32c-0.48-0.1-1.09-0.84-1.17-1.36c-0.35-2.14-0.52-4.3-0.78-6.66
			c2.67-0.6,5.21-1.2,7.78-1.73c1.32-0.27,2.1-0.76,2.4-2.32c0.77-4.03,1.82-8.01,2.8-12.16c2.95,1.2,5.79,2.25,8.51,3.54
			c0.58,0.28,1.07,1.38,1.09,2.12c0.13,4.35,0.08,4.35,4.13,6.04c0.64,0.27,1.3,0.51,1.93,0.82c4.16,2.09,8.11,2.19,11.88-1.48
			c-1.87-2.16-3.75-4.5-5.82-6.68c-2.41-2.54-4.81-5.14-7.55-7.3c-2.67-2.11-3.09-4.58-2.33-7.98c4.66,1.48,9.58,0.99,13.97,4.49
			c5.98,4.76,9.12,10.78,10.86,17.84c0.53,2.14,1.59,3.75,3.25,5.19c3.66,3.15,7.11,6.54,10.8,9.64c1.65,1.39,3.69,2.32,5.68,3.54
			c1.78-2.85,3.19-5.27,4.79-7.55c0.5-0.72,1.48-1.45,2.31-1.54c5.49-0.6,11-1.02,16.5-1.5c0.31-0.03,0.63-0.01,0.93-0.06
			c1.33-0.22,2.92-1.01,3.91-0.54c1.07,0.51,1.61,2.18,2.35,3.37c9.2,14.98,14.94,31.17,16.86,48.68c0.24,2.15,0.6,4.29,0.9,6.44
			C750.64,491.8,750.64,496.47,750.64,501.14z"/>
		<path class="st1" d="M538.78,418.46c19.08-22.37,42.5-36.34,70.97-41.53c24.79-4.53,48.62-1.23,71.88,9.4
			c-4.34,1.62-8.11,0.12-11.88-0.39c-2.5-0.34-4.53-0.16-6.73,1.32c-3.71,2.51-7.09,5.27-9.98,8.7c-0.66,0.78-1.86,1.43-2.88,1.54
			c-6.26,0.7-12.53,1.4-18.81,1.72c-2.75,0.14-5.53-0.69-8.31-0.89c-0.72-0.05-1.76,0.42-2.18,1c-1.46,2.01-2.83,4.11-4.01,6.29
			c-0.87,1.59-2.02,2.03-3.75,2.08c-4.59,0.12-9.18,0.7-13.75,0.58c-2.72-0.08-5.5-0.9-8.1-1.83c-2.92-1.05-5.47-1.11-8.02,0.85
			c-4.73,3.65-10.42,4.17-16.07,4.7c-8.79,0.83-17.24,3.14-25.62,5.78C540.79,418.02,540.04,418.16,538.78,418.46z M628.9,391.17
			c2.09,1.23,3.65,2.91,5.23,2.93c3.68,0.05,7.74,0.13,10.95-1.34c3.97-1.82,7.23-5.2,11-8.05c-2.45-1.42-4.56-2.71-6.75-3.86
			c-0.52-0.27-1.42-0.36-1.9-0.09C641.4,384.09,635.42,387.49,628.9,391.17z M592.36,394.32c2.48,1.45,4.79,2.81,7.13,4.13
			c0.3,0.17,0.75,0.21,1.09,0.12c5.14-1.32,10.27-2.67,15.57-4.06c-0.94-1.64-1.87-2.99-2.51-4.47c-0.78-1.79-1.85-2.3-3.59-1.39
			c-3.14,1.64-6.21,1.51-9.23-0.35c-0.19-0.12-0.44-0.14-0.5-0.16C597.67,390.19,595.12,392.17,592.36,394.32z"/>
	</g>
	<g>
		<path class="st1" d="M325.97,635.26c-5.68-1.03-7.58-4.81-8.43-10.19c-3.18-20.13-12.16-38.41-18.84-57.43
			c-2.22-6.32-4.53-12.62-7.05-18.82c-1.38-3.39-2.02-6.77-1.85-10.4c0.15-3.19,0.03-6.38,0.03-9.58c-0.28-0.09-0.57-0.19-0.85-0.28
			c-1.75,1.39-3.42,2.91-5.28,4.12c-0.72,0.47-2.09,0.64-2.81,0.26c-5.03-2.65-9.98-5.47-14.93-8.28c-0.63-0.36-1.37-0.9-1.6-1.52
			c-2.85-7.89-5.62-15.8-8.45-23.85c4.68-2.84,9.19-5.69,13.83-8.33c1.63-0.93,1.84-1.76,1.14-3.42c-2.06-4.93-4.02-9.9-5.86-14.92
			c-0.29-0.8-0.07-2.2,0.48-2.83c3.57-4.11,7.26-8.12,11.02-12.05c0.59-0.62,1.73-1,2.62-1c1.95,0,3.94,0.1,5.82,0.56
			c2.2,0.54,3.78,0.05,5.06-1.76c0.29-0.41,0.67-0.79,1.07-1.09c6.85-5.22,10.35-12.33,11.58-20.68c0.14-0.95-0.06-2.19-0.6-2.96
			c-2.46-3.57-5.01-7.08-7.7-10.48c-1.34-1.7-2.14-3.44-1.83-5.6c0.78-5.38-0.89-9.86-4.38-14c-2.94-3.49-5.37-7.42-8.14-11.3
			c8.95-5.06,17.73-10.06,26.57-14.95c0.51-0.28,1.73,0.12,2.29,0.6c3.57,3.02,7,6.21,10.58,9.22c0.91,0.76,2.18,1.38,3.33,1.49
			c6.09,0.58,12.21,0.9,18.3,1.49c1.41,0.14,2.98,0.7,4.09,1.56c4.45,3.42,8.69,7.11,13.15,10.52c1.64,1.25,1.95,2.33,1.21,4.24
			c-2.77,7.2-5.33,14.49-8.06,21.71c-0.6,1.58-0.55,2.85,0.41,4.27c1.19,1.75,2.02,3.76,3.26,5.47c4,5.49,6.16,11.43,5.1,18.3
			c-0.23,1.5,0.43,2.25,1.85,2.8c10.84,4.18,21.67,8.4,32.47,12.71c1.57,0.62,2.39,0.26,3.44-0.92c4.15-4.71,8.41-9.32,12.75-14.11
			c3.87,3.06,7.6,5.99,11.31,8.94c3.17,2.51,7.06,2.51,10.3-0.09c5.57-4.47,11.08-9.02,16.73-13.39c1.1-0.85,2.72-1.42,4.11-1.46
			c6.04-0.16,12.08-0.01,18.12-0.1c1.73-0.03,2.75,0.43,3.54,2.09c4.22,8.79,8.58,17.53,13,26.52c-5.6,2.28-11.02,4.67-16.58,6.67
			c-2.47,0.89-3.54,2.27-4.1,4.76c-1.35,5.95-3.1,11.81-4.54,17.74c-0.48,1.97-1.25,2.98-3.42,2.62c-1.07-0.18-2.19-0.03-3.55-0.03
			c-1.63,8.35-3.25,16.61-4.94,25.27c-5-4.04-9.74-7.86-14.48-11.7c-4.23-3.42-8.42-6.9-12.7-10.26c-1.43-1.12-2.3-2.25-2.23-4.21
			c0.07-1.93-0.32-3.88-0.54-6.07c-1.51,0.26-2.95,0.5-4.7,0.8c0.8,4.25,1.09,8.48,2.45,12.33c2.1,5.94,0.84,10.19-4.64,13.28
			c-1.09,0.62-1.9,1.71-2.96,2.41c-4.04,2.68-6.66,6.36-8.37,10.87c-0.44,1.17-1.7,2.29-2.86,2.89c-4.38,2.23-8.92,4.18-13.32,6.38
			c-1.05,0.53-1.98,1.52-2.69,2.49c-1.99,2.74-3.61,5.79-5.82,8.34c-1.56,1.81-3.73,3.16-5.79,4.45
			c-5.51,3.44-10.52,7.24-12.12,14.03c-0.15,0.65-0.47,1.37-0.34,1.98c1.45,6.64-0.3,12.93-2.72,18.88
			c-3.44,8.47-7.39,16.74-11.46,24.93c-2.72,5.47-7.66,8.44-13.42,10.11C330.05,635.26,328.01,635.26,325.97,635.26z"/>
	</g>
</g>
</svg>
