<?xml version="1.0" encoding="utf-8"?>
<!-- Generator: Adobe Illustrator 23.0.1, SVG Export Plug-In . SVG Version: 6.00 Build 0)  -->
<svg version="1.1" id="Layer_1" xmlns="http://www.w3.org/2000/svg" xmlns:xlink="http://www.w3.org/1999/xlink" x="0px" y="0px"
	 viewBox="0 0 1000 1000" style="enable-background:new 0 0 1000 1000;" xml:space="preserve">
<style type="text/css">
	.st0{fill:#20B798;}
	.st1{fill:#FFFFFF;}
</style>
<g>
	<circle class="st0" cx="500" cy="500" r="308.38"/>
	<g>
		<path class="st1" d="M566.55,350.31c0-18.35-14.93-33.28-33.28-33.28h-66.55c-18.35,0-33.28,14.93-33.28,33.28v19.97h-93.17
			v113.14h13.31v153.07h292.83V483.41h13.31V370.27h-93.17V350.31z M446.76,350.31c0-11.01,8.96-19.97,19.97-19.97h66.55
			c11.01,0,19.97,8.96,19.97,19.97v19.97H446.76V350.31z M366.9,590.49c16.68,2.82,29.86,15.99,32.68,32.68H366.9V590.49z
			 M600.43,623.17c2.82-16.68,15.99-29.86,32.68-32.68v32.68H600.43z M633.1,577.04c-24.04,3.01-43.11,22.09-46.13,46.13H413.02
			c-3.02-24.04-22.09-43.11-46.13-46.13v-93.63h93.17v39.93h33.28v13.31h13.31v-13.31h33.28v-39.93h93.17V577.04z M493.34,496.72
			v13.31h-19.97v-26.62h53.24v26.62h-19.97v-13.31H493.34z M646.42,470.1H539.93h-79.86H353.58v-86.52h292.83V470.1z"/>
	</g>
</g>
</svg>
