<?xml version="1.0" encoding="utf-8"?>
<!-- Generator: Adobe Illustrator 23.0.1, SVG Export Plug-In . SVG Version: 6.00 Build 0)  -->
<svg version="1.1" id="Layer_1" xmlns="http://www.w3.org/2000/svg" xmlns:xlink="http://www.w3.org/1999/xlink" x="0px" y="0px"
	 viewBox="0 0 1000 1000" style="enable-background:new 0 0 1000 1000;" xml:space="preserve">
<style type="text/css">
	.st0{fill:#20B798;}
	.st1{fill:#FFFFFF;}
</style>
<g>
	<circle class="st0" cx="500" cy="500" r="308.38"/>
	<g>
		<g id="Layer_1-2">
			<path id="webinar" class="st1" d="M627.52,374.72h-24.69V344.3c0-2.38-1.91-4.32-4.29-4.35H401.46c-2.4,0-4.35,1.95-4.35,4.35
				l0,0v30.42h-24.69c-8.76,0.04-15.85,7.14-15.88,15.91v191.32c0.01,8.8,7.13,15.93,15.93,15.95h71.01v20.29h-30.42
				c-2.4-0.13-4.45,1.71-4.58,4.11s1.71,4.45,4.11,4.58c0.16,0.01,0.32,0.01,0.48,0h173.9c2.4-0.13,4.24-2.18,4.11-4.58
				c-0.12-2.22-1.89-3.99-4.11-4.11h-30.44v-20.29h71.01c8.8-0.01,15.94-7.14,15.95-15.95V390.63
				C643.43,381.84,636.31,374.73,627.52,374.72z M405.8,348.64h188.44v211.58H405.8V348.64z M365.23,390.63c0-4,3.24-7.24,7.24-7.25
				h24.69v176.74h-31.93V390.63z M547.82,618.18h-95.64v-20.29h95.64V618.18z M634.77,581.95c0,4-3.25,7.25-7.25,7.25h0H372.47
				c-10.25-0.26-6.63-13.85-7.24-20.29h269.54V581.95z M634.77,560.22h-31.89V383.41h24.69c4,0,7.25,3.25,7.25,7.25c0,0,0,0,0,0
				L634.77,560.22z M570.96,498.04c8.45,8.54,5.32,26.8,5.89,37.54c-0.01,2.4-1.95,4.34-4.35,4.34h-58.01
				c-2.39-0.01-4.33-1.95-4.34-4.34v-21.09c0-5.82,3.82-21.56,12-17.05c1.86,1.52,2.13,4.26,0.61,6.12
				c-5.94,5.91-3.37,20.21-3.9,27.67h49.27v-16.74c1.3-6.91-8.37-12.54-3.3-17.05c1.84-1.53,4.58-1.29,6.11,0.56
				C570.94,498.01,570.95,498.02,570.96,498.04z M562.35,480.5c-0.01-10.41-8.45-18.84-18.86-18.83
				c-10.4,0.01-18.83,8.43-18.83,18.83c0.47,10.4,9.28,18.44,19.68,17.97c9.73-0.44,17.52-8.23,17.97-17.97H562.35z M533.37,480.5
				c0-5.61,4.54-10.15,10.15-10.15s10.15,4.54,10.15,10.15c0,5.63-4.56,10.2-10.2,10.2s-10.2-4.56-10.2-10.2H533.37z M483.98,498.04
				c8.42,8.55,5.3,26.8,5.87,37.54c0,2.4-1.94,4.34-4.34,4.34h-57.99c-2.39-0.01-4.33-1.95-4.34-4.34v-21.09
				c0-5.82,3.81-21.56,12-17.05c1.85,1.53,2.12,4.26,0.6,6.12c-5.94,5.91-3.35,20.21-3.9,27.67h49.27v-16.74
				c0.02-3.99-1.36-7.85-3.9-10.93c-1.61-1.78-1.47-4.54,0.31-6.15c1.78-1.61,4.54-1.47,6.15,0.31c0.09,0.1,0.18,0.21,0.26,0.32
				H483.98z M475.37,480.5c0-10.41-8.44-18.84-18.85-18.84c-10.4,0-18.84,8.44-18.84,18.84c0.27,10.4,8.93,18.62,19.33,18.34
				c10.02-0.26,18.08-8.32,18.34-18.34H475.37z M446.39,480.5c0.2-5.6,4.9-9.98,10.51-9.78c5.32,0.19,9.59,4.46,9.78,9.78
				c0,5.61-4.54,10.15-10.15,10.15c-5.61,0-10.15-4.54-10.15-10.15l0,0H446.39z M570.96,399.49c8.47,8.53,5.33,26.8,5.9,37.54
				c-0.01,2.4-1.95,4.34-4.35,4.34h-58.03c-2.39-0.01-4.33-1.95-4.34-4.34v-21.11c0-5.82,3.82-21.55,12-17.04
				c1.86,1.52,2.13,4.25,0.61,6.11c-5.94,5.93-3.37,20.22-3.9,27.68h49.27v-16.75c1.3-6.91-8.36-12.51-3.31-17.04
				c1.83-1.54,4.56-1.31,6.1,0.52C570.92,399.44,570.94,399.46,570.96,399.49z M543.53,400.79c10.41,0,18.84-8.44,18.84-18.85
				c0-10.4-8.44-18.84-18.84-18.84c-10.41-0.01-18.86,8.41-18.88,18.82c-0.01,10.41,8.41,18.86,18.82,18.88L543.53,400.79z
				 M543.53,371.8c5.61,0,10.15,4.55,10.14,10.16c0,5.6-4.54,10.14-10.14,10.14c-5.6-0.19-9.99-4.88-9.81-10.48
				c0.18-5.32,4.44-9.6,9.76-9.81L543.53,371.8z M483.97,399.49c8.42,8.54,5.3,26.81,5.87,37.54c0,2.4-1.94,4.34-4.34,4.34h-57.97
				c-2.39-0.01-4.33-1.95-4.34-4.34v-21.11c0-5.82,3.81-21.55,12-17.04c1.85,1.51,2.13,4.24,0.61,6.09
				c-0.01,0.01-0.01,0.01-0.02,0.02c-5.94,5.93-3.35,20.22-3.9,27.68h49.27v-16.75c1.3-6.9-8.36-12.54-3.3-17.04
				C479.71,397.37,482.44,397.64,483.97,399.49z M456.52,400.79c10.41,0,18.84-8.44,18.84-18.85c0-10.4-8.44-18.84-18.84-18.84
				c-10.41,0-18.85,8.44-18.85,18.85s8.44,18.85,18.85,18.85V400.79z M456.52,371.8c5.61,0,10.15,4.55,10.14,10.16
				c0,5.6-4.54,10.14-10.14,10.14c-5.6-0.2-9.98-4.9-9.78-10.51c0.19-5.32,4.46-9.59,9.78-9.78V371.8z"/>
		</g>
	</g>
</g>
</svg>
