<?xml version="1.0" encoding="utf-8"?>
<!-- Generator: Adobe Illustrator 23.0.1, SVG Export Plug-In . SVG Version: 6.00 Build 0)  -->
<svg version="1.1" id="Layer_1" xmlns="http://www.w3.org/2000/svg" xmlns:xlink="http://www.w3.org/1999/xlink" x="0px" y="0px"
	 viewBox="0 0 1000 1000" style="enable-background:new 0 0 1000 1000;" xml:space="preserve">
<style type="text/css">
	.st0{fill:#20B798;}
	.st1{fill:#FFFFFF;}
</style>
<circle class="st0" cx="500" cy="500" r="317.98"/>
<g>
	<path class="st1" d="M493.65,698.62c-4.94-1.5-10.15-2.41-14.76-4.59c-19.91-9.42-30.43-25.34-31-47.4
		c-0.35-13.76-0.09-27.53-0.06-41.3c0.05-25.21-8.79-46.81-26.67-64.51c-17.59-17.42-29.25-37.92-33.9-62.33
		c-9.66-50.74,16.56-102.16,63.49-124.31c62.9-29.7,137.75,2.45,158.21,68.85c13.26,43.04,3.57,81.65-27.3,114.45
		c-10.78,11.45-20.15,23.47-25.14,38.53c-3.01,9.08-4.56,18.37-4.55,27.94c0.01,13.65,0.01,27.3,0,40.96
		c-0.02,27.59-17.42,48.3-44.62,53.15c-0.42,0.08-0.8,0.37-1.2,0.57C501.98,698.62,497.82,698.62,493.65,698.62z M531.38,592.97
		c1-5.21,1.74-10.13,2.92-14.94c5.22-21.24,16.46-38.82,31.76-54.36c25.09-25.49,33.12-56.2,24.2-90.68
		c-12.05-46.6-57.42-75.38-105.55-67.74c-51.02,8.1-86.88,56.07-76.83,110.33c3.68,19.84,13.53,36.4,27.97,50.42
		c13.54,13.15,23,28.9,28.27,47.03c1.89,6.49,3.01,13.2,4.5,19.93C489.45,592.97,510.36,592.97,531.38,592.97z M468.79,614.08
		c-0.05,0.7-0.13,1.25-0.13,1.8c0.02,11.09-0.41,22.21,0.19,33.27c0.84,15.4,14,27.85,29.29,28.58
		c15.79,0.75,30.42-10.04,32.15-25.49c1.39-12.44,0.58-25.13,0.73-37.7c0-0.17-0.28-0.34-0.39-0.46
		C510.05,614.08,489.53,614.08,468.79,614.08z"/>
	<path class="st1" d="M677.64,468.12c-13.96,0-27.92,0-42.12,0c0-6.92,0-13.66,0-20.83c14.04,0,28.08,0,42.12,0
		C677.64,454.23,677.64,461.17,677.64,468.12z"/>
	<path class="st1" d="M333.95,388.58c4.4-4.38,9.14-9.09,13.58-13.51c9.94,9.95,20.02,20.04,29.86,29.89
		c-4.3,4.26-9.1,9.02-13.7,13.6C354.11,408.91,344.07,398.78,333.95,388.58z"/>
	<path class="st1" d="M652.26,375.11c4.4,4.4,9.12,9.12,13.55,13.56c-9.96,9.94-20.05,20.02-29.89,29.85
		c-4.27-4.3-9.02-9.1-13.5-13.61C632.02,395.32,642.11,385.24,652.26,375.11z"/>
	<path class="st1" d="M364.05,496.07c4.69,4.69,9.43,9.42,13.89,13.88c-9.99,9.99-20.09,20.08-30.02,30.01
		c-4.41-4.41-9.21-9.22-13.93-13.94C343.83,516.21,353.89,506.19,364.05,496.07z"/>
	<path class="st1" d="M621.52,510.26c4.73-4.73,9.46-9.47,13.93-13.95c10,10.01,20.1,20.11,30.02,30.05
		c-4.46,4.45-9.27,9.24-13.98,13.95C641.69,530.48,631.66,520.43,621.52,510.26z"/>
	<path class="st1" d="M322.36,447.45c13.98,0,27.81,0,41.9,0c0,6.72,0,13.47,0,20.44c-13.87,0-27.79,0-41.9,0
		C322.36,461.1,322.36,454.36,322.36,447.45z"/>
	<path class="st1" d="M510.31,488.77c-7,0-13.66,0-20.53,0c-1.73-16.76,1.44-31.74,15.42-42.8c3.88-3.07,6.03-6.7,4.69-11.72
		c-1.33-5-5.98-8.22-10.93-7.75c-5.11,0.49-9.2,4.67-9.43,9.91c-0.16,3.45-0.03,6.92-0.03,10.63c-6.94,0-13.68,0-20.43,0
		c-2.06-16.63,1.77-29.94,16.51-37.83c13.97-7.48,30.98-3.05,39.99,9.93c8.95,12.9,7.26,30.78-4.95,40.82
		c-7.9,6.5-11.24,14.02-10.33,23.88C510.44,485.42,510.31,487.02,510.31,488.77z"/>
	<path class="st1" d="M489.74,509.92c6.89,0,13.54,0,20.39,0c0,6.8,0,13.46,0,20.4c-6.65,0-13.39,0-20.39,0
		C489.74,523.69,489.74,516.96,489.74,509.92z"/>
</g>
</svg>
