<?xml version="1.0" encoding="utf-8"?>
<!-- Generator: Adobe Illustrator 23.0.1, SVG Export Plug-In . SVG Version: 6.00 Build 0)  -->
<svg version="1.1" id="Layer_1" xmlns="http://www.w3.org/2000/svg" xmlns:xlink="http://www.w3.org/1999/xlink" x="0px" y="0px"
	 viewBox="0 0 1000 1000" style="enable-background:new 0 0 1000 1000;" xml:space="preserve">
<style type="text/css">
	.st0{fill:#20B798;}
	.st1{fill:#FFFFFF;}
</style>
<circle class="st0" cx="500" cy="500" r="317.98"/>
<g>
	<path class="st1" d="M484.29,704.77c-9.37-2.91-15.74-8.53-16.62-18.85c-0.3-3.48-0.11-6.99-0.14-10.49c-0.01-1.35,0-2.71,0-4.59
		c-6.76,0.22-12.93-0.62-17.69-5.72c-4.82-5.15-4.73-11.53-4.61-18.43c-3.6,0-6.93,0.01-10.25,0c-18.6-0.04-29.24-10.67-29.33-29.32
		c-0.01-1.12,0-2.24,0-3.69c-7.66-0.85-14.71-3.08-20.93-7.52c-6.25-4.46-10.84-10.26-14.45-18.43c-0.96,1.87-1.99,2.95-2,4.03
		c-0.1,12.37-0.14,24.75,0,37.12c0.08,6.89,3.92,11.95,8.9,16.24c0.68,0.58,1.81,0.82,2.75,0.88c6.03,0.38,11.01,2.96,15.35,7.01
		c2.01,1.88,4.12,3.64,6.08,5.58c3.81,3.77,4.18,8.74,0.64,12.74c-7.79,8.79-15.67,17.5-23.67,26.1c-3.49,3.75-8.23,4-12.13,0.79
		c-3.27-2.69-6.47-5.53-9.36-8.63c-5.09-5.45-6.63-12.09-5.91-19.43c0.14-1.47-0.27-3.5-1.22-4.51
		c-10.5-11.1-15.43-24.26-15.32-39.46c0.08-11.12,0.06-22.25-0.04-33.37c-0.01-1.3-0.46-3.18-1.37-3.78
		c-6.37-4.21-9.07-10.11-8.7-17.56c0.16-3.11-0.24-5.47-3.26-7.56c-1.94-1.35-3.5-4.57-3.58-7.01c-0.34-10.61-0.77-21.29,0.14-31.84
		c1.38-16.02,13.92-26.85,30.09-27.08c7.25-0.11,14.5-0.09,21.75,0.02c2.22,0.04,3.54-0.61,4.84-2.54
		c8.21-12.19,19.82-18.32,34.49-18.42c14.37-0.1,28.74-0.02,43.12-0.03c0.86,0,1.72-0.12,2.84-0.21c0-4.03,0-7.98,0-12.6
		c-2.11,0-4.3,0.01-6.48,0c-20.71-0.1-36.31-11.42-42.74-31.14c-0.68-2.1-1.7-2.75-3.74-2.57c-1.74,0.15-3.5,0.06-5.25,0.01
		c-11.16-0.33-18.87-7.74-19.08-18.9c-0.24-12.74-0.26-25.5,0.01-38.24c0.23-11.26,8.28-18.78,19.54-18.84c2.49-0.01,4.98,0,7.64,0
		c2.18-7.95,5.77-14.99,11.57-20.77c8.35-8.32,18.42-12.88,30.19-12.92c35.62-0.14,71.24-0.16,106.86-0.01
		c18.85,0.08,35.08,12.23,40.75,30.26c0.89,2.83,2.11,3.63,4.93,3.51c3.21-0.13,6.55-0.05,9.65,0.7
		c7.93,1.91,13.63,9.02,13.72,17.16c0.16,13.37,0.19,26.75-0.01,40.12c-0.14,9.54-7.84,17.94-17.36,17.61
		c-7.37-0.26-10.24,2.27-13.2,8.96c-6.98,15.79-20.04,24.04-37.44,24.99c-2.71,0.15-5.44,0.02-8.38,0.02c0,4.4,0,8.34,0,12.69
		c1.34,0.06,2.66,0.17,3.98,0.17c13.75,0.01,27.5,0,41.24,0.01c15.13,0.01,26.95,6.25,35.53,18.75c0.74,1.08,2.49,2.05,3.79,2.08
		c7.37,0.2,14.75,0,22.12,0.12c17.11,0.29,29.85,12.74,30.31,29.79c0.25,9.24,0.09,18.5,0.04,27.74c-0.02,3.99-1.63,7.16-4.88,9.64
		c-1.06,0.81-1.81,2.45-2.05,3.82c-0.38,2.19-0.12,4.49-0.31,6.73c-0.36,4.45-2.11,8.61-5.74,10.94c-3.92,2.52-4.31,5.59-4.29,9.66
		c0.08,12.61,0.22,25.25-0.5,37.84c-0.69,12.02-6.1,22.28-14.38,30.95c-1.48,1.55-2.12,2.86-1.73,5.21
		c1.08,6.42-0.18,12.63-4.43,17.62c-3.38,3.96-7.34,7.5-11.4,10.79c-3.43,2.78-8.09,2.25-11.22-1.11
		c-8.17-8.78-16.23-17.67-24.17-26.66c-3.04-3.45-2.94-8.41,0.3-11.59c6.49-6.37,12.88-12.36,22.9-13.77
		c5.61-0.79,8.68-7,10.23-12.76c0.48-1.79,0.64-3.71,0.65-5.56c0.06-11.5,0.06-23-0.01-34.49c-0.01-1.3-0.5-2.6-0.77-3.89
		c-0.35-0.01-0.7-0.01-1.05-0.02c-0.5,0.8-1.04,1.58-1.48,2.41c-6.87,12.79-17.41,20.31-31.89,22.02c-2.07,0.24-2.72,0.91-2.77,2.97
		c-0.08,3.6-0.06,7.3-0.89,10.77c-2.54,10.64-11.77,18.52-22.66,19.36c-5.07,0.39-10.19,0.07-15.75,0.07
		c-0.04,6.89,0.17,13.33-4.55,18.48c-4.74,5.18-10.85,6.19-17.99,5.84c1.09,14.63,1.05,28.65-16.27,34.01
		C505.29,704.77,494.79,704.77,484.29,704.77z M479.11,516.01c-3.45,0-6.67,0.06-9.89-0.01c-16.34-0.38-29.26-9.56-34.78-24.91
		c-0.78-2.17-1.72-2.91-3.96-2.86c-6.75,0.13-13.5,0.03-20.25,0.05c-19.18,0.05-31.33,12.21-31.37,31.45
		c-0.04,17.12-0.05,34.25,0.03,51.37c0.01,2.98,0.22,6.03,0.91,8.91c3.36,13.85,14.68,22.25,29.86,22.25
		c59.75,0.02,119.5,0.01,179.25,0.01c1.62,0,3.25,0.01,4.87-0.07c15.4-0.73,27.58-13.07,27.71-28.48c0.17-19,0.17-38-0.01-57
		c-0.14-14.46-11.25-26.78-25.68-28.01c-8.94-0.76-17.98-0.39-26.97-0.34c-0.86,0-2.12,1.13-2.49,2.03
		c-7.3,17.78-18.88,25.61-38.1,25.62c-2.57,0-5.15,0-7.76,0c0,4.55,0,8.51,0,12.92c1.51,0,2.86,0,4.2,0
		c11.87,0,23.75-0.08,35.62,0.03c8.45,0.08,14.27,5.37,14.52,13.48c0.27,8.87,0.27,17.75,0,26.62c-0.24,7.96-6.14,13.38-14.13,13.49
		c-5.5,0.07-11,0.05-16.5,0c-4.15-0.03-6.59-2.09-6.66-5.47c-0.07-3.53,2.46-5.71,6.79-5.75c4.87-0.05,9.76-0.15,14.62,0.04
		c3.35,0.13,4.8-1.06,4.74-4.52c-0.13-7.37-0.12-14.75,0-22.12c0.05-3.12-1.04-4.57-4.33-4.57c-39.5,0.05-79,0.05-118.5,0
		c-3.18,0-4.52,1.2-4.46,4.44c0.13,6.62,0.04,13.25,0.04,19.87c0,6.85,0,6.85,6.81,6.85c24.62,0,49.25-0.06,73.87,0.1
		c2.14,0.01,4.75,0.91,6.26,2.33c1.05,1,1.16,3.76,0.68,5.44c-0.84,2.95-3.56,3.4-6.38,3.4c-25.87-0.04-51.75,0-77.62-0.03
		c-9.06-0.01-14.77-5.66-14.86-14.69c-0.08-7.62-0.03-15.25-0.02-22.87c0.02-10.78,5.3-16.03,16.18-16.05
		c11.25-0.02,22.5,0,33.75-0.01c1.32,0,2.63-0.14,4.01-0.22C479.11,524.36,479.11,520.41,479.11,516.01z M499.6,452.96
		c17.12,0,34.24,0.04,51.36-0.01c20.36-0.07,33.83-13.55,33.86-33.84c0.03-17.62,0.02-35.24,0-52.86
		c-0.02-20.7-13.55-34.2-34.3-34.22c-33.74-0.02-67.48-0.02-101.22,0c-20.91,0.01-34.45,13.53-34.49,34.47
		c-0.04,17.37,0.26,34.74-0.08,52.11c-0.41,20.97,15.91,35.11,34.63,34.48C466.1,452.51,482.86,452.96,499.6,452.96z M543.22,646.7
		c-1.88,0-3.23,0-4.58,0c-15.49,0-30.98,0.01-46.47-0.01c-1.49,0-3.02,0.01-4.47-0.29c-2.81-0.58-4.29-2.46-4.31-5.32
		c-0.02-2.86,1.4-4.8,4.21-5.4c1.57-0.33,3.22-0.32,4.84-0.32c24.61-0.02,49.22,0.01,73.83-0.02c8.31-0.01,14.4-4.22,15.93-11.41
		c0.68-3.2,0.4-6.61,0.56-10.04c-55.56,0-110.57,0-165.55,0c-1.98,13.33,4.71,22.36,18.76,21.56c9.34-0.53,18.73-0.16,28.1-0.05
		c4.05,0.05,6.51,2.46,6.4,5.8c-0.11,3.2-2.48,5.3-6.37,5.46c-2.44,0.1-4.88,0.02-7.56,0.02c0,1.82,0,3.05,0,4.28
		c0,6.6,1.89,8.53,8.42,8.56c5.12,0.02,10.24,0.01,15.37,0.01c18.36,0,36.73,0.02,55.09-0.02c5.57-0.01,7.69-2.18,7.81-7.69
		C543.25,650.33,543.22,648.85,543.22,646.7z M509.05,528.75c0-5.58-0.04-10.69,0.01-15.81c0.06-5.36,2.67-8.02,8.08-8.15
		c5.12-0.12,10.25,0.03,15.36-0.13c7.11-0.23,13.06-3.17,17.71-8.49c1.88-2.15,3.24-4.76,5.12-7.57c-37.08,0-73.2,0-109.42,0
		c2.37,8.32,11.34,15.29,20.55,15.95c4.48,0.32,8.99,0.21,13.48,0.22c8.85,0.03,10.66,1.86,10.67,10.84c0,4.33,0,8.65,0,13.15
		C497,528.75,502.81,528.75,509.05,528.75z M328.75,555.36c13.03,0,25.71,0,38.89,0c0-15.34,0-30.49,0-45.82
		c-7.53,0-15.38-0.52-23.13,0.14c-8.46,0.72-14.99,7.11-15.59,15.62C328.22,535.19,328.75,545.17,328.75,555.36z M632.78,509.48
		c0,15.53,0,30.7,0,45.77c13.26,0,25.93,0,38.74,0c0-9.78,0.4-19.28-0.11-28.73c-0.5-9.22-7.06-16.12-16.14-16.91
		C647.73,508.96,640.09,509.48,632.78,509.48z M534.12,464.48c-22.8,0-45.22,0-67.7,0c0,4.23,0,8.18,0,12.33c22.62,0,45.04,0,67.7,0
		C534.12,472.67,534.12,468.73,534.12,464.48z M596.32,366.06c0,17.74,0,35.28,0,53.15c1.83,0,3.43,0.01,5.03,0
		c7.28-0.03,9.7-2.4,9.7-9.6c0.01-10.24-0.31-20.49,0.08-30.71c0.49-12.87-3.81-13.6-13.8-13.09
		C597.1,365.83,596.86,365.92,596.32,366.06z M403.23,419.04c0-17.98,0-35.51,0-53.27c-1.54,0-2.77,0-4.01,0
		c-8.4-0.01-10.6,2.2-10.61,10.69c-0.01,10.5,0,20.99,0,31.49c0,9.42,1.99,11.37,11.49,11.25
		C401.08,419.19,402.05,419.1,403.23,419.04z M364.79,648.74c-5.16-5.75-7.91-13.3-7.87-21.87c0.04-8.99,0.01-17.97,0.01-26.96
		c0-2.71,0-5.41,0-8.14c-3.98,0-7.5,0-11.05,0c0,13.51-0.37,26.73,0.12,39.92c0.36,9.72,4.42,18.19,11.24,25.22
		C359.83,654.11,362.18,651.56,364.79,648.74z M643.16,591.58c0,1.64,0,2.98,0,4.33c0,9.86-0.11,19.72,0.03,29.58
		c0.13,9.07-2.33,17.17-7.71,23.02c2.55,3.07,4.77,5.74,7.16,8.62c5.3-5.41,9.64-11.5,10.16-18.57c1.15-15.38,1.08-30.85,1.48-46.28
		c0.01-0.19-0.28-0.39-0.51-0.7C650.5,591.58,647.15,591.58,643.16,591.58z M371.75,688.01c6.93-7.65,13.61-15.03,20.33-22.44
		c-4.93-5.11-9.85-10.41-17.52-7.71c-6.25,2.2-10.73,7.12-12.26,13.64C360.46,679.32,366.23,683.48,371.75,688.01z M628.35,688.01
		c5.48-4.51,11.24-8.66,9.43-16.47c-1.51-6.53-5.99-11.42-12.23-13.67c-7.71-2.78-12.57,2.61-17.55,7.71
		C614.77,673.04,621.53,680.49,628.35,688.01z M335.55,566.93c0,2.45-0.1,4.55,0.02,6.64c0.24,4.03,2.59,6.46,6.67,6.55
		c6.1,0.15,12.2,0.12,18.3,0.01c3.36-0.06,5.85-1.83,6.43-5.16c0.45-2.59,0.09-5.32,0.09-8.04
		C356.49,566.93,346.31,566.93,335.55,566.93z M632.84,566.99c0,2.25-0.09,4.34,0.02,6.42c0.21,4.01,2.59,6.6,6.57,6.71
		c6.22,0.17,12.45,0.17,18.67-0.01c3.31-0.09,5.77-1.88,6.23-5.32c0.33-2.52,0.07-5.11,0.07-7.8
		C653.77,566.99,643.49,566.99,632.84,566.99z M505.64,671.01c0,7.52,0,14.81,0,22.43c2.49,0,4.84,0.19,7.15-0.04
		c4.18-0.43,7.63-3.51,7.96-7.7c0.38-4.8,0.09-9.65,0.09-14.69C515.68,671.01,510.77,671.01,505.64,671.01z M494.01,671.03
		c-5.21,0-10.02,0-15.05,0c0,5.09-0.23,9.94,0.08,14.76c0.24,3.7,2.62,6.32,6.2,7.15c2.81,0.64,5.8,0.49,8.77,0.7
		C494.01,685.75,494.01,678.54,494.01,671.03z"/>
	<path class="st1" d="M517.48,550.18c8.99,0,17.98-0.02,26.97,0.01c4.46,0.02,6.97,2.02,7.03,5.49c0.06,3.55-2.64,5.77-7.22,5.78
		c-17.86,0.03-35.71,0.02-53.57,0c-4.74-0.01-7.29-1.99-7.34-5.59c-0.06-3.67,2.42-5.67,7.15-5.68
		C499.5,550.16,508.49,550.18,517.48,550.18z"/>
	<path class="st1" d="M395.8,528.91c0-5.25-0.05-10.49,0.02-15.74c0.05-4.02,2.34-6.48,5.75-6.4c3.24,0.07,5.45,2.48,5.47,6.29
		c0.06,10.87,0.06,21.74,0,32.6c-0.02,3.84-2.22,6.16-5.54,6.19c-3.32,0.03-5.61-2.3-5.67-6.08
		C395.73,540.15,395.8,534.53,395.8,528.91z"/>
	<path class="st1" d="M604.64,529.44c0,5.24,0.07,10.49-0.02,15.73c-0.07,4.35-1.97,6.58-5.44,6.67c-3.61,0.09-5.76-2.26-5.79-6.72
		c-0.07-10.61-0.07-21.23,0.01-31.84c0.03-4.17,2.23-6.53,5.64-6.52c3.42,0.01,5.5,2.35,5.57,6.57
		C604.71,518.71,604.64,524.08,604.64,529.44z"/>
	<path class="st1" d="M458.11,550.22c2.37,0,4.74-0.12,7.09,0.03c3.22,0.21,5.05,2.18,5.19,5.3c0.14,3.16-1.68,5.49-4.76,5.7
		c-5.2,0.35-10.46,0.37-15.66-0.03c-3.04-0.23-4.86-2.57-4.64-5.78c0.22-3.15,2.12-5.01,5.3-5.2
		C453.13,550.1,455.62,550.22,458.11,550.22z"/>
	<path class="st1" d="M499.73,343.3c17.12,0,34.24-0.01,51.36,0c13.77,0.02,22.45,8.69,22.47,22.48c0.02,17.87,0.03,35.74,0,53.61
		c-0.02,13.45-8.49,22.21-21.85,22.28c-22.62,0.12-45.24,0.05-67.86,0.02c-4.82,0-7.22-1.97-7.17-5.67c0.05-3.66,2.52-5.6,7.33-5.61
		c22.12-0.02,44.24,0,66.36-0.01c8.63,0,11.94-3.35,11.94-12.05c0.01-17.37,0.01-34.74,0-52.11c-0.01-8.07-3.59-11.69-11.62-11.69
		c-33.87-0.01-67.74-0.01-101.6,0c-8.08,0-11.68,3.54-11.7,11.64c-0.04,17.62-0.05,35.24,0,52.86c0.02,7.9,3.57,11.3,11.55,11.34
		c2.87,0.02,5.75-0.08,8.62,0.04c3.75,0.15,6.24,2.46,6.26,5.62c0.03,3.22-2.39,5.51-6.19,5.6c-4,0.09-8,0.12-11.99-0.08
		c-9.86-0.49-17.95-8.05-19.22-17.83c-0.22-1.73-0.32-3.49-0.32-5.23c-0.02-17.37-0.04-34.74-0.01-52.11
		c0.03-14.59,8.53-23.1,23.02-23.11C465.99,343.29,482.86,343.3,499.73,343.3z"/>
	<path class="st1" d="M474.27,394.55c0,3.75,0.09,7.5-0.02,11.25c-0.12,4.04-2.45,6.52-5.79,6.43c-3.2-0.08-5.38-2.48-5.42-6.35
		c-0.09-7.75-0.08-15.5,0-23.25c0.04-4.01,2.05-6.27,5.34-6.39c3.44-0.13,5.74,2.22,5.87,6.31
		C474.37,386.55,474.27,390.55,474.27,394.55z"/>
	<path class="st1" d="M525.51,394.07c0-3.98-0.08-7.97,0.02-11.95c0.09-3.52,2.3-5.8,5.45-5.87c3.16-0.06,5.66,2.16,5.72,5.61
		c0.13,8.22,0.13,16.44,0,24.65c-0.05,3.44-2.57,5.76-5.66,5.72c-3.09-0.03-5.42-2.38-5.51-5.84
		C525.43,402.29,525.51,398.18,525.51,394.07z"/>
</g>
</svg>
