<?xml version="1.0" encoding="utf-8"?>
<!-- Generator: Adobe Illustrator 23.0.1, SVG Export Plug-In . SVG Version: 6.00 Build 0)  -->
<svg version="1.1" id="Layer_1" xmlns="http://www.w3.org/2000/svg" xmlns:xlink="http://www.w3.org/1999/xlink" x="0px" y="0px"
	 viewBox="0 0 1000 1000" style="enable-background:new 0 0 1000 1000;" xml:space="preserve">
<style type="text/css">
	.st0{fill:#20B798;}
	.st1{fill:#FFFFFF;}
</style>
<circle class="st0" cx="500" cy="500" r="317.98"/>
<g>
	<path class="st1" d="M659.97,649.19c4.04,0,7.78-0.05,11.51,0.01c4.28,0.07,6.18,1.92,6.23,6.18c0.07,5.37,0.07,10.75,0,16.12
		c-0.05,4.24-1.96,6.07-6.24,6.18c-0.87,0.02-1.75,0-2.62,0c-112.6,0-225.21,0-337.81,0c-7.74,0-8.8-1.07-8.8-8.89c0-4-0.01-8,0-12
		c0.01-6.03,1.54-7.6,7.45-7.61c3.36-0.01,6.71,0,10.31,0c0-69.03,0-137.81,0-206.88c-0.87-0.04-1.7-0.08-2.53-0.12
		c-4.35-0.19-6.15-1.94-6.2-6.22c-0.06-5.37-0.07-10.75,0-16.12c0.05-4.23,1.96-6.12,6.26-6.14c11-0.05,22-0.02,32.99-0.02
		c20,0,39.99,0,59.99,0c1.35,0,2.69,0,4.26,0c0-7.27,0-14.19,0-21.56c-2.92,0-5.64-0.05-8.35,0.01c-2.89,0.07-5.22-0.7-6.18-3.72
		c-0.91-2.86,0.59-4.72,2.69-6.39c19.28-15.31,38.53-30.64,57.79-45.96c4.99-3.97,10.05-7.85,14.94-11.92
		c3.02-2.52,5.7-2.4,8.71,0.01c24.21,19.33,48.47,38.62,72.72,57.9c2.1,1.67,3.56,3.56,2.63,6.41c-0.99,3.01-3.34,3.75-6.22,3.67
		c-2.61-0.07-5.21-0.01-8.17-0.01c0,7.18,0,14.1,0,21.56c1.3,0,2.75,0,4.2,0c30.49,0,60.99,0,91.48,0c6.22,0,7.7,1.49,7.71,7.72
		c0.01,3.87,0,7.75,0,11.62c0,8.02-0.7,8.78-8.76,9.33C659.97,511.14,659.97,579.93,659.97,649.19z M467.74,649.05
		c0-1.71,0-3.07,0-4.43c0-19.87,0-39.74,0-59.61c0-6.42,1.44-7.82,7.98-7.82c16.25,0,32.49,0,48.74,0c6.26,0,7.77,1.49,7.78,7.66
		c0.01,19.99,0,39.99,0,59.98c0,1.34,0,2.68,0,4.13c7.55,0,14.72,0,21.98,0c0-85.63,0-171.03,0-256.55c-36.29,0-72.32,0-108.49,0
		c0,85.69,0,171.09,0,256.64C453.06,649.05,460.15,649.05,467.74,649.05z M351,442.31c0,69.12,0,137.9,0,206.65
		c28.07,0,55.88,0,83.69,0c0-69,0-137.76,0-206.65C406.68,442.31,378.97,442.31,351,442.31z M565.29,442.31
		c0,69.12,0,137.88,0,206.63c28.1,0,55.9,0,83.68,0c0-69.02,0-137.79,0-206.63C620.99,442.31,593.28,442.31,565.29,442.31z
		 M559.4,381.4c-20.26-16.12-39.77-31.64-59.4-47.26c-19.71,15.68-39.2,31.19-59.39,47.26C480.5,381.4,519.43,381.4,559.4,381.4z
		 M478.5,587.85c0,20.58,0,40.86,0,61.03c14.55,0,28.83,0,43.03,0c0-20.49,0-40.68,0-61.03
		C507.15,587.85,492.95,587.85,478.5,587.85z M667.07,659.95c-111.6,0-222.87,0-334.16,0c0,2.46,0,4.67,0,7.05
		c111.45,0,222.72,0,334.16,0C667.07,664.6,667.07,662.39,667.07,659.95z M434.88,424.49c-31.27,0-62.15,0-92.93,0
		c0,2.51,0,4.71,0,6.88c31.09,0,61.97,0,92.93,0C434.88,428.95,434.88,426.84,434.88,424.49z M565.17,431.43
		c31.08,0,61.97,0,92.76,0c0-2.55,0-4.84,0-7c-31.1,0-61.91,0-92.76,0C565.17,426.88,565.17,429.09,565.17,431.43z"/>
	<path class="st1" d="M500.03,428.7c17.75,0.05,32.18,14.48,32.19,32.19c0.01,17.75-14.44,32.29-32.09,32.29
		c-17.94,0-32.39-14.45-32.39-32.38C467.74,443.15,482.33,428.66,500.03,428.7z M500.32,439.21c-11.97-0.12-21.86,9.44-22.07,21.32
		c-0.21,12.11,9.52,22.09,21.6,22.15c11.96,0.06,21.78-9.59,21.88-21.5C521.82,449.23,512.18,439.32,500.32,439.21z"/>
	<path class="st1" d="M480.12,508.88c2.99,0,5.98-0.03,8.98,0.01c3.48,0.05,5.4,2.02,5.5,5.33c0.18,5.85,0.14,11.72,0.02,17.57
		c-0.07,3.36-2.03,5.41-5.39,5.51c-5.85,0.16-11.72,0.16-17.57,0.01c-3.54-0.09-5.4-2.16-5.45-5.77c-0.08-5.61-0.08-11.22,0-16.83
		c0.06-4.03,1.92-5.75,6.08-5.83C474.88,508.84,477.5,508.88,480.12,508.88z M483.99,519.6c-2.64,0-4.84,0-7.03,0
		c0,2.52,0,4.8,0,7.03c2.5,0,4.69,0,7.03,0C483.99,524.21,483.99,522.02,483.99,519.6z"/>
	<path class="st1" d="M519.7,508.88c2.87,0,5.74-0.04,8.6,0.01c3.43,0.07,5.39,1.88,5.46,5.3c0.11,5.86,0.06,11.72,0.02,17.58
		c-0.03,3.47-2.01,5.41-5.32,5.52c-5.85,0.19-11.72,0.17-17.57,0.02c-3.54-0.09-5.47-2.13-5.54-5.75
		c-0.12-5.73-0.13-11.47,0.01-17.2c0.09-3.56,2.13-5.37,5.74-5.47C513.97,508.82,516.84,508.88,519.7,508.88z M523.09,526.7
		c0-2.6,0-4.8,0-7.04c-2.5,0-4.79,0-7.06,0c0,2.48,0,4.68,0,7.04C518.45,526.7,520.65,526.7,523.09,526.7z"/>
	<path class="st1" d="M407.07,562.49c-0.01,2.87,0.06,5.74-0.02,8.6c-0.1,3.44-1.96,5.34-5.38,5.39
		c-5.86,0.09-11.72,0.08-17.58,0.01c-3.47-0.04-5.35-2.09-5.45-5.4c-0.17-5.85-0.16-11.72,0-17.57c0.1-3.52,2.16-5.39,5.81-5.46
		c5.61-0.1,11.22-0.11,16.83,0c3.82,0.07,5.66,2,5.77,5.83C407.14,556.75,407.07,559.62,407.07,562.49z M396.47,558.85
		c-2.67,0-4.93,0-7.15,0c0,2.51,0,4.7,0,6.88c2.53,0,4.81,0,7.15,0C396.47,563.32,396.47,561.21,396.47,558.85z"/>
	<path class="st1" d="M393.08,508.88c2.87,0,5.74-0.06,8.6,0.02c3.44,0.1,5.31,1.98,5.36,5.4c0.08,5.86,0.06,11.72,0,17.58
		c-0.04,3.48-2.11,5.34-5.4,5.43c-5.85,0.17-11.72,0.15-17.57,0c-3.36-0.09-5.35-2.11-5.43-5.47c-0.14-5.86-0.16-11.72,0-17.57
		c0.1-3.52,2.18-5.28,5.84-5.37C387.35,508.83,390.22,508.88,393.08,508.88z M396.38,519.65c-2.49,0-4.76,0-7.09,0
		c0,2.47,0,4.65,0,6.95c2.5,0,4.78,0,7.09,0C396.38,524.13,396.38,521.93,396.38,519.65z"/>
	<path class="st1" d="M407.07,483.79c0,2.87,0.01,5.73,0,8.6c-0.02,3.45-1.82,5.49-5.19,5.6c-5.97,0.18-11.96,0.17-17.93,0.02
		c-3.39-0.09-5.25-2.2-5.32-5.56c-0.11-5.73-0.13-11.46,0-17.19c0.08-3.63,1.98-5.51,5.63-5.59c5.73-0.13,11.46-0.13,17.19,0
		c3.88,0.09,5.52,1.93,5.62,5.91C407.13,478.31,407.07,481.05,407.07,483.79z M396.36,487.41c0-2.57,0-4.75,0-6.98
		c-2.49,0-4.74,0-7.04,0c0,2.48,0,4.63,0,6.98C391.73,487.41,393.9,487.41,396.36,487.41z"/>
	<path class="st1" d="M407.05,601.64c0,2.99,0.09,5.98-0.02,8.97c-0.11,3.08-1.85,4.97-4.9,5.04c-6.1,0.16-12.21,0.14-18.31,0.03
		c-3.27-0.06-5.08-2.11-5.17-5.26c-0.16-5.85-0.14-11.71-0.02-17.56c0.07-3.37,2-5.41,5.37-5.5c5.85-0.15,11.71-0.18,17.56,0
		c3.71,0.11,5.38,2.01,5.49,5.69c0.09,2.86,0.02,5.73,0.02,8.6C407.06,601.64,407.06,601.64,407.05,601.64z M396.29,605.01
		c0-2.23,0-4.5,0-7c-2.31,0-4.59,0-7.01,0c0,2.41,0,4.58,0,7C391.64,605.01,393.82,605.01,396.29,605.01z"/>
	<path class="st1" d="M592.91,523.05c0-2.99-0.09-5.99,0.02-8.97c0.12-3.25,1.95-5.1,5.2-5.16c5.98-0.1,11.97-0.09,17.95,0
		c3.3,0.05,5.12,2.08,5.22,5.2c0.19,5.98,0.2,11.97,0,17.95c-0.11,3.36-2.28,5.22-5.63,5.27c-5.73,0.1-11.47,0.13-17.2-0.01
		c-3.6-0.09-5.44-2.07-5.55-5.67c-0.09-2.86-0.02-5.73-0.02-8.6C592.91,523.05,592.91,523.05,592.91,523.05z M610.77,519.65
		c-2.61,0-4.89,0-7.16,0c0,2.47,0,4.67,0,6.93c2.5,0,4.77,0,7.16,0C610.77,524.2,610.77,522.1,610.77,519.65z"/>
	<path class="st1" d="M606.9,576.51c-2.87,0-5.74,0.08-8.6-0.02c-3.42-0.11-5.33-1.96-5.37-5.4c-0.07-5.86-0.06-11.72,0-17.58
		c0.04-3.48,2.06-5.34,5.38-5.43c5.85-0.15,11.72-0.13,17.57,0c3.39,0.07,5.36,2.09,5.45,5.44c0.15,5.85,0.16,11.72,0,17.57
		c-0.1,3.52-2.17,5.3-5.83,5.41c-2.86,0.09-5.73,0.02-8.6,0.02C606.9,576.52,606.9,576.51,606.9,576.51z M603.58,565.77
		c2.65,0,4.84,0,7.11,0c0-2.45,0-4.63,0-6.98c-2.48,0-4.75,0-7.11,0C603.58,561.25,603.58,563.44,603.58,565.77z"/>
	<path class="st1" d="M592.9,483.7c0-2.87-0.04-5.73,0.01-8.6c0.06-3.46,1.92-5.37,5.32-5.44c5.85-0.11,11.71-0.08,17.57-0.01
		c3.43,0.04,5.42,1.97,5.52,5.32c0.17,5.85,0.15,11.71,0.02,17.56c-0.07,3.36-2.01,5.4-5.4,5.48c-5.85,0.14-11.71,0.17-17.56,0
		c-3.69-0.11-5.35-2.02-5.46-5.72C592.83,489.44,592.9,486.57,592.9,483.7z M610.69,487.35c0-2.42,0-4.59,0-6.99
		c-2.46,0-4.71,0-7.13,0c0,2.43,0,4.61,0,6.99C606.01,487.35,608.29,487.35,610.69,487.35z"/>
	<path class="st1" d="M592.9,601.43c0-2.87-0.02-5.73,0.01-8.6c0.04-3.26,1.76-5.3,4.96-5.41c6.1-0.2,12.21-0.2,18.3-0.02
		c3.42,0.1,5.13,2.36,5.18,5.68c0.09,5.6,0.11,11.21,0,16.82c-0.08,3.85-1.96,5.75-5.8,5.82c-5.73,0.12-11.46,0.13-17.19-0.01
		c-3.67-0.09-5.3-1.95-5.47-5.68c-0.01-0.25-0.01-0.5-0.01-0.75C592.89,606.66,592.89,604.04,592.9,601.43z M603.59,597.99
		c0,2.48,0,4.66,0,6.99c2.46,0,4.71,0,7.1,0c0-2.45,0-4.61,0-6.99C608.31,597.99,606.14,597.99,603.59,597.99z"/>
	<path class="st1" d="M498.75,443.55c4.07,0.41,5.88,1.9,6.38,4.69c0.24,1.33,0.23,2.75,0.08,4.1c-0.45,4.18,0.34,7.62,3.9,10.51
		c2.89,2.35,2.68,5.61,0.34,7.81c-2.24,2.1-4.7,1.57-7.69-0.42c-8.48-5.68-7.58-14.12-6.72-22.38
		C495.23,446.12,497.78,444.62,498.75,443.55z"/>
</g>
</svg>
