<?xml version="1.0" encoding="utf-8"?>
<!-- Generator: Adobe Illustrator 23.0.1, SVG Export Plug-In . SVG Version: 6.00 Build 0)  -->
<svg version="1.1" id="Layer_1" xmlns="http://www.w3.org/2000/svg" xmlns:xlink="http://www.w3.org/1999/xlink" x="0px" y="0px"
	 viewBox="0 0 1000 1000" style="enable-background:new 0 0 1000 1000;" xml:space="preserve">
<style type="text/css">
	.st0{fill:#20B798;}
	.st1{fill:#FFFFFF;}
</style>
<circle class="st0" cx="500" cy="500" r="317.98"/>
<g>
	<path class="st1" d="M563.53,608.9c-1.76,4.51-3.55,8.64-4.91,12.9c-0.33,1.03,0.44,2.79,1.26,3.74
		c6.34,7.45,7.74,17.37,3.48,25.89c-4.29,8.6-13.41,13.62-23.15,12.77c-0.12-0.01-0.27,0.02-0.37-0.04
		c-5.24-2.58-8.72,0.17-12.71,3.38c-17.44,13.97-37.12,13.58-54.38-0.75c-11.9-9.87-19.84-22.68-26.29-36.48
		c-3.21-6.88-5.95-13.98-8.95-21.09c-7.73,0.95-15.59,2.14-23.5,2.84c-13.52,1.19-26.96,0.8-40.08-3.23
		c-26.14-8.02-37.69-29.03-30.49-55.4c5.01-18.36,15.28-33.76,27.11-48.28c1.34-1.64,2.72-3.24,4.24-5.06
		c-3.09-3.86-6-7.74-9.24-11.31c-0.71-0.79-2.69-0.79-4-0.61c-12.49,1.7-23.65-5.78-26.3-18.05c-1.72-7.99,0.3-15.18,6.07-21.02
		c1.75-1.77,2.08-3.35,1.56-5.6c-1.74-7.52-2.11-15.12-0.11-22.63c4.6-17.27,17.17-25.98,33.45-30.34
		c18.52-4.96,37.15-3.45,55.76-0.44c1.83,0.3,3.64,0.65,5.17,0.92c4.2-9.36,8.01-18.56,12.42-27.48
		c5.23-10.59,11.91-20.26,20.74-28.23c19.87-17.95,43.05-17.38,62.12,1.48c13.82,13.67,22.11,30.65,28.89,48.52
		c0.7,1.85,1.38,3.71,2.06,5.53c7.87-1,15.5-2.24,23.18-2.89c14.66-1.25,29.25-0.87,43.31,4.09c15.71,5.54,26.86,15.64,29.18,32.82
		c0.86,6.4-0.4,13.12-1.01,19.67c-0.19,2.08-0.27,3.56,1.32,5.29c6.66,7.26,7.86,17.48,3.38,26.13
		c-4.54,8.75-13.65,13.54-23.67,12.21c-2.15-0.29-3.42,0.23-4.7,1.97c-2.43,3.32-5.14,6.43-7.95,9.89c2.48,3.07,5.02,6.11,7.46,9.24
		c10.43,13.39,19.49,27.56,23.82,44.19c3.9,14.99,3.09,29.33-7.69,41.62c-8.31,9.47-19.42,13.76-31.46,15.93
		c-17.86,3.22-35.59,1.43-53.25-1.8C564.78,609.07,564.3,609.01,563.53,608.9z M569.59,499.95c-0.71-12-1.37-23.98-2.23-35.94
		c-0.1-1.36-1.04-3.09-2.14-3.88c-19.65-14.06-40.46-26.13-62.48-36.09c-1.25-0.56-3.2-0.53-4.45,0.04
		c-21.88,9.94-42.62,21.9-62.16,35.9c-1.19,0.86-2.23,2.67-2.38,4.13c-2.4,23.81-2.41,47.65-0.02,71.46
		c0.16,1.58,1.22,3.55,2.49,4.46c19.45,13.91,40.06,25.84,61.83,35.72c1.43,0.65,3.69,0.62,5.13-0.04
		c21.77-9.89,42.38-21.82,61.82-35.74c1.19-0.85,2.26-2.68,2.37-4.13C568.24,523.9,568.88,511.93,569.59,499.95z M553.8,392.51
		c-5.45-10.86-10.62-21.9-16.46-32.58c-4.27-7.81-10.15-14.51-17.31-19.95c-12.8-9.73-26.6-9.76-39.16,0.29
		c-3.96,3.17-7.64,6.85-10.84,10.79c-10.17,12.5-16.6,26.99-21.75,41.75c12.87,4.3,25.41,8.39,37.88,12.7
		c4.82,1.66,9.49,5.32,14.21,5.3c4.87-0.02,9.72-3.42,14.57-5.33c0.12-0.05,0.24-0.08,0.36-0.12
		C527.68,401.23,540.08,397.09,553.8,392.51z M381.89,508.19c-9.24,9.64-20.15,25.8-24.76,37.87c-2.25,5.89-4.23,12.11-4.88,18.33
		c-1.74,16.86,6.36,28.43,23.11,33.81c19.52,6.27,39.17,4.04,58.93,0.6c-0.14-0.79-0.22-1.27-0.31-1.75c-3.3-17-6.57-34-9.98-50.98
		c-0.25-1.27-1.33-2.58-2.38-3.44c-5.78-4.76-11.84-9.18-17.48-14.1C396.62,521.99,389.41,515.1,381.89,508.19z M566.96,599.03
		c6.78,0.87,13.54,1.99,20.34,2.55c13,1.08,25.97,0.89,38.5-3.38c10.37-3.53,18.74-9.38,22.08-20.53
		c1.95-6.52,1.57-13.09,0.06-19.61c-3.6-15.55-11.93-28.67-21.42-41.16c-2.31-3.04-4.81-5.93-7.23-8.89
		c-0.67,0.47-0.99,0.66-1.26,0.89c-13.07,11.38-26.16,22.74-39.16,34.2c-0.97,0.86-1.62,2.42-1.84,3.74
		c-1.28,7.5-2.14,15.07-3.6,22.53C571.54,579.15,569.21,588.83,566.96,599.03z M447.38,607.19c5.01,10.33,9.52,20.61,14.9,30.42
		c5.57,10.16,12.89,18.99,23.01,25.17c12.8,7.82,28.38,5.01,39.1-7.05c-6.01-8.54-7.18-17.59-1.62-26.65
		c5.81-9.46,14.71-12.58,25.84-10.61c1.48-3.91,2.95-7.78,4.4-11.6c-0.6-0.32-0.8-0.47-1.03-0.55
		c-16.62-5.7-33.23-11.43-49.87-17.03c-1.13-0.38-2.67-0.15-3.84,0.29c-6.53,2.48-12.91,5.36-19.51,7.62
		C468.74,600.63,458.58,603.65,447.38,607.19z M353.43,442.31c11.32-1.23,20.24,2.58,25.27,12.88c4.81,9.85,2.46,18.95-4.82,27.13
		c2.69,3.29,5.33,6.5,7.35,8.96c14.04-11.75,27.64-23.09,41.17-34.53c0.9-0.76,1.46-2.22,1.68-3.45
		c2.05-11.55,3.87-23.14,6.03-34.66c1.09-5.81,2.76-11.51,4.17-17.25c-18.34-4.19-38.87-4.59-53.88-1.13
		C358.17,405.38,347.79,421.31,353.43,442.31z M567.67,401c3.15,17.56,6.15,34.61,9.33,51.64c0.32,1.73,1.39,3.66,2.7,4.82
		c12.24,10.83,24.62,21.52,36.95,32.25c0.82,0.71,1.62,1.44,2.65,2.36c2.57-3.18,4.97-6.15,7.44-9.2
		c-7.59-7.68-10.12-16.52-6.07-26.27c4.96-11.93,14.84-15.7,28.04-14.07c0-5.91,0.69-11.45-0.14-16.75
		c-2.04-13.13-11.08-20.21-22.99-24.04C606.18,395.49,586.63,397.76,567.67,401z M579.16,469.67c0,20.61,0,40.1,0,60.65
		c11.29-10.19,22.14-19.97,33.63-30.34C601.26,489.59,590.47,479.86,579.16,469.67z M388.29,500c11.64,10.46,22.48,20.2,33.65,30.24
		c0-20.58,0-40.05,0-60.56C410.68,479.83,399.9,489.55,388.29,500z M435.07,446.86c17.69-10.22,34.55-19.97,52.26-30.21
		c-14.34-4.63-28.22-9.1-42.94-13.85C441.16,418.06,438.16,432.25,435.07,446.86z M444.34,597.19c14.78-4.77,28.64-9.25,42.97-13.88
		c-17.73-10.25-34.59-19.99-52.23-30.19C438.13,567.63,441.09,581.72,444.34,597.19z M513.81,416.66
		c17.74,10.25,34.51,19.93,52.22,30.16c-3.11-14.69-6.11-28.91-9.32-44.05C541.86,407.58,528.07,412.04,513.81,416.66z
		 M566.05,553.14c-17.88,10.32-34.67,20.01-52.28,30.18c14.39,4.64,28.28,9.11,42.96,13.83
		C559.96,581.88,562.95,567.77,566.05,553.14z M542.42,653.78c7.01,0.03,12.74-5.49,12.86-12.39c0.12-7.06-5.6-12.98-12.65-13.07
		c-7-0.09-12.87,5.79-12.83,12.85C529.84,648.15,535.45,653.75,542.42,653.78z M357.86,452.56c-7.06-0.01-12.6,5.44-12.67,12.48
		c-0.07,7.16,5.69,13.06,12.65,12.97c7.07-0.09,12.92-6.02,12.79-12.96C370.51,458.09,364.85,452.56,357.86,452.56z M629.46,465.39
		c0.06,6.94,5.7,12.59,12.6,12.63c6.96,0.03,12.9-5.94,12.81-12.9c-0.09-7.08-5.91-12.64-13.08-12.51
		C634.77,452.74,629.4,458.31,629.46,465.39z"/>
	<path class="st1" d="M500.38,541.22c-22.89-0.11-41.25-18.77-41.07-41.77c0.17-22.45,18.89-40.86,41.4-40.7
		c22.91,0.16,41.25,18.81,41.08,41.78C541.63,522.97,522.96,541.32,500.38,541.22z M500.68,469.24
		c-16.96-0.04-30.82,13.7-30.87,30.61c-0.05,16.95,13.74,30.87,30.6,30.88c16.96,0.01,30.78-13.68,30.88-30.63
		C531.4,483.21,517.58,469.28,500.68,469.24z"/>
	<path class="st1" d="M523.75,501.64c-0.63,7.38-4.19,13.76-11.11,18.14c-2.73,1.73-5.36,1.37-7.25-1.24
		c-1.92-2.65-1.38-5.38,1.24-7.2c4.2-2.91,6.46-6.67,6.77-11.82c0.19-3.07,2.85-5.02,5.66-4.73
		C521.98,495.09,523.81,497.48,523.75,501.64z"/>
</g>
</svg>
