<svg id="svg" version="1.1" xmlns="http://www.w3.org/2000/svg" xmlns:xlink="http://www.w3.org/1999/xlink" width="400" height="266.71875" viewBox="0, 0, 400,266.71875"><g id="svgg"><path id="path0" d="M0.000 133.333 L 0.000 177.833 200.000 177.833 L 400.000 177.833 400.000 133.333 L 400.000 88.833 200.000 88.833 L 0.000 88.833 0.000 133.333 M204.783 98.090 C 230.546 101.453,244.064 131.124,229.735 152.856 C 214.700 175.659,180.453 173.697,168.249 149.333 C 155.452 123.788,176.414 94.387,204.783 98.090 M197.444 102.821 C 197.186 104.113,195.694 104.429,194.722 103.398 L 194.154 102.796 193.035 103.074 C 189.893 103.853,189.667 103.956,189.667 104.603 C 189.667 105.946,188.080 106.633,187.026 105.746 L 186.527 105.326 185.222 106.023 C 182.999 107.210,182.336 107.712,182.531 108.061 C 183.220 109.292,181.193 110.846,180.140 109.893 C 179.593 109.398,176.129 113.029,176.650 113.550 C 177.476 114.376,176.328 116.113,175.069 115.941 L 174.322 115.838 173.661 116.877 C 173.297 117.449,172.763 118.370,172.474 118.925 L 171.948 119.933 172.391 120.375 C 173.336 121.321,172.623 123.000,171.276 123.000 C 170.709 123.000,170.685 123.027,170.355 124.042 C 169.551 126.512,169.330 127.833,169.721 127.833 C 169.842 127.833,170.095 128.002,170.281 128.208 C 171.182 129.204,170.728 130.437,169.292 130.896 C 169.032 130.979,169.000 131.248,169.000 133.333 C 169.000 135.419,169.032 135.687,169.292 135.770 C 170.870 136.275,171.231 137.678,170.035 138.663 L 169.443 139.151 169.657 140.117 C 170.262 142.853,170.632 143.667,171.270 143.667 C 172.623 143.667,173.339 145.343,172.391 146.291 L 171.948 146.734 172.474 147.742 C 172.763 148.296,173.297 149.218,173.661 149.789 L 174.322 150.829 175.069 150.726 C 176.328 150.554,177.476 152.290,176.650 153.117 C 176.129 153.638,179.593 157.269,180.140 156.774 C 181.194 155.820,183.220 157.375,182.530 158.608 C 182.333 158.959,182.826 159.338,185.126 160.604 L 186.502 161.361 187.014 160.931 C 188.080 160.034,189.667 160.712,189.667 162.064 C 189.667 162.717,189.974 162.859,192.954 163.577 L 194.157 163.867 194.723 163.267 C 195.703 162.228,197.500 162.710,197.500 164.013 C 197.500 164.315,197.644 164.333,200.000 164.333 C 202.420 164.333,202.500 164.322,202.500 163.987 C 202.500 162.735,204.332 162.265,205.283 163.273 L 205.855 163.880 208.048 163.312 L 210.242 162.744 210.367 161.997 C 210.603 160.583,211.927 160.039,212.978 160.924 L 213.482 161.347 214.449 160.855 C 216.486 159.817,217.661 158.946,217.473 158.611 C 216.779 157.376,218.804 155.818,219.860 156.774 C 220.147 157.034,220.255 156.959,221.832 155.410 C 223.390 153.879,223.741 153.335,223.333 153.083 C 222.382 152.495,223.718 150.566,224.966 150.727 L 225.750 150.828 226.697 149.205 C 228.120 146.766,228.112 146.794,227.599 146.281 C 226.661 145.343,227.385 143.667,228.730 143.667 C 229.368 143.667,229.738 142.853,230.341 140.124 L 230.553 139.165 229.951 138.624 C 229.376 138.109,229.271 137.851,229.314 137.073 C 229.341 136.591,229.935 136.005,230.513 135.889 L 231.000 135.792 231.000 133.391 C 231.000 131.250,230.968 130.979,230.708 130.896 C 229.687 130.570,229.272 130.056,229.297 129.152 C 229.313 128.607,229.889 127.833,230.279 127.833 C 230.670 127.833,230.449 126.512,229.645 124.042 C 229.315 123.027,229.291 123.000,228.724 123.000 C 227.377 123.000,226.664 121.321,227.609 120.375 L 228.052 119.933 227.526 118.925 C 227.237 118.370,226.703 117.449,226.339 116.877 L 225.678 115.838 224.931 115.941 C 223.588 116.125,222.847 114.990,223.369 113.548 L 223.571 112.989 221.876 111.295 C 220.255 109.674,220.169 109.613,219.870 109.884 C 218.816 110.838,216.969 109.508,217.472 108.157 C 217.647 107.686,217.271 107.382,214.874 106.063 L 213.498 105.305 212.986 105.736 C 211.935 106.620,210.568 106.080,210.384 104.708 C 210.279 103.921,210.067 103.818,207.046 103.090 L 205.843 102.800 205.277 103.400 C 204.297 104.439,202.500 103.956,202.500 102.654 C 202.500 102.352,202.356 102.333,200.021 102.333 L 197.542 102.333 197.444 102.821 M200.613 112.125 L 201.131 121.083 200.824 123.500 C 200.655 124.829,200.474 126.198,200.423 126.542 C 200.334 127.136,200.352 127.167,200.793 127.167 L 201.256 127.167 201.708 124.125 C 202.158 121.091,203.561 116.420,207.339 105.365 C 207.938 103.613,208.100 103.446,207.751 104.939 C 207.622 105.493,207.066 108.152,206.515 110.848 C 204.452 120.950,204.249 121.792,203.337 124.000 C 202.865 125.146,202.361 126.368,202.218 126.715 C 201.927 127.424,201.944 127.474,202.497 127.538 C 202.834 127.577,202.950 127.441,203.308 126.583 C 204.780 123.058,205.589 121.500,207.251 118.985 C 208.246 117.481,210.405 114.188,212.048 111.667 C 213.692 109.146,215.108 107.008,215.194 106.917 C 215.408 106.690,213.985 109.598,210.304 116.917 C 207.429 122.630,207.065 123.266,205.350 125.566 C 203.899 127.511,203.540 128.097,203.687 128.274 C 204.037 128.696,204.314 128.502,205.447 127.042 C 207.652 124.200,208.049 123.740,209.075 122.833 C 209.646 122.329,211.450 120.717,213.085 119.250 C 214.719 117.783,216.400 116.286,216.820 115.923 C 217.240 115.560,218.073 114.810,218.672 114.256 C 221.262 111.862,221.979 111.432,220.339 113.257 C 219.923 113.719,218.786 114.994,217.811 116.090 C 211.479 123.211,209.763 125.121,209.432 125.417 C 209.226 125.600,208.065 126.530,206.850 127.483 C 204.659 129.202,204.644 129.218,204.967 129.542 C 205.291 129.865,205.313 129.852,207.855 127.952 C 210.167 126.223,225.929 117.873,226.258 118.203 C 226.560 118.504,211.037 128.200,208.530 129.276 C 205.765 130.462,205.373 130.762,205.899 131.288 C 205.931 131.320,207.312 130.815,208.968 130.165 C 211.749 129.075,212.347 128.909,216.781 128.000 C 219.422 127.458,223.216 126.674,225.212 126.257 C 227.208 125.841,228.971 125.504,229.129 125.508 C 229.287 125.513,225.592 126.787,220.917 128.340 L 212.417 131.164 209.292 131.610 C 206.283 132.039,206.167 132.070,206.167 132.435 C 206.167 133.001,206.194 133.003,209.422 132.612 L 212.417 132.250 220.333 132.699 C 224.688 132.947,228.681 133.153,229.208 133.158 C 231.087 133.175,230.126 133.465,227.792 133.584 C 226.485 133.651,222.500 133.868,218.934 134.065 L 212.452 134.425 209.434 134.067 C 207.775 133.870,206.360 133.742,206.292 133.781 C 206.100 133.891,206.143 134.667,206.341 134.667 C 209.044 134.667,212.510 135.538,220.919 138.334 C 225.593 139.887,229.250 141.160,229.046 141.163 C 228.842 141.165,227.117 140.834,225.212 140.427 C 223.308 140.020,219.531 139.233,216.820 138.678 C 212.226 137.737,211.692 137.589,208.987 136.512 C 206.359 135.467,206.063 135.383,205.873 135.630 C 205.526 136.079,205.654 136.164,208.508 137.386 C 211.369 138.611,211.807 138.879,223.292 146.447 C 227.650 149.319,227.812 149.381,217.743 144.306 C 210.593 140.702,210.137 140.444,207.769 138.667 C 205.308 136.821,205.284 136.808,204.962 137.131 C 204.640 137.453,204.658 137.472,207.110 139.409 C 208.815 140.755,210.101 141.943,211.250 143.233 C 212.167 144.263,214.086 146.413,215.515 148.011 C 219.909 152.925,221.074 154.241,221.333 154.584 C 221.623 154.966,220.265 153.864,218.663 152.417 C 216.728 150.669,214.858 148.998,211.425 145.948 C 209.587 144.315,207.708 142.506,207.250 141.929 C 206.792 141.351,205.939 140.268,205.355 139.522 C 204.280 138.149,204.029 137.981,203.681 138.399 C 203.527 138.585,203.862 139.129,205.344 141.107 C 207.076 143.418,207.408 143.996,210.299 149.750 C 213.961 157.040,215.336 159.833,215.262 159.833 C 215.232 159.833,213.920 157.865,212.347 155.458 C 210.774 153.052,208.559 149.671,207.425 147.945 C 205.511 145.031,204.807 143.691,203.381 140.250 C 202.958 139.230,202.847 139.089,202.501 139.129 C 201.898 139.197,201.887 139.138,203.074 142.034 C 204.278 144.968,204.413 145.509,206.516 155.818 C 207.066 158.514,207.622 161.174,207.751 161.728 C 208.136 163.378,207.928 162.989,207.030 160.380 C 203.489 150.096,202.162 145.653,201.704 142.542 L 201.256 139.500 200.793 139.500 C 200.352 139.500,200.334 139.530,200.423 140.125 C 200.474 140.469,200.655 141.837,200.825 143.167 L 201.133 145.583 200.613 154.542 C 200.327 159.469,200.052 163.500,200.001 163.500 C 199.950 163.500,199.677 159.506,199.395 154.625 L 198.881 145.750 199.181 143.250 C 199.346 141.875,199.523 140.469,199.576 140.125 C 199.666 139.530,199.648 139.500,199.209 139.500 L 198.747 139.500 198.285 142.665 C 198.031 144.406,197.679 146.225,197.503 146.707 C 197.327 147.189,196.089 150.915,194.750 154.987 C 193.412 159.060,192.240 162.510,192.146 162.654 C 191.995 162.886,191.985 162.885,192.061 162.638 C 192.108 162.484,192.713 159.597,193.405 156.221 C 195.648 145.283,195.687 145.127,196.915 142.093 C 197.533 140.566,198.007 139.285,197.968 139.245 C 197.432 138.709,197.140 139.086,195.962 141.833 C 194.992 144.096,194.406 145.159,192.652 147.833 C 191.481 149.621,189.234 153.052,187.659 155.458 C 186.085 157.865,184.767 159.833,184.731 159.833 C 184.240 159.833,192.933 143.439,194.617 141.188 C 196.517 138.649,196.531 138.624,196.209 138.302 C 195.887 137.980,195.878 137.985,195.114 138.947 C 192.119 142.717,191.499 143.473,191.362 143.525 C 191.222 143.578,186.984 147.330,184.332 149.750 C 182.420 151.494,179.435 154.126,178.917 154.525 L 178.417 154.909 178.833 154.387 C 179.254 153.861,180.316 152.663,183.847 148.732 C 184.909 147.550,186.835 145.398,188.127 143.950 C 189.418 142.502,191.062 140.857,191.779 140.294 C 195.655 137.253,195.404 137.497,195.038 137.131 C 194.712 136.805,194.698 136.812,192.313 138.622 C 190.007 140.373,189.616 140.593,181.933 144.473 C 174.649 148.151,172.690 149.060,174.443 147.952 C 174.795 147.729,177.296 146.089,180.000 144.308 C 188.653 138.607,188.579 138.652,191.494 137.401 C 194.236 136.224,194.637 135.915,194.104 135.382 C 194.074 135.352,192.733 135.850,191.124 136.488 C 188.719 137.444,187.671 137.759,185.224 138.261 C 183.589 138.597,179.992 139.348,177.231 139.930 C 168.792 141.710,168.773 141.725,179.500 138.189 C 187.415 135.579,191.091 134.667,193.685 134.667 C 193.840 134.667,193.894 133.950,193.751 133.806 C 193.706 133.761,192.524 133.863,191.126 134.033 C 187.924 134.423,187.367 134.422,180.167 134.015 C 176.912 133.831,173.252 133.629,172.032 133.566 C 168.459 133.382,169.586 133.241,178.466 132.758 C 188.242 132.226,187.681 132.231,190.999 132.646 C 192.420 132.824,193.638 132.934,193.708 132.891 C 193.866 132.793,193.874 132.000,193.716 132.000 C 193.651 132.000,192.245 131.811,190.591 131.580 L 187.583 131.160 179.083 128.337 C 174.408 126.784,170.747 125.510,170.947 125.507 C 171.148 125.503,173.098 125.879,175.281 126.343 C 177.464 126.806,181.237 127.590,183.667 128.085 C 187.725 128.911,188.325 129.080,191.062 130.166 C 192.701 130.816,194.068 131.321,194.100 131.288 C 194.635 130.754,194.240 130.449,191.502 129.283 C 189.063 128.245,188.248 127.782,184.252 125.165 C 175.434 119.390,173.597 118.167,173.745 118.167 C 174.674 118.167,190.117 126.385,192.290 128.036 C 194.695 129.863,194.705 129.869,195.034 129.541 C 195.362 129.212,195.354 129.204,192.898 127.261 C 190.365 125.257,190.061 124.939,182.354 116.255 C 181.380 115.158,180.206 113.846,179.744 113.339 C 178.521 111.995,178.286 111.658,178.902 112.133 C 179.380 112.501,182.594 115.341,184.244 116.853 C 184.705 117.276,186.639 119.004,188.541 120.693 C 191.169 123.028,192.323 124.182,193.352 125.507 C 195.854 128.726,195.875 128.747,196.219 128.368 C 196.507 128.049,196.464 127.971,194.657 125.562 C 192.917 123.240,192.598 122.682,189.617 116.750 C 185.834 109.220,184.605 106.716,184.777 106.889 C 184.896 107.007,187.700 111.259,192.689 118.885 C 194.347 121.420,194.970 122.553,195.941 124.802 C 197.139 127.578,197.432 127.957,197.964 127.425 C 198.002 127.387,197.528 126.106,196.912 124.578 C 195.689 121.545,195.644 121.366,193.405 110.446 C 192.713 107.070,192.108 104.183,192.061 104.029 C 191.989 103.796,192.001 103.791,192.132 104.000 C 193.093 105.529,197.854 121.058,198.302 124.121 L 198.747 127.167 199.209 127.167 C 199.648 127.167,199.666 127.136,199.575 126.542 C 199.523 126.198,199.344 124.792,199.178 123.417 L 198.876 120.917 199.392 112.042 C 199.676 107.160,199.951 103.167,200.002 103.167 C 200.054 103.167,200.329 107.198,200.613 112.125 " stroke="none" fill="#fbfbfb" fill-rule="evenodd"></path><path id="path1" d="M0.000 44.417 L 0.000 88.833 200.000 88.833 L 400.000 88.833 400.000 44.417 L 400.000 0.000 200.000 0.000 L 0.000 0.000 0.000 44.417 " stroke="none" fill="#fc9c34" fill-rule="evenodd"></path><path id="path2" d="M196.583 98.028 C 171.629 100.526,156.955 127.508,168.511 149.645 C 181.840 175.177,218.282 175.088,231.560 149.490 C 236.216 140.514,236.718 130.872,233.074 120.440 C 228.145 106.333,212.095 96.476,196.583 98.028 M202.118 102.270 C 202.339 102.329,202.556 102.580,202.661 102.899 C 203.055 104.094,204.444 104.276,205.294 103.245 L 205.757 102.683 207.170 102.994 C 210.016 103.620,210.409 103.814,210.468 104.620 C 210.561 105.902,211.955 106.453,212.946 105.601 L 213.410 105.201 214.580 105.790 C 215.224 106.114,216.171 106.664,216.685 107.013 L 217.620 107.647 217.542 108.460 C 217.415 109.777,218.547 110.531,219.726 109.917 C 220.328 109.603,220.584 109.770,222.381 111.651 C 223.774 113.109,223.794 113.150,223.402 113.749 C 222.752 114.741,223.706 115.937,225.009 115.764 L 225.768 115.664 226.532 116.957 C 227.965 119.383,228.240 120.029,227.917 120.210 C 226.697 120.893,227.230 122.625,228.723 122.824 L 229.417 122.917 229.948 124.775 C 230.771 127.655,230.774 127.699,230.173 128.035 C 228.935 128.727,229.225 130.407,230.628 130.668 L 231.083 130.753 231.083 133.333 L 231.083 135.913 230.628 135.998 C 229.225 136.260,228.935 137.939,230.173 138.632 C 230.774 138.968,230.771 139.012,229.948 141.892 L 229.417 143.750 228.701 143.846 C 227.308 144.031,226.754 145.436,227.739 146.283 L 228.176 146.659 227.736 147.538 C 227.494 148.021,226.952 148.999,226.532 149.710 L 225.768 151.003 225.009 150.902 C 223.706 150.730,222.752 151.926,223.402 152.918 C 223.802 153.528,223.765 153.603,222.375 155.035 C 220.531 156.934,220.304 157.080,219.681 156.757 C 218.507 156.150,217.415 156.890,217.542 158.207 L 217.620 159.020 216.685 159.652 C 216.171 159.999,215.235 160.556,214.604 160.890 L 213.459 161.495 212.967 161.081 C 211.952 160.227,210.500 160.772,210.500 162.006 C 210.500 162.811,210.428 162.853,207.916 163.500 C 205.730 164.064,205.500 164.090,205.500 163.779 C 205.500 163.434,204.787 162.849,204.231 162.738 C 203.691 162.630,202.667 163.295,202.667 163.753 C 202.667 164.356,202.189 164.500,200.196 164.498 C 197.784 164.495,197.560 164.438,197.339 163.768 C 196.879 162.375,194.934 162.449,194.457 163.878 C 194.388 164.086,191.236 163.388,190.095 162.911 C 189.557 162.686,189.500 162.600,189.500 162.010 C 189.500 160.784,188.038 160.220,187.054 161.066 L 186.590 161.466 185.420 160.877 C 184.776 160.553,183.829 160.003,183.315 159.654 L 182.380 159.020 182.458 158.207 C 182.585 156.890,181.493 156.150,180.319 156.757 C 179.707 157.074,179.457 156.920,177.823 155.221 C 176.240 153.574,176.264 153.617,176.583 153.000 C 177.182 151.843,176.335 150.725,174.995 150.902 L 174.241 151.002 173.386 149.543 C 172.916 148.740,172.372 147.763,172.177 147.371 L 171.823 146.660 172.278 146.268 C 173.260 145.424,172.697 144.032,171.299 143.846 L 170.583 143.750 170.052 141.892 C 169.230 139.013,169.227 138.968,169.826 138.633 C 171.084 137.929,170.797 136.264,169.372 135.998 L 168.917 135.913 168.917 133.339 L 168.917 130.764 169.488 130.647 C 170.968 130.344,170.980 128.299,169.505 127.807 C 169.303 127.740,169.350 127.395,169.790 125.729 C 170.566 122.788,170.542 122.833,171.300 122.833 C 172.621 122.833,173.260 121.243,172.278 120.399 L 171.823 120.007 172.177 119.295 C 172.372 118.904,172.916 117.927,173.386 117.124 L 174.241 115.665 174.995 115.765 C 176.294 115.937,177.247 114.739,176.598 113.749 C 176.211 113.159,176.231 113.115,177.444 111.829 C 179.244 109.921,179.696 109.615,180.273 109.916 C 181.457 110.533,182.585 109.777,182.458 108.452 L 182.379 107.631 183.481 106.920 C 184.087 106.529,185.035 105.982,185.586 105.705 L 186.589 105.201 187.054 105.600 C 188.039 106.447,189.438 105.902,189.532 104.635 C 189.591 103.843,190.044 103.618,192.830 102.998 L 194.243 102.683 194.706 103.245 C 195.559 104.279,196.945 104.094,197.342 102.892 C 197.439 102.596,197.646 102.321,197.801 102.280 C 198.233 102.166,201.701 102.158,202.118 102.270 M199.957 104.500 C 199.903 104.638,199.772 106.550,199.666 108.750 C 199.559 110.950,199.372 114.571,199.251 116.797 C 199.045 120.552,199.052 121.045,199.346 123.630 C 199.757 127.248,199.762 127.110,199.209 127.215 C 198.591 127.333,198.605 127.375,198.186 124.118 C 197.821 121.281,197.792 121.175,195.504 114.250 C 194.231 110.400,193.021 106.708,192.814 106.045 C 192.258 104.268,192.259 104.669,192.818 107.186 C 193.091 108.413,193.810 111.854,194.416 114.833 C 195.735 121.321,196.458 123.756,198.131 127.351 C 198.185 127.466,197.186 127.916,197.104 127.814 C 197.075 127.779,196.769 127.075,196.425 126.250 C 194.598 121.879,194.930 122.442,187.805 111.632 C 186.675 109.918,185.656 108.380,185.540 108.216 C 185.425 108.051,187.042 111.329,189.133 115.500 C 192.716 122.645,193.037 123.218,194.685 125.417 C 195.647 126.700,196.484 127.833,196.545 127.934 C 196.606 128.035,196.479 128.284,196.263 128.488 L 195.870 128.857 194.143 126.637 C 192.041 123.934,189.555 121.578,179.753 113.000 C 179.384 112.678,179.682 113.090,180.418 113.921 C 184.571 118.610,185.570 119.733,187.083 121.408 C 188.000 122.422,189.088 123.656,189.500 124.149 C 189.912 124.643,191.394 125.943,192.792 127.040 C 195.530 129.189,195.474 129.123,195.040 129.659 L 194.747 130.021 192.256 128.149 C 190.050 126.491,174.082 117.946,175.083 118.959 C 175.175 119.052,176.938 120.235,179.000 121.589 C 181.063 122.942,184.040 124.901,185.616 125.942 C 187.899 127.449,189.083 128.099,191.439 129.135 C 194.577 130.516,194.677 130.587,194.214 131.132 L 193.917 131.482 191.343 130.402 C 189.927 129.808,188.465 129.250,188.093 129.162 C 185.076 128.449,173.120 125.993,172.750 126.010 C 172.495 126.022,175.665 127.113,181.917 129.167 C 187.258 130.922,187.764 131.056,190.723 131.501 C 194.201 132.024,194.082 131.984,193.934 132.576 C 193.802 133.101,193.623 133.105,190.333 132.663 L 187.917 132.337 180.042 132.788 C 175.710 133.036,172.167 133.282,172.167 133.336 C 172.167 133.389,175.710 133.635,180.042 133.882 L 187.917 134.331 190.333 134.005 C 193.622 133.561,193.802 133.565,193.934 134.091 C 194.081 134.678,194.224 134.629,190.709 135.173 C 187.746 135.631,187.193 135.779,181.981 137.501 C 178.921 138.513,175.571 139.619,174.536 139.960 C 171.976 140.804,172.328 140.799,176.596 139.934 C 187.918 137.637,188.171 137.575,191.179 136.343 L 193.997 135.189 194.248 135.548 C 194.641 136.108,194.559 136.266,193.708 136.587 C 190.269 137.885,188.572 138.774,184.833 141.237 C 183.321 142.234,180.546 144.061,178.667 145.298 C 176.787 146.535,175.175 147.621,175.083 147.711 C 174.017 148.760,190.043 140.194,192.246 138.538 L 194.750 136.656 195.042 137.013 C 195.460 137.526,195.447 137.549,194.208 138.518 C 191.278 140.811,190.024 141.888,189.335 142.701 C 188.924 143.186,186.717 145.683,184.433 148.250 C 182.148 150.817,180.047 153.179,179.764 153.500 L 179.250 154.083 179.750 153.650 C 180.025 153.412,182.641 151.087,185.563 148.483 C 188.484 145.880,191.091 143.575,191.356 143.362 C 191.620 143.148,192.707 141.855,193.771 140.487 C 195.767 137.922,195.925 137.790,196.390 138.304 C 196.650 138.591,196.562 138.747,194.805 141.096 C 193.244 143.182,184.438 159.598,185.379 158.667 C 185.530 158.517,191.187 149.942,193.407 146.499 C 194.353 145.030,195.090 143.603,195.901 141.666 C 196.533 140.154,197.075 138.888,197.104 138.853 C 197.222 138.708,198.178 139.229,198.106 139.399 C 196.865 142.348,195.763 145.405,195.491 146.653 C 195.300 147.531,194.742 150.237,194.251 152.667 C 193.761 155.096,193.129 158.114,192.846 159.374 C 192.564 160.634,192.337 161.721,192.342 161.790 C 192.346 161.860,193.058 159.779,193.922 157.167 C 194.786 154.554,196.017 150.842,196.657 148.917 C 197.711 145.747,197.855 145.146,198.188 142.549 C 198.605 139.292,198.591 139.333,199.209 139.451 C 199.765 139.558,199.763 139.496,199.343 143.126 C 199.053 145.634,199.046 146.134,199.251 149.876 C 199.373 152.098,199.564 155.754,199.675 158.000 C 199.906 162.675,200.067 163.304,200.223 160.132 C 200.283 158.914,200.480 155.185,200.661 151.847 L 200.991 145.777 200.645 142.712 C 200.454 141.026,200.325 139.619,200.359 139.586 C 200.392 139.553,200.643 139.501,200.917 139.471 L 201.415 139.417 201.846 142.583 L 202.277 145.750 204.711 153.083 C 206.051 157.117,207.238 160.736,207.350 161.126 C 207.808 162.723,207.629 161.517,206.931 158.317 C 206.524 156.447,206.034 154.092,205.842 153.083 C 204.591 146.506,203.750 143.589,201.896 139.395 C 201.828 139.240,202.816 138.737,202.919 138.874 C 202.937 138.898,203.346 139.854,203.828 141.000 C 205.300 144.499,205.389 144.669,207.252 147.503 C 208.245 149.014,210.215 152.012,211.630 154.167 C 213.044 156.321,214.277 158.158,214.369 158.250 C 215.383 159.261,206.849 143.294,205.200 141.096 C 203.438 138.746,203.350 138.591,203.610 138.304 C 204.069 137.797,204.227 137.921,205.936 140.125 C 208.084 142.896,207.808 142.630,216.500 150.324 C 218.196 151.826,219.880 153.323,220.242 153.652 L 220.901 154.250 220.326 153.583 C 220.009 153.217,217.950 150.902,215.750 148.440 C 213.550 145.979,211.293 143.429,210.735 142.774 C 210.134 142.068,208.691 140.780,207.194 139.610 C 204.473 137.486,204.525 137.545,204.960 137.008 L 205.253 136.646 207.715 138.496 C 209.851 140.101,225.333 148.421,225.333 147.964 C 225.333 147.933,224.018 147.047,222.411 145.995 C 220.804 144.944,217.703 142.908,215.520 141.471 C 212.406 139.421,211.053 138.639,209.234 137.839 C 205.371 136.140,205.496 136.208,205.613 135.879 C 205.871 135.157,205.944 135.169,209.049 136.430 C 210.718 137.108,212.224 137.663,212.397 137.665 C 212.569 137.666,215.000 138.159,217.798 138.762 C 223.026 139.887,226.956 140.673,227.250 140.654 C 228.505 140.569,212.365 135.645,209.274 135.169 C 205.750 134.628,205.945 134.693,206.093 134.103 C 206.230 133.559,206.400 133.554,209.750 134.003 L 212.250 134.338 220.195 133.882 C 224.565 133.631,228.112 133.379,228.076 133.322 C 228.041 133.265,227.053 133.169,225.881 133.109 C 224.709 133.049,221.200 132.847,218.083 132.661 L 212.417 132.322 209.365 132.715 C 206.081 133.139,206.000 133.128,206.000 132.269 C 206.000 131.985,205.923 132.003,209.750 131.427 C 212.353 131.036,228.306 126.111,227.292 126.012 C 227.110 125.994,221.245 127.172,216.167 128.247 C 211.564 129.221,211.344 129.286,208.086 130.644 C 206.031 131.501,205.797 131.517,205.613 130.813 C 205.540 130.532,205.663 130.410,206.303 130.132 C 211.034 128.079,211.612 127.772,215.122 125.461 C 217.117 124.147,220.186 122.137,221.942 120.994 C 223.697 119.852,225.111 118.893,225.083 118.864 C 224.786 118.551,209.887 126.538,207.698 128.183 L 205.253 130.021 204.960 129.659 C 204.533 129.132,204.454 129.223,207.188 127.072 C 208.595 125.965,210.161 124.564,210.730 123.903 C 211.532 122.972,216.561 117.306,220.401 113.006 C 220.942 112.402,220.554 112.738,214.083 118.498 C 208.127 123.799,208.025 123.899,206.091 126.375 C 204.242 128.742,204.074 128.876,203.609 128.362 C 203.348 128.074,203.438 127.918,205.248 125.503 C 206.940 123.245,215.411 107.379,214.369 108.417 C 214.277 108.508,213.244 110.046,212.073 111.833 C 210.902 113.621,208.932 116.621,207.695 118.500 C 206.458 120.379,205.279 122.292,205.075 122.750 C 204.871 123.208,204.310 124.521,203.828 125.667 C 203.346 126.813,202.937 127.769,202.919 127.792 C 202.851 127.883,201.821 127.456,201.867 127.356 C 203.529 123.778,204.598 120.113,205.754 114.041 C 205.993 112.781,206.523 110.220,206.931 108.350 C 207.629 105.149,207.808 103.944,207.350 105.541 C 207.238 105.931,206.051 109.550,204.713 113.583 L 202.281 120.917 201.848 124.083 L 201.415 127.250 200.917 127.196 C 200.643 127.166,200.393 127.116,200.362 127.084 C 200.330 127.053,200.460 125.645,200.649 123.955 C 200.959 121.192,200.976 120.559,200.817 117.650 C 200.284 107.932,200.046 104.276,199.957 104.500 " stroke="none" fill="#04048c" fill-rule="evenodd"></path><path id="path3" d="M0.000 222.250 L 0.000 266.667 200.000 266.667 L 400.000 266.667 400.000 222.250 L 400.000 177.833 200.000 177.833 L 0.000 177.833 0.000 222.250 " stroke="none" fill="#0c8c04" fill-rule="evenodd"></path><path id="path4" d="M196.958 97.951 C 197.165 97.991,197.502 97.991,197.708 97.951 C 197.915 97.911,197.746 97.879,197.333 97.879 C 196.921 97.879,196.752 97.911,196.958 97.951 M202.292 97.951 C 202.498 97.991,202.835 97.991,203.042 97.951 C 203.248 97.911,203.079 97.879,202.667 97.879 C 202.254 97.879,202.085 97.911,202.292 97.951 M195.375 98.115 C 195.535 98.157,195.798 98.157,195.958 98.115 C 196.119 98.073,195.987 98.039,195.667 98.039 C 195.346 98.039,195.215 98.073,195.375 98.115 M204.042 98.115 C 204.202 98.157,204.465 98.157,204.625 98.115 C 204.785 98.073,204.654 98.039,204.333 98.039 C 204.012 98.039,203.881 98.073,204.042 98.115 M192.667 98.500 C 192.106 98.679,192.712 98.679,193.417 98.500 C 193.866 98.386,193.874 98.372,193.500 98.370 C 193.271 98.368,192.896 98.427,192.667 98.500 M206.583 98.500 C 207.288 98.679,207.894 98.679,207.333 98.500 C 207.104 98.427,206.729 98.368,206.500 98.370 C 206.126 98.372,206.134 98.386,206.583 98.500 M191.167 98.833 C 190.837 98.939,190.819 98.967,191.083 98.967 C 191.267 98.967,191.604 98.907,191.833 98.833 C 192.163 98.728,192.181 98.700,191.917 98.700 C 191.733 98.700,191.396 98.760,191.167 98.833 M185.500 100.833 C 185.179 101.009,184.992 101.153,185.083 101.153 C 185.175 101.153,185.512 101.009,185.833 100.833 C 186.154 100.658,186.342 100.514,186.250 100.514 C 186.158 100.514,185.821 100.658,185.500 100.833 M213.681 100.567 C 213.831 100.712,216.667 101.973,216.667 101.895 C 216.667 101.849,216.028 101.517,215.247 101.156 C 213.955 100.559,213.492 100.385,213.681 100.567 M184.125 101.429 C 183.479 101.779,183.552 101.900,184.208 101.566 C 184.837 101.247,184.948 101.164,184.736 101.173 C 184.652 101.177,184.377 101.292,184.125 101.429 M198.958 102.290 C 199.531 102.323,200.469 102.323,201.042 102.290 C 201.615 102.258,201.146 102.231,200.000 102.231 C 198.854 102.231,198.385 102.258,198.958 102.290 M191.500 103.326 C 190.289 103.731,190.627 103.739,192.000 103.339 C 192.596 103.166,192.933 103.023,192.750 103.022 C 192.567 103.021,192.004 103.158,191.500 103.326 M207.750 103.262 C 208.208 103.389,208.658 103.487,208.750 103.479 C 209.032 103.455,207.605 103.025,207.250 103.028 C 207.067 103.029,207.292 103.134,207.750 103.262 M180.206 103.754 C 179.726 104.078,179.333 104.378,179.333 104.423 C 179.333 104.467,179.746 104.230,180.250 103.895 C 181.051 103.363,181.286 103.167,181.123 103.167 C 181.099 103.167,180.686 103.431,180.206 103.754 M199.833 103.843 C 199.833 104.252,199.899 104.479,200.000 104.417 C 200.092 104.360,200.167 104.056,200.167 103.740 C 200.167 103.425,200.092 103.167,200.000 103.167 C 199.908 103.167,199.833 103.471,199.833 103.843 M219.083 103.420 C 219.267 103.569,219.567 103.765,219.750 103.855 L 220.083 104.018 219.750 103.747 C 219.567 103.598,219.267 103.402,219.083 103.312 L 218.750 103.148 219.083 103.420 M209.615 103.774 C 210.209 103.984,210.324 104.101,210.380 104.552 L 210.447 105.083 210.473 104.533 C 210.500 103.987,209.820 103.471,209.130 103.513 C 209.013 103.520,209.231 103.638,209.615 103.774 M189.566 104.069 C 189.516 104.199,189.507 104.518,189.546 104.778 C 189.607 105.184,189.620 105.165,189.642 104.639 C 189.655 104.303,189.760 103.990,189.875 103.944 C 190.038 103.878,190.037 103.857,189.870 103.846 C 189.752 103.839,189.615 103.939,189.566 104.069 M192.114 104.250 C 192.221 104.786,192.293 104.930,192.401 104.819 C 192.439 104.781,192.367 104.525,192.241 104.250 L 192.014 103.750 192.114 104.250 M207.696 104.321 C 207.599 104.599,207.582 104.864,207.658 104.911 C 207.734 104.958,207.833 104.754,207.878 104.457 C 207.986 103.748,207.914 103.695,207.696 104.321 M177.250 105.981 C 176.608 106.517,175.858 107.209,175.583 107.517 C 175.308 107.826,175.533 107.667,176.084 107.164 C 176.634 106.661,177.421 105.972,177.834 105.632 C 178.246 105.293,178.546 105.013,178.500 105.010 C 178.454 105.007,177.892 105.444,177.250 105.981 M186.961 105.648 C 187.665 106.319,188.450 106.350,189.116 105.734 L 189.583 105.301 189.103 105.650 C 188.442 106.130,187.651 106.099,186.971 105.564 L 186.417 105.129 186.961 105.648 M212.949 105.589 C 212.366 106.102,211.552 106.126,210.897 105.650 L 210.417 105.301 210.884 105.734 C 211.539 106.340,212.330 106.317,213.039 105.672 C 213.338 105.399,213.546 105.177,213.500 105.177 C 213.454 105.177,213.206 105.362,212.949 105.589 M222.167 105.530 C 222.167 105.563,222.748 106.109,223.458 106.743 C 224.169 107.377,224.525 107.649,224.250 107.349 C 223.743 106.795,222.167 105.418,222.167 105.530 M199.712 106.667 C 199.712 107.079,199.745 107.248,199.784 107.042 C 199.824 106.835,199.824 106.498,199.784 106.292 C 199.745 106.085,199.712 106.254,199.712 106.667 M200.212 106.667 C 200.212 107.079,200.245 107.248,200.284 107.042 C 200.324 106.835,200.324 106.498,200.284 106.292 C 200.245 106.085,200.212 106.254,200.212 106.667 M215.000 106.075 C 215.000 106.121,215.225 106.274,215.500 106.417 C 215.775 106.559,216.000 106.638,216.000 106.592 C 216.000 106.546,215.775 106.392,215.500 106.250 C 215.225 106.108,215.000 106.029,215.000 106.075 M206.518 107.690 C 206.325 108.263,206.172 108.811,206.179 108.907 C 206.186 109.004,206.373 108.564,206.595 107.929 C 206.816 107.295,206.969 106.747,206.934 106.712 C 206.899 106.677,206.712 107.117,206.518 107.690 M184.864 107.250 C 184.968 107.479,185.118 107.667,185.197 107.667 C 185.276 107.667,185.218 107.479,185.068 107.250 C 184.918 107.021,184.768 106.833,184.734 106.833 C 184.701 106.833,184.759 107.021,184.864 107.250 M214.932 107.250 C 214.782 107.479,214.724 107.667,214.803 107.667 C 214.882 107.667,215.032 107.479,215.136 107.250 C 215.241 107.021,215.299 106.833,215.266 106.833 C 215.232 106.833,215.082 107.021,214.932 107.250 M193.193 107.167 C 193.193 107.304,193.331 107.792,193.500 108.250 C 193.669 108.708,193.807 108.971,193.807 108.833 C 193.807 108.696,193.669 108.208,193.500 107.750 C 193.331 107.292,193.193 107.029,193.193 107.167 M214.269 108.250 C 213.656 109.199,213.437 109.617,213.744 109.250 C 213.898 109.067,214.091 108.935,214.172 108.956 C 214.254 108.978,214.274 108.872,214.216 108.721 C 214.139 108.521,214.171 108.483,214.331 108.582 C 214.478 108.673,214.512 108.654,214.433 108.526 C 214.367 108.420,214.398 108.333,214.500 108.333 C 214.602 108.333,214.644 108.265,214.592 108.181 C 214.540 108.097,214.592 107.990,214.707 107.944 C 214.840 107.891,214.848 107.855,214.728 107.846 C 214.623 107.839,214.417 108.021,214.269 108.250 M185.583 108.501 C 185.488 108.654,185.513 108.678,185.669 108.582 C 185.829 108.483,185.861 108.521,185.784 108.721 C 185.726 108.872,185.746 108.978,185.828 108.956 C 185.909 108.935,186.098 109.067,186.247 109.250 L 186.518 109.583 186.355 109.250 C 186.008 108.544,185.726 108.270,185.583 108.501 M225.464 108.583 C 225.561 108.767,225.962 109.217,226.356 109.583 C 227.063 110.242,226.837 109.957,225.364 108.333 C 225.322 108.287,225.367 108.400,225.464 108.583 M173.833 109.250 C 173.428 109.662,173.135 110.000,173.181 110.000 C 173.226 110.000,173.595 109.662,174.000 109.250 C 174.405 108.837,174.699 108.500,174.653 108.500 C 174.607 108.500,174.238 108.837,173.833 109.250 M200.381 109.417 C 200.382 109.875,200.415 110.043,200.453 109.789 C 200.491 109.536,200.490 109.161,200.451 108.956 C 200.411 108.751,200.380 108.958,200.381 109.417 M199.548 109.583 C 199.549 110.042,199.581 110.209,199.620 109.956 C 199.658 109.703,199.657 109.328,199.617 109.123 C 199.578 108.918,199.546 109.125,199.548 109.583 M213.449 110.419 C 213.297 110.738,213.206 111.000,213.248 111.000 C 213.362 111.000,213.868 109.980,213.792 109.903 C 213.756 109.867,213.602 110.099,213.449 110.419 M221.917 111.333 C 222.646 112.067,223.280 112.667,223.326 112.667 C 223.371 112.667,222.812 112.067,222.083 111.333 C 221.354 110.600,220.720 110.000,220.674 110.000 C 220.629 110.000,221.188 110.600,221.917 111.333 M177.833 111.417 C 177.150 112.104,176.629 112.667,176.675 112.667 C 176.721 112.667,177.317 112.104,178.000 111.417 C 178.683 110.729,179.204 110.167,179.158 110.167 C 179.112 110.167,178.516 110.729,177.833 111.417 M171.810 111.625 C 171.331 112.204,171.127 112.500,171.210 112.500 C 171.256 112.500,171.494 112.237,171.739 111.917 C 172.193 111.321,172.248 111.097,171.810 111.625 M228.240 111.888 C 228.496 112.225,228.740 112.500,228.781 112.500 C 228.897 112.500,228.175 111.525,227.962 111.393 C 227.858 111.329,227.983 111.552,228.240 111.888 M200.550 112.333 C 200.550 112.837,200.581 113.044,200.619 112.792 C 200.658 112.540,200.658 112.127,200.619 111.875 C 200.581 111.623,200.550 111.829,200.550 112.333 M199.388 112.750 C 199.389 113.392,199.419 113.634,199.455 113.288 C 199.491 112.942,199.490 112.417,199.454 112.121 C 199.417 111.825,199.387 112.108,199.388 112.750 M178.780 112.250 C 179.316 112.999,180.316 113.918,180.273 113.622 C 180.222 113.277,179.912 112.923,179.102 112.285 L 178.422 111.750 178.780 112.250 M221.034 112.244 C 220.856 112.470,220.680 112.625,220.643 112.588 C 220.606 112.550,220.010 113.059,219.318 113.718 C 218.627 114.377,218.374 114.630,218.757 114.280 C 219.139 113.930,219.574 113.626,219.723 113.605 C 220.038 113.558,220.727 112.944,221.194 112.292 C 221.602 111.722,221.475 111.684,221.034 112.244 M211.436 112.583 C 211.288 112.813,211.045 113.206,210.897 113.458 L 210.627 113.917 210.962 113.511 C 211.359 113.032,211.884 112.167,211.779 112.167 C 211.738 112.167,211.584 112.354,211.436 112.583 M179.760 113.042 L 180.250 113.583 179.708 113.094 C 179.203 112.638,179.090 112.500,179.219 112.500 C 179.248 112.500,179.491 112.744,179.760 113.042 M188.754 113.094 C 188.909 113.375,189.184 113.788,189.365 114.011 L 189.694 114.417 189.413 113.906 C 189.258 113.625,188.983 113.212,188.802 112.989 L 188.472 112.583 188.754 113.094 M229.167 113.167 C 229.362 113.442,229.560 113.667,229.606 113.667 C 229.652 113.667,229.529 113.442,229.333 113.167 C 229.138 112.892,228.940 112.667,228.894 112.667 C 228.848 112.667,228.971 112.892,229.167 113.167 M176.397 113.076 C 176.345 113.209,176.423 113.488,176.568 113.696 C 176.714 113.904,176.833 113.987,176.833 113.880 C 176.833 113.774,176.752 113.636,176.652 113.574 C 176.552 113.513,176.508 113.321,176.553 113.148 C 176.650 112.778,176.532 112.724,176.397 113.076 M181.083 114.167 C 181.441 114.533,181.772 114.833,181.818 114.833 C 181.863 114.833,181.608 114.533,181.250 114.167 C 180.892 113.800,180.562 113.500,180.516 113.500 C 180.470 113.500,180.725 113.800,181.083 114.167 M218.317 115.375 C 217.640 116.131,217.218 116.646,217.380 116.518 C 217.740 116.235,219.731 114.000,219.624 114.000 C 219.582 114.000,218.994 114.619,218.317 115.375 M181.479 115.310 C 182.037 115.939,182.625 116.558,182.787 116.685 C 182.948 116.812,182.527 116.298,181.850 115.542 C 181.173 114.785,180.585 114.167,180.542 114.167 C 180.500 114.167,180.922 114.681,181.479 115.310 M200.723 115.500 C 200.723 116.188,200.752 116.469,200.788 116.125 C 200.824 115.781,200.824 115.219,200.788 114.875 C 200.752 114.531,200.723 114.813,200.723 115.500 M199.224 115.750 C 199.224 116.483,199.254 116.763,199.289 116.371 C 199.324 115.979,199.324 115.379,199.288 115.037 C 199.252 114.696,199.223 115.017,199.224 115.750 M203.851 115.851 C 203.642 116.498,203.502 117.057,203.538 117.093 C 203.574 117.129,203.774 116.630,203.982 115.982 C 204.191 115.335,204.332 114.776,204.296 114.740 C 204.259 114.704,204.059 115.204,203.851 115.851 M188.949 115.415 C 189.102 115.734,189.256 115.966,189.292 115.930 C 189.368 115.854,188.862 114.833,188.748 114.833 C 188.706 114.833,188.797 115.095,188.949 115.415 M169.083 115.667 C 168.941 115.942,168.862 116.167,168.908 116.167 C 168.954 116.167,169.108 115.942,169.250 115.667 C 169.392 115.392,169.471 115.167,169.425 115.167 C 169.379 115.167,169.226 115.392,169.083 115.667 M176.170 115.522 C 175.833 115.802,175.615 115.847,174.998 115.765 C 174.273 115.669,174.227 115.689,173.941 116.207 L 173.643 116.750 173.999 116.296 C 174.315 115.893,174.432 115.853,175.063 115.940 C 175.666 116.022,175.845 115.973,176.261 115.607 C 176.841 115.097,176.766 115.026,176.170 115.522 M182.333 115.212 C 182.333 115.256,182.911 115.808,183.617 116.438 C 184.323 117.068,184.848 117.498,184.785 117.394 C 184.641 117.156,182.333 115.103,182.333 115.212 M223.739 115.590 C 224.164 115.978,224.324 116.024,224.956 115.937 C 225.682 115.838,225.684 115.838,226.200 116.669 C 226.767 117.582,227.060 117.827,226.545 116.958 C 225.736 115.593,225.809 115.650,225.028 115.767 C 224.441 115.855,224.206 115.807,223.778 115.509 L 223.250 115.142 223.739 115.590 M230.750 115.667 C 230.892 115.942,231.046 116.167,231.092 116.167 C 231.138 116.167,231.059 115.942,230.917 115.667 C 230.774 115.392,230.621 115.167,230.575 115.167 C 230.529 115.167,230.608 115.392,230.750 115.667 M216.167 116.520 L 214.917 117.699 216.208 116.579 C 217.345 115.594,217.616 115.324,217.458 115.337 C 217.435 115.339,216.854 115.871,216.167 116.520 M190.744 116.125 C 191.001 116.515,191.243 116.833,191.282 116.833 C 191.402 116.833,190.764 115.819,190.513 115.612 C 190.383 115.505,190.487 115.735,190.744 116.125 M196.179 116.262 C 196.162 116.514,196.690 118.032,196.768 117.954 C 196.803 117.919,196.688 117.483,196.512 116.987 C 196.335 116.490,196.186 116.164,196.179 116.262 M208.730 116.708 C 208.157 117.682,208.119 117.765,208.411 117.417 C 208.750 117.013,209.042 116.500,208.932 116.500 C 208.889 116.500,208.798 116.594,208.730 116.708 M184.229 118.383 C 184.859 119.089,185.410 119.667,185.454 119.667 C 185.564 119.667,183.510 117.359,183.273 117.215 C 183.169 117.152,183.599 117.677,184.229 118.383 M200.890 118.417 C 200.891 119.150,200.920 119.429,200.956 119.037 C 200.991 118.645,200.990 118.045,200.954 117.704 C 200.919 117.363,200.890 117.683,200.890 118.417 M215.562 118.450 C 214.932 119.156,214.502 119.682,214.606 119.618 C 214.844 119.475,216.897 117.167,216.788 117.167 C 216.744 117.167,216.192 117.744,215.562 118.450 M199.058 118.667 C 199.058 119.446,199.087 119.765,199.122 119.375 C 199.157 118.985,199.157 118.348,199.122 117.958 C 199.087 117.569,199.058 117.888,199.058 118.667 M185.833 118.417 C 186.144 118.737,186.436 119.000,186.482 119.000 C 186.528 119.000,186.311 118.737,186.000 118.417 C 185.689 118.096,185.397 117.833,185.351 117.833 C 185.305 117.833,185.522 118.096,185.833 118.417 M213.909 118.542 L 213.250 119.250 213.958 118.591 C 214.617 117.978,214.743 117.833,214.617 117.833 C 214.590 117.833,214.271 118.152,213.909 118.542 M174.315 118.639 C 174.721 118.917,175.159 119.095,175.300 119.041 C 175.459 118.980,175.512 119.012,175.441 119.127 C 175.379 119.228,175.416 119.365,175.523 119.431 C 175.654 119.512,175.673 119.479,175.582 119.331 C 175.483 119.170,175.521 119.139,175.723 119.216 C 176.295 119.436,175.971 119.158,175.208 118.774 C 173.932 118.133,173.470 118.063,174.315 118.639 M225.517 118.482 C 225.206 118.648,225.019 118.824,225.101 118.874 C 225.183 118.923,225.510 118.785,225.829 118.565 C 226.507 118.098,226.329 118.050,225.517 118.482 M191.202 119.910 C 191.587 120.686,191.928 121.294,191.961 121.261 C 192.035 121.187,190.694 118.500,190.583 118.500 C 190.539 118.500,190.817 119.135,191.202 119.910 M208.825 119.517 C 208.542 120.076,208.339 120.561,208.373 120.595 C 208.406 120.628,208.673 120.171,208.965 119.578 C 209.258 118.985,209.461 118.500,209.418 118.500 C 209.374 118.500,209.107 118.958,208.825 119.517 M206.936 119.417 C 206.788 119.646,206.545 120.040,206.397 120.292 L 206.127 120.750 206.462 120.344 C 206.859 119.865,207.384 119.000,207.279 119.000 C 207.238 119.000,207.084 119.188,206.936 119.417 M187.333 119.750 C 187.644 120.071,187.936 120.333,187.982 120.333 C 188.028 120.333,187.811 120.071,187.500 119.750 C 187.189 119.429,186.897 119.167,186.851 119.167 C 186.805 119.167,187.022 119.429,187.333 119.750 M212.324 119.958 L 211.750 120.583 212.375 120.009 C 212.957 119.474,213.077 119.333,212.949 119.333 C 212.922 119.333,212.640 119.615,212.324 119.958 M193.254 119.928 C 193.409 120.209,193.684 120.621,193.865 120.844 L 194.194 121.250 193.913 120.739 C 193.758 120.458,193.483 120.045,193.302 119.822 L 192.972 119.417 193.254 119.928 M213.575 120.708 L 212.917 121.417 213.625 120.758 C 214.284 120.145,214.410 120.000,214.284 120.000 C 214.257 120.000,213.938 120.319,213.575 120.708 M222.747 120.440 C 221.897 121.004,221.597 121.301,222.261 120.923 C 222.846 120.589,223.626 120.009,223.497 120.004 C 223.450 120.002,223.112 120.198,222.747 120.440 M186.333 120.750 C 186.644 121.071,186.936 121.333,186.982 121.333 C 187.028 121.333,186.811 121.071,186.500 120.750 C 186.189 120.429,185.897 120.167,185.851 120.167 C 185.805 120.167,186.022 120.429,186.333 120.750 M198.872 120.667 C 198.872 120.987,198.906 121.119,198.948 120.958 C 198.990 120.798,198.990 120.535,198.948 120.375 C 198.906 120.215,198.872 120.346,198.872 120.667 M201.042 120.750 C 201.044 121.117,201.078 121.247,201.118 121.040 C 201.158 120.832,201.156 120.532,201.115 120.373 C 201.073 120.214,201.040 120.383,201.042 120.750 M227.405 120.578 C 227.257 120.804,227.161 121.057,227.193 121.139 C 227.224 121.222,227.372 121.037,227.521 120.728 C 227.839 120.067,227.785 119.998,227.405 120.578 M177.333 120.552 C 177.333 120.591,177.652 120.833,178.042 121.090 C 178.431 121.346,178.662 121.450,178.554 121.320 C 178.348 121.070,177.333 120.432,177.333 120.552 M188.833 121.083 C 189.144 121.404,189.436 121.667,189.482 121.667 C 189.528 121.667,189.311 121.404,189.000 121.083 C 188.689 120.763,188.397 120.500,188.351 120.500 C 188.305 120.500,188.522 120.763,188.833 121.083 M210.909 121.208 L 210.250 121.917 210.958 121.258 C 211.617 120.645,211.743 120.500,211.617 120.500 C 211.590 120.500,211.271 120.819,210.909 121.208 M166.352 121.690 C 166.158 122.263,166.006 122.811,166.012 122.907 C 166.019 123.004,166.206 122.564,166.428 121.929 C 166.650 121.295,166.802 120.747,166.767 120.712 C 166.732 120.677,166.545 121.117,166.352 121.690 M220.333 121.083 C 219.921 121.304,219.643 121.488,219.715 121.492 C 219.892 121.503,221.167 120.848,221.167 120.747 C 221.167 120.636,221.174 120.633,220.333 121.083 M233.346 121.093 C 233.339 121.189,233.515 121.789,233.738 122.426 C 233.960 123.062,234.147 123.504,234.154 123.407 C 234.161 123.311,233.985 122.711,233.762 122.074 C 233.540 121.438,233.353 120.996,233.346 121.093 M199.037 121.833 C 199.033 122.154,199.088 122.792,199.159 123.250 C 199.264 123.924,199.290 123.972,199.296 123.500 C 199.301 123.179,199.246 122.542,199.174 122.083 C 199.069 121.409,199.043 121.361,199.037 121.833 M200.875 122.083 C 200.877 122.450,200.911 122.580,200.951 122.373 C 200.991 122.166,200.990 121.866,200.948 121.706 C 200.906 121.547,200.874 121.717,200.875 122.083 M212.075 122.375 L 211.417 123.083 212.125 122.425 C 212.784 121.812,212.910 121.667,212.784 121.667 C 212.757 121.667,212.438 121.985,212.075 122.375 M187.917 122.500 C 188.275 122.867,188.605 123.167,188.651 123.167 C 188.697 123.167,188.441 122.867,188.083 122.500 C 187.725 122.133,187.395 121.833,187.349 121.833 C 187.303 121.833,187.559 122.133,187.917 122.500 M190.250 122.318 C 190.617 122.743,192.167 124.072,192.167 123.962 C 192.167 123.924,191.660 123.451,191.042 122.912 C 190.423 122.373,190.067 122.105,190.250 122.318 M208.750 123.115 C 208.153 123.672,208.019 123.844,208.417 123.541 C 209.046 123.062,209.975 122.158,209.821 122.174 C 209.782 122.179,209.300 122.602,208.750 123.115 M227.793 122.625 C 228.040 122.862,228.392 123.000,228.745 123.000 C 229.053 123.000,229.344 123.077,229.390 123.171 C 229.437 123.265,229.456 123.246,229.432 123.129 C 229.409 123.012,229.080 122.874,228.701 122.823 C 228.322 122.771,227.874 122.621,227.706 122.490 C 227.538 122.358,227.577 122.419,227.793 122.625 M180.656 122.802 C 180.879 122.983,181.291 123.258,181.572 123.413 L 182.083 123.694 181.678 123.365 C 181.455 123.184,181.042 122.909,180.761 122.754 L 180.250 122.472 180.656 122.802 M203.519 123.185 C 203.416 123.480,203.361 123.750,203.397 123.786 C 203.432 123.821,203.545 123.609,203.648 123.315 C 203.751 123.020,203.806 122.750,203.770 122.714 C 203.734 122.679,203.621 122.891,203.519 123.185 M170.611 122.944 C 170.550 123.006,170.501 123.137,170.503 123.236 C 170.504 123.353,170.548 123.348,170.629 123.222 C 170.697 123.115,171.015 122.996,171.335 122.957 L 171.917 122.887 171.319 122.860 C 170.991 122.845,170.672 122.883,170.611 122.944 M215.333 123.583 C 214.554 123.987,213.975 124.320,214.045 124.325 C 214.223 124.336,216.833 123.016,216.833 122.915 C 216.833 122.802,216.904 122.770,215.333 123.583 M218.414 123.273 C 217.563 123.837,217.264 124.135,217.928 123.756 C 218.512 123.422,219.292 122.843,219.164 122.837 C 219.116 122.835,218.779 123.031,218.414 123.273 M183.500 123.082 C 183.500 123.194,185.520 124.202,185.595 124.127 C 185.628 124.094,185.171 123.827,184.578 123.535 C 183.985 123.242,183.500 123.039,183.500 123.082 M200.705 123.500 C 200.705 123.821,200.740 123.952,200.782 123.792 C 200.823 123.631,200.823 123.369,200.782 123.208 C 200.740 123.048,200.705 123.179,200.705 123.500 M210.906 123.708 L 210.417 124.250 210.958 123.760 C 211.463 123.304,211.577 123.167,211.448 123.167 C 211.419 123.167,211.175 123.410,210.906 123.708 M188.667 123.385 C 188.667 123.414,188.910 123.658,189.208 123.927 L 189.750 124.417 189.260 123.875 C 188.804 123.370,188.667 123.257,188.667 123.385 M193.587 124.149 C 193.923 124.617,194.271 125.045,194.361 125.100 C 194.451 125.156,194.249 124.819,193.913 124.351 C 193.577 123.883,193.229 123.455,193.139 123.400 C 193.049 123.344,193.251 123.681,193.587 124.149 M198.205 124.167 C 198.205 124.487,198.240 124.619,198.282 124.458 C 198.323 124.298,198.323 124.035,198.282 123.875 C 198.240 123.715,198.205 123.846,198.205 124.167 M201.509 125.417 C 201.385 126.333,201.202 127.145,201.100 127.221 C 200.982 127.310,201.005 127.335,201.165 127.291 C 201.411 127.224,201.911 124.579,201.786 124.000 C 201.757 123.862,201.632 124.500,201.509 125.417 M204.022 124.856 C 203.825 125.330,203.691 125.746,203.725 125.780 C 203.758 125.814,203.947 125.453,204.144 124.978 C 204.342 124.503,204.476 124.087,204.442 124.053 C 204.409 124.020,204.220 124.381,204.022 124.856 M205.654 124.958 C 205.259 125.485,205.047 125.826,205.184 125.716 C 205.464 125.489,206.561 124.000,206.447 124.000 C 206.407 124.000,206.050 124.431,205.654 124.958 M199.372 124.833 C 199.372 125.154,199.406 125.285,199.448 125.125 C 199.490 124.965,199.490 124.702,199.448 124.542 C 199.406 124.381,199.372 124.513,199.372 124.833 M198.372 125.333 C 198.372 125.654,198.406 125.785,198.448 125.625 C 198.490 125.465,198.490 125.202,198.448 125.042 C 198.406 124.881,198.372 125.013,198.372 125.333 M209.167 125.523 L 208.417 126.202 209.123 125.672 C 209.737 125.211,210.131 124.823,209.968 124.838 C 209.940 124.841,209.579 125.149,209.167 125.523 M184.167 125.041 C 184.167 125.110,184.824 125.566,186.375 126.574 C 186.627 126.738,186.833 126.836,186.833 126.793 C 186.833 126.723,186.176 126.267,184.625 125.259 C 184.373 125.096,184.167 124.997,184.167 125.041 M193.333 125.667 C 193.624 126.033,193.899 126.333,193.945 126.333 C 193.991 126.333,193.790 126.033,193.500 125.667 C 193.210 125.300,192.934 125.000,192.889 125.000 C 192.843 125.000,193.043 125.300,193.333 125.667 M206.500 125.667 C 206.210 126.033,206.009 126.333,206.055 126.333 C 206.101 126.333,206.376 126.033,206.667 125.667 C 206.957 125.300,207.157 125.000,207.111 125.000 C 207.066 125.000,206.790 125.300,206.500 125.667 M211.292 125.594 C 210.673 125.911,210.167 126.209,210.167 126.254 C 210.167 126.329,212.483 125.219,212.653 125.064 C 212.881 124.854,212.266 125.094,211.292 125.594 M187.833 125.246 C 187.833 125.291,188.302 125.564,188.875 125.852 C 189.448 126.141,190.217 126.598,190.583 126.870 L 191.250 127.363 190.667 126.835 C 190.125 126.345,187.833 125.059,187.833 125.246 M196.062 125.333 C 196.209 125.874,196.712 127.010,196.777 126.945 C 196.815 126.907,196.654 126.473,196.420 125.980 C 196.186 125.487,196.025 125.196,196.062 125.333 M214.123 126.087 C 213.505 126.501,213.000 126.877,213.000 126.922 C 213.000 126.966,213.525 126.654,214.167 126.227 C 215.187 125.548,215.457 125.333,215.290 125.333 C 215.266 125.333,214.741 125.672,214.123 126.087 M171.741 125.915 C 172.861 126.320,173.596 126.470,172.917 126.156 C 172.675 126.043,172.789 126.022,173.333 126.076 C 174.083 126.151,174.083 126.151,173.167 125.913 C 172.662 125.782,171.875 125.635,171.417 125.586 L 170.583 125.497 171.741 125.915 M228.122 125.620 C 227.869 125.658,227.704 125.758,227.755 125.842 C 227.809 125.929,227.612 125.959,227.300 125.911 C 226.868 125.845,226.822 125.861,227.083 125.985 L 227.417 126.143 227.083 126.168 C 226.900 126.182,226.827 126.225,226.921 126.265 C 227.016 126.304,227.616 126.154,228.255 125.931 C 229.324 125.557,229.276 125.445,228.122 125.620 M198.539 126.500 C 198.539 126.821,198.573 126.952,198.615 126.792 C 198.657 126.631,198.657 126.369,198.615 126.208 C 198.573 126.048,198.539 126.179,198.539 126.500 M225.167 126.250 C 224.662 126.367,224.438 126.464,224.667 126.465 C 224.896 126.467,225.458 126.372,225.917 126.254 C 226.999 125.976,226.363 125.973,225.167 126.250 M203.849 127.364 C 203.118 128.359,203.813 129.220,204.599 128.292 C 204.916 127.917,204.916 127.917,204.570 128.208 C 203.730 128.916,203.328 128.300,204.018 127.362 C 204.299 126.979,204.491 126.667,204.446 126.667 C 204.400 126.667,204.131 126.980,203.849 127.364 M196.218 127.671 C 196.636 128.268,196.139 128.832,195.598 128.376 L 195.250 128.083 195.570 128.461 L 195.890 128.839 196.272 128.480 C 196.661 128.114,196.608 127.690,196.137 127.398 C 196.030 127.332,196.066 127.455,196.218 127.671 M197.000 127.708 C 197.000 127.878,197.364 127.862,197.651 127.680 C 197.818 127.574,197.759 127.539,197.442 127.558 C 197.199 127.572,197.000 127.640,197.000 127.708 M205.917 128.102 L 205.250 128.698 205.958 128.168 C 206.568 127.712,206.788 127.493,206.625 127.502 C 206.602 127.504,206.283 127.773,205.917 128.102 M170.136 128.297 C 170.382 128.552,170.615 128.739,170.653 128.713 C 170.750 128.648,169.973 127.833,169.815 127.833 C 169.745 127.833,169.889 128.042,170.136 128.297 M188.500 127.932 C 188.500 128.043,190.033 128.690,190.111 128.611 C 190.146 128.576,189.798 128.391,189.337 128.200 C 188.877 128.008,188.500 127.888,188.500 127.932 M220.833 128.250 C 220.237 128.465,219.829 128.646,219.926 128.654 C 220.149 128.670,222.167 127.993,222.167 127.901 C 222.167 127.789,221.967 127.841,220.833 128.250 M229.678 128.238 C 229.469 128.461,229.337 128.742,229.386 128.863 C 229.446 129.014,229.478 128.995,229.487 128.804 C 229.494 128.650,229.698 128.369,229.939 128.179 C 230.181 127.989,230.306 127.833,230.218 127.833 C 230.130 127.833,229.887 128.015,229.678 128.238 M194.000 128.055 C 194.000 128.101,194.300 128.376,194.667 128.667 C 195.033 128.957,195.333 129.157,195.333 129.111 C 195.333 129.066,195.033 128.790,194.667 128.500 C 194.300 128.210,194.000 128.009,194.000 128.055 M183.847 128.233 C 183.967 128.347,187.525 129.031,187.601 128.954 C 187.641 128.914,186.866 128.721,185.879 128.524 C 184.061 128.162,183.722 128.113,183.847 128.233 M214.750 128.413 C 214.292 128.531,214.067 128.629,214.250 128.631 C 214.433 128.633,214.958 128.538,215.417 128.420 C 215.875 128.303,216.100 128.205,215.917 128.202 C 215.733 128.200,215.208 128.295,214.750 128.413 M192.667 128.386 C 192.667 128.427,192.942 128.670,193.279 128.927 C 193.615 129.184,193.838 129.309,193.773 129.205 C 193.642 128.991,192.667 128.270,192.667 128.386 M209.833 128.583 C 209.604 128.714,209.492 128.822,209.583 128.822 C 209.675 128.822,209.938 128.714,210.167 128.583 C 210.396 128.452,210.508 128.345,210.417 128.345 C 210.325 128.345,210.063 128.452,209.833 128.583 M235.375 130.250 C 235.377 130.617,235.411 130.747,235.451 130.540 C 235.491 130.332,235.490 130.032,235.448 129.873 C 235.406 129.714,235.374 129.883,235.375 130.250 M164.542 130.417 C 164.544 130.783,164.578 130.914,164.618 130.706 C 164.658 130.499,164.656 130.199,164.615 130.040 C 164.573 129.880,164.540 130.050,164.542 130.417 M186.407 130.762 C 187.044 130.985,187.644 131.161,187.741 131.154 C 187.838 131.147,187.396 130.960,186.759 130.738 C 186.123 130.515,185.523 130.339,185.426 130.346 C 185.329 130.353,185.771 130.540,186.407 130.762 M207.304 130.802 C 206.692 131.050,206.130 131.315,206.054 131.390 C 205.922 131.523,206.957 131.143,208.167 130.615 C 209.171 130.177,208.473 130.328,207.304 130.802 M229.921 130.563 C 230.102 130.690,230.400 130.822,230.583 130.857 C 231.108 130.958,231.190 135.769,230.668 135.885 C 230.378 135.950,230.383 135.958,230.706 135.939 C 231.081 135.917,231.083 135.900,231.083 133.333 L 231.083 130.750 230.667 130.694 C 230.438 130.664,230.179 130.570,230.092 130.486 C 230.005 130.402,229.857 130.333,229.763 130.333 C 229.669 130.333,229.740 130.437,229.921 130.563 M169.417 130.646 L 168.917 130.753 168.917 133.335 L 168.917 135.917 169.333 135.974 C 169.563 136.006,169.846 136.110,169.962 136.206 C 170.079 136.302,170.210 136.345,170.254 136.302 C 170.334 136.222,169.826 135.941,169.287 135.769 C 168.806 135.614,168.929 130.949,169.417 130.861 C 169.600 130.828,169.821 130.733,169.908 130.650 C 169.995 130.568,170.033 130.509,169.992 130.520 C 169.950 130.531,169.692 130.588,169.417 130.646 M212.917 130.833 C 212.458 131.002,212.196 131.141,212.333 131.141 C 212.471 131.141,212.958 131.002,213.417 130.833 C 213.875 130.664,214.137 130.526,214.000 130.526 C 213.862 130.526,213.375 130.664,212.917 130.833 M192.689 130.911 C 192.829 131.051,194.000 131.507,194.000 131.421 C 194.000 131.375,193.728 131.224,193.396 131.086 C 192.781 130.829,192.549 130.771,192.689 130.911 M235.556 133.333 C 235.556 134.021,235.585 134.302,235.621 133.958 C 235.657 133.615,235.657 133.052,235.621 132.708 C 235.585 132.365,235.556 132.646,235.556 133.333 M185.044 132.453 C 185.297 132.491,185.672 132.490,185.877 132.451 C 186.082 132.411,185.875 132.380,185.417 132.381 C 184.958 132.382,184.791 132.415,185.044 132.453 M214.458 132.451 C 214.665 132.491,215.002 132.491,215.208 132.451 C 215.415 132.411,215.246 132.379,214.833 132.379 C 214.421 132.379,214.252 132.411,214.458 132.451 M182.211 132.620 C 182.464 132.658,182.839 132.657,183.044 132.617 C 183.249 132.578,183.042 132.546,182.583 132.548 C 182.125 132.549,181.957 132.581,182.211 132.620 M217.208 132.619 C 217.460 132.658,217.873 132.658,218.125 132.619 C 218.377 132.581,218.171 132.550,217.667 132.550 C 217.162 132.550,216.956 132.581,217.208 132.619 M164.379 133.333 C 164.379 133.746,164.411 133.915,164.451 133.708 C 164.491 133.502,164.491 133.165,164.451 132.958 C 164.411 132.752,164.379 132.921,164.379 133.333 M179.295 132.787 C 179.594 132.825,180.044 132.824,180.295 132.786 C 180.545 132.748,180.300 132.717,179.750 132.718 C 179.200 132.719,178.995 132.750,179.295 132.787 M220.042 132.786 C 220.294 132.824,220.706 132.824,220.958 132.786 C 221.210 132.748,221.004 132.717,220.500 132.717 C 219.996 132.717,219.790 132.748,220.042 132.786 M176.292 132.954 C 176.590 132.991,177.077 132.991,177.375 132.954 C 177.673 132.917,177.429 132.887,176.833 132.887 C 176.237 132.887,175.994 132.917,176.292 132.954 M207.042 132.948 C 207.202 132.990,207.465 132.990,207.625 132.948 C 207.785 132.906,207.654 132.872,207.333 132.872 C 207.012 132.872,206.881 132.906,207.042 132.948 M222.792 132.954 C 223.090 132.991,223.577 132.991,223.875 132.954 C 224.173 132.917,223.929 132.887,223.333 132.887 C 222.737 132.887,222.494 132.917,222.792 132.954 M173.121 133.120 C 173.417 133.157,173.942 133.158,174.288 133.122 C 174.634 133.086,174.392 133.055,173.750 133.055 C 173.108 133.054,172.825 133.083,173.121 133.120 M225.788 133.120 C 226.084 133.157,226.609 133.158,226.955 133.122 C 227.300 133.086,227.058 133.055,226.417 133.055 C 225.775 133.054,225.492 133.083,225.788 133.120 M169.917 133.333 C 169.852 133.438,170.248 133.500,170.990 133.500 C 171.663 133.500,172.167 133.429,172.167 133.333 C 172.167 133.239,171.698 133.167,171.093 133.167 C 170.503 133.167,169.973 133.242,169.917 133.333 M228.083 133.333 C 228.140 133.425,228.632 133.500,229.177 133.500 C 229.726 133.500,230.167 133.426,230.167 133.333 C 230.167 133.239,229.691 133.167,229.073 133.167 C 228.387 133.167,228.019 133.229,228.083 133.333 M172.963 133.622 C 173.355 133.657,173.955 133.657,174.296 133.621 C 174.637 133.585,174.317 133.557,173.583 133.557 C 172.850 133.558,172.571 133.587,172.963 133.622 M225.963 133.622 C 226.355 133.657,226.955 133.657,227.296 133.621 C 227.637 133.585,227.317 133.557,226.583 133.557 C 225.850 133.558,225.571 133.587,225.963 133.622 M175.955 133.787 C 176.250 133.824,176.775 133.824,177.121 133.788 C 177.467 133.752,177.225 133.722,176.583 133.721 C 175.942 133.721,175.659 133.750,175.955 133.787 M192.627 133.785 C 192.834 133.824,193.134 133.823,193.294 133.781 C 193.453 133.739,193.283 133.707,192.917 133.709 C 192.550 133.711,192.420 133.745,192.627 133.785 M206.960 133.785 C 207.168 133.824,207.468 133.823,207.627 133.781 C 207.786 133.739,207.617 133.707,207.250 133.709 C 206.883 133.711,206.753 133.745,206.960 133.785 M222.955 133.787 C 223.250 133.824,223.775 133.824,224.121 133.788 C 224.467 133.752,224.225 133.722,223.583 133.721 C 222.942 133.721,222.659 133.750,222.955 133.787 M179.128 133.954 C 179.428 133.991,179.878 133.990,180.128 133.952 C 180.378 133.914,180.133 133.884,179.583 133.885 C 179.033 133.886,178.828 133.917,179.128 133.954 M191.208 133.948 C 191.369 133.990,191.631 133.990,191.792 133.948 C 191.952 133.906,191.821 133.872,191.500 133.872 C 191.179 133.872,191.048 133.906,191.208 133.948 M208.375 133.948 C 208.535 133.990,208.798 133.990,208.958 133.948 C 209.119 133.906,208.987 133.872,208.667 133.872 C 208.346 133.872,208.215 133.906,208.375 133.948 M220.128 133.954 C 220.428 133.991,220.878 133.990,221.128 133.952 C 221.378 133.914,221.133 133.884,220.583 133.885 C 220.033 133.886,219.828 133.917,220.128 133.954 M181.961 134.121 C 182.261 134.158,182.711 134.157,182.961 134.119 C 183.212 134.081,182.967 134.051,182.417 134.052 C 181.867 134.053,181.662 134.084,181.961 134.121 M217.295 134.121 C 217.594 134.158,218.044 134.157,218.295 134.119 C 218.545 134.081,218.300 134.051,217.750 134.052 C 217.200 134.053,216.995 134.084,217.295 134.121 M184.875 134.286 C 185.127 134.324,185.540 134.324,185.792 134.286 C 186.044 134.248,185.838 134.217,185.333 134.217 C 184.829 134.217,184.623 134.248,184.875 134.286 M214.544 134.286 C 214.797 134.325,215.172 134.324,215.377 134.284 C 215.582 134.244,215.375 134.213,214.917 134.214 C 214.458 134.216,214.291 134.248,214.544 134.286 M205.854 135.380 C 205.751 135.483,205.669 135.645,205.672 135.742 C 205.675 135.838,205.752 135.789,205.843 135.632 C 205.934 135.475,206.119 135.389,206.254 135.441 C 206.389 135.493,206.500 135.498,206.500 135.452 C 206.500 135.260,206.026 135.207,205.854 135.380 M192.417 135.845 C 192.050 136.022,191.938 136.119,192.167 136.062 C 192.639 135.945,193.505 135.510,193.250 135.519 C 193.158 135.522,192.783 135.669,192.417 135.845 M194.256 135.779 C 194.318 136.022,194.249 136.200,194.049 136.316 C 193.885 136.412,193.825 136.491,193.917 136.492 C 194.367 136.499,194.564 136.195,194.364 135.804 C 194.178 135.443,194.171 135.441,194.256 135.779 M213.417 136.004 C 214.242 136.275,214.992 136.491,215.083 136.485 C 215.344 136.469,212.463 135.499,212.174 135.506 C 212.033 135.510,212.592 135.734,213.417 136.004 M164.542 136.250 C 164.544 136.617,164.578 136.747,164.618 136.540 C 164.658 136.332,164.656 136.032,164.615 135.873 C 164.573 135.714,164.540 135.883,164.542 136.250 M185.583 136.167 C 184.850 136.427,184.328 136.646,184.424 136.654 C 184.520 136.661,185.233 136.447,186.008 136.179 C 186.783 135.911,187.304 135.692,187.167 135.692 C 187.029 135.693,186.317 135.906,185.583 136.167 M235.375 136.417 C 235.377 136.783,235.411 136.914,235.451 136.706 C 235.491 136.499,235.490 136.199,235.448 136.040 C 235.406 135.880,235.374 136.050,235.375 136.417 M206.333 136.583 C 206.563 136.714,206.825 136.822,206.917 136.822 C 207.008 136.822,206.896 136.714,206.667 136.583 C 206.438 136.452,206.175 136.345,206.083 136.345 C 205.992 136.345,206.104 136.452,206.333 136.583 M192.667 138.187 C 191.329 139.218,190.982 139.574,192.031 138.839 C 192.877 138.247,193.968 137.345,193.833 137.350 C 193.787 137.351,193.262 137.728,192.667 138.187 M206.227 137.462 C 206.358 137.675,207.333 138.397,207.333 138.281 C 207.333 138.240,207.058 137.996,206.721 137.740 C 206.385 137.483,206.162 137.358,206.227 137.462 M204.667 137.555 C 204.667 137.601,204.967 137.876,205.333 138.167 C 205.700 138.457,206.000 138.657,206.000 138.611 C 206.000 138.566,205.700 138.290,205.333 138.000 C 204.967 137.710,204.667 137.509,204.667 137.555 M179.083 138.333 C 178.075 138.686,177.329 138.980,177.426 138.987 C 177.632 139.002,181.010 137.878,181.136 137.753 C 181.304 137.585,180.894 137.701,179.083 138.333 M229.344 137.860 C 229.338 138.012,229.577 138.341,229.875 138.590 C 230.173 138.839,230.468 139.164,230.530 139.313 C 230.623 139.535,230.645 139.524,230.654 139.250 C 230.660 139.047,230.468 138.805,230.162 138.631 C 229.886 138.474,229.591 138.174,229.507 137.964 C 229.402 137.701,229.351 137.669,229.344 137.860 M170.364 138.180 C 170.250 138.363,169.971 138.596,169.745 138.699 C 169.489 138.816,169.338 139.019,169.346 139.235 C 169.356 139.480,169.388 139.509,169.455 139.333 C 169.508 139.196,169.821 138.847,170.150 138.558 C 170.480 138.270,170.710 137.992,170.660 137.941 C 170.611 137.890,170.478 137.998,170.364 138.180 M214.000 138.083 C 214.504 138.212,215.217 138.355,215.583 138.401 C 216.098 138.465,216.042 138.431,215.333 138.250 C 214.829 138.122,214.117 137.979,213.750 137.933 C 213.235 137.868,213.292 137.902,214.000 138.083 M189.500 138.250 C 189.271 138.381,189.158 138.488,189.250 138.488 C 189.342 138.488,189.604 138.381,189.833 138.250 C 190.063 138.119,190.175 138.012,190.083 138.012 C 189.992 138.012,189.729 138.119,189.500 138.250 M203.605 138.310 C 203.341 138.601,203.345 138.643,203.672 139.018 L 204.020 139.417 203.756 138.982 C 203.394 138.385,203.802 137.963,204.389 138.328 C 204.718 138.534,204.730 138.529,204.521 138.277 C 204.224 137.917,203.951 137.927,203.605 138.310 M209.851 138.073 C 209.990 138.212,211.500 138.821,211.500 138.738 C 211.500 138.692,211.156 138.507,210.736 138.327 C 209.991 138.008,209.703 137.925,209.851 138.073 M193.750 138.768 L 193.083 139.365 193.792 138.835 C 194.401 138.379,194.621 138.159,194.458 138.169 C 194.435 138.171,194.117 138.440,193.750 138.768 M182.667 138.667 C 182.337 138.772,182.319 138.800,182.583 138.800 C 182.767 138.800,183.104 138.740,183.333 138.667 C 183.663 138.561,183.681 138.533,183.417 138.533 C 183.233 138.533,182.896 138.593,182.667 138.667 M188.333 138.848 C 188.057 139.075,188.029 139.131,188.250 139.017 C 188.794 138.736,189.095 138.505,188.917 138.506 C 188.825 138.507,188.563 138.661,188.333 138.848 M197.000 138.958 C 197.000 139.027,197.199 139.095,197.442 139.109 C 197.759 139.127,197.818 139.092,197.651 138.987 C 197.364 138.805,197.000 138.789,197.000 138.958 M201.100 139.446 C 201.202 139.521,201.385 140.333,201.509 141.250 C 201.632 142.167,201.757 142.804,201.786 142.667 C 201.911 142.088,201.411 139.443,201.165 139.376 C 201.005 139.332,200.982 139.357,201.100 139.446 M193.906 140.279 C 193.650 140.615,193.525 140.838,193.629 140.773 C 193.842 140.642,194.564 139.667,194.448 139.667 C 194.407 139.667,194.163 139.942,193.906 140.279 M198.539 140.167 C 198.539 140.487,198.573 140.619,198.615 140.458 C 198.657 140.298,198.657 140.035,198.615 139.875 C 198.573 139.715,198.539 139.846,198.539 140.167 M213.167 139.874 C 213.167 139.943,213.824 140.400,215.375 141.407 C 215.627 141.571,215.833 141.669,215.833 141.626 C 215.833 141.557,215.176 141.100,213.625 140.093 C 213.373 139.929,213.167 139.831,213.167 139.874 M189.137 140.647 C 187.610 141.479,187.484 141.672,188.946 140.940 C 189.604 140.611,190.189 140.265,190.247 140.171 C 190.377 139.961,190.469 139.922,189.137 140.647 M191.250 140.686 C 190.231 141.510,189.909 141.842,190.583 141.372 C 191.195 140.946,192.281 140.014,192.167 140.013 C 192.121 140.012,191.708 140.315,191.250 140.686 M173.667 140.515 C 173.346 140.595,172.908 140.622,172.694 140.574 C 172.418 140.512,172.341 140.545,172.430 140.688 C 172.515 140.825,172.469 140.857,172.290 140.788 C 172.144 140.732,171.738 140.768,171.387 140.867 C 171.037 140.966,170.841 141.079,170.952 141.119 C 171.148 141.188,174.681 140.531,174.819 140.399 C 174.932 140.292,174.296 140.356,173.667 140.515 M206.500 141.000 C 206.790 141.367,207.066 141.667,207.111 141.667 C 207.157 141.667,206.957 141.367,206.667 141.000 C 206.376 140.633,206.101 140.333,206.055 140.333 C 206.009 140.333,206.210 140.633,206.500 141.000 M210.167 140.413 C 210.167 140.459,210.842 140.836,211.667 141.250 C 212.492 141.664,213.167 141.966,213.167 141.920 C 213.167 141.874,212.492 141.498,211.667 141.083 C 210.842 140.669,210.167 140.367,210.167 140.413 M185.080 140.940 C 184.230 141.504,183.930 141.801,184.594 141.423 C 185.179 141.089,185.959 140.509,185.830 140.504 C 185.783 140.502,185.445 140.698,185.080 140.940 M196.194 140.924 C 195.914 141.537,195.968 141.667,196.270 141.110 C 196.411 140.850,196.495 140.606,196.457 140.568 C 196.419 140.530,196.300 140.690,196.194 140.924 M226.833 140.772 C 227.338 140.892,228.125 141.032,228.583 141.081 L 229.417 141.171 228.762 140.917 C 228.401 140.778,227.961 140.710,227.782 140.766 C 227.604 140.823,227.498 140.805,227.546 140.726 C 227.595 140.648,227.248 140.576,226.776 140.568 L 225.917 140.552 226.833 140.772 M198.372 141.333 C 198.372 141.654,198.406 141.785,198.448 141.625 C 198.490 141.465,198.490 141.202,198.448 141.042 C 198.406 140.881,198.372 141.012,198.372 141.333 M203.729 141.000 C 203.875 141.541,204.379 142.677,204.444 142.612 C 204.482 142.574,204.321 142.140,204.087 141.647 C 203.853 141.153,203.692 140.862,203.729 141.000 M199.375 141.917 C 199.377 142.283,199.411 142.414,199.451 142.206 C 199.491 141.999,199.490 141.699,199.448 141.540 C 199.406 141.380,199.374 141.550,199.375 141.917 M206.087 142.316 C 206.423 142.783,206.771 143.212,206.861 143.267 C 206.951 143.323,206.749 142.985,206.413 142.518 C 206.077 142.050,205.729 141.622,205.639 141.566 C 205.549 141.511,205.751 141.848,206.087 142.316 M198.205 142.500 C 198.205 142.821,198.240 142.952,198.282 142.792 C 198.323 142.631,198.323 142.369,198.282 142.208 C 198.240 142.048,198.205 142.179,198.205 142.500 M193.406 142.779 C 193.150 143.115,193.025 143.338,193.129 143.273 C 193.342 143.142,194.064 142.167,193.948 142.167 C 193.907 142.167,193.663 142.442,193.406 142.779 M189.073 142.875 L 188.583 143.417 189.125 142.927 C 189.630 142.471,189.743 142.333,189.615 142.333 C 189.586 142.333,189.342 142.577,189.073 142.875 M211.313 143.476 C 211.778 144.013,212.290 144.557,212.452 144.684 C 212.613 144.812,212.267 144.373,211.682 143.708 C 211.097 143.044,210.584 142.500,210.543 142.500 C 210.501 142.500,210.848 142.939,211.313 143.476 M199.212 143.333 C 199.212 143.746,199.245 143.915,199.284 143.708 C 199.324 143.502,199.324 143.165,199.284 142.958 C 199.245 142.752,199.212 142.921,199.212 143.333 M200.705 143.167 C 200.705 143.487,200.740 143.619,200.782 143.458 C 200.823 143.298,200.823 143.035,200.782 142.875 C 200.740 142.715,200.705 142.846,200.705 143.167 M207.833 142.705 C 207.833 142.743,208.340 143.215,208.958 143.755 C 209.577 144.294,209.933 144.561,209.750 144.349 C 209.383 143.924,207.833 142.595,207.833 142.705 M214.681 142.730 C 214.850 142.886,216.833 143.829,216.833 143.755 C 216.833 143.661,214.908 142.667,214.727 142.667 C 214.663 142.667,214.642 142.695,214.681 142.730 M218.322 143.302 C 218.545 143.483,218.958 143.758,219.239 143.913 L 219.750 144.194 219.344 143.865 C 219.121 143.684,218.709 143.409,218.428 143.254 L 217.917 142.972 218.322 143.302 M233.767 144.100 C 233.606 144.611,233.504 145.059,233.540 145.096 C 233.577 145.133,233.739 144.744,233.900 144.233 C 234.061 143.722,234.163 143.274,234.126 143.237 C 234.090 143.201,233.928 143.589,233.767 144.100 M170.568 143.537 C 170.591 143.654,170.920 143.792,171.299 143.844 C 171.678 143.895,172.126 144.045,172.294 144.177 C 172.462 144.309,172.423 144.248,172.207 144.042 C 171.960 143.805,171.608 143.667,171.255 143.667 C 170.947 143.667,170.656 143.590,170.610 143.496 C 170.563 143.402,170.544 143.421,170.568 143.537 M229.333 143.472 C 229.333 143.583,229.086 143.667,228.759 143.667 C 228.372 143.667,228.033 143.808,227.718 144.100 L 227.250 144.533 227.731 144.183 C 227.995 143.991,228.460 143.833,228.763 143.833 C 229.289 143.833,229.646 143.591,229.433 143.378 C 229.378 143.323,229.333 143.365,229.333 143.472 M187.991 144.125 L 187.417 144.750 188.042 144.176 C 188.623 143.641,188.743 143.500,188.616 143.500 C 188.588 143.500,188.307 143.781,187.991 144.125 M190.491 144.125 L 189.917 144.750 190.542 144.176 C 191.123 143.641,191.243 143.500,191.116 143.500 C 191.088 143.500,190.807 143.781,190.491 144.125 M166.012 143.759 C 165.995 144.009,166.690 146.032,166.767 145.955 C 166.802 145.920,166.650 145.372,166.428 144.737 C 166.206 144.103,166.019 143.663,166.012 143.759 M200.875 144.583 C 200.877 144.950,200.911 145.080,200.951 144.873 C 200.991 144.666,200.990 144.366,200.948 144.206 C 200.906 144.047,200.874 144.217,200.875 144.583 M199.042 144.750 C 199.044 145.117,199.078 145.247,199.118 145.040 C 199.158 144.832,199.156 144.532,199.115 144.373 C 199.073 144.214,199.040 144.383,199.042 144.750 M178.038 145.569 C 177.023 146.265,176.492 146.697,177.000 146.414 C 177.531 146.119,179.167 144.984,179.167 144.910 C 179.167 144.796,179.166 144.796,178.038 145.569 M188.742 145.708 L 188.083 146.417 188.792 145.758 C 189.450 145.145,189.577 145.000,189.450 145.000 C 189.423 145.000,189.105 145.319,188.742 145.708 M211.000 145.583 C 211.311 145.904,211.603 146.167,211.649 146.167 C 211.695 146.167,211.478 145.904,211.167 145.583 C 210.856 145.262,210.564 145.000,210.518 145.000 C 210.472 145.000,210.689 145.262,211.000 145.583 M186.491 145.792 L 185.917 146.417 186.542 145.842 C 187.123 145.308,187.243 145.167,187.116 145.167 C 187.088 145.167,186.807 145.448,186.491 145.792 M179.000 145.833 C 178.496 146.100,178.142 146.321,178.214 146.325 C 178.391 146.336,180.000 145.515,180.000 145.414 C 180.000 145.303,180.023 145.293,179.000 145.833 M191.119 146.923 C 190.688 147.790,190.372 148.500,190.416 148.500 C 190.527 148.500,192.035 145.480,191.961 145.406 C 191.929 145.373,191.550 146.056,191.119 146.923 M201.045 146.000 C 201.045 146.412,201.078 146.581,201.118 146.375 C 201.157 146.169,201.157 145.831,201.118 145.625 C 201.078 145.419,201.045 145.587,201.045 146.000 M213.500 145.917 C 213.811 146.237,214.103 146.500,214.149 146.500 C 214.195 146.500,213.978 146.237,213.667 145.917 C 213.356 145.596,213.064 145.333,213.018 145.333 C 212.972 145.333,213.189 145.596,213.500 145.917 M193.897 145.708 C 193.323 146.682,193.286 146.765,193.578 146.417 C 193.916 146.013,194.208 145.500,194.099 145.500 C 194.055 145.500,193.964 145.594,193.897 145.708 M198.872 146.000 C 198.872 146.321,198.906 146.452,198.948 146.292 C 198.990 146.131,198.990 145.869,198.948 145.708 C 198.906 145.548,198.872 145.679,198.872 146.000 M208.167 145.726 C 208.167 145.907,209.494 148.500,209.587 148.500 C 209.662 148.500,208.387 145.850,208.231 145.681 C 208.195 145.642,208.167 145.663,208.167 145.726 M222.656 146.135 C 222.879 146.316,223.291 146.591,223.572 146.746 L 224.083 147.028 223.678 146.698 C 223.455 146.517,223.042 146.242,222.761 146.087 L 222.250 145.806 222.656 146.135 M206.312 146.250 C 206.402 146.433,206.598 146.733,206.747 146.917 L 207.018 147.250 206.855 146.917 C 206.765 146.733,206.569 146.433,206.420 146.250 L 206.148 145.917 206.312 146.250 M212.333 146.750 C 212.644 147.071,212.936 147.333,212.982 147.333 C 213.028 147.333,212.811 147.071,212.500 146.750 C 212.189 146.429,211.897 146.167,211.851 146.167 C 211.805 146.167,212.022 146.429,212.333 146.750 M187.158 147.125 L 186.583 147.750 187.208 147.176 C 187.790 146.641,187.910 146.500,187.783 146.500 C 187.755 146.500,187.474 146.781,187.158 147.125 M185.075 147.375 L 184.417 148.083 185.125 147.425 C 185.784 146.812,185.910 146.667,185.784 146.667 C 185.757 146.667,185.438 146.985,185.075 147.375 M199.058 148.000 C 199.058 148.779,199.087 149.098,199.122 148.708 C 199.157 148.319,199.157 147.681,199.122 147.292 C 199.087 146.902,199.058 147.221,199.058 148.000 M214.917 147.500 C 215.275 147.867,215.605 148.167,215.651 148.167 C 215.697 148.167,215.441 147.867,215.083 147.500 C 214.725 147.133,214.395 146.833,214.349 146.833 C 214.303 146.833,214.559 147.133,214.917 147.500 M200.890 148.250 C 200.891 148.983,200.920 149.263,200.956 148.871 C 200.991 148.479,200.990 147.879,200.954 147.537 C 200.919 147.196,200.890 147.517,200.890 148.250 M175.480 147.292 C 175.469 147.360,175.472 147.482,175.487 147.562 C 175.502 147.642,175.395 147.662,175.251 147.607 C 175.097 147.548,174.948 147.609,174.893 147.752 C 174.841 147.887,174.739 147.961,174.667 147.917 C 174.594 147.872,174.358 147.982,174.142 148.162 C 173.927 148.342,173.808 148.491,173.879 148.494 C 174.066 148.502,176.333 147.346,176.333 147.242 C 176.333 147.194,176.188 147.233,176.011 147.327 C 175.604 147.545,175.451 147.547,175.583 147.333 C 175.640 147.242,175.644 147.167,175.593 147.167 C 175.542 147.167,175.491 147.223,175.480 147.292 M224.389 147.434 C 224.389 147.686,224.919 148.027,225.791 148.337 L 226.250 148.501 225.766 148.099 C 225.499 147.877,225.169 147.740,225.030 147.793 C 224.867 147.856,224.821 147.822,224.898 147.697 C 224.978 147.567,224.924 147.540,224.731 147.614 C 224.546 147.685,224.485 147.659,224.559 147.540 C 224.621 147.439,224.608 147.317,224.530 147.269 C 224.453 147.221,224.389 147.295,224.389 147.434 M185.824 148.292 L 185.250 148.917 185.875 148.342 C 186.457 147.808,186.577 147.667,186.449 147.667 C 186.422 147.667,186.140 147.948,185.824 148.292 M214.000 148.250 C 214.311 148.571,214.603 148.833,214.649 148.833 C 214.695 148.833,214.478 148.571,214.167 148.250 C 213.856 147.929,213.564 147.667,213.518 147.667 C 213.472 147.667,213.689 147.929,214.000 148.250 M183.824 148.792 L 183.250 149.417 183.875 148.842 C 184.457 148.308,184.577 148.167,184.449 148.167 C 184.422 148.167,184.140 148.448,183.824 148.792 M216.167 148.917 C 216.478 149.237,216.770 149.500,216.815 149.500 C 216.861 149.500,216.644 149.237,216.333 148.917 C 216.022 148.596,215.730 148.333,215.685 148.333 C 215.639 148.333,215.856 148.596,216.167 148.917 M196.435 149.437 C 196.288 149.871,196.172 150.306,196.179 150.405 C 196.186 150.503,196.335 150.177,196.512 149.680 C 196.688 149.183,196.803 148.748,196.768 148.713 C 196.733 148.677,196.583 149.004,196.435 149.437 M183.417 150.440 L 182.083 151.703 183.268 150.688 C 184.361 149.753,184.965 149.160,184.812 149.171 C 184.778 149.174,184.150 149.745,183.417 150.440 M215.215 149.273 C 215.359 149.510,217.667 151.564,217.667 151.454 C 217.667 151.410,217.089 150.859,216.383 150.229 C 215.677 149.599,215.152 149.169,215.215 149.273 M226.480 149.542 C 226.371 149.748,226.173 150.104,226.040 150.333 C 225.808 150.733,225.810 150.736,226.078 150.417 C 226.411 150.022,226.877 149.167,226.760 149.167 C 226.715 149.167,226.589 149.335,226.480 149.542 M203.526 149.667 C 203.526 149.804,203.664 150.292,203.833 150.750 C 204.002 151.208,204.141 151.471,204.141 151.333 C 204.141 151.196,204.002 150.708,203.833 150.250 C 203.664 149.792,203.526 149.529,203.526 149.667 M199.224 150.917 C 199.224 151.650,199.254 151.929,199.289 151.537 C 199.324 151.145,199.324 150.545,199.288 150.204 C 199.252 149.863,199.223 150.183,199.224 150.917 M182.241 150.542 C 180.824 152.059,180.438 152.500,180.527 152.500 C 180.578 152.500,181.161 151.900,181.823 151.167 C 182.485 150.433,182.999 149.833,182.965 149.833 C 182.931 149.833,182.605 150.152,182.241 150.542 M190.744 150.542 C 190.487 150.931,190.383 151.162,190.513 151.054 C 190.764 150.848,191.402 149.833,191.282 149.833 C 191.243 149.833,191.001 150.152,190.744 150.542 M173.943 150.463 C 174.230 150.984,174.277 151.004,174.969 150.900 C 175.560 150.812,175.793 150.859,176.222 151.158 L 176.750 151.524 176.261 151.077 C 175.840 150.692,175.674 150.643,175.063 150.727 C 174.432 150.813,174.315 150.774,173.999 150.370 L 173.643 149.917 173.943 150.463 M218.333 151.333 C 218.994 152.067,219.573 152.667,219.619 152.667 C 219.664 152.667,219.161 152.067,218.500 151.333 C 217.839 150.600,217.261 150.000,217.215 150.000 C 217.169 150.000,217.672 150.600,218.333 151.333 M200.721 151.250 C 200.722 151.892,200.752 152.134,200.788 151.788 C 200.824 151.442,200.824 150.917,200.787 150.621 C 200.750 150.325,200.721 150.608,200.721 151.250 M169.083 151.000 C 169.226 151.275,169.379 151.500,169.425 151.500 C 169.471 151.500,169.392 151.275,169.250 151.000 C 169.108 150.725,168.954 150.500,168.908 150.500 C 168.862 150.500,168.941 150.725,169.083 151.000 M230.750 151.000 C 230.608 151.275,230.529 151.500,230.575 151.500 C 230.621 151.500,230.774 151.275,230.917 151.000 C 231.059 150.725,231.138 150.500,231.092 150.500 C 231.046 150.500,230.892 150.725,230.750 151.000 M188.701 151.755 C 188.409 152.348,188.205 152.833,188.249 152.833 C 188.361 152.833,189.369 150.813,189.294 150.738 C 189.260 150.705,188.994 151.162,188.701 151.755 M223.718 151.095 L 223.250 151.524 223.778 151.158 C 224.209 150.858,224.452 150.809,225.111 150.887 C 225.660 150.953,225.784 150.938,225.500 150.842 C 224.729 150.579,224.198 150.655,223.718 151.095 M219.318 152.948 C 220.010 153.607,220.604 154.118,220.638 154.084 C 220.673 154.049,220.888 154.223,221.116 154.469 L 221.531 154.917 221.198 154.417 C 220.758 153.754,220.058 153.111,219.723 153.062 C 219.574 153.040,219.139 152.736,218.757 152.386 C 218.374 152.036,218.627 152.289,219.318 152.948 M181.083 152.500 C 180.454 153.144,180.022 153.386,180.265 152.958 C 180.467 152.603,179.158 153.888,178.780 154.417 L 178.422 154.917 179.086 154.393 C 179.934 153.724,181.945 151.850,181.825 151.841 C 181.775 151.837,181.441 152.133,181.083 152.500 M194.100 152.683 C 194.039 153.065,194.021 153.410,194.061 153.450 C 194.101 153.490,194.186 153.212,194.250 152.833 C 194.314 152.454,194.331 152.109,194.289 152.067 C 194.246 152.024,194.161 152.301,194.100 152.683 M189.039 153.125 C 188.607 153.748,188.467 154.000,188.551 154.000 C 188.590 154.000,188.821 153.700,189.064 153.333 C 189.557 152.588,189.535 152.408,189.039 153.125 M223.167 152.699 C 223.167 152.752,223.279 153.010,223.416 153.273 C 223.553 153.535,223.663 153.637,223.660 153.500 C 223.658 153.362,223.546 153.104,223.411 152.926 C 223.277 152.749,223.167 152.646,223.167 152.699 M199.388 153.917 C 199.389 154.558,199.419 154.800,199.455 154.455 C 199.491 154.109,199.490 153.584,199.454 153.288 C 199.417 152.992,199.387 153.275,199.388 153.917 M210.921 153.261 C 211.076 153.542,211.351 153.955,211.532 154.178 L 211.861 154.583 211.579 154.072 C 211.424 153.791,211.149 153.379,210.968 153.156 L 210.639 152.750 210.921 153.261 M170.667 153.500 C 170.862 153.775,171.060 154.000,171.106 154.000 C 171.152 154.000,171.029 153.775,170.833 153.500 C 170.638 153.225,170.440 153.000,170.394 153.000 C 170.348 153.000,170.471 153.225,170.667 153.500 M229.167 153.500 C 228.971 153.775,228.848 154.000,228.894 154.000 C 228.940 154.000,229.138 153.775,229.333 153.500 C 229.529 153.225,229.652 153.000,229.606 153.000 C 229.560 153.000,229.362 153.225,229.167 153.500 M200.550 154.333 C 200.550 154.837,200.581 155.044,200.619 154.792 C 200.658 154.540,200.658 154.127,200.619 153.875 C 200.581 153.623,200.550 153.829,200.550 154.333 M221.996 155.292 L 220.583 156.750 222.042 155.337 C 222.844 154.560,223.500 153.904,223.500 153.879 C 223.500 153.757,223.309 153.937,221.996 155.292 M177.917 155.333 C 178.646 156.067,179.280 156.667,179.326 156.667 C 179.371 156.667,178.812 156.067,178.083 155.333 C 177.354 154.600,176.720 154.000,176.674 154.000 C 176.629 154.000,177.188 154.600,177.917 155.333 M171.496 154.662 C 171.690 154.934,171.934 155.209,172.038 155.273 C 172.142 155.338,172.017 155.115,171.760 154.779 C 171.203 154.048,170.993 153.955,171.496 154.662 M199.548 157.083 C 199.549 157.542,199.581 157.709,199.620 157.456 C 199.658 157.203,199.657 156.828,199.617 156.623 C 199.578 156.418,199.546 156.625,199.548 157.083 M173.758 157.341 C 174.212 157.849,174.617 158.240,174.659 158.210 C 174.700 158.179,174.329 157.764,173.833 157.286 L 172.932 156.417 173.758 157.341 M200.381 157.250 C 200.382 157.708,200.415 157.876,200.453 157.623 C 200.491 157.369,200.490 156.994,200.451 156.789 C 200.411 156.584,200.380 156.792,200.381 157.250 M226.320 157.125 C 225.544 157.960,225.099 158.500,225.187 158.500 C 225.227 158.500,225.655 158.050,226.139 157.500 C 227.112 156.395,227.234 156.142,226.320 157.125 M186.333 157.251 C 186.134 157.572,185.904 157.794,185.821 157.742 C 185.738 157.691,185.720 157.778,185.780 157.935 C 185.861 158.145,185.831 158.185,185.669 158.085 C 185.514 157.989,185.488 158.012,185.581 158.164 C 185.722 158.392,186.007 158.098,186.575 157.136 C 186.977 156.456,186.761 156.558,186.333 157.251 M213.732 157.542 C 214.308 158.527,214.546 158.833,214.728 158.820 C 214.848 158.812,214.840 158.776,214.707 158.723 C 214.592 158.676,214.540 158.570,214.592 158.486 C 214.644 158.402,214.602 158.333,214.500 158.333 C 214.398 158.333,214.367 158.247,214.433 158.141 C 214.512 158.013,214.478 157.994,214.331 158.085 C 214.171 158.184,214.139 158.146,214.216 157.946 C 214.274 157.795,214.254 157.689,214.172 157.710 C 214.091 157.732,213.898 157.600,213.744 157.417 C 213.481 157.103,213.480 157.110,213.732 157.542 M193.433 158.600 C 193.272 159.111,193.170 159.559,193.207 159.596 C 193.244 159.633,193.406 159.244,193.567 158.733 C 193.728 158.222,193.830 157.774,193.793 157.737 C 193.756 157.701,193.594 158.089,193.433 158.600 M206.179 157.749 C 206.161 157.994,207.023 160.532,207.099 160.457 C 207.134 160.421,206.945 159.760,206.678 158.988 C 206.410 158.215,206.186 157.658,206.179 157.749 M175.667 159.227 C 175.987 159.577,176.625 160.169,177.083 160.544 C 178.048 161.333,177.710 160.975,176.167 159.574 C 175.571 159.033,175.346 158.877,175.667 159.227 M223.333 160.038 C 222.646 160.692,222.383 160.995,222.750 160.711 C 223.397 160.210,224.811 158.825,224.659 158.841 C 224.617 158.846,224.021 159.384,223.333 160.038 M184.864 159.417 C 184.759 159.646,184.701 159.833,184.734 159.833 C 184.768 159.833,184.918 159.646,185.068 159.417 C 185.218 159.188,185.276 159.000,185.197 159.000 C 185.118 159.000,184.968 159.188,184.864 159.417 M214.932 159.417 C 215.082 159.646,215.232 159.833,215.266 159.833 C 215.299 159.833,215.241 159.646,215.136 159.417 C 215.032 159.188,214.882 159.000,214.803 159.000 C 214.724 159.000,214.782 159.188,214.932 159.417 M199.712 160.000 C 199.712 160.412,199.745 160.581,199.784 160.375 C 199.824 160.169,199.824 159.831,199.784 159.625 C 199.745 159.419,199.712 159.587,199.712 160.000 M200.212 160.000 C 200.212 160.412,200.245 160.581,200.284 160.375 C 200.324 160.169,200.324 159.831,200.284 159.625 C 200.245 159.419,200.212 159.587,200.212 160.000 M184.000 160.075 C 184.000 160.121,184.225 160.274,184.500 160.417 C 184.775 160.559,185.000 160.638,185.000 160.592 C 185.000 160.546,184.775 160.392,184.500 160.250 C 184.225 160.108,184.000 160.029,184.000 160.075 M186.961 161.019 L 186.417 161.538 186.971 161.102 C 187.651 160.568,188.442 160.536,189.103 161.016 L 189.583 161.366 189.116 160.933 C 188.450 160.316,187.665 160.348,186.961 161.019 M210.884 160.933 L 210.417 161.366 210.897 161.016 C 211.558 160.536,212.349 160.568,213.029 161.102 L 213.583 161.538 213.039 161.019 C 212.335 160.348,211.550 160.316,210.884 160.933 M189.562 162.070 C 189.576 162.497,189.670 162.748,189.833 162.791 C 190.004 162.837,190.021 162.814,189.889 162.720 C 189.781 162.643,189.659 162.319,189.617 161.999 C 189.544 161.441,189.542 161.444,189.562 162.070 M207.616 161.781 C 207.570 161.855,207.632 162.142,207.754 162.417 L 207.977 162.917 207.881 162.333 C 207.772 161.669,207.734 161.589,207.616 161.781 M210.320 162.208 C 210.271 162.566,210.296 162.771,210.380 162.687 C 210.460 162.606,210.499 162.325,210.466 162.062 C 210.411 161.621,210.400 161.633,210.320 162.208 M192.117 162.292 C 191.996 162.926,192.093 162.952,192.305 162.342 C 192.403 162.062,192.420 161.833,192.344 161.833 C 192.268 161.833,192.166 162.040,192.117 162.292 M199.833 162.823 C 199.833 163.196,199.908 163.500,200.000 163.500 C 200.092 163.500,200.167 163.242,200.167 162.927 C 200.167 162.611,200.092 162.307,200.000 162.250 C 199.899 162.188,199.833 162.415,199.833 162.823 M180.322 162.968 C 180.545 163.149,180.958 163.424,181.239 163.579 L 181.750 163.861 181.344 163.532 C 181.121 163.351,180.709 163.076,180.428 162.921 L 179.917 162.639 180.322 162.968 M194.665 163.292 C 194.467 163.544,194.181 163.801,194.028 163.863 C 193.794 163.958,193.803 163.977,194.083 163.981 C 194.285 163.984,194.562 163.758,194.784 163.410 C 195.225 162.718,195.163 162.657,194.665 163.292 M209.250 163.000 C 209.040 163.090,209.009 163.143,209.167 163.143 C 209.304 163.143,209.567 163.079,209.750 163.000 C 209.960 162.910,209.991 162.857,209.833 162.857 C 209.696 162.857,209.433 162.921,209.250 163.000 M218.875 163.353 C 218.307 163.716,218.123 163.961,218.625 163.685 C 219.007 163.475,219.606 163.011,219.500 163.008 C 219.454 163.007,219.173 163.162,218.875 163.353 M191.821 163.431 C 192.227 163.559,192.827 163.700,193.155 163.746 C 193.482 163.792,193.225 163.682,192.583 163.502 C 191.262 163.131,190.697 163.078,191.821 163.431 M207.333 163.513 C 206.737 163.686,206.518 163.790,206.845 163.745 C 207.536 163.649,209.037 163.200,208.667 163.199 C 208.529 163.199,207.929 163.340,207.333 163.513 M199.049 164.457 C 199.671 164.489,200.646 164.489,201.215 164.457 C 201.784 164.424,201.275 164.398,200.083 164.398 C 198.892 164.398,198.426 164.425,199.049 164.457 M215.667 165.167 C 215.162 165.433,214.809 165.654,214.881 165.659 C 215.058 165.669,216.667 164.848,216.667 164.747 C 216.667 164.636,216.690 164.626,215.667 165.167 M183.667 164.915 C 183.667 165.029,184.687 165.535,184.763 165.459 C 184.800 165.423,184.568 165.268,184.248 165.116 C 183.928 164.963,183.667 164.873,183.667 164.915 M185.500 165.833 C 185.821 166.009,186.158 166.153,186.250 166.153 C 186.342 166.153,186.154 166.009,185.833 165.833 C 185.512 165.658,185.175 165.514,185.083 165.514 C 184.992 165.514,185.179 165.658,185.500 165.833 M214.000 165.917 C 213.771 166.048,213.658 166.155,213.750 166.155 C 213.842 166.155,214.104 166.048,214.333 165.917 C 214.563 165.786,214.675 165.678,214.583 165.678 C 214.492 165.678,214.229 165.786,214.000 165.917 M206.500 168.185 C 205.534 168.396,205.349 168.468,205.917 168.410 C 206.840 168.315,208.777 167.869,208.250 167.872 C 208.067 167.873,207.279 168.014,206.500 168.185 M192.667 168.167 C 192.896 168.240,193.271 168.299,193.500 168.297 C 193.874 168.294,193.866 168.281,193.417 168.167 C 192.712 167.987,192.106 167.987,192.667 168.167 M195.294 168.618 C 195.501 168.658,195.801 168.656,195.960 168.615 C 196.120 168.573,195.950 168.540,195.583 168.542 C 195.217 168.544,195.086 168.578,195.294 168.618 M204.127 168.618 C 204.334 168.658,204.634 168.656,204.794 168.615 C 204.953 168.573,204.783 168.540,204.417 168.542 C 204.050 168.544,203.920 168.578,204.127 168.618 M196.877 168.786 C 197.131 168.825,197.506 168.824,197.711 168.784 C 197.916 168.744,197.708 168.713,197.250 168.714 C 196.792 168.716,196.624 168.748,196.877 168.786 M202.377 168.786 C 202.631 168.825,203.006 168.824,203.211 168.784 C 203.416 168.744,203.208 168.713,202.750 168.714 C 202.292 168.716,202.124 168.748,202.377 168.786 " stroke="none" fill="#5b5bb4" fill-rule="evenodd"></path></g></svg>